<svg width="190" height="100" viewBox="0 0 190 100" fill="none" xmlns="http://www.w3.org/2000/svg">
<path d="M188.22 24.579C188.222 23.8637 188.241 23.1552 188.281 22.44C188.366 20.9359 189.034 18.9923 188.999 17.4836C188.839 17.4586 186.964 16.9934 186.571 16.9428C186.54 16.9388 186.151 17.1363 186.063 17.147C185.341 17.234 184.557 17.1424 183.829 17.1424C182.664 17.1424 181.499 17.143 180.334 17.1424C178.813 17.1415 177.326 16.9318 175.815 16.9416C174.525 16.95 173.235 16.9436 171.945 16.9436C170.492 16.9436 168.969 17.0635 167.527 16.8993C165.612 16.6813 163.719 16.8376 161.8 16.755C160.81 16.7125 159.855 16.5333 158.861 16.5414C158.311 16.5458 157.761 16.546 157.211 16.546H146.903C146.135 16.546 145.366 16.5495 144.597 16.5414C143.66 16.5314 142.739 16.6781 141.805 16.7223C141.189 16.7514 140.573 16.7718 139.958 16.8032C139.417 16.8307 139.276 16.9428 138.912 16.8089C139.436 16.4974 139.554 15.8274 139.548 15.2553C139.539 14.378 139.75 13.6481 139.747 12.7876C139.744 12.042 139.843 11.2227 139.755 10.4824C139.676 9.82264 139.459 9.14999 139.344 8.49434C139.223 7.80292 139.161 7.08725 138.996 6.40688C138.919 6.08963 138.921 5.89768 138.758 5.61165C138.585 5.3096 138.365 4.99332 138.159 4.71509C137.102 3.28088 134.965 3.42481 133.357 3.42481C132.35 3.42481 134.668 3.31153 130.353 3.57938C129.763 3.61601 129.202 3.65352 128.619 3.86664C128.254 3.99989 127.93 4.24878 127.585 4.41952C127.09 4.66476 126.613 4.82215 126.135 5.1127C125.324 5.60631 124.535 6.14532 123.846 6.80449C122.901 7.7091 122.464 11.0458 122.459 11.377C122.455 11.7386 122.576 11.9308 122.641 12.2717C122.758 12.8927 123.742 14.5235 124.049 14.7624C124.288 14.9491 125.655 15.6148 126.041 15.8505C126.43 16.0878 127.825 17.2438 128.228 18.4065C127.637 18.5773 128.259 18.7328 127.642 18.7328C127.008 18.7328 126.372 18.7176 125.738 18.7309C125.386 18.7382 125.187 18.8896 124.857 18.9465C124.33 19.0372 123.693 18.741 123.164 18.7257C122.666 18.7114 122.291 18.7875 121.813 18.8874C121.359 18.9822 120.906 18.9038 120.446 18.9214C118.85 18.9824 117.249 19.2925 115.655 19.3338C114.599 19.3612 113.536 19.3311 112.479 19.3292C111.525 19.3276 110.646 19.5334 109.701 19.5281C108.721 19.5225 107.74 19.5281 106.76 19.5281C105.034 19.5281 103.351 19.3298 101.627 19.3292C100.14 19.3288 98.7328 19.1304 97.2421 19.1304C96.2488 19.1304 95.202 19.2214 94.2179 19.0862C93.4349 18.9787 92.6911 18.9321 91.9011 18.9316C90.7809 18.931 90.6 19.1304 89.4716 19.1304C87.5231 19.1304 85.5741 19.1181 83.6257 19.1297C82.5062 19.1364 81.4416 18.9289 80.3242 18.932C78.6237 18.9367 76.9304 19.0004 75.2452 18.7771C73.4493 18.5391 71.5524 18.7883 69.7985 18.3794C69.4054 18.2878 69.0224 18.365 68.6222 18.3455C68.2028 18.3251 67.8133 18.1647 67.3997 18.1261C66.856 18.0755 66.321 18.1663 65.8187 18.037C65.3315 17.9116 64.731 18.07 64.2242 17.9479C64.0618 17.9088 64.0097 17.7678 63.8473 17.7285C63.6438 17.6793 63.3488 17.7446 63.1415 17.7407C62.6494 17.7316 62.2548 17.5356 61.7505 17.5404C61.3216 17.5444 60.8924 17.54 60.4634 17.54C59.8843 17.54 59.2881 17.5782 58.71 17.5446C58.3871 17.5259 58.3948 17.4013 58.164 17.3582C57.8678 17.3029 57.5294 17.3406 57.2248 17.3412C56.2162 17.3432 55.2075 17.3412 54.1989 17.3412H50.5286C49.9438 17.3412 49.375 17.3844 48.8165 17.2418C48.2878 17.1068 47.7172 17.247 47.2098 17.1077C47.2603 16.9237 47.4454 16.8438 47.5039 16.6999C47.5586 16.5654 47.5008 16.4736 47.5372 16.3518C47.6413 16.003 47.8137 15.6722 47.9888 15.3485C48.2611 14.845 48.5826 14.3772 48.8389 13.8676C49.1128 13.3232 49.2927 12.7377 49.5785 12.1723C49.7323 11.8681 49.841 11.5948 49.9508 11.2776C50.0664 10.9438 50.0407 10.6963 50.1145 10.3727C50.1859 10.0595 50.3287 9.96478 50.3235 9.58639C50.3192 9.27023 50.3242 8.95347 50.3242 8.63729C50.3242 7.80962 50.3246 6.98195 50.3242 6.15428C50.3238 5.29253 50.3106 4.48029 49.9865 3.66785C49.6354 2.78762 48.7398 2.41542 47.8904 2.08698C46.8555 1.68675 45.6371 1.19455 44.5338 1.04512C43.8109 0.947236 42.9976 1.0391 42.2687 1.03914C40.7131 1.03922 39.4023 1.02821 37.9998 1.82409C37.4663 2.12682 36.7835 2.53582 36.3316 2.94281C35.8793 3.35013 35.4821 3.85822 35.0344 4.27998C34.3897 4.88746 33.6552 5.52119 33.2251 6.30943C32.9208 6.867 32.9459 7.42125 32.7935 7.99734C32.6813 8.42126 32.6761 8.35891 32.7935 8.78795C32.8947 9.15769 32.7536 9.54086 32.845 9.90685C32.9829 10.4592 33.3966 11.0222 33.6415 11.5412C33.8021 11.8816 33.9199 12.2335 34.0792 12.5745C34.3371 13.1262 34.7311 13.5008 35.0774 13.9558C35.2422 14.1724 35.3027 14.5113 35.4596 14.7072C35.5973 14.8792 35.8143 15.0326 35.9666 15.2095C36.3013 15.5983 36.6152 16.0208 36.9602 16.401C37.3099 16.7863 37.6073 17.2089 37.9538 17.5938C38.2078 17.8759 38.6031 18.0868 38.6383 18.4955C38.6918 18.5083 38.7452 18.5212 38.7985 18.534C38.7874 18.5892 39.1739 18.6444 39.1627 18.6996C38.5498 18.8377 38.0836 18.9312 37.4075 18.9316C36.7054 18.932 35.978 18.8579 35.306 19.031C34.4353 19.2553 33.5288 19.0348 32.6383 19.1202C32.147 19.1673 31.7514 19.3345 31.2473 19.3285C30.8932 19.3244 30.5052 19.2871 30.1539 19.3218C29.2585 19.4104 28.3903 19.6589 27.4812 19.7212C26.8846 19.7621 26.3184 19.905 25.7189 19.9257C25.2689 19.9412 24.9058 20.1009 24.4644 20.1319C23.5468 20.1963 22.5712 19.9986 21.6583 20.1142C21.1908 20.1734 20.8044 20.3344 20.3178 20.3279C19.9002 20.3222 19.3838 20.2454 18.9717 20.313C18.0469 20.4646 17.0892 20.6753 16.1394 20.7312C15.6861 20.7578 15.2268 20.6844 14.7735 20.7106C14.1105 20.749 13.4933 20.9357 12.8203 20.925C11.8665 20.9098 10.9682 21.0885 10.0248 21.1288C9.41531 21.1547 8.79456 21.0398 8.19141 21.1627C7.24416 21.3557 6.33111 21.2918 5.3659 21.3127C4.69291 21.3272 4.12481 21.6568 3.42609 21.4719C3.07694 21.3794 2.80396 21.3279 2.42857 21.2692C2.26896 21.2442 2.03001 21.0715 1.86176 21.1485C1.78721 21.1827 1.76114 21.3153 1.69351 21.3629C1.14602 21.7481 0.908523 22.2033 1.03189 22.9077C1.08344 23.2022 1.22886 23.3959 1.24554 23.7029C1.25973 23.9651 1.24075 24.2351 1.24092 24.4982C1.24126 25.1096 1.24058 25.721 1.24092 26.3324C1.24109 26.6797 1.17749 27.0933 1.23066 27.4353C1.27871 27.7445 1.42669 27.9584 1.44422 28.2755C1.46063 28.5718 1.42746 28.8732 1.43772 29.1701C1.44986 29.524 1.59015 29.7339 1.64863 30.0647C1.77541 30.7828 1.38762 31.5046 1.45944 32.1922C1.79251 32.4938 2.8126 32.175 3.18389 32.097C3.72531 31.9833 4.28221 32.1271 4.82705 32.0574C5.08096 32.0249 5.17919 31.8978 5.40369 31.8437C5.62435 31.7905 5.97897 31.8536 6.20886 31.854C6.75242 31.8548 7.29597 31.854 7.83961 31.854C10.0218 31.854 12.1579 32.0538 14.3407 32.0528C14.7934 32.0526 15.3148 32.1236 15.7567 32.0358C16.0413 31.9793 16.253 31.8691 16.5415 31.8494C17.1812 31.8057 17.7036 32.0428 18.3236 32.0602C19.621 32.0968 20.9242 32.0395 22.2226 32.0548C22.6758 32.0601 22.8816 31.924 23.2876 31.8437C23.5783 31.7862 23.9072 31.9046 24.2003 31.8614C24.4453 31.8253 24.6331 31.699 24.8741 31.6449C25.2334 31.5642 25.7053 31.6554 26.0791 31.6552C27.8217 31.6543 29.5644 31.6504 31.3071 31.6552C31.945 31.6569 32.5253 31.5669 33.1347 31.4619C33.6133 31.3794 34.1109 31.1304 34.6294 31.2434C34.9931 31.3227 35.0196 31.5027 35.0275 31.854C35.035 32.1846 35.1045 32.2394 35.1775 32.4946C35.2947 32.9043 35.2217 33.4111 35.2217 33.842C35.2217 34.4179 35.1338 35.0737 35.2659 35.632C35.4262 36.3099 35.3502 36.9696 35.4645 37.659C35.7809 39.5646 35.9589 41.5121 36.4197 43.3801C36.66 44.3547 36.5609 45.3838 36.7672 46.3707C36.8651 46.8387 36.7326 47.315 36.8556 47.7726C36.927 48.0383 37.0046 48.153 37.012 48.4543C37.0518 50.0614 37.127 51.7227 36.6107 53.2437C36.4802 53.6281 36.3787 54.0451 36.2149 54.4184C36.0495 54.7955 35.8033 55.1914 35.6191 55.6038C35.3511 56.2038 35.0251 56.8272 34.8222 57.4079C34.6524 57.8942 34.5159 58.3656 34.4268 58.9064C34.3863 59.152 34.2721 59.2518 34.2178 59.4777C34.1652 59.6965 34.2625 59.944 34.2111 60.1668C34.1657 60.3638 34.0514 60.4398 34.024 60.6762C33.9854 61.0102 33.9842 61.1513 33.8794 61.476C33.709 62.0042 33.5959 62.5669 33.4389 63.0767C33.3806 63.2658 33.2739 63.354 33.2267 63.5557C33.1778 63.7645 33.2362 63.9996 33.1903 64.2151C33.0971 64.6523 32.8557 65.2191 32.6928 65.6959C32.4757 66.3313 32.2146 66.9509 31.993 67.5845C31.7166 68.375 31.4557 69.1739 31.1982 69.9708C30.9448 70.7548 30.6759 71.4928 30.3979 72.2614C30.1203 73.0292 29.9535 73.8225 29.7018 74.5915C29.5008 75.2055 29.405 75.8799 29.2353 76.5083C29.1331 76.8869 29.1056 77.3084 28.9451 77.6565C28.7898 77.9934 28.6243 78.256 28.5151 78.6182C28.2883 79.3705 28.0018 80.0955 27.7646 80.8422C27.4648 81.786 27.0921 82.7451 26.679 83.6428C26.2493 84.577 26.0124 85.574 25.6336 86.5209C25.2294 87.532 24.8529 88.4499 24.5404 89.5122C24.409 89.9588 24.2215 90.4139 24.1124 90.8168C23.9677 91.351 23.7716 91.7717 23.5415 92.2954L23.1545 93.0267C23.3065 93.0614 23.4227 93.1897 23.562 93.2332C23.679 93.2697 23.7956 93.2736 23.92 93.2803C24.0246 93.286 24.1186 93.3302 24.2225 93.3373C24.2972 93.3424 24.3482 93.3294 24.4242 93.3461C24.6171 93.3884 24.8034 93.4124 25.0008 93.4356C25.5314 93.498 26.0611 93.5678 26.5895 93.648C27.2179 93.7434 27.8394 93.8622 28.4642 93.9714C28.7529 94.0219 29.0672 94.0388 29.3595 94.0513C29.4952 94.0571 29.6251 94.1026 29.7614 94.1069C29.8705 94.1103 29.9729 94.0994 30.0813 94.1156C30.641 94.1994 31.2067 94.2247 31.7644 94.3094C32.4571 94.4147 33.1216 94.6684 33.8212 94.6684L34.8288 94.5127C35.4509 93.0579 36.1175 91.587 36.4634 90.0488C36.6684 89.1371 36.9783 88.22 37.2484 87.3214C37.4074 86.7928 37.7528 86.3898 37.9595 85.8894C38.1695 85.3811 38.2863 84.8405 38.5135 84.33C39.3819 82.3793 40.3348 80.4785 41.233 78.5439C41.8714 77.1689 42.4124 75.7472 43.0248 74.3615C43.3566 73.6104 43.8629 73.0013 44.2576 72.2932C44.729 71.4475 45.0398 70.5552 45.3508 69.6495C45.5558 69.0523 45.8141 68.5341 45.9713 67.9372C46.1194 67.375 46.2853 66.8283 46.4418 66.2548C46.632 65.5574 47.0071 64.9708 47.1557 64.2547C47.4472 62.85 47.3312 60.6394 47.9396 59.2891C48.069 59.5558 48.1085 59.6823 48.1383 59.9849C48.1651 60.257 48.2516 60.3723 48.3181 60.6003C48.4485 61.0472 48.5786 61.4899 48.7589 61.956C49.1026 62.8444 49.3464 63.9209 49.5728 64.8564C49.8256 65.901 50.1335 67.0168 50.5229 68.0366C50.7213 68.5563 50.7995 69.0911 50.9692 69.627C51.1303 70.1359 51.3484 70.6916 51.4723 71.2175C51.7215 72.275 51.8907 73.2089 52.3883 74.1995C52.8298 75.0786 53.0832 76.0854 53.3439 76.9835C53.4859 77.4727 53.7544 77.984 53.9258 78.4739C54.0885 78.9383 54.2718 79.4038 54.3979 79.8825C54.5403 80.423 54.8192 81.0102 54.9057 81.5554C54.9796 82.0217 55.0212 82.4805 55.1369 82.947C55.3392 83.7613 55.5044 84.5515 55.8844 85.3224C56.0366 85.6311 56.1897 85.8736 56.4409 86.1381C56.6299 86.3371 56.8779 86.486 57.0417 86.7197C57.3606 87.1746 57.5031 87.7942 57.6767 88.3128C58.3981 90.467 58.9451 92.6106 59.3655 94.7759C59.5543 95.7479 59.8503 96.5525 60.3093 97.4598C61.542 97.7037 62.9345 97.5485 64.1883 97.543C64.8968 97.5399 65.5627 97.5783 66.223 97.4148C66.6496 97.3091 67.1109 97.3032 67.5478 97.2042C67.9763 97.1071 68.3211 97.0653 68.7694 97.0665C69.2316 97.0676 69.7438 97.1319 70.1964 97.0315C70.6296 96.9355 70.9545 96.9069 71.4101 96.9095C71.7682 96.9115 72.0192 96.8614 72.3507 96.7869C72.5988 96.7311 72.8387 96.5319 73.0778 96.5821C72.4405 94.9782 72.0091 93.184 71.587 91.4956C70.9809 89.0715 70.2552 86.6878 69.4454 84.3276C69.1341 83.4208 68.9145 82.4918 68.5574 81.6003C68.2917 80.9369 68.1227 80.2235 67.8163 79.5769C67.3901 78.6774 67.0866 77.6779 66.7633 76.7309C66.538 76.0708 66.2538 75.4482 66.0233 74.7885C65.6295 73.6618 65.0658 72.6009 64.6811 71.4701C64.2315 70.1487 63.7665 68.8417 63.2412 67.5546C62.8483 66.5918 62.4938 65.6753 62.2466 64.6569C62.0955 64.0344 61.8421 63.4532 61.5974 62.863C61.4245 62.4462 61.3795 62.0097 61.2289 61.5754C61.0645 61.1012 60.8543 60.6523 60.68 60.1838C60.5238 59.7641 60.4726 59.2722 60.2204 58.8915C59.9016 58.4099 59.4985 58.0143 59.212 57.4999C58.9829 57.0883 58.8236 56.652 58.6459 56.2246C58.4848 55.8369 58.3071 55.435 58.1736 55.0129C58.1218 54.8492 58.0197 54.667 57.9729 54.5178C57.9115 54.3224 57.9346 54.1182 57.8864 53.9104C57.8429 53.7225 57.7119 53.6314 57.6694 53.4318C57.626 53.2287 57.6764 52.9361 57.6767 52.7285C57.6776 52.3309 57.6767 51.9333 57.6767 51.5357C57.6767 50.5949 57.4785 49.7812 57.478 48.8518C57.4775 47.7447 57.478 46.6376 57.478 45.5305C57.478 44.466 57.4788 43.4014 57.478 42.3369C57.4777 41.838 57.5461 41.3058 57.4611 40.8136C57.4083 40.5081 57.2928 40.2414 57.2719 39.9284C57.2037 38.9062 57.2794 37.85 57.2794 36.8241C57.2794 35.9909 57.386 35.0137 57.18 34.2471C57.0552 33.7828 57.0791 33.2612 57.0806 32.7486C57.0819 32.2787 56.9591 31.9211 56.9016 31.4864C57.1009 31.4213 57.2775 31.4697 57.4787 31.4617C57.7604 31.4504 57.8121 31.37 58.0742 31.3018C58.3947 31.2184 58.7361 31.2579 59.0678 31.2576C59.5972 31.257 60.0699 31.6968 60.4301 31.2576C62.9069 31.2576 65.3847 31.2801 67.8612 31.2582C68.5298 31.2523 69.1394 31.4401 69.8008 31.4638C70.4213 31.4861 71.0502 31.4564 71.6715 31.4564C72.3829 31.4564 73.1841 31.3476 73.8836 31.4734C74.3189 31.5516 74.6509 31.6593 75.101 31.6545C75.9917 31.645 76.8948 31.6135 77.7851 31.6449C78.5649 31.6724 79.3016 31.8591 80.087 31.8533C80.7659 31.8483 81.4448 31.8559 82.1236 31.8494C82.8738 31.8421 83.5168 32.0664 84.2657 32.0574C85.5714 32.0416 86.9669 31.9174 88.2587 32.097C89.5266 32.2733 90.7831 32.2694 92.0645 32.2523C92.6162 32.2449 93.0996 32.433 93.6447 32.455C94.1055 32.4736 94.5735 32.4523 95.035 32.4504C95.8103 32.4472 96.4538 32.6481 97.2292 32.6492C98.5649 32.6511 99.8412 32.8471 101.181 32.848C102.444 32.8489 103.706 32.8515 104.968 32.848C106.3 32.8443 107.589 33.0204 108.916 33.0564C109.925 33.0837 110.797 32.8962 111.776 32.8377C112.44 32.7981 113.113 32.9215 113.77 32.8038C114.039 32.7555 114.251 32.6544 114.535 32.6414C114.789 32.6297 115.053 32.6892 115.306 32.6588C116.73 32.4873 118.126 31.9395 119.543 31.7001C120.785 31.4904 122.247 31.5971 123.487 31.6994C124.226 31.7603 124.944 31.8516 125.689 31.8604C125.933 31.8632 127.092 31.6603 127.289 32.0443C126.841 32.5197 126.961 33.5259 126.812 34.1418C126.677 34.699 126.527 35.3081 126.307 35.8453C125.832 37.0026 125.247 38.1768 124.718 39.2996C124.421 39.9303 124.286 40.6716 123.927 41.2976C123.491 42.0554 123.135 42.8688 122.755 43.6659C122.399 44.4118 122.163 45.2262 121.763 45.9499C120.349 48.5125 120.236 51.7382 118.525 54.1312C118.038 54.8113 117.728 55.6008 117.302 56.3134C117.042 56.7465 116.618 57.0088 116.407 57.4755C116.219 57.8921 116.135 58.3023 115.862 58.6881C115.509 59.1863 115.266 59.7483 114.918 60.2396C114.585 60.7106 114.252 61.0385 113.991 61.581C113.482 62.6364 112.797 63.63 112.326 64.6894C111.967 65.4956 111.801 66.3947 111.407 67.1667C111.075 67.8179 110.48 68.4902 110.257 69.1569C110.138 69.5104 110.151 69.8684 110.003 70.2123C109.871 70.52 109.621 70.7222 109.477 71.0219C109.315 71.3574 109.257 71.7374 109.143 72.0928C108.935 72.7435 108.807 73.6066 108.937 74.3053C108.991 74.5963 109.087 74.9351 109.441 74.9943C109.703 75.038 109.883 74.8302 110.138 74.7857C110.357 74.7476 110.586 74.8197 110.806 74.7786C111.533 74.6427 112.168 74.6005 112.936 74.549C114.79 74.4247 116.594 74.3554 118.451 74.5032C119.612 74.5956 120.668 74.4269 121.809 74.3867C122.73 74.3542 123.63 74.4096 124.548 74.3012C124.995 74.2485 125.683 74.2918 126.074 74.0757C125.948 74.4723 126.347 75.1868 126.444 75.5912C126.507 75.8543 126.523 76.1548 126.588 76.4306C126.665 76.7599 126.634 77.0897 126.632 77.4246C126.621 79.1383 126.633 80.8523 126.632 82.566C126.632 83.0317 126.687 83.5268 126.642 83.9898C126.591 84.5247 126.425 84.9843 126.433 85.5314C126.441 86.1058 126.257 86.6001 126.224 87.1661C126.19 87.7488 126.294 88.321 126.19 88.9002C125.945 90.275 126.041 91.6792 126.031 93.0776C126.024 94.0897 126.165 95.0387 126.29 96.0402L126.287 97.8963C126.421 97.9761 126.57 98.0052 126.72 98.0442C127.093 98.1411 127.47 98.2208 127.848 98.298C128.686 98.4692 129.51 98.6941 130.362 98.7856C131.195 98.875 132.035 98.8331 132.868 98.9071C133.509 98.9641 134.138 99.0323 134.783 98.983C135.185 98.9523 135.58 98.9826 135.982 98.9928C136.271 99.0001 136.562 98.9828 136.85 98.9627C137.097 98.9455 137.331 98.9002 137.573 98.8543C137.921 98.7886 138.262 98.8159 138.613 98.8193L138.754 97.821C138.754 97.1023 138.754 96.3837 138.754 95.665C138.754 94.332 138.937 92.8423 138.764 91.5243C138.692 90.979 138.507 90.5205 138.54 89.9537C138.581 89.2604 138.761 88.6517 138.756 87.947C138.748 86.9175 138.615 85.7593 138.743 84.7362C138.841 83.9549 139.045 83.2179 138.963 82.4097C138.92 81.9901 138.763 81.6111 138.744 81.1837C138.719 80.5895 138.859 80.0417 138.928 79.4564C139.028 78.608 139.122 77.7626 139.151 76.9098C139.183 75.9789 139.368 75.0564 139.356 74.1239C139.351 73.8096 139.234 73.518 139.534 73.3908C139.69 73.3249 140.057 73.347 140.252 73.3049C140.75 73.197 141.24 73.2546 141.738 73.1613C142.044 73.1041 142.317 73.0315 142.636 73.0067C143.229 72.9606 143.714 72.8085 144.337 72.8079C144.789 72.8075 145.241 72.815 145.693 72.8063C145.746 72.8053 146.077 72.7615 146.138 72.7937C146.389 72.926 146.309 73.122 146.304 73.405C146.295 73.905 146.233 74.479 146.349 74.9551C146.407 75.1912 146.506 75.3773 146.503 75.6909C146.501 75.9229 146.504 76.1551 146.504 76.3871C146.504 76.9632 146.467 77.5288 146.603 78.0759C146.732 78.5935 146.708 79.1203 146.703 79.6663C146.697 80.187 146.902 80.455 146.901 80.9603C146.898 82.1977 147.46 83.4517 147.656 84.6729C147.801 85.5709 147.949 86.4777 148.088 87.3642C148.223 88.2278 148.405 89.0702 148.54 89.9402C148.694 90.9343 148.9 91.9931 148.89 92.9941C148.883 93.6868 148.886 94.3799 148.888 95.0727C148.889 95.669 148.925 96.2664 148.844 96.8595L148.727 97.8368C149.044 97.8349 149.359 97.8367 149.675 97.8637C150.058 97.8964 150.432 97.9763 150.813 98.0176C151.366 98.0776 151.929 98.0926 152.485 98.0926C153.047 98.0927 153.604 98.0452 154.164 98.0213C154.537 98.0054 154.909 98.006 155.281 97.9796C155.557 97.9601 155.823 97.9029 156.097 97.8726C156.656 97.8107 157.209 97.8675 157.769 97.8664C158.029 97.866 158.29 97.8665 158.55 97.8665C158.695 97.8665 158.845 97.8557 158.99 97.865C159.162 97.8761 159.324 97.8977 159.499 97.897C159.867 97.8955 160.234 97.8963 160.602 97.8963L160.605 96.6736C160.578 95.6997 160.638 94.7577 160.515 93.7892C160.321 92.261 160.206 90.7469 160.217 89.2074C160.224 88.2105 160.013 87.272 160.016 86.2683C160.017 85.9601 160.042 85.6407 160.021 85.3333C160 85.0185 159.865 84.804 159.807 84.4971C159.65 83.6559 159.818 82.6102 159.818 81.7541C159.818 80.901 159.872 80.026 159.822 79.1736C159.798 78.7636 159.633 78.3945 159.609 77.9807C159.582 77.5259 159.619 77.0605 159.619 76.6041C159.618 75.5046 159.619 74.405 159.619 73.3054C159.619 72.9745 159.768 72.2232 159.495 72.0088C159.927 71.7625 160.331 71.8074 160.811 71.8132C161.296 71.819 161.666 71.6261 162.149 71.6098C162.78 71.5884 163.351 71.4254 163.977 71.4117C165.056 71.388 166.139 71.4124 167.218 71.4156C167.794 71.4173 168.407 71.491 168.977 71.372C169.387 71.2865 169.735 71.2041 170.155 71.2122C170.896 71.2263 171.51 71.0094 172.241 71.0167C173.101 71.0253 173.961 71.0186 174.82 71.0186C175.96 71.0186 177.4 71.2609 178.509 70.9893C178.48 70.4993 177.809 69.9512 177.503 69.6316C176.854 68.954 176.235 68.1588 175.71 67.3811C175.259 66.713 174.625 66.2548 174.131 65.606C173.433 64.6898 172.654 63.8228 171.994 62.8772C171.242 61.8002 170.452 60.7538 169.699 59.6772C169.337 59.1591 168.935 58.7264 168.511 58.265C167.988 57.6941 167.594 56.8355 167.259 56.1422C166.134 53.8146 165.281 51.3644 164.035 49.0909C163.501 48.1166 163.003 47.1065 162.371 46.1875C161.576 45.0307 160.719 43.93 159.967 42.7395C158.609 40.5879 157.014 38.6439 155.49 36.6144C155.071 36.0561 154.592 35.5689 154.205 34.9867C153.878 34.4945 153.544 34.0496 153.072 33.6938C152.599 33.3381 152.093 33.061 151.655 32.6485C151.343 32.3551 151.127 31.9926 150.827 31.6955C150.338 31.2108 149.815 30.698 149.29 30.2738C148.84 29.9098 148.176 29.3109 148.114 28.7078C148.944 28.5903 149.663 28.2702 150.518 28.2755C151.546 28.2818 152.575 28.2755 153.604 28.2755C154.788 28.2755 156.093 28.4264 157.248 28.1761C158.212 27.9673 159.254 28.0713 160.24 28.076C161.088 28.08 161.848 27.8958 162.685 27.8704C163.706 27.8395 164.753 27.9727 165.769 27.8336C166.908 27.6777 168.065 27.8107 169.192 27.6348C170.264 27.4675 171.377 27.398 172.464 27.4972C173.177 27.5623 173.836 27.6833 174.553 27.6791C176.301 27.6688 178.133 27.5429 179.863 27.7765C181.256 27.9647 182.679 27.942 184.075 28.1255C185.065 28.2557 186.247 28.4966 187.228 28.2454L188.029 28.4066C188.053 28.4066 188.064 28.4096 188.07 28.4127C188.072 28.4057 188.078 28.3941 188.094 28.3742C188.122 28.3415 188.154 28.249 188.176 28.2085C188.214 28.1387 188.259 28.0642 188.292 27.9917C188.37 27.8231 188.332 27.5911 188.332 27.4085C188.332 27.2156 188.319 27.0166 188.328 26.8237C188.336 26.6296 188.409 26.4443 188.435 26.2524C188.463 26.0446 188.466 25.8196 188.391 25.6245C188.252 25.2635 188.218 24.9659 188.22 24.579Z" fill="white" stroke="black" stroke-width="2" stroke-miterlimit="10"/>
</svg>
