<svg width="110" height="105" viewBox="0 0 110 105" fill="none" xmlns="http://www.w3.org/2000/svg">
<path d="M1.62009 90.1451C0.921817 90.7505 0.9575 92.572 1.04899 93.3861C1.13102 94.1161 1.2349 95.0219 1.46529 95.7152C1.62432 96.1938 1.95135 96.6231 2.22763 97.0389C2.82579 97.9391 3.32125 98.8894 3.89548 99.8018C4.91275 101.418 6.1794 102.581 7.97493 103.166C9.23712 103.578 10.3186 103.751 11.5329 103.194C12.476 102.761 13.3676 102.539 14.2527 101.91C15.3127 101.157 16.4995 100.505 17.5111 99.6791C19.1357 98.3534 20.9375 96.8139 22.259 95.1916C22.997 94.2858 23.6145 93.2355 24.4824 92.443C25.474 91.5375 26.1672 90.5117 27.0518 89.5128C27.604 88.8892 28.2592 88.5056 28.7699 87.8268C29.4645 86.9036 30.3139 86.2634 31.0508 85.4154C31.4049 85.0079 31.6733 84.5228 32.0322 84.1194C32.6609 83.4125 33.4783 82.877 34.1791 82.2596C34.5398 81.9418 34.7925 81.5673 35.0967 81.1988C35.4714 80.7449 35.8485 80.4924 36.2975 80.1054C36.7745 79.6943 37.0771 79.0856 37.4915 78.611C37.9165 78.1242 38.4595 77.8628 38.8754 77.3508C39.8224 76.1853 40.916 75.2243 41.8566 74.0152C42.9207 72.6474 44.1743 71.536 45.2476 70.1676C46.1612 69.0027 46.9927 67.9593 48.0818 66.9904C49.1516 66.0386 49.5581 64.7294 50.3545 63.6358C50.8162 63.0018 51.3693 62.4286 51.8201 61.7869C52.389 60.977 52.8871 59.8566 53.2391 58.9516C53.5055 58.2665 53.413 57.4606 53.5853 56.7326C53.7758 55.9278 53.7884 55.2555 53.8045 54.4142C53.8188 53.6604 54.0073 52.9939 53.5911 52.2839C53.0736 51.401 52.3822 50.8748 51.5836 50.2493C50.1618 49.1358 49.0262 48.0342 47.1828 48.8507C46.7753 49.0312 46.6754 49.1561 46.2877 49.4206C46.097 49.5507 45.6665 49.5808 45.4739 49.7089C44.7259 50.2066 44.1308 50.8832 43.3425 51.3573C42.4414 51.8993 41.6396 52.5782 40.7302 53.112C40.3063 53.3608 40.1954 53.5948 39.8482 53.9143C39.4234 54.3053 39.0518 54.4108 38.684 54.893C38.1062 55.6507 37.5821 56.2941 36.8532 56.8535C35.9136 57.5747 35.1985 58.6161 34.3083 59.4052C33.3357 60.2675 32.1104 61.0635 31.2554 62.0448C30.8572 62.5018 30.8794 63.0285 30.3984 63.4431C29.957 63.8235 29.6273 64.0318 29.2515 64.5209C28.9045 64.9726 28.5835 65.4439 28.1519 65.8174C27.2871 66.566 26.6368 67.3784 25.9163 68.2965C24.7732 69.7533 23.7523 70.9659 22.3237 72.0366C20.9719 73.0497 19.9363 74.3659 18.6696 75.4978C17.0882 76.9107 15.5835 78.4063 13.9751 79.7899C13.3549 80.3234 12.8444 80.9827 12.2349 81.5273C11.6086 82.0869 11.1663 82.7934 10.5455 83.3347C9.38159 84.3495 8.26215 85.4779 7.12618 86.5348C6.68813 86.9423 6.35086 87.2559 5.89365 87.6313C5.50998 87.9463 5.06794 88.26 4.71274 88.597C3.87348 89.3931 2.85265 89.9841 1.62009 90.1451Z" fill="#FFA100" stroke="black" stroke-width="2" stroke-miterlimit="10"/>
<path d="M47.0139 53.8833C47.7363 54.6842 48.5697 55.3595 49.3831 56.0935C49.9647 56.6182 50.8916 56.9834 51.3922 57.5835C51.5072 57.7214 51.4415 57.9015 51.5514 58.0205C51.7428 58.2277 52.0036 58.3647 52.7306 59.5595C54.3039 57.5843 56.6105 56.2922 58.3987 54.5401C59.1825 53.7721 59.9181 52.948 60.6855 52.1625C61.0521 51.7873 61.3705 51.5195 61.7677 51.2037C62.4783 50.6388 62.8095 50.109 63.353 49.3876C64.5072 47.8558 66.0131 46.5778 67.2761 45.1507C68.2398 44.0617 69.2142 43.0002 70.2614 41.9734C70.9165 41.3312 71.3929 40.5729 72.022 39.9154C72.6586 39.2501 73.4557 38.8233 74.0955 38.1764C74.6495 37.6163 75.1655 37.021 75.721 36.4611C75.9802 36.1998 76.2907 35.9648 76.5668 35.7279C76.9797 35.3736 77.2532 34.8815 77.6347 34.5308C77.9408 34.2495 78.2292 34.0957 78.4974 33.774C78.7844 33.4298 79.0264 33.0219 79.2875 32.6563C79.5728 32.2567 79.8416 31.805 80.174 31.4501C80.4138 31.1938 80.6768 31.1094 80.9231 30.8171C81.1937 30.4962 81.3561 30.1051 81.6545 29.804C82.1063 29.3479 82.5044 29.0348 82.8706 28.4934C83.0965 28.1593 83.184 27.9443 83.5735 27.9061C84.4678 27.8184 84.8701 28.5 85.3527 29.1033C85.5686 29.3731 85.7155 29.7447 85.9409 30.0001C86.0851 30.1634 86.3181 30.2182 86.4558 30.3774C86.5375 30.4719 86.5127 30.6736 86.5618 30.7329C87.134 31.4239 87.3186 32.0611 87.7211 32.8866C87.8489 33.1485 88.2541 33.6302 88.2417 33.8617C88.2297 34.0859 87.6765 34.6719 87.5457 34.8548C87.0857 35.4978 86.5772 36.0874 86.3946 36.7936C86.2075 37.5171 86.4467 37.7538 86.8033 38.3005C87.335 39.1158 88.0128 39.5397 88.8012 40.1012C89.6143 40.6804 90.1772 41.043 91.2508 41.0487C92.1038 41.0533 93.0834 41.1624 93.9242 41.0029C94.5221 40.8895 95.5363 40.537 95.99 40.1411C96.3892 39.7927 96.6342 39.448 97.0834 39.1343C97.4855 38.8534 97.8026 38.5823 98.1656 38.2577C98.9719 37.5367 99.8016 36.8254 100.539 36.0234C101.397 35.0903 102.309 34.2774 103.235 33.4167C105.206 31.5844 107.116 29.5318 108.109 27.0217C108.617 25.737 108.066 24.2658 107.669 23.077C107.254 21.8316 106.194 21.2769 105.312 20.333C104.706 19.6849 104.229 19.051 103.226 19.0921C102.394 19.1262 101.865 19.9193 101.38 20.6223C101.168 20.9297 100.914 21.0348 100.712 21.2256C100.44 21.482 100.269 21.9357 99.9921 22.1596C99.3754 22.6573 98.7417 22.0909 98.1848 21.6916C97.775 21.3978 97.3732 21.0466 96.9368 20.7938C96.6127 20.6061 96.3114 20.6014 95.9671 20.4619C95.5371 20.2878 95.1476 19.8174 94.8609 19.4883C94.3867 18.9441 93.8131 18.6652 93.2711 18.1997C92.8554 17.8426 92.6177 17.4003 92.1695 17.0591C91.848 16.8143 91.4913 16.6495 91.2391 16.3288C90.6217 15.5437 89.9089 14.7529 89.2009 14.02C88.6213 13.42 87.8528 13.0438 87.2029 12.5283C86.7407 12.1618 86.0896 11.4827 85.9797 10.8948C85.8804 10.3638 85.9196 9.76818 85.7861 9.25013C85.6102 8.56764 85.14 7.86398 84.7169 7.40066C84.2185 6.85499 83.7859 6.36371 83.1419 5.93939C82.7701 5.69451 82.4495 5.69621 82.062 5.5245C81.5548 5.29974 81.0795 4.81167 80.6262 4.48319C80.3542 4.28616 80.1116 4.08608 79.7967 3.96611C79.3033 3.77811 78.9241 3.51431 78.4345 3.28283C77.5325 2.85629 76.6551 2.48443 75.71 2.15234C74.1861 1.61681 72.6109 1.25187 70.9418 1.08736C69.9008 0.98476 68.8549 1.0604 67.7928 1.00417C67.0585 0.965294 66.3232 1.21259 65.5987 1.15401C64.9002 1.09752 64.4429 1.03265 63.74 1.06882C62.6511 1.12485 62.1574 1.38191 61.207 1.93983C60.4558 2.38083 59.6711 2.55931 58.9837 3.10741C58.1076 3.80604 57.2343 4.5233 56.3743 5.25078C55.9268 5.62936 55.6336 6.04694 55.2738 6.49134C54.8986 6.95463 54.4346 7.22872 54.071 7.72573C53.4891 8.52121 52.8196 9.05225 52.2543 9.85318C51.363 11.1162 50.723 12.4489 50.0592 13.8137C49.9047 14.1314 49.5636 14.3663 49.4073 14.6833C49.2288 15.0451 49.2237 15.3759 48.9944 15.7264C48.4598 16.5438 48.5514 17.0817 49.5469 17.3083C50.441 17.5118 51.4422 17.0416 52.2818 16.6828C53.0908 16.3372 54.0816 16.0165 54.8028 15.5197C55.4497 15.0739 56.1492 14.4167 56.7226 13.8727C58.0466 12.6166 59.9187 10.9501 61.744 10.7449C63.5696 10.5397 65.5101 11.1534 67.0573 11.8937C68.7374 12.6976 70.4895 13.3044 72.0283 14.4165C72.6197 14.8439 73.5018 15.2599 73.9568 15.8204C74.4043 16.3719 75.0724 16.8439 75.3446 17.5082C75.6144 18.1668 75.8099 19.0827 75.9465 19.8045C76.0601 20.4043 75.9378 21.3088 75.7462 21.9217C75.5248 22.6298 74.9244 23.2571 74.4954 23.8739C74.2124 24.2808 73.9352 24.4068 73.598 24.74C73.2922 25.0421 73.069 25.3898 72.7668 25.6534C72.2254 26.1257 71.6644 26.6707 71.1288 27.2199C70.4638 27.9019 69.6229 28.3656 69.0066 28.9883C68.2103 29.7928 67.2273 30.3464 66.353 31.0948C65.1506 32.124 64.0308 33.199 62.7797 34.1682C61.6723 35.0262 60.5672 35.8613 59.5613 36.8507C58.6401 37.7569 57.8102 38.6532 56.8543 39.4734C55.9497 40.2496 55.0095 41.0153 54.0694 41.7468C53.0955 42.5046 52.2811 43.3933 51.3945 44.2231C50.7107 44.8629 49.966 45.3714 49.4046 46.1413C48.8877 46.8501 48.437 47.605 47.7984 48.1766C47.224 48.6907 46.8116 49.345 46.3518 49.9897C46.1145 50.3224 45.8806 50.6579 45.6401 50.9883L47.0139 53.8833Z" fill="#EBEBE9" stroke="black" stroke-width="2" stroke-miterlimit="10"/>
<path d="M107.43 24.3023C106.308 24.149 105.144 24.2199 104.069 24.7787C103.516 25.0657 103.111 25.5406 102.579 25.8526C101.97 26.2105 101.307 26.5126 100.688 26.8583C99.6623 27.4305 99.0257 28.2954 98.152 29.077C97.3767 29.7705 96.6374 30.3732 96.0276 31.244C95.4931 32.0073 94.9473 32.7629 94.4062 33.5216C93.9744 34.1271 93.3361 34.786 93.0151 35.4499C92.7205 36.0593 92.6369 36.7676 92.4834 37.4136C92.3644 37.9144 92.0313 38.5225 92.0671 39.0415C92.1092 39.6504 92.5091 40.2579 92.7596 40.7818C93.2419 41.7902 93.3972 41.7893 94.4759 41.3558C95.5884 40.9088 96.2083 39.7787 97.0889 39.017C97.4844 38.675 97.7674 38.158 98.1853 37.7908C98.6981 37.3402 99.2061 36.9376 99.6841 36.4424C100.946 35.1347 102.321 34.0549 103.398 32.5386C103.83 31.9308 104.259 31.3208 104.699 30.7188C104.978 30.3373 104.914 30.1172 105.074 29.7903C105.256 29.4205 105.467 29.388 105.754 29.1394C106.391 28.5878 106.885 27.6497 107.381 26.9544C107.621 26.6183 107.88 26.2886 108.105 25.9429C108.365 25.5438 108.397 25.2133 107.43 24.3023Z" fill="#EBEBE9" stroke="black" stroke-width="2" stroke-miterlimit="10"/>
<path d="M41.7982 57.3784C41.7022 57.4416 41.6541 57.5263 41.6538 57.6325C41.7156 57.6293 41.7774 57.6261 41.8392 57.6229" stroke="black" stroke-width="2" stroke-linecap="round" stroke-linejoin="round"/>
<path d="M40.8476 67.4663C40.7798 67.5615 40.7119 67.6566 40.644 67.7518" stroke="black" stroke-width="2" stroke-linecap="round" stroke-linejoin="round"/>
<path d="M39.1949 64.3496C39.0719 64.4149 38.9717 64.468 38.8486 64.5333" stroke="black" stroke-width="2" stroke-linecap="round" stroke-linejoin="round"/>
<path d="M32.0245 68.0637L31.9692 68.1986L32.0654 68.3082" stroke="black" stroke-width="2" stroke-linecap="round" stroke-linejoin="round"/>
<path d="M36.5716 71.9526C36.3923 72.023 36.243 72.1318 36.1235 72.279" stroke="black" stroke-width="2" stroke-linecap="round" stroke-linejoin="round"/>
<path d="M33.2945 77.1514C33.1715 77.2166 33.0713 77.2698 32.9482 77.335" stroke="black" stroke-width="2" stroke-linecap="round" stroke-linejoin="round"/>
<path d="M24.0652 79.8276L23.9634 79.9704" stroke="black" stroke-width="2" stroke-linecap="round" stroke-linejoin="round"/>
<path d="M22.2984 88.0415L22.1627 87.9814C22.0611 88.0338 21.9909 88.115 21.9521 88.2251" stroke="black" stroke-width="2" stroke-linecap="round" stroke-linejoin="round"/>
<path d="M15.6734 85.2541C15.6282 85.2341 15.583 85.2141 15.5377 85.1941C15.4361 85.2464 15.3659 85.3276 15.3271 85.4378" stroke="black" stroke-width="2" stroke-linecap="round" stroke-linejoin="round"/>
<path d="M14.6406 94.8533L14.437 95.1387" stroke="black" stroke-width="2" stroke-linecap="round" stroke-linejoin="round"/>
<path d="M6.99665 91.9854C6.76929 92.1514 6.80949 92.3915 7.07852 92.4744" stroke="black" stroke-width="2" stroke-linecap="round" stroke-linejoin="round"/>
</svg>
