<svg width="194" height="131" viewBox="0 0 194 131" fill="none" xmlns="http://www.w3.org/2000/svg">
<g clip-path="url(#clip0_173_4495)">
<path d="M164.238 71.4275C164.375 73.048 165.382 74.5172 165.515 76.1281C165.632 77.5422 165.592 78.8618 165.888 80.2703C166.449 82.9427 167.956 85.4142 168.584 88.0641C168.964 89.6694 169.539 91.1345 169.853 92.7961C170.003 93.5896 170.214 94.4889 170.239 95.2899C170.262 96.02 170.561 96.4316 170.546 97.1672" stroke="black" stroke-width="5.33333" stroke-miterlimit="10" stroke-linecap="round"/>
<path d="M171.492 64.8356C172.098 66.1216 172.318 67.5533 172.755 68.8928C173.063 69.8371 173.426 70.8021 173.708 71.7424C173.845 72.2 173.873 72.7624 174.016 73.241C174.16 73.7183 174.408 74.0867 174.576 74.5513C174.948 75.5812 175.194 76.7844 175.438 77.8582C175.892 79.8492 176.226 81.8164 176.818 83.8114C177.056 84.6107 177.182 85.4053 177.485 86.1807C177.65 86.6042 177.666 87.0499 177.791 87.4525C177.905 87.8191 178.248 87.9173 178.116 88.3779" stroke="black" stroke-width="5.33333" stroke-miterlimit="10" stroke-linecap="round"/>
<path d="M60.8853 18.8352C58.5469 20.6673 56.4276 22.032 53.7742 23.2733C50.6036 24.7567 47.6057 26.4165 44.1984 27.3225C41.1761 28.1261 38.9008 29.9514 36.7474 32.0893C36.1887 32.644 38.9673 29.6269 38.3738 30.0895C37.8646 30.4864 37.5268 31.1112 37.0076 31.4958C36.6609 31.7526 36.267 31.8695 35.9366 32.1469C35.4753 32.5341 35.3539 33.1784 34.8655 33.5563C34.4675 33.8642 33.9147 33.9741 33.5064 34.3068C32.2879 35.2997 31.3805 36.6426 30.1786 37.6545C28.9875 38.6574 27.9084 39.6128 26.9578 40.8518C25.5838 42.6424 23.7824 43.7845 22.2643 45.417C20.4939 47.3209 18.7392 49.2312 16.9231 51.0934C16.1119 51.9252 15.5416 52.6827 15.0697 53.7403C14.4172 55.2023 13.6066 56.3701 12.6299 57.6346C11.4379 59.1778 10.1569 60.6601 8.93457 62.1832C7.93727 63.426 7.28497 64.7647 6.17217 65.9164C4.9958 67.1339 3.79069 68.9033 3.17657 70.4746C2.35756 72.5701 1.41357 75.0731 1.37053 77.3407C1.29528 81.3048 1.63068 85.553 4.29567 88.7267C4.77523 89.2979 5.28327 90.0032 5.80973 90.533C6.76185 91.4912 8.19925 91.9354 9.28548 92.7268C10.2819 93.4528 11.417 94.2387 12.2887 95.1097C13.5632 96.3832 14.5263 97.4394 16.0504 98.4223C17.2407 99.19 18.4265 99.8784 19.6567 100.579C21.2893 101.509 23.0217 102.802 24.7656 103.454C26.8321 104.227 28.6692 105.363 30.8405 105.878C32.8984 106.366 34.898 106.599 37.007 106.656C39.5194 106.725 42.0231 107.322 44.5359 107.401C46.1655 107.452 47.5797 107.529 49.1934 107.751C53.2464 108.31 57.385 109.57 61.4564 110.694C66.4055 112.06 71.4201 112.534 76.5404 112.413C82.5079 112.273 88.2654 110.18 94.2062 109.879C97.7204 109.701 101.449 109.416 104.798 108.367C108.002 107.364 111.096 106.116 114.282 104.974C116.775 104.081 119.174 102.893 121.498 101.634C123.628 100.48 125.911 99.5786 128.089 98.502C129.844 97.634 131.516 96.7466 133.346 96.012C134.547 95.5296 135.77 95.116 136.958 94.5981C138.544 93.9069 139.823 92.8395 141.346 92.0552C145.501 89.9168 149.81 88.2402 153.589 85.4485C155.661 83.9168 157.102 81.9195 159.024 80.2009C162.813 76.8141 166.623 73.1243 169.761 69.1148C171.233 67.2347 172.612 65.2494 174.025 63.3224C174.875 62.1645 175.577 61.1385 175.986 59.7671C176.593 57.7276 177.366 55.7403 177.335 53.609C177.322 52.6911 177.253 51.72 177.416 50.824C177.564 50.0137 177.577 49.0969 177.777 48.2989C177.975 47.5154 178.375 46.8942 178.424 46.0707C178.474 45.2229 178.55 44.1058 178.336 43.2857C178.113 42.4318 178.048 41.8023 178.055 40.876C178.064 39.6314 177.837 38.4243 177.616 37.197C177.346 35.6949 176.871 34.2757 176.238 32.9025C175.908 32.1849 175.98 31.5752 175.818 30.8324C175.631 29.9694 175.297 29.1096 175.087 28.2449C174.753 26.8693 174.215 25.5872 173.829 24.2289C173.652 23.607 173.598 22.7945 173.308 22.2199C173.048 21.7035 172.636 21.3293 172.37 20.8061C171.199 18.5052 170.108 16.0509 168.261 14.1942C167.361 13.2884 166.707 12.6105 165.586 12.0713C163.984 11.3007 162.527 10.3834 160.856 9.7055C159.251 9.05416 157.612 8.4773 156 7.83542C153.785 6.95325 151.624 5.87304 149.264 5.40021C144.219 4.38938 139.275 3.04624 134.165 2.36725C129.42 1.73663 124.604 1.38761 119.822 1.38991C118.485 1.39055 117.136 1.32589 115.801 1.37141C114.093 1.42962 112.456 1.77225 110.738 1.75627C108.805 1.73829 106.992 1.70762 105.09 2.0264C104.333 2.15335 103.612 2.11134 102.85 2.09653C101.86 2.07728 101.005 2.37749 100.024 2.45587C98.8602 2.54897 97.8718 2.862 96.735 3.09362C95.4287 3.3598 94.3184 3.84627 93.0487 4.1749C88.223 5.42395 83.277 7.25768 78.6652 9.17786C75.8981 10.33 72.9954 11.2329 70.276 12.4905C68.2589 13.4234 66.057 14.0666 64.256 15.2838C63.9135 15.5152 63.5892 15.6542 63.1997 15.8031C62.4173 16.1024 62.1322 16.3159 61.4833 16.7977C61.1268 17.0624 60.76 17.2288 60.4027 17.4922C59.8109 17.9284 59.6151 18.0165 58.9648 18.2893C57.4875 18.9088 61.9836 17.9747 60.8853 18.8352Z" fill="#FFD600" stroke="black" stroke-width="3" stroke-miterlimit="10"/>
<path d="M3.72461 88.0515C3.85028 89.2647 4.0209 90.5004 4.50692 91.6292C4.99303 92.7582 5.79161 93.747 6.24255 94.8618C7.29883 97.4731 8.21983 100.146 9.33858 102.724C10.0216 104.298 10.37 106.017 11.104 107.587C11.5494 108.539 12.1741 109.43 12.6395 110.332C13.2074 111.434 13.5316 112.65 14.2973 113.671C14.5803 114.049 14.6901 114.328 14.902 114.703C15.4268 115.632 16.0668 116.247 16.8364 117.033C17.7377 117.953 19.3437 118.564 20.6043 118.995C21.2686 119.222 21.9405 119.403 22.6033 119.559C23.4152 119.75 24.0269 120.07 24.7762 120.462C25.259 120.714 25.7316 120.813 26.2083 121.022C26.8513 121.303 27.2812 121.797 27.9766 122.039C29.8495 122.691 31.8876 123.308 33.7512 124.07C37.0519 125.417 40.5723 126.214 44.008 127.245C47.188 128.198 50.516 128.297 53.7212 129.066C54.5458 129.263 55.2313 129.183 56.072 129.217C57.2144 129.264 58.2368 129.61 59.4026 129.598C62.1795 129.568 64.9577 129.589 67.7346 129.589C70.7485 129.589 73.8354 129.829 76.7874 129.311C80.0594 128.736 83.6688 129.383 86.9846 129.204C91.0727 128.983 95.6171 128.745 99.5161 127.441C100.784 127.017 102.065 126.736 103.371 126.463C105.626 125.993 107.726 125.117 109.936 124.478C116.223 122.66 122.624 121.63 128.558 118.767C131.551 117.323 134.78 116.304 137.91 115.178C139.707 114.532 141.532 114.054 143.352 113.485C145.299 112.876 147.176 112.016 149.101 111.337C150.55 110.826 151.996 110.084 153.398 109.447C154.779 108.821 156.217 108.311 157.437 107.407C158.762 106.424 160.277 105.85 161.602 104.892C162.916 103.941 164.276 103.01 165.56 102.017C167.073 100.845 168.425 99.351 169.86 98.0779C171.6 96.5334 173.246 94.8809 174.706 93.0742C176.03 91.4369 177.301 89.7407 178.667 88.1478C179.511 87.1628 180.31 86.1928 181.014 85.0874C181.879 83.7295 182.918 82.5775 183.701 81.1683C184.324 80.0479 185.257 79.1104 185.8 77.955C186.378 76.724 186.825 75.5369 187.508 74.3462C188.876 71.9624 189.34 68.5965 189.819 65.9383C190.091 64.4275 190.637 63.0012 190.907 61.4819C191.202 59.8241 191.537 58.1869 191.806 56.5229C192.269 53.6644 192.065 50.8127 192.546 47.9831C192.788 46.5574 192.515 44.679 192.195 43.2668C191.98 42.3194 191.135 41.774 190.846 40.9364C189.87 38.1122 189.844 35.0183 189.035 32.1637C187.705 27.463 184.193 24.2106 180.716 21.0611C179.131 19.6255 177.343 18.3533 175.437 17.4211C174.178 16.8053 172.864 16.2689 171.6 15.6781C170.603 15.2119 169.79 14.1864 168.809 13.66C167.718 13.0742 165.743 12.9961 164.52 13.2336C164.843 13.9848 165.916 14.7834 166.445 15.3618C167.08 16.0552 168.006 16.7797 168.562 17.5416C168.903 18.0072 169.2 18.5442 169.501 19.021C169.829 19.5391 170.184 20.1333 170.319 20.7318C170.416 21.1632 170.35 21.3942 170.571 21.8245C170.737 22.1472 170.922 22.1602 171.039 22.5037C171.162 22.8667 171.119 23.2042 171.292 23.5964C171.453 23.9604 171.66 24.3141 171.838 24.6707C172.108 25.212 172.452 25.6898 172.749 26.191C173.492 27.4469 174.307 28.9132 174.715 30.3286C174.841 30.7672 175.054 31.3597 175.167 31.8288C175.349 32.5791 175.465 33.4974 175.627 34.3287C176.023 36.3686 175.709 38.7231 175.707 40.7927C175.705 42.5321 175.333 44.0689 175.347 45.7976C175.353 46.5575 175.209 47.1086 175.067 47.8505C174.956 48.4351 174.987 48.9428 174.997 49.5365C175.01 50.2707 174.817 50.8718 174.708 51.562C174.484 52.9769 174.535 54.4264 174.288 55.8323C174.076 57.037 173.43 58.4105 172.927 59.4857C172.395 60.6261 171.771 62.1647 170.999 63.1207C170.162 64.1564 169.51 65.3851 168.791 66.5678C167.923 67.9953 166.794 69.1694 165.812 70.5019C164.648 72.0811 163.477 73.5341 162.14 74.8751C160.831 76.1887 159.305 77.4918 158.077 78.7413C157.468 79.3607 156.597 80.021 155.919 80.7018C155.181 81.4437 154.537 82.3818 153.759 83.0568C152.505 84.1463 151.042 84.9823 149.872 86.1814C148.543 87.5433 146.984 88.1322 145.404 89.106C143.44 90.3166 141.641 91.6575 139.819 93.0819C137.368 94.9982 134.525 96.5425 131.955 98.2837C130.549 99.2355 129.081 99.5664 127.494 99.9467C125.323 100.467 123.092 101.209 120.864 101.765C119.16 102.19 117.369 102.295 115.629 102.645C113.405 103.093 111.113 103.625 108.968 104.196C104.307 105.435 99.6628 107.686 95.2721 109.718C91.2255 111.591 86.3895 111.008 81.9917 110.961C80.3724 110.943 78.8574 111.332 77.203 111.326C76.0108 111.321 74.8184 111.326 73.6261 111.327C72.7878 111.327 71.8117 111.195 70.9994 111.407C70.3025 111.588 69.6193 111.838 68.8476 111.704C68.0514 111.564 67.5433 111.31 66.6889 111.326C65.9819 111.339 65.5544 111.059 64.8912 110.949C64.6059 110.902 64.3073 110.989 64.0211 110.939C63.7778 110.896 63.7452 110.658 63.4693 110.592C63.116 110.509 62.706 110.713 62.3527 110.629C62.0257 110.552 61.998 110.307 61.6703 110.233C60.9853 110.077 60.1945 109.997 59.4917 109.895C58.4512 109.743 57.4835 109.317 56.461 108.999C52.6887 107.826 48.5645 107.749 44.6459 107.746C42.3817 107.744 40.1146 107.78 37.8508 107.754C37.0094 107.745 36.288 107.602 35.4584 107.468C34.8323 107.366 34.1668 107.512 33.562 107.407C32.5368 107.227 31.5967 106.467 30.7176 105.956C29.7122 105.37 28.6359 104.96 27.6251 104.571C26.5236 104.147 25.4741 103.532 24.3725 103.04C22.8874 102.376 21.7122 101.246 20.2836 100.563C19.9398 100.399 19.45 100.353 19.1126 100.173C18.662 99.89 18.2527 99.5551 17.8846 99.1687C17.2472 98.7468 16.5956 98.3477 15.9301 97.9714C13.7866 96.5302 11.6642 95.0403 9.36539 93.8535C8.54308 93.429 7.73349 93.093 6.93461 92.5982C6.41362 92.2755 5.25209 91.9525 3.72461 88.0515Z" fill="#FFD600" stroke="black" stroke-width="3" stroke-miterlimit="10"/>
<path d="M69.1197 61.6292C64.9599 59.6638 64.4763 72.6302 66.3645 76.3962C70.7737 85.1884 92.5363 75.8424 93.6563 75.6031C95.1332 79.4114 98.5328 81.2325 101.446 83.7988C101.842 84.1477 102.361 84.4884 102.643 84.9428C103.029 85.5647 102.9 85.5649 102.366 85.9569C101.525 86.5741 100.808 87.0452 99.7929 87.2703C98.6756 87.5181 97.858 88.1708 96.8412 88.646C95.5368 89.2556 94.1279 89.5551 92.8372 90.2219C91.9936 90.6578 91.2312 91.0576 90.2931 91.2495C88.6898 91.5774 87.0287 91.778 85.3966 91.7701C81.2462 91.7499 77.0953 91.7744 72.9449 91.7712C72.5846 91.7709 72.1632 91.8321 71.8102 91.7826C71.4225 91.7282 71.1197 91.5179 70.7366 91.4503C69.9257 91.307 69.2191 91.4742 68.4258 91.1604C67.839 90.9283 66.9782 90.6583 66.4445 90.2683C65.7687 89.7746 65.1133 89.0921 64.4631 88.5448C63.0162 87.3268 61.4373 86.2082 60.6229 84.4585C59.6577 82.3848 58.9236 80.3339 58.1295 78.2191C57.8876 77.5748 57.5818 76.8533 57.5415 76.0965C57.4579 74.5266 57.1933 73.0454 56.9409 71.5014C56.6995 70.0252 56.3282 68.5847 56.3272 67.0559C56.326 65.4002 56.5684 63.7432 56.9326 62.1739C57.1019 61.4447 57.5821 60.7755 57.936 60.1217C58.3441 59.3675 58.5608 58.6167 59.0095 57.8934C59.3989 57.2656 59.467 56.69 59.9319 56.0643C60.606 55.1572 61.8268 54.5736 62.4927 53.6374C62.9575 52.9841 62.5822 52.6863 62.1455 52.0896C61.5773 51.3131 61.0289 50.5709 60.3749 49.8722C59.6756 49.1249 58.5271 47.9812 58.4432 46.9018C58.3717 45.9817 59.2946 45.2004 59.7078 44.4766C60.2973 43.4438 60.8842 42.462 61.8468 41.7136C62.6309 41.1039 63.4286 40.3332 64.3655 39.9773C65.2381 39.6459 66.0359 39.3771 66.9049 39.136C67.9466 38.847 67.8477 39.2649 68.6505 40.1835C70.0104 41.7396 71.4416 43.2951 72.8703 44.7861C73.4636 45.4054 74.2081 46.703 75.1821 46.1456C76.3317 45.4877 76.7915 44.0204 77.7881 43.2322C78.8111 42.4231 79.5758 41.3265 80.5987 40.5186C81.7453 39.613 82.9758 38.6125 84.0237 37.6004C84.6087 37.0354 85.0973 36.4282 85.7604 35.9243C86.624 35.2681 87.2787 34.6963 87.9884 33.858C88.4231 33.3445 90.7503 33.1712 90.9713 32.5766C90.0116 32.5801 89.7576 32.2983 89.0794 31.6091C88.3113 30.8287 87.4521 30.277 86.6851 29.5384C85.5 28.3972 84.4689 27.0695 83.2629 25.9621C82.4718 25.2357 82.336 25.0963 82.3809 24.0331C82.4413 22.5987 84.796 21.2781 86.0501 20.9069C86.9189 20.6498 87.8086 20.5035 88.6798 20.219C89.111 20.0783 90.8538 19.8461 91.0105 19.4806C91.5323 19.5191 91.9571 20.0435 92.3626 20.3433C93.0275 20.8349 93.7179 21.2807 94.3203 21.8511C94.773 22.2798 95.1958 22.7455 95.6382 23.1856C96.7802 24.3215 97.9569 25.6289 99.3162 26.4959C100.726 27.3951 103.11 25.9417 104.331 25.3215C106.784 24.0747 109.434 23.35 112.146 22.8903C113.021 22.742 113.839 22.4266 114.729 22.5275C116.125 22.6859 117.47 23.0926 118.886 23.1254C121.797 23.1927 124.869 23.7922 127.655 24.651C129.028 25.0743 130.184 25.5437 131.432 26.2298C132.052 26.5712 132.367 26.9965 132.809 27.5312C133.535 28.4109 134.421 29.1855 135.058 30.1346C135.489 30.776 135.795 31.4188 136.345 31.9734C136.977 32.6115 137.143 33.0384 137.571 33.8129C138.128 34.8197 138.592 35.7731 138.952 36.875C139.452 38.4088 139.474 39.9185 139.785 41.4796C140.004 42.5739 140.028 43.5997 140.024 44.7198C140.019 46.0181 140.157 46.9563 139.579 48.1267C138.489 50.3342 137.313 52.3173 135.577 54.1019C134.862 54.8368 124.176 62.0576 121.983 63.0295C121.326 63.3203 120.584 63.6065 119.993 64.0125C119.513 64.3424 119.497 64.5483 118.885 64.6219C118.167 64.7082 110.433 57.46 110.627 57.0448C111.836 56.9285 115.734 53.7166 116.579 52.8561C117.44 51.9795 118.552 51.446 119.423 50.5791C120.332 49.6739 121.107 48.788 121.935 47.8242C123.041 46.5369 123.671 44.7645 124.056 43.1149C124.231 42.3635 124.083 41.4286 124.082 40.6516C124.082 39.9413 124.147 39.333 123.859 38.6792C123.212 37.2132 121.419 36.2811 120.247 35.1968C114.056 29.4661 98.2001 31.8238 108.002 41.4361C108.41 41.8357 110.718 43.1662 111.128 43.5687C110.094 45.0879 108.93 46.5132 107.681 47.8444C107.351 48.1955 106.936 48.6013 106.577 48.9093C106.324 49.1273 106.017 49.2396 105.746 49.4335C105.611 49.5303 105.574 49.7847 105.412 49.8939C105.089 50.1121 104.665 50.1964 104.33 50.426C104.083 50.596 103.871 50.8212 103.611 50.9749C103.222 51.2043 102.75 51.3838 102.315 51.5781C100.778 52.2642 100.052 51.0552 98.9542 50.0991C98.3462 49.5698 90.123 43.1912 89.865 42.9595C89.3583 43.9492 86.0844 45.2795 85.3674 45.9173C84.8173 46.4066 84.2466 47.0738 83.6458 47.475C82.776 48.0557 81.6999 48.6323 80.985 49.4221C80.545 49.9082 79.6382 50.3704 79.1851 50.824C78.7467 51.2629 77.3126 51.8809 77.307 52.4596C77.5849 52.9003 78.3571 53.9479 78.7156 54.3288C79.2484 54.9075 80.6925 55.7012 81.1311 56.3532C81.4984 56.9253 81.6138 57.1333 82.095 57.5411C82.8209 58.1561 83.681 58.2391 84.539 58.5803C85.0554 58.7856 85.5576 59.1945 85.9818 59.5054C86.444 59.8442 87.486 60.342 87.5988 60.9534C87.725 61.6377 87.6895 61.5972 87.3081 62.1749C86.7227 63.0617 85.9744 63.5881 85.2133 64.294C84.6654 64.8021 84.2532 65.394 83.6973 65.9103C83.2672 66.3098 82.8029 66.6682 82.3721 67.063C81.9944 67.4091 81.6282 68.0148 81.1486 68.2254C80.4795 68.5192 80.2398 68.0375 79.6503 67.5237C78.4048 66.4382 76.9331 65.3762 75.4631 64.6499C74.8092 64.3268 74.0206 64.2356 73.3426 63.9696C72.5402 63.6549 71.9305 63.1019 71.1965 62.6661L69.1197 61.6292Z" stroke="black" stroke-width="3" stroke-miterlimit="10" stroke-linecap="round"/>
</g>
<defs>
<clipPath id="clip0_173_4495">
<rect width="194" height="131" fill="white"/>
</clipPath>
</defs>
</svg>
