<svg width="194" height="141" viewBox="0 0 194 141" fill="none" xmlns="http://www.w3.org/2000/svg">
<g clip-path="url(#clip0_173_4526)">
<path d="M145.7 5.36194C122.521 9.27045 99.48 14.3448 76.2797 18.0735C68.9028 19.259 61.0993 19.7794 53.9379 22.4892C51.5714 23.3847 51.099 24.2421 50.2338 27.0582C44.8278 44.6542 44.9306 65.6169 45.0931 84.1364C45.2294 99.674 47.5138 114.802 48.5867 130.211" fill="white"/>
<path d="M145.7 5.36194C122.521 9.27045 99.48 14.3448 76.2797 18.0735C68.9028 19.259 61.0993 19.7794 53.9379 22.4892C51.5714 23.3847 51.099 24.2421 50.2338 27.0582C44.8278 44.6542 44.9306 65.6169 45.0931 84.1364C45.2294 99.674 47.5138 114.802 48.5867 130.211" stroke="black" stroke-width="2.66667" stroke-miterlimit="10"/>
<path d="M11.6701 138.708C11.3915 135.948 9.49163 141.268 9.78496 138.574C11.0335 127.106 9.45169 115.476 8.21116 104.121C5.6429 80.6139 -0.625046 55.5456 2.48964 31.6554C3.34067 25.1279 4.73079 24.7039 8.94356 22.2277C13.3553 19.6345 17.6522 16.8002 22.388 15.2027C32.2545 11.8745 42.962 11.8142 53.055 10.2152C61.9984 8.79842 70.6769 6.39755 79.4858 3.99006C93.0455 0.284152 105.157 3.21601 119.039 3.21601H146.915C155.612 3.21601 164.596 2.51892 173.28 3.16193C177.494 3.47391 180.668 6.15732 184.564 7.48633C186.332 8.08923 186.803 7.66074 187.327 10.0828C187.864 12.563 188.206 15.3232 188.414 17.8512C188.947 24.3473 189.47 30.9319 189.649 37.4512C190.016 50.7497 190.734 63.9333 191.879 77.1721C192.476 84.0755 192.396 91.2706 192.268 98.2141C192.231 100.176 192.141 102.975 191.207 104.703C189.888 107.144 186.66 108.769 184.579 110.192C181.421 112.307 178.001 113.422 174.321 113.538L159.291 115.859C146.001 117.772 132.879 119.429 119.643 121.813C109.255 123.684 98.7932 124.189 88.3847 125.887C79.5907 127.322 71.2639 129.334 62.4096 130.428C50.8207 131.86 39.1642 132.717 27.6649 135.079C24.1809 135.794 20.6883 136.851 17.1827 137.338C14.2436 137.746 14.7086 138.739 11.6701 138.708Z" fill="white" stroke="black" stroke-width="2.66667" stroke-miterlimit="10"/>
<path d="M3.69824 25.9714C11.5775 28.1802 19.0587 31.4178 26.5548 35.0613C33.5571 38.4647 40.4809 42.2996 47.5996 45.3174C53.6971 47.9024 59.5657 51.2091 65.7628 53.2813C68.9535 54.3482 72.0919 56.1156 75.1255 57.7614C80.5889 60.7253 86.3157 63.4465 91.5598 66.946C93.1632 68.0159 95.2642 69.6935 96.8982 69.9632C98.6214 70.2476 101.446 68.8637 103.134 68.22C103.815 67.96 104.425 67.7545 105.116 67.5182C107.713 66.6302 109.989 64.5621 112.411 63.1724C117.361 60.3324 121.828 56.2998 126.45 52.7691C128.898 50.8993 130.918 48.5809 133.185 46.4147C135.121 44.5645 137.217 43.0377 139.129 41.1416C141.775 38.5195 144.764 36.4607 147.513 33.9992C149.829 31.9246 151.866 29.4129 154.176 27.3574C156.935 24.9026 159.875 22.6789 162.666 20.2636C166.116 17.2777 169.654 14.1512 173.347 11.7284C175.164 10.5364 176.699 9.78139 178.208 7.95601C179.12 6.85185 181.669 5.24288 180.751 3.49673C178.533 4.55781 175.421 3.97448 173.04 3.97448C169.556 3.97448 166.07 3.93673 162.587 3.97183C161.012 3.98768 160.027 3.40679 158.533 3.15922C157.173 2.93388 155.947 3.87142 154.627 4.00153C153.134 4.14864 151.88 3.73653 150.446 3.38473C148.639 2.94112 146.649 3.21597 144.803 3.21597C133.374 3.21597 121.944 3.22374 110.515 3.21597C107.356 3.21382 104.458 2.43627 101.317 2.45746C100.009 2.46628 98.603 2.67087 97.3108 2.48583C95.5483 2.23343 94.1168 1.68853 92.2535 1.7016C89.907 1.71807 87.5382 1.56276 85.1953 1.6915C84.1357 1.74972 83.5953 2.21485 82.6003 2.49665C81.7548 2.7361 80.6514 2.38587 79.7818 2.43991C78.9839 2.4895 78.5289 2.8662 77.8451 3.04723C76.6482 3.36403 75.481 3.11165 74.2658 3.18761C72.8919 3.2735 71.5503 3.80977 70.185 3.9745C68.5412 4.17283 66.792 4.57316 65.1346 4.91932C63.2448 5.31401 61.2351 5.28267 59.4264 5.87078C58.3398 6.22411 57.2988 6.1905 56.213 6.42145C54.5893 6.76681 52.8202 7.55411 51.1236 7.80626C50.5294 7.89456 49.9024 7.72657 49.3041 7.74686C48.2552 7.78241 47.5423 8.14301 46.5424 8.35683C44.9155 8.70468 43.3159 8.5754 41.6734 9.07881C37.7979 10.2666 33.8607 11.6626 29.9019 12.3398C26.3995 12.9389 23.0347 13.6536 19.531 14.8016C16.3242 15.8524 13.0831 16.2408 10.0068 17.6277C8.72175 18.2071 7.88167 18.5503 6.78037 19.3352C5.84251 20.0035 4.66495 21.0274 3.69824 25.9714Z" fill="white" stroke="black" stroke-width="2.66667" stroke-miterlimit="10"/>
</g>
<defs>
<clipPath id="clip0_173_4526">
<rect width="194" height="141" fill="white"/>
</clipPath>
</defs>
</svg>
