<svg width="193" height="175" viewBox="0 0 193 175" fill="none" xmlns="http://www.w3.org/2000/svg">
<g clip-path="url(#clip0_173_4504)">
<path d="M170.813 12.7435C171.558 12.1158 172.193 11.3353 172.931 10.6906C173.948 9.80349 174.957 8.93416 175.942 8.00971C176.86 7.14787 177.928 6.57982 178.89 5.79668C179.769 5.08079 180.527 4.18867 181.414 3.49366C181.852 3.15093 182.381 2.93507 182.847 2.63924C183.233 2.39467 183.601 1.96715 184.024 1.80472C184.555 1.60095 185.29 1.6521 185.834 1.71327C186.123 1.74586 186.547 1.7255 186.803 1.84758C187.037 1.94949 187.219 2.12363 187.35 2.36999C187.832 2.86443 188.308 3.36318 188.781 3.86621C189.571 4.7025 190.337 5.56272 191.118 6.40701C191.369 6.67926 191.356 6.66554 191.35 7.02425C191.34 7.70157 190.909 8.26634 190.419 8.69922C189.863 9.19029 189.285 9.6079 188.74 10.1106C187.912 10.875 187.896 12.2465 187.017 13.0127C186.21 13.7154 185.244 14.1217 184.353 14.6878C181.737 16.3498 179.255 18.1835 176.497 19.6022C176.213 18.966 176.403 18.055 175.856 17.5487C175.122 16.8689 174.429 16.006 173.679 15.2864C173.158 14.7865 172.541 14.3667 172.023 13.8513C171.543 13.3737 170.743 12.5472 170.813 12.7435Z" fill="#FFD600" stroke="black" stroke-width="2.66667" stroke-miterlimit="10"/>
<path d="M7.22186 167.173C5.10013 167.973 3.08801 169.179 2.14903 171.264C1.86208 171.902 1.23882 171.949 2.04416 172.772C2.51074 173.249 3.53061 173.32 4.18177 173.34C5.55959 173.381 7.04179 172.499 7.78686 171.398C8.52478 170.308 9.55931 167.394 7.83244 166.712" fill="black"/>
<path d="M7.22186 167.173C5.10013 167.973 3.08801 169.179 2.14903 171.264C1.86208 171.902 1.23882 171.949 2.04416 172.772C2.51074 173.249 3.53061 173.32 4.18177 173.34C5.55959 173.381 7.04179 172.499 7.78686 171.398C8.52478 170.308 9.55931 167.394 7.83244 166.712" stroke="black" stroke-width="2.66667" stroke-miterlimit="10"/>
<path d="M8.21471 167.865C8.17549 167.203 7.50289 167.035 7.35861 166.39C7.23765 165.85 7.52238 165.02 7.60413 164.481C7.88554 162.626 9.02397 161.658 9.75205 159.973C10.2376 158.849 10.6674 157.744 11.4013 156.803C12.2894 155.665 12.8474 154.565 13.5532 153.256C14.7114 151.107 16.0849 149.268 17.2572 147.185C17.8385 146.151 19.0713 145.156 19.8641 144.276C20.6075 143.451 21.7711 141.862 22.8207 141.488C23.6056 141.209 24.04 141.872 24.6343 142.216C25.4102 142.665 26.2048 142.827 26.9946 143.224C28.1774 143.817 29.3787 144.843 30.4419 145.643C32.997 147.565 34.7645 151.049 35.4042 154.124C35.637 155.243 35.4727 156.214 35.3128 157.469C35.243 158.017 35.197 158.449 34.9843 158.949C34.8529 159.258 34.4702 160.163 34.2458 160.494C33.8785 161.037 32.8096 161.516 32.296 161.97C31.4076 162.755 30.5675 163.514 29.6017 164.216C27.9776 165.396 26.0355 166.041 24.1597 166.731C21.3428 167.766 18.2908 167.496 15.4175 167.921C14.3827 168.073 12.6819 168.445 11.6596 168.901C10.7366 169.313 9.3361 170.576 8.21471 167.865Z" fill="white" stroke="black" stroke-width="2.66667" stroke-miterlimit="10"/>
<path d="M85.6215 79.0315C86.0632 78.6952 86.4393 78.3379 86.8425 77.9562C87.5701 77.2672 88.5282 76.8735 89.2618 76.1786C89.852 75.6195 90.1092 74.8029 90.6295 74.1867C91.0546 73.6832 91.5354 73.224 92.0301 72.7924C94.3651 70.7548 96.418 68.4683 98.8897 66.594C101.569 64.5623 104.664 63.2293 107.477 61.4035C108.755 60.5742 109.954 59.5969 111.299 58.8786C111.78 58.622 112.121 58.3788 112.515 58.0049C114.917 55.7237 117.3 53.4782 119.956 51.4759C121.559 50.2679 122.795 48.7894 124.19 47.3509C124.935 46.5825 125.714 45.833 126.407 45.0152C127.449 43.7876 128.333 42.4793 129.445 41.3064C130.688 39.995 131.88 38.6753 133.27 37.5205C134.577 36.4354 135.983 35.3744 137.052 34.0446C138.292 32.5014 139.838 31.2377 141.128 29.7335C142.759 27.8331 144.393 26.1638 146.291 24.5309C148.445 22.6783 150.363 20.4853 152.417 18.5132C154.371 16.6369 156.377 14.8134 158.233 12.8396C158.823 12.2122 159.527 11.6362 160.179 11.0682C160.63 10.6746 161.385 10.1503 161.971 9.94942C162.546 9.75225 163.236 9.84304 163.828 9.77065C164.398 9.70102 164.843 9.68508 165.418 9.76683C167.114 10.0082 168.603 10.8704 170.016 11.84C172.116 13.2804 173.815 14.9953 175.555 16.8292C176.612 17.9431 177.726 19.1786 178.426 20.563C178.697 21.1002 178.94 21.6725 179.166 22.23C179.392 22.7902 179.308 23.1748 179.332 23.7309C179.436 26.0824 178.83 28.4912 178.016 30.6877C177.77 31.3519 177.442 31.9096 176.924 32.3984C174.555 34.6378 171.766 36.4129 169.419 38.7201C168.122 39.995 166.825 41.2517 165.497 42.4757C164.604 43.2986 163.684 44.0522 162.762 44.8409C161.496 45.9247 160.459 47.1851 159.285 48.3585C156.446 51.1938 153.162 53.606 150.738 56.8614C149.578 58.419 148.102 59.8311 146.72 61.188C145.579 62.3084 144.596 63.6064 143.48 64.7571C142.407 65.8641 141.361 66.9768 140.338 68.1323C137.735 71.0738 135.08 73.9783 132.504 76.9402C129.85 79.9925 126.884 82.7383 124.146 85.7112C123.265 86.6674 122.261 87.447 121.33 88.3468C119.845 89.7824 118.291 91.3925 117.068 93.0503C116.443 93.8973 115.939 94.8313 115.169 95.5569C114.104 96.5597 112.659 97.5599 111.411 98.2955C109.705 99.3006 108.132 100.347 106.544 101.549C104.695 102.949 102.885 104.39 101.102 105.873C100.179 106.64 99.4088 107.537 98.3546 108.137C98.0283 108.323 97.6928 108.453 97.3498 108.603L95.2163 109.53C94.8285 109.598 94.4397 109.635 94.0504 109.598C93.6593 109.561 93.3423 109.428 92.949 109.579C92.851 109.086 93.5888 108.538 93.757 108.124C93.9845 107.565 94.1117 107 94.3266 106.422C94.8375 105.048 95.4994 103.68 96.0458 102.313C96.1754 101.989 96.2603 101.795 96.3404 101.443C96.4281 101.059 96.6727 100.722 96.7467 100.343C96.8685 99.7204 96.6851 98.8866 96.6174 98.2735C96.5837 97.9677 96.7089 97.7098 96.7008 97.4141C96.6909 97.0521 96.5573 96.7965 96.5934 96.4306C96.6603 95.7526 96.593 94.9547 96.4016 94.2814C96.1445 93.377 95.6579 92.3831 95.2336 91.5943C94.9308 91.0311 94.6832 90.4049 94.341 89.8542C93.8882 89.1256 93.5265 88.2855 93.2502 87.4637C92.9939 86.7014 92.5764 86.2392 91.9628 85.7307C91.3526 85.2251 90.6041 84.9381 89.9685 84.4896C89.4847 84.1482 89.2521 83.79 88.6811 83.5366C88.3223 83.3775 87.9335 83.1766 87.5804 83.0396C87.1483 82.872 86.6665 82.7689 86.2448 82.619C85.955 82.5159 85.6782 82.4801 85.3696 82.4418C84.6806 82.3563 84.1036 82.0423 83.3926 81.9301L85.6215 79.0315Z" fill="#0091D5" stroke="black" stroke-width="2.66667" stroke-miterlimit="10"/>
<path d="M76.6338 84.747C77.2564 84.6956 77.8731 84.5224 78.4864 84.4103C79.0342 84.3103 79.584 84.2286 80.1145 84.0518C80.6102 83.8865 81.0997 83.7012 81.592 83.5265C82.028 83.3717 82.5252 83.3359 82.986 83.2927C83.8308 83.2135 84.7319 83.2625 85.5543 83.4728C86.1593 83.6275 86.7629 83.787 87.3661 83.9488C87.8267 84.0723 88.3103 84.1407 88.7591 84.2938C89.3965 84.5112 89.8652 85.07 90.3557 85.516C90.8304 85.9478 91.3217 86.3936 91.7576 86.8659C92.0194 87.1496 92.2627 87.4643 92.4921 87.7749C92.6368 87.9709 92.8329 88.1589 92.9499 88.3704C93.0451 88.5424 93.1263 88.7246 93.2216 88.8965C93.3588 89.1439 93.5569 89.363 93.6848 89.6171C93.8147 89.8751 93.9178 90.1415 94.0554 90.397C94.2293 90.7201 94.4288 91.0549 94.55 91.401C94.7814 92.0619 94.9884 92.7325 95.1509 93.414C95.178 93.5276 95.1881 93.6471 95.2165 93.7601C95.2512 93.8978 95.3247 94.0133 95.3749 94.1438C95.4867 94.4346 95.5597 94.7459 95.6575 95.0428C95.874 95.6998 96.0842 96.3486 96.2276 97.0294C96.3034 97.3896 96.3901 97.7424 96.4631 98.1027C96.518 98.3731 96.6097 98.6293 96.6319 98.9062C96.6462 99.084 96.6296 99.2516 96.6141 99.4283C96.6005 99.5845 96.6233 99.7435 96.5989 99.8987C96.5769 100.039 96.5282 100.173 96.4951 100.311C96.442 100.532 96.4256 100.753 96.3413 100.966C96.2093 101.3 96.1 101.625 96.0204 101.977C95.9383 102.34 95.8322 102.718 95.7724 103.085C95.7108 103.465 95.6273 103.914 95.4539 104.26C95.3355 104.496 95.2443 104.736 95.1305 104.973C95.0302 105.181 94.8929 105.369 94.8082 105.586C94.7584 105.713 94.7263 105.842 94.672 105.969C94.5249 106.312 94.323 106.63 94.1713 106.972C93.9369 107.5 93.6082 107.925 93.3092 108.415C93.0921 108.77 92.9694 109.15 92.8063 109.528C92.7163 109.737 92.6028 109.931 92.5098 110.134C92.3799 110.416 92.1563 110.535 91.9331 110.745C91.7982 110.873 91.6765 110.982 91.5237 111.083C91.3597 111.19 91.0225 111.278 90.8297 111.215C90.6192 111.146 90.4745 110.929 90.3487 110.763C90.1541 110.506 89.9919 110.225 89.8465 109.937C89.6692 109.585 89.4622 109.212 89.3697 108.828C89.1872 108.069 89.4533 107.271 89.5955 106.527C89.6891 106.037 89.9455 105.573 90.0084 105.075C90.0305 104.901 90.075 104.768 90.1224 104.601C90.1785 104.403 90.1755 104.187 90.2113 103.984C90.2509 103.76 90.3194 103.536 90.3731 103.314C90.4367 103.052 90.5605 102.788 90.5822 102.516C90.5952 102.353 90.5668 102.214 90.5922 102.046C90.6294 101.799 90.6711 101.551 90.7012 101.303C90.7978 100.506 90.8129 99.6511 90.695 98.8548C90.6424 98.4989 90.5715 98.1432 90.489 97.7932C90.4164 97.4852 90.3357 97.1795 90.2675 96.8704C90.2013 96.5701 90.1703 96.2629 90.1054 95.9633C89.9172 95.0948 89.5192 94.2701 89.2103 93.4397C88.9669 92.7857 88.6728 92.1523 88.4346 91.4971C88.3022 91.133 88.2148 90.7662 88.0197 90.4293C87.746 89.9566 87.4192 89.633 86.9873 89.2982C86.4149 88.8546 85.8282 88.4273 85.2168 88.0393C84.8078 87.7797 84.352 87.6105 83.9083 87.4226C83.0104 87.0425 82.0425 86.8448 81.1517 86.4378C80.5447 86.1604 80.0416 85.724 79.4083 85.5044C79.1936 85.4299 78.954 85.3762 78.7473 85.2856C78.6493 85.2426 78.4478 85.1567 78.3974 85.0434C78.3278 84.8869 78.38 84.634 78.4123 84.4707C78.4297 84.3824 78.4729 84.3123 78.513 84.2314C78.5442 84.1685 78.5795 84.0896 78.6208 84.0226" fill="#FFD600"/>
<path d="M76.6338 84.747C77.2564 84.6956 77.8731 84.5224 78.4864 84.4103C79.0342 84.3103 79.584 84.2286 80.1145 84.0518C80.6102 83.8865 81.0997 83.7012 81.592 83.5265C82.028 83.3717 82.5252 83.3359 82.986 83.2927C83.8308 83.2135 84.7319 83.2625 85.5543 83.4728C86.1593 83.6275 86.7629 83.787 87.3661 83.9488C87.8267 84.0723 88.3103 84.1407 88.7591 84.2938C89.3965 84.5112 89.8652 85.07 90.3557 85.516C90.8304 85.9478 91.3217 86.3936 91.7576 86.8659C92.0194 87.1496 92.2627 87.4643 92.4921 87.7749C92.6368 87.9709 92.8329 88.1589 92.9499 88.3704C93.0451 88.5424 93.1263 88.7246 93.2216 88.8965C93.3588 89.1439 93.5569 89.363 93.6848 89.6171C93.8147 89.8751 93.9178 90.1415 94.0554 90.397C94.2293 90.7201 94.4288 91.0549 94.55 91.401C94.7814 92.0619 94.9884 92.7325 95.1509 93.414C95.178 93.5276 95.1881 93.6471 95.2165 93.7601C95.2512 93.8978 95.3247 94.0133 95.3749 94.1438C95.4867 94.4346 95.5597 94.7459 95.6575 95.0428C95.874 95.6998 96.0842 96.3486 96.2276 97.0294C96.3034 97.3896 96.3901 97.7424 96.4631 98.1027C96.518 98.3731 96.6097 98.6293 96.6319 98.9062C96.6462 99.084 96.6296 99.2516 96.6141 99.4283C96.6005 99.5845 96.6233 99.7435 96.5989 99.8987C96.5769 100.039 96.5282 100.173 96.4951 100.311C96.442 100.532 96.4256 100.753 96.3413 100.966C96.2093 101.3 96.1 101.625 96.0204 101.977C95.9383 102.34 95.8322 102.718 95.7724 103.085C95.7108 103.465 95.6273 103.914 95.4539 104.26C95.3355 104.496 95.2443 104.736 95.1305 104.973C95.0302 105.181 94.8929 105.369 94.8082 105.586C94.7584 105.713 94.7263 105.842 94.672 105.969C94.5249 106.312 94.323 106.63 94.1713 106.972C93.9369 107.5 93.6082 107.925 93.3092 108.415C93.0921 108.77 92.9694 109.15 92.8063 109.528C92.7163 109.737 92.6028 109.931 92.5098 110.134C92.3799 110.416 92.1563 110.535 91.9331 110.745C91.7982 110.873 91.6765 110.982 91.5237 111.083C91.3597 111.19 91.0225 111.278 90.8297 111.215C90.6192 111.146 90.4745 110.929 90.3487 110.763C90.1541 110.506 89.9919 110.225 89.8465 109.937C89.6692 109.585 89.4622 109.212 89.3697 108.828C89.1872 108.069 89.4533 107.271 89.5955 106.527C89.6891 106.037 89.9455 105.573 90.0084 105.075C90.0305 104.901 90.075 104.768 90.1224 104.601C90.1785 104.403 90.1755 104.187 90.2113 103.984C90.2509 103.76 90.3194 103.536 90.3731 103.314C90.4367 103.052 90.5605 102.788 90.5822 102.516C90.5952 102.353 90.5668 102.214 90.5922 102.046C90.6294 101.799 90.6711 101.551 90.7012 101.303C90.7978 100.506 90.8129 99.6511 90.695 98.8548C90.6424 98.4989 90.5715 98.1432 90.489 97.7932C90.4164 97.4852 90.3357 97.1795 90.2675 96.8704C90.2013 96.5701 90.1703 96.2629 90.1054 95.9633C89.9172 95.0948 89.5192 94.2701 89.2103 93.4397C88.9669 92.7857 88.6728 92.1523 88.4346 91.4971C88.3022 91.133 88.2148 90.7662 88.0197 90.4293C87.746 89.9566 87.4192 89.633 86.9873 89.2982C86.4149 88.8546 85.8282 88.4273 85.2168 88.0393C84.8078 87.7797 84.352 87.6105 83.9083 87.4226C83.0104 87.0425 82.0425 86.8448 81.1517 86.4378C80.5447 86.1604 80.0416 85.724 79.4083 85.5044C79.1936 85.4299 78.954 85.3762 78.7473 85.2856C78.6493 85.2426 78.4478 85.1567 78.3974 85.0434C78.3278 84.8869 78.38 84.634 78.4123 84.4707C78.4297 84.3824 78.4729 84.3123 78.513 84.2314C78.5442 84.1685 78.5795 84.0896 78.6208 84.0226" stroke="black" stroke-width="2.66667" stroke-miterlimit="10"/>
<path d="M179.077 24.6908C179.15 25.5346 179.324 26.3278 179.442 27.1526C179.623 28.415 180.228 29.6331 180.616 30.8589C181.215 32.7505 181.575 34.9744 181.199 36.9336C180.828 38.8706 180.372 40.5582 180.226 42.5452C180.123 43.9539 180.051 45.2917 179.843 46.6823C179.494 49.0191 179.317 51.3289 178.498 53.5561C177.889 55.2083 176.715 56.672 175.6 58.0058C174.611 59.1877 173.556 60.1407 172.387 61.1398C170.782 62.5112 169.229 63.9188 167.575 65.2275C166.24 66.2844 164.928 67.3571 163.549 68.357C162.403 69.1876 161.157 69.8916 160.043 70.7605C159.097 71.4979 158.115 72.0308 157.084 72.5978C156.323 73.0164 155.805 73.8685 155.073 74.3596C153.875 75.1625 152.797 76.0997 151.579 76.8825C149.958 77.9249 148.42 79.0033 146.874 80.1562C144.543 81.8936 142.106 83.3214 139.625 84.8162C138.692 85.3778 137.709 85.7769 136.753 86.2817C136.318 86.5112 135.831 87.0622 135.311 87.0247C135.16 86.4196 135.469 85.7415 135.524 85.1285C135.559 84.7423 135.45 84.38 135.479 83.9974C135.519 83.4736 135.81 82.9731 136.056 82.5264C136.517 81.6866 136.94 80.8218 137.414 79.9894C138.036 78.8937 138.898 77.9643 139.578 76.9066C140.245 75.8694 141.046 74.9817 141.876 74.0795C143.706 72.0903 146.25 70.9995 148.533 69.6374C150.514 68.4561 152.711 67.357 154.352 65.7008C155.804 64.2347 157.049 62.4771 158.605 61.12C160.33 59.6151 161.929 57.9671 163.585 56.3811C164.94 55.0837 166.397 53.8698 167.521 52.3524C168.392 51.1761 169.58 50.255 170.558 49.1691C171.458 48.169 172.572 47.2167 173.135 45.9705C173.555 45.043 173.61 44.0148 173.56 43.0203C173.524 42.2979 173.472 41.5951 173.383 40.8654C173.281 40.0243 173.029 39.3088 172.773 38.5041C172.507 37.6675 172.154 36.9647 172.706 36.1978C173.058 35.7095 173.78 35.5781 174.319 35.3226C174.754 35.1167 174.749 34.9168 174.957 34.5386C175.273 33.9608 175.837 33.8089 176.285 33.4083C176.761 32.9836 177.02 32.3905 177.356 31.8804C177.587 31.5303 177.976 31.295 178.165 30.9163C178.32 30.6056 178.403 30.269 178.569 29.9534C178.94 29.2485 179.367 28.32 179.414 27.5227" fill="white"/>
<path d="M179.077 24.6908C179.15 25.5346 179.324 26.3278 179.442 27.1526C179.623 28.415 180.228 29.6331 180.616 30.8589C181.215 32.7505 181.575 34.9744 181.199 36.9336C180.828 38.8706 180.372 40.5582 180.226 42.5452C180.123 43.9539 180.051 45.2917 179.843 46.6823C179.494 49.0191 179.317 51.3289 178.498 53.5561C177.889 55.2083 176.715 56.672 175.6 58.0058C174.611 59.1877 173.556 60.1407 172.387 61.1398C170.782 62.5112 169.229 63.9188 167.575 65.2275C166.24 66.2844 164.928 67.3571 163.549 68.357C162.403 69.1876 161.157 69.8916 160.043 70.7605C159.097 71.4979 158.115 72.0308 157.084 72.5978C156.323 73.0164 155.805 73.8685 155.073 74.3596C153.875 75.1625 152.797 76.0997 151.579 76.8825C149.958 77.9249 148.42 79.0033 146.874 80.1562C144.543 81.8936 142.106 83.3214 139.625 84.8162C138.692 85.3778 137.709 85.7769 136.753 86.2817C136.318 86.5112 135.831 87.0622 135.311 87.0247C135.16 86.4196 135.469 85.7415 135.524 85.1285C135.559 84.7423 135.45 84.38 135.479 83.9974C135.519 83.4736 135.81 82.9731 136.056 82.5264C136.517 81.6866 136.94 80.8218 137.414 79.9894C138.036 78.8937 138.898 77.9643 139.578 76.9066C140.245 75.8694 141.046 74.9817 141.876 74.0795C143.706 72.0903 146.25 70.9995 148.533 69.6374C150.514 68.4561 152.711 67.357 154.352 65.7008C155.804 64.2347 157.049 62.4771 158.605 61.12C160.33 59.6151 161.929 57.9671 163.585 56.3811C164.94 55.0837 166.397 53.8698 167.521 52.3524C168.392 51.1761 169.58 50.255 170.558 49.1691C171.458 48.169 172.572 47.2167 173.135 45.9705C173.555 45.043 173.61 44.0148 173.56 43.0203C173.524 42.2979 173.472 41.5951 173.383 40.8654C173.281 40.0243 173.029 39.3088 172.773 38.5041C172.507 37.6675 172.154 36.9647 172.706 36.1978C173.058 35.7095 173.78 35.5781 174.319 35.3226C174.754 35.1167 174.749 34.9168 174.957 34.5386C175.273 33.9608 175.837 33.8089 176.285 33.4083C176.761 32.9836 177.02 32.3905 177.356 31.8804C177.587 31.5303 177.976 31.295 178.165 30.9163C178.32 30.6056 178.402 30.269 178.569 29.9534C178.94 29.2485 179.367 28.32 179.414 27.5227" stroke="black" stroke-width="2.66667" stroke-miterlimit="10"/>
<path d="M93.2885 109.792C91.4173 112.447 84.0307 122.878 81.3826 124.672C80.5128 125.262 79.7279 125.912 78.8315 126.506C78.166 126.947 77.1614 127.171 76.5633 127.677C75.5497 128.534 75.1017 129.197 73.8296 129.924C71.6021 131.198 69.3034 132.384 67.1314 133.754C65.0197 135.086 63.1531 136.528 60.9045 137.621C57.6594 139.197 55.1922 142.456 52.3875 144.695C50.3765 146.301 47.8742 147.697 46.2285 149.702C44.3602 151.978 42.6873 154.184 41.0204 156.639C40.3805 157.582 36.8115 161.903 35.564 160.045C35.0691 159.308 36.0298 158.669 36.2048 158.133C36.4408 157.411 36.3642 156.649 36.079 155.907C35.7535 155.06 35.2516 154.314 34.9416 153.45C33.948 150.681 32.0358 148.154 29.8105 146.252C28.5361 145.163 27.6848 145.119 26.2382 144.518C24.9288 143.975 23.484 143.847 21.7148 141.796C22.095 139.106 22.5096 136.418 22.8575 133.724C23.2092 131 25.4073 129.316 27.202 127.577C29.8954 124.965 32.7138 122.43 35.0739 119.479C37.4717 116.481 39.7318 113.644 42.5329 111.026C44.5623 109.129 46.7334 107.247 48.9403 105.566C50.389 104.462 51.9836 103.524 53.3905 102.372C54.6962 101.303 55.8469 100.08 57.2142 99.0732C58.118 98.4073 59.0538 97.9556 60.0058 97.3835C61.4731 96.5017 62.5634 95.0656 63.9032 94.0102C65.408 92.8247 67.0216 91.8139 68.4351 90.5053C69.3334 89.6735 70.1009 88.7465 71.12 88.0546C72.9059 86.8421 75.1961 85.8697 77.2062 85.0665C77.2062 85.0665 77.6061 85.0158 78.051 85.1105C78.3394 85.1718 78.6456 85.1887 78.9149 85.3094C79.125 85.4036 79.2545 85.5187 79.4378 85.6681C79.6807 85.8661 79.9816 86.0231 80.2481 86.1891C80.8308 86.5521 81.451 86.8264 82.0494 87.1622C82.6716 87.5113 83.2588 87.7619 83.9524 87.9369C84.5516 88.0881 85.2245 88.2037 85.7753 88.496C86.0055 88.6181 86.3044 88.7412 86.5099 88.8994C86.6301 88.9919 86.6907 89.0517 86.8174 89.1128C86.9219 89.1632 87.0717 89.2136 87.1535 89.312C87.2769 89.4606 87.3035 89.6854 87.3522 89.865C87.3804 89.9692 87.4388 90.0903 87.5115 90.1728C87.5793 90.2499 87.693 90.2909 87.7646 90.3666C87.8513 90.4585 87.8928 90.588 87.9615 90.6902C88.0453 90.8148 88.1702 90.8961 88.2595 91.0148C88.3543 91.1407 88.4121 91.2522 88.5297 91.3687C88.9631 91.7983 89.2931 92.2487 89.4977 92.8316C89.5852 93.0808 89.65 93.3309 89.7166 93.58C89.7428 93.6782 89.7909 93.7872 89.809 93.8898C89.832 94.0199 89.7836 94.1571 89.812 94.2878C89.8374 94.4052 89.8883 94.4709 89.8943 94.5974C89.8994 94.7019 89.8798 94.8042 89.8998 94.907C89.9214 95.0181 89.9757 95.0973 89.9822 95.2166C89.9884 95.3301 89.956 95.4588 89.9756 95.5705C89.9991 95.7041 90.0646 95.7841 90.0704 95.9243C90.0752 96.0427 90.0841 96.1156 90.112 96.2306C90.1783 96.5049 90.2109 96.8108 90.2412 97.0943C90.2758 97.4176 90.4025 97.7233 90.4195 98.047C90.4283 98.2155 90.4828 98.3307 90.5118 98.4919C90.5358 98.6249 90.4871 98.7733 90.5028 98.9079C90.5216 99.0691 90.591 99.2093 90.5984 99.3727C90.6079 99.5814 90.5952 99.7954 90.5952 100.004V101.587C90.5952 101.83 90.5953 102.073 90.5952 102.315C90.5951 102.469 90.6056 102.627 90.5984 102.781C90.5904 102.954 90.515 103.096 90.505 103.266C90.491 103.503 90.4371 103.671 90.3339 103.881C90.1322 104.292 89.994 104.749 89.9122 105.202C89.817 105.729 89.8045 106.22 89.8045 106.757C89.8045 106.943 89.7932 107.133 89.8024 107.318C89.8096 107.462 89.8667 107.547 89.8969 107.685C89.9685 108.011 89.8577 108.368 89.9363 108.7C89.9963 108.953 89.985 109.208 90.0485 109.458C90.0803 109.584 90.0496 109.706 90.0834 109.832C90.1234 109.981 90.247 110.128 90.3316 110.256C90.5113 110.529 90.7084 110.493 90.9905 110.564C91.2757 110.636 91.4546 110.512 91.7373 110.52C91.8781 110.523 91.9588 110.484 92.0887 110.451C92.2076 110.421 92.3213 110.442 92.4402 110.412C92.5693 110.379 92.7101 110.373 92.8357 110.339C93.0124 110.292 93.1966 110.023 93.3187 109.901" fill="#0091D5"/>
<path d="M93.2885 109.792C91.4173 112.447 84.0307 122.878 81.3826 124.672C80.5128 125.262 79.7279 125.912 78.8315 126.506C78.166 126.947 77.1614 127.171 76.5633 127.677C75.5497 128.534 75.1017 129.197 73.8296 129.924C71.6021 131.198 69.3034 132.384 67.1314 133.754C65.0197 135.086 63.1531 136.528 60.9045 137.621C57.6594 139.197 55.1922 142.456 52.3875 144.695C50.3765 146.301 47.8742 147.697 46.2285 149.702C44.3602 151.978 42.6873 154.184 41.0204 156.639C40.3805 157.582 36.8115 161.903 35.564 160.045C35.0691 159.308 36.0298 158.669 36.2048 158.133C36.4408 157.411 36.3642 156.649 36.079 155.907C35.7535 155.06 35.2516 154.314 34.9416 153.45C33.948 150.681 32.0358 148.154 29.8105 146.252C28.5361 145.163 27.6848 145.119 26.2382 144.518C24.9288 143.975 23.484 143.847 21.7148 141.796C22.095 139.106 22.5096 136.418 22.8575 133.724C23.2092 131 25.4073 129.316 27.202 127.577C29.8954 124.965 32.7138 122.43 35.0739 119.479C37.4717 116.481 39.7318 113.644 42.5329 111.026C44.5623 109.129 46.7334 107.247 48.9403 105.566C50.389 104.462 51.9836 103.524 53.3905 102.372C54.6962 101.303 55.8469 100.08 57.2142 99.0732C58.118 98.4073 59.0538 97.9556 60.0058 97.3835C61.4731 96.5017 62.5634 95.0656 63.9032 94.0102C65.408 92.8247 67.0216 91.8139 68.4351 90.5053C69.3334 89.6735 70.1009 88.7465 71.12 88.0546C72.9059 86.8421 75.1961 85.8697 77.2062 85.0665C77.2062 85.0665 77.6061 85.0158 78.051 85.1105C78.3394 85.1718 78.6456 85.1887 78.9149 85.3094C79.125 85.4036 79.2545 85.5187 79.4378 85.6681C79.6807 85.8661 79.9816 86.0231 80.2481 86.1891C80.8308 86.5521 81.451 86.8264 82.0494 87.1622C82.6716 87.5113 83.2588 87.7619 83.9524 87.9369C84.5516 88.0881 85.2245 88.2037 85.7753 88.496C86.0055 88.6181 86.3044 88.7412 86.5099 88.8994C86.6302 88.9919 86.6907 89.0517 86.8174 89.1128C86.9219 89.1632 87.0717 89.2136 87.1535 89.312C87.2769 89.4606 87.3035 89.6854 87.3522 89.865C87.3804 89.9692 87.4388 90.0903 87.5115 90.1728C87.5793 90.2499 87.693 90.2909 87.7646 90.3666C87.8513 90.4585 87.8928 90.588 87.9615 90.6902C88.0453 90.8148 88.1702 90.8961 88.2595 91.0148C88.3543 91.1407 88.4121 91.2522 88.5297 91.3687C88.9631 91.7983 89.2931 92.2487 89.4977 92.8316C89.5852 93.0808 89.65 93.3309 89.7166 93.58C89.7428 93.6782 89.7909 93.7872 89.809 93.8898C89.832 94.0199 89.7836 94.1571 89.812 94.2878C89.8374 94.4052 89.8883 94.4709 89.8943 94.5974C89.8994 94.7019 89.8798 94.8042 89.8998 94.907C89.9214 95.0181 89.9757 95.0973 89.9822 95.2166C89.9884 95.3301 89.956 95.4588 89.9756 95.5705C89.9991 95.7041 90.0646 95.7841 90.0704 95.9243C90.0752 96.0427 90.0841 96.1156 90.112 96.2306C90.1783 96.5049 90.2109 96.8108 90.2412 97.0943C90.2758 97.4176 90.4025 97.7233 90.4195 98.047C90.4283 98.2155 90.4828 98.3307 90.5118 98.4919C90.5358 98.6249 90.4871 98.7733 90.5028 98.9079C90.5216 99.0691 90.591 99.2093 90.5985 99.3727C90.6079 99.5814 90.5952 99.7954 90.5952 100.004V101.587C90.5952 101.83 90.5953 102.073 90.5952 102.315C90.5951 102.469 90.6056 102.627 90.5985 102.781C90.5904 102.954 90.515 103.096 90.505 103.266C90.491 103.503 90.4371 103.671 90.3339 103.881C90.1322 104.292 89.994 104.749 89.9122 105.202C89.817 105.729 89.8045 106.22 89.8045 106.757C89.8045 106.943 89.7932 107.133 89.8024 107.318C89.8096 107.462 89.8667 107.547 89.8969 107.685C89.9685 108.011 89.8577 108.368 89.9363 108.7C89.9963 108.953 89.985 109.208 90.0485 109.458C90.0803 109.584 90.0496 109.706 90.0834 109.832C90.1234 109.981 90.247 110.128 90.3316 110.256C90.5113 110.529 90.7084 110.493 90.9905 110.564C91.2757 110.636 91.4546 110.512 91.7373 110.52C91.8781 110.523 91.9588 110.484 92.0887 110.451C92.2076 110.421 92.3213 110.442 92.4402 110.412C92.5693 110.379 92.7101 110.373 92.8357 110.339C93.0124 110.292 93.1966 110.023 93.3187 109.901" stroke="black" stroke-width="2.66667" stroke-miterlimit="10"/>
</g>
<defs>
<clipPath id="clip0_173_4504">
<rect width="193" height="175" fill="white"/>
</clipPath>
</defs>
</svg>
