<svg width="173" height="194" viewBox="0 0 173 194" fill="none" xmlns="http://www.w3.org/2000/svg">
<g clip-path="url(#clip0_173_4513)">
<path d="M127.383 88.085C129.589 86.5953 129.697 85.9043 131.968 84.5402C133.793 83.4431 135.318 82.0028 137.095 80.8375C137.998 80.245 138.99 79.7277 139.864 79.1179C141.377 78.0628 142.805 76.9882 144.161 75.7425C147.464 72.7087 151.019 69.9623 154.171 66.6743C157.341 63.3659 160.614 59.9121 163.362 56.4089C164.219 55.3162 164.447 53.9333 165.197 52.6888C165.618 51.991 165.587 51.5787 165.761 50.7349C166.006 49.5444 166.634 48.3784 167.004 47.2202C168.093 43.8121 168.598 40.1625 169.361 36.6791C170.049 33.5449 171.078 30.9458 171.178 27.7199C170.396 27.1163 169.985 25.8843 169.496 25.0397C168.897 24.0043 168.123 23.08 167.5 22.0545C166.737 20.7987 165.992 19.5876 165.366 18.2457C164.955 17.3646 164.415 16.2396 163.699 15.5583C159.449 11.5158 156.039 6.30357 150.303 4.19396L143.006 2.57648C142.352 2.47763 141.691 2.43403 141.041 2.30582C140.483 2.19571 139.92 2.1391 139.357 2.05513C138.125 1.87129 136.833 1.84709 135.592 1.82866C134.846 1.81757 134.096 1.79036 133.35 1.817C132.6 1.84375 131.846 1.9372 131.096 1.98177C130.555 2.01383 129.987 2.05243 129.453 2.15772C129.07 2.2331 128.705 2.38301 128.331 2.49086C127.869 2.62437 127.499 2.83965 127.077 3.07343C126.11 3.60828 125.121 4.14645 124.093 4.55339C123.39 4.83128 122.662 5.02286 121.946 5.26262C121.185 5.51753 120.444 5.80494 119.701 6.1077C118.924 6.42438 118.16 6.69489 117.402 7.05685C116.829 7.33111 116.201 7.51632 115.654 7.84383C115.215 8.10628 114.8 8.40344 114.356 8.65802C113.895 8.92212 113.396 9.09291 112.936 9.36053C112.051 9.87637 111.189 10.4181 110.319 10.9586C109.789 11.2881 109.241 11.5085 108.66 11.7377C108.099 11.9593 107.556 12.2536 107.008 12.5094C106.552 12.7221 106.09 12.9206 105.628 13.12C104.591 13.5679 103.587 14.2384 102.791 15.0457C102.291 15.5528 101.858 16.1224 101.373 16.6448C100.947 17.1041 100.517 17.559 100.094 18.0213C99.6677 18.4874 99.2204 18.917 98.7791 19.3674C98.5236 19.6284 98.2375 19.8267 97.9685 20.0678C97.593 20.4053 97.2464 20.8222 96.9723 21.2444C96.7948 21.5181 96.6153 21.8639 96.486 22.1719C96.4361 22.291 96.3657 22.4268 96.3684 22.5591L94.4724 25.0151C93.5741 25.9378 92.7955 26.9276 91.7956 27.749C90.6268 28.7095 89.8961 29.9756 88.823 30.9933C87.4903 32.2575 85.9055 33.5497 84.6985 34.9865C82.0095 38.1877 78.3688 40.5026 75.6569 43.8299C74.6173 45.106 73.7749 46.3189 72.7356 47.5808C71.9052 48.5886 70.7421 49.4768 70.0569 50.5681C69.2907 51.7882 68.5321 52.9836 67.8481 54.1447C67.4965 54.7414 67.1618 55.3828 66.7924 55.9662C66.4648 56.4838 65.8167 56.922 65.5242 57.363C65.092 58.0157 64.9011 58.4828 64.3966 59.0393C64.1613 59.2988 64.1055 59.5678 63.8318 59.823C63.6249 60.0154 63.3055 60.1674 63.0912 60.3281C62.4434 60.8151 61.4855 61.2023 60.9332 61.7606C60.4451 62.2538 60.1736 62.9927 59.815 63.5498C58.9394 64.9094 58.0817 65.9764 57.5417 67.5522C57.0733 68.9214 56.2833 69.9265 55.8015 71.3058C54.4406 75.2038 53.1152 79.1153 51.7311 83.0051C51.0759 84.8472 51.1074 86.6186 51.421 88.5408C51.6963 90.232 52.7249 91.9868 53.3596 93.5923C53.7687 94.6299 54.4441 95.6586 54.7877 96.7171C55.0841 97.6291 55.0954 98.2829 55.6685 99.1128C56.7522 100.684 58.33 101.817 59.8427 102.976C61.7972 104.474 63.8664 105.937 66.0081 107.129C66.8044 107.572 67.6576 107.687 68.4712 108.074C69.6639 108.641 70.5592 109.277 71.8423 109.721C76.6576 111.387 81.8306 112.798 86.9909 112.565C89.7364 112.441 92.5006 111.188 94.9177 110.001C97.6114 108.679 100.205 107.264 102.799 105.774C104.462 104.819 106.003 103.881 107.404 102.519C108.194 101.751 109.434 104.82 108.471 104.307M99.75 89.8657C97.5481 91.2771 97.5512 89.7319 95.0823 90.5264C92.6637 91.3047 90.2215 92.1114 87.7047 92.3932C86.4302 92.5359 85.1727 92.4221 83.9547 92.6836C82.0719 93.0876 74.2166 95.1457 72.2792 95.1226C70.2577 95.0987 67.1857 94.7551 65.6057 93.2358C64.2775 91.9587 63.8985 88.9591 63.8488 87.1392C63.7979 85.2812 64.4922 83.746 65.0911 82.0069C65.719 80.1828 66.6119 78.7243 67.5737 77.0884C68.0376 76.3005 68.1948 75.4257 68.5322 74.5845C68.8713 73.7385 69.3991 73.0716 69.7767 72.2188C70.4533 70.6908 71.9975 69.4906 73.0261 68.2111C73.931 67.0846 75.2107 66.1784 76.191 65.1779C77.3387 64.0062 79.0149 63.1042 80.4209 62.2662C81.1957 61.8041 81.7376 61.1474 82.416 60.5841C83.0857 60.0277 83.9235 59.6555 84.6598 59.1906C86.9847 57.7227 88.7523 55.8984 90.6144 53.8892C91.8878 52.5156 92.9185 50.883 94.1218 49.4247C95.3104 47.9849 96.4705 46.5046 97.5997 44.998C100.134 41.6155 102.307 37.7743 105.555 34.9206C106.438 34.145 105.235 34.3652 105.968 33.4456C106.6 32.65 107.215 31.7484 107.96 31.0635C108.888 30.2098 109.8 29.3748 110.688 28.4395C111.068 28.0383 111.401 27.6447 111.852 27.3162C112.157 27.0937 112.592 26.9508 112.866 26.6987C113.807 25.8334 114.802 25.067 115.774 24.2011C116.253 23.7749 116.8 23.5105 117.262 23.1253C117.628 22.8207 117.728 22.3363 118.034 21.9885C118.434 21.5342 118.917 21.3351 119.32 20.8465C121.089 18.7025 123.161 16.5476 125.95 16.0858C126.499 15.9948 127.028 15.9274 127.585 15.8363C128.118 15.7491 128.636 15.9007 129.157 15.8199C129.392 15.7835 129.474 15.6567 129.792 15.6365C129.972 15.6249 130.18 15.6689 130.36 15.6829C130.923 15.7263 131.853 15.6025 132.389 15.7805C135.435 16.7916 138.761 16.0809 141.819 17.3507C144.685 18.5407 146.874 21.5693 148.363 24.2023C149.812 26.7628 151.716 29.3807 152.347 32.3117C152.681 33.8591 152.948 35.7759 152.666 37.3467C152.499 38.2757 151.918 39.0558 151.813 40.019C151.693 41.1189 151.596 42.2992 151.51 43.4048C151.372 45.205 150.996 46.9924 150.733 48.7951C150.617 49.5896 150.346 50.5362 149.995 51.2558C149.789 51.681 149.489 51.9487 149.258 52.3388C149.054 52.6831 149.004 53.1592 148.79 53.4735C148.372 54.0861 147.437 54.6701 146.881 55.2486C145.641 56.5367 144.227 57.6294 142.982 58.9192C142.155 59.7747 141.151 60.4885 140.378 61.3781C139.683 62.178 139.031 63.0324 138.328 63.8333C136.333 66.1048 134.204 68.19 132.053 70.3093C131.223 71.1271 130.257 71.2974 129.313 71.9113C128.519 72.4281 127.782 73.0836 127.009 73.6115C125.207 74.8413 123.193 76.0775 121.364 77.4005C119.222 78.9495 121.33 78.2391 119 79.461" fill="#EBEBE9"/>
<path d="M127.383 88.085C129.589 86.5953 129.697 85.9043 131.968 84.5402C133.793 83.4431 135.318 82.0028 137.095 80.8375C137.998 80.245 138.99 79.7277 139.864 79.1179C141.377 78.0628 142.805 76.9882 144.161 75.7425C147.464 72.7087 151.019 69.9623 154.171 66.6743C157.341 63.3659 160.614 59.9121 163.362 56.4089C164.219 55.3162 164.447 53.9333 165.197 52.6888C165.618 51.991 165.587 51.5787 165.761 50.7349C166.006 49.5444 166.634 48.3784 167.004 47.2202C168.093 43.8121 168.598 40.1625 169.361 36.6791C170.049 33.5449 171.078 30.9458 171.178 27.7199C170.396 27.1163 169.985 25.8843 169.496 25.0397C168.897 24.0043 168.123 23.08 167.5 22.0545C166.737 20.7987 165.992 19.5876 165.366 18.2457C164.955 17.3646 164.415 16.2396 163.699 15.5583C159.449 11.5158 156.039 6.30357 150.303 4.19396L143.006 2.57648C142.352 2.47763 141.691 2.43403 141.041 2.30582C140.483 2.19571 139.92 2.1391 139.357 2.05513C138.125 1.87129 136.833 1.84709 135.592 1.82866C134.846 1.81757 134.096 1.79036 133.35 1.817C132.6 1.84375 131.846 1.9372 131.096 1.98177C130.555 2.01383 129.987 2.05243 129.453 2.15772C129.07 2.2331 128.705 2.38301 128.331 2.49086C127.869 2.62437 127.499 2.83965 127.077 3.07343C126.11 3.60828 125.121 4.14645 124.093 4.55339C123.39 4.83128 122.662 5.02286 121.946 5.26262C121.185 5.51753 120.444 5.80494 119.701 6.1077C118.924 6.42438 118.16 6.69489 117.402 7.05685C116.829 7.33111 116.201 7.51632 115.654 7.84383C115.215 8.10628 114.8 8.40344 114.356 8.65802C113.895 8.92212 113.396 9.09291 112.936 9.36053C112.051 9.87637 111.189 10.4181 110.319 10.9586C109.789 11.2881 109.241 11.5085 108.66 11.7377C108.099 11.9593 107.556 12.2536 107.008 12.5094C106.552 12.7221 106.09 12.9206 105.628 13.12C104.591 13.5679 103.587 14.2384 102.791 15.0457C102.291 15.5528 101.858 16.1224 101.373 16.6448C100.947 17.1041 100.517 17.559 100.094 18.0213C99.6677 18.4874 99.2204 18.917 98.7791 19.3674C98.5236 19.6284 98.2375 19.8267 97.9685 20.0678C97.593 20.4053 97.2464 20.8222 96.9723 21.2444C96.7948 21.5181 96.6153 21.8639 96.486 22.1719C96.4361 22.291 96.3657 22.4268 96.3684 22.5591L94.4724 25.0151C93.5741 25.9378 92.7955 26.9276 91.7956 27.749C90.6268 28.7095 89.8961 29.9756 88.823 30.9933C87.4903 32.2575 85.9055 33.5497 84.6985 34.9865C82.0095 38.1877 78.3688 40.5026 75.6569 43.8299C74.6173 45.106 73.7749 46.3189 72.7356 47.5808C71.9052 48.5886 70.7421 49.4768 70.0569 50.5681C69.2907 51.7882 68.5321 52.9836 67.8481 54.1447C67.4965 54.7414 67.1618 55.3828 66.7924 55.9662C66.4648 56.4838 65.8167 56.922 65.5242 57.363C65.092 58.0157 64.9011 58.4828 64.3966 59.0393C64.1613 59.2988 64.1055 59.5678 63.8318 59.823C63.6249 60.0154 63.3055 60.1674 63.0912 60.3281C62.4434 60.8151 61.4855 61.2023 60.9332 61.7606C60.4451 62.2538 60.1736 62.9927 59.815 63.5498C58.9394 64.9094 58.0817 65.9764 57.5417 67.5522C57.0733 68.9214 56.2833 69.9265 55.8015 71.3058C54.4406 75.2038 53.1152 79.1153 51.7311 83.0051C51.0759 84.8472 51.1074 86.6186 51.421 88.5408C51.6963 90.232 52.7249 91.9868 53.3596 93.5923C53.7687 94.6299 54.4441 95.6586 54.7877 96.7171C55.0841 97.6291 55.0954 98.2829 55.6685 99.1128C56.7522 100.684 58.33 101.817 59.8427 102.976C61.7972 104.474 63.8664 105.937 66.0081 107.129C66.8044 107.572 67.6576 107.687 68.4712 108.074C69.6639 108.641 70.5592 109.277 71.8423 109.721C76.6576 111.387 81.8306 112.798 86.9909 112.565C89.7364 112.441 92.5006 111.188 94.9177 110.001C97.6114 108.679 100.205 107.264 102.8 105.774C104.462 104.819 106.003 103.881 107.404 102.519C108.194 101.751 109.434 104.82 108.471 104.307M99.75 89.8657C97.5481 91.2771 97.5512 89.7319 95.0823 90.5264C92.6637 91.3047 90.2215 92.1114 87.7047 92.3932C86.4302 92.5359 85.1727 92.4221 83.9547 92.6836C82.0719 93.0876 74.2166 95.1457 72.2792 95.1226C70.2577 95.0987 67.1857 94.7551 65.6057 93.2358C64.2775 91.9587 63.8985 88.9591 63.8488 87.1392C63.7979 85.2812 64.4922 83.746 65.0911 82.0069C65.719 80.1828 66.6119 78.7243 67.5737 77.0884C68.0376 76.3005 68.1948 75.4257 68.5322 74.5845C68.8713 73.7385 69.3991 73.0716 69.7767 72.2188C70.4533 70.6908 71.9975 69.4906 73.0261 68.2111C73.931 67.0846 75.2107 66.1784 76.191 65.1779C77.3387 64.0062 79.0149 63.1042 80.4209 62.2662C81.1957 61.8041 81.7376 61.1474 82.416 60.5841C83.0857 60.0277 83.9235 59.6555 84.6598 59.1906C86.9848 57.7227 88.7523 55.8984 90.6144 53.8892C91.8878 52.5156 92.9185 50.883 94.1218 49.4247C95.3104 47.9849 96.4705 46.5046 97.5997 44.998C100.134 41.6155 102.307 37.7743 105.555 34.9206C106.438 34.145 105.235 34.3652 105.968 33.4456C106.6 32.65 107.215 31.7484 107.96 31.0635C108.888 30.2098 109.8 29.3748 110.688 28.4395C111.068 28.0383 111.401 27.6447 111.852 27.3162C112.157 27.0937 112.592 26.9508 112.866 26.6987C113.807 25.8334 114.802 25.067 115.774 24.2011C116.253 23.7749 116.8 23.5105 117.262 23.1253C117.628 22.8207 117.728 22.3363 118.034 21.9885C118.434 21.5342 118.917 21.3351 119.32 20.8465C121.089 18.7025 123.161 16.5476 125.95 16.0858C126.499 15.9948 127.028 15.9274 127.585 15.8363C128.118 15.7491 128.636 15.9007 129.157 15.8199C129.392 15.7835 129.474 15.6567 129.792 15.6365C129.972 15.6249 130.18 15.6689 130.36 15.6829C130.923 15.7263 131.853 15.6025 132.389 15.7805C135.435 16.7916 138.761 16.0809 141.819 17.3507C144.685 18.5407 146.874 21.5693 148.363 24.2023C149.812 26.7628 151.716 29.3807 152.347 32.3117C152.681 33.8591 152.948 35.7759 152.666 37.3467C152.499 38.2757 151.918 39.0558 151.813 40.019C151.693 41.1189 151.596 42.2992 151.51 43.4048C151.372 45.205 150.996 46.9924 150.733 48.7951C150.617 49.5895 150.346 50.5362 149.995 51.2558C149.789 51.681 149.489 51.9487 149.258 52.3388C149.054 52.6831 149.004 53.1592 148.79 53.4735C148.372 54.0861 147.437 54.6701 146.881 55.2486C145.641 56.5367 144.227 57.6294 142.982 58.9192C142.155 59.7747 141.151 60.4885 140.378 61.3781C139.683 62.178 139.031 63.0324 138.328 63.8333C136.333 66.1048 134.204 68.19 132.053 70.3093C131.223 71.1271 130.257 71.2974 129.313 71.9113C128.519 72.4281 127.782 73.0836 127.009 73.6115C125.207 74.8413 123.193 76.0775 121.364 77.4005C119.222 78.9495 121.33 78.2391 119 79.461" stroke="black" stroke-width="3.03833" stroke-miterlimit="10"/>
<path d="M14.5977 185.093C14.5757 185.066 14.5464 185.048 14.5244 185.022L15.712 187.125C15.9044 187.195 16.1371 187.253 16.371 187.315C15.6302 186.77 15.112 185.728 14.5977 185.093Z" fill="#EBEBE9" stroke="black" stroke-width="3.03889" stroke-linecap="round" stroke-linejoin="round"/>
<path d="M22.4517 144.08C22.4617 144.021 22.4909 143.965 22.5045 143.907C22.452 144 22.4163 144.075 22.4517 144.08Z" fill="#EBEBE9" stroke="black" stroke-width="3.03889" stroke-linecap="round" stroke-linejoin="round"/>
<path d="M53.978 97.1728C52.5227 98.1637 51.3074 99.452 49.8475 100.445C47.9197 101.757 45.7818 102.759 43.7898 103.967C40.7426 105.815 38.134 107.886 35.4271 110.184C34.6372 110.854 33.838 111.098 32.9816 111.609C32.3806 111.968 31.8774 112.637 31.4115 113.108C29.5811 114.959 27.4018 116.507 25.7076 118.466C24.9858 119.301 24.4896 120.202 23.869 121.102C23.2113 122.056 22.1883 122.694 21.3713 123.497C20.0439 124.802 18.541 125.749 17.1194 126.932C16.1384 127.748 14.9947 128.357 14.0201 129.157C13.2702 129.516 12.6733 130.021 11.9208 130.429C11.4212 130.701 11.0804 130.924 10.4815 131.265C9.39046 131.886 8.52225 132.299 8.47678 132.322C7.50086 132.807 2.1852 138.395 1.81433 149.059C1.11526 169.178 18.6278 189.851 18.62 189.855C18.62 189.855 18.378 189.47 17.2374 187.634C17.2517 187.642 17.5619 187.968 17.5768 188.001C17.9868 188.906 21.2523 189.442 20.2991 189.18C24.4432 190.961 24.7662 190.865 25.2283 190.942C25.8384 191.043 26.307 190.886 26.9196 191.069C27.172 191.144 27.4346 191.307 27.695 191.363C28.5173 191.538 29.0703 191.441 29.9482 191.716C31.0229 192.053 32.7169 192.313 33.8172 192.138C35.6973 191.839 37.4153 190.998 39.2362 190.608C40.612 190.313 41.953 189.565 43.2587 188.993C44.7388 188.343 46.2479 187.489 47.6641 186.707C48.6098 186.185 49.5064 185.577 50.472 185.1C50.8335 184.922 51.2062 184.634 51.5145 184.374C52.1098 183.872 52.7279 183.436 53.3661 182.991C54.5306 182.18 55.812 181.593 57.0059 180.83C57.2138 180.697 57.4462 180.62 57.6401 180.463C57.8869 180.264 58.1213 180.114 58.3946 179.95C58.9577 179.612 59.4944 179.213 60.0714 178.9C61.0698 178.358 61.8966 177.532 62.857 176.927C63.0391 176.813 63.2363 176.705 63.3987 176.563C63.5477 176.433 63.6531 176.264 63.7861 176.118C63.9279 175.962 64.0937 175.813 64.2567 175.674C64.5479 175.424 64.7909 175.128 65.0662 174.861C65.4133 174.525 65.768 174.196 66.1151 173.86C66.4613 173.525 66.7599 173.124 67.1469 172.847C67.5212 172.578 67.8541 172.263 68.2368 172.004C68.3969 171.896 68.4752 171.743 68.6204 171.623C68.7097 171.549 68.8139 171.516 68.9092 171.452C69.1278 171.305 69.3723 171.191 69.5757 171.018C69.7544 170.865 69.9113 170.695 70.0841 170.544C70.18 170.46 70.2871 170.299 70.4173 170.279L72.4402 168.259C72.6755 168.365 73.1879 167.963 73.3463 167.825C73.7842 167.445 73.2343 167.755 73.6674 167.369C74.6147 166.523 75.6699 165.784 76.6848 164.962C77.2565 164.498 77.7389 163.864 78.2164 163.341C78.8745 162.619 79.582 162.108 80.2972 161.442C81.7516 160.088 83.106 158.65 84.6369 157.384C86.1995 156.091 87.414 154.501 88.8344 153.078C89.9046 152.006 91.0513 150.946 92.0316 149.849C94.2011 147.421 96.2124 144.827 98.5734 142.547C99.5569 141.597 100.386 140.55 101.412 139.635C102.789 138.405 104.403 137.539 105.823 136.362C107.29 135.145 109.142 134.659 110.464 133.312C111.793 131.957 112.425 130.109 113.802 128.714C114.579 127.927 115.361 127.312 116.192 126.585C117.115 125.778 117.858 124.795 118.812 124.006C120.832 122.336 122.294 120.435 123.91 118.391C124.379 117.799 124.837 117.118 125.229 116.479C125.652 115.79 126.119 115.098 126.503 114.405C126.775 113.913 126.795 113.368 127.107 112.881C127.441 112.358 127.699 112.15 127.932 111.512C128.245 110.66 128.757 110.127 129.141 109.318C130.012 107.482 130.577 105.25 130.881 103.283C131.2 101.226 132.124 99.721 131.929 97.5626C131.809 96.2269 131.687 94.703 131.194 93.4471C130.825 92.5036 130.226 90.9998 129.646 90.1711C128.639 88.7333 127.135 87.3899 125.961 86.0795C122.871 82.6299 119.667 79.0739 115.59 76.8077C111.621 74.6008 107.755 71.8993 103.261 70.8645C99.6941 70.043 96.5825 70.3691 93.0193 71.2407C90.2806 71.9106 87.1986 72.9919 84.7251 74.3266C79.7449 77.0137 69.4097 84.9446 64.8034 88.1869M14.8612 128.846C15.0558 128.69 15.201 128.571 15.2671 128.509C15.1483 128.687 15.0141 128.787 14.8612 128.846ZM76.6225 94.3821C77.0161 94.4562 77.384 94.5543 77.7824 94.5233C78.091 94.4993 79.2651 94.1375 79.6019 94.0274C79.9651 93.9086 81.5022 93.3025 82.0731 93.2947C82.0897 93.2546 82.0043 93.2905 82.0209 93.2504C83.7026 92.4835 85.3399 92.0252 87.155 91.5998C88.7878 91.217 90.3166 90.6911 91.9315 90.3084C93.3413 89.9745 94.6435 89.6364 96.1124 89.5772C97.344 89.5277 98.6123 90.0675 99.7416 90.5822C102.36 91.7754 105.59 93.9489 107.113 96.5145C108.602 99.0211 108.922 102.609 108.661 105.433C108.466 107.534 107.741 109.199 107.197 111.194C106.775 112.739 106.339 114.187 105.48 115.553C104.597 116.958 103.705 118.391 102.704 119.729C101.846 120.875 100.649 121.688 99.6936 122.754C98.7685 123.785 97.9389 124.899 96.9089 125.832C96.2648 126.416 95.4596 126.834 94.8638 127.462C94.0346 128.334 93.4819 129.2 92.4111 129.872C89.8986 131.449 87.5737 132.948 85.308 134.863C82.6802 137.082 80.25 139.308 77.9683 141.861C76.3459 143.675 74.9527 145.556 73.0313 147.076C70.4422 149.123 67.9089 151.183 65.2602 153.199C64.0093 154.151 62.4965 154.587 61.2986 155.58L41.2653 172.47C40.926 172.725 40.5621 172.951 40.2474 173.239C39.8954 173.561 39.6199 173.928 39.2456 174.228C38.667 174.693 38.0167 175.088 37.2665 175.162C36.3258 175.256 35.249 174.898 34.3507 174.67C33.7677 174.522 33.184 174.384 32.599 174.244L33.2286 174.278C30.8243 173.483 27.171 171.515 26.4401 171.256C23.5159 170.218 20.2648 168.526 19.2052 165.39C18.7059 163.914 18.522 157.009 18.621 156.266C18.6642 155.943 18.9658 153.466 19.1436 152.553C19.4833 150.806 21.2598 146.119 21.5158 145.496C21.773 144.867 26.9995 137.222 27.8757 136.586C28.711 135.981 29.6688 135.467 30.5907 134.924C31.5707 134.347 32.3575 133.476 33.3488 132.962C35.2356 131.984 37.0664 130.601 38.7782 129.302C40.4923 128.001 42.2228 126.873 43.8929 125.489C44.8309 124.712 45.868 123.881 46.6376 122.923C47.0922 122.357 47.3115 121.651 47.8723 121.151C48.6179 120.488 49.4655 120.136 50.168 119.353C52.4666 116.791 60.6437 108.105 62.9149 105.51" fill="#EBEBE9"/>
<path d="M53.978 97.1728C52.5227 98.1637 51.3074 99.452 49.8475 100.445C47.9197 101.757 45.7818 102.759 43.7898 103.967C40.7426 105.815 38.134 107.886 35.4271 110.184C34.6372 110.854 33.838 111.098 32.9816 111.609C32.3806 111.968 31.8774 112.637 31.4115 113.108C29.5811 114.959 27.4018 116.507 25.7076 118.466C24.9858 119.301 24.4896 120.202 23.869 121.102C23.2113 122.056 22.1883 122.694 21.3713 123.497C20.0439 124.802 18.541 125.749 17.1194 126.932C16.1384 127.748 14.9947 128.357 14.0201 129.157C13.2702 129.516 12.6733 130.021 11.9208 130.429C11.4212 130.701 11.0804 130.924 10.4815 131.265C9.39046 131.886 8.52225 132.299 8.47678 132.322C7.50086 132.807 2.1852 138.395 1.81433 149.059C1.11526 169.178 18.6278 189.851 18.62 189.855C18.62 189.855 18.378 189.47 17.2374 187.634C17.2517 187.642 17.5619 187.968 17.5768 188.001C17.9868 188.906 21.2523 189.442 20.2991 189.18C24.4432 190.961 24.7662 190.865 25.2283 190.942C25.8384 191.043 26.307 190.886 26.9196 191.069C27.172 191.144 27.4346 191.307 27.695 191.363C28.5173 191.538 29.0703 191.441 29.9482 191.716C31.0229 192.053 32.7169 192.313 33.8172 192.138C35.6973 191.839 37.4153 190.998 39.2362 190.608C40.612 190.313 41.953 189.565 43.2587 188.993C44.7388 188.343 46.2479 187.489 47.6641 186.707C48.6098 186.185 49.5064 185.577 50.472 185.1C50.8335 184.922 51.2062 184.634 51.5145 184.374C52.1098 183.872 52.7279 183.436 53.3661 182.991C54.5306 182.18 55.812 181.593 57.0059 180.83C57.2138 180.697 57.4462 180.62 57.6401 180.463C57.8869 180.264 58.1213 180.114 58.3946 179.95C58.9577 179.612 59.4944 179.213 60.0714 178.9C61.0698 178.358 61.8966 177.532 62.857 176.927C63.0391 176.813 63.2363 176.705 63.3987 176.563C63.5477 176.433 63.6531 176.264 63.7861 176.118C63.9279 175.962 64.0937 175.813 64.2567 175.674C64.5479 175.424 64.7909 175.128 65.0662 174.861C65.4133 174.525 65.768 174.196 66.115 173.86C66.4613 173.525 66.7599 173.124 67.1469 172.847C67.5212 172.578 67.8541 172.263 68.2368 172.004C68.3969 171.896 68.4752 171.743 68.6204 171.623C68.7097 171.549 68.8139 171.516 68.9092 171.452C69.1278 171.305 69.3723 171.191 69.5757 171.018C69.7545 170.865 69.9113 170.695 70.0841 170.544C70.18 170.46 70.2871 170.299 70.4173 170.279L72.4402 168.259C72.6755 168.365 73.1879 167.963 73.3463 167.825C73.7842 167.445 73.2343 167.755 73.6675 167.369C74.6147 166.523 75.6699 165.784 76.6848 164.962C77.2565 164.498 77.7389 163.864 78.2164 163.341C78.8745 162.619 79.582 162.108 80.2972 161.442C81.7516 160.088 83.106 158.65 84.6369 157.384C86.1995 156.091 87.414 154.501 88.8345 153.078C89.9046 152.006 91.0513 150.946 92.0316 149.849C94.2011 147.421 96.2124 144.827 98.5734 142.547C99.5569 141.597 100.386 140.55 101.412 139.635C102.789 138.405 104.403 137.539 105.822 136.362C107.29 135.145 109.142 134.659 110.464 133.312C111.793 131.957 112.425 130.109 113.802 128.714C114.579 127.927 115.361 127.312 116.192 126.585C117.115 125.778 117.858 124.795 118.812 124.006C120.832 122.336 122.294 120.435 123.91 118.391C124.379 117.799 124.837 117.118 125.229 116.479C125.652 115.79 126.119 115.098 126.503 114.405C126.775 113.913 126.795 113.368 127.107 112.881C127.441 112.358 127.699 112.15 127.932 111.512C128.245 110.66 128.757 110.127 129.141 109.318C130.012 107.482 130.577 105.25 130.881 103.283C131.2 101.226 132.124 99.721 131.929 97.5626C131.809 96.2269 131.687 94.703 131.194 93.4471C130.825 92.5036 130.226 90.9998 129.646 90.1711C128.639 88.7333 127.135 87.3899 125.961 86.0795C122.871 82.6299 119.667 79.0739 115.59 76.8077C111.621 74.6008 107.755 71.8993 103.261 70.8645C99.6941 70.043 96.5825 70.3691 93.0193 71.2407C90.2806 71.9106 87.1986 72.9919 84.7251 74.3266C79.7449 77.0137 69.4097 84.9446 64.8034 88.1869M76.6225 94.3821C77.0161 94.4562 77.384 94.5543 77.7824 94.5233C78.091 94.4993 79.2651 94.1375 79.6019 94.0274C79.9651 93.9086 81.5022 93.3025 82.0731 93.2947C82.0897 93.2546 82.0043 93.2905 82.0209 93.2504C83.7026 92.4835 85.3399 92.0252 87.155 91.5998C88.7878 91.217 90.3166 90.6911 91.9315 90.3084C93.3413 89.9745 94.6435 89.6364 96.1124 89.5772C97.344 89.5277 98.6123 90.0675 99.7416 90.5822C102.36 91.7754 105.59 93.9489 107.113 96.5145C108.602 99.0211 108.922 102.609 108.661 105.433C108.466 107.534 107.741 109.199 107.197 111.194C106.775 112.739 106.339 114.187 105.48 115.553C104.597 116.958 103.705 118.391 102.704 119.729C101.846 120.875 100.649 121.688 99.6936 122.754C98.7685 123.785 97.9389 124.899 96.9089 125.832C96.2648 126.416 95.4596 126.834 94.8638 127.462C94.0346 128.334 93.4819 129.2 92.4111 129.872C89.8986 131.449 87.5737 132.948 85.308 134.863C82.6802 137.082 80.25 139.308 77.9683 141.861C76.3459 143.675 74.9527 145.556 73.0313 147.076C70.4422 149.123 67.9089 151.183 65.2602 153.199C64.0093 154.151 62.4965 154.587 61.2986 155.58L41.2653 172.47C40.926 172.725 40.5621 172.951 40.2474 173.239C39.8954 173.561 39.6199 173.928 39.2456 174.228C38.667 174.693 38.0167 175.088 37.2665 175.162C36.3258 175.256 35.249 174.898 34.3507 174.67C33.7677 174.522 33.184 174.384 32.599 174.244L33.2286 174.278C30.8243 173.483 27.171 171.515 26.4401 171.256C23.5159 170.218 20.2648 168.526 19.2052 165.39C18.7059 163.914 18.522 157.009 18.621 156.266C18.6642 155.943 18.9658 153.466 19.1436 152.553C19.4833 150.806 21.2598 146.119 21.5158 145.496C21.773 144.867 26.9995 137.222 27.8757 136.586C28.711 135.981 29.6688 135.467 30.5907 134.924C31.5707 134.347 32.3575 133.476 33.3488 132.962C35.2356 131.984 37.0664 130.601 38.7782 129.302C40.4923 128.001 42.2228 126.873 43.8929 125.489C44.8309 124.712 45.868 123.881 46.6376 122.923C47.0922 122.357 47.3115 121.651 47.8723 121.151C48.6179 120.488 49.4655 120.136 50.168 119.353C52.4666 116.791 60.6437 108.105 62.9149 105.51M14.8612 128.846C15.0558 128.69 15.201 128.571 15.2671 128.509C15.1483 128.687 15.0141 128.787 14.8612 128.846Z" stroke="black" stroke-width="3.03889" stroke-linecap="round" stroke-linejoin="round"/>
<path d="M54.4229 95.1522C55.0674 96.0697 55.5224 97.0913 56.2521 97.9493C56.5486 98.298 56.7847 98.6989 57.1048 99.0301C57.8027 99.7522 58.4916 100.41 59.1256 101.198C59.5662 101.745 59.9836 102.236 60.5319 102.672C60.8887 102.955 61.1564 103.356 61.547 103.58C61.8971 103.78 62.4513 103.977 62.5677 104.391M62.5677 104.391C62.3643 104.994 63.0063 103.957 62.5677 104.391Z" stroke="black" stroke-width="3.03889" stroke-linecap="round" stroke-linejoin="round"/>
<path d="M62.9023 87.4305C62.9058 88.7847 63.1072 89.6464 64.2782 90.3024C64.7446 90.5636 65.1255 90.8405 65.6218 91.0447C66.3229 91.3331 67.0252 91.6555 67.7122 91.9832C68.893 92.5464 70.1583 93.0742 71.3892 93.5206C72.2479 93.832 77.0097 94.7476 77.4231 94.3734" stroke="black" stroke-width="3.03889" stroke-linecap="round" stroke-linejoin="round"/>
</g>
<defs>
<clipPath id="clip0_173_4513">
<rect width="173" height="194" fill="white"/>
</clipPath>
</defs>
</svg>
