<svg width="1600" height="4" viewBox="0 0 1600 4" fill="none" xmlns="http://www.w3.org/2000/svg">
<g clip-path="url(#clip0_11_1502)">
<path d="M0.61426 1.99335V3.31042H0.781332L0.948159 3.30847L0.61426 1.99335ZM2616.38 2.16277L2621.94 2.71953L2622.95 2.25799L2622.24 1.77168L2616.38 2.16277ZM2616.13 1.99335V0.676286H2607.79L2610.27 2.38444L2616.13 1.99335ZM0 1.99335V3.31042H0.61426V1.99335V0.676286H0V1.99335ZM0.61426 1.99335L0.948159 3.30847C10.6984 3.19466 17.5645 3.26722 21.8957 3.4721L23.219 2.18596L24.5424 0.899819C18.554 0.616542 10.3502 0.560693 0.280359 0.678236L0.61426 1.99335ZM23.219 2.18596L21.8957 3.4721C28.0024 3.76097 34.137 3.7372 40.2209 3.40345L38.6984 2.12749L37.1758 0.851522C32.9402 1.08389 28.7552 1.0991 24.5424 0.899819L23.219 2.18596ZM38.6984 2.12749L40.2209 3.40345C45.1472 3.13321 50.0645 2.92952 54.974 2.79191L54.1777 1.48597L53.3814 0.180006C47.9714 0.331654 42.5691 0.55566 37.1758 0.851522L38.6984 2.12749ZM54.1777 1.48597L54.974 2.79191C59.6752 2.66013 64.3695 2.64313 69.0655 2.74058L69.6571 1.42963L70.2486 0.118701C64.625 0.00199104 58.9998 0.0225228 53.3814 0.180006L54.1777 1.48597ZM69.6571 1.42963L69.0655 2.74058C74.4802 2.85296 79.8974 2.89226 85.3152 2.85841L85.1364 1.5419L84.9577 0.225394C80.0559 0.256025 75.1535 0.220493 70.2486 0.118701L69.6571 1.42963ZM85.1364 1.5419L85.3152 2.85841C90.2808 2.82738 95.2459 2.8469 100.212 2.917L100.616 1.60278L101.019 0.288549C95.6661 0.212993 90.3116 0.191934 84.9577 0.225394L85.1364 1.5419ZM100.616 1.60278L100.212 2.917C105.551 2.99235 110.891 3.01737 116.231 2.99204L116.095 1.67529L115.959 0.35855C110.98 0.38217 106 0.358843 101.019 0.288549L100.616 1.60278ZM116.095 1.67529L116.231 2.99204C120.792 2.9704 125.374 3.08945 129.993 3.35326L131.574 2.08057L133.156 0.807861C127.455 0.48236 121.718 0.331234 115.959 0.35855L116.095 1.67529ZM131.574 2.08057L129.993 3.35326C136.28 3.71227 142.615 3.68266 148.863 3.26981L147.054 2.01116L145.245 0.752492C141.173 1.02152 137.188 1.03818 133.156 0.807861L131.574 2.08057ZM147.054 2.01116L148.863 3.26981C153.542 2.96064 158.181 2.78753 162.791 2.74608L162.533 1.43017L162.276 0.114267C156.566 0.165604 150.886 0.379808 145.245 0.752492L147.054 2.01116ZM162.533 1.43017L162.791 2.74608C167.001 2.70823 171.283 2.87152 175.692 3.25722L178.012 2.03778L180.333 0.818332C174.422 0.301126 168.385 0.0593361 162.276 0.114267L162.533 1.43017ZM178.012 2.03778L175.692 3.25722C182.112 3.819 188.723 3.89772 195.282 3.46928L193.492 2.20939L191.702 0.949498C187.941 1.19516 184.232 1.15948 180.333 0.818332L178.012 2.03778ZM193.492 2.20939L195.282 3.46928C199.866 3.16985 204.398 3.02893 208.899 3.04025L208.971 1.72327L209.043 0.406304C203.225 0.39167 197.437 0.574828 191.702 0.949498L193.492 2.20939ZM208.971 1.72327L208.899 3.04025C214.079 3.05329 219.259 3.06083 224.439 3.06291L224.451 1.74585L224.462 0.428785C219.323 0.426725 214.183 0.419231 209.043 0.406304L208.971 1.72327ZM224.451 1.74585L224.439 3.06291C228.987 3.06473 233.564 3.20979 238.186 3.50322L239.93 2.24035L241.674 0.977499C235.976 0.615719 230.233 0.431099 224.462 0.428785L224.451 1.74585ZM239.93 2.24035L238.186 3.50322C244.15 3.88189 250.185 3.98774 256.235 3.81185L255.409 2.50673L254.584 1.20161C250.314 1.32576 246.029 1.25403 241.674 0.977499L239.93 2.24035ZM255.409 2.50673L256.235 3.81185C261.248 3.66605 266.261 3.55961 271.272 3.49245L270.889 2.17794L270.505 0.863441C265.197 0.934602 259.889 1.04734 254.584 1.20161L255.409 2.50673ZM270.889 2.17794L271.272 3.49245C276.168 3.42683 281.062 3.42914 285.958 3.49936L286.368 2.18523L286.778 0.871107C281.354 0.793308 275.929 0.790752 270.505 0.863441L270.889 2.17794ZM286.368 2.18523L285.958 3.49936C291.117 3.57338 296.277 3.6474 301.437 3.72145L301.847 2.40733L302.258 1.0932C297.098 1.01916 291.938 0.945126 286.778 0.871107L286.368 2.18523ZM301.847 2.40733L301.437 3.72145C306.728 3.79738 312.019 3.83674 317.311 3.83952L317.327 2.52246L317.342 1.2054C312.314 1.20276 307.286 1.16537 302.258 1.0932L301.847 2.40733ZM317.327 2.52246L317.311 3.83952C323.02 3.84252 328.708 3.68333 334.364 3.36526L332.806 2.09129L331.248 0.817304C326.584 1.07957 321.953 1.20783 317.342 1.2054L317.327 2.52246ZM332.806 2.09129L334.364 3.36526C338.868 3.11197 343.326 3.02816 347.768 3.10859L348.285 1.7962L348.803 0.483804C342.925 0.377365 337.063 0.490264 331.248 0.817304L332.806 2.09129ZM348.285 1.7962L347.768 3.10859C353.517 3.21269 359.26 3.13998 364.98 2.89241L363.765 1.60138L362.549 0.310357C357.949 0.509421 353.373 0.566577 348.803 0.483804L348.285 1.7962ZM363.765 1.60138L364.98 2.89241C368.936 2.7212 372.91 2.79368 377.038 3.13427L379.244 1.90509L381.45 0.67592C375.258 0.164942 368.913 0.0349441 362.549 0.310357L363.765 1.60138ZM379.244 1.90509L377.038 3.13427C383.075 3.63249 389.247 3.8113 395.469 3.64809L394.723 2.34077L393.978 1.03345C389.88 1.14092 385.732 1.02927 381.45 0.67592L379.244 1.90509ZM394.723 2.34077L395.469 3.64809C400.674 3.51156 405.88 3.36239 411.084 3.20059L410.203 1.89715L409.321 0.593713C404.206 0.752716 399.092 0.899292 393.978 1.03345L394.723 2.34077ZM410.203 1.89715L411.084 3.20059C415.799 3.054 420.506 3.01981 425.211 3.09746L425.682 1.78428L426.153 0.471105C420.539 0.378441 414.926 0.419491 409.321 0.593713L410.203 1.89715ZM425.682 1.78428L425.211 3.09746C430.198 3.17978 435.188 3.30748 440.18 3.48067L441.161 2.18052L442.142 0.880352C436.815 0.695555 431.486 0.559108 426.153 0.471105L425.682 1.78428ZM441.161 2.18052L440.18 3.48067C446.057 3.68454 451.945 3.66405 457.81 3.42022L456.641 2.12723L455.472 0.834242C451.017 1.01945 446.585 1.03446 442.142 0.880352L441.161 2.18052ZM456.641 2.12723L457.81 3.42022C462.872 3.20974 467.934 3.02652 472.994 2.87053L472.12 1.56686L471.246 0.263206C465.987 0.425341 460.729 0.615697 455.472 0.834242L456.641 2.12723ZM472.12 1.56686L472.994 2.87053C477.083 2.74446 481.211 2.84017 485.465 3.17821L487.599 1.94321L489.734 0.708199C483.669 0.226318 477.476 0.0711357 471.246 0.263206L472.12 1.56686ZM487.599 1.94321L485.465 3.17821C491.166 3.63115 496.932 3.89564 502.746 3.96317L503.079 2.64804L503.411 1.3329C498.906 1.28058 494.353 1.07519 489.734 0.708199L487.599 1.94321ZM503.079 2.64804L502.746 3.96317C508.295 4.02761 513.842 3.97931 519.381 3.81867L518.558 2.51349L517.735 1.2083C512.955 1.34691 508.182 1.3883 503.411 1.3329L503.079 2.64804ZM518.558 2.51349L519.381 3.81867C524.876 3.65935 530.354 3.40198 535.816 3.04787L534.037 1.78719L532.259 0.526519C527.401 0.841552 522.56 1.06838 517.735 1.2083L518.558 2.51349ZM534.037 1.78719L535.816 3.04787C539.604 2.80223 543.339 2.83542 547.25 3.16846L549.517 1.94441L551.784 0.720342C545.376 0.174636 538.791 0.10302 532.259 0.526519L534.037 1.78719ZM549.517 1.94441L547.25 3.16846C553.166 3.67229 559.203 3.90108 565.307 3.83474L564.996 2.51936L564.685 1.20399C560.47 1.2498 556.187 1.09527 551.784 0.720342L549.517 1.94441ZM564.996 2.51936L565.307 3.83474C571.004 3.77284 576.673 3.55193 582.301 3.17626L580.476 1.91871L578.65 0.661157C573.959 0.97422 569.308 1.15376 564.685 1.20399L564.996 2.51936ZM580.476 1.91871L582.301 3.17626C586.982 2.86388 591.622 2.68758 596.232 2.64293L595.955 1.32721L595.678 0.0114792C589.968 0.0667709 584.289 0.284812 578.65 0.661157L580.476 1.91871ZM595.955 1.32721L596.232 2.64293C600.511 2.60149 604.846 2.75068 609.283 3.10631L611.434 1.87264L613.585 0.638965C607.703 0.167413 601.718 -0.0470222 595.678 0.0114792L595.955 1.32721ZM611.434 1.87264L609.283 3.10631C615.599 3.61249 622.061 3.69104 628.498 3.32336L626.914 2.05072L625.329 0.778082C621.447 1.00015 617.589 0.959982 613.585 0.638965L611.434 1.87264ZM626.914 2.05072L628.498 3.32336C632.645 3.08615 636.742 3.08079 640.882 3.30603L642.393 2.0294L643.904 0.752781C637.725 0.416698 631.502 0.42555 625.329 0.778082L626.914 2.05072ZM642.393 2.0294L640.882 3.30603C646.422 3.60744 651.988 3.78916 657.565 3.84944L657.872 2.53405L658.179 1.21865C653.437 1.16739 648.683 1.01269 643.904 0.752781L642.393 2.0294ZM657.872 2.53405L657.565 3.84944C663.573 3.91442 669.537 3.71609 675.409 3.26801L673.352 2.02716L671.294 0.786314C666.847 1.12563 662.492 1.26521 658.179 1.21865L657.872 2.53405ZM673.352 2.02716L675.409 3.26801C679.826 2.93119 684.144 2.80119 688.413 2.8634L688.831 1.54937L689.249 0.235337C683.198 0.147217 677.197 0.335738 671.294 0.786314L673.352 2.02716ZM688.831 1.54937L688.413 2.8634C693.647 2.93961 698.874 2.99622 704.108 3.03323L704.31 1.71687L704.513 0.400527C699.427 0.364534 694.335 0.309472 689.249 0.235337L688.831 1.54937ZM704.31 1.71687L704.108 3.03323C709.353 3.07034 714.599 3.08353 719.851 3.07278L719.79 1.75578L719.728 0.438772C714.661 0.449158 709.587 0.436411 704.513 0.400527L704.31 1.71687ZM719.79 1.75578L719.851 3.07278C724.894 3.06245 729.937 3.08276 734.98 3.13371L735.269 1.8181L735.558 0.502492C730.281 0.449211 725.005 0.427969 719.728 0.438772L719.79 1.75578ZM735.269 1.8181L734.98 3.13371C739.894 3.18331 744.808 3.29676 749.729 3.47431L750.748 2.1755L751.768 0.876691C746.369 0.681937 740.963 0.557106 735.558 0.502492L735.269 1.8181ZM750.748 2.1755L749.729 3.47431C755.662 3.68834 761.602 3.65841 767.518 3.38638L766.228 2.09862L764.938 0.810877C760.533 1.01367 756.154 1.03499 751.768 0.876691L750.748 2.1755ZM766.228 2.09862L767.518 3.38638C771.946 3.18254 776.345 3.15596 780.755 3.30456L781.707 2.00348L782.659 0.702404C776.75 0.503038 770.828 0.539898 764.938 0.810877L766.228 2.09862ZM781.707 2.00348L780.755 3.30456C786.246 3.48987 791.756 3.57549 797.26 3.5609L797.186 2.24394L797.113 0.926977C792.297 0.939713 787.487 0.865022 782.659 0.702404L781.707 2.00348ZM797.186 2.24394L797.26 3.5609C802.512 3.54699 807.764 3.50777 813.016 3.44322L812.666 2.12831L812.316 0.813406C807.248 0.875703 802.18 0.913556 797.113 0.926977L797.186 2.24394ZM812.666 2.12831L813.016 3.44322C817.801 3.38445 822.58 3.42015 827.371 3.55065L828.145 2.24409L828.919 0.937539C823.391 0.786828 817.85 0.74534 812.316 0.813406L812.666 2.12831ZM828.145 2.24409L827.371 3.55065C833.274 3.71159 839.177 3.64115 845.043 3.34307L843.624 2.06154L842.205 0.779992C837.752 1.00655 833.336 1.05781 828.919 0.937539L828.145 2.24409ZM843.624 2.06154L845.043 3.34307C849.835 3.09934 854.614 2.95557 859.374 2.91034L859.104 1.59457L858.833 0.278792C853.274 0.331542 847.734 0.499075 842.205 0.779992L843.624 2.06154ZM859.104 1.59457L859.374 2.91034C863.668 2.86957 868.017 3.01701 872.464 3.36751L874.583 2.13139L876.702 0.895262C870.83 0.432031 864.859 0.221585 858.833 0.278792L859.104 1.59457ZM874.583 2.13139L872.464 3.36751C878.398 3.83557 884.442 4.02759 890.535 3.92662L890.062 2.61347L889.589 1.30031C885.363 1.37031 881.088 1.24095 876.702 0.895262L874.583 2.13139ZM890.062 2.61347L890.535 3.92662C896.058 3.83511 901.568 3.63841 907.059 3.33777L905.542 2.06163L904.025 0.785484C899.197 1.04965 894.387 1.22084 889.589 1.30031L890.062 2.61347ZM905.542 2.06163L907.059 3.33777C911.242 3.10891 915.376 3.10517 919.553 3.3258L921.021 2.047L922.489 0.768191C916.347 0.443537 910.161 0.449557 904.025 0.785484L905.542 2.06163ZM921.021 2.047L919.553 3.3258C925.309 3.62995 931.101 3.74263 936.906 3.65991L936.501 2.34575L936.095 1.03158C931.58 1.09582 927.053 1.00933 922.489 0.768191L921.021 2.047ZM936.501 2.34575L936.906 3.65991C942.225 3.58418 947.545 3.46411 952.858 3.29979L951.98 1.99621L951.102 0.692618C946.095 0.847386 941.095 0.960351 936.095 1.03158L936.501 2.34575ZM951.98 1.99621L952.858 3.29979C957.275 3.16321 961.685 3.19887 966.132 3.40945L967.459 2.12337L968.786 0.837284C962.914 0.559215 957.005 0.51011 951.102 0.692618L951.98 1.99621ZM967.459 2.12337L966.132 3.40945C972.306 3.70176 978.504 3.65696 984.628 3.28095L982.939 2.01475L981.249 0.748554C977.054 1.00601 972.932 1.03363 968.786 0.837284L967.459 2.12337ZM982.939 2.01475L984.628 3.28095C989.265 2.9963 993.86 2.85492 998.436 2.85234L998.418 1.53529L998.399 0.218223C992.656 0.221468 986.931 0.399744 981.249 0.748554L982.939 2.01475ZM998.418 1.53529L998.436 2.85234C1003.29 2.8496 1008.14 2.9245 1013.01 3.0774L1013.9 1.77427L1014.79 0.471146C1009.33 0.29956 1003.87 0.215137 998.399 0.218223L998.418 1.53529ZM1013.9 1.77427L1013.01 3.0774C1018.22 3.24118 1023.42 3.39122 1028.63 3.52751L1029.38 2.22015L1030.12 0.912779C1025.01 0.779057 1019.9 0.631849 1014.79 0.471146L1013.9 1.77427ZM1029.38 2.22015L1028.63 3.52751C1034.54 3.68196 1040.43 3.60644 1046.29 3.30491L1044.86 2.02424L1043.42 0.743562C1038.96 0.973271 1034.54 1.02835 1030.12 0.912779L1029.38 2.22015ZM1044.86 2.02424L1046.29 3.30491C1050.48 3.08935 1054.63 3.09522 1058.82 3.32371L1060.34 2.04714L1061.85 0.770575C1055.72 0.437298 1049.56 0.42791 1043.42 0.743562L1044.86 2.02424ZM1060.34 2.04714L1058.82 3.32371C1064.43 3.62886 1070.06 3.79292 1075.71 3.81343L1075.81 2.49656L1075.92 1.17968C1071.25 1.16273 1066.56 1.02719 1061.85 0.770575L1060.34 2.04714ZM1075.81 2.49656L1075.71 3.81343C1081.69 3.83512 1087.6 3.60726 1093.43 3.14329L1091.29 1.90857L1089.16 0.673847C1084.67 1.03134 1080.26 1.19546 1075.92 1.17968L1075.81 2.49656ZM1091.29 1.90857L1093.43 3.14329C1097.22 2.84187 1100.86 2.84095 1104.65 3.13983L1106.77 1.904L1108.9 0.668173C1102.36 0.151689 1095.69 0.153818 1089.16 0.673847L1091.29 1.90857ZM1106.77 1.904L1104.65 3.13983C1110.42 3.59614 1116.28 3.83681 1122.19 3.85066L1122.25 2.53368L1122.32 1.21669C1117.91 1.20634 1113.44 1.02723 1108.9 0.668173L1106.77 1.904ZM1122.25 2.53368L1122.19 3.85066C1127.79 3.86378 1133.38 3.74868 1138.95 3.50666L1137.73 2.21579L1136.52 0.924922C1131.77 1.13094 1127.04 1.22775 1122.32 1.21669L1122.25 2.53368ZM1137.73 2.21579L1138.95 3.50666C1144.03 3.28602 1149.11 3.0875 1154.19 2.91106L1153.21 1.61094L1152.23 0.310823C1146.99 0.492809 1141.75 0.697517 1136.52 0.924922L1137.73 2.21579ZM1153.21 1.61094L1154.19 2.91106C1158.14 2.77375 1162.16 2.87556 1166.33 3.24821L1168.69 2.03207L1171.05 0.815922C1164.91 0.268649 1158.6 0.0896958 1152.23 0.310823L1153.21 1.61094ZM1168.69 2.03207L1166.33 3.24821C1172.57 3.80384 1178.99 3.95266 1185.44 3.6619L1184.17 2.37302L1182.9 1.08416C1179.03 1.25872 1175.13 1.18022 1171.05 0.815922L1168.69 2.03207ZM1184.17 2.37302L1185.44 3.6619C1190.21 3.44646 1194.97 3.33291 1199.73 3.32007L1199.65 2.00311L1199.57 0.686151C1194 0.701192 1188.45 0.834268 1182.9 1.08416L1184.17 2.37302ZM1199.65 2.00311L1199.73 3.32007C1205.26 3.30511 1210.79 3.18167 1216.31 2.95069L1215.13 1.65805L1213.95 0.365412C1209.15 0.566605 1204.35 0.673218 1199.57 0.686151L1199.65 2.00311ZM1215.13 1.65805L1216.31 2.95069C1220.67 2.76805 1225.01 2.77257 1229.37 2.96471L1230.61 1.67454L1231.84 0.384375C1225.89 0.122347 1219.91 0.115875 1213.95 0.365412L1215.13 1.65805ZM1230.61 1.67454L1229.37 2.96471C1234.69 3.19895 1240.02 3.38516 1245.35 3.52316L1246.09 2.21561L1246.82 0.908037C1241.83 0.778807 1236.84 0.604297 1231.84 0.384375L1230.61 1.67454ZM1246.09 2.21561L1245.35 3.52316C1251.44 3.68103 1257.51 3.54223 1263.49 3.11978L1261.57 1.86894L1259.64 0.618096C1255.3 0.925106 1251.05 1.01742 1246.82 0.908037L1246.09 2.21561ZM1261.57 1.86894L1263.49 3.11978C1267.65 2.82553 1271.71 2.77674 1275.78 2.96071L1277.05 1.67203L1278.31 0.383334C1272.06 0.10039 1265.8 0.182886 1259.64 0.618096L1261.57 1.86894ZM1277.05 1.67203L1275.78 2.96071C1281.63 3.22537 1287.51 3.27017 1293.38 3.09292L1292.53 1.78869L1291.67 0.484479C1287.22 0.618562 1282.78 0.585575 1278.31 0.383334L1277.05 1.67203ZM1292.53 1.78869L1293.38 3.09292C1297.78 2.9602 1302.18 3.00259 1306.62 3.22348L1308 1.94055L1309.39 0.657616C1303.51 0.364692 1297.59 0.305859 1291.67 0.484479L1292.53 1.78869ZM1308 1.94055L1306.62 3.22348C1312.78 3.53051 1318.98 3.5009 1325.12 3.13855L1323.48 1.86878L1321.85 0.59901C1317.67 0.846148 1313.55 0.864376 1309.39 0.657616L1308 1.94055ZM1323.48 1.86878L1325.12 3.13855C1329.62 2.87261 1334.07 2.77839 1338.5 2.84989L1338.96 1.53654L1339.42 0.223193C1333.54 0.128198 1327.67 0.255472 1321.85 0.59901L1323.48 1.86878ZM1338.96 1.53654L1338.5 2.84989C1343.15 2.92496 1347.83 3.12389 1352.56 3.45062L1354.44 2.19727L1356.33 0.94394C1350.73 0.556188 1345.09 0.314635 1339.42 0.223193L1338.96 1.53654ZM1354.44 2.19727L1352.56 3.45062C1358.83 3.88478 1365.2 3.92319 1371.52 3.55837L1369.92 2.28656L1368.33 1.01473C1364.33 1.24535 1360.38 1.22425 1356.33 0.94394L1354.44 2.19727ZM1369.92 2.28656L1371.52 3.55837C1375.94 3.30352 1380.3 3.23667 1384.65 3.35169L1385.4 2.04452L1386.15 0.737346C1380.19 0.579627 1374.23 0.674142 1368.33 1.01473L1369.92 2.28656ZM1385.4 2.04452L1384.65 3.35169C1390.05 3.49441 1395.45 3.56801 1400.86 3.57233L1400.88 2.25528L1400.91 0.938224C1395.99 0.934286 1391.07 0.867379 1386.15 0.737346L1385.4 2.04452ZM1400.88 2.25528L1400.86 3.57233C1405.85 3.57633 1410.84 3.62473 1415.83 3.7176L1416.36 2.40547L1416.89 1.09334C1411.56 0.994213 1406.23 0.942492 1400.91 0.938224L1400.88 2.25528ZM1416.36 2.40547L1415.83 3.7176C1421.72 3.82727 1427.6 3.71185 1433.43 3.37697L1431.84 2.10479L1430.25 0.832596C1425.76 1.09064 1421.32 1.17566 1416.89 1.09334L1416.36 2.40547ZM1431.84 2.10479L1433.43 3.37697C1437.98 3.11525 1442.5 3.013 1446.99 3.06521L1447.32 1.75006L1447.65 0.434933C1441.82 0.367175 1436.02 0.501391 1430.25 0.832596L1431.84 2.10479ZM1447.32 1.75006L1446.99 3.06521C1451.89 3.12217 1456.79 3.24587 1461.7 3.43667L1462.8 2.14069L1463.89 0.844726C1458.49 0.634642 1453.07 0.497931 1447.65 0.434933L1447.32 1.75006ZM1462.8 2.14069L1461.7 3.43667C1467.87 3.67606 1474.03 3.58817 1480.1 3.18356L1478.28 1.92579L1476.45 0.668027C1472.21 0.950829 1468.05 1.00621 1463.89 0.844726L1462.8 2.14069ZM1478.28 1.92579L1480.1 3.18356C1484.05 2.92067 1487.91 2.9252 1491.87 3.19918L1493.76 1.94577L1495.64 0.692341C1489.29 0.252276 1482.83 0.243488 1476.45 0.668027L1478.28 1.92579ZM1493.76 1.94577L1491.87 3.19918C1497.75 3.60587 1503.7 3.76695 1509.69 3.67186L1509.24 2.35839L1508.78 1.04493C1504.45 1.11371 1500.08 0.999692 1495.64 0.692341L1493.76 1.94577ZM1509.24 2.35839L1509.69 3.67186C1515.29 3.58296 1520.87 3.36539 1526.42 3.02157L1524.72 1.75621L1523.01 0.490866C1518.24 0.786077 1513.51 0.969966 1508.78 1.04493L1509.24 2.35839ZM1524.72 1.75621L1526.42 3.02157C1530.19 2.78784 1533.94 2.83045 1537.87 3.17617L1540.2 1.95763L1542.52 0.739084C1536.13 0.177217 1529.56 0.0855549 1523.01 0.490866L1524.72 1.75621ZM1540.2 1.95763L1537.87 3.17617C1543.99 3.71478 1550.28 3.89274 1556.63 3.68L1555.67 2.37875L1554.72 1.0775C1550.75 1.21084 1546.72 1.10806 1542.52 0.739084L1540.2 1.95763ZM1555.67 2.37875L1556.63 3.68C1561.28 3.52372 1565.93 3.49266 1570.58 3.5861L1571.15 2.2748L1571.73 0.963472C1566.06 0.849467 1560.39 0.887715 1554.72 1.0775L1555.67 2.37875ZM1571.15 2.2748L1570.58 3.5861C1576.1 3.69712 1581.63 3.70269 1587.15 3.60279L1586.63 2.29039L1586.12 0.977986C1581.32 1.06475 1576.52 1.05993 1571.73 0.963472L1571.15 2.2748ZM1586.63 2.29039L1587.15 3.60279C1592.04 3.51421 1596.94 3.49352 1601.84 3.54065L1602.11 2.22492L1602.39 0.909183C1596.96 0.856935 1591.54 0.879891 1586.12 0.977986L1586.63 2.29039ZM1602.11 2.22492L1601.84 3.54065C1607.16 3.59189 1612.47 3.59841 1617.79 3.5602L1617.59 2.24387L1617.39 0.927543C1612.39 0.963446 1607.39 0.957322 1602.39 0.909183L1602.11 2.22492ZM1617.59 2.24387L1617.79 3.5602C1623.43 3.51971 1629.05 3.33929 1634.64 3.02144L1633.07 1.74835L1631.5 0.475264C1626.77 0.74401 1622.07 0.893918 1617.39 0.927543L1617.59 2.24387ZM1633.07 1.74835L1634.64 3.02144C1638.94 2.77724 1643.18 2.74214 1647.43 2.91106L1648.55 1.61606L1649.67 0.321063C1643.6 0.0797849 1637.52 0.132881 1631.5 0.475264L1633.07 1.74835ZM1648.55 1.61606L1647.43 2.91106C1653.11 3.13693 1658.81 3.20179 1664.52 3.1042L1664.03 1.79131L1663.54 0.478417C1658.93 0.557365 1654.31 0.505385 1649.67 0.321063L1648.55 1.61606ZM1664.03 1.79131L1664.52 3.1042C1669.53 3.01846 1674.54 2.97173 1679.55 2.964L1679.51 1.64696L1679.47 0.329938C1674.16 0.338129 1668.85 0.387629 1663.54 0.478417L1664.03 1.79131ZM1679.51 1.64696L1679.55 2.964C1684.34 2.95661 1689.13 3.04289 1693.93 3.22356L1694.99 1.92633L1696.05 0.629092C1690.53 0.42136 1685 0.321397 1679.47 0.329938L1679.51 1.64696ZM1694.99 1.92633L1693.93 3.22356C1699.47 3.43201 1705.01 3.52663 1710.57 3.50658L1710.47 2.1897L1710.36 0.872819C1705.6 0.890007 1700.83 0.809033 1696.05 0.629092L1694.99 1.92633ZM1710.47 2.1897L1710.57 3.50658C1715.84 3.48758 1721.11 3.43828 1726.38 3.35871L1725.95 2.0449L1725.52 0.731089C1720.46 0.807361 1715.41 0.854604 1710.36 0.872819L1710.47 2.1897ZM1725.95 2.0449L1726.38 3.35871C1731.73 3.27785 1737.09 3.14169 1742.43 2.95041L1741.43 1.65128L1740.42 0.352159C1735.44 0.52988 1730.48 0.656142 1725.52 0.731089L1725.95 2.0449ZM1741.43 1.65128L1742.43 2.95041C1747.33 2.77556 1752.21 2.67272 1757.09 2.64152L1756.91 1.32505L1756.72 0.00856323C1751.28 0.0433522 1745.84 0.158005 1740.42 0.352159L1741.43 1.65128ZM1756.91 1.32505L1757.09 2.64152C1761.87 2.61096 1766.65 2.67512 1771.45 2.83455L1772.39 1.53305L1773.33 0.231563C1767.8 0.0476617 1762.26 -0.0268632 1756.72 0.00856323L1756.91 1.32505ZM1772.39 1.53305L1771.45 2.83455C1777.13 3.02367 1782.82 3.05315 1788.52 2.92237L1787.86 1.6128L1787.21 0.303228C1782.59 0.409448 1777.96 0.385769 1773.33 0.231563L1772.39 1.53305ZM1787.86 1.6128L1788.52 2.92237C1793.18 2.81519 1797.85 2.82903 1802.52 2.9642L1803.34 1.65896L1804.17 0.353723C1798.52 0.190342 1792.86 0.173415 1787.21 0.303228L1787.86 1.6128ZM1803.34 1.65896L1802.52 2.9642C1808.19 3.12825 1813.87 3.1383 1819.55 2.99415L1818.82 1.68624L1818.1 0.378319C1813.45 0.496344 1808.82 0.488211 1804.17 0.353723L1803.34 1.65896ZM1818.82 1.68624L1819.55 2.99415C1824.45 2.86961 1829.35 2.81249 1834.24 2.8226L1834.3 1.5056L1834.36 0.188599C1828.94 0.177385 1823.52 0.240679 1818.1 0.378319L1818.82 1.68624ZM1834.3 1.5056L1834.24 2.8226C1839.42 2.83331 1844.6 2.83946 1849.78 2.84105L1849.78 1.52399L1849.79 0.20692C1844.65 0.205343 1839.51 0.199237 1834.36 0.188599L1834.3 1.5056ZM1849.78 1.52399L1849.78 2.84105C1854.27 2.84242 1858.79 2.99825 1863.38 3.3157L1865.26 2.06239L1867.15 0.809086C1861.42 0.411828 1855.62 0.208707 1849.79 0.20692L1849.78 1.52399ZM1865.26 2.06239L1863.38 3.3157C1869.77 3.75872 1876.26 3.75557 1882.65 3.30706L1880.74 2.05532L1878.83 0.803581C1874.9 1.0792 1871.07 1.08078 1867.15 0.809086L1865.26 2.06239ZM1880.74 2.05532L1882.65 3.30706C1886.71 3.0228 1890.65 2.99871 1894.64 3.2262L1896.22 1.95334L1897.8 0.680461C1891.47 0.319811 1885.1 0.363727 1878.83 0.803581L1880.74 2.05532ZM1896.22 1.95334L1894.64 3.2262C1900.68 3.57033 1906.77 3.61964 1912.86 3.3692L1911.7 2.07576L1910.54 0.782336C1906.31 0.956795 1902.08 0.924474 1897.8 0.680461L1896.22 1.95334ZM1911.7 2.07576L1912.86 3.3692C1917.79 3.1662 1922.71 3.02589 1927.63 2.94797L1927.18 1.63449L1926.72 0.321C1921.32 0.406543 1915.93 0.560423 1910.54 0.782336L1911.7 2.07576ZM1927.18 1.63449L1927.63 2.94797C1932.09 2.87726 1936.58 2.96648 1941.1 3.22062L1942.66 1.94652L1944.21 0.672431C1938.42 0.347046 1932.58 0.228242 1926.72 0.321L1927.18 1.63449ZM1942.66 1.94652L1941.1 3.22062C1946.57 3.52759 1952.05 3.73884 1957.54 3.85332L1958.14 2.54244L1958.73 1.23155C1953.91 1.13099 1949.06 0.944968 1944.21 0.672431L1942.66 1.94652ZM1958.14 2.54244L1957.54 3.85332C1963.28 3.97289 1969.02 3.91864 1974.73 3.692L1973.62 2.39689L1972.5 1.10178C1967.9 1.28423 1963.32 1.32702 1958.73 1.23155L1958.14 2.54244ZM1973.62 2.39689L1974.73 3.692C1979.75 3.49332 1984.75 3.33553 1989.76 3.21855L1989.1 1.90924L1988.43 0.599927C1983.12 0.724043 1977.81 0.891363 1972.5 1.10178L1973.62 2.39689ZM1989.1 1.90924L1989.76 3.21855C1994.96 3.09724 2000.15 2.96669 2005.34 2.82691L2004.58 1.5201L2003.81 0.213293C1998.68 0.351281 1993.56 0.480158 1988.43 0.599927L1989.1 1.90924ZM2004.58 1.5201L2005.34 2.82691C2009.54 2.71372 2013.78 2.80522 2018.11 3.11511L2020.05 1.86583L2022 0.616551C2016.01 0.187717 2009.93 0.0487298 2003.81 0.213293L2004.58 1.5201ZM2020.05 1.86583L2018.11 3.11511C2024.45 3.56861 2030.89 3.59776 2037.27 3.19595L2035.53 1.93229L2033.8 0.668646C2029.86 0.91694 2025.98 0.901781 2022 0.616551L2020.05 1.86583ZM2035.53 1.93229L2037.27 3.19595C2041.17 2.95009 2045.01 2.97146 2048.98 3.27023L2051.01 2.02758L2053.05 0.784944C2046.7 0.306564 2040.22 0.264395 2033.8 0.668646L2035.53 1.93229ZM2051.01 2.02758L2048.98 3.27023C2055.06 3.72851 2061.27 3.8568 2067.49 3.63788L2066.49 2.33819L2065.5 1.03849C2061.4 1.18259 2057.29 1.10382 2053.05 0.784944L2051.01 2.02758ZM2066.49 2.33819L2067.49 3.63788C2072.16 3.47356 2076.82 3.43259 2081.47 3.51407L2081.97 2.20137L2082.47 0.888663C2076.81 0.789554 2071.15 0.8398 2065.5 1.03849L2066.49 2.33819ZM2081.97 2.20137L2081.47 3.51407C2087.03 3.61129 2092.59 3.59307 2098.13 3.45956L2097.45 2.1507L2096.77 0.841841C2092 0.956492 2087.24 0.972047 2082.47 0.888663L2081.97 2.20137ZM2097.45 2.1507L2098.13 3.45956C2102.7 3.34989 2107.26 3.38325 2111.84 3.56091L2112.93 2.2649L2114.02 0.968886C2108.28 0.746143 2102.53 0.703378 2096.77 0.841841L2097.45 2.1507ZM2112.93 2.2649L2111.84 3.56091C2118.12 3.8044 2124.37 3.6791 2130.5 3.20427L2128.41 1.96559L2126.32 0.726901C2122.13 1.05156 2118.07 1.1258 2114.02 0.968886L2112.93 2.2649ZM2128.41 1.96559L2130.5 3.20427C2135.06 2.85102 2139.54 2.67243 2143.98 2.65838L2143.89 1.34146L2143.8 0.0245379C2137.92 0.0431744 2132.08 0.280673 2126.32 0.726901L2128.41 1.96559ZM2143.89 1.34146L2143.98 2.65838C2149.03 2.64237 2154.08 2.65528 2159.13 2.69707L2159.37 1.381L2159.61 0.0649046C2154.34 0.0213019 2149.07 0.0078454 2143.8 0.0245379L2143.89 1.34146ZM2159.37 1.381L2159.13 2.69707C2164.27 2.73959 2169.41 2.78837 2174.54 2.84343L2174.85 1.52801L2175.16 0.212585C2169.97 0.157023 2164.79 0.107796 2159.61 0.0649046L2159.37 1.381ZM2174.85 1.52801L2174.54 2.84343C2179.46 2.89613 2184.38 3.01157 2189.3 3.19002L2190.33 1.89137L2191.35 0.592715C2185.95 0.397303 2180.56 0.270505 2175.16 0.212585L2174.85 1.52801ZM2190.33 1.89137L2189.3 3.19002C2195.26 3.40572 2201.22 3.37 2207.15 3.08525L2205.81 1.80003L2204.46 0.514819C2200.08 0.725716 2195.71 0.750885 2191.35 0.592715L2190.33 1.89137ZM2205.81 1.80003L2207.15 3.08525C2211.78 2.86258 2216.4 2.77603 2220.99 2.82309L2221.29 1.50753L2221.58 0.191954C2215.86 0.133387 2210.15 0.241844 2204.46 0.514819L2205.81 1.80003ZM2221.29 1.50753L2220.99 2.82309C2226.24 2.87675 2231.48 2.90767 2236.72 2.91588L2236.77 1.59884L2236.81 0.281813C2231.73 0.273876 2226.65 0.243924 2221.58 0.191954L2221.29 1.50753ZM2236.77 1.59884L2236.72 2.91588C2241.6 2.9235 2246.49 3.00207 2251.38 3.15183L2252.25 1.848L2253.11 0.544164C2247.68 0.377856 2242.25 0.290315 2236.81 0.281813L2236.77 1.59884ZM2252.25 1.848L2251.38 3.15183C2257.15 3.32883 2262.94 3.31588 2268.71 3.11344L2267.72 1.81364L2266.74 0.513843C2262.18 0.673265 2257.66 0.683227 2253.11 0.544164L2252.25 1.848ZM2267.72 1.81364L2268.71 3.11344C2273 2.96307 2277.29 3.00832 2281.63 3.25476L2283.2 1.98155L2284.78 0.708331C2278.8 0.36902 2272.77 0.302336 2266.74 0.513843L2267.72 1.81364ZM2283.2 1.98155L2281.63 3.25476C2287.98 3.61504 2294.36 3.56341 2300.64 3.11037L2298.68 1.86215L2296.72 0.613918C2292.68 0.905811 2288.75 0.933786 2284.78 0.708331L2283.2 1.98155ZM2298.68 1.86215L2300.64 3.11037C2305.15 2.78483 2309.59 2.64078 2313.98 2.66818L2314.16 1.35166L2314.34 0.0351548C2308.42 -0.00177174 2302.53 0.194497 2296.72 0.613918L2298.68 1.86215ZM2314.16 1.35166L2313.98 2.66818C2318.84 2.69843 2323.7 2.80613 2328.57 2.99177L2329.64 1.69505L2330.72 0.398336C2325.27 0.190439 2319.81 0.0692168 2314.34 0.0351548L2314.16 1.35166ZM2329.64 1.69505L2328.57 2.99177C2334.54 3.21957 2340.53 3.18802 2346.48 2.8994L2345.12 1.61479L2343.76 0.330188C2339.4 0.542108 2335.07 0.564071 2330.72 0.398336L2329.64 1.69505ZM2345.12 1.61479L2346.48 2.8994C2350.91 2.68423 2355.31 2.64676 2359.72 2.78405L2360.6 1.48068L2361.49 0.177329C2355.57 -0.00712568 2349.65 0.0448102 2343.76 0.330188L2345.12 1.61479ZM2360.6 1.48068L2359.72 2.78405C2365.23 2.95592 2370.75 3.02351 2376.27 2.98638L2376.08 1.66996L2375.89 0.353538C2371.09 0.385784 2366.29 0.327199 2361.49 0.177329L2360.6 1.48068ZM2376.08 1.66996L2376.27 2.98638C2381 2.95457 2385.74 3.02829 2390.49 3.20848L2391.56 1.91156L2392.63 0.61464C2387.06 0.403313 2381.48 0.315964 2375.89 0.353538L2376.08 1.66996ZM2391.56 1.91156L2390.49 3.20848C2395.67 3.40503 2400.85 3.59559 2406.03 3.78014L2407.04 2.48088L2408.05 1.18162C2402.9 0.998585 2397.77 0.8096 2392.63 0.61464L2391.56 1.91156ZM2407.04 2.48088L2406.03 3.78014C2412.41 4.00746 2418.75 3.82816 2424.9 3.27513L2422.52 2.06056L2420.14 0.84599C2415.97 1.22096 2411.98 1.32186 2408.05 1.18162L2407.04 2.48088ZM2422.52 2.06056L2424.9 3.27513C2428.56 2.9451 2432.04 2.94123 2435.69 3.25892L2438 2.03868L2440.31 0.81845C2433.64 0.237311 2426.79 0.248027 2420.14 0.84599L2422.52 2.06056ZM2438 2.03868L2435.69 3.25892C2441.89 3.7994 2448.27 3.94728 2454.68 3.67253L2453.48 2.38103L2452.27 1.08952C2448.36 1.25713 2444.42 1.17677 2440.31 0.81845L2438 2.03868ZM2453.48 2.38103L2454.68 3.67253C2459.29 3.47496 2463.88 3.41706 2468.46 3.49695L2468.96 2.18422L2469.45 0.871489C2463.72 0.771418 2457.99 0.844726 2452.27 1.08952L2453.48 2.38103ZM2468.96 2.18422L2468.46 3.49695C2474.23 3.59751 2479.98 3.51555 2485.72 3.25349L2484.44 1.96538L2483.15 0.677261C2478.57 0.886938 2474.01 0.950881 2469.45 0.871489L2468.96 2.18422ZM2484.44 1.96538L2485.72 3.25349C2489.75 3.06918 2493.78 3.12201 2497.92 3.42711L2499.91 2.18145L2501.91 0.935788C2495.73 0.481047 2489.44 0.389825 2483.15 0.677261L2484.44 1.96538ZM2499.91 2.18145L2497.92 3.42711C2504.2 3.88968 2510.6 3.94656 2516.97 3.58589L2515.39 2.31258L2513.82 1.03927C2509.87 1.26361 2505.95 1.23308 2501.91 0.935788L2499.91 2.18145ZM2515.39 2.31258L2516.97 3.58589C2521.1 3.35148 2525.18 3.35068 2529.31 3.58326L2530.87 2.30934L2532.43 1.03541C2526.25 0.68731 2520.01 0.688667 2513.82 1.03927L2515.39 2.31258ZM2530.87 2.30934L2529.31 3.58326C2535.05 3.90601 2540.82 4.04253 2546.62 3.98849L2546.35 2.67267L2546.09 1.35685C2541.56 1.39905 2537.02 1.29336 2532.43 1.03541L2530.87 2.30934ZM2546.35 2.67267L2546.62 3.98849C2552.45 3.93414 2558.23 3.6785 2563.94 3.23034L2561.83 1.99343L2559.72 0.756522C2555.12 1.11777 2550.58 1.31497 2546.09 1.35685L2546.35 2.67267ZM2561.83 1.99343L2563.94 3.23034C2568.3 2.88864 2572.54 2.76837 2576.74 2.85201L2577.31 1.5406L2577.88 0.229178C2571.76 0.107205 2565.68 0.28882 2559.72 0.756522L2561.83 1.99343ZM2577.31 1.5406L2576.74 2.85201C2582.18 2.96035 2587.62 2.98884 2593.06 2.93737L2592.79 1.62158L2592.52 0.305801C2587.64 0.351958 2582.76 0.326447 2577.88 0.229178L2577.31 1.5406ZM2592.79 1.62158L2593.06 2.93737C2597.64 2.89405 2602.23 2.98796 2606.86 3.22208L2608.27 1.94027L2609.68 0.658465C2603.99 0.370046 2598.26 0.251497 2592.52 0.305801L2592.79 1.62158ZM2608.27 1.94027L2606.86 3.22208C2609.49 3.35539 2611.71 3.4522 2613.39 3.49826C2614.19 3.52009 2615.16 3.53948 2616.11 3.52698C2616.56 3.52102 2617.36 3.5041 2618.25 3.43601C2619.04 3.37497 2620.91 3.1935 2621.94 2.71953L2616.38 2.16277L2610.81 1.606C2611.78 1.16026 2613.52 1.00118 2614.09 0.956676C2614.77 0.905126 2615.27 0.898923 2615.36 0.89779C2615.57 0.894985 2615.5 0.900675 2614.95 0.885436C2613.92 0.857343 2612.21 0.786419 2609.68 0.658465L2608.27 1.94027ZM2616.38 2.16277L2622.24 1.77168L2622 1.60226L2616.13 1.99335L2610.27 2.38444L2610.51 2.55385L2616.38 2.16277ZM2616.13 1.99335V3.31042H2616.75V1.99335V0.676286H2616.13V1.99335Z" fill="black"/>
</g>
<defs>
<clipPath id="clip0_11_1502">
<rect width="1600" height="4" fill="white"/>
</clipPath>
</defs>
</svg>
