<svg width="200" height="28" viewBox="0 0 200 28" fill="none" xmlns="http://www.w3.org/2000/svg">
<g clip-path="url(#clip0_4_1503)">
<path d="M155.57 0.437494L155.856 0.460932C156.031 0.47202 156.207 0.471697 156.381 0.468744H156.667L156.953 0.460932C157.278 0.45535 157.592 0.557675 157.878 0.742182L158.164 0.929682L158.45 1.10937C158.589 1.19876 158.72 1.26109 158.844 1.29687L159.131 1.3828L159.417 1.46093C159.444 1.46875 159.476 1.46776 159.53 1.43749L160.102 1.12499C160.432 0.942713 160.789 0.892109 161.147 0.999994L161.719 1.17187C161.907 1.22883 162.097 1.28907 162.285 1.34374L162.572 1.42187L162.858 1.5078C162.976 1.54177 163.091 1.55078 163.204 1.53905L163.49 1.5078L163.776 1.48437C163.834 1.47828 163.915 1.44938 164.021 1.36718L164.307 1.14061L164.593 0.921869C164.945 0.650036 165.355 0.552868 165.774 0.718744L166.06 0.828119L166.347 0.945306C166.492 1.00282 166.637 1.03658 166.776 1.05468L167.349 1.1328C167.379 1.13621 167.424 1.13391 167.498 1.08593L167.784 0.890619L168.07 0.703119C168.409 0.478728 168.789 0.40573 169.173 0.531244L169.746 0.718744C169.981 0.795613 170.215 0.899474 170.444 1.03124L171.016 1.35937C171.039 1.37236 171.05 1.37477 171.052 1.37499C171.054 1.37517 171.059 1.37901 171.07 1.37499L171.643 1.15624C171.964 1.03635 172.297 1.03671 172.621 1.14843L172.907 1.24218L173.193 1.34374C173.303 1.38124 173.407 1.39298 173.509 1.3828L173.795 1.35155L174.082 1.32811C174.277 1.30833 174.476 1.2881 174.672 1.27343L175.244 1.22655C175.454 1.21092 175.667 1.20553 175.876 1.21093L176.449 1.22655C176.537 1.22832 176.63 1.20803 176.735 1.15624L177.308 0.874994L177.6 0.773432C177.892 0.711112 178.189 0.765519 178.465 0.929682L178.751 1.10155L178.954 1.22655L179.181 1.04687L179.467 0.812494C179.756 0.581963 180.086 0.438647 180.439 0.437494H181.011C181.279 0.436869 181.546 0.492674 181.805 0.593744L182.377 0.812494C182.52 0.868009 182.658 0.906553 182.795 0.921869L183.94 1.04687L184.226 1.08593L184.512 1.11718C184.657 1.13371 184.802 1.13486 184.947 1.11718L185.234 1.07811L185.52 1.04687C185.79 1.01382 186.06 1.03334 186.325 1.10937L186.611 1.1953L186.898 1.27343C187.015 1.30714 187.131 1.31675 187.244 1.30468L187.816 1.24218C187.956 1.22683 188.101 1.19398 188.246 1.14061L188.532 1.03905L188.818 0.929682C189.18 0.796238 189.549 0.831318 189.892 1.02343L190.172 1.17968L190.446 1.33593C190.579 1.41025 190.705 1.45217 190.822 1.47655L191.096 1.53905L191.37 1.59374C191.553 1.63177 191.738 1.67292 191.925 1.71093L192.211 1.76561L192.492 1.82811C192.673 1.86504 192.863 1.89648 193.058 1.92968L193.363 1.98437L193.666 2.03124C194.056 2.0981 194.397 2.34089 194.65 2.73437L195.044 3.34374C195.202 3.58715 195.339 3.84731 195.462 4.11718L195.617 4.45311L195.766 4.78124C195.782 4.81589 195.801 4.84309 195.844 4.86718L196.124 5.02343L196.404 5.18749C196.67 5.33702 196.897 5.56677 197.06 5.87499L197.203 6.20311L197.322 6.55468L197.436 6.90624C197.51 7.12658 197.586 7.33974 197.663 7.54687L197.788 7.8828L197.907 8.21093C198.01 8.49103 198.093 8.78486 198.151 9.08593L198.217 9.43749L198.289 9.78905C198.326 9.98603 198.371 10.1789 198.426 10.3672L198.521 10.7109L198.622 11.0469C198.663 11.1881 198.727 11.3483 198.819 11.5234L199.177 12.2109C199.418 12.674 199.502 13.2291 199.374 13.7891L199.284 14.1719L199.201 14.5547C199.182 14.6389 199.179 14.7179 199.195 14.8125L199.26 15.2109L199.326 15.6016C199.417 16.1248 199.346 16.6423 199.124 17.0938L198.963 17.4297L198.795 17.7734C198.71 17.9475 198.642 18.1169 198.592 18.2812L198.485 18.625L198.384 18.9688C198.297 19.2577 198.189 19.5351 198.062 19.7969L197.907 20.1094L197.757 20.4219C197.676 20.5913 197.598 20.7717 197.531 20.9609L197.292 21.6484C197.176 21.978 197.019 22.2772 196.827 22.5391L196.434 23.0859C196.346 23.2058 196.26 23.345 196.183 23.5156L196.028 23.8672L195.867 24.2188C195.679 24.6385 195.405 24.9591 195.056 25.1406L194.769 25.2891L194.489 25.4297C194.222 25.5676 193.942 25.647 193.655 25.6641L193.344 25.6797L193.052 25.6953V25.7031L192.837 26.0312L192.617 26.3594C192.331 26.7936 191.929 27.0554 191.46 27.0078L191.156 26.9766L190.857 26.9453C190.728 26.9322 190.607 26.9438 190.494 26.9766L190.208 27.0547L189.921 27.1406C189.524 27.2563 189.145 27.1502 188.812 26.9062L188.52 26.6953L188.317 26.5469L188.121 26.6953L187.834 26.8984C187.583 27.0802 187.316 27.2158 187.04 27.2891L186.468 27.4453C186.03 27.5614 185.624 27.3888 185.299 27.0859L185.013 26.8203L184.739 26.5625L184.524 26.6484L184.238 26.7578C184.045 26.8301 183.852 26.8994 183.66 26.9688L183.087 27.1719C182.769 27.2863 182.44 27.2943 182.121 27.1875L181.834 27.0938L181.548 26.9922C181.532 26.9868 181.514 26.9834 181.471 27.0078L180.898 27.3359C180.463 27.5843 180.012 27.5209 179.627 27.2188L179.055 26.7656C178.966 26.6947 178.908 26.6802 178.876 26.6797H178.304C178.251 26.6796 178.179 26.7 178.083 26.7656L177.511 27.1562C177.123 27.4219 176.687 27.455 176.276 27.2188L175.99 27.0547L175.704 26.8828C175.578 26.8108 175.46 26.7751 175.352 26.7578L174.779 26.6641C174.66 26.6453 174.537 26.6471 174.415 26.6719L173.843 26.7969C173.718 26.8226 173.586 26.8689 173.45 26.9453L173.163 27.1016L172.877 27.2656C172.493 27.4796 172.084 27.4743 171.702 27.2578L171.13 26.9297C171.076 26.8991 171.047 26.9073 171.022 26.9141L170.736 26.9922L170.45 27.0781C170.209 27.1463 169.966 27.1766 169.722 27.1797L169.436 27.1875H169.15C168.854 27.1911 168.566 27.1185 168.291 26.9766L167.718 26.6797C167.663 26.6512 167.626 26.6466 167.593 26.6562L167.021 26.8281C166.824 26.8861 166.626 26.9395 166.43 26.9922L165.857 27.1484C165.621 27.2118 165.381 27.2458 165.142 27.25L164.856 27.2578H164.569C164.312 27.2621 164.057 27.2222 163.806 27.1406L163.52 27.0469L163.234 26.9609C163.041 26.8984 162.847 26.8309 162.655 26.7656L162.369 26.6719L162.095 26.5703L162.082 26.5859L161.796 26.8047L161.51 27.0312C161.239 27.2388 160.944 27.3745 160.627 27.4141L160.341 27.4531L160.055 27.4844C159.659 27.5335 159.294 27.3827 158.987 27.1172L158.379 26.5859L158.098 26.6406L157.812 26.7031C157.617 26.7438 157.418 26.7781 157.222 26.8125L156.936 26.8672L156.65 26.9141C156.341 26.9682 156.032 26.9299 155.737 26.8047L155.2 26.5703L154.926 26.7891L154.64 27.0078C154.273 27.2881 153.847 27.3659 153.423 27.1641L152.85 26.8984C152.795 26.872 152.753 26.8702 152.714 26.8828L152.427 26.9688L152.141 27.0625C151.92 27.1316 151.696 27.1799 151.473 27.2109L150.901 27.2891C150.626 27.3271 150.353 27.3051 150.083 27.2266L149.797 27.1484L149.511 27.0625C149.439 27.0416 149.371 27.0454 149.296 27.0703L149.01 27.1641L148.724 27.2656C148.341 27.395 147.961 27.3213 147.621 27.1016L147.334 26.9219L147.036 26.7266L146.762 26.8516L146.476 26.9688C146.203 27.0851 145.921 27.1402 145.634 27.125L145.062 27.0938C144.96 27.0887 144.853 27.1124 144.74 27.1562L144.167 27.375C143.699 27.5569 143.263 27.3801 142.921 27.0469L142.635 26.7734L142.349 26.4922C142.34 26.4843 142.336 26.4733 142.331 26.4688L142.092 26.5391L141.806 26.6094C141.581 26.6661 141.353 26.7034 141.126 26.7188L140.84 26.7344L140.553 26.7578C140.458 26.7646 140.353 26.7959 140.237 26.8594L139.665 27.1719C139.312 27.3648 138.931 27.3902 138.562 27.2344L138.276 27.1172L137.989 26.9922C137.825 26.9232 137.662 26.8714 137.5 26.8281L136.927 26.6719C136.875 26.6579 136.821 26.6575 136.754 26.6875L136.468 26.8203L136.182 26.9453C135.906 27.0693 135.621 27.1271 135.329 27.1094L134.756 27.0781C134.563 27.0661 134.366 27.0461 134.173 27.0312L133.886 27.0156L133.6 26.9922C133.476 26.9828 133.351 26.9905 133.224 27.0234L132.651 27.1797C132.46 27.2296 132.264 27.2787 132.073 27.3281L131.787 27.3984L131.501 27.4766C131.134 27.5702 130.776 27.4938 130.451 27.2891L130.165 27.1094L129.884 26.9219L129.61 27.0547L129.324 27.1875C129.008 27.3348 128.672 27.3694 128.34 27.2812L128.053 27.2031L127.767 27.1328C127.611 27.0914 127.456 27.0598 127.302 27.0469L126.73 27C126.491 26.9802 126.249 26.9292 126.014 26.8516L125.441 26.6641H125.435C125.435 26.6641 125.42 26.6627 125.394 26.6797L124.821 27.0547C124.505 27.2577 124.156 27.3383 123.795 27.2656L123.223 27.1562C123.057 27.1229 122.892 27.0972 122.727 27.0859L122.441 27.0703L122.155 27.0469C121.897 27.0293 121.641 26.9704 121.392 26.8672L121.105 26.75L120.855 26.6406L120.575 26.8516L120.289 27.0703C119.956 27.3204 119.573 27.4249 119.173 27.3125L118.601 27.1562C118.397 27.0984 118.19 27.0259 117.986 26.9531L117.414 26.75C117.335 26.7218 117.261 26.7233 117.188 26.7422L116.902 26.8125L116.615 26.8906C116.424 26.9395 116.233 26.9826 116.043 27.0312L115.756 27.1094L115.47 27.1797C115.235 27.2397 114.998 27.2707 114.76 27.2734L114.474 27.2812H114.188C113.853 27.2849 113.534 27.1633 113.246 26.9609L112.96 26.7656L112.673 26.5625C112.615 26.5218 112.589 26.5216 112.578 26.5234L112.292 26.5781L112.005 26.6406C111.836 26.6737 111.663 26.7129 111.492 26.7656L111.206 26.8516L110.92 26.9453C110.606 27.042 110.289 27.03 109.977 26.9219L109.691 26.8281L109.405 26.7266C109.247 26.6715 109.089 26.6267 108.934 26.6016L108.647 26.5547L108.361 26.5156C108.318 26.5086 108.264 26.5111 108.189 26.5547L107.616 26.8828C107.394 27.0098 107.169 27.1122 106.942 27.1953L106.656 27.3047L106.369 27.4062C106.047 27.5243 105.715 27.528 105.391 27.4141L104.818 27.2109C104.605 27.1356 104.392 27.049 104.181 26.9453L103.608 26.6641C103.511 26.6162 103.423 26.5955 103.346 26.6016L102.773 26.6484C102.547 26.6661 102.32 26.6653 102.093 26.6406L101.521 26.5781C101.418 26.5669 101.315 26.5803 101.205 26.6172L100.632 26.8047C100.467 26.8604 100.298 26.9346 100.131 27.0156L99.845 27.1484L99.5588 27.2891C99.1328 27.4951 98.7046 27.4157 98.3359 27.1328L98.0496 26.9141L97.8351 26.7422L97.6382 26.8828L97.3519 27.0703C97.0473 27.2728 96.7084 27.3737 96.3565 27.3281L95.784 27.25C95.587 27.2245 95.3901 27.1962 95.1931 27.1641L94.6206 27.0703C94.4168 27.037 94.2099 27.0001 94.0061 26.9531L93.7198 26.8828L93.4336 26.8203C93.3725 26.8067 93.3114 26.812 93.2374 26.8438L92.9511 26.9609L92.6649 27.0859C92.2878 27.2483 91.8992 27.213 91.5435 27.0078L90.971 26.6797C90.8931 26.6353 90.8366 26.6339 90.7924 26.6406L90.5053 26.6797L90.2198 26.7266C90.087 26.7465 89.9489 26.7805 89.8076 26.8438L89.5214 26.9766L89.2351 27.1016C88.8466 27.2761 88.4519 27.2327 88.0901 27.0078L87.8038 26.8359L87.5176 26.6562C87.4397 26.6074 87.3847 26.597 87.345 26.6016L87.0588 26.6406L86.7725 26.6719C86.5801 26.6957 86.3863 26.7198 86.1939 26.7422L85.9076 26.7812L85.6214 26.8125C85.5176 26.8246 85.4046 26.8607 85.2817 26.9297L84.9954 27.0859L84.7092 27.25C84.4137 27.4157 84.0977 27.4957 83.7725 27.4609L83.2 27.3984C83.0313 27.3804 82.8618 27.3662 82.6931 27.3672L82.4069 27.375H82.1206C81.8191 27.3765 81.5267 27.2939 81.2504 27.1406L80.9634 26.9766L80.6779 26.8203C80.6534 26.8071 80.6397 26.805 80.6359 26.8047C80.6321 26.8044 80.6252 26.8075 80.6122 26.8125L80.326 26.9141L80.0397 27.0234C79.8313 27.102 79.6221 27.1686 79.413 27.2266L79.1267 27.3125L78.8405 27.3906C78.5076 27.4827 78.174 27.444 77.8565 27.2969L77.284 27.0312C77.2572 27.0191 77.2435 27.0205 77.2183 27.0312L76.6458 27.2969C76.3496 27.4313 76.035 27.4745 75.7216 27.4219L75.1491 27.3281C74.9523 27.2951 74.7553 27.2594 74.5587 27.2188L73.9862 27.0938C73.8417 27.0638 73.6937 27.0569 73.5508 27.0625L73.2646 27.0703L72.9783 27.0859C72.7636 27.0942 72.5488 27.0816 72.3342 27.0625L71.7617 27.0156C71.5301 26.995 71.2988 26.9514 71.0699 26.8828L70.7837 26.7969L70.5034 26.7109C70.4974 26.7137 70.4885 26.7232 70.4735 26.7344L69.901 27.1562C69.5713 27.401 69.1922 27.5041 68.7977 27.3984L68.5114 27.3281L68.2252 27.25C68.0427 27.2011 67.8589 27.1577 67.6765 27.1172L67.3902 27.0547L67.104 26.9844C66.9112 26.9415 66.7183 26.8976 66.5255 26.8516L66.2392 26.7812L65.953 26.7188H65.947C65.9427 26.7198 65.9252 26.7266 65.8934 26.75L65.3208 27.1719C65.005 27.4054 64.6443 27.5155 64.2653 27.4453L63.979 27.3906L63.6927 27.3438C63.5684 27.3205 63.4408 27.316 63.317 27.3359L62.7445 27.4297C62.3237 27.4968 61.945 27.315 61.6353 27.0234L61.349 26.7578L61.2178 26.6328L61.0925 26.7578L60.8063 27.0234C60.4321 27.3754 59.9608 27.5089 59.4883 27.2422L58.9158 26.9141C58.8618 26.8835 58.8327 26.8837 58.8085 26.8906L58.5222 26.9766L58.236 27.0547C57.958 27.1345 57.6766 27.154 57.395 27.1016L56.8225 26.9922C56.6585 26.9614 56.4908 26.945 56.3276 26.9375L55.755 26.9062C55.6677 26.9024 55.5733 26.9194 55.4688 26.9688L55.1825 27.1094L54.8963 27.2422C54.444 27.4555 53.9994 27.3339 53.6379 27.0156L53.3516 26.7656L53.0653 26.5078C52.9763 26.43 52.9312 26.4296 52.9222 26.4297H52.3497C52.2883 26.4303 52.2092 26.4521 52.1111 26.5156L51.5386 26.8906C51.2537 27.0747 50.9431 27.1759 50.6202 27.1719H50.334L50.0477 27.1641C49.8973 27.1624 49.746 27.1744 49.5945 27.2031L49.022 27.3125C48.741 27.3657 48.4589 27.3584 48.1811 27.2812L47.8948 27.1953L47.6085 27.1172C47.5198 27.0927 47.4342 27.0943 47.3461 27.1172L47.0598 27.1953L46.7736 27.2656C46.4896 27.3401 46.2 27.3478 45.9148 27.2812L45.6285 27.2109L45.3423 27.1484C45.1672 27.1076 44.9923 27.0737 44.8175 27.0469L44.245 26.9531C44.1375 26.9366 44.0282 26.9459 43.9169 26.9766L43.3444 27.1328C42.9984 27.2282 42.6533 27.184 42.3306 27.0156L41.7581 26.7188C41.6192 26.6463 41.4867 26.595 41.3585 26.5703L40.786 26.4609C40.7154 26.4474 40.6433 26.457 40.5594 26.4922L39.9869 26.7266C39.7539 26.8245 39.5156 26.8968 39.2772 26.9375L38.9909 26.9844L38.7047 27.0391C38.445 27.0832 38.1827 27.0806 37.9234 27.0312L37.3509 26.9219C37.2337 26.8997 37.1163 26.8994 36.9991 26.9219L36.4266 27.0312C36.0969 27.0942 35.7721 27.0396 35.4663 26.8828L34.8938 26.5859C34.8073 26.5414 34.7363 26.5317 34.6732 26.5391L34.3869 26.5703L34.1007 26.6094C34.0113 26.6204 33.9069 26.6522 33.7905 26.7266L33.5043 26.9141L33.218 27.0938C32.9495 27.2658 32.6632 27.3774 32.3652 27.4062L32.0789 27.4375L31.7927 27.4609C31.4183 27.497 31.0701 27.3584 30.7669 27.1172L30.4807 26.8906L30.2421 26.7031L30.0334 26.8203L29.7472 26.9766C29.3658 27.189 28.9597 27.1886 28.5782 26.9766L28.0057 26.6641C27.9825 26.6511 27.9669 26.6487 27.964 26.6484C27.9611 26.6483 27.9555 26.6451 27.9461 26.6484L27.6598 26.7578L27.3736 26.875C27.1761 26.9508 26.9748 27.0177 26.7772 27.0859L26.4909 27.1875L26.2047 27.2812C25.8089 27.4176 25.4202 27.3418 25.0776 27.1016L24.505 26.6953C24.3984 26.621 24.3108 26.5917 24.2426 26.5859L23.6701 26.5391C23.509 26.5255 23.348 26.5212 23.187 26.5312L22.9008 26.5547L22.6145 26.5703C22.4226 26.5824 22.2279 26.5906 22.036 26.6016L21.7498 26.6172L21.4635 26.6406C21.2207 26.6544 20.9769 26.6292 20.736 26.5781L20.4497 26.5234L20.1634 26.4609C20.0972 26.4472 20.0282 26.4506 19.9487 26.4844L19.6624 26.6094L19.3762 26.7266C19.0492 26.8653 18.7086 26.8802 18.3743 26.7656L18.088 26.6719L17.8554 26.5859L17.5751 26.8516L17.2889 27.1094C16.9368 27.4299 16.4984 27.5702 16.0424 27.375L15.7562 27.2578L15.4699 27.1328C15.3434 27.0786 15.2222 27.0526 15.1062 27.0469L14.5337 27.0156C14.2888 27.0037 14.0463 26.9537 13.806 26.875L13.2335 26.6875C13.1392 26.6565 13.0479 26.6543 12.9592 26.6719L12.673 26.7266L12.3867 26.7891C12.1502 26.8362 11.9092 26.854 11.6711 26.8438L11.3848 26.8281L11.0985 26.8203C11.0033 26.8166 10.8995 26.8331 10.7824 26.8828L10.4902 27.0078L10.1921 27.1328C9.88649 27.2618 9.56885 27.2962 9.24977 27.2266L8.66534 27.1016C8.41259 27.0462 8.16748 26.9516 7.93175 26.8203L7.6574 26.6641L7.38908 26.5156C7.1092 26.3595 6.85946 26.1313 6.64957 25.8438L6.44084 25.5547L6.22614 25.2656C6.16934 25.188 6.1184 25.1472 6.06512 25.125L5.78482 25.0078L5.5105 24.8984C5.28256 24.805 5.06144 24.6852 4.84852 24.5391L4.32371 24.1797C4.05446 23.9943 3.82431 23.7372 3.63788 23.4219L3.45897 23.1172L3.28006 22.8203C3.18535 22.6601 3.07856 22.5086 2.96398 22.3672L2.53459 21.8359C2.3258 21.578 2.16017 21.2748 2.03363 20.9375L1.90243 20.5938L1.77123 20.2422C1.66359 19.9541 1.57714 19.6533 1.51479 19.3438L1.44322 18.9766L1.36569 18.6094C1.33001 18.4323 1.28178 18.2537 1.2166 18.0859L1.07943 17.7422L0.948236 17.3984C0.822152 17.0739 0.739669 16.7269 0.697757 16.3672L0.650047 15.9922L0.608301 15.6094C0.568195 15.2651 0.563852 14.9161 0.596374 14.5703L0.667938 13.8047C0.691641 13.5526 0.711635 13.3013 0.73354 13.0547L0.805106 12.3047C0.83677 11.9504 0.905969 11.6056 1.0198 11.2812L1.14504 10.9375L1.26431 10.5938C1.34029 10.3772 1.41327 10.1644 1.47901 9.95311L1.58039 9.60937L1.68774 9.27343C1.7269 9.14745 1.75863 8.99284 1.77123 8.81249L1.79508 8.41405L1.8249 8.0078C1.85372 7.597 1.94804 7.20704 2.11116 6.85155L2.26622 6.51561L2.41531 6.18749C2.55941 5.8738 2.73908 5.59659 2.95205 5.35937L3.4053 4.85937C3.60983 4.63169 3.8346 4.44273 4.0792 4.29687L4.34756 4.1328L4.6219 3.97655C4.70398 3.9276 4.76895 3.85767 4.82466 3.77343L5.0155 3.48437L5.2123 3.1953C5.3874 2.93061 5.58456 2.69807 5.80869 2.5078L6.0532 2.29687L6.30367 2.09374C6.63586 1.81245 7.00944 1.72074 7.38311 1.78905L7.70519 1.85155L7.96756 1.89843L8.18229 1.6328L8.42679 1.32811L8.70702 1.05468C8.81397 0.977358 8.93321 0.91551 9.06488 0.882806C9.32946 0.817431 9.57985 0.880786 9.79244 0.999994L10.0907 1.16405L10.2398 1.2578C10.3906 1.13232 10.5311 1.06549 10.6214 1.04687C10.7661 1.01709 10.9131 1.01735 11.0389 1.03124L11.3251 1.0703L11.6114 1.10155C11.6734 1.10807 11.7446 1.09331 11.8321 1.04687L12.1183 0.898432L12.4046 0.742182C12.7584 0.554553 13.135 0.536564 13.5019 0.695306L13.7882 0.820306L14.0744 0.937494C14.2403 1.00926 14.4059 1.07088 14.5694 1.11718L14.8556 1.1953L15.1419 1.28124C15.2176 1.30261 15.2903 1.29902 15.3685 1.27343L15.9411 1.08593C16.2725 0.977575 16.6079 0.996352 16.9311 1.1328L17.2173 1.2578L17.5036 1.37499C17.6185 1.42378 17.729 1.4475 17.8316 1.4453L18.4041 1.42968C18.591 1.42567 18.7779 1.42171 18.9647 1.41405L19.251 1.39843L19.5373 1.39061C19.7679 1.38117 19.9992 1.39217 20.229 1.42968L20.8015 1.52343C20.9605 1.54933 21.1205 1.56296 21.2786 1.56249H21.8511C21.8544 1.56222 21.8618 1.56085 21.875 1.55468C21.8939 1.54566 21.9294 1.52126 21.9764 1.47655L22.2627 1.21093L22.5489 0.937494L22.8411 0.710932C23.0485 0.594003 23.2755 0.549262 23.5091 0.585932L23.8609 0.703119L24.1472 0.859369L24.4334 1.02343C24.4971 1.05836 24.541 1.05504 24.5766 1.04687L24.8628 0.976556L25.1491 0.914056C25.5121 0.828094 25.8653 0.907726 26.1868 1.10937L26.7593 1.46874C26.8518 1.52683 26.924 1.54112 26.98 1.53905L27.2663 1.52343L27.5525 1.51561C27.7231 1.50883 27.8945 1.49246 28.0653 1.46874L28.6379 1.39061C28.7366 1.37686 28.8502 1.33245 28.9718 1.2578L29.2581 1.08593L29.5443 0.906244L29.8605 0.773432C30.1814 0.686639 30.5057 0.756437 30.8027 0.968744L31.089 1.17187L31.2739 1.30468L31.4707 1.14843L31.7569 0.914056C32.0903 0.646067 32.4832 0.526743 32.896 0.648432L33.4685 0.820306C33.5418 0.84197 33.6138 0.837356 33.6892 0.812494L34.2617 0.624994C34.6128 0.509561 34.9675 0.548709 35.2994 0.718744L35.5856 0.859369L35.8719 1.0078C35.9585 1.0518 36.0292 1.06255 36.0925 1.05468L36.3788 1.02343L36.665 0.984369C36.7944 0.968229 36.9268 0.927961 37.0647 0.867182L37.6372 0.617182C37.9275 0.489119 38.2316 0.440988 38.5377 0.484369L38.824 0.523432L39.1102 0.570306C39.3935 0.610734 39.6674 0.713507 39.9272 0.874994L40.4998 1.23437L40.5117 1.24218L40.792 1.11718L41.0782 0.992182C41.4479 0.831575 41.8266 0.854266 42.1815 1.04687L42.754 1.35937C42.8108 1.38991 42.8485 1.38351 42.8793 1.37499L43.4518 1.21874C43.6089 1.17512 43.7685 1.12016 43.9289 1.04687L44.5015 0.781244C44.8516 0.621498 45.2169 0.617925 45.5689 0.773432L46.1414 1.02343L46.1474 1.03124C46.1501 1.03041 46.1615 1.02892 46.1713 1.02343L46.4576 0.859369L46.7438 0.703119L47.0778 0.570306C47.4161 0.504409 47.7465 0.622529 48.032 0.867182L48.3182 1.10937L48.4673 1.24218L48.6224 1.10937L48.9086 0.859369C49.196 0.609723 49.53 0.446462 49.8927 0.437494L50.4652 0.421869C50.7706 0.414801 51.0679 0.501625 51.3478 0.656244L51.9203 0.968744C52.0408 1.03511 52.1527 1.06813 52.2543 1.07811L52.5405 1.10937L52.8268 1.1328C53.068 1.15672 53.3063 1.21848 53.5424 1.30468L53.8287 1.40624L54.115 1.51561C54.1618 1.53276 54.2069 1.52892 54.2581 1.5078L54.8306 1.27343C54.992 1.20676 55.1551 1.12626 55.3197 1.03124L55.606 0.859369L55.8922 0.695306L56.25 0.562494C56.485 0.520621 56.7137 0.57111 56.9239 0.687494L57.2221 0.906244L57.7946 1.45311C57.8069 1.46476 57.8174 1.47139 57.8244 1.47655L58.0749 1.41405L58.3611 1.35155C58.594 1.29932 58.8302 1.27303 59.0649 1.27343H59.6374C59.8379 1.27384 60.0393 1.28636 60.2398 1.29687L60.526 1.30468L60.8123 1.3203C60.9276 1.32635 61.0481 1.31381 61.1701 1.27343L61.7426 1.08593C62.0527 0.983591 62.368 0.979095 62.6789 1.07811L62.9652 1.17187L63.2514 1.2578C63.2875 1.26935 63.3246 1.27506 63.3766 1.24999L63.9492 0.968744C64.2486 0.822335 64.565 0.767342 64.8855 0.820306L65.458 0.914056C65.5244 0.925033 65.5944 0.913885 65.6787 0.874994L65.965 0.742182L66.2512 0.617182C66.6044 0.453569 66.9488 0.495163 67.2472 0.671869L67.5334 0.890619L67.8197 1.16405L68.0403 1.39061L68.2192 1.28905L68.5055 1.1328C68.8148 0.964928 69.1461 0.902756 69.4835 0.968744L70.056 1.07811C70.1047 1.08757 70.1612 1.08536 70.235 1.04687L70.8075 0.749994L71.1116 0.632806C71.319 0.588643 71.5265 0.612224 71.7259 0.687494L72.0121 0.835932L72.5847 1.22655C72.6769 1.28969 72.7448 1.30526 72.7934 1.30468H73.0797L73.366 1.29687C73.5722 1.29315 73.7799 1.29952 73.9862 1.31249L74.5587 1.34374C74.6489 1.34942 74.7456 1.33577 74.8509 1.28905L75.4234 1.03905C75.7726 0.884173 76.1356 0.876972 76.4847 1.03124L76.771 1.16405L77.0397 1.28124L77.6122 0.890619C77.8977 0.699063 78.2092 0.589526 78.5366 0.593744L78.8229 0.601556H79.1092C79.2947 0.604295 79.484 0.610326 79.6695 0.609369L79.9557 0.601556H80.242C80.4832 0.600291 80.7252 0.635184 80.9634 0.695306L81.5359 0.835932C81.7122 0.880453 81.8916 0.914847 82.0672 0.945306L82.3534 0.999994L82.6397 1.04687C82.7015 1.05733 82.7679 1.0533 82.8481 1.01561L83.1343 0.874994L83.4206 0.742182C83.7672 0.577728 84.1351 0.564638 84.4885 0.710932L85.0611 0.945306C85.1542 0.983552 85.2366 0.995754 85.3176 0.984369L85.6038 0.945306L85.8901 0.898432C86.2168 0.851692 86.5382 0.925236 86.8382 1.08593L87.1244 1.23437L87.4046 1.39061L87.6908 1.24218L87.9771 1.08593C88.2343 0.949042 88.5023 0.864571 88.7763 0.835932L89.3489 0.773432C89.6985 0.73713 90.0313 0.841726 90.3328 1.04687L90.6191 1.24218L90.887 1.42968L91.1435 1.30468L91.4298 1.16405C91.687 1.03671 91.9519 0.951511 92.2229 0.929682L92.5099 0.914056L92.7954 0.890619C93.1069 0.865836 93.4092 0.9364 93.6962 1.08593L93.9824 1.23437L94.245 1.37499L94.5191 1.20311L94.8053 1.02343C95.0473 0.872056 95.2954 0.757259 95.5511 0.687494L96.1237 0.531244C96.4023 0.455336 96.6832 0.444 96.9641 0.499994L97.2504 0.554682L97.5366 0.617182C97.7267 0.655256 97.9191 0.688273 98.1092 0.726556L98.3954 0.789056L98.6817 0.843744C98.8527 0.878058 99.0252 0.905408 99.1947 0.921869L99.4809 0.945306L99.7672 0.976556C99.9901 0.998022 100.215 1.03552 100.435 1.09374L101.008 1.24999C101.015 1.2517 101.021 1.25094 101.026 1.24999C101.033 1.24835 101.051 1.23823 101.079 1.21874L101.652 0.828119C101.933 0.636225 102.239 0.562229 102.547 0.624994L102.856 0.734369L103.143 0.882806L103.411 1.01561L103.686 0.851556L103.972 0.679682C104.324 0.466068 104.712 0.414638 105.093 0.570306L105.379 0.695306L105.666 0.812494C105.86 0.892273 106.056 0.970234 106.25 1.05468L106.823 1.30468C106.883 1.33094 106.934 1.3356 106.983 1.3203L107.269 1.22655L107.556 1.14061C107.743 1.08308 107.93 1.02226 108.117 0.960932L108.689 0.773432C108.952 0.687227 109.219 0.652453 109.489 0.671869L109.775 0.695306L110.061 0.710932C110.237 0.723709 110.415 0.733562 110.592 0.734369H111.164C111.382 0.735292 111.603 0.751001 111.82 0.781244L112.392 0.859369C112.557 0.882231 112.724 0.897388 112.888 0.898432H113.174L113.46 0.906244C113.75 0.908462 114.031 0.980714 114.301 1.11718L114.587 1.2578L114.773 1.35937L115.017 1.1328L115.303 0.867182C115.627 0.565487 116.028 0.393141 116.466 0.507806L117.038 0.664056C117.205 0.708152 117.373 0.743539 117.54 0.765619L117.826 0.796869L118.112 0.835932C118.327 0.864636 118.542 0.912113 118.756 0.968744L119.042 1.03905L119.328 1.11718C119.499 1.16233 119.672 1.19946 119.841 1.22655L120.414 1.3203H120.42C120.427 1.31779 120.454 1.30453 120.492 1.27343L120.778 1.03905L121.064 0.796869L121.368 0.601556C121.688 0.457287 122.035 0.477477 122.37 0.687494L122.943 1.04687C123.012 1.09073 123.056 1.09067 123.086 1.08593L123.372 1.03905L123.658 0.984369C123.897 0.943168 124.14 0.934294 124.38 0.953119L124.953 0.999994C125.125 1.0135 125.298 1.01756 125.471 1.01561H125.757L126.044 1.0078C126.182 1.0062 126.32 0.9846 126.461 0.945306L127.034 0.789056C127.268 0.723626 127.506 0.689217 127.744 0.679682L128.03 0.664056L128.316 0.656244C128.524 0.647935 128.734 0.646249 128.942 0.656244L129.228 0.671869L129.515 0.679682C129.682 0.687636 129.849 0.691729 130.015 0.679682L130.588 0.632806C130.852 0.613803 131.117 0.648566 131.376 0.726556L131.948 0.898432C132.069 0.934954 132.189 0.945999 132.305 0.937494L132.592 0.921869L132.878 0.898432C133.052 0.88574 133.228 0.863525 133.403 0.835932L133.689 0.789056L133.976 0.749994C134.215 0.71214 134.456 0.701287 134.697 0.726556L135.269 0.789056C135.528 0.816371 135.785 0.886035 136.033 0.999994L136.605 1.26561C136.635 1.27923 136.655 1.27819 136.683 1.26561L136.969 1.14061L137.256 1.0078C137.511 0.893643 137.776 0.826736 138.043 0.812494L138.615 0.781244C138.885 0.76706 139.153 0.807208 139.415 0.898432L139.987 1.10155C140.042 1.12056 140.09 1.11572 140.148 1.09374L140.434 0.984369L140.721 0.882806C140.928 0.803498 141.138 0.730854 141.347 0.671869L141.633 0.593744L141.919 0.507806C142.218 0.423555 142.521 0.429144 142.82 0.515619L143.106 0.593744L143.392 0.679682C143.548 0.724905 143.703 0.757414 143.857 0.773432L144.144 0.804682L144.43 0.828119C144.654 0.851426 144.881 0.898826 145.104 0.960932L145.676 1.11718C145.778 1.14527 145.876 1.15138 145.975 1.1328L146.547 1.02343C146.795 0.975641 147.049 0.964102 147.298 0.992182L147.871 1.05468C148.073 1.07745 148.277 1.10538 148.479 1.14061L148.766 1.1953L149.052 1.24218C149.16 1.26099 149.269 1.26182 149.38 1.23437L149.666 1.15624L149.953 1.08593C150.255 1.01057 150.561 1.02494 150.859 1.12499L151.145 1.22655L151.431 1.3203C151.573 1.36775 151.712 1.39781 151.849 1.40624L152.421 1.43749C152.474 1.44075 152.541 1.42976 152.63 1.37499L153.202 1.01561C153.438 0.869432 153.682 0.761991 153.93 0.687494L154.502 0.515619C154.76 0.438771 155.022 0.40539 155.284 0.421869L155.57 0.437494ZM154.849 2.46093L154.276 2.6328C154.144 2.67252 154.003 2.73872 153.859 2.82811L153.573 2.99999L153.286 3.17968C152.995 3.36042 152.678 3.45768 152.35 3.43749L152.063 3.42187L151.777 3.39843C151.533 3.38338 151.289 3.33828 151.05 3.2578L150.763 3.16405L150.477 3.06249C150.394 3.03484 150.317 3.03519 150.238 3.05468L149.666 3.1953C149.395 3.2626 149.121 3.27397 148.849 3.22655L148.563 3.17968L148.276 3.12499C148.098 3.09388 147.918 3.06694 147.74 3.04687L147.167 2.98437C147.037 2.96972 146.905 2.97489 146.773 2.99999L146.201 3.10937C145.92 3.16348 145.633 3.15576 145.354 3.07811L145.068 2.99218L144.782 2.91405C144.624 2.87016 144.466 2.84435 144.311 2.82811L143.738 2.76561C143.511 2.74208 143.283 2.698 143.058 2.6328L142.772 2.54687L142.486 2.46874C142.403 2.44491 142.324 2.43774 142.241 2.46093L141.955 2.54687L141.669 2.62499C141.496 2.67367 141.323 2.7308 141.15 2.79687L140.577 3.01561C140.254 3.13905 139.92 3.14485 139.593 3.03124L139.307 2.93749L139.021 2.83593C138.902 2.79444 138.786 2.77529 138.675 2.78124L138.102 2.81249C137.989 2.81865 137.869 2.85039 137.744 2.90624L137.172 3.15624C136.82 3.31362 136.455 3.31681 136.105 3.15624L135.532 2.89061C135.4 2.82992 135.272 2.79424 135.15 2.78124L134.578 2.71874C134.438 2.70399 134.295 2.71216 134.154 2.73437L133.868 2.78124L133.582 2.8203C133.376 2.85292 133.169 2.87556 132.962 2.89061L132.389 2.93749C132.125 2.95663 131.861 2.92174 131.602 2.84374L131.029 2.67187C130.908 2.63537 130.789 2.62437 130.672 2.6328L130.385 2.65624L130.099 2.67187C129.885 2.6873 129.669 2.68997 129.455 2.67968L129.169 2.66405L128.882 2.65624C128.709 2.64798 128.537 2.64154 128.363 2.64843L128.077 2.66405L127.791 2.67187C127.647 2.6776 127.502 2.70148 127.356 2.74218L127.069 2.82811L126.783 2.90624C126.544 2.97322 126.298 3.00507 126.056 3.0078L125.769 3.01561H125.483C125.275 3.01794 125.065 3.00851 124.856 2.99218L124.571 2.96874L124.284 2.95311C124.144 2.94222 124.002 2.94442 123.861 2.96874L123.575 3.02343L123.289 3.0703C122.937 3.13094 122.596 3.04564 122.286 2.85155L122 2.67187L121.803 2.54687L121.589 2.72655L121.302 2.96093C120.991 3.21886 120.629 3.36639 120.235 3.30468L119.663 3.21093C119.452 3.1775 119.24 3.1335 119.031 3.07811L118.744 2.99999L118.458 2.92968C118.291 2.88555 118.122 2.85019 117.956 2.82811L117.384 2.74999C117.169 2.72131 116.954 2.68148 116.74 2.62499L116.454 2.54687L116.204 2.47655C116.198 2.48068 116.193 2.49299 116.186 2.49999L115.613 3.03124C115.249 3.36971 114.792 3.50874 114.325 3.27343L114.039 3.12499L113.753 2.98437C113.642 2.9285 113.54 2.90682 113.448 2.90624L113.162 2.89843H112.876C112.66 2.89695 112.441 2.88163 112.226 2.85155L111.653 2.77343C111.49 2.75075 111.327 2.73517 111.164 2.73437H110.592C110.388 2.7335 110.181 2.72565 109.977 2.71093L109.691 2.68749L109.405 2.67187C109.293 2.66377 109.178 2.67193 109.059 2.71093L108.486 2.89843C108.292 2.96231 108.096 3.02599 107.902 3.08593L107.616 3.17968L107.33 3.26561C106.998 3.36706 106.666 3.34194 106.345 3.20311L105.773 2.95311C105.587 2.87212 105.398 2.79521 105.212 2.71874L104.64 2.48437H104.634C104.631 2.48571 104.624 2.48713 104.616 2.49218L104.044 2.83593C103.669 3.06238 103.259 3.09005 102.869 2.89061L102.582 2.74218L102.332 2.60937L102.069 2.79687L101.783 2.99218C101.456 3.21605 101.089 3.31042 100.71 3.21093L100.137 3.05468C99.9779 3.01261 99.8176 2.98408 99.6603 2.96874L99.374 2.9453L99.0878 2.91405C98.8771 2.89378 98.6649 2.86245 98.4557 2.8203L98.1695 2.76561L97.8832 2.70311C97.6931 2.66488 97.5 2.63177 97.3107 2.59374L97.0244 2.53124L96.7382 2.47655C96.6382 2.45654 96.5359 2.45639 96.4336 2.48437L95.8611 2.64061C95.7351 2.67494 95.6015 2.73248 95.4618 2.8203L94.8893 3.17968C94.5137 3.41509 94.1031 3.44707 93.7084 3.24218L93.4221 3.09374L93.1359 2.93749C93.042 2.88857 92.9611 2.87747 92.8916 2.8828L92.3191 2.92968C92.2092 2.9384 92.0908 2.96984 91.9672 3.03124L91.3947 3.31249C90.9885 3.51334 90.5733 3.4643 90.2015 3.21093L89.629 2.8203C89.5496 2.76593 89.4985 2.7624 89.4679 2.76561L88.8954 2.82811C88.7886 2.83945 88.6733 2.87173 88.5496 2.93749L88.2634 3.09374L87.9771 3.24218C87.6015 3.44202 87.2015 3.4434 86.826 3.24218L86.5397 3.08593L86.2534 2.93749C86.1725 2.89443 86.1114 2.88293 86.0565 2.89061L85.484 2.96874C85.184 3.01176 84.8832 2.97056 84.5954 2.85155L84.0229 2.61718C83.9962 2.60649 83.9794 2.60915 83.9458 2.62499L83.3733 2.89061C83.0733 3.03291 82.7557 3.0865 82.4366 3.03124L82.1504 2.98437L81.8641 2.92968C81.6595 2.89411 81.455 2.84854 81.2504 2.79687L80.6779 2.65624C80.5351 2.62034 80.3931 2.60107 80.2542 2.60155H79.9679L79.6817 2.60937C79.4878 2.61038 79.2908 2.60439 79.0969 2.60155H78.8107L78.5244 2.59374C78.4725 2.59298 78.3985 2.60844 78.3038 2.67187L78.0176 2.86718L77.7313 3.05468C77.371 3.29688 76.9679 3.35616 76.5687 3.17968L75.996 2.92968C75.964 2.91568 75.9447 2.91536 75.9124 2.92968L75.6262 3.05468L75.3399 3.18749C75.0642 3.3096 74.7779 3.3619 74.4871 3.34374L74.2008 3.32811L73.9146 3.30468C73.7399 3.29368 73.5644 3.29376 73.3898 3.29687L73.1035 3.30468H72.8173C72.4845 3.31067 72.1693 3.19719 71.881 2.99999L71.5947 2.80468L71.3323 2.62499L71.0818 2.7578L70.7956 2.90624C70.4883 3.0661 70.1617 3.12747 69.8295 3.06249L69.5432 2.99999L69.2569 2.9453C69.2131 2.93689 69.1618 2.94537 69.0899 2.98437L68.8037 3.14061L68.5174 3.28905C68.0401 3.54832 67.5682 3.40924 67.1994 3.05468L66.9131 2.78124L66.6627 2.53905L66.4778 2.6328L66.1915 2.76561C65.8947 2.90316 65.5822 2.95049 65.2672 2.89843L64.6947 2.80468C64.6337 2.7946 64.5678 2.80384 64.486 2.84374L63.9134 3.12499C63.5854 3.28536 63.2382 3.31286 62.8936 3.20311L62.6073 3.10937L62.3211 3.02343C62.2515 3.00116 62.1827 3.00015 62.1124 3.02343L61.5398 3.21093C61.2809 3.29641 61.0181 3.33414 60.7526 3.3203L60.1801 3.28905C59.9995 3.27958 59.818 3.27382 59.6374 3.27343H59.0649C58.9189 3.27313 58.7714 3.29507 58.6236 3.32811L58.0511 3.45311C57.6154 3.55086 57.2186 3.3723 56.9001 3.0703L56.6138 2.79687L56.3931 2.59374L56.2261 2.6953L55.9398 2.85937C55.7243 2.98398 55.5027 3.08942 55.2839 3.17968L54.7114 3.41405C54.3821 3.54933 54.0429 3.55893 53.7095 3.43749L53.4232 3.33593L53.1369 3.22655C52.9928 3.17383 52.8465 3.14647 52.7076 3.1328L52.4213 3.10155L52.135 3.07811C51.856 3.05034 51.584 2.95611 51.324 2.81249L50.7514 2.49999C50.6506 2.44437 50.5643 2.42 50.489 2.42187L49.9165 2.43749C49.8959 2.43855 49.8444 2.44675 49.7555 2.52343L49.183 3.02343C48.9892 3.19173 48.75 3.31017 48.4792 3.31249C48.2073 3.31404 47.9653 3.19888 47.7695 3.03124L47.4833 2.78905L47.2507 2.58593L47.0539 2.6953L46.7676 2.85937C46.4106 3.05904 46.0265 3.08713 45.6524 2.92187L45.0799 2.67187C45.0505 2.65887 45.0336 2.6576 45.0024 2.67187L44.7161 2.79687L44.4298 2.92968C44.2096 3.03029 43.9855 3.11001 43.7619 3.17187L43.4756 3.2578L43.1894 3.33593C42.8397 3.43188 42.4931 3.37861 42.1696 3.20311L41.5971 2.89061C41.589 2.88625 41.5829 2.88405 41.5792 2.8828H41.5732L40.9828 3.14061C40.5961 3.30808 40.2016 3.26146 39.8437 3.03905L39.2712 2.67968C39.1505 2.6049 39.0405 2.56847 38.9432 2.55468L38.3707 2.47655C38.2955 2.4661 38.217 2.47558 38.1262 2.51561L37.5537 2.76561C37.3101 2.87308 37.0603 2.94521 36.8082 2.97655L36.522 3.0078L36.2357 3.04687C35.918 3.08623 35.6053 3.01783 35.3113 2.86718L35.025 2.72655L34.7388 2.57811C34.6905 2.55382 34.6611 2.55268 34.6314 2.56249L34.0589 2.74999C33.7531 2.85066 33.4424 2.85653 33.1345 2.76561L32.8482 2.67968L32.574 2.60155C32.5688 2.60493 32.564 2.61858 32.556 2.62499L32.2698 2.85155L31.9835 3.08593C31.5688 3.41918 31.0866 3.44635 30.6476 3.1328L30.3614 2.92968L30.1228 2.74999L29.9022 2.89843L29.616 3.0703C29.357 3.22909 29.0865 3.33529 28.8049 3.37499L28.2324 3.45311C28.0227 3.48233 27.8102 3.50725 27.6002 3.51561L27.3139 3.52343L27.0276 3.53905C26.7031 3.55196 26.3913 3.45368 26.1033 3.27343L25.5308 2.91405C25.4719 2.8771 25.4418 2.87859 25.4234 2.8828L25.1372 2.9453L24.8509 3.01561C24.5062 3.09724 24.1655 3.04011 23.849 2.86718L23.5627 2.71093L23.3838 2.60937L23.1572 2.82811L22.8709 3.10155C22.5818 3.37608 22.2362 3.56134 21.8511 3.56249H21.2786C21.056 3.56306 20.8326 3.54403 20.6107 3.5078L20.0382 3.41405C19.8867 3.38941 19.7356 3.38444 19.5849 3.39061L19.2986 3.39843L19.0124 3.41405C18.8178 3.42202 18.6226 3.4255 18.4279 3.42968L17.8554 3.4453C17.5776 3.45117 17.304 3.39352 17.0384 3.28124L16.7521 3.15624L16.4659 3.03905C16.4084 3.01465 16.3599 3.00751 16.3108 3.02343L15.7383 3.21093C15.435 3.31013 15.1258 3.3209 14.8199 3.23437L14.5337 3.15624L14.2474 3.0703C14.0294 3.00861 13.8131 2.92928 13.5973 2.83593L13.3111 2.71874L13.0069 2.58593C13.0069 2.58593 12.9965 2.5835 12.9771 2.59374L12.6908 2.74999L12.4046 2.89843C12.1111 3.05427 11.7995 3.12899 11.4802 3.09374L10.9792 3.03905C10.7032 3.38439 10.3684 3.36496 10.2398 3.34374C10.0745 3.31619 9.91717 3.24182 9.79244 3.17187L9.48832 3.0078L9.35114 2.92968L9.23786 3.07811L8.99931 3.37499C8.67756 3.77829 8.25985 3.97426 7.80656 3.89061L7.49046 3.82811L7.17438 3.77343C7.15918 3.77062 7.14485 3.76544 7.13859 3.76561H7.13263V3.77343L6.88812 3.97655L6.63764 4.18749C6.53563 4.27433 6.44435 4.37769 6.36331 4.49999L6.17247 4.79687L5.97566 5.08593C5.77469 5.38919 5.53279 5.63065 5.25405 5.79687L4.97972 5.95311L4.71136 6.11718C4.59491 6.18663 4.4912 6.2762 4.39527 6.3828L3.94203 6.8828C3.85459 6.98013 3.77996 7.09118 3.72137 7.21874L3.57228 7.54687L3.41722 7.8828C3.37885 7.96708 3.35459 8.06477 3.34566 8.18749L3.28602 8.99999C3.26096 9.35509 3.20218 9.6982 3.10114 10.0234L2.9938 10.3672L2.89241 10.7031C2.81777 10.9432 2.73906 11.1869 2.65386 11.4297L2.52863 11.7734L2.40935 12.1172C2.36185 12.2526 2.33273 12.3945 2.31989 12.5391L2.28411 12.9141L2.25429 13.2891L2.11116 14.8203C2.09601 14.9833 2.09853 15.1435 2.11713 15.3047L2.15887 15.6875L2.20658 16.0703C2.22385 16.2167 2.2555 16.3571 2.30797 16.4922L2.44513 16.8359L2.57634 17.1797C2.6899 17.472 2.78104 17.778 2.8447 18.0938L2.91627 18.4688L2.9938 18.8359C3.03052 19.0178 3.07892 19.1963 3.14289 19.3672L3.27409 19.7109L3.39933 20.0547C3.44469 20.1759 3.50798 20.2806 3.58421 20.375L4.01359 20.9062C4.18526 21.1181 4.34098 21.3507 4.48473 21.5938L4.66365 21.8984L4.84256 22.1953C4.89393 22.2822 4.95698 22.3533 5.0334 22.4062L5.55821 22.7656C5.69145 22.8571 5.83029 22.9272 5.9697 22.9844L6.24404 23.1016L6.51837 23.2109C6.8327 23.3398 7.10452 23.575 7.32943 23.8828L7.75885 24.4609C7.83069 24.5591 7.90458 24.6264 7.98542 24.6719L8.25977 24.8281L8.52817 24.9766C8.65259 25.046 8.78214 25.0955 8.9158 25.125L9.50023 25.25C9.56809 25.2648 9.64221 25.2625 9.72687 25.2266L10.3113 24.9766C10.5844 24.8607 10.8666 24.808 11.1522 24.8203L11.4385 24.8281L11.7247 24.8438C11.867 24.8498 12.0102 24.8409 12.1541 24.8125L12.4404 24.75L12.7266 24.6953C13.0195 24.637 13.3162 24.6557 13.6033 24.75L14.1758 24.9375C14.3155 24.9833 14.4523 25.0088 14.5873 25.0156L15.1598 25.0469C15.4241 25.0597 15.6872 25.1182 15.9411 25.2266L16.4421 25.4453L16.7044 25.2031L16.9907 24.9453C17.2438 24.7154 17.5408 24.5714 17.8614 24.5781L18.1894 24.6406L18.4756 24.7344L18.7619 24.8359C18.8086 24.8519 18.8513 24.8506 18.905 24.8281L19.1913 24.7031L19.4776 24.5859C19.7789 24.4579 20.0932 24.4179 20.4079 24.4844L20.9805 24.6094C21.1204 24.639 21.2598 24.6485 21.3979 24.6406L21.9704 24.6094C22.1602 24.5985 22.3531 24.5822 22.5429 24.5703L23.1154 24.5391C23.334 24.5255 23.5529 24.5284 23.7714 24.5469L24.344 24.5938C24.6563 24.6203 24.9529 24.7381 25.2266 24.9297L25.7992 25.3359C25.806 25.3407 25.8126 25.3413 25.817 25.3438L26.3895 25.1562C26.5737 25.0926 26.7599 25.0238 26.9442 24.9531L27.5167 24.7344C27.8842 24.5937 28.2567 24.628 28.6021 24.8203L28.8884 24.9766L29.1627 25.1328L29.437 24.9766L29.7233 24.8203L30.0513 24.6953C30.3785 24.6284 30.7019 24.7262 30.9876 24.9531L31.5602 25.4062C31.6338 25.4649 31.6696 25.4696 31.6794 25.4688L31.9656 25.4375L32.2519 25.4141C32.3353 25.406 32.4315 25.3688 32.5441 25.2969L32.8304 25.1172L33.1166 24.9297C33.3813 24.7601 33.6656 24.6532 33.9576 24.6172L34.2438 24.5859L34.5301 24.5469C34.8469 24.5082 35.1553 24.5762 35.4485 24.7266L35.7347 24.8672L36.021 25.0156C36.0956 25.054 36.1551 25.0642 36.2059 25.0547L36.4921 25L36.7784 24.9375C37.0421 24.8869 37.3079 24.8874 37.5716 24.9375L38.1441 25.0469C38.2656 25.07 38.3867 25.0752 38.5079 25.0547L38.7941 25.0078L39.0804 24.9531C39.2237 24.9287 39.373 24.8907 39.5217 24.8281L39.8079 24.7031L40.0942 24.5859C40.3905 24.4618 40.6971 24.4251 41.0067 24.4844L41.5792 24.5938C41.8325 24.6425 42.0822 24.7328 42.3247 24.8594L42.8972 25.1562C42.955 25.1865 42.9934 25.1889 43.0284 25.1797L43.6009 25.0234C43.8714 24.9488 44.1498 24.9267 44.4239 24.9688L44.7102 25.0156L44.9964 25.0547C45.2016 25.0862 45.4059 25.1319 45.6107 25.1797L45.8969 25.2422L46.1832 25.3125C46.2798 25.335 46.3777 25.3303 46.4754 25.3047L46.7617 25.2344L47.0479 25.1562C47.3396 25.0802 47.6337 25.0834 47.9246 25.1641L48.4971 25.3203C48.6003 25.349 48.7012 25.3546 48.8013 25.3359L49.3738 25.2266C49.6028 25.1832 49.8353 25.1612 50.0656 25.1641L50.3518 25.1719H50.6381C50.6956 25.1725 50.7691 25.1558 50.8647 25.0938L51.151 24.9062L51.4372 24.7266C51.72 24.5433 52.024 24.4316 52.3437 24.4297H52.9163C53.2889 24.4276 53.6269 24.5951 53.9182 24.8516L54.4549 25.3203L54.6637 25.2266L54.9499 25.0938C55.2261 24.9633 55.5151 24.8929 55.8087 24.9062L56.3812 24.9375C56.5996 24.9475 56.8196 24.9747 57.0373 25.0156L57.3235 25.0625L57.6098 25.1172C57.7083 25.1356 57.8057 25.1307 57.9079 25.1016L58.1942 25.0234L58.4805 24.9375C58.8369 24.8351 59.1911 24.8937 59.5182 25.0781L59.8044 25.2422L59.9773 25.3359L60.204 25.1328L60.4902 24.8594L60.8182 24.6328C60.9412 24.5744 61.0784 24.5392 61.2237 24.5391C61.511 24.5396 61.7573 24.6775 61.9513 24.8594L62.2376 25.1328L62.5238 25.3984C62.5485 25.4216 62.5684 25.4321 62.5776 25.4375L62.8459 25.3984L63.1321 25.3516C63.39 25.31 63.6502 25.3113 63.9075 25.3594L64.48 25.4688C64.4862 25.47 64.512 25.4721 64.5694 25.4297L65.1419 25.0078C65.4668 24.7677 65.8382 24.657 66.2273 24.75L66.5136 24.8203L66.7998 24.8828C66.9869 24.9275 67.1734 24.974 67.3605 25.0156L67.933 25.1406C68.1317 25.1848 68.3308 25.2359 68.5293 25.2891L69.1018 25.4453L69.1495 25.4141L69.7221 24.9922C70.0563 24.7447 70.4392 24.6392 70.8373 24.7578L71.4098 24.9297C71.562 24.9753 71.7137 25.01 71.8631 25.0234L72.4356 25.0703C72.6018 25.0851 72.7705 25.0924 72.9366 25.0859L73.2228 25.0703L73.5091 25.0625C73.7477 25.0533 73.9878 25.0681 74.2247 25.1172L74.7972 25.2422C74.98 25.28 75.1633 25.3131 75.3459 25.3438L75.9184 25.4375C75.9866 25.4489 76.0598 25.4449 76.145 25.4062L76.7176 25.1406C77.071 24.981 77.4389 24.986 77.7908 25.1484L78.3634 25.4141C78.4267 25.4434 78.4763 25.4429 78.5244 25.4297L79.0969 25.2734C79.2695 25.2256 79.4427 25.1669 79.616 25.1016L79.9023 24.9922L80.1885 24.8906C80.5557 24.7521 80.929 24.7852 81.274 24.9766L81.5603 25.1406L81.8466 25.2969C81.9489 25.3536 82.0366 25.3753 82.1145 25.375H82.4008L82.687 25.3672C82.9 25.3659 83.113 25.3835 83.3252 25.4062L83.6114 25.4375L83.8977 25.4609C83.9542 25.4669 84.0214 25.4617 84.1069 25.4141L84.3931 25.25L84.6794 25.0938C84.9374 24.9488 85.2076 24.8529 85.484 24.8203L85.7702 24.7891L86.0565 24.75C86.2458 24.7279 86.4397 24.711 86.629 24.6875L86.9153 24.6484L87.2015 24.6172C87.5427 24.5754 87.8725 24.6638 88.174 24.8516L88.4603 25.0234L88.7466 25.2031L89.0267 25.0859L89.313 24.9531C89.5534 24.8452 89.7985 24.7715 90.0466 24.7344L90.3328 24.6953L90.6191 24.6484C90.955 24.5983 91.2817 24.677 91.5855 24.8516L92.158 25.1797C92.1649 25.184 92.1718 25.1861 92.1756 25.1875H92.1878L92.7603 24.9375C93.0649 24.8066 93.384 24.778 93.7023 24.8516L93.9885 24.9141L94.2748 24.9844C94.4527 25.0255 94.6336 25.0569 94.8115 25.0859L95.384 25.1797C95.5672 25.2096 95.7496 25.2341 95.9328 25.2578L96.5053 25.3359C96.5351 25.3398 96.584 25.3398 96.6603 25.2891L96.9466 25.0938L97.2328 24.9062L97.5611 24.75C97.7824 24.6856 98.0076 24.6958 98.2229 24.7812L98.5389 24.9688L98.8252 25.1875L99.0817 25.3828L99.3145 25.2734L99.6008 25.1328C99.8145 25.029 100.034 24.9404 100.25 24.8672L100.823 24.6797C101.093 24.5885 101.368 24.5559 101.646 24.5859L102.218 24.6484C102.373 24.6653 102.529 24.6684 102.684 24.6562L103.256 24.6094C103.561 24.5854 103.86 24.6495 104.145 24.7891L104.718 25.0703C104.885 25.1527 105.053 25.2228 105.218 25.2812L105.791 25.4844C105.848 25.5044 105.899 25.5055 105.958 25.4844L106.244 25.375L106.531 25.2734C106.685 25.2167 106.842 25.1382 107.002 25.0469L107.574 24.7188C107.879 24.5441 108.209 24.4695 108.546 24.5234L109.118 24.6172C109.345 24.6539 109.575 24.7112 109.798 24.7891L110.371 24.9922C110.44 25.0157 110.502 25.0125 110.568 24.9922L111.14 24.8203C111.351 24.755 111.566 24.6977 111.779 24.6562L112.351 24.5469C112.723 24.4746 113.078 24.5752 113.395 24.7969L113.967 25.2031C114.06 25.2687 114.129 25.2818 114.176 25.2812H114.462L114.748 25.2734C114.89 25.2717 115.034 25.2556 115.178 25.2188L115.464 25.1406L115.75 25.0703C115.94 25.0216 116.132 24.9708 116.323 24.9219L116.609 24.8516L116.895 24.7734C117.202 24.6945 117.512 24.7132 117.814 24.8203L118.386 25.0234C118.564 25.087 118.746 25.145 118.923 25.1953L119.209 25.2812L119.483 25.3516C119.488 25.3501 119.503 25.3528 119.525 25.3359L119.811 25.1172L120.098 24.9062C120.453 24.6388 120.863 24.5474 121.279 24.7188L121.565 24.8359L121.851 24.9609C121.982 25.0153 122.11 25.0383 122.233 25.0469L122.519 25.0703L122.805 25.0859C123.022 25.1007 123.24 25.1362 123.456 25.1797L124.028 25.2891C124.048 25.2932 124.082 25.2992 124.147 25.2578L124.434 25.0703L124.72 24.8906C125.059 24.672 125.436 24.6007 125.817 24.7266L126.389 24.9141C126.537 24.9625 126.682 24.996 126.825 25.0078L127.398 25.0547C127.623 25.0735 127.847 25.1125 128.071 25.1719L128.357 25.2422L128.644 25.3203C128.693 25.3334 128.745 25.3353 128.811 25.3047L129.097 25.1719L129.383 25.0312L129.676 24.9375C129.972 24.8821 130.266 24.9521 130.54 25.125L131.113 25.4844C131.169 25.5197 131.194 25.5115 131.208 25.5078L131.495 25.4375L131.781 25.3594C131.971 25.3103 132.163 25.2605 132.353 25.2109L132.64 25.1406L132.926 25.0625C133.178 24.9969 133.434 24.9727 133.689 24.9922L134.262 25.0391C134.45 25.0535 134.64 25.0664 134.828 25.0781L135.401 25.1094C135.489 25.1146 135.583 25.1014 135.687 25.0547L135.973 24.9297L136.26 24.7969C136.574 24.6555 136.903 24.6234 137.231 24.7109L137.804 24.8672C138.023 24.9258 138.244 25.0024 138.46 25.0938L139.033 25.3281C139.04 25.331 139.043 25.3356 139.044 25.3359H139.056C139.06 25.3346 139.066 25.3323 139.075 25.3281L139.36 25.1641L139.647 25.0078C139.912 24.8625 140.19 24.7772 140.476 24.7578L140.762 24.7422L141.048 24.7188C141.202 24.7083 141.358 24.6875 141.514 24.6484L141.8 24.5703L142.086 24.5C142.534 24.387 142.94 24.577 143.261 24.8906L143.547 25.1641L143.81 25.4219L144.018 25.3438L144.305 25.2344C144.573 25.1301 144.85 25.0867 145.127 25.1016L145.7 25.1328C145.795 25.1378 145.895 25.1168 146.005 25.0703L146.291 24.9453L146.577 24.8281L146.869 24.7422C147.163 24.6964 147.453 24.765 147.722 24.9375L148.295 25.3125C148.32 25.3291 148.336 25.3281 148.336 25.3281H148.342L148.628 25.2266L148.915 25.1328C149.22 25.03 149.531 25.0203 149.839 25.1094L150.411 25.2812C150.523 25.3136 150.633 25.3194 150.74 25.3047L151.312 25.2266C151.469 25.2046 151.63 25.1672 151.789 25.1172L152.076 25.0234L152.362 24.9375C152.702 24.8309 153.044 24.8613 153.369 25.0156L153.656 25.1484L153.889 25.2578L154.156 25.0625L154.443 24.8438C154.8 24.5706 155.216 24.4785 155.636 24.6562L155.922 24.7812L156.208 24.8984C156.295 24.9354 156.374 24.9425 156.447 24.9297L157.019 24.8359C157.204 24.8036 157.389 24.7648 157.574 24.7266L157.86 24.6641L158.147 24.6094L158.45 24.5859C158.746 24.6061 159.018 24.7466 159.256 24.9531L159.542 25.1953L159.828 25.4453C159.868 25.4797 159.896 25.4888 159.906 25.4922L159.911 25.5L160.198 25.4609L160.484 25.4297C160.548 25.4214 160.632 25.388 160.74 25.3047L161.313 24.8672C161.57 24.6696 161.858 24.5605 162.16 24.5781L162.464 24.6328L162.75 24.7344L163.037 24.8281C163.224 24.8915 163.411 24.955 163.597 25.0156L164.169 25.2031C164.299 25.2451 164.428 25.26 164.551 25.2578H164.838L165.124 25.25C165.266 25.2475 165.409 25.2264 165.553 25.1875L166.126 25.0312C166.311 24.9815 166.495 24.9297 166.681 24.875L166.967 24.7891L167.253 24.7109C167.602 24.6078 167.953 24.651 168.279 24.8203L168.851 25.1172C168.956 25.171 169.048 25.188 169.131 25.1875H169.418L169.704 25.1797C169.842 25.178 169.986 25.1573 170.127 25.1172L170.7 24.9609C171.056 24.8602 171.411 24.9161 171.738 25.1016L172.024 25.2578L172.292 25.4062L172.566 25.2656L172.853 25.1016C173.096 24.9662 173.349 24.8733 173.605 24.8203L174.177 24.6953C174.436 24.642 174.698 24.6391 174.958 24.6797L175.244 24.7266L175.531 24.7656C175.802 24.808 176.065 24.9091 176.318 25.0547L176.605 25.2188L176.837 25.3516L177.087 25.1875L177.373 24.9922C177.66 24.7963 177.975 24.6794 178.304 24.6797H178.876C179.227 24.6803 179.553 24.8188 179.843 25.0469L180.129 25.2734L180.361 25.4531L180.57 25.3438L180.856 25.1797C181.192 24.9875 181.56 24.9336 181.924 25.0547L182.21 25.1484L182.496 25.25C182.558 25.2706 182.618 25.2651 182.681 25.2422L183.253 25.0391C183.441 24.9717 183.627 24.8983 183.815 24.8281L184.101 24.7266L184.387 24.6172L184.727 24.5469C185.055 24.5348 185.36 24.6832 185.615 24.9219L186.188 25.4531C186.195 25.4594 186.201 25.4648 186.206 25.4688L186.45 25.4062L186.737 25.3281C186.843 25.2999 186.963 25.2433 187.095 25.1484L187.381 24.9453L187.667 24.7344C188.09 24.429 188.56 24.4355 188.979 24.7422L189.271 24.9531L189.557 25.1641C189.574 25.1764 189.587 25.177 189.593 25.1797L189.873 25.1016L190.16 25.0234C190.426 24.9458 190.698 24.9178 190.971 24.9453L191.275 24.9766L191.502 24.9922L191.681 24.7266L191.895 24.3984C192.166 23.9877 192.537 23.7288 192.969 23.7031L193.279 23.6875L193.589 23.6641C193.711 23.6565 193.824 23.6246 193.929 23.5703L194.209 23.4219L194.495 23.2812C194.518 23.2693 194.535 23.2561 194.555 23.2109L194.865 22.5078C194.998 22.2122 195.153 21.937 195.331 21.6953L195.527 21.4297L195.73 21.1562C195.803 21.0563 195.858 20.941 195.903 20.8125L196.028 20.4688L196.147 20.125C196.242 19.8561 196.35 19.5984 196.469 19.3516L196.618 19.0391L196.773 18.7266C196.849 18.5721 196.913 18.4057 196.964 18.2344L197.066 17.8906L197.173 17.5469C197.263 17.2506 197.377 16.9634 197.513 16.6875L197.835 16.0156L197.769 15.6484L197.704 15.2578C197.631 14.8308 197.637 14.3972 197.734 13.9766L197.823 13.5938L197.889 13.2891L197.74 13L197.555 12.6484C197.407 12.3639 197.287 12.0661 197.197 11.7578L197.095 11.4219L197 11.0781C196.924 10.8161 196.856 10.5461 196.803 10.2734L196.673 9.5703C196.64 9.40113 196.594 9.23699 196.535 9.07811L196.41 8.74999L196.291 8.42187C196.205 8.19155 196.121 7.95326 196.04 7.71093L195.921 7.35937L195.808 7.02343L195.247 6.71093C194.917 6.52557 194.64 6.22176 194.453 5.81249L194.156 5.14061C194.076 4.96698 193.98 4.80326 193.876 4.64061L193.679 4.32811L193.482 4.02343L193.476 4.01561H193.469L193.166 3.96874L192.861 3.91405C192.654 3.87896 192.453 3.84421 192.259 3.80468L191.973 3.74218L191.692 3.68749C191.503 3.64898 191.317 3.60887 191.132 3.5703L190.857 3.51561L190.583 3.45311C190.334 3.40089 190.088 3.30493 189.85 3.17187L189.289 2.85937C189.272 2.84998 189.263 2.85184 189.26 2.85155C189.257 2.85134 189.25 2.84666 189.235 2.85155L188.949 2.96093L188.663 3.06249C188.427 3.14927 188.188 3.20787 187.947 3.23437L187.375 3.29687C187.107 3.32618 186.839 3.302 186.576 3.22655L186.289 3.14843L186.003 3.06249C185.888 3.02933 185.774 3.02555 185.663 3.03905L185.377 3.0703L185.091 3.10937C184.854 3.13828 184.618 3.13627 184.381 3.10937L183.808 3.04687C183.618 3.02514 183.427 2.99794 183.236 2.97655L182.663 2.91405C182.419 2.88655 182.175 2.82765 181.936 2.73437L181.65 2.61718L181.363 2.5078C181.242 2.46052 181.124 2.43712 181.011 2.43749H180.439C180.409 2.43799 180.355 2.45305 180.266 2.52343L179.979 2.74999L179.693 2.98437C179.304 3.29482 178.844 3.35395 178.405 3.09374L178.119 2.92187L177.833 2.7578L177.827 2.74999L177.559 2.89061L177.273 3.03124C176.997 3.16631 176.707 3.23411 176.414 3.22655L175.841 3.21093C175.67 3.20664 175.498 3.21379 175.328 3.22655L174.756 3.27343C174.571 3.28729 174.386 3.30164 174.201 3.3203L173.915 3.35155L173.628 3.37499C173.35 3.40312 173.07 3.36685 172.799 3.27343L172.513 3.17968L172.227 3.07811C172.17 3.05912 172.119 3.05612 172.06 3.07811L171.487 3.29687C171.116 3.43533 170.74 3.3866 170.396 3.18749L169.824 2.85937C169.671 2.77133 169.521 2.70371 169.376 2.65624L168.804 2.46874H168.798C168.794 2.46972 168.782 2.47156 168.762 2.48437L168.476 2.67968L168.189 2.86718C167.885 3.06912 167.545 3.17059 167.193 3.12499L166.621 3.04687C166.379 3.01536 166.141 2.95269 165.905 2.85937L165.619 2.74999L165.363 2.64061L165.369 2.64843L164.796 3.08593C164.521 3.29875 164.219 3.44303 163.895 3.47655L163.609 3.5078L163.323 3.53124C163.055 3.55893 162.787 3.53729 162.524 3.46093L162.237 3.37499L161.951 3.29687C161.759 3.24094 161.566 3.18325 161.373 3.12499L161.086 3.03905L160.8 2.9453C160.776 2.93819 160.749 2.94123 160.699 2.96874L160.127 3.28124C159.8 3.46156 159.449 3.51481 159.095 3.41405L158.808 3.33593L158.522 3.24999C158.266 3.17673 158.012 3.06184 157.771 2.90624L157.485 2.71874L157.198 2.53905C157.105 2.47912 157.034 2.46034 156.978 2.46093L156.692 2.46874H156.405C156.199 2.47229 155.991 2.46618 155.785 2.45311L155.212 2.42187C155.094 2.41433 154.972 2.42428 154.849 2.46093Z" fill="black"/>
</g>
<defs>
<clipPath id="clip0_4_1503">
<rect width="200" height="28" fill="white"/>
</clipPath>
</defs>
</svg>
