<svg width="4" height="78" viewBox="0 0 4 78" fill="none" xmlns="http://www.w3.org/2000/svg">
<g clip-path="url(#clip0_3_2324)">
<path d="M2 0.152941H1V0.168868L1.00022 0.184793L2 0.152941ZM2.00486 77.5412L3.00459 77.5783L3.00473 77.566L2.00486 77.5412ZM2 77.8471L1.00029 77.8099L1 77.8286V77.8471H2ZM2 0H1V0.152941H2H3V0H2ZM2 0.152941L1.00022 0.184793C1.03338 2.61939 0.961744 4.35882 0.812043 5.47344L1.79159 5.78118L2.77114 6.08891C2.96653 4.63412 3.03384 2.6214 2.99978 0.12109L2 0.152941ZM1.79159 5.78118L0.812043 5.47344C0.600768 7.0465 0.684618 8.61778 1.04902 10.1562L1.98923 9.63529L2.92944 9.11436C2.68523 8.0834 2.63732 7.08526 2.77114 6.08891L1.79159 5.78118ZM1.98923 9.63529L1.04902 10.1562C1.31962 11.2986 1.46284 12.424 1.48564 13.5373L2.48515 13.4894L3.48466 13.4415C3.45484 11.9854 3.26744 10.5414 2.92944 9.11436L1.98923 9.63529ZM2.48515 13.4894L1.48564 13.5373C1.50774 14.6163 1.39184 15.7083 1.12788 16.8225L2.06806 17.3435L3.00824 17.8646C3.35302 16.4094 3.51518 14.9319 3.48466 13.4415L2.48515 13.4894ZM2.06806 17.3435L1.12788 16.8225C0.78187 18.2829 0.624426 19.7664 0.666168 21.2628L1.66526 21.1976L2.66435 21.1325C2.63442 20.0595 2.74551 18.9736 3.00824 17.8646L2.06806 17.3435ZM1.66526 21.1976L0.666168 21.2628C0.704715 22.6448 0.829018 24.0235 1.03809 25.3982L2.01209 25.0518L2.98609 24.7054C2.80439 23.5106 2.69748 22.3199 2.66435 21.1325L1.66526 21.1976ZM2.01209 25.0518L1.03809 25.3982C1.2076 26.5128 1.2475 27.6184 1.16045 28.7228L2.15327 28.9059L3.14608 29.089C3.26155 27.6239 3.20733 26.1601 2.98609 24.7054L2.01209 25.0518ZM2.15327 28.9059L1.16045 28.7228C1.04964 30.1286 1.04927 31.5359 1.15934 32.9418L2.15225 32.76L3.14516 32.5782C3.05406 31.4147 3.05437 30.2525 3.14608 29.089L2.15327 28.9059ZM2.15225 32.76L1.15934 32.9418C1.25947 34.2207 1.35473 35.4996 1.44512 36.7785L2.43933 36.6141L3.43354 36.4497C3.34232 35.1592 3.24619 33.8687 3.14516 32.5782L2.15225 32.76ZM2.43933 36.6141L1.44512 36.7785C1.52001 37.838 1.44591 38.9052 1.21356 39.9935L2.16418 40.4682L3.1148 40.943C3.43093 39.4619 3.54026 37.9597 3.43354 36.4497L2.43933 36.6141ZM2.16418 40.4682L1.21356 39.9935C0.888539 41.5162 0.818532 43.0635 1.01322 44.6113L1.99521 44.3224L2.97721 44.0334C2.8487 43.0118 2.89134 41.9897 3.1148 40.943L2.16418 40.4682ZM1.99521 44.3224L1.01322 44.6113C1.15741 45.7576 1.19525 46.8988 1.128 48.0391L2.12396 48.1765L3.11991 48.3138C3.2042 46.8847 3.15621 45.4566 2.97721 44.0334L1.99521 44.3224ZM2.12396 48.1765L1.128 48.0391C1.05029 49.3569 1.00082 50.6749 0.979639 51.993L1.97934 52.0306L2.97903 52.0682C2.99915 50.8169 3.0461 49.5655 3.11991 48.3138L2.12396 48.1765ZM1.97934 52.0306L0.979639 51.993C0.959762 53.2296 0.901795 54.4666 0.80567 55.7042L1.79869 55.8847L2.79171 56.0652C2.89515 54.7334 2.95761 53.4009 2.97903 52.0682L1.97934 52.0306ZM1.79869 55.8847L0.80567 55.7042C0.700654 57.0564 0.655032 58.4093 0.668944 59.7628L1.66882 59.7388L2.6687 59.7148C2.6562 58.4988 2.69716 57.2824 2.79171 56.0652L1.79869 55.8847ZM1.66882 59.7388L0.668944 59.7628C0.682466 61.0784 0.721957 62.3937 0.787405 63.709L1.78452 63.5929L2.78164 63.4769C2.71923 62.2227 2.68159 60.9686 2.6687 59.7148L1.66882 59.7388ZM1.78452 63.5929L0.787405 63.709C0.849953 64.9659 0.889937 66.2228 0.907368 67.4795L1.90714 67.4471L2.90692 67.4146C2.88871 66.1019 2.84695 64.7894 2.78164 63.4769L1.78452 63.5929ZM1.90714 67.4471L0.907368 67.4795C0.926606 68.8665 1.03628 70.2506 1.23536 71.6308L2.21187 71.3012L3.18839 70.9716C3.0168 69.7823 2.92332 68.597 2.90692 67.4146L1.90714 67.4471ZM2.21187 71.3012L1.23536 71.6308C1.39165 72.714 1.40198 73.7894 1.26747 74.869L2.24979 75.1553L3.23212 75.4416C3.41771 73.9518 3.40276 72.4577 3.18839 70.9716L2.21187 71.3012ZM2.24979 75.1553L1.26747 74.869C1.11422 76.0991 1.00995 77.0473 1.00499 77.5164L2.00486 77.5412L3.00473 77.566C3.00472 77.5666 3.00583 77.5195 3.01511 77.3991C3.02372 77.2873 3.03719 77.1399 3.05642 76.9525C3.09485 76.5781 3.15304 76.0763 3.23212 75.4416L2.24979 75.1553ZM2.00486 77.5412L1.00515 77.504L1.00029 77.8099L2 77.8471L2.99971 77.8842L3.00459 77.5783L2.00486 77.5412ZM2 77.8471H1V78H2H3V77.8471H2Z" fill="black"/>
</g>
<defs>
<clipPath id="clip0_3_2324">
<rect width="4" height="78" fill="white"/>
</clipPath>
</defs>
</svg>
