<svg width="277" height="4" viewBox="0 0 277 4" fill="none" xmlns="http://www.w3.org/2000/svg">
<path d="M0.1 2V3H0.127199L0.154358 2.99852L0.1 2ZM6.3 2.10185L6.05213 1.13305L6.3 2.10185ZM18.9 1.75851L18.9221 2.75827L18.9 1.75851ZM31.5 2.16403L31.2086 1.20744L31.5 2.16403ZM59.22 1.70239L59.4179 2.68262L59.22 1.70239ZM74.34 2.10165L74.1497 1.11993L74.34 2.10165ZM127.26 2.00769L127.105 2.99555L127.26 2.00769ZM142.38 2.10481L142.035 3.04335L142.38 2.10481ZM149.94 2.04073L149.701 3.01168L149.94 2.04073ZM207.9 1.75603L207.694 2.73448L207.9 1.75603ZM238.14 2.11187L238.318 1.12789L238.14 2.11187ZM258.3 2.22553L258.216 1.22907L258.3 2.22553ZM275.34 1.94911L275.022 2.89729L275.34 1.94911ZM276 2.08514H277V1.62319L276.648 1.32372L276 2.08514ZM275.9 2V1H273.183L275.252 2.76142L275.9 2ZM0 2V3H0.1V2V1H0V2ZM0.1 2L0.154358 2.99852C1.74168 2.91211 2.85946 2.9672 3.56456 3.12276L3.78 2.14624L3.99544 1.16972C3.02054 0.954638 1.68499 0.912234 0.0456417 1.00148L0.1 2ZM3.78 2.14624L3.56456 3.12276C4.55873 3.34209 5.55742 3.32404 6.54787 3.07064L6.3 2.10185L6.05213 1.13305C5.36258 1.30948 4.68127 1.32103 3.99544 1.16972L3.78 2.14624ZM6.3 2.10185L6.54787 3.07064C7.34986 2.86545 8.15038 2.7108 8.94963 2.60632L8.82 1.61476L8.69037 0.623192C7.80962 0.738333 6.93014 0.908413 6.05213 1.13305L6.3 2.10185ZM8.82 1.61476L8.94963 2.60632C9.71498 2.50626 10.4792 2.49335 11.2437 2.56734L11.34 1.57199L11.4363 0.576646C10.5208 0.488032 9.60502 0.503621 8.69037 0.623192L8.82 1.61476ZM11.34 1.57199L11.2437 2.56734C12.1252 2.65267 13.0071 2.68251 13.8891 2.65681L13.86 1.65723L13.8309 0.657654C13.0329 0.680911 12.2348 0.653933 11.4363 0.576646L11.34 1.57199ZM13.86 1.65723L13.8891 2.65681C14.6975 2.63325 15.5058 2.64807 16.3143 2.70129L16.38 1.70345L16.4457 0.705605C15.5742 0.648238 14.7025 0.632249 13.8309 0.657654L13.86 1.65723ZM16.38 1.70345L16.3143 2.70129C17.1835 2.7585 18.0528 2.7775 18.9221 2.75827L18.9 1.75851L18.8779 0.758754C18.0672 0.776688 17.2565 0.758977 16.4457 0.705605L16.38 1.70345ZM18.9 1.75851L18.9221 2.75827C19.6646 2.74184 20.4106 2.83223 21.1626 3.03253L21.42 2.06622L21.6774 1.0999C20.7494 0.852759 19.8154 0.738014 18.8779 0.758754L18.9 1.75851ZM21.42 2.06622L21.1626 3.03253C22.1861 3.30511 23.2173 3.28263 24.2345 2.96917L23.94 2.01352L23.6455 1.05786C22.9827 1.26212 22.3339 1.27477 21.6774 1.0999L21.42 2.06622ZM23.94 2.01352L24.2345 2.96917C24.9962 2.73443 25.7514 2.60299 26.5019 2.57152L26.46 1.5724L26.4181 0.573279C25.4886 0.612257 24.5638 0.774895 23.6455 1.05786L23.94 2.01352ZM26.46 1.5724L26.5019 2.57152C27.1873 2.54278 27.8845 2.66676 28.6022 2.95961L28.98 2.03373L29.3578 1.10785C28.3955 0.715154 27.4127 0.531572 26.4181 0.573279L26.46 1.5724ZM28.98 2.03373L28.6022 2.95961C29.6474 3.38615 30.7237 3.44592 31.7914 3.12062L31.5 2.16403L31.2086 1.20744C30.5963 1.39396 29.9926 1.36687 29.3578 1.10785L28.98 2.03373ZM31.5 2.16403L31.7914 3.12062C32.5377 2.89327 33.2755 2.78628 34.0083 2.79487L34.02 1.79494L34.0317 0.795012C33.0845 0.783901 32.1423 0.922966 31.2086 1.20744L31.5 2.16403ZM34.02 1.79494L34.0083 2.79487C34.8516 2.80477 35.6948 2.8105 36.5381 2.81208L36.54 1.81208L36.5419 0.812081C35.7052 0.810517 34.8684 0.804827 34.0317 0.795012L34.02 1.79494ZM36.54 1.81208L36.5381 2.81208C37.2786 2.81346 38.0237 2.9236 38.7761 3.14639L39.06 2.18754L39.3439 1.2287C38.4163 0.954013 37.4814 0.813838 36.5419 0.812081L36.54 1.81208ZM39.06 2.18754L38.7761 3.14639C39.747 3.4339 40.7295 3.51427 41.7144 3.38072L41.58 2.38979L41.4456 1.39886C40.7505 1.49312 40.053 1.43866 39.3439 1.2287L39.06 2.18754ZM41.58 2.38979L41.7144 3.38072C42.5307 3.27002 43.3466 3.1892 44.1624 3.13821L44.1 2.14015L44.0376 1.1421C43.1734 1.19613 42.3094 1.28173 41.4456 1.39886L41.58 2.38979ZM44.1 2.14015L44.1624 3.13821C44.9594 3.08839 45.7562 3.09014 46.5532 3.14346L46.62 2.14569L46.6868 1.14792C45.8038 1.08885 44.9206 1.08691 44.0376 1.1421L44.1 2.14015ZM46.62 2.14569L46.5532 3.14346C47.3932 3.19966 48.2332 3.25586 49.0732 3.31208L49.14 2.31432L49.2068 1.31655C48.3668 1.26033 47.5268 1.20412 46.6868 1.14792L46.62 2.14569ZM49.14 2.31432L49.0732 3.31208C49.9346 3.36973 50.796 3.39962 51.6576 3.40173L51.66 2.40173L51.6625 1.40174C50.844 1.39973 50.0254 1.37134 49.2068 1.31655L49.14 2.31432ZM51.66 2.40173L51.6576 3.40173C52.5869 3.40401 53.5129 3.28314 54.4337 3.04164L54.18 2.07436L53.9263 1.10707C53.1671 1.3062 52.4131 1.40358 51.6625 1.40174L51.66 2.40173ZM54.18 2.07436L54.4337 3.04164C55.1669 2.84933 55.8927 2.78569 56.6158 2.84676L56.7 1.85031L56.7842 0.853855C55.8273 0.77304 54.8731 0.85876 53.9263 1.10707L54.18 2.07436ZM56.7 1.85031L56.6158 2.84676C57.5517 2.9258 58.4866 2.87059 59.4179 2.68262L59.22 1.70239L59.0221 0.722163C58.2734 0.873305 57.5283 0.916702 56.7842 0.853855L56.7 1.85031ZM59.22 1.70239L59.4179 2.68262C60.0619 2.55263 60.7089 2.60766 61.3808 2.86626L61.74 1.93299L62.0992 0.999722C61.0911 0.611755 60.0581 0.513052 59.0221 0.722163L59.22 1.70239ZM61.74 1.93299L61.3808 2.86626C62.3637 3.24454 63.3685 3.3803 64.3814 3.25638L64.26 2.26378L64.1386 1.27118C63.4715 1.35278 62.7963 1.26801 62.0992 0.999722L61.74 1.93299ZM64.26 2.26378L64.3814 3.25638C65.2288 3.15272 66.0762 3.03946 66.9235 2.91661L66.78 1.92696L66.6365 0.937305C65.8038 1.05803 64.9712 1.16932 64.1386 1.27118L64.26 2.26378ZM66.78 1.92696L66.9235 2.91661C67.6911 2.80531 68.4573 2.77935 69.2233 2.83831L69.3 1.84126L69.3767 0.844213C68.4627 0.773857 67.5489 0.805025 66.6365 0.937305L66.78 1.92696ZM69.3 1.84126L69.2233 2.83831C70.0352 2.90081 70.8475 2.99777 71.6603 3.12927L71.82 2.14211L71.9797 1.15494C71.1125 1.01463 70.2448 0.911031 69.3767 0.844213L69.3 1.84126ZM71.82 2.14211L71.6603 3.12927C72.6171 3.28406 73.5755 3.2685 74.5303 3.08337L74.34 2.10165L74.1497 1.11993C73.4245 1.26055 72.703 1.27195 71.9797 1.15494L71.82 2.14211ZM74.34 2.10165L74.5303 3.08337C75.3545 2.92356 76.1785 2.78445 77.0023 2.66601L76.86 1.67618L76.7177 0.686363C75.8615 0.809466 75.0055 0.953997 74.1497 1.11993L74.34 2.10165ZM76.86 1.67618L77.0023 2.66601C77.668 2.57029 78.3399 2.64296 79.0325 2.89962L79.38 1.96193L79.7275 1.02423C78.7401 0.658355 77.732 0.540531 76.7177 0.686363L76.86 1.67618ZM79.38 1.96193L79.0325 2.89962C79.9606 3.24352 80.8993 3.44434 81.8459 3.49561L81.9 2.49708L81.9541 1.49854C81.2207 1.45882 80.4794 1.30287 79.7275 1.02423L79.38 1.96193ZM81.9 2.49708L81.8459 3.49561C82.7492 3.54454 83.6522 3.50787 84.554 3.3859L84.42 2.39492L84.286 1.40394C83.5078 1.50918 82.7308 1.54061 81.9541 1.49854L81.9 2.49708ZM84.42 2.39492L84.554 3.3859C85.4485 3.26493 86.3404 3.06952 87.2295 2.80066L86.94 1.84347L86.6505 0.886287C85.8596 1.12548 85.0715 1.2977 84.286 1.40394L84.42 2.39492ZM86.94 1.84347L87.2295 2.80066C87.8462 2.61415 88.4542 2.63935 89.0909 2.89222L89.46 1.96284L89.8291 1.03345C88.7858 0.619115 87.7138 0.56474 86.6505 0.886287L86.94 1.84347ZM89.46 1.96284L89.0909 2.89222C90.0541 3.27476 91.0369 3.44847 92.0306 3.3981L91.98 2.39938L91.9294 1.40067C91.2431 1.43545 90.5459 1.31812 89.8291 1.03345L89.46 1.96284ZM91.98 2.39938L92.0306 3.3981C92.9581 3.3511 93.8809 3.18337 94.7972 2.89814L94.5 1.94333L94.2028 0.988513C93.4391 1.22621 92.6819 1.36253 91.9294 1.40067L91.98 2.39938ZM94.5 1.94333L94.7972 2.89814C95.5592 2.66096 96.3146 2.5271 97.0651 2.4932L97.02 1.49422L96.9749 0.495236C96.0454 0.537217 95.1208 0.702768 94.2028 0.988513L94.5 1.94333ZM97.02 1.49422L97.0651 2.4932C97.7617 2.46174 98.4675 2.57501 99.1898 2.84503L99.54 1.90835L99.8902 0.971663C98.9325 0.613631 97.9583 0.450818 96.9749 0.495236L97.02 1.49422ZM99.54 1.90835L99.1898 2.84503C100.218 3.22935 101.27 3.28899 102.318 3.00983L102.06 2.04356L101.802 1.07729C101.17 1.2459 100.542 1.2154 99.8902 0.971663L99.54 1.90835ZM102.06 2.04356L102.318 3.00983C102.993 2.82972 103.66 2.82565 104.334 2.99667L104.58 2.02737L104.826 1.05808C103.82 0.802904 102.807 0.809625 101.802 1.07729L102.06 2.04356ZM104.58 2.02737L104.334 2.99667C105.236 3.22552 106.142 3.36349 107.05 3.40926L107.1 2.41053L107.15 1.4118C106.378 1.37288 105.604 1.25542 104.826 1.05808L104.58 2.02737ZM107.1 2.41053L107.05 3.40926C108.028 3.4586 108.999 3.30801 109.955 2.9678L109.62 2.02567L109.285 1.08354C108.561 1.34117 107.852 1.44715 107.15 1.4118L107.1 2.41053ZM109.62 2.02567L109.955 2.9678C110.674 2.71207 111.377 2.61336 112.072 2.6606L112.14 1.6629L112.208 0.665203C111.223 0.598297 110.246 0.741434 109.285 1.08354L109.62 2.02567ZM112.14 1.6629L112.072 2.6606C112.924 2.71846 113.775 2.76144 114.627 2.78954L114.66 1.79008L114.693 0.790626C113.865 0.763298 113.036 0.721491 112.208 0.665203L112.14 1.6629ZM114.66 1.79008L114.627 2.78954C115.481 2.81772 116.335 2.82773 117.19 2.81957L117.18 1.81962L117.17 0.819664C116.345 0.82755 115.519 0.817871 114.693 0.790626L114.66 1.79008ZM117.18 1.81962L117.19 2.81957C118.011 2.81173 118.832 2.82715 119.653 2.86583L119.7 1.86694L119.747 0.868044C118.888 0.82759 118.029 0.811462 117.17 0.819664L117.18 1.81962ZM119.7 1.86694L119.653 2.86583C120.453 2.90349 121.253 2.98963 122.054 3.12444L122.22 2.1383L122.386 1.15216C121.507 1.00429 120.627 0.909511 119.747 0.868044L119.7 1.86694ZM122.22 2.1383L122.054 3.12444C123.02 3.28694 123.987 3.26422 124.95 3.05768L124.74 2.07993L124.53 1.10219C123.813 1.25616 123.1 1.27235 122.386 1.15216L122.22 2.1383ZM124.74 2.07993L124.95 3.05768C125.671 2.90291 126.387 2.88273 127.105 2.99555L127.26 2.00769L127.415 1.01983C126.453 0.868459 125.489 0.896445 124.53 1.10219L124.74 2.07993ZM127.26 2.00769L127.105 2.99555C127.999 3.13625 128.896 3.20126 129.792 3.19018L129.78 2.19026L129.768 1.19034C128.984 1.20001 128.201 1.1433 127.415 1.01983L127.26 2.00769ZM129.78 2.19026L129.792 3.19018C130.647 3.17962 131.502 3.14984 132.357 3.10083L132.3 2.10247L132.243 1.10411C131.418 1.15141 130.593 1.18015 129.768 1.19034L129.78 2.19026ZM132.3 2.10247L132.357 3.10083C133.136 3.05621 133.914 3.08332 134.694 3.1824L134.82 2.19038L134.946 1.19836C134.046 1.08393 133.144 1.05243 132.243 1.10411L132.3 2.10247ZM134.82 2.19038L134.694 3.1824C135.655 3.3046 136.616 3.25111 137.571 3.02479L137.34 2.05177L137.109 1.07874C136.384 1.25076 135.665 1.28968 134.946 1.19836L134.82 2.19038ZM137.34 2.05177L137.571 3.02479C138.351 2.83974 139.129 2.73058 139.904 2.69624L139.86 1.69722L139.816 0.698197C138.911 0.738248 138.009 0.86545 137.109 1.07874L137.34 2.05177ZM139.86 1.69722L139.904 2.69624C140.603 2.66528 141.311 2.77723 142.035 3.04335L142.38 2.10481L142.725 1.16626C141.769 0.814546 140.797 0.654762 139.816 0.698197L139.86 1.69722ZM142.38 2.10481L142.035 3.04335C143.001 3.39873 143.985 3.54452 144.977 3.46786L144.9 2.47083L144.823 1.4738C144.135 1.52695 143.439 1.42873 142.725 1.16626L142.38 2.10481ZM144.9 2.47083L144.977 3.46786C145.876 3.39838 146.773 3.24903 147.667 3.02077L147.42 2.05184L147.173 1.08291C146.387 1.28348 145.604 1.41346 144.823 1.4738L144.9 2.47083ZM147.42 2.05184L147.667 3.02077C148.348 2.847 149.021 2.84416 149.701 3.01168L149.94 2.04073L150.179 1.06978C149.179 0.823282 148.172 0.827854 147.173 1.08291L147.42 2.05184ZM149.94 2.04073L149.701 3.01168C150.638 3.24261 151.581 3.32816 152.526 3.26536L152.46 2.26756L152.394 1.26976C151.659 1.31854 150.922 1.25287 150.179 1.06978L149.94 2.04073ZM152.46 2.26756L152.526 3.26536C153.392 3.20786 154.258 3.11669 155.123 2.99193L154.98 2.00217L154.837 1.0124C154.022 1.12991 153.208 1.21568 152.394 1.26976L152.46 2.26756ZM154.98 2.00217L155.123 2.99193C155.842 2.88823 156.56 2.91531 157.284 3.07519L157.5 2.09872L157.716 1.12224C156.76 0.911112 155.798 0.873828 154.837 1.0124L154.98 2.00217ZM157.5 2.09872L157.284 3.07519C158.289 3.29713 159.298 3.26312 160.295 2.97763L160.02 2.01625L159.745 1.05487C159.062 1.25035 158.391 1.27132 157.716 1.12224L157.5 2.09872ZM160.02 2.01625L160.295 2.97763C161.05 2.7615 161.799 2.65416 162.543 2.6522L162.54 1.65221L162.537 0.652209C161.602 0.654673 160.67 0.790031 159.745 1.05487L160.02 2.01625ZM162.54 1.65221L162.543 2.6522C163.333 2.65012 164.123 2.70699 164.915 2.82308L165.06 1.83366L165.205 0.844243C164.317 0.713965 163.427 0.649866 162.537 0.652209L162.54 1.65221ZM165.06 1.83366L164.915 2.82308C165.763 2.94743 166.611 3.06135 167.459 3.16483L167.58 2.1722L167.701 1.17956C166.869 1.07803 166.037 0.96626 165.205 0.844243L165.06 1.83366ZM167.58 2.1722L167.459 3.16483C168.42 3.2821 169.38 3.22476 170.333 2.99582L170.1 2.02345L169.867 1.05108C169.14 1.22549 168.42 1.26731 167.701 1.17956L167.58 2.1722ZM170.1 2.02345L170.333 2.99582C171.015 2.83215 171.691 2.83661 172.374 3.01009L172.62 2.04084L172.866 1.07159C171.869 0.818544 170.865 0.811418 169.867 1.05108L170.1 2.02345ZM172.62 2.04084L172.374 3.01009C173.286 3.24178 174.203 3.36635 175.123 3.38192L175.14 2.38207L175.157 1.38221C174.397 1.36934 173.634 1.26643 172.866 1.07159L172.62 2.04084ZM175.14 2.38207L175.123 3.38192C176.096 3.39839 177.059 3.22538 178.008 2.87311L177.66 1.93563L177.312 0.998147C176.581 1.26958 175.864 1.39419 175.157 1.38221L175.14 2.38207ZM177.66 1.93563L178.008 2.87311C178.625 2.64424 179.218 2.64355 179.834 2.87048L180.18 1.93216L180.526 0.993841C179.462 0.601692 178.376 0.603309 177.312 0.998147L177.66 1.93563ZM180.18 1.93216L179.834 2.87048C180.774 3.21694 181.727 3.39967 182.689 3.41019L182.7 2.41025L182.711 1.41031C181.993 1.40245 181.266 1.26646 180.526 0.993841L180.18 1.93216ZM182.7 2.41025L182.689 3.41019C183.601 3.42015 184.511 3.33276 185.418 3.149L185.22 2.16889L185.022 1.18878C184.249 1.3452 183.479 1.41871 182.711 1.41031L182.7 2.41025ZM185.22 2.16889L185.418 3.149C186.246 2.98148 187.073 2.83075 187.9 2.69678L187.74 1.70965L187.58 0.722517C186.727 0.860692 185.874 1.01612 185.022 1.18878L185.22 2.16889ZM187.74 1.70965L187.9 2.69678C188.543 2.59253 189.196 2.66983 189.876 2.95277L190.26 2.0294L190.644 1.10602C189.644 0.690495 188.617 0.554623 187.58 0.722517L187.74 1.70965ZM190.26 2.0294L189.876 2.95277C190.891 3.37464 191.936 3.48763 192.986 3.26687L192.78 2.28827L192.574 1.30968C191.944 1.44222 191.309 1.38262 190.644 1.10602L190.26 2.0294ZM192.78 2.28827L192.986 3.26687C193.764 3.10329 194.539 3.01708 195.313 3.00733L195.3 2.00741L195.287 1.00749C194.381 1.01891 193.476 1.11995 192.574 1.30968L192.78 2.28827ZM195.3 2.00741L195.313 3.00733C196.214 2.99597 197.114 2.90225 198.012 2.72687L197.82 1.74542L197.628 0.763964C196.846 0.916723 196.066 0.99767 195.287 1.00749L195.3 2.00741ZM197.82 1.74542L198.012 2.72687C198.722 2.5882 199.428 2.59163 200.139 2.73752L200.34 1.75794L200.541 0.778362C199.572 0.579414 198.598 0.5745 197.628 0.763964L197.82 1.74542ZM200.34 1.75794L200.139 2.73752C201.005 2.91537 201.873 3.05675 202.74 3.16153L202.86 2.16875L202.98 1.17596C202.167 1.07784 201.355 0.945341 200.541 0.778362L200.34 1.75794ZM202.86 2.16875L202.74 3.16153C203.732 3.28139 204.72 3.17601 205.693 2.85526L205.38 1.90554L205.067 0.955818C204.36 1.18892 203.668 1.25901 202.98 1.17596L202.86 2.16875ZM205.38 1.90554L205.693 2.85526C206.371 2.63184 207.032 2.5948 207.694 2.73448L207.9 1.75603L208.106 0.777572C207.088 0.562743 206.069 0.625379 205.067 0.955818L205.38 1.90554ZM207.9 1.75603L207.694 2.73448C208.646 2.93543 209.603 2.96944 210.559 2.83486L210.42 1.84461L210.281 0.854368C209.557 0.956172 208.834 0.931126 208.106 0.777572L207.9 1.75603ZM210.42 1.84461L210.559 2.83486C211.275 2.73409 211.992 2.76628 212.714 2.93399L212.94 1.95991L213.166 0.985824C212.208 0.763418 211.245 0.718748 210.281 0.854368L210.42 1.84461ZM212.94 1.95991L212.714 2.93399C213.718 3.16712 214.727 3.14463 215.726 2.86951L215.46 1.90542L215.194 0.941327C214.513 1.12897 213.842 1.14281 213.166 0.985824L212.94 1.95991ZM215.46 1.90542L215.726 2.86951C216.459 2.66759 217.183 2.59605 217.905 2.65034L217.98 1.65316L218.055 0.655983C217.097 0.583856 216.141 0.680491 215.194 0.941327L215.46 1.90542ZM217.98 1.65316L217.905 2.65034C218.662 2.70734 219.424 2.85838 220.193 3.10645L220.5 2.15483L220.807 1.20322C219.896 0.908815 218.978 0.725411 218.055 0.655983L217.98 1.65316ZM220.5 2.15483L220.193 3.10645C221.214 3.43609 222.251 3.46526 223.28 3.18826L223.02 2.22262L222.76 1.25697C222.109 1.43207 221.466 1.41605 220.807 1.20322L220.5 2.15483ZM223.02 2.22262L223.28 3.18826C223.999 2.99476 224.709 2.94401 225.418 3.03134L225.54 2.03885L225.662 1.04636C224.691 0.92661 223.721 0.998372 222.76 1.25697L223.02 2.22262ZM225.54 2.03885L225.418 3.03134C226.297 3.1397 227.176 3.19558 228.056 3.19886L228.06 2.19887L228.064 1.19888C227.264 1.19589 226.463 1.14509 225.662 1.04636L225.54 2.03885ZM228.06 2.19887L228.056 3.19886C228.869 3.2019 229.681 3.23865 230.494 3.30916L230.58 2.31291L230.666 1.31665C229.799 1.24139 228.931 1.20212 228.064 1.19888L228.06 2.19887ZM230.58 2.31291L230.494 3.30916C231.453 3.39243 232.41 3.30479 233.359 3.05053L233.1 2.08461L232.841 1.11868C232.11 1.3146 231.387 1.37916 230.666 1.31665L230.58 2.31291ZM233.1 2.08461L233.359 3.05053C234.1 2.85182 234.835 2.77418 235.566 2.81382L235.62 1.81528L235.674 0.816749C234.725 0.765303 233.78 0.867207 232.841 1.11868L233.1 2.08461ZM235.62 1.81528L235.566 2.81382C236.364 2.85707 237.162 2.95099 237.962 3.09585L238.14 2.11187L238.318 1.12789C237.438 0.968381 236.556 0.864581 235.674 0.816749L235.62 1.81528ZM238.14 2.11187L237.962 3.09585C238.965 3.27762 239.968 3.21089 240.957 2.90368L240.66 1.9487L240.363 0.993728C239.672 1.20845 238.995 1.2505 238.318 1.12789L238.14 2.11187ZM240.66 1.9487L240.957 2.90368C241.599 2.70408 242.228 2.70752 242.873 2.91554L243.18 1.96387L243.487 1.01219C242.452 0.678063 241.401 0.671392 240.363 0.993728L240.66 1.9487ZM243.18 1.96387L242.873 2.91554C243.83 3.22433 244.799 3.34663 245.774 3.27443L245.7 2.27716L245.626 1.2799C244.921 1.33212 244.21 1.24555 243.487 1.01219L243.18 1.96387ZM245.7 2.27716L245.774 3.27443C246.685 3.20693 247.594 3.04174 248.497 2.78069L248.22 1.81995L247.943 0.859217C247.166 1.08336 246.395 1.22298 245.626 1.2799L245.7 2.27716ZM248.22 1.81995L248.497 2.78069C249.112 2.60323 249.721 2.63558 250.361 2.89807L250.74 1.97288L251.12 1.04768C250.079 0.621076 249.008 0.551478 247.943 0.859217L248.22 1.81995ZM250.74 1.97288L250.361 2.89807C251.358 3.30702 252.382 3.44214 253.415 3.28061L253.26 2.29262L253.105 1.30463C252.458 1.40587 251.802 1.32783 251.12 1.04768L250.74 1.97288ZM253.26 2.29262L253.415 3.28061C254.173 3.16195 254.93 3.13837 255.687 3.20932L255.78 2.21369L255.873 1.21805C254.95 1.13149 254.027 1.16053 253.105 1.30463L253.26 2.29262ZM255.78 2.21369L255.687 3.20932C256.586 3.29361 257.485 3.29784 258.384 3.22199L258.3 2.22553L258.216 1.22907C257.435 1.29495 256.654 1.29129 255.873 1.21805L255.78 2.21369ZM258.3 2.22553L258.384 3.22199C259.181 3.15473 259.978 3.13902 260.775 3.17481L260.82 2.17582L260.865 1.17683C259.982 1.13716 259.099 1.15459 258.216 1.22907L258.3 2.22553ZM260.82 2.17582L260.775 3.17481C261.641 3.21371 262.507 3.21866 263.373 3.18965L263.34 2.19021L263.307 1.19077C262.493 1.21803 261.679 1.21338 260.865 1.17683L260.82 2.17582ZM263.34 2.19021L263.373 3.18965C264.291 3.15891 265.206 3.02192 266.116 2.78059L265.86 1.81398L265.604 0.84737C264.834 1.05142 264.069 1.16524 263.307 1.19077L263.34 2.19021ZM265.86 1.81398L266.116 2.78059C266.816 2.59518 267.506 2.56853 268.198 2.69678L268.38 1.71354L268.562 0.730292C267.574 0.547098 266.584 0.587412 265.604 0.84737L265.86 1.81398ZM268.38 1.71354L268.198 2.69678C269.123 2.86828 270.051 2.91753 270.98 2.84343L270.9 1.8466L270.82 0.849765C270.069 0.909707 269.317 0.870241 268.562 0.730292L268.38 1.71354ZM270.9 1.8466L270.98 2.84343C271.796 2.77833 272.611 2.74285 273.427 2.73698L273.42 1.737L273.413 0.73703C272.549 0.743249 271.684 0.780833 270.82 0.849765L270.9 1.8466ZM273.42 1.737L273.427 2.73698C274.231 2.73119 274.74 2.80259 275.022 2.89729L275.34 1.94911L275.658 1.00093C275.06 0.800737 274.289 0.730725 273.413 0.73703L273.42 1.737ZM275.34 1.94911L275.022 2.89729C275.249 2.97332 275.461 3.03771 275.633 3.07311C275.704 3.08772 275.849 3.11559 276.011 3.10722C276.081 3.10359 276.276 3.0893 276.484 2.97121C276.76 2.81424 277 2.49928 277 2.08514H276H275C275 1.91951 275.043 1.73554 275.149 1.56456C275.253 1.39878 275.386 1.29433 275.496 1.23207C275.69 1.12178 275.865 1.11211 275.907 1.10991C276.013 1.10439 276.076 1.12236 276.037 1.11429C275.989 1.10435 275.871 1.07234 275.658 1.00093L275.34 1.94911ZM276 2.08514L276.648 1.32372L276.548 1.23858L275.9 2L275.252 2.76142L275.352 2.84655L276 2.08514ZM275.9 2V3H276V2V1H275.9V2Z" fill="black"/>
</svg>
