<svg width="39" height="37" viewBox="0 0 39 37" fill="none" xmlns="http://www.w3.org/2000/svg">
<g clip-path="url(#clip0_7_2)">
<path d="M4.76 35.32C4.536 35.32 4.344 35.256 4.216 35.128C3.832 34.744 3.64 34.36 3.544 34.008C3.224 32.984 2.968 31.928 2.968 30.872C2.968 30.808 2.968 30.744 2.968 30.68C2.968 29.432 2.68 28.376 2.552 27.192C2.52 27.032 2.52 26.872 2.52 26.68C2.52 26.36 2.552 26.04 2.552 25.72C2.552 25.272 2.456 24.856 2.392 24.376C2.296 23.608 2.168 22.776 2.168 21.912C2.168 21.432 2.168 20.92 2.168 20.408C2.168 19.736 1.944 19.032 1.944 18.328C1.944 17.816 1.752 17.24 1.752 16.6C1.752 16.504 1.688 16.376 1.624 16.216C1.496 15.96 1.432 15.736 1.432 15.544C1.432 15.256 1.592 14.936 1.848 14.68C2.136 14.392 2.584 13.944 3.288 13.944C3.832 13.944 4.376 13.944 4.92 13.88C5.944 13.784 7.512 12.984 8.408 12.952C8.952 12.92 9.272 12.696 9.624 12.696C9.752 12.696 9.88 12.696 10.008 12.696C10.36 12.696 10.744 12.6 11.256 12.536C11.608 12.504 12.056 12.408 12.472 12.408C12.92 12.408 13.24 12.504 13.592 12.536C13.816 12.568 14.008 12.568 14.2 12.568C14.552 12.568 14.872 12.536 15.224 12.408C16.088 12.12 16.792 12.28 17.272 11.8C17.368 11.704 17.528 11.608 17.656 11.544C18.168 11.256 18.68 11.224 19.192 11.128C19.48 11.096 19.8 11.128 20.024 11.128C20.664 11.128 21.304 11.032 21.976 11C22.232 10.968 22.488 10.968 22.744 10.968C23.224 10.968 23.704 11 24.184 11C24.696 11 25.208 11.096 25.528 11.096C25.88 11.096 26.168 11.224 26.264 11.224C26.424 11.224 26.648 11.288 26.744 11.288C27 11.288 27.16 11.32 27.32 11.32C27.48 11.32 27.64 11.288 27.832 11.288C28.28 11.288 28.664 11.288 29.048 11.128C29.336 11 31.064 10.584 31.512 10.36C31.928 10.168 32.248 10.2 32.44 10.136C32.76 10.04 33.016 10.04 33.272 9.944C33.368 9.912 33.464 9.912 33.56 9.912C33.944 9.912 34.232 10.104 34.584 10.264C34.872 10.392 34.968 10.68 34.968 10.968C34.968 11.256 35.16 11.544 35.16 11.928C35.16 12.056 35.128 12.216 35.128 12.248C35.128 12.568 35.256 12.952 35.352 13.304C35.448 13.656 35.448 13.944 35.448 14.2C35.448 14.328 35.416 14.456 35.416 14.552C35.416 14.68 35.416 14.776 35.416 14.84C35.416 15.064 35.448 15.288 35.448 15.48C35.448 15.576 35.448 15.672 35.416 15.8C35.384 15.928 35.352 16.056 35.352 16.184C35.352 16.28 35.416 16.376 35.416 16.504C35.416 16.6 35.416 16.664 35.416 16.728C35.416 16.952 35.384 17.208 35.352 17.4C35.32 17.496 35.32 17.56 35.32 17.688C35.32 17.72 35.288 17.88 35.288 18.072C35.288 18.232 35.288 18.36 35.352 18.488C35.48 18.808 35.512 19 35.512 19.16C35.512 19.384 35.448 19.48 35.448 19.544C35.448 19.64 35.48 19.704 35.544 19.896C35.672 20.184 35.672 20.536 35.672 20.696C35.672 20.888 36.312 22.328 36.312 22.904C36.312 23.512 36.44 24.088 36.44 24.664C36.44 26.072 36.312 27.448 36.312 28.792C36.312 29.144 36.248 29.432 36.248 29.688C36.248 30.136 36.024 30.36 35.64 30.552C35.32 30.712 34.936 30.808 34.616 30.808C34.328 30.808 34.072 30.776 33.848 30.776C33.208 30.776 32.824 30.872 32.408 31C32.088 31.096 30.488 31.32 29.88 31.32C29.688 31.32 29.592 31.384 29.272 31.384C29.08 31.384 28.92 31.48 28.6 31.48C28.408 31.48 26.84 31.64 26.424 31.64C26.072 31.64 25.848 31.64 25.624 31.704C25.272 31.8 22.648 32.312 22.424 32.312C22.072 32.312 21.784 32.216 21.496 32.216C21.048 32.216 20.312 32.184 19.448 32.6C18.68 32.952 18.136 32.92 17.752 32.984C17.336 33.048 16.952 33.144 16.504 33.144C16.152 33.144 15.768 33.24 15.448 33.24C14.648 33.24 13.912 33.432 13.144 33.592C12.504 33.752 11.896 34.04 11.128 34.36C10.456 34.648 9.72 34.68 9.016 34.68C8.536 34.68 7.928 34.904 7.256 34.904C7.032 34.904 6.84 34.904 6.648 34.904C6.104 34.904 5.752 34.904 5.464 35.096C5.208 35.256 4.952 35.32 4.76 35.32ZM5.304 30.168C5.464 30.168 5.944 28.984 6.392 28.536C7.256 27.672 8.184 26.904 9.08 26.008C9.208 25.88 9.304 25.688 9.4 25.496C9.56 25.08 9.784 24.728 10.136 24.344C10.744 23.64 11.352 22.904 11.64 22.04C11.832 21.4 12.344 21.368 11.96 21.24C11.448 21.08 10.68 20.952 10.008 20.408C9.656 20.152 9.144 19.768 8.6 19.768C8.152 19.768 7.704 19.544 7.288 19.384C6.648 19.128 4.472 17.688 4.472 18.136C4.472 18.808 4.472 19.416 4.472 20.024C4.472 20.312 4.472 20.568 4.536 20.824C4.632 21.24 4.664 21.592 4.664 22.008C4.664 22.168 4.664 22.296 4.664 22.392C4.664 22.552 4.696 22.712 4.728 22.872C4.856 23.32 4.856 23.864 4.856 24.376C4.856 24.984 4.92 25.592 5.016 26.232C5.048 26.616 5.016 28.28 5.016 28.504C5.016 28.792 5.016 29.048 5.016 29.272C5.016 29.528 5.144 30.168 5.304 30.168ZM6.904 32.44C6.936 32.44 6.968 32.44 7 32.44C7.192 32.44 7.352 32.376 7.672 32.376C7.864 32.376 8.088 32.376 8.312 32.376C9.176 32.376 9.944 32.184 10.776 31.832C11.64 31.448 12.568 31 13.72 31C13.848 31 13.976 30.968 14.104 30.936C15.064 30.776 16.12 30.904 16.952 30.776C17.432 30.712 17.848 30.648 18.264 30.424C19.032 30.04 19.896 29.88 20.696 29.88C20.92 29.88 21.272 29.848 21.592 29.912C21.912 29.976 22.264 30.104 22.584 30.104C23.096 30.104 23.576 29.976 24.024 29.816C24.408 29.688 24.824 29.496 25.208 29.496C25.56 29.496 26.008 29.336 26.52 29.336C26.776 29.336 27 29.4 27.192 29.432C27.288 29.464 27.384 29.464 27.448 29.464C27.64 29.464 27.832 29.464 28.088 29.368C28.632 29.176 29.08 29.016 29.624 29.016C30.264 29.016 32.408 29.112 32.152 28.856C32.088 28.792 31.992 28.728 31.928 28.696C31.288 28.376 31 27.8 30.584 27.256C30.264 26.808 29.88 26.68 29.4 26.296C29.048 26.04 28.664 25.752 28.184 25.56C27.832 25.432 27.32 25.368 27 25.048C26.936 24.984 26.84 24.92 26.648 24.92C26.232 24.92 26.232 24.696 26.136 24.696C25.272 24.696 24.76 23.768 24.184 23.352C23.928 23.16 23.32 22.264 23.096 22.264C23 22.264 22.776 22.264 22.84 22.264C22.936 22.264 22.84 22.36 22.744 22.424C22.424 22.712 22.104 22.872 21.848 23.064C21.688 23.192 21.528 23.288 21.4 23.384C21.048 23.576 20.824 23.8 20.6 24.088C20.504 24.216 20.344 24.28 20.184 24.376C19.8 24.632 19.608 25.144 18.872 25.144C18.36 25.144 17.944 25.016 17.528 24.76C17.176 24.568 16.824 24.312 16.472 24.088C15.864 23.704 14.584 22.872 14.328 22.872C14.072 22.872 13.816 23.48 13.688 23.8C13.496 24.28 13.176 24.696 12.824 25.048C12.536 25.336 11.32 27.032 10.872 27.48C10.296 28.056 9.656 28.696 9.144 29.208C8.952 29.4 8.696 29.528 8.568 29.656C8.28 29.944 7.416 31.224 7.32 31.544C7.256 31.8 7.096 31.992 7.032 32.184C7 32.248 6.808 32.44 6.904 32.44ZM5.4 13.24C5.176 13.24 4.92 13.144 4.76 13.144C4.472 13.144 3.32 12.952 3.128 12.952C2.776 12.952 2.36 12.728 2.232 12.408C2.136 12.12 2.104 11.896 2.04 11.704C1.944 11.352 1.752 10.84 1.752 10.424C1.752 10.392 1.752 10.328 1.752 10.264C1.752 9.752 1.464 9.272 1.336 8.76C1.208 8.152 1.144 7.544 1.048 6.872C0.951997 6.392 0.567997 5.816 0.567997 5.24C0.567997 5.144 0.407997 4.952 0.407997 4.76C0.407997 4.664 0.471997 4.536 0.535997 4.472C0.855997 4.152 1.208 3.96 1.528 3.896C2.36 3.768 2.936 3.576 3.544 3.224C3.736 3.096 3.928 3.096 4.088 3.096C4.536 3.096 5.08 3.256 5.336 3.512C5.496 3.672 5.56 3.768 5.656 3.832C6.04 4.12 6.264 4.536 6.264 4.984C6.264 5.496 6.008 5.752 5.624 5.944C5.528 5.976 5.432 5.976 5.336 5.976C5.08 5.976 4.792 5.848 4.632 5.688C4.472 5.528 4.408 5.336 4.376 5.336C3.896 5.336 3.448 5.752 3 6.008C2.84 6.104 2.808 6.136 2.808 6.2C2.808 6.232 2.872 6.296 2.904 6.392C2.968 6.552 2.936 7.064 3.032 7.288C3.128 7.608 3.992 7.032 4.472 7.032C4.568 7.032 4.664 7.032 4.792 7.032C5.4 7.032 5.752 7.416 5.752 7.96C5.752 8.12 5.816 8.248 5.688 8.376C5.624 8.44 5.592 8.664 5.336 8.92C5.176 9.08 4.984 9.176 4.856 9.176C4.76 9.176 4.632 9.144 4.504 9.144C4.344 9.144 4.056 9.208 3.768 9.496C3.64 9.624 3.512 9.752 3.512 9.88C3.512 10.072 3.8 10.296 3.928 10.648C4.024 10.872 4.024 10.872 4.184 10.936C4.536 11.032 4.824 11.16 5.208 11.16C5.592 11.16 5.944 11.448 5.944 11.864C5.944 12.056 6.072 12.312 6.072 12.568C6.072 12.824 5.88 13.24 5.4 13.24ZM18.36 22.328C18.456 22.392 18.488 22.36 18.552 22.296C18.84 22.008 19.416 21.816 19.864 21.56C19.928 21.528 19.928 21.528 19.992 21.464C20.12 21.336 20.248 21.208 20.376 21.08C21.304 20.152 22.904 19.832 23.64 19.096C23.768 18.968 23.96 18.872 24.152 18.872C24.344 18.872 24.472 18.68 24.696 18.424C25.048 17.976 25.592 17.528 26.168 17.176C26.584 16.92 26.808 16.792 26.968 16.568C27.096 16.376 27.288 16.12 27.64 15.928C27.768 15.832 27.864 15.704 27.928 15.64C28.44 15.128 28.92 14.808 29.56 14.488C29.752 14.392 31.096 13.112 31.032 12.92C30.968 12.728 30.264 13.016 29.368 13.432C29.208 13.496 28.856 13.592 28.312 13.592C27.832 13.592 27.384 13.592 26.936 13.592C26.648 13.592 26.392 13.592 26.168 13.528C25.688 13.4 25.336 13.4 24.76 13.4C24.664 13.4 24.408 13.304 24.376 13.304C24.152 13.304 23.96 13.304 23.768 13.304C23.544 13.304 23.256 13.432 23 13.432C22.616 13.432 22.264 13.528 21.912 13.528C21.816 13.528 21.752 13.528 21.688 13.528C21.496 13.528 21.208 13.432 21.112 13.432C20.984 13.432 20.76 13.528 20.472 13.528C20.376 13.528 20.312 13.528 20.248 13.528C19.896 13.528 19.672 13.56 19.384 13.656C19.032 13.784 18.616 14.072 18.168 14.168C17.624 14.264 14.488 15 14.2 15C13.976 15 13.784 15 13.624 15C13.24 15 13.016 14.872 12.888 14.872C12.792 14.872 12.664 14.904 12.536 14.968C12.344 15.064 12.152 15.064 11.96 15.064C11.672 15.064 9.688 15.352 9.592 15.352C9.528 15.352 9.304 15.48 8.92 15.48C8.728 15.48 8.408 15.8 7.96 16.024C7.864 16.056 7.768 16.056 7.672 16.056C7.448 16.056 7.256 16.024 7.096 16.024C6.808 16.024 6.616 16.12 6.616 16.216C6.616 16.312 6.968 16.344 7.352 16.568C7.8 16.856 8.216 16.952 8.76 17.144C9.272 17.336 9.848 17.464 10.392 17.784C10.68 17.976 10.968 18.168 11.256 18.296C11.704 18.488 11.96 18.616 12.248 18.616C12.632 18.616 12.984 18.808 13.336 18.872C13.944 19 14.872 19.96 15.064 20.184C15.288 20.472 15.48 20.536 15.736 20.536C16.184 20.536 18.008 22.136 18.36 22.328ZM7.864 12.44C7.032 12.44 6.776 11.128 6.776 10.712C6.776 9.976 6.68 9.208 6.68 8.408C6.68 8.088 6.776 7.8 6.776 7.512C6.776 6.776 6.968 6.04 6.968 5.4C6.968 4.952 7.16 4.44 7.608 4.12C7.768 3.992 7.992 3.96 8.152 3.96C8.344 3.96 8.632 3.992 8.76 4.12C8.888 4.248 9.144 4.472 9.208 4.696C9.368 5.144 9.688 5.496 9.816 5.912C9.944 6.264 10.072 6.552 10.072 6.744C10.072 7 10.232 7.032 10.328 7.032C10.392 7.032 10.424 6.712 10.424 6.52C10.424 5.976 10.616 5.624 10.616 5.272C10.616 5.144 10.712 4.984 10.712 4.952C10.712 4.504 10.968 4.152 11.256 3.864C11.48 3.64 11.8 3.608 11.992 3.608C12.216 3.608 12.344 3.768 12.504 3.832C12.888 3.992 13.048 4.216 13.336 4.664C13.528 4.952 13.752 4.952 13.88 5.176C14.072 5.592 14.328 5.976 14.52 6.36C14.712 6.744 14.936 7.128 15.096 7.544C15.16 7.704 15.128 7.928 15.128 8.056C15.128 8.216 15.512 8.216 15.512 8.824C15.512 9.304 15.256 10.2 14.648 10.2C14.36 10.2 13.56 10.168 13.304 9.592C13.048 9.048 12.76 8.504 12.664 7.96C12.6 7.544 12.216 5.88 12.216 6.648C12.216 7.448 11.992 8.248 11.992 8.728C11.992 8.792 12.184 10.68 11.096 10.68C10.552 10.68 10.328 10.136 10.04 9.848C9.912 9.72 9.784 9.464 9.656 9.336C9.592 9.272 9.432 9.24 9.336 9.016C9.112 8.536 9.016 8.312 8.504 8.12C8.376 8.088 8.536 8.376 8.536 8.536C8.536 8.824 8.472 9.176 8.472 9.496C8.472 9.752 8.536 9.976 8.632 10.168C8.76 10.392 8.664 10.488 8.664 10.744C8.664 10.808 8.664 10.84 8.664 10.872C8.664 11 8.696 11.128 8.76 11.288C8.824 11.416 8.824 11.544 8.824 11.64C8.824 11.96 8.664 12.184 8.28 12.344C8.12 12.408 7.992 12.44 7.864 12.44ZM34.072 27.384C34.072 26.648 34.104 25.912 34.104 25.144C34.104 24.984 34.104 24.824 34.104 24.664C34.104 24.344 33.88 21.784 33.784 21.432C33.624 20.888 33.272 20.248 33.272 19.544C33.272 19.448 33.208 19.224 33.208 19.064C33.208 18.904 33.08 18.584 33.08 18.328C33.08 17.432 33.304 16.664 33.304 15.832C33.304 15.352 33.4 14.424 33.112 14.392C32.984 14.392 32.888 14.68 32.76 14.808C32.696 14.872 32.632 15.128 32.344 15.288C31.96 15.48 31.352 16.216 30.712 16.76C30.424 16.984 30.008 17.208 29.72 17.464C29.336 17.784 28.984 18.168 28.504 18.616C28.312 18.776 28.12 19.032 27.864 19.16C27.288 19.448 26.872 19.704 26.52 20.088C26.2 20.44 25.976 20.728 25.624 20.92C25.528 20.984 25.464 21.016 25.432 21.048C25.4 21.08 25.528 21.176 25.592 21.24C25.88 21.528 26.04 22.264 26.456 22.264C26.488 22.264 26.52 22.264 26.552 22.296C26.776 22.52 27.16 22.616 27.48 22.744C27.896 22.904 28.216 23.032 28.6 23.16C28.856 23.256 29.208 23.384 29.368 23.544C29.624 23.8 29.944 23.896 30.232 24.056C30.52 24.216 30.776 24.408 31 24.6C31.448 24.952 31.8 25.368 32.216 25.688C32.824 26.2 34.072 28.312 34.072 27.384ZM20.92 9.048C20.824 9.048 20.728 9.016 20.632 8.984C20.568 8.952 20.504 8.952 20.44 8.952C20.376 8.952 20.312 8.952 20.28 8.952C20.152 8.952 20.024 8.952 19.896 8.824C19.48 8.312 19.576 7.352 19.576 6.648C19.576 6.584 19.576 6.488 19.576 6.392C19.576 6.296 19.608 6.104 19.512 6.104C19.48 6.104 19.384 6.136 19.16 6.136C19 6.136 18.84 6.136 18.712 6.136C18.488 6.136 18.296 6.136 18.296 6.2C18.296 6.648 18.008 7 18.008 7.224C18.008 7.32 18.008 7.416 18.008 7.48C18.008 7.576 18.008 7.64 18.072 7.736C18.104 7.768 18.104 7.832 18.104 7.896C18.104 8.024 18.072 8.184 18.008 8.312C17.88 8.632 17.592 8.984 17.208 8.984C16.312 8.984 16.184 8.056 16.088 7.8C16.024 7.64 16.024 6.712 16.024 6.52C16.024 5.72 16.216 5.016 16.472 4.376C16.536 4.248 16.504 4.248 16.504 4.088C16.504 3.736 16.696 3.448 16.696 3.224C16.696 3.064 16.696 2.488 16.856 2.328C16.952 2.232 16.92 2.168 16.92 2.04C16.92 1.496 17.592 0.951996 17.944 0.823997C18.168 0.727997 18.424 0.727997 18.584 0.727997C19.192 0.727997 19.704 1.016 20.088 1.496C20.408 1.944 20.632 2.392 20.856 2.872C21.112 3.448 21.432 3.992 21.688 4.536C21.784 4.728 21.72 4.952 21.72 5.144C21.72 5.688 21.816 6.136 21.816 6.584C21.816 6.648 21.88 6.744 21.88 6.84C21.88 6.936 21.848 7.032 21.816 7.128C21.784 7.192 21.784 7.256 21.784 7.32C21.784 7.512 21.848 7.672 21.88 7.928C21.912 8.024 21.912 8.152 21.912 8.248C21.912 8.632 21.72 8.984 21.304 8.984C21.24 8.984 21.112 9.048 20.92 9.048ZM19.448 4.568C19.928 4.568 19.192 3.64 18.936 3.384C18.872 3.32 18.776 3.32 18.744 3.32C18.648 3.32 18.488 3.32 18.488 3.48C18.488 3.704 18.424 3.832 18.424 3.992C18.424 4.152 18.488 4.248 18.488 4.28C18.488 4.6 19.16 4.568 19.448 4.568ZM24.376 9.4C24.12 9.4 23.864 9.272 23.768 9.272C23.544 9.272 23.384 9.08 23.288 8.92C23.096 8.6 22.904 8.28 22.904 7.448C22.904 7.192 22.968 6.872 22.968 6.52C22.968 6.264 22.968 6.008 22.968 5.752C22.968 5.24 23.064 4.6 23.064 4.088C23.064 3.992 23 3.768 23 3.576C23 3.384 23.032 3.192 23.032 3C23.032 2.872 23 2.744 22.968 2.584C22.936 2.52 22.936 2.488 22.936 2.424C22.936 2.232 23.064 2.104 23.256 1.912C23.544 1.624 23.672 1.432 23.96 1.432C24.088 1.432 24.312 1.528 24.632 1.752C24.824 1.912 25.24 1.976 25.24 2.392C25.24 3 24.952 3.48 24.952 4.088C24.952 4.248 25.08 5.464 25.08 5.848C25.08 6.264 25.08 6.68 25.08 7.064C25.08 7.352 25.08 7.576 25.208 7.8C25.272 7.896 25.464 7.992 25.368 8.408C25.272 8.92 24.824 9.4 24.376 9.4ZM32.824 8.984C32.408 8.984 32.152 8.6 32.024 8.536C31.832 8.472 31.032 8.312 30.776 8.312C30.68 8.312 30.488 8.408 30.264 8.408C30.072 8.408 29.752 8.376 29.528 8.28C29.336 8.184 29.24 8.184 29.176 8.216C28.792 8.312 28.504 8.376 28.28 8.376C27.608 8.376 27.544 8.056 27.48 7.992C27.32 7.832 27.288 7.64 27.288 7.448C27.288 6.872 27.32 6.296 27.32 5.688C27.32 5.464 27.416 5.24 27.416 5.08C27.416 4.824 27.32 4.536 27.32 4.152C27.32 4.088 27.256 3.864 27.384 3.736C27.544 3.576 27.544 3.416 27.544 3.096C27.544 2.84 27.512 2.552 27.512 2.264C27.512 1.976 27.544 1.688 27.672 1.4C27.736 1.208 27.896 1.144 28.088 1.016C28.28 0.887997 28.504 0.759996 28.728 0.759996C28.984 0.759996 29.208 0.919996 29.432 1.144C29.688 1.4 29.816 1.752 29.816 2.104C29.816 2.264 29.816 2.392 29.816 2.488C29.816 2.808 29.848 2.968 29.784 3.224C29.72 3.544 29.624 3.96 29.624 4.248C29.624 4.664 29.624 5.08 29.624 5.464C29.624 5.656 29.624 5.816 29.656 5.88C29.752 6.072 29.816 6.136 29.88 6.136C30.168 6.136 30.456 6.008 30.936 6.008C31.192 6.008 31.512 6.04 31.768 6.2C32.12 6.456 32.728 6.392 33.144 6.744C33.24 6.808 33.304 6.84 33.56 6.84C33.912 6.84 34.04 7.064 34.04 7.384C34.04 8.024 33.464 8.984 32.824 8.984ZM56.597 29.976C56.149 29.976 55.605 29.336 55.413 29.144C55.029 28.76 54.741 28.248 54.741 27.736C54.741 27.384 54.837 27.16 55.061 26.424C55.093 26.232 55.125 26.008 55.125 25.752C55.125 25.176 55.061 24.44 55.285 23.576C55.509 22.712 55.541 22.2 55.541 21.784C55.541 21.368 55.509 21.048 55.509 20.6C55.509 19.8 55.701 19.416 55.701 18.776C55.701 18.616 55.701 18.456 55.669 18.264C55.605 17.592 55.925 16.536 55.925 15.992C55.925 14.872 55.509 14.648 55.477 13.784C55.445 13.208 55.061 12.792 54.901 12.568C54.709 12.28 54.581 11.928 54.581 11.576C54.581 11.224 54.709 10.904 54.901 10.616C55.125 10.296 55.477 10.136 55.861 10.136C56.725 10.136 57.685 10.488 57.877 11.384C58.005 11.928 58.549 11.928 58.645 12.92C58.677 13.176 58.645 13.368 58.805 13.72C59.221 14.712 58.901 15.864 59.221 16.952C59.317 17.208 59.317 17.464 59.317 17.72C59.317 18.104 59.285 18.424 59.221 18.584C59.093 19.064 58.965 19.576 58.965 20.088C58.965 20.344 59.093 20.6 59.093 21.112C59.093 21.528 58.997 22.168 58.837 22.808C58.741 23.256 58.613 23.704 58.677 24.504C58.677 24.696 58.709 24.888 58.709 25.112C58.709 25.848 58.581 26.68 58.293 27.352C58.101 27.8 58.101 28.056 58.101 28.248C58.101 28.888 58.037 29.304 57.557 29.528C57.141 29.72 57.077 29.976 56.597 29.976ZM67.6765 30.392C66.6525 30.392 66.1405 29.624 66.1405 28.568C66.1405 28.056 66.6845 27.096 66.6205 25.88C66.5885 25.208 66.6525 24.888 66.7805 24.408C67.2925 22.328 67.0045 21.784 67.0045 21.048C67.0045 19.832 67.4525 19.48 67.2925 16.952C67.1965 15.512 67.4525 15.16 67.5165 14.456C67.5805 13.816 67.2285 12.632 67.6765 11.864C68.0605 11.224 68.3165 10.776 68.9885 10.776C69.9805 10.776 70.8765 11.256 71.3565 12.184C72.0605 13.592 72.4445 13.4 73.3725 14.424C74.1085 15.224 73.8525 15.608 75.0685 16.408C76.1565 17.144 75.6445 17.592 76.3805 18.36C77.5005 19.512 77.5005 20.344 77.9485 20.6C77.9805 20.344 78.0765 20.152 78.1085 19.736C78.2685 17.368 78.7805 18.456 78.6525 15.96C78.5245 13.56 79.0045 14.136 79.0045 12.024C79.0045 11.512 79.0045 11.032 79.0045 10.52C79.0045 9.752 79.2605 9.24 79.9005 9.048C80.1885 8.952 80.4445 8.92 80.7005 8.92C81.2125 8.92 81.5965 9.112 81.9805 9.336C82.4285 9.656 82.5885 10.136 82.5885 10.68C82.5885 11.608 82.2365 11.8 82.2365 12.728C82.2365 12.888 82.2685 13.016 82.2685 13.208C82.3965 13.976 82.0765 14.168 82.1725 14.808C82.3325 15.768 81.7245 17.112 81.5965 18.36C81.5325 18.84 81.4365 19.96 81.4045 20.312C81.3405 20.792 81.0845 21.272 80.9885 21.784C80.9245 22.072 80.9245 22.36 80.9245 22.68C80.9245 22.968 80.9565 23.192 80.9565 23.48C80.9565 23.704 80.8285 23.992 80.6045 24.344C80.4765 24.536 80.4125 24.728 80.4125 24.952C80.4125 25.112 80.4765 25.272 80.5085 25.464C80.7325 26.648 79.9645 27.064 79.3885 27.064C78.6205 27.064 77.7565 26.648 77.4685 25.88C76.7645 23.96 76.5085 24.76 76.0605 23.16C75.8685 22.424 75.4205 22.68 75.1005 21.88C74.6525 20.792 74.3645 20.952 73.8525 20.024C73.6285 19.608 73.4365 18.904 72.9245 18.616C72.2525 18.264 72.4445 17.816 72.1245 17.624C71.3885 17.144 71.2285 16.376 70.6205 16.056C70.6205 16.376 70.5245 16.504 70.5565 16.76C70.6845 18.488 70.2685 18.168 70.3645 19.864C70.4285 21.048 70.0765 21.08 70.0765 21.56C70.0765 21.88 70.2685 22.264 70.2685 22.712C70.2685 22.84 70.2365 22.968 70.2045 23.096C69.9805 24.056 70.0765 25.464 69.8525 26.232C69.7565 26.616 69.6925 26.84 69.6925 27.032C69.6925 27.32 69.7885 27.512 69.7885 27.736C69.7885 28.312 69.4045 28.152 69.3405 29.272C69.3085 29.784 68.4125 30.392 67.6765 30.392ZM91.9885 31.288C91.4445 31.288 91.1565 31.192 90.9005 31C90.4845 30.712 90.1325 30.328 89.9725 29.816C89.6525 28.888 89.3965 27.928 89.3965 26.968C89.3965 26.04 89.6205 25.656 89.6205 24.952C89.6205 24.728 89.5565 24.504 89.5565 24.152C89.5565 23.576 89.9085 22.488 89.9085 22.04C89.9085 21.4 89.7805 18.968 89.8445 18.008C89.8765 17.56 89.9725 17.112 89.9725 16.664C89.9725 16.216 89.8765 15.8 89.8765 15.352C89.8765 14.616 89.9405 13.848 90.0365 13.112C90.0685 12.76 90.1325 12.44 90.2605 12.12C90.4205 11.768 90.5485 11.416 90.5805 11.032C90.7405 9.848 91.3485 9.048 92.0845 8.536C92.3725 8.344 93.0445 7.96 93.6845 7.96C94.2605 7.96 94.7725 8.056 95.2845 8.152C95.6685 8.216 96.0205 8.12 96.6925 8.12C97.8125 8.12 98.8365 8.536 99.8285 9.08C100.693 9.56 101.525 10.04 102.197 10.84C102.485 11.192 102.773 11.672 102.645 11.992C102.293 12.92 102.005 13.336 101.557 13.336C101.205 13.336 100.661 13.464 100.213 12.632C99.9565 12.184 99.4125 12.408 98.0685 11.48C97.4925 11.096 96.7565 11.096 96.0845 11.096C95.7325 11.096 95.4125 11.128 95.0605 11.192C94.4845 11.32 94.2285 11.672 94.0045 12.216C93.8765 12.568 93.5565 12.888 93.3645 13.208C93.2365 13.432 93.0765 13.72 93.1725 14.264C93.2045 14.424 93.2045 14.584 93.2045 14.712C93.2045 15.224 93.0445 15.512 93.0445 16.12C93.0445 16.408 93.0765 16.632 93.0765 16.792C93.5885 16.824 94.0365 16.856 94.3885 17.08C95.1565 17.56 95.7325 17.272 96.9485 17.912C97.3325 18.104 97.6845 18.2 98.1645 18.136C98.9005 18.04 99.3805 18.584 99.7325 19.16C99.7965 19.288 99.8285 19.416 99.8285 19.544C99.8285 19.672 99.7645 19.8 99.7005 19.928C99.5405 20.312 99.2845 20.792 98.9965 21.112C98.8685 21.272 98.6445 21.272 98.4845 21.272C98.0045 21.272 97.5885 21.272 97.1725 21.048C96.2445 20.536 95.2845 20.728 94.7725 20.44C94.0045 19.992 93.3965 20.056 93.0445 20.056C92.8845 20.6 92.9485 21.368 92.9485 21.656C92.9485 22.488 92.8845 23 92.7245 23.544C92.6925 23.768 92.6605 24.024 92.6605 24.248C92.6605 24.6 92.7885 25.048 92.7885 25.624C92.7885 26.36 92.5965 27.192 92.5965 28.056C92.5965 28.632 92.7245 29.144 92.8525 29.432C93.0445 29.816 93.0445 30.008 93.0445 30.2C93.0445 30.52 92.7565 30.872 92.5965 31.032C92.4045 31.224 92.1485 31.288 91.9885 31.288ZM113.591 30.808C112.663 30.808 111.703 30.456 111.255 29.912C110.551 29.08 109.719 29.112 109.143 28.152C108.695 27.416 108.311 27.576 107.735 26.776C107.286 26.2 107.319 25.848 107.031 25.432C106.647 24.92 106.391 24.504 106.263 23.928C106.167 23.416 106.455 22.872 105.879 21.176C105.431 19.896 106.199 19.512 106.103 18.168C106.039 17.336 107.191 15.832 107.479 13.944C107.607 13.048 108.215 12.376 108.663 11.928C108.983 11.608 109.303 11.8 110.039 10.904C110.775 10.008 110.967 10.52 111.831 9.944C112.247 9.656 112.919 9.624 113.495 9.624C114.839 9.624 116.087 10.296 116.855 10.84C117.271 11.128 117.431 11.16 117.847 11.224C118.615 11.352 119.222 12.088 119.895 13.336C120.087 13.688 120.087 13.944 120.375 14.52C120.599 14.936 121.047 14.968 121.207 16.12C121.335 17.016 121.878 17.144 121.878 18.232C121.878 18.872 122.103 19.768 122.103 20.088C122.103 20.632 121.975 21.144 121.719 21.688C121.463 22.232 121.431 22.552 121.399 22.936C121.367 23.352 121.335 23.8 121.015 24.632C120.887 25.016 120.119 25.848 119.895 27.064C119.767 27.768 119.255 28.28 118.743 28.536C118.263 28.792 118.103 29.016 117.943 29.208C117.751 29.496 117.623 29.656 117.399 29.784C117.111 29.944 116.855 29.976 116.599 30.008C116.247 30.072 115.895 30.072 115.447 30.296C114.935 30.552 114.359 30.808 113.591 30.808ZM113.879 27.576C114.199 27.576 114.455 27.48 114.711 27.352C115.223 27.096 115.319 26.776 116.087 26.52C116.567 26.36 116.983 26.008 117.111 25.272C117.239 24.568 117.559 24.632 117.879 23.864C118.103 23.288 117.847 22.84 118.327 22.008C118.807 21.176 118.903 20.44 118.743 19.704C118.295 17.624 118.807 18.168 118.327 16.664C118.071 15.832 117.623 15.128 117.111 14.488C116.759 14.072 116.439 13.944 116.023 13.816C115.671 13.72 115.415 13.624 114.935 13.24C114.711 13.048 114.551 12.856 113.975 12.856C113.335 12.856 113.143 13.592 112.407 14.04C111.543 14.552 110.455 14.552 110.327 16.44C110.231 17.784 109.303 17.464 109.495 19.16C109.591 19.96 109.015 20.888 109.303 21.784C109.527 22.52 109.303 22.968 109.591 24.024C109.879 25.08 110.423 25.176 110.647 25.592C110.999 26.264 111.319 26.008 111.735 26.328C112.087 26.584 112.183 27.064 112.759 27.352C113.047 27.512 113.623 27.576 113.879 27.576ZM138.733 33.912C138.637 33.912 138.541 33.912 138.445 33.912C138.221 33.912 137.997 33.88 137.773 33.88C137.645 33.88 137.549 33.848 137.453 33.848C136.813 33.848 136.333 33.688 135.981 33.336C135.821 33.208 135.533 33.048 135.309 33.048C134.669 33.048 134.157 32.76 133.709 32.376C133.357 32.088 132.973 31.864 132.557 31.736C131.853 31.48 131.341 31.096 130.925 30.648C130.541 30.232 130.189 29.88 129.773 29.496C128.941 28.696 128.365 27.608 127.949 26.168C127.757 25.528 127.597 24.76 127.469 24.024C127.373 23.576 127.341 23.16 127.341 22.744C127.341 22.424 127.437 22.104 127.437 21.816C127.437 21.752 127.469 21.688 127.469 21.656C127.469 21.592 127.469 21.56 127.469 21.496C127.469 20.44 127.789 19.448 128.173 18.488C128.237 18.296 128.333 18.104 128.397 17.912C128.781 16.856 129.229 15.8 129.709 14.776C129.869 14.392 130.189 14.072 130.413 13.72C130.733 13.176 131.053 12.6 131.373 12.088C131.757 11.448 132.237 10.936 132.749 10.456C133.581 9.72 134.477 9.016 135.405 8.344C137.357 6.936 140.685 7.128 142.509 6.936C143.117 6.872 143.725 7 144.301 7.096C144.941 7.224 145.613 7.448 146.221 7.832C146.285 7.864 146.317 7.864 146.381 7.896C146.605 7.992 146.829 8.088 147.021 8.152C147.629 8.408 148.237 8.6 148.717 9.048C148.877 9.208 149.037 9.368 149.261 9.432C149.773 9.56 150.029 9.912 150.317 10.328C150.477 10.584 150.637 10.808 150.829 11C151.309 11.48 151.565 12.152 151.885 12.76C152.045 13.016 152.237 13.24 152.429 13.464C152.653 13.752 152.877 14.04 153.037 14.392C153.389 15.16 153.549 15.864 153.549 16.568C153.549 17.176 153.613 17.816 153.613 18.456C153.613 18.744 153.645 19.032 153.645 19.32C153.645 19.352 153.645 19.384 153.645 19.448C153.645 19.608 153.645 19.8 153.581 19.928C153.293 20.44 153.069 20.984 152.845 21.528C152.621 22.072 152.397 22.648 152.077 23.192C151.117 24.728 149.901 25.848 148.493 26.52C148.301 26.616 148.109 26.744 147.949 26.872C147.373 27.256 146.765 27.448 146.125 27.448C145.549 27.448 144.909 27.288 144.269 26.936C143.917 26.744 143.565 26.552 143.213 26.36C142.925 26.168 142.669 25.816 142.317 25.176C141.837 25.816 141.453 26.456 140.685 27.064C140.557 27.16 140.429 27.224 140.301 27.288C139.949 27.544 139.469 27.64 138.989 27.64C137.741 27.64 136.877 27.64 135.789 26.968C135.565 26.808 135.341 26.648 135.181 26.424C134.861 26.008 134.509 25.56 134.253 25.112C134.093 24.856 133.997 24.568 133.965 24.248C133.933 23.864 133.933 23.512 133.933 23.16C133.933 22.904 133.901 22.68 133.901 22.424C133.901 22.264 133.901 22.136 133.933 22.04C133.997 21.752 134.093 21.464 134.189 21.176C134.317 20.664 134.477 20.28 134.477 19.928C134.477 19.64 134.765 19.32 134.765 19.032C134.765 18.552 134.989 18.168 135.277 17.784C135.405 17.624 135.565 17.432 135.693 17.176C136.429 15.768 137.613 14.872 138.957 14.072C139.853 13.528 140.813 13.4 141.773 13.4C142.189 13.4 142.637 13.336 143.053 13.464C143.341 13.56 143.629 13.656 143.917 13.72C146.573 14.36 146.989 14.936 147.533 16.248C147.661 16.536 147.693 16.792 147.693 17.016C147.693 17.4 147.565 17.752 147.309 18.04C146.733 18.648 146.381 19.416 145.997 20.184C145.837 20.536 145.677 20.888 145.453 21.24C144.557 22.616 144.429 22.872 144.493 23.352C144.525 23.672 145.133 24.152 145.773 24.152C146.989 24.152 147.853 23.288 148.685 22.392C149.453 21.56 149.901 20.536 150.381 19.576C150.509 19.352 150.541 19.032 150.573 18.808C150.765 17.528 150.893 17.08 150.381 15.288C150.253 14.808 150.061 14.328 149.645 13.912C149.453 13.72 149.357 13.496 149.229 13.24C149.197 13.176 149.133 13.08 149.101 13.016C148.685 12.12 147.949 11.672 147.053 11.224C146.765 11.096 146.477 10.936 146.221 10.776C145.965 10.616 145.709 10.488 145.453 10.36C145.101 10.2 144.781 10.04 144.429 10.04C144.269 10.04 144.109 10.136 143.949 10.136C143.501 10.136 141.069 9.752 140.429 9.752C140.173 9.752 139.917 9.784 139.693 9.848C139.405 9.912 139.149 9.944 138.861 9.944C138.669 9.944 138.413 10.168 138.349 10.232C138.157 10.424 137.901 10.584 137.645 10.712C137.549 10.776 137.421 10.84 137.325 10.904C136.397 11.544 135.437 12.184 134.765 13.208C134.445 13.72 134.061 14.232 133.709 14.744C133.517 15 133.357 15.224 133.165 15.48C133.101 15.576 133.005 15.704 132.973 15.896C132.813 16.76 132.397 17.496 131.981 18.232C131.789 18.552 131.213 19.672 131.213 19.864C131.213 20.312 131.245 20.792 130.893 21.144L130.861 21.176C130.637 21.4 130.765 21.816 130.669 22.168C130.573 22.584 130.477 23.032 130.477 23.48C130.477 23.832 130.541 24.184 130.701 24.536C130.829 24.792 130.957 25.08 130.957 25.4C130.957 25.528 131.021 25.656 131.021 25.752C131.021 26.456 131.437 27 131.725 27.576C131.789 27.704 131.917 27.832 132.013 27.928C132.173 28.088 132.397 28.184 132.589 28.344C132.909 28.632 133.261 28.92 133.709 29.048C133.837 29.08 134.861 30.04 135.373 30.296C136.205 30.712 137.037 30.968 137.933 30.968C138.221 30.968 138.541 30.936 138.829 30.872C139.085 30.808 139.309 30.776 139.533 30.776C139.885 30.776 140.237 30.744 140.557 30.616C140.877 30.488 141.165 30.264 141.485 30.008C141.613 29.912 141.741 29.816 141.869 29.72C141.997 29.624 142.125 29.528 142.189 29.464C142.317 29.336 142.541 29.208 142.733 29.112C143.021 28.952 143.309 28.856 143.565 28.856C144.525 28.856 145.357 30.2 145.357 31.16C145.357 31.672 144.589 31.864 144.173 32.184C143.981 32.312 143.245 32.792 143.149 32.952C142.957 33.272 142.637 33.432 142.221 33.432C142.061 33.432 141.901 33.368 141.709 33.368C141.613 33.368 141.549 33.336 141.485 33.336C141.133 33.336 140.877 33.464 140.589 33.56C140.013 33.752 139.373 33.912 138.733 33.912ZM139.405 24.568C139.629 24.472 141.453 22.168 141.997 21.144C142.701 19.832 143.757 17.432 144.397 16.76C143.853 16.312 143.117 16.248 142.701 16.248C142.157 16.248 141.645 16.216 141.133 16.472C138.733 17.688 138.669 19 138.093 19.672C137.869 19.928 137.709 20.152 137.709 20.472C137.709 21.112 137.389 21.656 137.133 22.072C136.909 22.424 136.845 22.648 136.845 22.808C136.845 23.224 137.165 23.576 137.293 23.864C137.517 24.408 137.901 24.792 138.477 24.792C138.733 24.792 139.021 24.76 139.405 24.568ZM163.419 31.448C163.099 31.32 162.779 31.256 162.427 31.192C162.043 31.096 161.659 31.032 161.275 30.872C161.211 30.84 161.083 30.808 160.987 30.808C160.859 30.808 160.763 30.84 160.667 30.872C160.507 30.936 160.315 30.968 160.155 30.968C159.803 30.968 159.483 30.84 159.163 30.616C158.779 30.296 158.491 29.88 158.331 29.464C158.267 29.336 158.235 29.176 158.235 29.016C158.235 28.408 158.683 27.768 159.291 27.576C159.419 27.544 159.579 27.512 159.707 27.512C159.835 27.512 159.963 27.544 160.059 27.576C160.283 27.672 160.507 27.704 160.731 27.704C161.019 27.704 161.307 27.8 161.595 27.928C162.011 28.152 162.491 28.28 163.035 28.28C163.355 28.28 163.803 28.28 164.411 27.992C165.179 27.64 165.595 27.864 166.619 27.32C166.875 27.192 166.971 26.872 167.099 26.68C167.227 26.488 167.419 26.392 167.611 26.264C168.091 25.944 168.443 25.368 168.219 24.664C168.027 24.088 168.571 23.32 167.643 22.84C166.971 22.488 166.523 22.072 166.107 22.168C165.723 22.232 165.403 22.264 165.211 22.264C164.315 22.264 163.483 21.688 162.971 21.048C162.715 20.76 162.491 20.6 162.331 20.568C161.851 20.472 161.467 20.216 161.243 19.832C160.891 19.192 160.347 19.32 160.315 18.648C160.187 16.632 159.739 17.208 159.739 15.512C159.739 14.776 159.995 14.04 160.315 13.368C160.539 12.888 160.859 12.664 161.083 12.312C161.275 12.056 161.243 11.736 161.435 11.448C161.787 10.904 162.299 10.584 162.811 10.424C164.443 9.912 164.507 9.464 165.787 9.24C166.267 9.144 166.555 8.824 166.939 8.792C167.643 8.728 167.739 8.984 168.507 8.984C169.211 8.984 169.531 9.08 169.819 9.208C169.979 9.272 170.171 9.336 170.331 9.4C170.811 9.592 171.291 9.848 171.739 10.104C172.763 10.68 172.507 11.128 173.371 12.152C173.627 12.44 173.595 12.792 173.563 12.984C173.467 13.688 173.371 13.912 172.763 14.168C172.507 14.264 172.283 14.328 172.091 14.296C171.131 14.072 170.779 13.336 170.427 12.6C170.139 12.024 169.595 11.704 168.987 11.704C168.091 11.704 168.187 12.12 167.355 12.056C166.619 11.992 166.235 12.632 165.691 12.728C164.891 12.856 163.675 13.72 163.739 14.68C163.803 15.576 163.291 15.512 163.291 16.376C163.291 17.848 163.771 17.592 164.091 18.168C164.571 19.032 166.011 18.808 166.747 19.032C167.227 19.192 167.547 19.672 168.603 19.8C169.563 19.928 170.075 20.728 170.619 21.336C171.195 21.976 171.451 22.552 171.387 23.192C171.323 23.864 171.515 25.112 171.515 25.464C171.515 26.68 170.779 27.192 170.331 28.376C169.915 29.496 169.499 29.752 169.243 29.816C168.763 29.976 168.443 29.752 167.835 30.328C167.611 30.552 167.227 30.584 166.811 30.648C166.139 30.776 165.403 31.032 164.635 31.416C164.443 31.512 164.219 31.576 164.027 31.576C163.835 31.576 163.643 31.512 163.419 31.448ZM183.275 31.256C183.019 31.256 182.763 31.288 182.507 31.288C182.027 31.288 181.387 31.128 181.131 30.744C180.875 30.392 180.331 30.232 179.755 30.168C179.243 30.104 179.307 29.592 179.083 29.336C178.731 28.92 178.667 28.12 178.731 27.576C178.891 26.584 179.115 25.656 179.211 24.984C179.307 24.28 179.083 24.216 179.083 23.768C179.083 23.288 179.307 23.032 179.435 22.552C179.595 21.88 179.659 21.432 179.595 20.728C179.563 20.472 179.563 20.28 179.563 20.088C179.563 19.864 179.563 19.608 179.659 19.32C179.947 18.424 179.755 17.24 179.947 16.024C180.075 15.352 180.171 14.648 180.171 14.264C180.171 13.368 179.947 13.496 179.947 12.696C179.947 12.248 179.979 11.8 180.075 11.352C180.203 10.68 180.427 10.168 180.747 9.688C180.971 9.368 181.163 9.144 181.483 9.016C181.771 8.888 182.347 8.568 182.859 8.664C184.427 8.984 184.395 8.6 185.899 9.112C187.115 9.528 188.235 10.296 188.939 10.648C189.323 10.84 189.611 10.968 189.867 10.968C190.283 10.968 190.539 11.128 190.731 11.48C191.019 11.992 191.211 12.472 191.275 13.048C191.307 13.368 191.563 13.432 191.563 13.88C191.563 14.424 191.051 14.712 190.475 15.032C190.059 15.256 189.611 15.384 189.131 15.384C188.747 15.384 188.107 14.648 188.075 14.264C188.043 14.008 188.011 13.816 188.011 13.592C187.787 13.432 187.531 13.24 187.051 12.984C186.571 12.728 186.187 12.664 185.835 12.472C185.515 12.28 185.131 12.056 184.907 12.056C184.555 12.056 184.331 12.088 184.043 12.152C183.819 12.216 183.595 12.312 183.403 12.408C183.115 12.568 182.955 12.792 182.955 13.08C182.955 13.144 182.955 13.24 182.987 13.336C183.147 13.88 183.307 14.424 183.307 15.064C183.307 15.832 182.923 15.896 182.923 17.72C182.923 17.944 182.923 18.072 182.955 18.232C183.083 18.296 183.275 18.328 183.435 18.392C184.299 18.68 184.651 18.488 185.323 18.584C185.707 18.648 186.027 18.744 186.603 18.968C186.987 19.128 187.435 18.84 187.851 18.84C188.427 18.84 188.427 19.192 188.939 19.48C189.387 19.736 189.675 20.248 189.675 20.92C189.675 21.56 189.195 21.912 188.939 21.944C188.587 21.976 188.203 22.008 187.915 22.008C187.755 22.008 187.531 21.88 187.307 21.88C187.083 21.88 186.795 22.04 186.539 22.04C186.123 22.04 185.771 21.944 185.451 21.848C185.163 21.752 184.747 21.624 184.395 21.624C183.691 21.592 183.243 21.464 182.731 21.272C182.667 21.4 182.635 21.56 182.603 21.816C182.571 22.04 182.571 22.296 182.571 22.52C182.571 22.84 182.475 23.032 182.379 23.32C182.251 23.704 182.155 23.96 182.251 24.6C182.379 25.4 182.123 26.168 182.059 27.16C182.027 27.48 182.027 27.704 182.027 27.896C182.187 27.96 182.347 28.024 182.507 28.024C183.531 28.088 183.627 27.832 184.491 28.088C185.355 28.344 185.771 27.992 186.187 27.992C186.667 27.992 187.243 28.12 187.787 28.408C188.171 28.6 188.459 28.952 188.523 29.432C188.619 30.232 188.587 30.328 187.371 31C186.827 31.288 186.347 31.288 185.835 31.288C185.643 31.288 185.419 31.288 185.227 31.256C184.907 31.224 184.587 31.192 184.267 31.192C183.915 31.192 183.595 31.224 183.275 31.256ZM208.639 30.968C208.383 30.968 208.127 30.872 207.903 30.68C207.295 30.2 206.655 29.496 206.431 28.6C206.335 28.248 206.079 26.84 206.015 26.488C205.791 25.496 205.695 24.44 205.471 23.448C205.407 23.128 205.023 22.808 204.831 22.52C204.703 22.296 204.575 21.848 204.287 21.656C203.359 21.016 202.815 20.664 201.791 20.664C201.247 20.664 200.927 20.696 200.767 20.792C200.703 20.92 200.671 21.048 200.671 21.24C200.671 21.816 200.831 22.136 200.831 22.456C200.831 23 200.639 23.288 200.639 23.8C200.639 23.992 200.671 24.248 200.767 24.536C200.799 24.696 200.831 24.824 200.831 24.984C200.831 25.304 200.767 25.624 200.767 25.912C200.767 26.424 200.607 27.064 200.607 27.352C200.607 27.608 200.639 27.896 200.703 28.216C200.735 28.344 200.735 28.472 200.735 28.632C200.735 29.016 200.415 29.336 200.095 29.56C199.775 29.816 199.871 30.296 199.071 30.296C198.335 30.296 197.727 29.624 197.535 28.472C197.471 28.088 197.471 27.704 197.471 27.288C197.471 25.144 197.759 24.536 197.759 23.32C197.759 22.776 197.695 22.104 197.535 21.144C197.503 21.048 197.503 20.952 197.503 20.856C197.503 20.408 197.663 19.928 197.663 19.48C197.663 18.712 197.439 18.136 197.279 17.336C197.279 17.24 197.247 17.144 197.247 17.08C197.247 16.792 197.311 16.6 197.311 16.376C197.311 16.28 197.343 16.184 197.343 15.992C197.343 15.832 197.311 15.608 197.247 15.256C197.119 14.584 196.895 13.56 196.575 12.6C196.511 12.376 196.447 12.12 196.447 11.896C196.447 10.712 197.311 9.528 198.303 9.304C198.719 9.208 199.071 9.048 199.583 8.984C200.383 8.856 201.087 8.568 201.855 8.248C202.719 7.896 203.583 7.704 204.543 7.768C205.279 7.8 205.823 8.152 206.207 8.28C206.591 8.408 206.879 8.568 207.231 9.08C207.647 9.624 208.479 10.552 208.959 11.736C209.183 12.312 209.023 12.504 209.183 12.952C209.279 13.24 209.599 13.752 209.599 13.976C209.599 14.04 209.599 14.104 209.599 14.2C209.599 14.552 209.599 14.904 209.599 15.256C209.599 15.512 209.599 15.768 209.535 16.024C209.439 16.472 209.471 16.76 209.183 17.016C208.287 17.848 208.351 18.648 207.423 19.032C206.751 19.32 206.559 19.48 206.239 19.608C206.559 19.832 206.751 20.056 207.423 20.44C207.999 20.76 208.447 21.912 208.735 22.52C209.151 23.384 209.247 23.896 209.247 24.28C209.247 24.696 209.087 24.984 209.087 25.464C209.087 25.784 209.343 26.168 209.279 26.552C209.215 26.968 209.375 27.416 209.631 27.8C209.951 28.248 210.143 28.824 210.143 29.464C210.143 29.656 210.111 29.912 209.791 30.2C209.471 30.488 209.311 30.968 208.639 30.968ZM201.695 17.432C203.231 17.176 203.583 17.752 204.127 17.496C204.735 17.208 205.215 16.696 205.567 16.248C206.079 15.608 206.687 14.52 206.303 13.848C205.855 13.08 206.047 12.344 205.535 11.64C205.247 11.224 204.831 11.064 204.383 11.064C203.839 11.064 203.231 11.544 202.687 11.544C200.895 11.512 201.183 12.184 200.383 12.312C199.999 12.376 199.807 12.536 199.551 12.536C199.807 12.92 199.903 13.112 199.999 13.496C200.319 14.584 199.967 14.776 200.351 15.736C200.479 16.056 200.479 16.376 200.479 16.632C200.479 17.016 200.575 17.24 200.607 17.432C200.927 17.528 201.247 17.496 201.695 17.432ZM218.598 30.168C218.214 30.168 217.798 30.008 217.542 29.72C217.062 29.176 216.87 28.696 216.87 28.12C216.87 27.832 216.902 27.544 216.902 27.256C216.902 27.064 217.03 26.648 217.03 26.008C217.03 25.784 217.03 25.56 216.966 25.272C216.934 25.176 216.934 25.048 216.934 24.92C216.934 24.6 217.126 24.184 217.126 23.864C217.126 23.384 216.934 23.096 216.998 22.616C217.126 21.752 217.222 20.984 217.222 20.408C217.222 19.48 217.03 18.84 217.03 18.072C217.03 17.688 217.126 17.24 217.19 16.6C217.35 15.192 217.126 14.456 217.286 12.792C217.318 12.408 217.574 12.248 217.574 11.736C217.574 11.16 217.83 10.392 218.246 9.688C218.406 9.4 218.598 9.112 219.078 8.824C219.366 8.664 219.654 8.568 219.974 8.568C220.294 8.568 220.582 8.632 220.838 8.632C221.094 8.632 221.606 8.408 222.118 8.408C222.63 8.408 223.142 8.632 223.558 8.856C224.518 9.336 225.478 9.976 225.926 11.064C226.15 11.608 226.31 11.928 226.598 12.12C226.95 12.376 227.206 12.728 227.398 13.016C227.526 13.208 227.654 13.4 227.814 13.592C227.942 13.784 228.006 14.072 228.006 14.328C228.006 14.808 228.134 15.288 228.518 15.896C228.646 16.12 228.742 16.376 228.742 16.728C228.742 17.784 228.006 18.232 227.622 19.48C227.398 20.216 226.566 20.504 226.15 20.664C225.158 21.016 225.51 21.176 224.774 21.496C224.55 21.592 224.23 21.656 223.782 21.56C223.43 21.496 223.334 21.304 222.758 21.368C222.406 21.4 222.022 21.272 221.638 21.08C221.414 20.952 221.062 20.824 220.838 20.728C220.678 20.664 220.55 20.632 220.23 20.28C220.102 20.568 220.07 20.824 220.198 21.304C220.358 21.848 220.102 22.36 220.134 22.648C220.198 23.064 220.294 23.224 220.294 23.352C220.294 23.768 220.23 24.152 220.134 24.536C220.102 24.728 220.07 24.92 220.07 25.112C220.07 25.208 220.07 25.336 220.102 25.432C220.134 25.56 220.166 25.72 220.166 25.88C220.166 26.2 220.07 26.52 219.942 26.872C219.878 27.032 219.846 27.192 219.846 27.352C219.846 27.672 220.166 27.832 220.006 28.216C219.974 28.312 219.91 28.376 219.91 28.504C219.91 28.664 219.974 28.76 219.974 28.984C219.974 29.624 219.43 30.168 218.598 30.168ZM222.918 18.584C224.454 18.584 224.23 17.944 225.03 17.624C225.35 17.496 225.67 17.144 225.606 16.536C225.574 16.024 225.478 15.512 225.126 15.128C224.646 14.584 224.518 14.232 224.454 14.008C224.326 13.592 224.07 13.272 223.558 12.76C223.494 12.696 223.462 12.632 223.398 12.568C223.238 12.376 223.046 12.184 222.918 11.96C222.758 11.736 222.566 11.672 222.374 11.672C222.022 11.672 221.67 11.864 221.478 11.96C221.222 12.088 221.094 12.184 221.03 12.376C220.806 13.048 220.326 13.016 220.326 13.464C220.326 13.624 220.326 14.168 220.326 14.328C220.326 14.584 220.326 14.776 220.39 15C220.454 15.192 220.486 15.416 220.486 15.608C220.486 15.928 220.294 16.568 220.294 16.824C220.294 17.08 220.422 17.304 220.71 17.496C220.87 17.624 221.67 17.816 221.862 17.976C222.15 18.232 222.566 18.584 222.918 18.584ZM236.452 30.424C236.324 30.424 236.164 30.424 235.844 30.328C235.492 30.2 234.532 29.816 234.372 29.432C234.244 29.08 234.18 28.792 234.18 28.408C234.18 27.96 234.404 27.32 234.404 26.84C234.404 26.552 234.244 25.848 234.468 25.176C234.564 24.92 234.692 24.44 234.692 24.152C234.692 23.736 234.564 23.16 234.564 22.424C234.564 21.944 234.564 21.208 234.564 20.216C234.564 19.768 234.404 19.32 234.404 19.064C234.404 18.2 234.788 18.232 234.756 17.336C234.692 15.832 235.076 14.968 235.076 14.296C235.076 13.752 234.852 13.496 234.98 12.984C235.268 11.896 234.948 11.48 234.948 11.128C234.948 10.808 235.076 10.488 235.236 10.328C235.812 9.72 236.676 9.592 237.284 9.592C238.66 9.592 240.58 10.072 241.156 10.072C241.7 10.072 241.828 10.008 242.212 10.008C243.236 10.008 244.004 10.712 244.58 11.384C244.868 11.704 244.9 11.896 244.9 12.088C244.9 12.408 244.772 12.728 244.484 12.888C244.228 13.016 243.972 13.048 243.78 13.048C243.62 13.048 243.332 13.048 243.044 13.112C242.788 13.176 242.596 13.208 242.34 13.208C241.956 13.208 241.572 13.144 240.644 12.92C240.228 12.824 239.588 13.048 238.916 12.824C238.756 12.76 238.532 12.696 238.148 12.696C238.084 12.92 238.052 13.24 238.052 13.752C238.052 13.944 238.116 14.136 238.116 14.328C238.116 14.616 237.956 14.872 237.956 15.256C237.956 15.672 238.148 16.12 238.148 16.408C238.148 16.728 238.116 17.112 237.988 17.592C238.116 17.592 238.244 17.624 238.884 17.624C239.012 17.624 239.268 17.624 239.556 17.624C240.196 17.624 240.452 17.752 240.836 17.752C241.028 17.752 241.316 17.72 241.54 17.72C242.532 17.72 243.268 18.488 243.268 19.448C243.268 19.896 243.108 20.472 242.244 20.472C241.796 20.472 241.508 20.376 241.252 20.376C240.676 20.376 240.612 20.536 239.844 20.536C239.236 20.536 238.724 20.28 237.796 20.376C237.796 20.6 237.732 20.76 237.7 21.08C237.604 22.072 237.828 22.424 237.764 23.672C237.732 24.184 237.444 25.016 237.572 25.752C238.18 25.432 238.948 25.784 239.396 25.784C239.908 25.784 240.452 25.784 240.932 25.944C241.956 26.264 242.468 26.392 242.98 26.456C243.364 26.488 243.62 26.648 243.716 27C243.876 27.576 244.132 27.928 244.132 28.312C244.132 29.016 242.948 29.304 242.276 29.304C241.924 29.304 241.604 29.272 241.22 29.144C239.492 28.696 238.948 28.664 238.468 28.664C238.052 28.664 237.892 28.728 237.796 28.824C237.636 28.984 237.412 29.432 237.316 29.752C237.156 30.232 236.836 30.424 236.452 30.424ZM252.337 30.776C252.241 30.776 252.145 30.776 252.016 30.776C251.345 30.776 251.025 30.52 250.449 29.72C250.097 29.208 250.033 28.6 250.065 27.992C250.097 27.32 250.513 26.68 250.449 25.88C250.385 24.856 250.897 24.28 250.897 23.384C250.897 21.784 251.473 20.856 251.441 19.576C251.409 18.456 252.113 17.4 252.209 16.28C252.433 13.144 252.817 14.296 253.009 11.864C253.105 10.84 253.937 10.392 254.737 10.392C255.217 10.392 255.697 10.584 255.953 11.032C256.433 11.896 256.913 12.44 257.713 13.016C258.193 13.368 257.937 13.656 258.641 14.232C259.409 14.84 259.697 15.128 259.857 16.056C259.921 16.44 260.113 16.664 260.401 16.92C261.489 17.88 260.945 18.168 261.873 19.352C262.321 19.928 262.385 21.464 262.961 21.624C263.281 21.272 262.801 20.824 263.505 19.416C263.953 18.52 264.049 17.976 264.049 17.496C264.049 16.632 264.433 16.248 264.497 15.576C264.721 13.56 264.944 14.136 265.073 13.272C265.137 12.888 264.977 12.184 265.137 11.864C265.553 11.064 265.392 10.808 265.553 10.296C265.841 9.4 266.481 9.112 267.473 9.24C268.369 9.368 269.201 9.72 269.201 10.616C269.201 12.056 268.145 13.272 268.145 14.68C268.145 14.744 268.145 14.776 268.145 14.904C268.145 15.736 267.825 16.504 267.377 17.176C267.217 17.4 267.217 17.528 267.217 17.88C267.217 18.008 267.153 18.168 267.089 18.296C266.993 18.488 266.897 18.712 266.897 18.936C266.897 19.32 267.025 19.608 267.025 19.96C266.993 20.76 266.577 21.272 266.481 21.656C266.353 22.168 266.417 22.392 266.321 22.552C266.033 22.936 265.937 23.288 265.937 23.768C265.937 24.216 265.713 24.728 265.585 25.176C265.489 25.464 265.489 25.624 265.489 25.976C265.489 26.872 265.457 27.256 264.529 27.736C264.369 27.832 264.208 27.864 264.049 27.864C263.472 27.864 262.705 27.256 262.545 26.84C262.033 25.464 261.489 25.816 260.945 24.28C260.785 23.864 260.657 23.448 260.337 23.064C260.113 22.808 259.953 22.52 259.889 22.168C259.729 21.4 259.473 20.792 258.993 20.12C258.321 19.192 257.841 18.36 257.617 17.624C257.393 16.824 256.753 16.856 256.433 15.992C256.305 15.64 256.081 15.416 255.921 15.16C255.76 14.904 255.697 14.808 255.536 14.648C255.473 14.808 255.377 14.968 255.377 15.224C255.377 15.832 255.377 16.696 255.025 17.272C254.865 17.528 254.993 17.944 254.993 18.232C254.993 18.968 254.321 19.384 254.321 20.184C254.321 20.376 254.353 20.568 254.353 20.76C254.353 21.016 254.161 21.4 254.161 21.592C254.161 22.008 254.321 22.136 254.321 22.552C254.321 22.776 254.257 23 254.129 23.224C253.777 23.928 254.033 24.28 253.745 24.92C253.201 26.168 253.937 25.848 253.073 28.024C252.881 28.536 253.169 29.048 253.169 29.656C253.169 29.72 253.169 29.816 253.169 29.88C253.169 30.552 252.945 30.776 252.337 30.776ZM281.677 30.808C281.325 30.808 280.877 30.744 280.461 30.488C279.757 30.104 279.309 29.432 279.437 28.504C279.661 26.84 280.141 27.544 280.141 24.888C280.141 24.088 280.237 23.672 280.557 22.616C280.845 21.72 280.717 20.504 280.909 19.576C281.069 18.84 281.453 18.072 281.357 17.336C281.133 15.64 281.517 15.896 281.517 14.264C281.517 14.104 281.549 13.848 281.517 13.72C281.357 13.688 281.165 13.752 280.909 13.752C280.269 13.752 279.309 14.136 278.861 14.584C278.573 14.872 278.029 15.032 277.741 15.096C277.133 15.256 277.325 15.8 276.781 16.024C275.789 16.408 276.525 16.664 275.533 17.144C275.085 17.368 274.701 17.176 274.381 16.984C273.933 16.728 273.645 16.536 273.517 16.12C273.421 15.832 273.357 15.576 273.357 15.352C273.357 15.064 273.325 14.712 273.581 14.552C275.213 13.432 275.053 12.504 276.205 11.96C277.197 11.48 277.933 11.288 278.445 11.192C278.957 11.096 278.925 10.872 279.341 10.68C279.789 10.488 281.197 10.072 281.901 10.072C282.541 10.072 282.989 10.328 283.821 10.296C285.517 10.232 285.677 11.32 287.437 11.544C288.653 11.704 288.749 12.472 290.285 13.4C291.021 13.848 291.085 14.136 291.341 14.616C291.757 15.384 292.141 16.408 292.141 16.984C292.141 17.432 291.917 17.72 291.501 17.848C291.245 17.944 290.925 17.976 290.765 17.976C290.189 17.976 289.677 17.752 289.389 17.208C288.909 16.312 288.877 15.736 287.981 15.288C287.085 14.84 287.341 14.488 286.349 14.424C285.837 14.392 285.357 14.072 284.909 13.976C284.877 14.072 284.877 14.264 284.781 14.52C284.525 15.16 284.685 15.768 284.525 16.216C284.365 16.664 284.333 17.08 284.333 17.528C284.333 17.656 284.365 18.008 284.365 18.488C284.365 19.608 283.693 20.952 283.693 21.528C283.693 21.88 283.725 22.264 283.725 22.552C283.725 22.904 283.373 23.352 283.405 23.8C283.437 24.312 283.597 24.6 283.405 25.176C283.213 25.72 283.277 26.2 283.245 26.648C283.213 27.064 282.925 27.288 282.925 27.704C282.925 28.12 283.085 28.504 282.989 28.984C282.733 30.264 282.477 30.808 281.677 30.808ZM298.441 29.976C297.993 29.976 297.449 29.336 297.257 29.144C296.873 28.76 296.585 28.248 296.585 27.736C296.585 27.384 296.681 27.16 296.905 26.424C296.937 26.232 296.969 26.008 296.969 25.752C296.969 25.176 296.905 24.44 297.129 23.576C297.353 22.712 297.385 22.2 297.385 21.784C297.385 21.368 297.353 21.048 297.353 20.6C297.353 19.8 297.545 19.416 297.545 18.776C297.545 18.616 297.545 18.456 297.513 18.264C297.449 17.592 297.769 16.536 297.769 15.992C297.769 14.872 297.353 14.648 297.321 13.784C297.289 13.208 296.905 12.792 296.745 12.568C296.553 12.28 296.425 11.928 296.425 11.576C296.425 11.224 296.553 10.904 296.745 10.616C296.969 10.296 297.321 10.136 297.705 10.136C298.569 10.136 299.529 10.488 299.721 11.384C299.849 11.928 300.393 11.928 300.489 12.92C300.521 13.176 300.489 13.368 300.649 13.72C301.065 14.712 300.745 15.864 301.065 16.952C301.161 17.208 301.161 17.464 301.161 17.72C301.161 18.104 301.129 18.424 301.065 18.584C300.937 19.064 300.809 19.576 300.809 20.088C300.809 20.344 300.937 20.6 300.937 21.112C300.937 21.528 300.841 22.168 300.681 22.808C300.585 23.256 300.457 23.704 300.521 24.504C300.521 24.696 300.553 24.888 300.553 25.112C300.553 25.848 300.425 26.68 300.137 27.352C299.945 27.8 299.945 28.056 299.945 28.248C299.945 28.888 299.881 29.304 299.401 29.528C298.985 29.72 298.921 29.976 298.441 29.976ZM309.52 30.392C308.496 30.392 307.984 29.624 307.984 28.568C307.984 28.056 308.528 27.096 308.464 25.88C308.432 25.208 308.496 24.888 308.624 24.408C309.136 22.328 308.848 21.784 308.848 21.048C308.848 19.832 309.296 19.48 309.136 16.952C309.04 15.512 309.296 15.16 309.36 14.456C309.424 13.816 309.072 12.632 309.52 11.864C309.904 11.224 310.16 10.776 310.832 10.776C311.824 10.776 312.72 11.256 313.2 12.184C313.904 13.592 314.288 13.4 315.216 14.424C315.952 15.224 315.696 15.608 316.912 16.408C318 17.144 317.488 17.592 318.224 18.36C319.344 19.512 319.344 20.344 319.792 20.6C319.824 20.344 319.92 20.152 319.952 19.736C320.112 17.368 320.624 18.456 320.496 15.96C320.368 13.56 320.848 14.136 320.848 12.024C320.848 11.512 320.848 11.032 320.848 10.52C320.848 9.752 321.104 9.24 321.744 9.048C322.032 8.952 322.288 8.92 322.544 8.92C323.056 8.92 323.44 9.112 323.824 9.336C324.272 9.656 324.432 10.136 324.432 10.68C324.432 11.608 324.08 11.8 324.08 12.728C324.08 12.888 324.112 13.016 324.112 13.208C324.24 13.976 323.92 14.168 324.016 14.808C324.176 15.768 323.568 17.112 323.44 18.36C323.376 18.84 323.28 19.96 323.248 20.312C323.184 20.792 322.928 21.272 322.832 21.784C322.768 22.072 322.768 22.36 322.768 22.68C322.768 22.968 322.8 23.192 322.8 23.48C322.8 23.704 322.672 23.992 322.448 24.344C322.32 24.536 322.256 24.728 322.256 24.952C322.256 25.112 322.32 25.272 322.352 25.464C322.576 26.648 321.808 27.064 321.232 27.064C320.464 27.064 319.6 26.648 319.312 25.88C318.608 23.96 318.352 24.76 317.904 23.16C317.712 22.424 317.264 22.68 316.944 21.88C316.496 20.792 316.208 20.952 315.696 20.024C315.472 19.608 315.28 18.904 314.768 18.616C314.096 18.264 314.288 17.816 313.968 17.624C313.232 17.144 313.072 16.376 312.464 16.056C312.464 16.376 312.368 16.504 312.4 16.76C312.528 18.488 312.112 18.168 312.208 19.864C312.272 21.048 311.92 21.08 311.92 21.56C311.92 21.88 312.112 22.264 312.112 22.712C312.112 22.84 312.08 22.968 312.048 23.096C311.824 24.056 311.92 25.464 311.696 26.232C311.6 26.616 311.536 26.84 311.536 27.032C311.536 27.32 311.632 27.512 311.632 27.736C311.632 28.312 311.248 28.152 311.184 29.272C311.152 29.784 310.256 30.392 309.52 30.392ZM328.564 30.936C327.732 30.648 327.668 30.552 327.284 29.88C327.22 29.752 327.188 29.656 327.188 29.528C327.188 29.368 327.252 29.144 327.412 28.728C327.924 27.416 329.236 25.752 329.716 24.536C329.972 23.832 330.324 23.768 330.612 23.32C330.836 22.968 331.028 22.584 331.028 21.912C331.028 21.592 331.252 21.24 331.572 21.016C331.956 20.76 332.18 20.44 332.308 20.184C332.948 18.904 333.62 17.848 333.62 16.856C333.62 15.576 334.004 14.68 334.004 14.264C334.004 13.56 334.292 12.824 334.292 12.12C334.292 11.096 334.324 10.136 334.676 9.528C334.9 9.144 335.348 9.208 335.635 9.112C335.956 8.984 336.276 8.824 336.66 8.824C337.172 8.824 337.748 9.272 338.068 9.656C338.484 10.136 338.804 10.584 339.06 11.032C339.316 11.512 339.54 11.896 339.828 12.184C340.244 12.568 340.564 12.984 340.82 13.496C341.076 13.976 341.108 14.648 341.524 15C342.004 15.416 342.612 16.248 342.804 17.24C342.996 18.264 343.38 18.936 343.444 19.48C343.508 19.96 343.572 20.408 343.572 20.888C343.572 21.656 343.38 21.784 343.38 22.488C343.38 23.352 343.54 23.256 343.476 24.12C343.412 25.048 343.38 25.752 343.347 26.616C343.347 27.032 343.347 27.48 343.347 27.896C343.347 28.568 343.604 28.664 343.604 29.048C343.604 30.072 342.996 30.744 342.1 30.744C341.972 30.744 341.844 30.744 341.716 30.712C341.108 30.552 340.372 29.656 340.372 29.048C340.372 28.856 340.404 28.6 340.404 28.312C340.404 27.896 340.244 27.512 340.244 27.096C340.244 26.808 340.276 26.616 340.372 26.104C340.5 25.464 340.308 25.144 340.308 24.472C340.308 23.96 340.532 23.64 340.468 23.064C340.436 22.776 340.436 22.52 340.276 22.232C339.7 22.392 339.284 22.232 339.092 22.264C338.804 22.296 338.58 22.392 338.196 22.392C337.78 22.392 337.556 22.488 337.236 22.52C336.98 22.552 336.468 22.552 336.18 22.552C335.572 22.552 335.54 23.16 334.868 23.16C334.196 23.16 333.876 23.512 333.62 24.12C333.428 24.632 333.204 24.984 332.82 25.368C332.276 25.912 332.116 26.2 331.988 26.648C331.924 26.84 331.764 27.064 331.572 27.192C331.348 27.352 331.252 27.544 331.188 27.96C331.156 28.152 331.06 28.376 330.964 28.568C330.74 29.08 330.42 29.4 330.42 30.008C330.42 30.328 330.26 30.552 329.588 30.808C329.268 30.904 329.044 30.968 328.852 30.968C328.756 30.968 328.66 30.968 328.564 30.936ZM336.595 19.864C337.428 19.864 337.844 19.512 338.26 19.48C338.676 19.448 339.22 19.576 339.572 19.576C339.892 19.576 340.18 19.48 340.244 19.448C340.18 19.128 340.02 18.968 339.988 18.776C339.988 18.744 339.988 18.712 339.988 18.68C339.988 18.584 340.02 18.456 340.02 18.328C340.02 18.168 339.988 17.976 339.924 17.784C339.636 16.984 339.188 16.536 339.06 15.832C338.932 15.16 338.292 14.744 337.972 14.136C337.716 13.624 337.332 13.464 336.788 12.824C336.884 13.464 336.628 14.04 336.628 14.488C336.628 15.032 336.66 15.64 336.66 15.992C336.66 17.016 336.276 17.432 336.244 18.104C336.212 18.584 335.988 19.256 335.635 19.864C335.988 19.864 336.052 19.864 336.595 19.864ZM352.536 31.096C352.184 31.096 350.616 31.096 350.072 29.56C349.944 29.176 349.624 28.888 349.624 28.344C349.624 27.64 350.392 26.68 350.968 26.68C351.448 26.68 351.928 26.648 352.376 26.648C352.664 26.648 352.92 26.68 353.08 26.808C353.368 27.032 353.56 26.936 353.912 27.192C354.232 27.416 354.776 27.768 354.776 28.696C354.776 29.368 354.456 29.88 354.072 30.52C353.88 30.808 353.432 31.096 352.536 31.096ZM362.91 30.168C362.526 30.168 362.11 30.008 361.854 29.72C361.374 29.176 361.182 28.696 361.182 28.12C361.182 27.832 361.214 27.544 361.214 27.256C361.214 27.064 361.342 26.648 361.342 26.008C361.342 25.784 361.342 25.56 361.278 25.272C361.246 25.176 361.246 25.048 361.246 24.92C361.246 24.6 361.438 24.184 361.438 23.864C361.438 23.384 361.246 23.096 361.31 22.616C361.438 21.752 361.534 20.984 361.534 20.408C361.534 19.48 361.342 18.84 361.342 18.072C361.342 17.688 361.438 17.24 361.502 16.6C361.662 15.192 361.438 14.456 361.598 12.792C361.63 12.408 361.886 12.248 361.886 11.736C361.886 11.16 362.142 10.392 362.558 9.688C362.718 9.4 362.91 9.112 363.39 8.824C363.678 8.664 363.966 8.568 364.286 8.568C364.606 8.568 364.894 8.632 365.15 8.632C365.406 8.632 365.918 8.408 366.43 8.408C366.942 8.408 367.454 8.632 367.87 8.856C368.83 9.336 369.79 9.976 370.238 11.064C370.462 11.608 370.622 11.928 370.91 12.12C371.262 12.376 371.518 12.728 371.71 13.016C371.838 13.208 371.966 13.4 372.126 13.592C372.254 13.784 372.318 14.072 372.318 14.328C372.318 14.808 372.446 15.288 372.83 15.896C372.958 16.12 373.054 16.376 373.054 16.728C373.054 17.784 372.318 18.232 371.934 19.48C371.71 20.216 370.878 20.504 370.462 20.664C369.47 21.016 369.822 21.176 369.086 21.496C368.862 21.592 368.542 21.656 368.094 21.56C367.742 21.496 367.646 21.304 367.07 21.368C366.718 21.4 366.334 21.272 365.95 21.08C365.726 20.952 365.374 20.824 365.15 20.728C364.99 20.664 364.862 20.632 364.542 20.28C364.414 20.568 364.382 20.824 364.51 21.304C364.67 21.848 364.414 22.36 364.446 22.648C364.51 23.064 364.606 23.224 364.606 23.352C364.606 23.768 364.542 24.152 364.446 24.536C364.414 24.728 364.382 24.92 364.382 25.112C364.382 25.208 364.382 25.336 364.414 25.432C364.446 25.56 364.478 25.72 364.478 25.88C364.478 26.2 364.382 26.52 364.254 26.872C364.19 27.032 364.158 27.192 364.158 27.352C364.158 27.672 364.478 27.832 364.318 28.216C364.286 28.312 364.222 28.376 364.222 28.504C364.222 28.664 364.286 28.76 364.286 28.984C364.286 29.624 363.742 30.168 362.91 30.168ZM367.23 18.584C368.766 18.584 368.542 17.944 369.342 17.624C369.662 17.496 369.982 17.144 369.918 16.536C369.886 16.024 369.79 15.512 369.438 15.128C368.958 14.584 368.83 14.232 368.766 14.008C368.638 13.592 368.382 13.272 367.87 12.76C367.806 12.696 367.774 12.632 367.71 12.568C367.55 12.376 367.358 12.184 367.23 11.96C367.07 11.736 366.878 11.672 366.686 11.672C366.334 11.672 365.982 11.864 365.79 11.96C365.534 12.088 365.406 12.184 365.342 12.376C365.118 13.048 364.638 13.016 364.638 13.464C364.638 13.624 364.638 14.168 364.638 14.328C364.638 14.584 364.638 14.776 364.702 15C364.766 15.192 364.798 15.416 364.798 15.608C364.798 15.928 364.606 16.568 364.606 16.824C364.606 17.08 364.734 17.304 365.022 17.496C365.182 17.624 365.982 17.816 366.174 17.976C366.462 18.232 366.878 18.584 367.23 18.584ZM383.133 19.32C383.101 18.456 383.581 17.784 383.485 16.984C383.357 15.832 383.389 14.744 383.581 14.168C383.677 13.912 383.645 13.624 383.677 13.432C383.549 13.4 383.453 13.432 383.325 13.432C383.133 13.432 382.941 13.496 382.653 13.624C380.893 14.296 381.405 15.32 380.317 15.544C379.229 15.768 379.421 16.568 378.173 16.28C377.533 16.12 377.149 15.832 376.765 15.352C376.669 15.192 376.605 15.032 376.605 14.872C376.605 14.584 376.893 14.008 377.117 13.784C377.981 12.824 378.621 12.312 379.901 11.864C380.413 11.704 380.637 11.128 381.085 10.808C381.565 10.488 382.173 10.584 383.325 9.944C383.613 9.784 383.901 9.816 384.22 9.816C384.509 9.816 384.829 9.88 385.117 9.944C387.165 10.296 386.205 10.392 387.325 10.744C387.677 10.84 388.157 10.84 388.765 11.064C389.693 11.384 389.789 12.088 390.812 12.152C391.26 12.184 391.613 12.632 392.125 12.632C392.669 12.632 393.085 13.56 393.341 14.072C393.469 14.328 393.565 14.552 393.565 14.712C393.565 15.384 392.861 16.344 392.253 16.248C391.453 16.12 390.685 15.896 390.365 15.384C390.109 15 389.917 14.776 389.373 14.68C388.701 14.552 388.957 14.264 388.477 14.072C387.997 13.88 387.869 13.592 387.293 13.592C387.197 13.592 387.037 13.592 386.909 13.624C386.877 13.752 386.909 13.912 386.877 14.136C386.781 14.648 386.589 15.128 386.493 15.672C386.269 16.792 386.813 17.752 386.589 18.392C386.109 19.768 386.557 21.176 386.141 22.68C385.885 23.64 385.725 24.28 385.725 24.632C385.725 24.92 385.789 25.24 385.789 25.496C385.789 25.848 385.725 26.232 385.565 26.584C385.405 26.904 385.373 27.224 385.373 27.544C385.373 27.832 385.405 28.152 385.405 28.44C385.405 28.952 385.085 29.208 385.085 29.592C385.085 29.848 385.277 29.944 385.277 30.36C385.277 30.648 385.117 31.128 384.573 31.352C384.349 31.448 384.029 31.512 383.773 31.512C383.645 31.512 383.517 31.512 383.101 31.352C382.781 31.192 382.301 30.872 381.949 30.328C381.853 30.2 381.821 30.008 381.821 29.816C381.821 28.952 382.333 28.6 382.333 26.872C382.333 25.048 382.877 23.8 382.781 22.808C382.621 21.112 383.197 21.528 383.133 19.32ZM10.456 63.888C10.104 64.016 9.816 64.048 9.624 64.048C9.272 64.048 9.048 63.92 8.6 63.408C8.024 62.736 8.152 61.968 8.088 61.168C7.896 59.216 8.44 58.8 8.44 56.4C8.44 56.208 8.44 55.92 8.44 55.696C8.184 55.696 8.056 55.632 7.896 55.632C7.64 55.632 7.16 55.696 6.68 55.6C6.04 55.472 5.88 55.824 5.368 55.696C4.536 55.472 4.056 55.696 3.192 55.856C2.776 55.952 2.424 55.792 2.104 55.504C1.656 55.12 1.208 54.64 1.208 53.904C1.208 53.264 1.496 52.784 2.072 52.688C2.52 52.624 3.032 52.912 3.48 52.624C4.088 52.24 4.472 52.72 6.072 52.4C7.288 52.144 7.48 52.624 8.536 52.304C8.504 52.016 8.536 51.728 8.536 51.504C8.536 51.312 8.504 51.12 8.504 50.96C8.44 50.512 8.472 50.096 8.472 49.68C8.472 49.456 8.472 49.232 8.472 49.04C8.472 48.816 8.472 48.624 8.504 48.432C8.536 48.112 8.6 47.792 8.6 47.472C8.6 47.152 8.568 46.8 8.568 46.512C8.568 45.808 9.016 45.392 9.72 45.392C10.904 45.392 11.672 46.128 11.768 47.248C11.8 47.664 11.576 48.048 11.768 48.464C12.024 49.04 11.64 49.968 11.608 50.704C11.608 51.024 11.64 51.504 11.64 51.888C12.088 51.92 12.472 51.632 12.856 51.856C13.304 52.112 13.592 51.6 14.04 51.76C15.128 52.176 15.384 51.568 16.344 52.016C16.696 52.176 16.92 51.824 17.528 51.952C18.328 52.112 18.84 52.624 18.84 53.36C18.84 54 18.424 54.672 17.88 54.864C17.144 55.12 16.6 55.28 16.024 55.056C15.48 54.864 15.48 55.216 15.064 55.088C14.904 55.056 14.776 55.056 14.616 55.056C14.488 55.056 14.36 55.056 14.232 55.152C14.04 55.28 13.816 55.376 13.624 55.344C13.176 55.248 12.76 55.216 12.408 55.312C12.152 55.376 11.928 55.408 11.64 55.44C11.608 55.728 11.672 56.112 11.736 56.848C11.832 58.032 12.024 58.8 11.608 59.6C11.448 59.888 11.672 60.304 11.672 60.912C11.672 61.456 11.48 62.288 11.288 63.152C11.224 63.408 11.064 63.568 10.776 63.696C10.648 63.76 10.584 63.856 10.456 63.888ZM25.8305 66.736C25.5745 66.736 25.3185 66.704 25.0305 66.608C24.2305 66.352 23.6545 66 23.6545 64.816C23.6545 63.952 24.6145 63.376 25.4785 63.472C25.9585 63.504 26.5025 63.344 26.9825 62.864C27.2385 62.544 27.6545 62.416 28.1665 62.352C28.6145 62.288 29.0625 62.192 29.6705 61.808C30.0225 61.616 30.4385 61.2 30.5665 60.56C30.8225 59.408 31.1425 59.216 31.1425 58.352C31.1425 57.104 31.0465 56.336 29.8305 56.176C29.3505 56.112 29.0305 56.592 27.9105 56.592C27.4945 56.592 27.1425 56.912 26.6625 56.912C25.7985 56.912 24.7105 56.016 24.7105 55.248C24.7105 54.704 24.9985 54.16 25.6705 53.84C26.4065 53.52 27.3985 53.808 28.1985 53.488C29.7665 52.848 29.3505 52.56 29.9585 52.048C30.5025 51.568 30.7905 50.672 30.7585 50C30.6625 48.464 31.0785 48.4 31.0785 47.536C31.0785 47.216 31.0785 46.896 30.8865 46.64C30.6305 46.384 30.1185 46.096 29.7665 46.096C29.1265 46.096 28.4865 46.416 28.1985 46.992C27.7825 47.728 27.2065 47.696 26.9185 48.336C26.6945 48.784 26.2785 49.136 25.5745 49.136C24.7105 49.136 24.6785 48.976 24.1665 48.304C24.0065 48.08 23.8465 47.696 23.8465 47.408C23.8465 47.152 23.8785 46.928 23.9425 46.768C24.2625 45.872 25.3185 45.2 26.0865 44.528C26.5345 44.08 26.7585 43.632 27.1105 43.44C27.4625 43.28 27.8465 43.344 28.1665 43.312C28.5505 43.28 28.9025 43.12 29.1905 43.12C29.4785 43.12 29.7345 43.216 30.4065 43.28C30.9505 43.312 31.9745 43.376 32.4545 43.952C32.8705 44.496 33.4785 44.592 33.9585 45.52C34.2465 46.096 34.3105 46.768 34.3425 47.376C34.3745 47.824 34.4385 48.176 34.4385 48.624C34.4385 48.816 34.4065 49.072 34.3745 49.328C34.2785 50.224 33.7345 50.608 33.6065 51.504C33.5105 52.24 33.3825 52.784 32.9025 53.168C32.3265 53.616 32.0385 53.872 31.6865 54.064C32.0385 54.256 32.2945 54.288 32.8705 54.544C33.9905 55.056 34.6625 56.24 34.6625 57.872C34.6625 59.12 34.2465 59.568 34.0225 61.104C33.9585 61.616 33.7345 62 33.3825 62.32C33.1905 62.48 33.0625 62.704 32.9345 62.928C32.7745 63.184 32.5825 63.568 32.5185 63.696C32.3265 64.112 32.0065 64.368 31.5265 64.496C30.9185 64.656 30.2465 64.656 29.7025 65.136C29.3185 65.488 29.0625 65.744 28.4225 65.776C28.0385 65.808 27.8785 65.936 27.5905 66.16C27.1105 66.512 26.5025 66.736 25.8305 66.736ZM43.961 66.064C43.001 66.064 42.361 64.976 41.337 64.976C40.889 64.976 40.697 64.368 40.409 64.016C40.153 63.728 40.025 63.44 40.025 63.184C40.025 62.928 40.153 62.64 40.409 62.384C40.825 61.968 41.305 61.712 41.881 61.584C41.913 61.584 41.977 61.584 42.009 61.584C42.233 61.584 42.457 61.712 42.617 61.872C42.873 62.128 43.161 62.384 43.417 62.576C43.737 62.8 44.057 62.832 44.377 62.832C44.665 62.832 45.273 62.896 45.529 62.832C46.233 62.64 46.873 62.768 47.449 61.904C47.705 61.552 48.249 61.552 48.409 61.168C48.601 60.688 48.857 60.72 49.081 60.464C49.529 59.92 49.625 59.472 49.529 58.864C49.465 58.544 49.689 58.032 49.593 57.712C49.465 57.328 49.081 56.88 48.793 56.656C48.409 56.368 47.993 56.176 47.609 56.272C46.937 56.464 46.617 56.112 46.233 56.176C45.017 56.368 44.857 57.2 44.377 57.2C43.769 57.2 43.865 57.488 43.353 57.488C42.777 57.488 41.561 56.56 41.561 55.472C41.561 55.152 41.305 54.8 41.305 54.48C41.305 53.904 41.401 53.328 41.401 52.912C41.401 52.56 41.177 52.272 41.241 51.888C41.401 51.152 41.529 50.352 41.497 49.424C41.433 47.888 41.657 47.344 41.753 46.288C41.785 46 41.817 45.744 41.817 45.488C41.817 45.296 41.817 45.104 41.753 44.912C41.721 44.816 41.721 44.752 41.721 44.688C41.721 44.336 41.913 44.08 42.265 43.888C42.553 43.76 42.873 43.568 43.193 43.568C43.385 43.568 43.609 43.664 43.737 43.792C44.089 44.144 44.473 44.176 44.985 44.464C45.529 44.784 45.753 44.368 46.649 44.688C47.257 44.912 47.641 44.624 48.601 44.688C49.721 44.752 50.745 45.136 51.641 45.808C52.057 46.128 52.377 46.32 52.825 46.448C53.113 46.512 53.337 46.672 53.465 46.896C53.657 47.248 53.945 47.6 53.945 47.984C53.945 48.432 53.625 48.976 53.177 49.2C52.953 49.328 52.697 49.552 52.377 49.552C51.673 49.552 51.129 48.912 50.425 48.528C50.201 48.4 50.009 48.24 49.785 48.08C49.401 47.856 48.985 47.76 48.537 47.76C47.961 47.76 47.065 47.888 46.105 47.824C45.241 47.76 45.337 47.76 44.697 47.568C44.697 48.048 44.697 48.24 44.697 48.592C44.697 48.944 44.825 49.296 44.825 49.648C44.825 49.808 44.793 50 44.697 50.16C44.505 50.576 44.473 50.896 44.537 51.376C44.537 51.472 44.569 51.568 44.569 51.696C44.569 52.272 44.377 52.944 44.377 53.2C44.377 53.584 44.313 53.872 44.281 54.064C44.569 53.872 44.729 53.776 44.825 53.712C45.081 53.552 45.369 53.712 45.881 53.392C46.297 53.136 46.681 53.04 47.065 53.04C47.737 53.04 47.609 53.328 48.217 53.328C49.401 53.328 50.041 53.84 50.681 54.8C50.873 55.088 51.097 55.44 51.609 55.792C52.153 56.144 52.665 56.912 52.665 57.872C52.665 58.352 52.697 58.864 52.505 59.376C52.249 60.016 52.537 60.624 52.345 61.264C52.089 62.224 51.641 62.928 50.681 63.344C50.585 63.376 50.457 63.44 50.361 63.568C49.849 64.24 48.985 64.528 48.313 65.04C47.993 65.264 47.577 65.36 47.193 65.36C46.745 65.36 46.297 65.424 45.849 65.584C45.369 65.776 44.921 65.84 44.601 65.84C44.313 65.84 44.153 66.064 43.961 66.064ZM63.1658 64.848C62.9738 64.912 62.7818 64.944 62.5898 64.944C62.0778 64.944 61.8538 64.688 61.5338 64.208C61.4378 64.048 61.3098 63.888 61.2138 63.728C60.9578 63.344 60.7018 62.928 60.9898 62.224C61.2778 61.488 61.2138 60.432 61.5018 59.44C61.8538 58.32 61.8538 57.264 61.8538 56.56C61.8538 56.048 62.1738 55.856 62.1738 55.152C62.1738 54.352 62.3338 53.04 62.3338 51.6C62.3338 51.408 62.4618 50.928 62.4618 50.608C62.4618 50.416 62.4298 50.288 62.4938 49.648C61.9498 50.48 61.5018 51.152 61.1818 51.312C60.8938 51.44 60.7018 51.536 60.5418 51.856C60.4778 52.016 60.1258 52.176 59.9658 52.176C59.4538 52.176 58.8138 52.016 58.7818 51.6C58.7178 50.8 58.3978 50.928 58.3978 50.096C58.3978 49.84 58.4298 49.424 59.1338 49.008C60.5738 48.144 60.5098 47.664 61.0538 47.12C61.4378 46.736 61.8538 46.576 62.2378 46.096C62.5578 45.68 62.7498 45.264 63.1018 44.912C63.2618 44.752 63.4538 44.656 63.6778 44.656C63.8058 44.656 63.9338 44.688 64.0938 44.752C64.3498 44.88 64.6698 44.976 64.9578 45.008C65.3098 45.04 65.5017 45.232 65.5978 45.552C65.6938 45.936 65.7578 46.32 65.7898 46.704C65.8218 47.152 65.8218 47.632 65.6298 48.08C65.5658 48.208 65.4698 48.4 65.5338 48.88C65.6938 50.192 65.5017 50.48 65.3738 51.44C65.1498 52.912 65.4378 54.448 65.1178 55.888C64.9898 56.496 64.9898 57.008 65.0538 57.552C65.1498 58.288 64.9898 59.024 64.8298 59.728C64.6378 60.56 64.4778 61.424 64.4138 62.288C64.3818 62.96 64.0618 63.472 64.0298 63.984C63.9978 64.528 63.5178 64.72 63.1658 64.848ZM88.2555 65.36C87.6475 65.36 87.0715 65.232 86.3995 64.848C85.9195 64.592 85.6955 64.176 85.6955 63.6C85.6955 62.768 86.3035 61.936 87.1675 61.936C87.4875 61.936 87.8715 62.096 88.1915 62.096C88.6395 62.096 89.1835 61.904 89.8555 61.392C90.4635 60.944 91.2315 60.848 91.7115 60.048C91.9675 59.632 92.4475 59.472 92.5435 58.864C92.6715 58.16 93.0875 57.776 93.4075 57.136C93.5355 56.88 93.5995 56.56 93.8555 56.304C93.9835 56.176 94.1755 55.984 94.1755 55.472C93.6955 55.824 93.2475 55.76 92.6075 55.76C92.2555 55.76 91.9995 55.792 91.6795 55.92C91.2955 56.048 90.8475 56.24 90.3035 56.24C89.5995 56.24 88.7035 56.048 88.1275 55.472C87.7755 55.12 87.4235 54.768 87.0395 54.48C86.5595 54.064 86.3355 53.52 86.1755 52.912C85.7595 51.632 85.9835 51.6 85.7915 50.064C85.7275 49.552 85.5995 49.04 85.5995 48.496C85.5995 47.472 85.9515 46.928 86.4315 45.968C86.8475 45.2 87.1675 44.656 87.8715 44.208C88.5755 43.76 88.7675 44.016 89.5675 43.568C90.1435 43.248 90.4635 43.152 90.7515 43.152C91.0395 43.152 91.2635 43.248 91.6475 43.248C92.1275 43.248 92.6075 43.152 93.0875 43.152C93.3115 43.152 93.5355 43.184 93.7595 43.216C94.6875 43.408 95.3275 44.176 96.0635 44.912C96.3515 45.232 96.4155 45.68 96.9915 46.128C97.5675 46.544 97.6635 47.312 98.2075 48.72C98.5275 49.456 98.5275 50.256 98.5275 50.8C98.5275 51.344 98.3995 51.728 98.3035 52.624C98.1755 53.904 97.5035 54.32 97.4075 55.056C97.3435 55.376 97.3435 55.6 97.3435 55.792C97.3435 56.304 97.2795 56.624 97.0555 57.072C96.8955 57.424 96.7355 57.744 96.5435 58.096C96.3515 58.512 96.2235 59.088 95.9035 59.504C95.5515 59.92 95.4235 60.08 95.2315 60.368C95.0715 60.624 94.8155 60.912 94.6875 61.328C94.4635 62.032 94.0475 62.128 93.5995 62.608C93.3435 62.864 93.0235 62.96 92.7675 63.312C92.6395 63.536 92.4155 63.6 92.2555 63.632C91.8395 63.696 91.5515 63.952 91.2315 64.24C90.7835 64.624 90.3355 64.976 89.6955 65.136C89.2155 65.264 88.7355 65.36 88.2555 65.36ZM92.4155 53.232C92.9595 53.232 93.5675 53.072 94.2395 52.592C95.3915 51.76 95.4555 50.864 95.4555 50.032C95.4555 49.424 95.2315 49.2 95.1035 48.592C95.0075 48.112 94.7515 47.408 94.2395 46.96C93.9195 46.704 93.6315 46.576 93.4075 46.576C92.3515 46.576 91.9675 46.288 91.4555 46.288C91.2315 46.288 90.9435 46.352 90.7195 46.48C90.3355 46.768 89.9515 47.024 89.5035 47.248C89.2155 47.408 89.0235 47.632 88.9595 47.888C88.7035 48.656 88.7675 49.424 88.7355 49.872C88.6715 50.352 88.5755 50.672 88.5755 50.928C88.5755 51.472 88.7355 52.144 89.2155 52.656C89.5995 53.04 89.9195 53.2 90.2075 53.2C90.5275 53.2 90.8155 53.072 91.1675 53.072C91.6155 53.072 92.0635 53.232 92.4155 53.232ZM109.508 65.392C109.444 65.328 109.252 65.264 109.092 65.264C108.964 65.264 108.804 65.296 108.644 65.296C108.388 65.296 108.1 65.2 107.908 65.008C107.78 64.88 107.62 64.464 107.236 64.304C106.436 63.92 106.244 63.024 105.444 62.544C105.124 62.352 104.804 61.936 104.804 61.52C104.804 61.072 104.516 60.784 104.292 60.56C104.132 60.4 104.036 60.08 104.036 59.888C104.036 59.12 104.132 58.512 104.1 57.808C104.068 57.488 104.068 57.168 104.068 56.816C104.068 56.432 104.068 56.016 104.132 55.632C104.196 55.184 104.26 54.768 104.356 54.256C104.612 53.168 104.836 52.912 104.996 52.144C105.092 51.632 105.38 51.28 105.444 50.608C105.508 50.192 105.732 49.744 106.052 49.36C106.372 48.976 106.628 48.592 106.756 48.112C106.884 47.664 107.172 47.376 107.46 47.088C107.972 46.576 108.516 46.032 109.06 45.488C109.124 45.424 109.316 45.264 109.476 45.168C110.308 44.624 110.372 44.304 111.204 44.08C111.428 44.016 111.844 43.568 112.612 43.568C113.252 43.568 113.508 43.664 115.044 44.24C115.268 44.336 115.492 44.624 115.492 44.944C115.492 45.648 115.268 46.192 114.596 46.576C114.5 46.64 114.372 46.672 114.244 46.672C114.148 46.672 114.052 46.64 113.956 46.608C113.764 46.544 113.636 46.48 113.508 46.48C113.348 46.48 113.188 46.576 112.932 46.832C112.868 46.896 112.612 47.024 112.324 47.024C111.556 47.024 110.404 48.784 109.828 49.296C109.092 49.968 109.028 50.736 108.644 51.056C108.324 51.312 108.228 51.824 108.228 52.208C108.228 52.784 108.036 53.136 107.908 53.36C107.748 53.648 107.684 53.872 107.684 54C108.516 53.552 108.644 53.968 109.124 53.712C109.668 53.424 109.956 53.52 110.372 53.52C111.076 53.52 111.588 53.68 111.94 53.808C112.228 53.904 112.516 53.936 112.996 53.968C113.22 53.968 113.572 54.064 113.86 54.32C114.18 54.608 115.044 54.864 115.428 55.088C116.036 55.408 116.26 56.304 116.516 56.848C116.868 57.648 117.028 58.096 117.028 58.576C117.028 58.768 117.028 58.928 116.964 59.152C116.836 59.696 116.644 59.792 116.74 60.752C116.804 61.296 116.676 61.584 116.26 62.256C116.036 62.672 114.98 64.432 113.988 64.624C113.06 64.816 112.772 65.36 112.196 65.424C111.748 65.488 110.948 65.616 110.5 65.616C110.02 65.616 109.764 65.616 109.508 65.392ZM112.164 62.192C112.516 61.904 112.74 61.968 112.996 61.648C113.764 60.784 114.02 60.496 114.02 59.76C114.02 58.48 113.604 57.168 112.708 57.04C112.004 56.912 111.46 56.176 111.044 56.176C110.436 56.176 109.956 56.176 109.348 56.496C109.22 56.56 109.092 56.592 108.996 56.592C108.74 56.592 108.484 56.464 108.26 56.464C108.132 56.464 107.716 56.496 107.3 55.92C107.108 56.848 107.012 58.32 107.012 58.896C107.012 59.568 107.3 60.176 107.62 60.848C107.812 61.264 108.036 61.488 108.58 61.776C108.9 61.968 109.092 62.32 109.86 62.64C110.116 62.736 110.404 62.8 110.692 62.8C111.172 62.8 111.684 62.608 112.164 62.192ZM140.877 66.608C140.397 66.608 140.013 66.704 139.373 66.256C138.317 65.552 138.509 66.32 136.653 64.464C136.365 64.176 135.981 63.824 135.949 63.28C135.885 62.256 135.469 61.392 135.469 60.496C135.469 59.76 135.885 59.12 135.917 58.416C135.949 57.648 136.237 56.912 136.461 56.144C136.589 55.664 136.909 55.312 137.197 55.024C137.485 54.736 137.516 54.384 137.613 54.224C137.837 53.872 138.061 53.936 138.285 53.712C138.093 53.52 137.773 52.944 137.677 52.56C137.549 52.176 137.453 51.6 137.453 50.992C137.453 50.32 137.549 49.616 137.837 48.976C138.029 48.56 138.189 48.112 138.285 47.664C138.573 46.448 139.405 45.616 140.269 44.912C140.557 44.688 140.845 44.464 141.229 44.304C141.645 44.144 142.029 44.048 142.445 44.048C142.989 44.048 143.533 44.208 144.141 44.464C144.781 44.752 145.229 45.104 145.453 45.616C145.581 45.904 145.741 46.128 146.029 46.288C146.541 46.576 146.509 46.928 147.181 47.248C147.853 47.568 148.077 48.08 148.141 48.656C148.173 48.912 148.333 49.232 148.525 49.52C148.717 49.84 148.877 50.256 148.812 50.768C148.812 50.864 148.781 50.96 148.781 51.024C148.781 51.216 148.812 51.408 148.909 51.568C148.972 51.696 149.037 51.824 149.037 51.952C149.037 52.08 148.972 52.208 148.877 52.368C148.493 52.912 148.109 54.064 147.597 54.512C147.245 54.832 146.861 54.928 146.541 55.184C147.597 56.176 146.829 56.4 147.661 57.616C148.045 58.192 148.013 58.736 148.013 59.216C148.013 59.376 148.045 59.472 148.077 59.632C148.109 59.856 148.141 60.08 148.141 60.304C148.141 61.36 147.725 62.352 147.213 63.248C146.701 64.144 145.773 64.464 145.037 65.264C144.365 66 143.661 65.904 143.053 66.128C142.253 66.448 141.517 66.608 140.877 66.608ZM142.253 63.28C143.149 63.28 143.757 62.768 144.045 62.416C144.237 62.192 144.205 62 144.301 61.84C144.429 61.616 144.653 61.456 144.877 61.168C145.165 60.752 145.197 60.08 145.197 59.184C145.197 58.8 145.069 58.448 144.941 58.064C144.845 57.744 144.845 57.424 144.685 57.072C144.525 56.72 144.397 56.592 144.301 56.496C143.789 56.592 143.565 56.816 142.957 56.816C141.997 56.816 141.229 56.496 140.397 56.112C140.045 56.432 139.469 56.688 139.373 57.808C139.309 58.32 139.149 58.736 138.861 59.056C138.605 59.312 138.509 59.632 138.509 59.984C138.509 60.208 138.605 60.88 138.605 61.136C138.605 61.392 138.509 61.744 138.509 62C138.509 62.288 138.605 62.416 138.797 62.608C138.861 62.672 139.021 62.832 139.085 62.896C139.149 62.96 139.309 63.152 139.405 63.248C139.629 63.472 139.981 63.728 140.525 63.728C141.26 63.728 141.581 63.28 142.253 63.28ZM143.629 53.136C143.949 53.36 144.109 53.392 144.205 53.456C144.301 53.392 144.429 53.296 144.621 53.104C144.813 52.912 145.261 52.368 145.453 52.08C145.741 51.664 145.965 51.248 145.965 50.672C145.965 50.16 145.773 49.616 145.389 49.04C145.037 48.496 144.621 48.208 144.013 48.016C143.501 47.856 142.829 47.472 142.22 47.152C141.709 47.472 141.773 47.728 141.677 47.952C141.517 48.24 141.517 48.528 141.357 48.848C141.036 49.488 140.461 49.776 140.461 50.48C140.461 51.184 140.749 51.6 140.812 52.272C140.845 52.528 140.877 52.72 140.973 52.88C141.325 52.816 141.741 52.72 142.093 52.72C142.477 52.72 143.181 52.848 143.629 53.136ZM157.256 65.36C156.648 65.36 156.072 65.232 155.4 64.848C154.92 64.592 154.696 64.176 154.696 63.6C154.696 62.768 155.304 61.936 156.168 61.936C156.488 61.936 156.872 62.096 157.192 62.096C157.64 62.096 158.184 61.904 158.856 61.392C159.464 60.944 160.232 60.848 160.712 60.048C160.968 59.632 161.448 59.472 161.544 58.864C161.672 58.16 162.088 57.776 162.408 57.136C162.536 56.88 162.6 56.56 162.856 56.304C162.984 56.176 163.176 55.984 163.176 55.472C162.696 55.824 162.248 55.76 161.608 55.76C161.256 55.76 161 55.792 160.68 55.92C160.296 56.048 159.848 56.24 159.304 56.24C158.6 56.24 157.704 56.048 157.128 55.472C156.776 55.12 156.424 54.768 156.04 54.48C155.56 54.064 155.336 53.52 155.176 52.912C154.76 51.632 154.984 51.6 154.792 50.064C154.728 49.552 154.6 49.04 154.6 48.496C154.6 47.472 154.952 46.928 155.432 45.968C155.848 45.2 156.168 44.656 156.872 44.208C157.576 43.76 157.768 44.016 158.568 43.568C159.144 43.248 159.464 43.152 159.752 43.152C160.04 43.152 160.264 43.248 160.648 43.248C161.128 43.248 161.608 43.152 162.088 43.152C162.312 43.152 162.536 43.184 162.76 43.216C163.688 43.408 164.328 44.176 165.064 44.912C165.352 45.232 165.416 45.68 165.992 46.128C166.568 46.544 166.664 47.312 167.208 48.72C167.528 49.456 167.528 50.256 167.528 50.8C167.528 51.344 167.4 51.728 167.304 52.624C167.176 53.904 166.504 54.32 166.408 55.056C166.344 55.376 166.344 55.6 166.344 55.792C166.344 56.304 166.28 56.624 166.056 57.072C165.896 57.424 165.736 57.744 165.544 58.096C165.352 58.512 165.224 59.088 164.904 59.504C164.552 59.92 164.424 60.08 164.232 60.368C164.072 60.624 163.816 60.912 163.688 61.328C163.464 62.032 163.048 62.128 162.6 62.608C162.344 62.864 162.024 62.96 161.768 63.312C161.64 63.536 161.416 63.6 161.256 63.632C160.84 63.696 160.552 63.952 160.232 64.24C159.784 64.624 159.336 64.976 158.696 65.136C158.216 65.264 157.736 65.36 157.256 65.36ZM161.416 53.232C161.96 53.232 162.568 53.072 163.24 52.592C164.392 51.76 164.456 50.864 164.456 50.032C164.456 49.424 164.232 49.2 164.104 48.592C164.008 48.112 163.752 47.408 163.24 46.96C162.92 46.704 162.632 46.576 162.408 46.576C161.352 46.576 160.968 46.288 160.456 46.288C160.232 46.288 159.944 46.352 159.72 46.48C159.336 46.768 158.952 47.024 158.504 47.248C158.216 47.408 158.024 47.632 157.96 47.888C157.704 48.656 157.768 49.424 157.736 49.872C157.672 50.352 157.576 50.672 157.576 50.928C157.576 51.472 157.736 52.144 158.216 52.656C158.6 53.04 158.92 53.2 159.208 53.2C159.528 53.2 159.816 53.072 160.168 53.072C160.616 53.072 161.064 53.232 161.416 53.232ZM181.804 65.68C180.844 65.68 180.172 65.648 179.372 65.648C179.084 65.648 178.764 65.52 178.54 65.328C178.06 64.944 177.548 64.816 177.356 64.496C177.132 64.176 176.972 64.08 176.652 64.016C176.044 63.92 175.628 63.344 175.212 62.768C175.116 62.608 174.924 62.32 174.636 62.032C174.252 61.68 173.996 61.104 173.868 60.4C173.58 58.928 172.972 57.552 172.972 56.048C172.972 55.312 173.196 54.16 173.196 53.456C173.196 53.2 173.1 52.976 173.164 52.496C173.196 52.112 173.676 51.856 173.932 50.96C174.092 50.352 174.636 49.808 174.86 49.2C175.116 48.528 175.692 48.24 175.82 47.664C175.884 47.376 176.012 47.216 176.172 47.12C176.332 47.024 176.46 46.864 176.556 46.672C176.876 46.032 177.388 45.616 177.996 45.232C179.724 44.144 180.204 43.856 181.548 43.856C181.836 43.856 182.188 43.952 182.412 44.048C182.636 43.952 182.924 43.792 183.244 43.792C184.268 43.792 185.228 44.144 186.06 44.88C186.412 45.2 186.796 45.488 187.308 45.616C187.788 45.744 188.14 46 188.396 46.352C188.492 46.48 188.588 46.544 188.652 46.576C189.388 46.992 189.612 47.664 189.74 48.4C189.836 48.848 189.964 49.232 190.348 49.552C190.604 49.776 190.668 50.128 190.636 50.448C190.636 50.544 190.604 50.64 190.604 50.736C190.604 50.896 190.636 51.088 190.668 51.216C190.924 51.952 191.148 52.656 191.148 53.424C191.148 54 191.244 54.576 191.244 55.12C191.244 55.472 191.212 55.792 191.116 56.112C190.828 57.072 190.604 58.032 190.348 58.992C190.22 59.44 190.028 59.92 189.868 60.368C189.708 60.912 189.068 60.848 189.003 61.392C188.94 61.872 188.716 62.416 188.172 63.024C187.692 63.536 187.34 63.888 186.732 64.208C185.932 64.656 184.204 65.232 183.212 65.392C182.732 65.488 182.316 65.68 181.804 65.68ZM180.94 62.704C182.092 62.288 182.348 62.64 182.796 62.48C183.148 62.384 183.628 62.032 184.14 61.904C185.004 61.712 185.708 60.912 186.188 59.952C186.444 59.344 186.604 58.832 186.635 58.288C186.668 57.904 186.86 57.616 187.052 57.328C187.436 56.784 187.532 56.112 187.596 55.44C187.66 54.928 187.884 54.416 187.884 53.872C187.884 53.008 187.819 52.112 187.404 51.344C187.148 50.896 187.02 50.48 186.956 50.032C186.86 49.328 186.092 48.624 185.836 48.304C185.388 48.624 184.268 48.528 184.012 48.048C183.852 47.76 183.692 47.504 183.532 47.248C183.308 46.864 182.828 46.704 182.38 46.704C182.092 46.704 181.772 46.768 181.516 46.896C181.132 47.088 180.652 47.344 180.396 47.824C180.268 48.08 179.404 48.848 179.244 49.136C178.988 49.552 178.7 50.128 178.444 50.64C178.38 50.768 178.252 50.96 177.996 51.248C177.644 51.6 177.548 52.208 177.196 52.784C176.876 53.232 176.62 53.712 176.62 54.192C176.62 55.216 176.46 56.144 176.46 57.264C176.46 58.064 176.556 58.608 176.844 59.12C177.004 59.44 177.004 59.728 177.068 59.92C177.132 60.144 177.228 60.368 177.356 60.528C177.612 60.912 177.836 61.264 178.124 61.552C178.956 62.352 179.532 62.832 180.3 62.832C180.492 62.832 180.716 62.768 180.94 62.704ZM217.646 64.976C216.814 64.976 216.398 64.688 216.046 64.048C215.726 63.44 215.502 62.896 215.534 62.192C215.661 61.008 215.95 60.208 215.758 58.832C215.694 58.384 215.982 57.904 215.918 57.552C215.822 57.04 215.982 56.88 215.982 56.656C215.982 56.592 215.982 56.496 215.982 56.368C215.854 56.368 215.758 56.336 215.566 56.336C215.246 56.336 214.862 56.56 214.222 56.56C213.614 56.56 213.23 56.56 212.846 56.88C212.654 57.04 212.27 57.232 211.854 57.232C211.726 57.232 211.566 57.2 211.406 57.104C210.958 56.88 210.702 56.816 210.574 56.496C210.382 56.176 210.574 55.792 210.35 55.344C210.222 55.088 210.254 54.864 210.35 54.384C210.734 52.048 210.222 52.048 210.958 50.128C211.214 49.456 210.926 49.104 211.022 48.496C211.214 47.152 211.438 46.928 211.438 45.968C211.438 45.648 211.661 45.36 211.79 45.232C211.918 45.104 212.014 45.008 212.11 44.976C212.59 44.752 212.718 45.008 213.23 45.008C213.742 45.008 213.87 45.392 213.902 45.648C214.03 46.288 214.158 46.32 214.158 46.768C214.158 46.896 214.094 47.056 214.03 47.216C213.774 47.76 214.158 47.952 213.966 48.528C213.71 49.008 213.71 49.552 213.742 50.192C213.774 50.512 213.71 50.8 213.582 51.088C213.358 51.6 213.294 52.144 213.294 52.72C213.294 53.008 213.198 53.296 213.198 53.616C213.198 53.808 213.294 53.872 213.486 53.872C213.998 53.872 214.702 53.424 215.278 53.424C215.342 53.424 215.406 53.424 215.47 53.424C215.661 53.424 215.854 53.424 216.078 53.392C216.142 53.104 216.014 52.592 216.078 52.208C216.142 51.728 216.398 51.248 216.398 50.768C216.366 49.712 216.59 48.656 216.718 47.92C216.782 47.376 216.782 47.216 216.782 46.992C216.782 46.512 216.942 45.968 217.006 45.808C217.134 45.392 217.07 45.232 217.262 44.944C217.454 44.688 217.934 44.368 218.478 44.368C218.798 44.368 219.15 44.496 219.374 44.72C219.886 45.232 220.046 45.392 220.046 45.68C220.046 46 219.726 46.064 219.726 46.512C219.726 46.704 219.662 47.056 219.598 47.184C219.406 47.664 219.438 48.208 219.47 48.752C219.47 48.848 219.502 48.976 219.502 49.104C219.502 49.872 219.086 50.96 219.118 52.24C219.118 52.72 218.958 52.944 218.99 53.36C219.278 53.36 219.598 53.104 220.174 53.328C220.654 53.552 220.75 53.232 221.23 53.488C221.518 53.648 221.838 54.096 221.838 54.576C221.838 55.024 221.486 55.184 221.39 55.632C221.262 56.24 220.462 56.24 219.662 56.24C219.534 56.24 219.31 56.24 219.182 56.24C219.182 56.368 219.15 56.56 219.15 56.848C219.15 57.136 219.246 57.392 219.214 57.68C219.118 58.384 218.99 59.088 218.894 59.792C218.862 59.952 218.862 60.08 218.862 60.24C218.862 60.56 218.926 60.816 219.054 61.136C219.086 61.264 219.118 61.392 219.118 61.584C219.118 62 218.798 62.48 218.862 63.024C218.926 63.696 218.798 64.368 218.254 64.752C217.998 64.912 217.774 64.976 217.646 64.976ZM232.857 66.48C232.121 66.48 231.545 66.256 231.001 65.84C230.873 65.68 230.777 65.648 230.521 65.584C229.721 65.392 228.985 64.944 228.409 64.176C228.281 63.984 228.089 63.728 227.929 63.6C227.225 62.864 226.809 62 226.809 61.008C226.809 60.624 226.841 60.24 226.969 59.888C227.033 59.568 227.129 59.312 227.161 58.992C227.257 58.416 227.193 57.872 227.353 57.296C227.449 56.912 227.737 56.528 227.929 56.112C228.633 54.48 229.017 54 230.233 53.328C230.617 53.136 230.713 52.912 230.841 52.816C230.713 52.592 230.617 52.368 230.521 52.144C230.233 51.376 230.137 51.024 230.137 50.704C230.137 50.384 230.233 50.128 230.233 49.616C230.233 49.424 230.233 49.232 230.201 48.944C230.137 48.176 230.329 47.504 230.681 46.896C231.033 46.288 231.545 46 231.993 45.072C232.377 44.272 232.985 43.728 233.753 43.408C234.361 43.152 234.425 43.28 235.801 43.024C236.857 42.832 237.465 43.184 238.489 43.6C238.969 43.792 239.097 44.016 239.417 44.272C240.057 44.88 240.345 44.88 240.857 46C240.921 46.16 240.953 46.416 241.145 46.768C241.465 47.312 241.785 47.92 241.945 48.4C242.073 48.816 242.073 49.072 242.073 49.488C242.073 49.776 242.073 50.32 241.753 50.864C241.273 51.536 240.953 52.176 240.793 52.816C240.505 53.68 239.961 53.744 239.545 54.128C239.161 54.512 238.841 54.352 238.489 54.576C238.681 54.8 239.257 55.088 239.449 55.92C239.609 56.656 240.409 57.68 240.409 58.672C240.409 58.8 240.409 58.928 240.377 59.088C240.313 59.408 240.313 59.792 240.313 60.144C240.313 60.688 240.217 61.264 239.801 61.872C239.417 62.416 239.641 62.416 239.417 62.736C239.289 62.928 239.065 63.088 238.809 63.44C238.745 63.568 238.617 63.728 238.521 63.856C238.393 64.048 238.265 64.24 237.913 64.336C237.753 64.368 237.625 64.464 237.433 64.816C237.177 65.392 236.409 65.616 235.705 65.872C235.193 66.064 234.777 66.064 234.393 66.128C234.041 66.192 233.945 66.32 233.689 66.384C233.401 66.448 233.113 66.48 232.857 66.48ZM232.825 63.344C234.073 63.344 234.105 62.928 234.713 62.832C235.801 62.672 236.313 61.488 236.953 60.656C237.369 60.112 237.593 59.504 237.593 58.64C237.593 58.288 237.561 57.872 237.337 57.552C237.081 57.232 236.953 56.624 236.441 55.792C236.153 55.344 235.865 55.248 235.737 55.12C235.161 55.248 234.745 55.344 234.425 55.344C233.945 55.344 233.625 55.216 232.921 54.928C232.633 55.12 231.673 55.408 231.385 56.464C231.161 57.264 230.617 57.52 230.361 58.256C230.233 58.672 230.233 59.184 230.137 59.664C230.041 60.176 229.849 60.688 229.849 60.976C229.849 61.584 229.817 62.128 231.065 62.48C231.801 62.672 231.961 63.344 232.825 63.344ZM236.345 52.56C236.761 52.272 237.721 52.144 237.913 51.44C238.041 50.96 238.585 51.024 238.681 50.032C238.745 49.488 239.097 49.52 239.097 48.752C239.097 47.568 238.457 47.216 237.913 46.928C237.465 46.704 237.401 46.672 237.305 46.512C237.081 46.256 236.953 45.744 236.441 45.744C236.249 45.744 236.121 45.808 235.833 46C235.513 46.192 235.001 46.416 234.777 46.512C234.521 46.608 234.425 46.896 234.361 47.216C234.297 47.504 234.073 47.824 233.849 48.08C233.593 48.336 233.337 48.528 233.273 48.88C233.113 49.552 233.017 50.096 233.017 50.512C233.017 50.672 233.017 50.832 233.017 50.992C233.017 51.248 233.017 51.504 233.113 52.08C233.177 52.048 233.401 52.112 233.625 52.112C233.849 52.112 234.105 52.048 234.425 52.048C234.617 52.048 234.841 52.08 235.033 52.144C235.353 52.24 235.705 52.272 236.345 52.56ZM263.791 65.616C263.407 65.616 263.087 65.168 262.831 65.008C262.543 64.848 262.447 64.592 262.351 64.304C262.255 64.048 262.191 63.824 262.191 63.6C262.191 63.152 262.447 62.832 262.959 62.512C263.343 62.288 263.695 62.352 264.047 62.128C264.431 61.904 264.783 61.392 265.135 61.168C265.967 60.688 266.639 60.08 267.087 59.344C267.375 58.896 267.631 58.128 268.111 57.328C268.303 56.976 269.935 55.536 269.583 54.864C269.423 55.024 268.463 55.984 267.311 55.984C267.087 55.984 266.895 55.888 266.767 55.888C266.575 55.888 266.351 56.08 266.095 56.08C265.871 56.08 265.647 55.984 265.423 55.856C265.135 55.664 264.815 55.536 264.463 55.44C264.207 55.376 263.823 55.408 263.567 55.248C262.863 54.864 262.319 54.32 261.967 53.648C261.807 53.328 261.551 53.104 261.295 52.912C261.135 52.816 261.007 52.688 260.911 52.496C260.655 51.984 260.719 51.44 260.463 51.024C260.239 50.704 260.207 50.32 260.271 50C260.335 49.776 260.399 49.52 260.431 49.296C260.495 48.976 260.559 48.656 260.655 48.368C261.039 47.152 261.775 46.576 261.935 46.16C262.255 45.36 262.351 45.52 262.639 45.04C262.831 44.656 263.087 44.56 263.343 44.464C263.567 44.368 264.239 43.984 264.431 43.824C264.751 43.6 265.263 43.44 265.967 43.44C268.239 43.44 269.839 44.4 270.639 45.424C271.279 46.224 271.279 46.64 271.759 47.024C273.039 48.048 273.135 49.776 273.135 51.408C273.135 51.888 273.199 52.304 273.199 52.784C273.199 53.008 273.167 53.392 273.039 53.648C272.751 54.32 272.815 54.992 272.431 55.376C272.207 55.6 272.079 55.888 272.047 56.24C271.983 57.104 271.727 57.68 271.471 58.096C271.247 58.48 270.767 58.8 270.575 59.184C270.255 59.824 269.903 60.528 269.295 60.944C268.911 61.2 268.719 61.968 268.463 62.32C268.335 62.544 268.175 62.768 267.983 62.96C267.759 63.184 267.535 63.504 267.375 63.792C267.215 64.048 266.927 64.24 266.607 64.24C266.447 64.24 266.286 64.336 266.191 64.56C265.967 65.04 265.071 64.976 264.815 65.168C264.335 65.52 264.079 65.616 263.791 65.616ZM267.567 53.136C268.047 52.752 268.143 52.688 268.719 52.4C268.943 52.272 269.711 52.144 269.935 52.208C269.967 51.728 270.031 51.216 270.031 50.768C270.031 49.488 269.711 48.912 269.103 48.432C268.943 48.304 268.879 48.144 268.815 47.984C268.495 46.96 267.759 46.32 266.51 46.32C265.583 46.32 265.327 47.28 264.847 47.664C264.623 47.824 264.495 47.952 264.367 48.304C264.271 48.592 264.111 49.008 263.823 49.36C263.375 49.968 263.375 50.544 263.407 51.024C263.439 51.536 264.047 51.952 264.239 52.272C264.559 52.784 265.615 53.392 266.51 53.392C266.927 53.392 267.311 53.328 267.567 53.136ZM283.97 66.608C283.49 66.608 283.106 66.704 282.466 66.256C281.41 65.552 281.602 66.32 279.746 64.464C279.458 64.176 279.074 63.824 279.042 63.28C278.978 62.256 278.562 61.392 278.562 60.496C278.562 59.76 278.978 59.12 279.01 58.416C279.042 57.648 279.33 56.912 279.554 56.144C279.682 55.664 280.002 55.312 280.29 55.024C280.578 54.736 280.61 54.384 280.706 54.224C280.93 53.872 281.154 53.936 281.378 53.712C281.186 53.52 280.866 52.944 280.77 52.56C280.642 52.176 280.546 51.6 280.546 50.992C280.546 50.32 280.642 49.616 280.93 48.976C281.122 48.56 281.282 48.112 281.378 47.664C281.666 46.448 282.498 45.616 283.362 44.912C283.65 44.688 283.938 44.464 284.322 44.304C284.738 44.144 285.122 44.048 285.538 44.048C286.082 44.048 286.626 44.208 287.234 44.464C287.874 44.752 288.322 45.104 288.546 45.616C288.674 45.904 288.834 46.128 289.122 46.288C289.634 46.576 289.602 46.928 290.274 47.248C290.946 47.568 291.17 48.08 291.234 48.656C291.266 48.912 291.426 49.232 291.618 49.52C291.81 49.84 291.97 50.256 291.906 50.768C291.906 50.864 291.874 50.96 291.874 51.024C291.874 51.216 291.906 51.408 292.002 51.568C292.066 51.696 292.13 51.824 292.13 51.952C292.13 52.08 292.066 52.208 291.97 52.368C291.586 52.912 291.202 54.064 290.69 54.512C290.338 54.832 289.954 54.928 289.634 55.184C290.69 56.176 289.922 56.4 290.754 57.616C291.138 58.192 291.106 58.736 291.106 59.216C291.106 59.376 291.138 59.472 291.17 59.632C291.202 59.856 291.234 60.08 291.234 60.304C291.234 61.36 290.818 62.352 290.306 63.248C289.794 64.144 288.866 64.464 288.13 65.264C287.458 66 286.754 65.904 286.146 66.128C285.346 66.448 284.61 66.608 283.97 66.608ZM285.346 63.28C286.242 63.28 286.85 62.768 287.138 62.416C287.33 62.192 287.298 62 287.394 61.84C287.522 61.616 287.746 61.456 287.97 61.168C288.258 60.752 288.29 60.08 288.29 59.184C288.29 58.8 288.162 58.448 288.034 58.064C287.938 57.744 287.938 57.424 287.778 57.072C287.618 56.72 287.49 56.592 287.394 56.496C286.882 56.592 286.658 56.816 286.05 56.816C285.09 56.816 284.322 56.496 283.49 56.112C283.138 56.432 282.562 56.688 282.466 57.808C282.402 58.32 282.242 58.736 281.954 59.056C281.698 59.312 281.602 59.632 281.602 59.984C281.602 60.208 281.698 60.88 281.698 61.136C281.698 61.392 281.602 61.744 281.602 62C281.602 62.288 281.698 62.416 281.89 62.608C281.954 62.672 282.114 62.832 282.178 62.896C282.242 62.96 282.402 63.152 282.498 63.248C282.722 63.472 283.074 63.728 283.618 63.728C284.354 63.728 284.674 63.28 285.346 63.28ZM286.722 53.136C287.042 53.36 287.202 53.392 287.298 53.456C287.394 53.392 287.522 53.296 287.714 53.104C287.906 52.912 288.354 52.368 288.546 52.08C288.834 51.664 289.058 51.248 289.058 50.672C289.058 50.16 288.866 49.616 288.482 49.04C288.13 48.496 287.714 48.208 287.106 48.016C286.594 47.856 285.922 47.472 285.314 47.152C284.802 47.472 284.866 47.728 284.77 47.952C284.61 48.24 284.61 48.528 284.45 48.848C284.13 49.488 283.554 49.776 283.554 50.48C283.554 51.184 283.842 51.6 283.906 52.272C283.938 52.528 283.97 52.72 284.066 52.88C284.418 52.816 284.834 52.72 285.186 52.72C285.57 52.72 286.274 52.848 286.722 53.136Z" fill="black"/>
</g>
<defs>
<clipPath id="clip0_7_2">
<rect width="39" height="37" fill="white"/>
</clipPath>
</defs>
</svg>
