<svg width="238" height="47" viewBox="0 0 238 47" fill="none" xmlns="http://www.w3.org/2000/svg">
<path d="M0.628749 46.336C0.148748 46.336 -0.459251 46.016 -0.811251 45.536C-1.16325 45.088 -1.03525 44.448 -1.09925 43.84C-1.13125 43.264 -1.16325 42.656 -0.68325 42.176C-0.55525 42.048 -0.459251 41.92 -0.39525 41.76C0.148748 40.16 1.04475 38.784 2.10075 37.568C3.06075 36.416 4.05275 35.232 5.07675 34.144C5.36475 33.856 5.58875 33.504 5.87675 33.216C6.38875 32.672 6.96475 32.224 7.47675 31.648C7.95675 31.136 8.50075 30.624 9.04475 30.144C9.14075 30.08 9.20475 29.984 9.26875 29.92C9.49275 29.696 9.52475 29.344 9.78075 29.152C10.8367 28.384 11.6367 27.328 12.8847 26.752C13.3327 26.56 13.7807 26.304 14.2287 26.08C14.3568 26.016 14.5807 25.952 14.6127 25.856C14.8367 25.344 15.2847 25.248 15.6687 25.088C16.2447 24.832 16.8528 24.736 17.3968 24.448C17.7168 24.288 18.1328 24.224 18.5168 24.192C18.7728 24.16 18.9968 24.096 19.2528 24.096C19.3168 23.904 19.4128 23.776 19.4768 23.616C19.7008 23.008 20.2448 22.848 20.6927 22.528C20.8208 22.464 21.0128 22.336 21.0768 22.208C21.3968 21.504 22.0048 21.024 22.6768 20.608C23.5728 20.064 24.4368 19.488 25.2368 18.912C25.7488 18.56 26.2608 18.272 26.8688 18.112C27.5728 17.952 28.0848 17.472 28.7568 17.184C29.5248 16.864 30.2928 16.64 31.1568 16.448C32.2448 16.224 33.4288 15.904 34.6128 15.904C34.8048 15.904 35.0288 15.872 35.2528 15.872C35.4448 15.872 35.6368 15.904 35.8288 16.032C35.8928 16.096 35.9888 16.064 36.1168 16.032C36.3728 15.968 36.5968 15.936 36.8208 15.936C37.3648 15.936 37.8768 16.096 38.3888 16.288C39.2848 16.608 40.2128 16.864 41.0448 17.344C41.1408 17.408 41.2368 17.44 41.3648 17.504C41.4608 17.44 41.5888 17.376 41.7168 17.248C42.1328 16.864 42.7088 16.704 43.2208 16.48C43.3808 16.416 43.5088 16.32 43.6688 16.192C44.7568 15.296 46.1328 15.008 47.3168 14.368C47.7008 14.176 48.1488 14.112 48.5648 14.08C49.3328 14.048 50.1007 14.016 50.8688 14.016C51.4768 14.016 52.0528 14.176 52.4688 14.208C52.7568 14.24 52.8848 14.272 53.0448 14.4C53.7488 15.072 54.9008 15.392 55.4768 16.448C55.8608 17.184 56.6928 17.472 57.0768 18.112C57.1728 18.272 57.2048 18.464 57.2048 18.656C57.2048 19.008 57.1088 19.36 57.1728 19.712C57.2688 20.224 57.4288 20.704 57.7168 21.12C58.1008 21.664 58.6128 21.92 59.1568 21.984C59.8288 22.048 60.5648 22.176 61.2688 22.176C61.4928 22.176 61.7168 22.176 61.9408 22.144C62.3248 22.08 62.5488 22.112 62.8368 21.984C63.0608 21.888 63.1888 21.6 63.5088 21.536C63.8608 21.472 64.1808 21.216 64.4048 20.992C64.5328 20.864 64.8208 20.64 64.9488 20.512C65.0448 20.416 65.2048 20.256 65.3008 20.096C65.7488 19.2 66.0048 18.272 66.0048 17.408C66.0048 16.8 65.9088 16.224 65.6208 15.68C65.4288 15.296 65.2048 15.168 64.9488 15.072C64.5328 14.944 64.1488 14.56 63.4128 14.56C63.2528 14.56 63.0928 14.56 62.9328 14.464C62.0688 13.92 61.1408 13.728 60.2448 13.216C59.3808 12.704 58.6448 12.096 58.0688 11.264C57.8448 10.944 57.6848 10.56 57.4288 10.304C56.9808 9.856 56.6928 9.312 56.4048 8.704C56.1488 8.096 55.9888 7.488 55.9888 6.88C55.9888 6.272 56.1488 5.632 56.4688 4.96C56.6928 4.512 56.9808 4.128 56.9808 3.584C56.9808 2.88 57.6848 2.368 58.2928 1.952C58.6128 1.76 58.8048 1.504 59.0928 1.312C59.7648 0.863998 60.3728 0.383999 61.2048 0.383999C61.6528 0.383999 62.0048 0.223999 62.5488 0.223999C63.1248 0.223999 63.7008 0.415998 64.3088 0.415998C64.3408 0.415998 64.3728 0.415998 64.4048 0.415998C65.4608 0.415998 66.3568 0.608 67.2848 1.024C67.6048 1.152 67.9248 1.28 68.2128 1.472C68.7888 1.856 69.2368 2.368 69.8768 2.624C70.0048 2.688 70.1008 2.848 70.2288 3.008C70.3248 3.168 70.4528 3.36 70.6128 3.456C71.3488 3.872 71.3488 4.128 71.3488 4.864C71.3488 5.536 70.4528 5.728 69.9408 5.856C69.8128 5.888 69.7168 5.888 69.6208 5.888C69.3648 5.888 69.1408 5.824 68.9488 5.664C68.5648 5.376 68.2448 5.024 67.8608 4.64C67.5728 4.352 67.1888 4.064 66.9328 3.712C66.8368 3.552 66.5488 3.456 66.3568 3.392C65.7488 3.2 65.1408 2.944 64.5328 2.944C63.5408 2.944 62.4848 2.816 61.6208 3.584C61.4608 3.712 61.3008 3.872 61.1728 4C60.9808 4.192 60.7568 4.48 60.5648 4.736C60.2448 5.088 59.9888 5.408 59.9248 5.92C59.8928 6.144 59.7328 6.336 59.6368 6.56C59.5088 6.912 59.4128 7.232 59.4128 7.552C59.4128 7.904 59.5088 8.224 59.7968 8.544C60.2128 9.056 60.5648 9.6 60.9488 10.176C61.2368 10.592 61.5888 10.912 62.1008 11.008C62.1968 11.04 62.3248 11.04 62.3888 11.104C63.0928 11.776 63.9568 11.776 64.7568 11.808C65.1728 11.84 65.4928 12.032 65.6848 12.224C65.9408 12.48 66.3248 12.704 66.6768 12.832C67.0288 12.96 67.3168 13.28 67.6048 13.472C68.0208 13.792 68.2768 14.112 68.2768 14.624C68.2768 14.976 68.4688 15.136 68.6288 15.392C69.0768 16.032 69.1408 16.8 69.1408 17.696C69.1408 18.432 68.9808 19.136 68.9808 19.872C68.9808 20.768 68.4688 21.6 67.8608 22.304C67.3488 22.88 66.8048 23.328 66.2928 23.904C66.0048 24.224 65.5248 24.192 65.0768 24.352C64.6288 24.512 64.1808 24.64 63.7008 24.736C63.1888 24.832 62.6448 25.024 62.1008 25.024C62.0368 25.024 61.9088 25.056 61.8128 25.024C61.3968 24.832 61.0128 24.8 60.5968 24.8C60.2128 24.8 59.8288 24.832 59.4448 24.832C59.1568 24.832 58.8688 24.832 58.6448 24.672C58.3248 24.384 57.9728 24.224 57.4928 24.224C57.1408 24.224 56.8848 24.064 56.6608 23.808C56.4368 23.552 56.1168 23.296 55.8928 23.072C55.6048 22.784 55.1888 22.432 55.0608 22.016C54.9328 21.536 54.4208 21.376 54.2608 20.928C54.0368 20.32 53.3968 19.872 53.3968 19.136C53.3968 18.432 52.8848 18.016 52.5008 17.504C51.9888 16.864 51.3808 16.448 50.6768 16.448C50.3888 16.448 50.1007 16.48 49.8128 16.608C48.2128 17.376 46.9968 17.152 46.0048 18.144C45.8768 18.272 45.7168 18.4 45.5568 18.432C44.4688 18.752 44.0208 19.296 43.6368 19.712C43.8928 19.968 44.2768 20.544 44.3408 20.992C44.4368 21.664 44.6608 22.304 44.7568 22.944C44.7888 23.232 44.7888 23.52 44.7888 23.808C44.7888 24 44.6608 24.256 44.5328 24.384C44.0208 24.896 43.3488 25.408 42.7408 25.856C42.5488 25.984 42.2608 26.112 42.0048 26.112C41.9088 26.112 41.8128 26.08 41.7168 26.048C41.0768 25.696 40.2448 26.08 39.6048 25.408C38.9648 24.704 38.4848 23.968 38.3888 23.008C38.3888 22.976 38.3888 22.976 38.3888 22.944C38.3888 22.72 38.5488 22.368 38.5488 22.176C38.5488 21.44 38.5168 20.928 38.8688 20.224C38.9648 20.032 39.0608 19.872 39.2208 19.68C39.2528 19.616 39.2848 19.584 39.3808 19.52C39.3168 19.456 39.1568 19.36 38.8368 19.232C38.6128 19.136 38.4848 19.104 38.3568 19.008C37.8448 18.656 37.2368 18.528 36.6608 18.528C36.4048 18.528 36.1808 18.56 35.9248 18.592C35.6688 18.656 35.4128 18.72 35.1248 18.656C34.9008 18.624 34.7088 18.592 34.4848 18.592C34.2608 18.592 34.0368 18.624 33.7808 18.688C32.8208 18.976 31.8288 19.072 30.8688 19.296C30.5488 19.36 30.1648 19.648 29.8448 19.712C29.4608 19.776 29.2368 20.032 28.9168 20.192C28.3088 20.512 27.7328 20.832 27.0928 20.992C26.5168 21.12 26.1008 21.472 25.8128 21.856C25.7168 21.984 25.5248 22.176 25.2368 22.24C24.9488 22.304 24.3408 22.4 23.9568 23.008C23.6688 23.488 22.8688 23.776 22.5488 24.544C22.8688 24.48 23.1248 24.512 23.2208 24.512C23.6688 24.512 23.9568 24.832 24.4368 24.832C25.0448 24.832 25.4608 25.184 25.9728 25.408C26.9648 25.888 28.0208 26.4 28.1808 27.488C28.2768 28.16 28.8848 28.768 28.8848 29.472C28.8848 29.952 28.7248 30.336 28.3408 30.72C28.2448 30.816 28.2448 30.944 28.2128 31.04C27.8608 31.904 27.0288 32.352 26.3568 32.832C26.0048 33.056 25.6848 33.248 25.1728 33.216C24.7248 33.184 24.2768 33.344 23.7328 33.344C23.5728 33.344 23.4128 33.664 23.2208 33.664C22.6768 33.664 22.2608 33.216 21.8128 33.12C20.9168 32.896 20.2448 32.48 19.7648 31.776C19.6688 31.616 19.4768 31.52 19.3808 31.392C18.8688 30.816 18.3568 30.208 18.3568 29.344C18.3568 28.896 18.1648 28.448 18.0688 28C18.0368 27.84 17.9408 27.584 18.0688 27.296C16.9488 27.488 16.3407 27.968 15.6367 28.256C15.5407 28.288 15.4128 28.448 15.3487 28.512C14.7727 29.088 14.1967 29.568 13.5247 29.92C12.7247 30.336 12.0207 30.88 11.4127 31.488C11.2847 31.616 11.2207 31.776 11.1247 31.904C10.9967 32.064 10.8367 32.256 10.6767 32.352C10.4847 32.48 10.3247 32.64 10.1967 32.896C10.0687 33.152 9.90875 33.44 9.65275 33.664C8.75675 34.464 7.82875 35.2 6.90075 35.968C6.70875 36.128 6.58075 36.32 6.48475 36.544C6.35675 36.864 6.19675 37.184 6.03675 37.472C4.88475 39.52 4.24475 39.296 3.22075 41.408C3.06075 41.792 2.83675 42.176 2.83675 42.592C2.83675 42.72 2.83675 42.848 2.90075 43.008C2.93275 43.072 2.93275 43.136 2.93275 43.2C2.93275 43.392 2.86875 43.648 2.74075 43.808C2.42075 44.32 2.29275 44.864 2.16475 45.376C2.10075 45.696 1.87675 45.856 1.58875 45.984C1.33275 46.08 1.01275 46.336 0.628749 46.336ZM23.3488 30.688C23.4448 30.72 23.5728 30.72 23.6688 30.72C24.2448 30.72 24.7888 30.368 25.2368 29.92C25.4928 29.632 25.7168 29.28 25.7168 28.928C25.7168 28.256 25.0448 27.488 24.3408 27.392C23.9888 27.36 23.7328 27.264 23.4448 27.104C23.1568 26.912 22.8688 26.784 22.5488 26.784C22.0368 26.784 22.1008 26.976 21.4608 26.976C21.3648 26.976 21.3008 27.008 21.0768 27.04C20.9808 27.232 20.8208 27.648 20.8208 28.032C20.8208 28.48 20.9168 28.864 21.4608 29.792C22.0368 30.784 22.1008 30.208 22.6128 30.624C22.8368 30.784 23.0608 30.624 23.3488 30.688ZM81.6355 23.264C80.7075 23.296 79.9395 23.456 79.3635 23.232C79.1395 23.136 79.0435 23.008 78.4995 22.208C78.2435 21.824 77.8595 21.728 77.5075 21.024C77.1235 20.256 76.9955 19.104 77.1875 18.144C77.5075 16.48 77.1555 16.064 77.1555 15.2C77.1555 14.176 77.1235 13.408 77.0915 12.96C77.0595 12.608 77.1235 12.352 77.2195 12.224C77.3475 12.032 77.4115 11.872 77.4115 11.68C77.4115 11.296 77.4435 10.56 77.4435 9.92C77.4435 9.856 77.5715 9.248 77.5395 8.928C77.5075 8.48 77.1555 7.84 77.0915 7.328C77.0275 6.88 77.1555 6.528 77.0915 6.08C77.0275 5.792 76.8355 5.376 76.8355 5.088C76.8355 4.704 76.7395 4.576 76.7075 4.288C76.6435 3.84 76.8995 3.232 77.6355 2.912C78.6275 2.496 79.4275 2.816 81.1875 2.464C82.4995 2.208 82.9155 2.464 83.6195 2.688C84.8995 3.136 85.4755 3.104 85.9235 3.296C86.7235 3.68 87.3635 4.192 87.3635 5.024C87.3635 5.248 87.2355 5.472 87.1715 5.728C87.0755 6.112 86.6915 6.24 86.1795 6.272C85.6035 6.304 85.6675 6.56 85.2195 6.496C84.8675 6.432 84.4195 6.112 83.8115 5.888C83.3955 5.728 81.6675 6.016 80.4195 5.888C80.3235 6.144 80.2915 6.24 80.2915 6.688C80.2915 7.552 80.5475 8.096 80.5475 8.448C80.5475 8.928 80.3235 9.536 80.3235 9.824C80.3235 9.952 80.2915 10.112 80.2915 10.528C80.2915 11.136 80.3555 11.296 80.3555 11.488C80.7395 11.488 81.6355 11.552 82.7555 11.584C83.8755 11.616 84.9955 11.936 85.3795 12.32C85.7955 12.736 85.7315 13.088 85.6675 13.344C85.5715 13.728 85.7315 13.888 85.6675 14.432C85.6035 14.912 84.8675 15.392 84.2595 15.392C83.9395 15.392 83.4595 15.232 83.1715 15.04C82.6595 14.72 81.8275 14.496 80.8035 14.496C80.5795 14.496 80.4195 14.528 80.2595 14.592C80.3235 15.104 80.4515 15.744 80.4515 16.128C80.4515 16.704 80.1315 17.12 80.1955 18.112C80.2275 18.592 80.3875 18.624 80.3875 19.36C80.3875 19.744 80.5155 19.936 80.5795 20.032C80.7715 19.968 81.1235 19.936 81.3795 19.936C81.6675 19.936 82.5635 19.616 83.1395 19.68C84.0995 19.776 84.2275 19.584 84.8035 19.584C85.0595 19.584 85.4115 19.68 85.7315 20.096C86.2435 20.8 86.7875 20.96 86.8515 21.6C86.9155 22.208 86.4995 22.496 86.0835 22.72C85.5715 23.008 84.9955 23.136 84.4835 23.04C82.8835 22.752 82.4355 23.232 81.6355 23.264ZM102.162 13.536C101.97 13.664 101.81 13.664 101.65 13.728C101.874 13.92 102.002 13.92 102.226 14.176C103.346 15.424 102.674 15.328 104.114 16.8C105.522 18.208 105.202 18.528 106.482 19.712C106.738 19.968 106.994 20.064 107.282 20.128C108.05 20.224 108.21 21.184 108.018 21.76C107.826 22.432 107.538 22.464 107.25 23.104C107.026 23.68 106.546 23.776 106.098 23.712C105.81 23.68 105.554 23.52 105.234 23.232C104.946 23.04 105.138 22.72 104.498 22.368C104.37 22.304 103.89 21.568 103.794 21.44C103.442 21.088 102.866 20.96 102.834 20.608C102.802 20.128 102.514 20.224 102.354 19.968C100.786 16.864 100.434 17.952 99.1863 15.456C98.9943 15.04 98.6103 14.944 98.1943 14.912C97.6183 14.784 96.7223 13.824 96.8823 12.736C97.0423 11.712 97.9062 11.616 98.4823 11.712C98.8343 11.776 99.0263 11.808 99.2823 11.744C99.6343 11.648 99.6663 11.616 99.9863 11.488C100.274 11.392 100.498 11.232 100.658 11.04C101.138 10.336 101.394 9.984 102.066 9.472C102.514 9.12 102.642 8.8 102.642 8.256C102.642 7.904 102.866 7.488 102.482 7.2C101.906 6.784 102.066 6.4 101.33 5.856C100.882 5.536 100.978 5.12 100.306 4.992C100.114 4.928 99.4103 4.896 99.1223 5.184C98.8983 5.408 98.3863 5.312 98.1943 5.408C97.7463 5.6 97.8423 5.792 97.5543 5.952C97.3303 6.048 97.0423 6.016 96.8503 6.176C96.3703 6.592 96.4343 6.624 95.8263 7.296C95.9223 7.776 95.9543 8.288 96.0823 8.512C96.1463 8.64 96.2103 8.864 96.2103 9.28C96.2103 9.888 96.7863 10.784 96.9143 11.136C97.1063 11.616 97.1383 11.808 97.1383 12.096C97.1383 12.32 97.0743 12.64 97.0743 12.864C97.0743 13.088 97.6823 14.304 97.6823 14.944C97.6823 15.584 97.5223 16.256 97.5223 16.992C97.5223 17.44 97.6183 18.656 97.6183 18.784C97.6183 18.944 97.6503 19.104 97.6503 19.296C97.6503 19.616 97.3943 19.872 97.3943 20.224C97.3943 20.8 97.7783 21.216 97.7783 21.728C97.7783 22.848 97.6183 23.296 97.7463 24.544C97.8103 25.28 97.5863 25.44 97.5223 25.728C97.4263 26.368 97.2023 26.528 96.6263 26.496C96.0183 26.432 95.2503 26.368 95.0903 25.472C95.0583 25.344 94.9623 25.312 94.8663 25.248C94.5783 25.088 94.4183 24.768 94.5143 24.256C94.6423 23.584 94.4183 22.848 94.4183 22.176C94.4183 21.824 94.4503 21.472 94.5143 21.056C94.6423 20.32 94.3543 19.776 94.3543 18.976C94.3543 18.688 94.4503 18.528 94.4503 18.24C94.4503 17.952 94.2263 17.664 94.2263 17.312C94.2263 16.704 94.3863 16.064 94.1623 15.296C93.8423 14.208 93.8423 13.12 93.8423 12.352C93.8423 12.064 93.8423 12.032 93.8423 11.936C93.8423 11.808 93.8103 11.648 93.6823 11.264C93.1703 9.984 93.2343 8.384 92.7863 6.784C92.6903 6.464 92.6903 6.208 92.6903 5.984C92.6903 5.248 93.0103 4.832 93.8103 4.096C94.4823 3.52 95.2183 2.944 96.0503 2.784C97.4263 2.496 97.5863 2.08 98.4503 1.792C98.8983 1.632 99.4103 1.568 99.8263 1.568C100.69 1.568 101.522 1.792 102.258 2.304C102.578 2.528 102.738 2.688 102.866 2.944C103.186 3.456 103.538 4 103.954 4.384C104.626 4.992 105.138 5.536 105.522 6.176C105.938 6.976 105.906 7.36 106.066 7.968C106.194 8.416 106.226 8.576 106.226 8.8C106.226 9.184 105.874 9.504 105.618 9.92C105.426 10.336 105.17 10.752 104.818 11.008C104.434 11.296 104.69 11.424 104.402 11.68C104.018 12 103.666 12.224 103.538 12.608C103.41 12.864 103.09 13.088 102.674 13.312C102.546 13.376 102.258 13.472 102.162 13.536ZM115.701 22.816C115.029 22.816 114.965 22.528 114.613 22.208C114.421 22.016 114.133 21.984 113.973 21.504C113.877 21.152 113.877 20.768 113.877 20.256C113.877 19.424 113.877 18.624 113.845 17.92C113.845 17.312 114.005 16.768 114.005 16.256C114.005 15.936 113.877 15.68 113.909 15.168C113.909 15.072 113.941 14.944 113.941 14.816C113.973 14.496 114.005 14.112 114.036 13.728C114.069 13.216 114.229 12.64 114.261 12.192C114.293 11.744 114.133 11.328 114.133 10.912C114.133 10.496 114.293 10.144 114.261 9.664C114.229 8.864 113.749 7.968 113.845 6.848C113.877 6.528 113.621 5.92 113.557 5.728C113.461 5.472 113.365 5.088 113.365 4.832C113.365 4.096 113.781 3.744 114.325 3.52C115.029 3.2 115.253 2.752 115.893 2.72C116.501 2.688 116.949 2.72 117.333 2.656C117.749 2.592 118.133 2.464 118.581 2.464C119.125 2.464 119.925 3.072 120.725 3.04C121.493 3.008 121.589 3.392 122.037 3.52C122.837 3.744 123.669 4.352 124.373 5.376C124.757 5.888 124.789 6.048 125.141 8.288C125.205 8.64 125.109 8.928 125.013 9.152C124.757 9.696 124.501 10.272 124.373 10.816C124.277 11.232 124.501 11.616 124.149 11.936C123.701 12.32 123.797 12.736 123.477 12.96C123.157 13.248 122.485 13.536 121.941 13.6C120.405 13.792 120.981 14.112 119.829 14.112C119.189 14.112 118.165 13.888 117.653 13.888C117.429 13.888 117.205 13.888 117.077 13.92C117.013 14.048 117.045 14.208 117.077 14.432C117.173 15.776 117.173 16.384 116.949 17.28C116.821 17.792 116.789 18.016 116.789 18.272C116.789 18.624 116.885 19.072 116.949 19.456C116.981 19.648 116.853 19.968 116.885 20.16C116.917 20.448 117.109 20.608 117.109 20.896C117.109 21.12 117.077 21.344 117.013 21.6C116.821 22.304 116.405 22.816 115.701 22.816ZM117.812 11.072C118.357 11.072 118.549 10.944 119.029 10.944C119.413 10.944 120.021 11.072 120.213 11.072C120.757 11.072 121.173 10.688 121.269 10.176C121.525 8.8 122.037 9.344 121.845 7.392C121.781 6.656 121.397 6.144 120.821 6.048C119.733 5.888 119.669 5.344 118.517 5.568C118.005 5.664 117.589 5.376 117.013 5.664C116.757 5.792 116.693 5.952 116.693 6.208C116.693 6.368 116.725 6.496 116.757 6.688C116.821 6.944 116.981 7.296 116.917 7.744C116.821 8.48 117.237 9.184 117.173 9.6C117.109 10.048 116.981 10.4 116.981 10.624C116.981 10.752 117.013 10.848 117.045 11.008C117.205 11.04 117.429 11.072 117.812 11.072ZM134.557 24.256C134.301 24.256 134.045 24.288 133.789 24.288C133.309 24.288 132.669 24.128 132.413 23.744C132.157 23.392 131.613 23.232 131.036 23.168C130.525 23.104 130.589 22.592 130.365 22.336C130.013 21.92 129.949 21.12 130.013 20.576C130.173 19.584 130.397 18.656 130.493 17.984C130.589 17.28 130.365 17.216 130.365 16.768C130.365 16.288 130.589 16.032 130.717 15.552C130.877 14.88 130.941 14.432 130.877 13.728C130.845 13.472 130.845 13.28 130.845 13.088C130.845 12.864 130.845 12.608 130.941 12.32C131.229 11.424 131.036 10.24 131.229 9.024C131.357 8.352 131.453 7.648 131.453 7.264C131.453 6.368 131.229 6.496 131.229 5.696C131.229 5.248 131.261 4.8 131.357 4.352C131.485 3.68 131.709 3.168 132.029 2.688C132.253 2.368 132.445 2.144 132.765 2.016C133.053 1.888 133.629 1.568 134.141 1.664C135.709 1.984 135.677 1.6 137.181 2.112C138.397 2.528 139.517 3.296 140.221 3.648C140.605 3.84 140.893 3.968 141.149 3.968C141.565 3.968 141.821 4.128 142.013 4.48C142.301 4.992 142.493 5.472 142.557 6.048C142.589 6.368 142.845 6.432 142.845 6.88C142.845 7.424 142.333 7.712 141.757 8.032C141.341 8.256 140.893 8.384 140.413 8.384C140.029 8.384 139.389 7.648 139.357 7.264C139.325 7.008 139.293 6.816 139.293 6.592C139.069 6.432 138.813 6.24 138.333 5.984C137.853 5.728 137.469 5.664 137.117 5.472C136.797 5.28 136.413 5.056 136.189 5.056C135.837 5.056 135.613 5.088 135.325 5.152C135.101 5.216 134.877 5.312 134.685 5.408C134.397 5.568 134.237 5.792 134.237 6.08C134.237 6.144 134.237 6.24 134.269 6.336C134.429 6.88 134.589 7.424 134.589 8.064C134.589 8.832 134.205 8.896 134.205 10.72C134.205 10.944 134.205 11.072 134.237 11.232C134.365 11.296 134.557 11.328 134.717 11.392C135.581 11.68 135.933 11.488 136.605 11.584C136.989 11.648 137.309 11.744 137.885 11.968C138.269 12.128 138.717 11.84 139.133 11.84C139.709 11.84 139.709 12.192 140.221 12.48C140.669 12.736 140.957 13.248 140.957 13.92C140.957 14.56 140.477 14.912 140.221 14.944C139.869 14.976 139.485 15.008 139.197 15.008C139.037 15.008 138.813 14.88 138.589 14.88C138.365 14.88 138.077 15.04 137.821 15.04C137.405 15.04 137.053 14.944 136.733 14.848C136.445 14.752 136.029 14.624 135.677 14.624C134.973 14.592 134.525 14.464 134.013 14.272C133.949 14.4 133.917 14.56 133.885 14.816C133.853 15.04 133.853 15.296 133.853 15.52C133.853 15.84 133.757 16.032 133.661 16.32C133.533 16.704 133.437 16.96 133.533 17.6C133.661 18.4 133.405 19.168 133.341 20.16C133.309 20.48 133.309 20.704 133.309 20.896C133.469 20.96 133.629 21.024 133.789 21.024C134.812 21.088 134.909 20.832 135.773 21.088C136.637 21.344 137.053 20.992 137.469 20.992C137.949 20.992 138.525 21.12 139.069 21.408C139.453 21.6 139.741 21.952 139.805 22.432C139.901 23.232 139.869 23.328 138.653 24C138.109 24.288 137.629 24.288 137.117 24.288C136.925 24.288 136.701 24.288 136.509 24.256C136.189 24.224 135.869 24.192 135.549 24.192C135.197 24.192 134.877 24.224 134.557 24.256ZM149.014 23.904C148.182 23.904 147.67 23.488 147.446 23.072C147.35 22.88 147.286 22.656 147.286 22.464C147.286 21.856 147.574 21.312 147.67 20.832C147.702 20.672 147.798 20.384 147.798 20.128C147.798 19.872 147.734 19.52 147.734 19.296C147.734 19.104 147.798 18.944 147.862 18.816C148.182 17.92 148.342 17.184 148.438 16.416C148.566 15.264 148.214 14.048 148.758 12.448C149.302 10.848 149.014 10.72 149.27 9.6C149.654 7.968 149.43 7.072 149.718 6.432C149.846 6.112 149.878 5.888 149.878 5.6C149.878 5.376 149.846 5.152 149.846 4.896C149.846 4.672 149.878 4.448 149.91 4.192C150.038 3.296 150.742 2.688 151.638 2.688C152.278 2.688 153.238 3.424 153.398 4.352C153.494 4.928 153.59 5.408 153.814 5.728C154.07 6.112 154.422 6.496 154.454 7.104C154.486 7.872 155.062 8.672 155.19 9.344C155.414 10.528 155.83 10.752 156.022 11.2C156.246 11.616 156.15 12.192 156.854 13.216C157.366 13.952 156.982 14.048 157.398 15.136C157.494 15.392 157.558 15.456 157.75 15.808C157.814 15.456 158.07 15.296 158.07 13.824C158.07 12.832 158.518 11.584 158.486 10.368C158.454 9.184 159.318 7.936 159.19 6.656C159.062 5.216 159.478 5.152 159.35 3.648C159.254 2.496 159.798 1.632 161.174 1.632C161.494 1.632 161.846 1.728 162.102 1.92C162.358 2.112 162.55 2.4 162.55 2.784C162.55 3.232 162.358 3.68 162.358 4.16C162.358 4.64 162.517 5.152 162.517 5.6C162.517 6.016 162.454 6.432 162.23 7.424C162.006 8.544 162.326 9.344 161.686 10.944C161.398 11.68 161.686 12.64 161.302 13.28C161.142 13.568 161.078 13.888 161.078 14.176C161.078 14.304 161.174 14.624 161.174 14.944C161.174 15.072 161.142 15.264 160.95 15.648C160.662 16.32 160.566 16.768 160.534 17.312C160.47 18.24 159.99 18.4 159.798 19.424C159.67 20.064 158.902 20.416 158.294 20.416C157.782 20.416 157.622 20.096 157.206 19.84C156.854 19.616 156.182 19.552 156.054 19.008C155.478 16.448 154.806 16.832 154.742 15.904C154.678 15.136 154.198 14.816 154.134 14.272C154.006 13.152 153.494 13.184 153.27 12.256C152.758 10.336 152.63 10.208 152.214 9.248C152.054 10.208 151.958 10.624 151.958 11.808C151.958 12.352 151.926 13.056 151.734 13.504C151.606 13.824 151.51 14.112 151.51 14.496C151.51 14.656 151.51 14.816 151.542 14.976C151.638 15.584 151.318 16.16 151.318 16.8C151.318 17.92 150.934 20.352 150.646 21.152C150.518 21.536 150.582 22.048 150.582 22.496C150.582 23.392 149.846 23.904 149.014 23.904ZM174.894 24.256C174.542 24.256 174.094 24 173.774 23.808C173.262 23.456 173.038 23.008 172.846 22.592C172.718 22.336 172.59 22.016 172.814 21.632C173.422 20.64 172.75 20.672 173.422 19.2C173.71 18.592 173.71 17.952 173.71 17.312C173.71 16.864 173.838 16.48 173.902 16.032C173.966 15.744 174.19 15.424 174.19 14.528C174.254 11.744 174.894 11.872 174.894 10.24C174.894 9.344 175.31 9.184 175.31 8.544C175.31 7.904 175.438 7.616 175.438 7.296C175.438 7.072 175.502 6.88 175.502 6.624C175.246 6.56 174.83 6.464 174.318 6.496C173.07 6.528 172.014 6.976 171.31 6.976C170.51 6.976 170.542 6.592 169.838 6.528C168.75 6.432 167.918 5.792 167.918 5.184C167.918 4.576 168.558 4.192 168.654 3.584C168.718 3.104 169.55 2.752 170.158 2.752C170.606 2.752 171.566 3.04 172.046 3.232C172.43 3.36 172.814 3.392 173.198 3.392C173.55 3.392 173.87 3.2 174.478 3.296C175.214 3.424 175.63 3.104 176.366 3.2C177.038 3.296 177.166 3.552 177.998 3.552C178.766 3.552 179.278 4 180.014 4C181.166 4 181.934 3.808 183.214 4.352C183.758 4.576 183.982 4.608 184.398 4.576C185.07 4.512 185.71 4.768 186.126 4.992C186.414 5.184 186.51 5.216 186.702 5.248C187.438 5.376 187.086 6.048 187.662 6.496C187.79 6.624 187.854 6.784 187.854 6.976C187.854 7.296 187.662 7.68 187.342 7.872C187.054 8.032 186.83 7.936 186.35 8.32C186.126 8.512 185.774 8.512 185.454 8.512C184.75 8.512 184.334 8.256 183.854 7.936C183.374 7.616 182.862 7.36 182.35 7.488C181.134 7.776 181.166 7.392 179.694 7.392C179.47 7.392 179.246 7.296 178.99 7.296C178.926 7.552 178.894 7.904 178.894 8.16C178.894 9.152 178.414 9.344 178.382 10.688C178.382 11.008 178.382 11.328 178.158 11.552C177.838 11.872 178.222 12.096 177.838 12.736C177.422 13.44 177.678 14.112 177.678 14.88C177.678 15.264 177.518 15.584 177.294 15.936C177.102 16.256 177.166 16.704 177.134 17.12C177.102 17.6 177.134 18.08 177.102 18.56C177.07 18.976 177.038 19.36 176.91 19.744C176.654 20.448 176.27 21.248 176.43 21.984C176.59 22.752 175.694 24.256 174.894 24.256ZM193.068 22.496C192.62 22.656 192.492 22.656 192.364 22.656C192.076 22.656 191.884 22.56 191.724 22.432C191.148 21.952 190.828 21.344 190.828 20.512C190.828 19.776 191.148 19.968 191.18 18.72C191.244 16.992 191.724 16.992 191.692 13.632C191.692 13.12 191.884 12.896 191.948 12.384C191.98 11.936 191.884 11.168 192.012 10.4C192.236 9.088 192.044 8.32 192.044 7.488C192.044 6.4 192.332 6.912 192.332 5.824C192.332 5.344 192.332 4.928 192.332 4.48C192.332 3.84 192.812 3.456 193.452 3.456C194.252 3.456 194.796 3.648 195.02 4.128C195.18 4.448 195.308 4.576 195.532 4.8C195.756 5.024 195.884 5.376 195.884 5.792C195.884 5.984 195.884 6.176 195.82 6.368C195.212 8.672 195.564 9.024 195.308 10.24C195.116 11.2 195.404 11.616 195.404 12.032C195.404 12.64 195.18 13.28 195.116 13.888C195.052 14.336 195.084 14.752 195.052 15.232C194.988 15.808 194.892 16.384 194.796 16.672C194.668 17.12 194.604 17.376 194.668 17.696C194.7 17.952 194.796 18.624 194.604 19.2C194.476 19.584 194.38 20.096 194.38 20.512C194.38 21.856 193.74 22.272 193.068 22.496ZM204.18 23.776C204.084 23.776 203.988 23.776 203.86 23.776C203.188 23.776 202.868 23.52 202.292 22.72C201.94 22.208 201.876 21.6 201.908 20.992C201.94 20.32 202.356 19.68 202.292 18.88C202.228 17.856 202.74 17.28 202.74 16.384C202.74 14.784 203.316 13.856 203.284 12.576C203.252 11.456 203.956 10.4 204.052 9.28C204.276 6.144 204.66 7.296 204.852 4.864C204.948 3.84 205.78 3.392 206.58 3.392C207.06 3.392 207.54 3.584 207.796 4.032C208.276 4.896 208.756 5.44 209.556 6.016C210.036 6.368 209.78 6.656 210.484 7.232C211.252 7.84 211.54 8.128 211.7 9.056C211.764 9.44 211.956 9.664 212.244 9.92C213.332 10.88 212.788 11.168 213.716 12.352C214.164 12.928 214.228 14.464 214.804 14.624C215.124 14.272 214.644 13.824 215.348 12.416C215.796 11.52 215.892 10.976 215.892 10.496C215.892 9.632 216.276 9.248 216.34 8.576C216.564 6.56 216.788 7.136 216.916 6.272C216.98 5.888 216.82 5.184 216.98 4.864C217.396 4.064 217.236 3.808 217.396 3.296C217.684 2.4 218.324 2.112 219.316 2.24C220.212 2.368 221.044 2.72 221.044 3.616C221.044 5.056 219.988 6.272 219.988 7.68C219.988 7.744 219.988 7.776 219.988 7.904C219.988 8.736 219.668 9.504 219.22 10.176C219.06 10.4 219.06 10.528 219.06 10.88C219.06 11.008 218.996 11.168 218.932 11.296C218.836 11.488 218.74 11.712 218.74 11.936C218.74 12.32 218.868 12.608 218.868 12.96C218.836 13.76 218.42 14.272 218.324 14.656C218.196 15.168 218.26 15.392 218.164 15.552C217.876 15.936 217.78 16.288 217.78 16.768C217.78 17.216 217.556 17.728 217.428 18.176C217.332 18.464 217.332 18.624 217.332 18.976C217.332 19.872 217.3 20.256 216.372 20.736C216.212 20.832 216.052 20.864 215.892 20.864C215.316 20.864 214.548 20.256 214.388 19.84C213.876 18.464 213.332 18.816 212.788 17.28C212.628 16.864 212.5 16.448 212.18 16.064C211.956 15.808 211.796 15.52 211.732 15.168C211.572 14.4 211.316 13.792 210.836 13.12C210.164 12.192 209.684 11.36 209.46 10.624C209.236 9.824 208.596 9.856 208.276 8.992C208.148 8.64 207.924 8.416 207.764 8.16C207.604 7.904 207.54 7.808 207.38 7.648C207.316 7.808 207.22 7.968 207.22 8.224C207.22 8.832 207.22 9.696 206.868 10.272C206.708 10.528 206.836 10.944 206.836 11.232C206.836 11.968 206.164 12.384 206.164 13.184C206.164 13.376 206.196 13.568 206.196 13.76C206.196 14.016 206.004 14.4 206.004 14.592C206.004 15.008 206.164 15.136 206.164 15.552C206.164 15.776 206.1 16 205.972 16.224C205.62 16.928 205.876 17.28 205.588 17.92C205.044 19.168 205.78 18.848 204.916 21.024C204.724 21.536 205.012 22.048 205.012 22.656C205.012 22.72 205.012 22.816 205.012 22.88C205.012 23.552 204.788 23.776 204.18 23.776ZM233.532 12.512C233.788 12.512 234.044 12.48 234.204 12.416C234.044 11.712 233.948 11.072 234.012 10.56C234.14 9.696 233.564 8.768 233.436 8.096C233.116 6.4 233.02 6.304 232.796 5.696C232.668 6.304 232.476 6.4 232.316 6.752C232.156 6.944 231.932 7.84 231.612 8.384C231.036 9.536 231.164 10.336 230.812 11.232C230.716 11.52 230.588 11.776 230.524 12.032C230.588 12.032 230.748 12.16 231.036 12.192C231.836 12.32 231.996 12.224 232.412 12.32C232.764 12.352 233.148 12.512 233.532 12.512ZM232.572 15.296C232.38 15.296 232.188 15.264 232.06 15.232C231.516 15.072 230.876 15.008 230.396 15.008C230.204 15.008 230.012 15.008 229.564 15.008C229.532 15.104 229.468 15.168 229.244 15.904C229.052 16.576 228.604 17.376 228.22 18.272C228.028 18.688 228.156 19.04 227.996 19.264C227.42 20.064 228.06 20.384 228.06 21.056C228.06 21.728 227.068 22.208 226.46 22.208C225.18 22.208 224.444 21.6 224.444 20.416C224.444 19.872 224.508 19.264 224.796 18.752C225.82 16.896 225.692 15.136 226.94 12.896C227.196 12.416 227.388 11.904 227.516 11.392C227.932 9.664 228.604 8 229.212 6.592C229.436 6.048 229.66 5.824 229.788 5.6C230.076 4.992 230.236 4.352 230.364 3.68C230.492 3.008 230.716 2.336 231.228 1.824C231.676 1.376 232.22 1.344 232.732 1.344C232.988 1.344 233.34 1.568 233.596 1.792C233.724 1.92 233.884 2.016 234.012 2.144C234.204 2.368 234.3 2.592 234.428 2.944C234.524 3.232 234.94 3.584 235.228 4C236.092 5.248 235.74 5.728 236.092 6.304C236.316 6.656 236.412 7.072 236.572 8.096C236.732 9.216 236.988 9.664 236.988 10.208C236.988 10.528 236.988 10.688 237.116 11.072C237.34 11.776 237.468 12.384 237.468 13.056C237.468 14.4 237.852 16.288 237.852 16.8C237.852 17.248 237.756 17.44 237.756 18.112C237.756 18.624 237.98 18.784 237.98 19.84C237.98 20.192 237.98 20.704 237.884 21.056C237.756 21.536 237.212 22.144 236.732 22.176C235.74 22.24 234.78 21.664 234.78 20.704C234.78 20.576 234.78 20.448 234.812 20.32C234.908 19.904 234.94 19.712 234.94 19.584C234.94 19.168 234.396 18.176 234.428 15.296C233.724 15.296 233.308 15.296 232.572 15.296Z" fill="black"/>
</svg>
