<svg width="27" height="36" viewBox="0 0 27 36" fill="none" xmlns="http://www.w3.org/2000/svg">
<path d="M22.6411 35.088C22.3851 35.088 21.2331 34.384 21.1371 34.096C21.0731 33.872 20.9451 33.68 20.6571 33.456C20.4011 33.264 20.2731 32.944 20.1771 32.688C20.0811 32.4 19.8251 32.272 19.6651 31.888C19.3771 31.184 19.0571 31.152 18.6731 30.224C18.3851 29.456 18.0971 28.816 17.7131 28.304C17.5211 28.016 17.3931 27.76 17.2651 27.536C17.0411 27.088 17.0091 26.864 16.9131 26.704C16.6571 26.192 16.4331 25.872 16.1131 25.712C15.4091 25.392 15.0251 24.784 14.7691 23.952C14.8331 24.208 14.2251 23.056 14.1611 22.384C14.1291 21.968 13.5531 21.584 13.3611 21.072C13.3291 20.944 13.2331 20.752 13.1051 20.4C12.3371 20.624 11.6011 20.784 10.7691 20.784C10.5451 20.784 10.3851 20.784 10.2251 20.784C9.58513 20.784 8.56113 20.4 8.30513 20.4C7.88913 20.4 7.50513 20.336 7.31313 20.336C6.76913 20.336 6.19313 19.888 5.68113 19.952C5.10513 20.016 4.59313 19.504 3.21713 18.48C2.80113 18.224 2.57713 17.904 2.38513 17.488C2.19313 16.944 1.74513 16.432 1.36113 15.6C1.20113 15.376 1.10513 15.088 1.00912 14.832C1.00912 14.8 0.817125 14.352 0.753125 14.064C0.689125 13.712 0.561125 13.264 0.561125 12.784C0.561125 12.72 0.561125 12.688 0.561125 12.656C0.369125 12.208 0.337125 11.76 0.337125 11.376C0.337125 10.608 0.433125 9.968 0.433125 9.424C0.433125 9.008 0.529125 8.624 0.657125 8.336C0.689125 8.08 0.561125 8.048 0.561125 7.824C0.561125 7.024 1.04113 6.768 1.32913 6.48C1.48913 6.352 2.80113 4.688 3.28113 4.048C3.66513 3.504 4.08113 3.088 4.56113 2.8C4.78513 2.672 5.13713 2.384 5.61713 2.032C5.71313 1.968 6.03313 1.68 6.22513 1.584C6.44913 1.488 6.73713 1.392 7.02513 1.296C7.24913 1.2 7.53713 1.104 7.82513 1.104C7.72913 1.104 8.24113 1.04 8.43313 1.04C8.84913 1.04 9.26513 1.136 9.61713 1.296C9.90513 1.008 10.3531 0.879999 10.8011 0.879999C11.1211 0.879999 11.5051 0.975998 12.3691 1.296C13.3931 1.232 14.1931 1.808 14.6731 1.904C14.7051 1.904 15.0251 1.872 15.3131 2.032C16.0171 2.448 15.9851 2.736 16.7531 3.216C17.7131 3.792 17.2331 3.92 17.7771 4.368C18.0011 4.56 18.1931 4.816 18.3531 5.008C18.6091 5.424 18.9931 5.904 19.2811 6.448C19.6011 7.088 19.9211 7.952 19.9211 8.944C19.9211 9.04 19.8571 9.328 19.9211 9.616C20.0171 9.936 20.1131 10.224 20.1131 10.704C20.1131 10.96 20.0171 11.472 20.0171 11.632C19.9851 12.176 20.1771 12.464 19.8571 13.392C19.5051 14.416 19.3771 15.152 17.9371 16.72C18.4171 17.232 18.5771 17.488 18.7051 17.744C18.8011 17.904 18.8331 17.968 18.9611 18.096C19.3451 18.48 19.4411 18.896 19.5371 19.248C19.6331 19.536 19.6651 19.6 19.6971 19.632C20.2411 20.24 20.4011 20.88 20.5611 21.648C20.5611 21.808 20.5611 21.712 20.6571 21.84C20.7531 21.872 21.0411 22.928 21.0091 22.736C21.0731 22.992 21.1371 23.152 21.2651 23.28C21.5211 23.6 21.5851 23.696 21.5851 23.728C21.8731 23.888 22.8971 24.944 23.0571 25.232C23.2491 25.648 23.7931 26.256 24.1771 27.024C24.3051 27.216 24.3371 27.312 24.4011 27.376C24.7211 27.6 25.1051 28.496 25.3931 29.456C25.5531 30.032 26.5451 31.152 26.6411 32.016C26.8011 33.584 25.2971 33.936 24.9451 34.288C24.4971 34.736 23.9211 35.056 23.3131 35.056C23.2491 35.056 23.2171 35.056 23.1851 35.056C23.0891 35.056 22.8011 35.088 22.6411 35.088ZM22.9931 32.4C23.4731 32.4 23.9851 32.176 23.9851 31.76C23.9851 31.44 23.5051 31.248 23.5051 30.928C23.5051 30.864 23.4731 30.8 23.4731 30.736C23.4731 30.416 23.3131 30 23.1211 29.808C23.0251 29.712 22.9291 29.552 22.9291 29.456C22.9291 29.264 22.6731 29.2 22.6411 29.072C22.4171 28.56 22.1611 28.08 21.8731 27.696C21.5531 27.376 21.2651 26.864 21.0091 26.48C20.8171 26.192 20.5291 25.968 20.2731 25.712C20.1771 25.648 20.0811 25.616 19.2811 24.624C18.9611 24.176 18.7371 23.664 18.4491 23.12C18.1931 22.64 18.0651 22.192 18.0651 21.776C18.0651 21.552 17.9371 21.456 17.8731 21.296C17.6811 21.008 17.4891 20.72 17.2971 20.4C17.1691 20.208 16.9131 20.016 16.8811 19.824C16.8171 19.568 16.7211 19.408 16.5931 19.216C16.3371 18.864 16.3371 18.96 16.0171 18.576C15.9531 18.512 15.8891 18.384 15.6971 18.384C15.5051 18.384 15.2491 18.64 15.2491 18.832C15.2491 19.344 15.2811 19.408 15.5691 19.696C15.6971 19.824 15.7931 19.952 15.8251 20.144C15.9211 20.528 15.9851 20.848 16.2411 21.168C16.3691 21.392 16.5931 21.552 16.5931 21.808C16.5931 22.32 16.8171 22.768 17.1051 23.28C17.1371 23.376 17.2331 23.408 17.3611 23.504C17.8731 23.792 18.2891 24.208 18.6731 24.752C18.9611 25.232 19.1531 25.712 19.2811 26.32C19.3451 26.48 19.4731 26.704 19.6011 26.864C19.8251 27.344 20.2731 27.696 20.4011 28.304C20.4331 28.464 20.5611 28.592 20.5611 28.848C20.5611 29.2 20.7851 29.52 21.0091 29.776C21.4571 30.192 22.0011 30.576 22.0011 31.184C22.0011 31.312 22.1611 31.376 22.2891 31.6C22.4171 31.792 22.5771 32.4 22.9931 32.4ZM10.3851 18.288C10.5451 18.288 10.7371 18.256 10.8971 18.224C11.5691 18.032 12.3691 18 13.0411 17.808C13.5531 17.68 13.9691 17.36 14.3531 17.072C14.8651 16.688 15.1851 16.144 15.6331 15.632C15.7931 15.44 15.9531 15.248 16.1131 15.024C16.3051 14.768 16.4971 14.512 16.5931 14.256C16.8171 13.36 17.1051 13.2 17.2331 12.56C17.2971 12.048 17.3611 11.536 17.5531 11.056C17.6171 10.96 17.6171 10.8 17.6171 10.608C17.6171 10.416 17.5531 10.064 17.5531 9.68C17.5531 9.232 17.3931 8.752 17.3611 8.304C17.2971 7.888 17.2331 7.632 17.0411 7.376C16.8491 7.12 16.7531 6.832 16.5931 6.608C16.5611 6.512 16.4971 6.416 16.4011 6.352C16.1451 6.16 16.0491 5.872 15.9211 5.648C15.8251 5.488 15.6331 5.424 15.5691 5.36C15.3771 5.2 15.2491 5.008 15.0251 4.752C14.8651 4.496 14.6091 4.304 14.2251 4.304C13.9051 4.304 13.5531 4.208 13.2971 4.112C12.9131 4.048 12.5931 3.856 12.2731 3.856C12.0171 3.856 11.8891 3.664 11.7291 3.632C11.6011 3.6 11.4731 3.6 11.3131 3.6C11.0251 3.6 10.7691 3.696 10.4811 3.856C10.1931 4.048 9.87313 4.304 9.55313 4.304C9.32913 4.304 9.20113 4.432 9.04113 4.528C8.56113 4.976 8.14513 5.456 7.98513 6.032C7.88913 6.224 7.82513 6.416 7.56913 6.576C7.47313 6.608 7.28113 6.704 7.28113 6.864C7.28113 6.96 7.21713 6.992 7.15313 7.088C7.02513 7.216 6.89713 7.344 6.83313 7.504C6.76913 7.76 6.57713 9.104 6.38513 9.36C6.32113 9.424 6.32113 9.552 6.32113 9.616C6.32113 9.904 6.28913 10.064 6.22513 10.32C6.16113 10.544 6.09713 10.736 6.09713 10.928C6.09713 10.992 6.12913 11.12 6.12913 11.216C6.12913 11.6 6.25713 11.984 6.25713 12.336C6.25713 12.592 6.22513 12.816 6.22513 12.976C6.22513 13.36 6.22513 13.648 6.32113 14C6.44913 14.256 6.57713 14.416 6.57713 14.704C6.57713 14.832 6.70513 14.96 6.83313 14.96C7.21713 14.96 7.50513 15.248 7.85713 15.344C8.36913 15.472 8.81713 15.6 9.29713 15.856C9.58513 15.984 9.93713 16.048 10.2571 16.048C10.3851 16.048 10.5131 16.048 10.6411 16.016C10.8971 15.952 11.1531 15.856 11.4091 15.856C11.5691 15.856 11.7291 15.984 11.9211 15.984C12.1131 15.984 12.2411 15.728 12.4011 15.632C12.6251 15.504 12.7851 15.44 13.0091 15.344C13.2651 15.248 13.4251 15.024 13.5211 14.768C13.6491 14.384 13.7771 14 13.7771 13.616C13.7771 13.488 13.8091 13.36 13.8411 13.232C14.0651 12.784 14.2571 12.304 14.4811 11.888C14.6091 11.6 14.7371 11.344 14.7371 11.056C14.7371 10.992 14.7691 10.416 14.7691 10.16C14.7691 9.808 14.6091 9.552 14.4811 9.232C14.3531 8.848 14.1291 8.432 14.1291 7.952C14.1291 7.76 14.0651 7.632 13.9051 7.44C13.6811 7.248 13.5211 6.992 13.3931 6.832C13.2651 6.608 13.1691 6.48 13.0091 6.416C12.7531 6.288 12.4011 6.032 12.0491 6.032C11.5691 6.032 11.2171 6.48 10.8971 6.832C10.7691 6.96 10.5451 7.088 10.3531 7.088C10.2251 7.088 10.1931 7.12 10.0651 7.12C9.87313 7.12 9.80913 7.248 9.71313 7.44C9.68113 7.632 9.45713 7.76 9.45713 7.952C9.45713 8.272 9.20113 8.304 9.20113 8.56C9.20113 8.688 9.16913 8.816 8.94513 8.816C8.81713 8.816 8.75313 8.976 8.68913 9.104C8.62513 9.232 8.62513 9.328 8.56113 9.36C8.36913 9.552 8.30513 9.776 8.20913 10.032C8.11313 10.192 8.11313 10.416 8.20913 10.576C8.27313 10.704 8.27313 10.832 8.27313 10.992C8.27313 11.056 8.24113 11.12 8.24113 11.216C8.24113 11.344 8.24113 11.408 8.24113 11.504C8.24113 11.76 8.36913 13.072 8.56113 13.392C8.78513 13.712 9.29713 13.744 9.58513 13.872C9.74513 13.968 9.96913 13.968 10.1291 13.968C10.2571 13.968 10.3851 13.904 10.5451 13.904C10.6411 13.904 10.7371 13.84 10.8011 13.744C11.0251 13.52 11.1531 13.36 11.3131 13.104C11.6651 12.688 11.9531 12.208 11.9531 11.664C11.9531 11.632 11.9531 11.6 11.9531 11.536C11.9531 11.248 12.0491 10.992 12.0491 10.704C12.0491 10.608 12.0491 10.544 12.0491 10.416C12.0491 10.128 11.9851 9.808 12.0811 9.488C12.1131 9.36 12.0811 9.264 12.0811 9.104C12.0811 8.976 11.9531 8.976 11.8251 8.976C11.7931 8.976 11.6971 9.072 11.6651 9.072C11.3131 9.072 11.1851 9.488 11.0251 9.552C10.6731 9.744 10.3531 9.872 10.3531 10.064C10.3531 10.288 10.3531 10.448 10.3531 10.576C10.3531 10.8 10.4811 10.832 10.6731 10.832C10.8011 10.832 10.9611 10.768 11.0251 10.704C11.4091 10.32 11.5371 11.408 11.5371 11.76C11.5371 12.112 11.3131 12.528 10.8971 12.528C10.5451 12.528 10.2891 12.304 10.0651 12.304C9.80913 12.304 8.88113 11.056 8.88113 10.832C8.88113 10.8 8.81713 10.672 8.81713 10.576C8.81713 10.192 9.04113 9.808 9.04113 9.424C9.04113 9.232 9.16913 9.104 9.29713 8.976C9.55313 8.72 9.71313 8.496 10.0651 8.336C10.2251 8.272 10.2891 8.208 10.4171 8.08C10.6411 7.888 10.7691 7.664 11.0251 7.568C11.2171 7.536 11.4411 7.44 11.6971 7.44C11.8251 7.44 11.9531 7.408 12.0811 7.504C12.1451 7.536 12.2411 7.568 12.2731 7.632C12.3691 7.696 12.4011 7.76 12.4971 7.76C12.6571 7.76 12.7851 7.952 12.8811 8.08C13.2651 8.816 13.2971 8.848 13.3931 8.976C13.4571 9.104 13.4571 9.264 13.4571 9.392C13.4571 9.52 13.4251 9.648 13.4251 9.776C13.4251 9.904 13.3931 9.936 13.3931 10.064C13.3931 10.32 13.2651 10.544 13.2651 10.8C13.2651 10.928 13.4251 11.056 13.4251 11.184C13.4251 11.664 13.3931 12.176 13.1371 12.56C12.9131 12.816 12.8811 13.104 12.7851 13.36C12.6251 14.128 12.0491 14.64 11.4411 15.088C11.0571 15.344 10.6411 15.344 10.1931 15.344C9.71313 15.344 9.20113 15.312 8.75313 15.088C8.30513 14.928 7.85713 14.704 7.56913 14.256C7.44113 14.032 7.28113 13.904 7.28113 13.648C7.28113 13.52 7.18513 13.392 7.15313 13.264C6.83313 12.656 6.83313 12.016 6.83313 11.376C6.83313 11.088 6.76913 10.832 6.76913 10.576C6.76913 10.32 6.70513 10.128 6.70513 9.776C6.70513 9.392 6.76913 8.88 7.08913 8.688C7.37713 8.496 7.60113 8.336 7.72913 8.08C7.85713 7.76 7.95312 7.44 8.11313 7.216C8.30513 6.832 8.49713 6.352 8.88113 6.096C9.20113 5.84 9.55313 5.584 10.0651 5.584C10.1931 5.584 10.2891 5.52 10.3531 5.456C10.4811 5.36 10.6411 5.264 10.7691 5.232C10.8971 5.136 11.6971 4.88 11.9211 4.88C12.2091 4.88 12.4971 4.912 12.7851 5.008C13.0091 5.104 13.1691 5.168 13.3931 5.264C13.6811 5.36 14.3531 6.416 14.4811 6.416C14.7371 6.416 14.7691 6.608 14.8971 6.832C15.1211 7.088 15.2811 7.376 15.2811 7.76C15.2811 7.92 15.4091 8.016 15.4411 8.176C15.6651 8.848 15.8251 9.488 16.0811 10.192C16.1131 10.352 16.1771 10.48 16.1771 10.608C16.1771 10.832 16.0811 11.088 16.0811 11.28C16.0811 11.408 15.9851 11.536 15.9851 11.632C15.9851 12.144 15.7611 12.528 15.5691 12.912C15.4411 13.104 15.3131 13.168 15.2491 13.36C15.1851 13.52 15.1531 13.744 15.1211 13.872C15.0251 14.128 15.0251 14.288 15.0251 14.576C15.0251 14.704 15.0251 14.8 15.0251 14.896C15.0251 15.504 14.5771 15.952 14.1291 16.304C14.0651 16.4 13.9051 16.496 13.7771 16.496C13.4251 16.496 13.0411 16.56 12.9131 16.816C12.8491 17.008 12.7531 17.072 12.6571 17.104C12.3691 17.232 12.0491 17.36 11.6651 17.36C11.3131 17.36 10.9291 17.2 10.4171 17.36C10.2891 17.36 10.2251 17.328 10.1931 17.328C9.93713 17.328 8.88113 17.232 8.24113 16.944C7.98513 16.816 7.72913 16.688 7.47313 16.688C7.44113 16.688 7.31313 16.656 7.28113 16.624C7.15313 16.496 6.96113 16.496 6.76913 16.432C6.51313 16.368 6.25713 16.272 6.00113 16.176C5.64913 16.048 5.48913 15.888 5.39313 15.6C5.29713 15.248 4.59313 13.488 4.59313 13.104C4.59313 12.976 4.65712 12.912 4.65712 12.784C4.65712 12.56 4.68913 12.464 4.72113 12.304C4.81713 11.76 4.24113 10.608 4.72113 9.904C4.94513 9.616 5.10513 8.432 5.10513 7.696C5.10513 7.44 5.23313 7.216 5.36113 6.992C5.61713 6.576 5.90513 6.16 6.22513 5.712C6.44913 5.36 6.89713 5.04 6.89713 4.624C6.89713 4.528 7.02513 4.4 6.89713 4.4C6.67313 4.4 6.51313 4.752 6.25713 4.88C6.12913 4.976 6.03313 5.104 5.96913 5.232C5.77713 5.52 5.58513 5.776 5.36113 5.968C5.23313 6.096 5.16913 6.224 5.10513 6.288C4.97713 6.416 4.84913 6.512 4.78513 6.608C4.65712 6.736 4.56113 6.832 4.46513 6.992C4.36913 7.216 4.27313 7.44 4.04913 7.568C3.66513 7.888 3.63313 8.336 3.44113 8.816C3.34513 8.944 3.31313 9.104 3.31313 9.264C3.31313 9.36 3.31313 9.392 3.31313 9.424C3.31313 9.552 3.18513 9.648 3.18513 9.808C3.18513 9.904 3.12113 10.032 3.12113 10.064C3.12113 10.544 3.05713 10.928 3.05713 11.376C3.05713 11.856 3.05713 12.272 3.05713 12.656C3.05713 13.072 3.37713 13.392 3.50513 14.192C3.63313 15.056 3.76113 14.544 4.14513 15.376C4.20913 15.472 4.59313 16.208 4.65712 16.304C4.81713 16.56 4.97713 16.784 5.36113 16.816C5.77713 16.848 7.21713 17.744 7.72913 17.744C7.82513 17.744 7.88913 17.712 7.98513 17.712C8.01713 17.712 8.11313 17.712 8.20913 17.712C8.68913 17.712 9.20113 17.84 9.68113 18.096C9.93713 18.224 10.1291 18.288 10.3851 18.288Z" fill="black"/>
</svg>
