<svg width="1280" height="12" viewBox="0 0 1280 12" fill="none" xmlns="http://www.w3.org/2000/svg">
<path d="M986.992 1.19531C991.267 0.514228 995.546 0.699331 999.805 1.74219L1011.64 4.63281C1015.34 5.53794 1019.02 5.86909 1022.7 5.62891L1028.61 5.25781L1034.53 4.86719C1038.54 4.60542 1042.54 4.49825 1046.54 4.55469L1058.38 4.71094C1062.34 4.76701 1066.31 4.89507 1070.27 5.08203L1076.19 5.35547L1082.11 5.64844C1085.95 5.82947 1089.79 5.7793 1093.63 5.51172L1105.47 4.69141C1109.33 4.42219 1113.19 3.96649 1117.05 3.32422L1122.97 2.32812L1128.89 1.35156C1133.17 0.640899 1137.45 0.82065 1141.72 1.87891L1147.64 3.34375L1153.54 4.80859C1157.14 5.7044 1160.74 5.84437 1164.34 5.21875L1170.25 4.18359L1176.15 3.14844C1180.26 2.43381 1184.38 2.14725 1188.5 2.26953L1194.39 2.44531L1200.31 2.62109C1204.16 2.73561 1208.02 2.64602 1211.88 2.34766L1217.77 1.87891L1223.69 1.42969C1227.81 1.1107 1231.94 1.22309 1236.05 1.78125L1241.95 2.58203L1247.87 3.38281C1251.57 3.8849 1255.28 3.85903 1258.98 3.28516L1264.88 2.36719L1270.8 1.44922C1272.81 1.13826 1274.48 0.953738 1275.74 0.921875C1276.37 0.906239 1276.98 0.928611 1277.54 1.01953C1277.76 1.05539 1278.1 1.12466 1278.48 1.27344L1279.63 2.01562L1280.35 2.75781L1280.37 2.79688L1280.41 2.83594L1281.76 4.32031L1280 5.92188V8.5H1278.79L1278.05 7.67969L1276.7 6.17578V6.15625L1276.46 5.94141C1276.32 5.93376 1276.12 5.9154 1275.86 5.92188C1274.91 5.94622 1273.49 6.09165 1271.56 6.39062L1265.66 7.30859L1259.75 8.22656C1255.57 8.87368 1251.39 8.90997 1247.21 8.34375L1235.37 6.74219C1231.61 6.23194 1227.84 6.11893 1224.08 6.41016L1218.16 6.87891L1212.25 7.32812C1208.22 7.63966 1204.18 7.74086 1200.16 7.62109L1194.26 7.44531L1188.34 7.26953C1184.57 7.15741 1180.79 7.43218 1177.01 8.08984L1171.11 9.10547L1165.2 10.1406C1160.91 10.8867 1156.61 10.7304 1152.34 9.67188L1146.43 8.20703L1140.51 6.72266C1136.9 5.82683 1133.3 5.69608 1129.71 6.29297L1117.87 8.24609C1113.86 8.91402 1109.84 9.39142 1105.82 9.67188L1093.98 10.4922C1089.95 10.7735 1085.91 10.8192 1081.88 10.6289L1070.04 10.082C1066.13 9.89753 1062.21 9.7662 1058.3 9.71094L1052.38 9.63281L1046.48 9.55469C1042.61 9.49995 1038.72 9.5941 1034.84 9.84766L1028.95 10.2383L1023.03 10.6289C1018.83 10.9038 1014.63 10.5196 1010.45 9.49609L998.613 6.60547C994.99 5.71835 991.38 5.56219 987.773 6.13672L981.875 7.07422L975.957 8.01172C971.923 8.65442 967.885 9.06348 963.848 9.24219L957.93 9.51562L952.031 9.76953C948.115 9.94289 944.19 10.1747 940.273 10.4531L934.355 10.8633L928.438 11.293C924.295 11.5874 920.151 11.373 916.016 10.668L910.098 9.67188L904.199 8.65625C900.502 8.02593 896.798 7.95952 893.105 8.44141L887.207 9.20312L881.289 9.98438C877.185 10.5199 873.072 10.6351 868.965 10.3555L863.047 9.96484L857.148 9.55469C853.253 9.28944 849.344 9.13356 845.449 9.08594L839.551 9.02734L833.633 8.94922C829.575 8.89961 825.518 8.56385 821.465 7.95312L815.547 7.05469L809.648 6.17578C806.015 5.62841 802.375 5.74643 798.73 6.54688L792.812 7.85547L786.895 9.14453C782.625 10.0828 778.338 10.1542 774.062 9.33984L768.164 8.20703L762.246 7.09375C758.513 6.38258 754.778 6.1497 751.055 6.41016L745.156 6.82031L739.238 7.25C735.313 7.52459 731.387 7.83653 727.461 8.1875L721.543 8.71484L715.645 9.24219C711.486 9.61402 707.316 9.44608 703.164 8.73438L697.246 7.71875L691.348 6.70312C687.589 6.0589 683.829 5.84743 680.078 6.05859L674.16 6.39062L668.262 6.72266C664.347 6.94306 660.419 7.21705 656.504 7.5625L650.586 8.08984L644.688 8.59766C640.7 8.94946 636.703 9.20905 632.715 9.33984L626.816 9.51562L620.898 9.71094C616.863 9.8433 612.824 9.74538 608.789 9.41797L602.871 8.94922L596.953 8.46094C593.198 8.15667 589.442 8.25982 585.684 8.77344L579.766 9.59375L573.848 10.3945C569.819 10.9456 565.789 11.2699 561.758 11.3711L555.84 11.5273L549.922 11.6641C545.782 11.7675 541.647 11.3868 537.52 10.5117L531.602 9.26172L525.703 8.01172C522.046 7.2364 518.393 7.11359 514.746 7.64062L508.828 8.5L502.93 9.33984C498.699 9.95137 494.456 9.82684 490.234 8.94922L478.398 6.48828C474.78 5.73568 471.174 5.70158 467.559 6.39062L461.641 7.52344L455.723 8.63672C451.6 9.42221 447.472 9.73494 443.34 9.57422L437.422 9.35938L431.523 9.125C427.692 8.97597 423.852 9.07376 420.02 9.41797L408.184 10.4727C404.023 10.8465 399.857 10.6861 395.703 9.96484L389.805 8.92969L383.887 7.89453C380.114 7.23935 376.344 6.98738 372.578 7.11328L360.742 7.50391C356.896 7.63313 353.048 7.97906 349.199 8.53906L337.363 10.2578C333.297 10.8491 329.227 11.1272 325.156 11.0781L319.238 11L313.34 10.9414C309.299 10.8927 305.25 10.5928 301.211 10.0625L295.293 9.28125L289.395 8.51953C285.563 8.01647 281.719 7.76312 277.891 7.77734L271.992 7.79688L266.074 7.81641C262.201 7.83079 258.327 8.01703 254.453 8.34375L248.535 8.83203L242.617 9.33984C238.588 9.67959 234.557 9.78675 230.527 9.69141L224.609 9.55469L218.711 9.41797C214.689 9.32282 210.661 9.03873 206.641 8.55859L200.723 7.85547L194.824 7.15234C190.972 6.69222 187.112 6.42176 183.262 6.37109L177.344 6.29297L171.426 6.23438C167.619 6.18473 163.81 6.41396 160 6.95703L154.082 7.81641L148.164 8.65625C144.041 9.24439 139.909 9.36145 135.781 9.02734L129.883 8.55859L123.965 8.07031C120.144 7.76104 116.32 7.73124 112.5 7.97266L100.664 8.71484C96.6926 8.966 92.7217 9.15158 88.75 9.24219L76.9141 9.51562C73.0144 9.6046 69.1147 9.77742 65.2148 10.043L59.2969 10.4336L53.3789 10.8438C49.1846 11.1291 44.996 10.7754 40.8203 9.78906L34.9023 8.38281L28.9844 6.99609C25.4871 6.16993 19.9478 6.11741 12.168 7.05469L0.390625 8.48047L0.253906 8.5H0V5.10156L-0.195312 3.51953L11.582 2.09375C19.4974 1.14054 25.7518 1.09627 30.1367 2.13281L36.0547 3.51953L41.9531 4.92578C45.6571 5.80136 49.3615 6.11433 53.0469 5.86328L58.9648 5.45312L64.8633 5.04297C68.8395 4.77211 72.8204 4.6064 76.7969 4.51562L88.6328 4.24219C92.539 4.15311 96.4452 3.98144 100.352 3.73438L112.188 2.99219C116.244 2.73596 120.3 2.76197 124.355 3.08984L130.273 3.57812L136.191 4.04688C139.946 4.35069 143.702 4.23153 147.461 3.69531L153.379 2.85547L159.277 2.01562C163.346 1.43524 167.432 1.18106 171.504 1.23438L177.402 1.29297L183.32 1.37109C187.351 1.42387 191.382 1.69071 195.41 2.17188L201.328 2.89453L207.227 3.59766C211.09 4.05909 214.966 4.3266 218.828 4.41797L224.727 4.55469L230.645 4.71094C234.496 4.80206 238.355 4.68444 242.207 4.35938L248.105 3.85156L254.023 3.36328C258.032 3.02507 262.046 2.8313 266.055 2.81641L271.973 2.79688L277.871 2.77734C281.926 2.76229 285.987 3.02664 290.039 3.55859L295.957 4.33984L301.855 5.10156C305.7 5.60632 309.556 5.89507 313.398 5.94141L319.297 6L325.215 6.07812C329.025 6.12407 332.846 5.87136 336.66 5.31641L342.559 4.45703L348.477 3.59766C352.509 3.01092 356.551 2.63931 360.586 2.50391L366.484 2.30859L372.402 2.11328C376.518 1.97518 380.638 2.25929 384.746 2.97266L390.645 4.00781L396.562 5.02344C400.29 5.67076 404.014 5.82635 407.734 5.49219L419.57 4.4375C423.616 4.07406 427.672 3.96759 431.719 4.125L437.617 4.35938L443.535 4.59375C447.281 4.73937 451.03 4.44964 454.785 3.73438L466.621 1.46875C470.883 0.656483 475.155 0.700666 479.414 1.58594L491.25 4.04688C494.909 4.80792 498.558 4.92589 502.207 4.39844L508.125 3.53906L514.023 2.67969C518.26 2.06733 522.512 2.21333 526.738 3.10938L532.637 4.37891L538.555 5.62891C542.31 6.42501 546.062 6.77726 549.805 6.68359L555.703 6.52734L561.621 6.37109C565.466 6.27486 569.317 5.97912 573.164 5.45312L579.082 4.63281L585 3.83203C589.119 3.2685 593.241 3.14596 597.363 3.48047L603.281 3.96875L609.199 4.4375C613.041 4.749 616.882 4.85614 620.723 4.73047L632.559 4.33984C636.452 4.21209 640.344 3.96067 644.238 3.61719L650.156 3.10938L656.074 2.58203C660.039 2.23229 664.004 1.94589 667.969 1.72266L679.805 1.05859C683.935 0.826685 688.065 1.05505 692.188 1.76172L698.105 2.77734L704.004 3.79297C707.735 4.43252 711.471 4.59468 715.195 4.26172L721.094 3.73438L727.012 3.20703C730.969 2.85323 734.929 2.52683 738.887 2.25L750.723 1.42969C754.879 1.13973 759.037 1.38196 763.184 2.17188L769.102 3.30469L775 4.4375C778.606 5.12442 782.208 5.05541 785.82 4.26172L791.738 2.97266L797.656 1.66406C801.891 0.73382 806.145 0.594702 810.391 1.23438L816.289 2.11328L822.207 3.01172C826.036 3.58863 829.866 3.90237 833.691 3.94922L839.609 4.02734L845.527 4.08594C849.512 4.13483 853.496 4.30295 857.48 4.57422L863.398 4.96484L869.316 5.375C873.09 5.63133 876.868 5.51618 880.645 5.02344L886.543 4.24219L892.461 3.48047C896.651 2.93368 900.853 3.02077 905.039 3.73438L910.938 4.73047L916.855 5.74609C920.602 6.38483 924.346 6.57842 928.086 6.3125L934.004 5.88281L939.902 5.47266C943.865 5.19091 947.834 4.94496 951.797 4.76953L963.633 4.26172C967.477 4.09136 971.328 3.68323 975.176 3.07031L981.074 2.13281L986.992 1.19531Z" fill="black"/>
</svg>
