<svg width="314" height="360" viewBox="0 0 314 360" fill="none" xmlns="http://www.w3.org/2000/svg">
<g clip-path="url(#clip0_167_4271)">
<path d="M99.9495 186.57C107.717 184.396 115.836 183.278 123.78 181.715C131.352 180.224 138.873 178.994 146.53 178.045C153.862 177.137 161.538 176.666 168.932 176.482C173.532 176.368 177.808 176.314 182.375 175.9C185.261 175.638 188.192 175.961 191.062 175.561C194.87 175.029 199.687 174.257 203.592 174.919C205.508 175.243 207.095 176.34 209.104 176.504C210.943 176.655 212.723 177.075 214.527 177.393C214.815 179.624 215.658 181.861 216.071 184.093C216.455 186.165 216.218 188.347 216.244 190.457C216.292 194.225 212.483 196.811 209.155 198.246C207.131 199.118 204.903 199.072 202.734 199.324C199.085 199.747 195.481 200.444 191.796 200.527C185.14 200.676 178.52 201.318 171.86 201.281C166.646 201.251 161.431 201.282 156.218 201.282C150.789 201.282 145.376 201.566 140.024 200.68C138.521 200.431 137.101 200.628 135.596 200.55C133.86 200.461 132.25 199.814 130.531 199.693C128.299 199.538 125.923 199.725 123.681 199.733C120.672 199.745 117.906 199.018 114.94 198.941C112.251 198.872 109.824 198.774 107.189 198.357C105.068 198.021 101.607 198.308 99.834 196.846" stroke="black" stroke-width="2.66667" stroke-miterlimit="10"/>
<path d="M152.538 1.6709C149.172 2.42814 141.125 0.0228348 138.546 2.3408C136.101 4.53802 138.193 15.9811 139.356 18.8393C141.348 23.7355 145.308 26.387 150.127 28.6958C154.772 30.9211 162.53 32.7778 166.94 28.7123C171.141 24.8382 170.082 13.5682 166.629 9.41969C164.486 6.84401 159.241 3.63989 155.995 2.77086C154.422 2.34955 152.991 1.87689 151.467 1.55407C148.969 1.02491 147.414 2.39922 145.124 2.6764" fill="black"/>
<path d="M152.538 1.6709C149.172 2.42814 141.125 0.0228348 138.546 2.3408C136.101 4.53802 138.193 15.9811 139.356 18.8393C141.348 23.7355 145.308 26.387 150.127 28.6958C154.772 30.9211 162.53 32.7778 166.94 28.7123C171.141 24.8382 170.082 13.5682 166.629 9.41969C164.486 6.84401 159.241 3.63989 155.995 2.77086C154.422 2.34955 152.991 1.87689 151.467 1.55407C148.969 1.02491 147.414 2.39922 145.124 2.6764" stroke="black" stroke-width="2.80203" stroke-miterlimit="10"/>
<path d="M130.564 225.504C126.637 225.678 122.356 226.646 118.465 227.159C114.393 227.695 113.412 228.928 110.679 230.706C108.733 231.972 106.773 232.771 104.501 233.708C100.859 235.21 97.8007 237.303 94.267 238.923C86.4996 242.482 78.272 245.408 70.1571 248.567C66.6687 249.925 64.0981 251.637 60.7809 253.064C58.542 254.027 56.0663 254.688 53.7275 255.519C49.0858 257.166 44.6723 259.101 40.0443 260.624C35.7134 262.05 31.6125 264.254 27.0368 265.3C22.9459 266.235 18.4699 267.226 14.2185 267.894C11.486 268.323 6.62792 268.676 4.52503 270.253C4.20254 270.495 4.3279 271.369 4.12504 271.577C3.66538 272.049 2.61088 272.551 2.31049 273.04C1.58209 274.225 2.36136 275.58 1.87503 276.815C0.647777 279.932 1.1041 281.568 4.03832 284.232C11.9945 291.453 24.5839 295.346 35.1187 300.597C36.8939 301.482 38.8629 302.028 40.576 302.923C43.3019 304.346 45.1914 306.309 48.066 307.665C50.9484 309.025 53.9224 310.282 56.7448 311.705C58.7147 312.699 60.5239 313.812 62.6271 314.679C64.8102 315.58 67.3568 315.999 69.5012 316.915C72.7281 318.294 75.6627 320.342 78.769 321.876C83.2685 324.099 87.6405 326.366 92.5737 328.138C95.8814 329.326 98.667 330.428 101.741 331.83C104.944 333.291 108.505 333.628 111.721 335.135C115.023 336.683 118.717 337.727 122.051 339.238C125.889 340.978 129.055 342.299 133.259 343.649C140.673 346.029 145.978 350.099 153.431 352.309C160.353 354.362 168.288 357.472 175.876 357.836C183.066 358.18 191.314 359.705 198.271 357.874C201.317 357.072 205.294 356.301 207.884 354.898C210.617 353.418 213.147 350.808 215.587 349.081C222.175 344.417 227.842 339.178 234.433 334.53C240.819 330.025 247.073 325.08 252.334 319.966C255.641 316.751 258.627 313.316 262.394 310.327C267.314 306.424 271.575 302.18 276.649 298.364C279.446 296.261 282.007 293.91 284.203 291.494C286.66 288.79 289.44 286.349 291.983 283.692C297.365 278.069 303.249 272.702 308.606 267.079C311.18 264.376 313.828 261.761 312.323 258.596C311.372 256.596 311.255 256.6 308.38 255.491C305.959 254.556 303.75 253.729 301.109 253.011C290.872 250.224 279.932 249.265 269.516 246.682C265.324 245.643 261.052 245.141 256.793 244.273C252.423 243.382 248.295 242.063 244.154 240.724C241.358 239.819 238.523 239.238 235.671 238.456C232.511 237.591 229.736 236.175 226.597 235.316C221.256 233.853 215.659 232.478 210.099 231.471C200.219 229.681 190.432 226.984 180.453 225.525C178.104 225.182 176.112 224.917 173.752 224.78C171.782 224.666 170.214 224.074 168.237 224C164.069 223.845 160.209 223.239 156.035 223.274C152.411 223.304 149.948 222.153 146.312 222.696C145.941 222.751 145.592 223.217 145.042 223.312C143.838 223.521 141.986 223.281 140.776 223.274C138.908 223.263 136.304 222.864 130.564 225.504Z" fill="#FFA100" stroke="black" stroke-width="2.66667" stroke-miterlimit="10"/>
<path d="M117.176 107.825C117.684 104.505 118.351 101.259 119.113 97.9886C119.878 94.7019 120.292 91.2753 120.742 87.9527C121.228 84.3637 122.597 80.8495 123.049 77.3008C123.879 70.7952 124.57 64.1046 126.064 57.7653C126.595 55.5113 126.944 53.3234 127.449 51.0471C128.112 48.0596 128.867 44.8315 129.382 41.72C129.793 39.2331 130.244 37.3592 130.739 35.0828C131.267 32.6587 131.211 29.8117 131.785 27.4505C132.326 25.2257 133.259 23.1282 133.815 20.9445C134.114 19.7689 133.811 18.8368 134 17.6934C134.262 16.1119 135.536 15.0718 136.276 12.2749C136.79 15.4578 138.032 19.3602 139.601 22.0282C141.684 25.5685 143.691 27.6496 147.9 29.1128C150.902 30.1567 154.245 31.41 157.288 31.8066C159.063 32.0379 161.05 31.7541 162.846 31.7777C165.058 31.8069 166.208 30.5531 168.197 30.5127C168.679 28.4727 169.397 26.7947 169.504 24.7481C169.618 22.5941 169.025 19.9713 169.714 17.94C171.388 19.9913 171.887 24.2038 172.569 26.6563C173.044 28.3624 173.308 29.8912 173.897 31.6194C176.067 37.9841 177.159 44.7786 178.598 51.2359C179.889 57.0318 180.57 62.8468 181.92 68.6274C183.211 74.1584 185.428 79.4686 187.21 84.8231C188.962 90.0893 192.423 94.9184 193.853 100.215C195.479 106.232 195.782 112.758 198.29 118.512C199.412 121.084 201.261 123.295 202.493 125.826C204.19 129.315 204.911 133.137 206.307 136.712C208.634 142.665 209.974 148.672 211.582 154.915C212.95 160.219 213.848 165.502 215.167 170.736C215.909 173.679 217.285 176.473 217.967 179.41C218.845 183.192 219.345 187.102 220.398 190.85C221.318 194.124 222.067 197.384 222.914 200.677C223.556 203.172 224.208 206.032 225.103 208.45C225.814 210.369 226.967 212.916 227.875 214.711C229.036 217.007 230.878 218.332 232.043 220.838C234.284 225.659 236.191 229.412 236.976 234.465C237.145 235.552 237.974 236.204 238.201 237.388C238.399 238.417 238.151 239.841 238.144 240.907C238.128 243.444 238.147 245.981 238.144 248.518C238.142 250.338 238.365 252.179 237.898 253.94C237.555 255.231 237.081 255.786 237.011 257.191C236.96 258.234 237.266 259.415 237.09 260.443C236.26 265.297 232.085 269.62 228.732 272.905C225.177 276.389 221.57 281.172 217.106 283.2C214.368 284.444 212.188 286.489 209.294 287.828C206.521 289.112 203.598 289.823 200.797 290.999C198.756 291.855 197.164 293.323 194.955 293.856C193.724 294.153 192.376 293.939 191.142 294.219C188.486 294.821 186.257 296.379 183.612 297.047C180.996 297.708 178.614 298.32 176.058 299.211C173.396 300.139 170.976 300.136 168.361 300.777C165.813 301.402 163.227 301.464 160.633 302.163C156.91 303.167 154.137 301.693 150.27 301.567C147.254 301.469 144.753 301.233 141.812 300.781C135.106 299.749 128.365 299.641 121.881 297.285C111.916 293.663 105.61 284.595 100.622 275.667C99.1448 273.022 97.2433 270.811 96.0886 267.976C95.2583 265.938 94.9341 263.717 94.4713 261.526C93.9177 258.905 93.1293 256.617 93.0921 253.965C93.0537 251.224 92.1825 249.021 91.9592 246.383C91.765 244.089 91.8016 241.509 91.9434 239.205C92.0276 237.839 92.604 236.807 92.8458 235.543C93.1859 233.763 92.7983 232.102 93.031 230.336C93.8813 223.886 95.5953 216.658 97.4896 210.6C98.1858 208.373 99.1824 206.325 99.7634 204.03C100.272 202.021 100.175 199.409 100.811 197.476C101.114 196.557 101.764 196.436 102.007 195.494C102.312 194.314 101.949 192.018 101.95 190.897C101.954 187.058 101.95 183.22 101.95 179.381C101.95 173.952 102.804 169.034 103.893 163.756C104.421 161.197 104.779 158.671 105.518 156.162C106.637 152.368 107.504 148.112 108.84 144.438C110.312 140.39 112.304 136.583 113.023 132.591C113.5 129.942 114.17 127.786 114.117 124.98C114.067 122.256 115.09 120.103 115.208 117.394C115.234 116.798 115.308 116.186 115.413 115.563L117.176 107.825Z" fill="#FFA100" stroke="black" stroke-width="2.66667" stroke-miterlimit="10"/>
<path d="M270.242 117.986C270.206 117.98 269.753 118.261 269.65 118.276C268.81 118.4 267.898 118.27 267.05 118.27C265.694 118.27 264.338 118.271 262.982 118.27C261.213 118.269 259.482 117.97 257.722 117.984C256.222 117.996 254.721 117.987 253.22 117.987C251.528 117.987 249.755 118.158 248.077 117.924C245.849 117.614 243.645 117.836 241.412 117.718C240.26 117.658 239.148 117.403 237.991 117.414C237.351 117.421 236.711 117.421 236.071 117.421H224.074C223.179 117.421 222.284 117.426 221.389 117.414C220.299 117.4 219.227 117.609 218.14 117.672C217.424 117.713 216.707 117.742 215.991 117.787C215.361 117.826 215.197 117.986 214.773 117.795C215.383 117.352 215.52 116.398 215.514 115.584C215.503 114.335 215.748 113.296 215.745 112.072C215.742 111.01 215.856 109.844 215.754 108.79C215.663 107.851 215.41 106.894 215.276 105.96C215.136 104.976 215.063 103.958 214.871 102.989C214.781 102.538 214.784 102.265 214.593 101.858C214.392 101.427 214.136 100.977 213.897 100.581C212.666 98.5398 210.179 98.7447 208.307 98.7447C207.136 98.7447 209.833 98.5834 204.812 98.9647C204.125 99.0168 203.472 99.0702 202.794 99.3736C202.369 99.5633 201.992 99.9177 201.59 100.161C201.014 100.51 200.458 100.734 199.903 101.147C198.959 101.85 198.039 102.617 197.238 103.555C196.139 104.843 195.63 109.592 195.625 110.064C195.619 110.578 195.76 110.852 195.835 111.337C195.972 112.221 197.117 114.542 197.474 114.882C197.753 115.148 199.344 116.096 199.793 116.431C200.246 116.769 201.869 118.414 202.338 120.069C201.651 120.312 202.375 120.534 201.657 120.534C200.919 120.534 200.178 120.512 199.44 120.531C199.031 120.541 198.8 120.757 198.415 120.838C197.801 120.967 197.061 120.545 196.445 120.523C195.865 120.503 195.428 120.612 194.872 120.754C194.344 120.889 193.817 120.777 193.281 120.802C191.424 120.889 189.561 121.33 187.705 121.389C186.476 121.428 185.239 121.385 184.009 121.382C182.898 121.38 181.876 121.673 180.776 121.665C179.635 121.658 178.494 121.665 177.353 121.665C175.344 121.665 173.384 121.383 171.379 121.382C169.647 121.382 168.01 121.1 166.275 121.1C165.119 121.1 163.9 121.229 162.755 121.036C161.844 120.883 160.978 120.817 160.059 120.816C158.755 120.816 158.545 121.1 157.231 121.1C154.963 121.1 152.695 121.082 150.427 121.099C149.124 121.108 147.885 120.812 146.585 120.817C144.606 120.824 142.635 120.914 140.674 120.597C138.584 120.258 136.376 120.612 134.334 120.03C133.877 119.9 133.431 120.01 132.965 119.982C132.477 119.953 132.024 119.725 131.543 119.67C130.91 119.598 130.287 119.727 129.702 119.543C129.135 119.365 128.436 119.59 127.847 119.416C127.658 119.361 127.597 119.16 127.408 119.104C127.171 119.034 126.828 119.127 126.587 119.122C126.014 119.108 125.555 118.83 124.968 118.836C124.468 118.842 123.969 118.836 123.47 118.836C122.795 118.836 122.102 118.89 121.429 118.842C121.053 118.816 121.062 118.638 120.793 118.577C120.449 118.498 120.055 118.552 119.7 118.553C118.526 118.556 117.353 118.553 116.178 118.553H111.907C111.226 118.553 110.564 118.614 109.914 118.411C109.299 118.219 108.635 118.419 108.044 118.22C108.103 117.958 108.318 117.845 108.386 117.64C108.45 117.449 108.383 117.318 108.425 117.144C108.546 116.648 108.747 116.177 108.951 115.717C109.268 115 109.642 114.334 109.94 113.609C110.259 112.834 110.469 112 110.801 111.196C110.98 110.762 111.107 110.374 111.234 109.922C111.369 109.447 111.339 109.095 111.425 108.634C111.508 108.188 111.674 108.054 111.668 107.515C111.663 107.065 111.669 106.614 111.669 106.164C111.669 104.986 111.67 103.808 111.669 102.63C111.668 101.403 111.653 100.247 111.276 99.0908C110.867 97.8378 109.825 97.308 108.836 96.8406C107.632 96.2707 106.214 95.5703 104.93 95.3578C104.088 95.2184 103.142 95.349 102.293 95.3493C100.483 95.3493 98.9574 95.3335 97.325 96.4665C96.7042 96.8972 95.9096 97.4795 95.3835 98.0587C94.857 98.6386 94.3947 99.3618 93.8737 99.9619C93.1233 100.827 92.2685 101.729 91.7678 102.851C91.414 103.644 91.443 104.433 91.2655 105.253C91.1352 105.857 91.1288 105.768 91.2655 106.378C91.3834 106.905 91.2193 107.45 91.3254 107.971C91.486 108.757 91.9676 109.559 92.2525 110.297C92.4393 110.782 92.5766 111.283 92.762 111.768C93.0622 112.553 93.5209 113.086 93.9236 113.734C94.1157 114.042 94.1861 114.525 94.3687 114.804C94.529 115.048 94.7815 115.267 94.9587 115.518C95.3484 116.072 95.7137 116.673 96.1152 117.215C96.5222 117.763 96.8681 118.364 97.2715 118.912C97.5672 119.314 98.0274 119.614 98.0682 120.196C98.1305 120.214 98.1925 120.232 98.2547 120.251C98.2417 120.329 98.6914 120.408 98.6787 120.486C97.9651 120.683 97.4226 120.816 96.6359 120.816C95.8186 120.817 94.972 120.712 94.1897 120.958C93.1765 121.277 92.1215 120.963 91.085 121.085C90.5132 121.152 90.0527 121.39 89.4662 121.381C89.054 121.376 88.6023 121.322 88.1935 121.372C87.1512 121.498 86.1407 121.852 85.0827 121.94C84.3885 121.999 83.7296 122.202 83.0318 122.231C82.5081 122.253 82.0854 122.481 81.5716 122.525C80.5037 122.617 79.3683 122.335 78.3058 122.5C77.7615 122.584 77.3119 122.813 76.7456 122.804C76.2597 122.796 75.6585 122.687 75.179 122.783C74.1026 122.998 72.9877 123.299 71.8826 123.378C71.355 123.416 70.8204 123.311 70.2927 123.349C69.5211 123.403 68.8027 123.669 68.0195 123.654C66.9096 123.632 65.864 123.887 64.7658 123.944C64.0564 123.981 63.3341 123.817 62.6323 123.992C61.5295 124.267 60.4667 124.176 59.3437 124.206C58.5603 124.226 57.899 124.695 57.086 124.432C56.6796 124.301 56.3618 124.227 55.9252 124.144C55.7392 124.108 55.461 123.862 55.2654 123.972C55.1783 124.021 55.1481 124.209 55.0695 124.277C54.4321 124.826 54.1557 125.473 54.2993 126.476C54.3595 126.895 54.5285 127.171 54.5479 127.608C54.5645 127.981 54.5424 128.365 54.5427 128.74C54.543 129.61 54.5421 130.48 54.5427 131.351C54.5427 131.845 54.469 132.434 54.5306 132.92C54.5866 133.36 54.7589 133.665 54.7792 134.116C54.7985 134.538 54.7598 134.967 54.7716 135.389C54.7858 135.893 54.9491 136.192 55.0171 136.663C55.1647 137.685 54.7133 138.712 54.797 139.691C55.1847 140.12 56.3721 139.667 56.8038 139.556C57.434 139.394 58.0822 139.598 58.7163 139.499C59.012 139.453 59.1263 139.272 59.3876 139.195C59.6443 139.119 60.057 139.209 60.3246 139.21C60.9571 139.211 61.59 139.21 62.2226 139.21C64.7624 139.21 67.2485 139.494 69.789 139.493C70.316 139.492 70.9229 139.593 71.4372 139.469C71.7683 139.388 72.0147 139.231 72.3503 139.203C73.0951 139.141 73.7031 139.478 74.4246 139.503C75.9346 139.555 77.4513 139.474 78.9625 139.495C79.4898 139.503 79.7293 139.309 80.2022 139.195C80.5402 139.113 80.923 139.282 81.2641 139.22C81.5495 139.169 81.7682 138.989 82.0484 138.912C82.4666 138.797 83.016 138.927 83.4508 138.927C85.4791 138.925 87.5074 138.92 89.5357 138.927C90.278 138.929 90.9535 138.801 91.6628 138.651C92.2198 138.534 92.7988 138.18 93.4023 138.34C93.8256 138.453 93.8565 138.71 93.8655 139.21C93.8743 139.68 93.9551 139.758 94.0403 140.121C94.1767 140.705 94.0917 141.426 94.0917 142.04C94.0917 142.859 93.9892 143.792 94.1431 144.587C94.3297 145.552 94.2411 146.491 94.3744 147.472C94.7424 150.185 94.9498 152.957 95.4859 155.616C95.7656 157.003 95.6501 158.467 95.8905 159.872C96.0042 160.538 95.8503 161.216 95.9933 161.867C96.0764 162.246 96.1665 162.409 96.1753 162.838C96.2216 165.125 96.3093 167.49 95.7081 169.655C95.5564 170.202 95.4381 170.796 95.2476 171.327C95.055 171.864 94.7684 172.427 94.5543 173.014C94.2423 173.868 93.8628 174.755 93.6267 175.582C93.4289 176.274 93.2702 176.945 93.1665 177.715C93.1193 178.064 92.9866 178.207 92.9234 178.528C92.862 178.839 92.9754 179.192 92.9155 179.509C92.8626 179.789 92.7295 179.898 92.6978 180.234C92.6527 180.709 92.6515 180.91 92.5294 181.372C92.331 182.124 92.1995 182.925 92.0166 183.651C91.9488 183.92 91.8246 184.046 91.7698 184.333C91.7127 184.63 91.7807 184.965 91.7272 185.271C91.6189 185.893 91.3378 186.7 91.1485 187.379C90.8957 188.283 90.5918 189.165 90.3339 190.067C90.0122 191.192 89.7086 192.329 89.4086 193.464C89.1138 194.579 88.8009 195.63 88.4774 196.724C88.1544 197.817 87.9603 198.946 87.667 200.04C87.4333 200.915 87.3217 201.874 87.1243 202.769C87.0054 203.308 86.9734 203.907 86.7865 204.403C86.6057 204.882 86.4131 205.257 86.2861 205.772C86.0221 206.843 85.6886 207.874 85.4126 208.937C85.0636 210.281 84.63 211.646 84.1493 212.924C83.6489 214.253 83.3734 215.673 82.9326 217.02C82.4621 218.459 82.0236 219.766 81.6602 221.278C81.5072 221.914 81.2889 222.561 81.1619 223.135C80.9935 223.895 80.7652 224.494 80.4976 225.24L80.0471 226.28C80.224 226.33 80.3594 226.512 80.5215 226.574C80.6576 226.626 80.793 226.632 80.9379 226.641C81.0597 226.649 81.1692 226.712 81.2901 226.722C81.3772 226.73 81.4364 226.711 81.5247 226.735C81.7494 226.795 81.9662 226.829 82.196 226.862C82.8134 226.951 83.4299 227.051 84.045 227.165C84.7764 227.3 85.4996 227.47 86.2268 227.625C86.5628 227.697 86.9286 227.721 87.2688 227.739C87.4269 227.747 87.5781 227.812 87.7366 227.818C87.8636 227.823 87.9827 227.807 88.1091 227.83C88.7604 227.95 89.4189 227.985 90.0678 228.106C90.8739 228.256 91.6474 228.617 92.4617 228.617L93.6345 228.396C94.3584 226.325 95.1343 224.231 95.537 222.042C95.7756 220.744 96.136 219.439 96.4505 218.16C96.6355 217.407 97.0374 216.834 97.278 216.121C97.5224 215.398 97.6584 214.628 97.923 213.902C98.9335 211.125 100.043 208.42 101.088 205.666C101.831 203.709 102.461 201.686 103.173 199.713C103.56 198.644 104.149 197.777 104.608 196.769C105.157 195.565 105.519 194.295 105.88 193.006C106.119 192.156 106.42 191.419 106.603 190.569C106.775 189.769 106.968 188.991 107.15 188.174C107.372 187.181 107.808 186.347 107.981 185.327C108.32 183.328 108.185 180.182 108.893 178.26C109.044 178.639 109.09 178.819 109.125 179.25C109.156 179.637 109.257 179.801 109.334 180.126C109.486 180.762 109.637 181.392 109.847 182.056C110.247 183.32 110.531 184.852 110.794 186.184C111.089 187.671 111.447 189.259 111.9 190.711C112.131 191.45 112.222 192.211 112.419 192.974C112.607 193.699 112.861 194.489 113.005 195.238C113.295 196.743 113.492 198.073 114.071 199.483C114.585 200.734 114.88 202.167 115.183 203.445C115.349 204.141 115.661 204.869 115.861 205.567C116.05 206.228 116.263 206.89 116.41 207.571C116.576 208.341 116.9 209.177 117.001 209.953C117.087 210.616 117.135 211.269 117.27 211.933C117.506 213.092 117.698 214.217 118.14 215.314C118.317 215.754 118.496 216.099 118.788 216.475C119.008 216.759 119.296 216.971 119.487 217.303C119.858 217.951 120.024 218.833 120.226 219.571C121.066 222.637 121.702 225.688 122.192 228.77C122.411 230.154 122.756 231.299 123.29 232.59C124.725 232.938 126.346 232.717 127.805 232.709C128.629 232.704 129.405 232.759 130.173 232.526C130.67 232.376 131.206 232.367 131.715 232.226C132.214 232.088 132.615 232.029 133.137 232.03C133.675 232.032 134.271 232.123 134.798 231.981C135.302 231.844 135.68 231.803 136.21 231.807C136.627 231.81 136.919 231.738 137.305 231.632C137.594 231.553 137.873 231.27 138.151 231.341C137.409 229.058 136.907 226.504 136.416 224.101C135.711 220.651 134.866 217.258 133.923 213.898C133.561 212.608 133.306 211.286 132.89 210.016C132.581 209.072 132.384 208.057 132.027 207.136C131.531 205.856 131.178 204.434 130.802 203.086C130.54 202.146 130.209 201.26 129.94 200.321C129.482 198.717 128.826 197.207 128.378 195.597C127.855 193.717 127.314 191.857 126.703 190.025C126.245 188.654 125.833 187.349 125.545 185.9C125.369 185.014 125.074 184.187 124.789 183.347C124.588 182.753 124.536 182.132 124.36 181.514C124.169 180.839 123.924 180.2 123.722 179.533C123.54 178.936 123.48 178.236 123.187 177.694C122.816 177.008 122.346 176.445 122.013 175.713C121.747 175.127 121.561 174.506 121.354 173.898C121.167 173.346 120.96 172.774 120.805 172.173C120.744 171.94 120.626 171.681 120.571 171.469C120.5 171.19 120.526 170.9 120.47 170.604C120.42 170.336 120.267 170.207 120.218 169.923C120.167 169.634 120.226 169.217 120.226 168.922C120.227 168.356 120.226 167.79 120.226 167.224C120.226 165.885 119.996 164.727 119.995 163.404C119.994 161.828 119.995 160.252 119.995 158.676C119.995 157.161 119.996 155.646 119.995 154.131C119.995 153.42 120.074 152.663 119.975 151.963C119.914 151.528 119.779 151.148 119.755 150.703C119.676 149.248 119.764 147.744 119.764 146.284C119.764 145.098 119.888 143.707 119.648 142.616C119.503 141.955 119.531 141.213 119.533 140.483C119.534 139.814 119.391 139.305 119.324 138.687C119.556 138.594 119.761 138.663 119.996 138.651C120.324 138.635 120.384 138.521 120.689 138.424C121.062 138.305 121.459 138.361 121.845 138.361C122.461 138.36 123.012 138.986 123.431 138.361C126.313 138.361 129.197 138.393 132.08 138.362C132.858 138.353 133.567 138.62 134.337 138.654C135.059 138.686 135.791 138.644 136.514 138.644C137.342 138.644 138.275 138.489 139.089 138.668C139.596 138.779 139.982 138.933 140.506 138.926C141.542 138.912 142.593 138.867 143.63 138.912C144.537 138.951 145.395 139.217 146.309 139.208C147.099 139.202 147.889 139.212 148.679 139.203C149.552 139.193 150.301 139.512 151.172 139.499C152.692 139.477 154.316 139.3 155.82 139.556C157.295 139.807 158.758 139.801 160.249 139.777C160.891 139.766 161.454 140.034 162.088 140.065C162.624 140.092 163.169 140.061 163.706 140.058C164.609 140.054 165.357 140.34 166.26 140.342C167.815 140.344 169.3 140.623 170.859 140.625C172.329 140.626 173.798 140.629 175.267 140.625C176.817 140.619 178.318 140.87 179.862 140.921C181.036 140.96 182.051 140.693 183.191 140.61C183.964 140.553 184.746 140.729 185.511 140.562C185.824 140.493 186.072 140.349 186.401 140.331C186.698 140.314 187.005 140.399 187.299 140.355C188.956 140.111 190.581 139.331 192.231 138.991C193.676 138.692 195.377 138.844 196.821 138.99C197.68 139.076 198.516 139.206 199.383 139.219C199.667 139.223 201.016 138.934 201.245 139.481C200.724 140.157 200.864 141.589 200.69 142.466C200.533 143.259 200.359 144.126 200.102 144.891C199.55 146.538 198.868 148.21 198.253 149.808C197.907 150.705 197.751 151.76 197.332 152.651C196.825 153.73 196.411 154.888 195.969 156.022C195.554 157.084 195.279 158.243 194.814 159.273C193.168 162.921 193.036 167.512 191.045 170.918C190.479 171.886 190.118 173.01 189.622 174.024C189.32 174.641 188.825 175.014 188.58 175.678C188.362 176.271 188.263 176.855 187.945 177.404C187.535 178.113 187.252 178.913 186.848 179.613C186.46 180.283 186.072 180.75 185.768 181.522C185.176 183.024 184.379 184.438 183.83 185.946C183.412 187.094 183.22 188.374 182.761 189.472C182.374 190.399 181.683 191.356 181.422 192.305C181.284 192.808 181.299 193.318 181.127 193.807C180.973 194.245 180.682 194.533 180.514 194.96C180.326 195.437 180.259 195.978 180.127 196.484C179.884 197.41 179.735 198.639 179.886 199.633C179.949 200.047 180.061 200.53 180.473 200.614C180.778 200.676 180.987 200.38 181.284 200.317C181.539 200.263 181.805 200.365 182.061 200.307C182.908 200.113 183.646 200.053 184.54 199.98C186.698 199.803 188.798 199.705 190.96 199.915C192.311 200.047 193.539 199.806 194.868 199.749C195.939 199.703 196.987 199.782 198.055 199.627C198.575 199.552 199.376 199.614 199.831 199.306C199.685 199.871 200.15 200.888 200.262 201.464C200.335 201.838 200.354 202.266 200.429 202.658C200.519 203.127 200.483 203.596 200.481 204.073C200.468 206.512 200.481 208.952 200.481 211.391C200.48 212.054 200.544 212.759 200.493 213.418C200.433 214.179 200.241 214.833 200.249 215.612C200.259 216.43 200.045 217.133 200.006 217.939C199.966 218.768 200.087 219.582 199.967 220.407C199.681 222.364 199.793 224.362 199.781 226.353C199.773 227.794 199.937 229.144 200.082 230.57L200.079 233.212C200.235 233.325 200.409 233.367 200.584 233.422C201.018 233.56 201.456 233.674 201.896 233.783C202.872 234.027 203.83 234.347 204.823 234.477C205.791 234.605 206.769 234.545 207.739 234.65C208.485 234.731 209.216 234.829 209.968 234.758C210.436 234.715 210.895 234.758 211.363 234.772C211.699 234.783 212.038 234.758 212.373 234.73C212.661 234.705 212.932 234.64 213.215 234.575C213.619 234.482 214.016 234.52 214.425 234.525L214.589 233.104C214.589 232.082 214.589 231.059 214.589 230.036C214.589 228.138 214.802 226.018 214.601 224.142C214.517 223.366 214.301 222.713 214.34 221.906C214.388 220.919 214.597 220.053 214.591 219.05C214.582 217.585 214.428 215.936 214.577 214.48C214.691 213.368 214.928 212.319 214.832 211.169C214.782 210.571 214.599 210.032 214.578 209.424C214.548 208.578 214.712 207.798 214.792 206.965C214.908 205.758 215.017 204.554 215.051 203.34C215.089 202.015 215.304 200.702 215.289 199.375C215.285 198.928 215.148 198.512 215.497 198.332C215.679 198.238 216.106 198.269 216.332 198.209C216.913 198.056 217.482 198.138 218.062 198.005C218.418 197.924 218.736 197.82 219.107 197.785C219.797 197.719 220.362 197.503 221.087 197.502C221.613 197.501 222.14 197.512 222.665 197.499C222.727 197.498 223.112 197.436 223.184 197.482C223.476 197.67 223.382 197.949 223.377 198.351C223.366 199.063 223.294 199.88 223.429 200.558C223.496 200.894 223.612 201.159 223.608 201.605C223.606 201.935 223.609 202.266 223.609 202.596C223.609 203.416 223.566 204.221 223.724 205C223.875 205.737 223.847 206.487 223.84 207.264C223.834 208.005 224.073 208.386 224.071 209.106C224.068 210.867 224.722 212.652 224.95 214.39C225.118 215.668 225.291 216.959 225.452 218.221C225.609 219.45 225.821 220.649 225.978 221.887C226.158 223.302 226.398 224.809 226.386 226.234C226.378 227.22 226.381 228.206 226.384 229.192C226.385 230.041 226.426 230.892 226.332 231.736L226.197 233.127C226.566 233.124 226.932 233.127 227.3 233.165C227.745 233.212 228.181 233.326 228.625 233.384C229.268 233.47 229.923 233.491 230.57 233.491C231.224 233.491 231.872 233.423 232.524 233.39C232.958 233.367 233.391 233.368 233.824 233.33C234.145 233.303 234.456 233.221 234.774 233.178C235.425 233.09 236.069 233.171 236.72 233.169C237.023 233.169 237.326 233.169 237.629 233.169C237.798 233.169 237.972 233.154 238.14 233.167C238.341 233.183 238.53 233.213 238.733 233.212C239.161 233.21 239.589 233.212 240.017 233.212L240.021 231.471C239.99 230.085 240.059 228.744 239.916 227.366C239.69 225.191 239.556 223.035 239.569 220.844C239.577 219.425 239.332 218.089 239.336 216.661C239.337 216.222 239.365 215.768 239.341 215.33C239.316 214.882 239.159 214.577 239.092 214.14C238.909 212.942 239.104 211.454 239.104 210.236C239.104 209.021 239.168 207.776 239.11 206.563C239.082 205.979 238.889 205.454 238.861 204.865C238.83 204.217 238.873 203.555 238.873 202.905C238.873 201.34 238.873 199.775 238.873 198.21C238.873 197.739 239.046 196.67 238.728 196.364C239.231 196.014 239.702 196.078 240.261 196.086C240.825 196.094 241.255 195.82 241.817 195.796C242.552 195.766 243.217 195.534 243.946 195.514C245.201 195.481 246.462 195.515 247.718 195.52C248.388 195.522 249.102 195.627 249.765 195.458C250.242 195.336 250.646 195.219 251.136 195.23C251.998 195.251 252.712 194.942 253.564 194.952C254.564 194.965 255.565 194.955 256.565 194.955C257.892 194.955 259.568 195.3 260.859 194.913C260.825 194.216 260.043 193.436 259.688 192.981C258.933 192.016 258.212 190.884 257.601 189.777C257.075 188.827 256.338 188.174 255.763 187.251C254.951 185.947 254.045 184.713 253.276 183.367C252.4 181.834 251.482 180.344 250.605 178.812C250.183 178.075 249.715 177.459 249.223 176.802C248.613 175.989 248.156 174.767 247.765 173.781C246.456 170.467 245.463 166.98 244.013 163.744C243.391 162.357 242.812 160.92 242.076 159.611C241.15 157.965 240.153 156.398 239.279 154.704C237.697 151.641 235.841 148.874 234.068 145.985C233.58 145.191 233.022 144.497 232.572 143.669C232.191 142.968 231.803 142.335 231.253 141.829C230.703 141.322 230.114 140.928 229.604 140.341C229.241 139.923 228.99 139.407 228.641 138.984C228.071 138.294 227.463 137.564 226.852 136.961C226.328 136.442 225.555 135.59 225.483 134.731C226.449 134.564 227.286 134.109 228.28 134.116C229.478 134.125 230.675 134.116 231.872 134.116C233.25 134.116 234.769 134.331 236.114 133.975C237.236 133.677 238.448 133.825 239.596 133.832C240.583 133.838 241.467 133.576 242.441 133.54C243.63 133.496 244.849 133.685 246.031 133.487C247.357 133.265 248.703 133.455 250.014 133.204C251.262 132.966 252.558 132.867 253.823 133.009C254.653 133.101 255.42 133.273 256.254 133.267C258.289 133.253 260.421 133.073 262.434 133.406C264.055 133.674 265.712 133.642 267.336 133.903C268.489 134.088 269.864 134.431 271.007 134.073L271.939 134.303L273.067 118.756C272.881 118.72 270.699 118.058 270.242 117.986Z" fill="#EBEBE9" stroke="black" stroke-width="2.66667" stroke-miterlimit="10"/>
</g>
<defs>
<clipPath id="clip0_167_4271">
<rect width="314" height="360" fill="white"/>
</clipPath>
</defs>
</svg>
