<svg width="332" height="359" viewBox="0 0 332 359" fill="none" xmlns="http://www.w3.org/2000/svg">
<g clip-path="url(#clip0_167_4220)">
<path d="M126.169 15.1662C124.295 15.9105 122.881 16.771 120.763 16.4625C119.727 16.3117 119.093 15.4616 118.131 15.2066C116.821 14.8597 116.839 14.5631 116.037 13.4832C114.124 10.9093 112.885 7.82296 114.949 4.93503C116.897 2.21082 120.092 1.53761 123.207 1.557C124.193 1.56313 124.583 1.34152 125.529 1.54184C126.347 1.7151 126.399 2.17968 127.004 2.72691C128.258 3.86024 129.379 5.1749 130.304 6.66043C131.488 8.56021 130.616 9.9537 129.225 11.3605C128.749 11.8412 128.265 12.5125 127.769 12.9564C127.453 13.239 127.001 13.2665 126.685 13.5498C126.318 13.8787 126.668 14.9679 126.169 15.1662Z" fill="#EBEBE9" stroke="black" stroke-width="2.37136" stroke-miterlimit="10"/>
<path d="M248.019 2.40753C243.917 2.69785 239.616 6.40849 240.489 10.8065C240.916 12.9554 241.982 13.2059 243.788 13.8986C244.908 14.328 247.261 14.7392 248.452 14.2513C249.13 13.9737 249.588 13.0469 250.144 12.5924C250.664 12.168 251.045 11.9703 251.404 11.3704C252.138 10.1449 252.694 8.95819 252.672 7.5231C252.661 6.86468 252.83 6.08839 252.587 5.46931C252.426 5.05696 251.781 4.47395 251.509 4.09734C251.218 3.69356 250.95 3.14636 250.462 2.91759C249.874 2.64217 249.344 3.05797 248.865 2.40753H248.019Z" fill="#EBEBE9" stroke="black" stroke-width="2.37136" stroke-miterlimit="10"/>
<path d="M321.214 93.8441C319.195 93.9635 317.292 95.1865 316.757 97.2395C316.489 98.2658 316.289 99.3838 316.175 100.436C316.005 102.006 315.688 104.302 316.54 105.706C316.913 106.321 317.371 106.797 317.714 107.452C318.124 108.234 318.537 108.594 319.348 108.945C320.718 109.538 322.42 109.972 323.753 109.008C324.154 108.717 324.327 107.931 324.599 107.533C324.842 107.177 325.167 106.933 325.444 106.615C326.149 105.804 326.497 105.043 326.829 104.04C327.358 102.441 327.8 100.882 327.576 99.1601C327.204 96.3105 324.266 94.6389 321.637 94.6946L321.214 93.8441Z" fill="#EBEBE9" stroke="black" stroke-width="2.37136" stroke-miterlimit="10"/>
<path d="M272.136 188.258C270.986 189.069 269.81 189.612 268.648 190.363C267.568 191.06 266.755 192.014 265.771 192.833C263.91 194.38 263.69 196.585 263.677 198.9C263.665 200.955 264.215 202.285 266.151 203.278C268.652 204.561 271.585 204.789 274.164 203.68C275.924 202.923 276.563 200.708 276.892 198.942C277.107 197.788 277.33 196.745 277.245 195.552C277.18 194.65 276.868 193.833 276.79 192.949C276.683 191.751 276.346 190.782 275.532 189.947C274.794 189.191 274.147 189.129 272.982 189.108L272.136 188.258Z" fill="#EBEBE9" stroke="black" stroke-width="2.37136" stroke-miterlimit="10"/>
<path d="M160.016 232.062C157.637 232.062 155.33 231.85 153.442 233.571C152.927 234.04 152.954 234.65 152.561 235.184C152.364 235.452 152.041 235.517 151.85 235.772C151.383 236.394 151 237.295 150.592 238.016C149.717 239.564 149.588 241.61 149.899 243.369C150.271 245.475 151.212 248.517 153.196 249.604C154.527 250.334 156.602 250.566 158.091 250.749C160.168 251.005 160.62 250.08 161.709 248.527C163.151 246.47 164.588 244.803 165.452 242.352C166.143 240.393 166.834 237.935 166.794 235.859C166.757 233.958 167.316 231.323 165.103 230.457C163.093 229.671 160.89 229.936 160.016 232.062Z" fill="#EBEBE9" stroke="black" stroke-width="2.37136" stroke-miterlimit="10"/>
<path d="M49.1659 169.97C47.6165 169.685 45.8822 170.737 44.5202 171.334C42.7644 172.103 40.68 172.975 39.1396 174.138C37.598 175.303 35.7736 177.253 35.2139 179.145C34.7655 180.661 35.8718 182.449 36.4177 183.779C36.6851 184.431 36.9912 185.848 37.5557 186.325C37.8914 186.609 37.9839 186.436 38.336 186.613C39.5117 187.206 40.9256 187.692 42.2925 187.854C44.0511 188.063 46.0333 187.738 47.3779 186.492C48.8028 185.172 49.7819 183.436 50.9509 181.917C52.4881 179.919 52.6085 176.831 51.7037 174.458C51.4916 173.901 51.3407 173.244 51.0807 172.719C50.8265 172.205 50.3395 171.89 50.1287 171.352C50.4728 171.096 50.857 170.919 49.1659 169.97Z" fill="#EBEBE9" stroke="black" stroke-width="2.37136" stroke-miterlimit="10"/>
<path d="M33.9348 71.7292C31.8823 71.4299 30.6722 73.9877 30.0245 75.45C29.003 77.7562 28.4086 79.7394 28.4304 82.313C28.4359 82.9597 28.2841 83.8266 28.4887 84.4574C28.8641 85.6143 30.1126 86.8764 30.9889 87.6654C32.0681 88.6369 34.04 89.9582 35.4551 89.3657C36.8056 88.8003 37.5946 87.0804 38.0716 85.7636C38.2878 85.1666 38.5329 84.4746 38.6046 83.8498C38.6759 83.2282 38.4594 82.5503 38.5669 81.9361C38.6945 81.2069 38.9948 80.7652 39.0202 79.9852C39.049 79.1011 38.7776 78.5113 38.6242 77.679C38.4721 76.854 38.6225 76.3356 38.2802 75.5583C38.0138 74.9533 37.5294 74.4459 33.9348 71.7292Z" fill="#EBEBE9" stroke="black" stroke-width="2.37136" stroke-miterlimit="10"/>
<path d="M74.4302 51.0547C74.7527 51.1467 75.568 50.8157 75.8487 50.7109C76.2066 50.5773 76.5501 50.3447 76.8949 50.1699C77.5922 49.8164 78.3863 49.5188 79.0175 49.027C80.6089 47.787 81.6261 45.1402 81.0894 43.1223C80.9126 42.4578 80.1574 41.4422 79.5049 41.1758C79.1426 41.0278 78.3471 40.824 77.9512 40.8514C77.7427 40.8659 77.4834 41.1238 77.2482 41.1657C76.9638 41.2163 76.6855 41.0824 76.3968 41.171C75.8075 41.352 74.8382 42.0836 74.3337 42.4636C73.9637 42.7422 73.7194 43.1573 73.3373 43.4328C72.3788 44.124 71.1135 44.2756 70.2051 45.0381C70.3859 46.4997 71.872 47.5353 73.0219 48.3997C73.847 49.02 73.4494 50.7751 74.4302 51.0547Z" fill="#EBEBE9" stroke="black" stroke-width="2.37136" stroke-miterlimit="10"/>
<path d="M82.8807 45.7459L82.6683 45.7654C83.0566 45.2271 84.4224 44.7761 84.9932 44.4974C86.059 43.9771 86.543 43.8555 87.066 42.7278C87.4585 41.8815 87.552 40.9466 87.977 40.0831C88.4378 39.1468 89.1668 38.3418 89.2266 37.2517C89.2553 36.7267 89.2346 36.2976 89.059 35.8493C88.9312 35.5231 88.416 34.3073 88.0838 34.113C87.5207 33.7835 87.3102 34.226 86.9298 34.421C86.5311 34.6254 86.112 34.8879 85.6962 35.12C84.6757 35.6897 83.8082 36.5867 82.8976 37.3223C81.012 38.8456 78.9035 39.7707 76.895 41.1449C77.6562 41.2778 77.9831 41.2522 78.6543 41.1266C78.9787 41.0659 79.3757 41.1485 79.7118 41.1461C80.4958 41.1405 81.4322 41.273 82.013 41.8395C82.4456 42.2615 82.6327 43.2111 82.5411 43.7999C82.3517 45.018 81.0713 45.621 82.8807 45.7459Z" fill="#EBEBE9" stroke="black" stroke-width="2.37136" stroke-miterlimit="10"/>
<path d="M83.9253 34.857C84.0857 34.1444 85.5001 33.2569 86.0512 32.7549C86.9276 31.9566 87.8098 31.1004 88.5759 30.1515C89.6098 28.8709 90.7808 27.7005 91.8293 26.4081C93.0067 24.9569 94.3831 23.8859 95.7781 22.6648C98.2279 20.5205 100.623 18.2004 102.98 16.0037C103.89 15.1559 105.015 14.744 105.911 13.8834C106.446 13.3697 107.06 12.9181 107.63 12.4466C108.074 12.0791 108.267 12.0675 108.741 11.9003C109.245 11.7224 109.555 11.6451 110.094 11.6087C110.563 11.5769 110.835 11.3914 111.285 11.3105C111.994 11.1829 113.107 11.2286 113.829 11.3196C114.723 11.4324 114.521 12.1374 114.69 12.8878C114.781 13.291 115.035 13.5269 115.303 13.8057C115.586 14.0992 115.638 14.377 115.861 14.6643C116.896 15.996 118.965 16.7255 120.592 16.712C122.281 16.698 123.688 16.6347 125.246 16.0105C127.022 15.2991 128.14 13.7985 129.343 12.3815C130.098 11.4929 130.894 10.5865 131.536 9.62408C131.811 9.21226 132.372 7.08577 131.874 7.07243C131.956 6.26356 132.014 5.79684 131.782 5.04455C131.716 4.82864 131.498 4.38966 131.58 4.18091C132.412 4.17459 133.477 4.40533 134.285 4.59989C135.673 4.93423 137.097 5.22803 138.499 5.48439C140.238 5.80219 142.264 5.73368 143.903 6.39049C144.678 6.70075 145.383 7.13871 146.187 7.45219C148.458 8.33752 150.865 8.7265 153.248 9.21013C154.005 9.36381 154.77 9.42898 155.523 9.59311C156.952 9.90469 158.26 10.5227 159.644 10.9864C161.271 11.5312 163.045 12.1648 164.753 12.3736C165.751 12.4957 166.814 12.6607 167.82 12.6492C168.962 12.6362 169.948 12.8339 171.062 12.8681C171.749 12.8892 172.416 13.2134 173.117 13.1796C173.321 13.8968 173.62 14.502 173.593 15.2724C173.57 15.9378 173.331 16.5937 173.174 17.2382C173.054 17.7324 172.874 18.1453 172.712 18.6152C172.603 18.9296 172.571 19.4354 172.381 19.7124C171.831 20.5155 170.603 20.6264 169.726 20.6879C168.129 20.7999 166.368 20.7777 164.785 20.5699C163.001 20.3356 161.454 20.0913 159.686 20.3955C158.288 20.636 156.747 20.4466 155.331 20.4466C153.196 20.4466 151.061 20.4542 148.926 20.4474C147.5 20.4429 146.224 20.6934 144.808 20.6769C143.982 20.6673 143.253 20.9283 142.506 21.2698C142.056 21.4753 141.636 21.6725 141.384 22.042C141.128 22.4165 140.777 22.9261 140.687 23.4046C140.353 25.1934 140.439 27.0774 140.679 28.8434C140.726 29.1936 140.685 29.5552 140.693 29.9121C140.704 30.4097 140.903 30.577 140.932 31.0444C140.965 31.5803 140.896 32.1036 140.973 32.6406C141.146 33.8567 141.537 35.0495 141.623 36.2749C141.679 37.0623 141.839 37.7632 141.84 38.5763C141.841 40.3342 141.985 42.1157 141.555 43.8154C141.383 44.4977 141.221 45.0848 140.868 45.684C140.328 46.6035 139.21 46.981 138.186 47.1935C136.687 47.5046 135.169 47.4604 133.643 47.5146C132.483 47.5558 131.363 47.7654 130.194 47.7582C129.468 47.7537 128.742 47.756 128.016 47.756C127.057 47.756 126.007 47.878 125.064 47.7041C123.802 47.4715 122.519 47.223 121.281 46.8952C120.534 46.6974 120.115 46.3919 119.763 45.6804C119.391 44.9281 119.054 43.9986 118.839 43.1751C118.698 42.6361 118.42 42.0926 118.313 41.5605C118.25 41.2466 118.342 40.9157 118.273 40.5907C118.169 40.0954 118.093 39.7856 118.096 39.2652C118.102 38.3489 118.096 37.4325 118.096 36.5162C118.096 35.636 118.12 34.752 118.098 33.8722C118.086 33.3957 117.928 33.0562 117.856 32.6096C117.786 32.1764 117.868 31.6693 117.868 31.2273C117.867 30.8972 117.92 30.5237 117.876 30.1999C117.827 29.831 117.662 29.5456 117.633 29.1672C117.576 28.4163 117.445 27.5931 117.138 26.8895C116.819 26.1574 116.6 25.4321 116.325 24.7506C116.029 24.0154 115.603 24.0527 114.9 24.3879C114.462 24.5962 114.201 25.0541 113.758 25.2651C113.347 25.4606 112.93 25.7135 112.522 25.954C111.704 26.4359 110.918 27.025 110.217 27.6819C109.253 28.5848 108.214 29.4875 107.13 30.2644C106.439 30.7593 105.784 31.2672 105.082 31.748C104.431 32.1942 103.727 32.5785 103.095 33.0522C101.643 34.1399 100.227 35.2705 98.678 36.2304C98.1933 36.5308 97.7626 36.9391 97.2574 37.2113C96.7043 37.5092 96.367 37.8178 95.8595 38.1811C95.2139 38.6434 94.3259 38.9051 93.6276 39.3167C92.8287 39.7876 91.9975 40.1662 91.2085 40.6471C89.9704 41.4018 88.6567 42.0267 87.5028 42.9367" fill="#E1421F"/>
<path d="M83.9253 34.857C84.0857 34.1444 85.5001 33.2569 86.0512 32.7549C86.9276 31.9566 87.8098 31.1004 88.5759 30.1515C89.6098 28.8709 90.7808 27.7005 91.8293 26.4081C93.0067 24.9569 94.3831 23.8859 95.7781 22.6648C98.2279 20.5205 100.623 18.2004 102.98 16.0037C103.89 15.1559 105.015 14.744 105.911 13.8834C106.446 13.3697 107.06 12.9181 107.63 12.4466C108.074 12.0791 108.267 12.0675 108.741 11.9003C109.245 11.7224 109.555 11.6451 110.094 11.6087C110.563 11.5769 110.835 11.3914 111.285 11.3105C111.994 11.1829 113.107 11.2286 113.829 11.3196C114.723 11.4324 114.521 12.1374 114.69 12.8878C114.781 13.291 115.035 13.5269 115.303 13.8057C115.586 14.0992 115.638 14.377 115.861 14.6643C116.896 15.996 118.965 16.7255 120.592 16.712C122.281 16.698 123.688 16.6347 125.246 16.0105C127.022 15.2991 128.14 13.7985 129.343 12.3815C130.098 11.4929 130.894 10.5865 131.536 9.62408C131.811 9.21226 132.372 7.08577 131.874 7.07243C131.956 6.26356 132.014 5.79684 131.782 5.04455C131.716 4.82864 131.498 4.38966 131.58 4.18091C132.412 4.17459 133.477 4.40533 134.285 4.59989C135.673 4.93423 137.097 5.22803 138.499 5.48439C140.238 5.80219 142.264 5.73368 143.903 6.39049C144.678 6.70075 145.383 7.13871 146.187 7.45219C148.458 8.33752 150.865 8.7265 153.248 9.21013C154.005 9.36381 154.77 9.42898 155.523 9.59311C156.952 9.90469 158.26 10.5227 159.644 10.9864C161.271 11.5312 163.045 12.1648 164.753 12.3736C165.751 12.4957 166.814 12.6607 167.82 12.6492C168.962 12.6362 169.948 12.8339 171.062 12.8681C171.749 12.8892 172.416 13.2134 173.117 13.1796C173.321 13.8968 173.62 14.502 173.593 15.2724C173.57 15.9378 173.331 16.5937 173.174 17.2382C173.054 17.7324 172.874 18.1453 172.712 18.6152C172.603 18.9296 172.571 19.4354 172.381 19.7124C171.831 20.5155 170.603 20.6264 169.726 20.6879C168.129 20.7999 166.368 20.7777 164.785 20.5699C163.001 20.3356 161.454 20.0913 159.686 20.3955C158.288 20.636 156.747 20.4466 155.331 20.4466C153.196 20.4466 151.061 20.4542 148.926 20.4474C147.5 20.4429 146.224 20.6934 144.808 20.6769C143.982 20.6673 143.253 20.9283 142.506 21.2698C142.056 21.4753 141.636 21.6725 141.384 22.042C141.128 22.4165 140.777 22.9261 140.687 23.4046C140.353 25.1934 140.439 27.0774 140.679 28.8434C140.726 29.1936 140.685 29.5552 140.693 29.9121C140.704 30.4097 140.903 30.577 140.932 31.0444C140.965 31.5803 140.896 32.1036 140.973 32.6406C141.146 33.8567 141.537 35.0495 141.623 36.2749C141.679 37.0623 141.839 37.7632 141.84 38.5763C141.841 40.3342 141.985 42.1157 141.555 43.8154C141.383 44.4977 141.221 45.0848 140.868 45.684C140.328 46.6035 139.21 46.981 138.186 47.1935C136.687 47.5046 135.169 47.4604 133.643 47.5146C132.483 47.5558 131.363 47.7654 130.194 47.7582C129.468 47.7537 128.742 47.7559 128.016 47.7559C127.057 47.7559 126.007 47.878 125.064 47.7041C123.802 47.4715 122.519 47.223 121.281 46.8952C120.534 46.6974 120.115 46.3919 119.763 45.6804C119.391 44.9281 119.054 43.9986 118.839 43.1751C118.698 42.6361 118.42 42.0926 118.313 41.5605C118.25 41.2466 118.342 40.9157 118.273 40.5907C118.169 40.0954 118.093 39.7856 118.096 39.2652C118.102 38.3489 118.096 37.4325 118.096 36.5162C118.096 35.636 118.12 34.752 118.098 33.8722C118.086 33.3957 117.928 33.0562 117.856 32.6096C117.786 32.1764 117.868 31.6693 117.868 31.2273C117.867 30.8971 117.92 30.5237 117.876 30.1999C117.827 29.831 117.662 29.5456 117.633 29.1672C117.576 28.4163 117.445 27.5931 117.138 26.8895C116.819 26.1574 116.6 25.4321 116.325 24.7506C116.029 24.0154 115.603 24.0527 114.9 24.3879C114.462 24.5962 114.201 25.0541 113.758 25.2651C113.347 25.4606 112.93 25.7135 112.522 25.954C111.704 26.4359 110.918 27.025 110.217 27.6819C109.253 28.5848 108.214 29.4875 107.13 30.2644C106.439 30.7593 105.784 31.2672 105.082 31.748C104.431 32.1942 103.727 32.5785 103.095 33.0522C101.643 34.1399 100.227 35.2705 98.678 36.2304C98.1933 36.5308 97.7626 36.9391 97.2574 37.2113C96.7043 37.5092 96.367 37.8178 95.8595 38.1811C95.2139 38.6434 94.3259 38.9051 93.6276 39.3167C92.8287 39.7876 91.9975 40.1662 91.2085 40.6471C89.9704 41.4018 88.6567 42.0267 87.5028 42.9367" stroke="black" stroke-width="2.37136" stroke-miterlimit="10"/>
<path d="M172.21 19.6551C174.822 19.6551 177.515 19.4716 179.853 18.2956C181.22 17.6076 182.412 16.9789 182.4 15.3335C182.39 14.0828 182.635 12.5985 182.358 11.3888C180.842 10.9244 178.729 10.7549 177.149 11.0403C176.66 11.1286 176.301 11.2826 175.777 11.333C175.294 11.3794 175.334 11.5135 175.007 11.5819C174.31 11.7275 173.214 12.0715 172.529 11.9732C172.673 12.3658 173.282 12.5647 173.475 12.9578C173.613 13.2386 173.634 13.5401 173.729 13.8367C173.937 14.4868 173.981 15.0453 173.972 15.7209C173.966 16.2155 173.633 16.5185 173.368 16.9259C173.156 17.2525 172.953 17.5965 172.776 17.9437C172.564 18.359 172.272 19.1928 172.21 19.6551Z" fill="#EBEBE9" stroke="black" stroke-width="2.37136" stroke-miterlimit="10"/>
<path d="M182.3 10.8224C182.304 10.1429 183.147 9.77582 183.658 9.51678C184.669 9.00419 185.88 8.66141 187.003 8.54109C188.148 8.4184 189.257 8.31872 190.411 8.30921C190.698 8.30684 190.955 8.32111 191.237 8.3704C191.569 8.42856 191.915 8.37755 192.241 8.45042C192.554 8.52028 193.185 8.73564 193.422 8.96878C193.734 9.27662 193.605 9.92087 193.605 10.3315C193.605 11.0351 193.628 11.729 193.459 12.4191C193.236 13.3283 192.894 14.4587 192.093 15.0109C191.589 15.3585 190.974 15.6372 190.402 15.852C190.14 15.9504 189.892 16.0201 189.621 16.0834C189.243 16.1714 188.961 16.3153 188.573 16.326C188.23 16.3354 187.915 16.3952 187.577 16.4342C187.204 16.4772 186.824 16.4268 186.449 16.4355C185.635 16.4542 184.844 16.7469 184.036 16.8075C183.857 16.8209 183.658 16.7597 183.484 16.7971C183.364 16.8228 183.253 16.9313 183.133 16.9393C182.665 16.9706 182.775 16.0662 182.776 15.7361C182.777 14.7064 182.836 13.6551 182.78 12.6271C182.759 12.2365 182.637 11.9452 182.445 11.6303C182.303 11.3958 182.027 11.0707 182.3 10.8224Z" fill="#EBEBE9" stroke="black" stroke-width="2.37136" stroke-miterlimit="10"/>
<path d="M193.01 8.42999C193.538 8.34979 193.99 8.28638 194.535 8.30738C195.698 8.35219 196.824 8.37119 197.992 8.24706C198.794 8.16169 199.607 8.15127 200.414 8.09775C202.72 7.94474 205.174 8.39625 207.438 7.83703C208.049 7.68623 208.63 7.42779 209.22 7.21317C209.877 6.97426 210.432 6.55349 211.079 6.30179C211.32 6.2082 211.565 6.1311 211.807 6.04094C212.247 5.87697 212.659 5.81654 213.111 5.71158C214.241 5.4488 215.388 5.44178 216.547 5.43421C217.913 5.42528 219.291 5.3715 220.649 5.53256C220.939 5.56689 221.222 5.53489 221.508 5.57683C221.8 5.61958 222.087 5.72963 222.372 5.80223C222.768 5.90288 223.177 5.91154 223.569 6.02569C224.92 6.41894 226.298 6.70642 227.661 7.06673C228.406 7.2638 229.188 7.53402 229.94 7.68333C230.282 7.75121 230.597 7.75849 230.947 7.84573C231.429 7.96579 231.898 8.15596 232.375 8.29654C233.064 8.4995 233.827 8.64183 234.538 8.7618C235.221 8.87709 235.898 8.93129 236.565 9.05426C236.829 9.10301 237.004 9.14942 237.276 9.14769C237.595 9.14568 237.925 9.11553 238.24 9.17515C238.618 9.24662 238.985 9.38741 239.29 9.63C239.512 9.80627 239.592 10.0241 239.709 10.2797C239.901 10.6985 240.14 11.106 240.259 11.5479C240.332 11.8188 240.383 12.1055 240.605 12.3071C241.074 12.7327 241.663 12.8901 242.282 12.9755C242.842 13.0526 243.413 13.3074 243.959 13.4812C244.409 13.625 244.872 13.7171 245.329 13.8318C245.592 13.8978 245.84 13.8775 246.094 13.9258C246.189 13.9439 246.245 14.0172 246.342 14.0418C246.5 14.0821 246.673 14.0529 246.835 14.0516C247.098 14.0496 247.357 14.0683 247.617 14.025C248.528 13.8736 249.318 13.7076 250.156 13.2994C250.684 13.0423 251.207 12.7205 251.739 12.5051C252.262 12.2938 253.281 12.9286 253.708 13.1074C254.537 13.4544 255.357 13.9783 256.138 14.4177C256.649 14.7057 256.991 15.1053 257.395 15.5124C257.581 15.6992 257.784 15.7935 258.015 15.9125C258.687 16.2571 259.369 16.572 260.032 16.9352C261.188 17.569 262.409 18.047 263.572 18.6589C264.344 19.0645 265.033 19.5544 265.698 20.1115C266.562 20.8356 267.589 21.3394 268.592 21.8379C269.816 22.4466 270.979 23.1261 272.133 23.8622C272.756 24.2603 273.299 24.7862 273.94 25.1554C274.812 25.6585 275.712 26.1708 276.559 26.7173C276.93 26.9572 277.225 27.2883 277.59 27.5416C277.907 27.7622 278.271 27.964 278.574 28.1904C278.754 28.324 279.009 28.6225 279.105 28.8071C279.315 29.2103 279.156 29.8461 279.486 30.2231C279.717 30.4875 280.149 30.4422 280.452 30.577C280.957 30.8017 281.468 30.9554 281.989 31.1332C282.27 31.2289 282.321 31.3217 282.518 31.5116C283.007 31.983 283.633 32.3159 284.13 32.7868C284.706 33.3328 285.149 33.9469 285.644 34.5641C286.24 35.3088 286.901 36.0484 287.564 36.7331C288.162 37.3514 288.78 37.9516 289.388 38.5607C289.878 39.0522 290.414 39.5219 290.857 40.0579C291.134 40.3931 291.362 40.7623 291.638 41.0976C292.054 41.6037 292.562 42.0323 292.917 42.584C293.108 42.8806 293.268 43.191 293.453 43.49C293.572 43.6825 293.719 43.8785 293.78 44.1027C293.857 44.3835 293.793 44.7379 293.798 45.0237C293.809 45.6887 293.923 46.3421 293.925 47.008C293.928 47.6148 293.807 48.2118 293.799 48.8144C293.794 49.2719 293.518 49.6599 293.268 50.0572C293.115 50.3013 292.969 50.5529 292.822 50.8018C292.68 51.0432 292.541 51.5001 292.35 51.7102C292.326 51.7364 292.122 51.863 292.143 51.8462C291.787 52.1239 291.569 52.5044 291.144 52.7075C290.784 52.88 290.462 52.8146 290.071 52.8081C289.778 52.8032 289.498 52.8463 289.21 52.7819C288.785 52.6867 288.323 52.3803 287.925 52.1997C287.64 52.0709 287.166 51.9415 286.872 51.7711C286.612 51.6201 286.383 51.3284 286.161 51.1351C285.931 50.9351 285.672 50.7537 285.459 50.5358C285.196 50.2666 284.999 49.9365 284.759 49.6473C284.343 49.1477 283.9 48.6581 283.418 48.2212C282.666 47.5394 281.852 46.9289 281.159 46.1797C280.215 45.158 279.368 44.0285 278.467 42.9693C277.534 41.8735 276.445 40.8833 275.303 40.0152C273.636 38.7484 271.859 37.5874 269.852 36.9624C269.121 36.7348 268.405 36.4444 267.646 36.3225C267.07 36.23 266.489 36.1816 265.915 36.0888C265.312 35.9915 264.682 36.0671 264.073 36.0019C263.227 35.9114 262.343 35.9066 261.49 35.9359C260.981 35.9534 260.448 36.0283 259.94 36.0731C259.722 36.0924 259.481 36.1034 259.275 36.1852C259.247 36.196 259.111 36.1552 259.074 36.199C258.991 36.2983 259.064 36.6499 259.029 36.7794C258.954 37.0622 258.959 37.1067 259.029 37.4014C259.154 37.9224 259.093 38.792 258.969 39.2884C258.88 39.6421 258.806 40.002 258.731 40.3588C258.581 41.0718 258.246 41.7241 258.129 42.4399C258.032 43.0389 257.776 43.5419 257.561 44.1074C257.394 44.5481 257.315 45.0011 257.171 45.4466C257.021 45.9072 256.818 46.3611 256.644 46.8098C256.259 47.8039 255.865 48.8226 255.358 49.7604C255.22 50.0147 255.072 50.2779 254.918 50.5215C254.759 50.7744 254.483 50.9831 254.346 51.2445C254.256 51.4144 254.222 51.631 254.155 51.8115C254.029 52.1471 253.82 52.4611 253.722 52.8065C253.628 53.136 253.609 53.474 253.493 53.7997C253.308 54.3173 253.153 54.8461 253 55.3698C252.86 55.8497 252.593 56.3429 252.365 56.7884C252.252 57.0098 252.09 57.1603 251.942 57.3557C251.824 57.5119 251.864 57.5104 251.688 57.5925C251.484 57.6879 251.225 57.7599 251.008 57.8056C250.258 57.9638 249.506 57.9578 248.743 57.9528C247.653 57.9457 246.559 57.9844 245.472 57.8674C243.417 57.6461 241.445 56.9339 239.624 55.9762C238.968 55.6312 237.441 55.1339 237.144 54.3236C237.028 54.0063 237.06 53.7233 237.017 53.3885C236.941 52.7974 236.831 52.2443 236.791 51.6519C236.759 51.174 236.68 50.7252 236.687 50.2443C236.694 49.7648 236.613 49.2677 236.535 48.794C236.362 47.7341 236.446 46.6165 236.446 45.5406C236.446 44.0605 236.393 42.5708 236.456 41.0926C236.494 40.1895 236.568 39.2991 236.564 38.3949C236.559 37.1894 236.488 35.9508 236.559 34.7483C236.596 34.1054 236.686 33.5014 236.683 32.8508C236.679 32.0064 236.642 31.1571 236.753 30.3187C236.845 29.6285 236.924 28.9769 236.921 28.2823C236.919 27.7123 236.837 27.2044 236.799 26.6396C236.722 25.4992 236.442 24.3141 235.792 23.3492C235.593 23.0535 235.383 22.9325 235.104 22.7257C234.679 22.4101 234.276 22.1223 233.817 21.8447C232.938 21.3123 232.11 20.7079 231.22 20.1872C230.47 19.7482 229.714 19.3345 228.934 18.9519C228.374 18.6775 227.934 18.2935 227.374 18.0267C226.862 17.7823 226.382 17.5379 225.818 17.4254C225.388 17.3395 224.943 17.3052 224.507 17.2547C223.81 17.1738 223.118 16.9651 222.423 16.9197C221.814 16.8798 221.223 16.7916 220.621 16.7075C219.481 16.5484 218.201 16.6836 217.046 16.6836H212.501C211.471 16.6836 210.41 16.6037 209.395 16.7766C209.043 16.8366 208.698 16.8332 208.351 16.8963C207.764 17.0027 207.142 16.9066 206.546 16.9167C205.722 16.9306 204.912 17.0649 204.086 17.0482C202.83 17.023 201.587 16.9236 200.328 16.9231C198.61 16.9224 196.893 16.9229 195.175 16.9229C194.837 16.9229 194.471 16.9688 194.139 16.9126C193.858 16.8653 193.653 16.8188 193.37 16.806C192.947 16.7869 192.485 16.6644 192.071 16.564C191.749 16.4859 191.435 16.4673 191.111 16.4476C190.992 16.4404 190.598 16.4178 190.53 16.3039C190.394 16.076 190.741 15.8885 190.842 15.7324C191.021 15.458 191.136 15.1649 191.349 14.897C191.749 14.3952 192.276 14.0741 192.729 13.6185C193.512 12.8307 194.205 11.8811 194.2 10.7321C194.2 10.5143 194.247 10.2449 194.205 10.0357C194.168 9.8514 194.101 9.73963 194.081 9.53317C194.048 9.17274 193.892 8.81156 193.01 8.42999Z" fill="#E1421F" stroke="black" stroke-width="2.37136" stroke-miterlimit="10"/>
<path d="M290.056 52.9727C290.062 53.7362 289.918 54.7351 290.229 55.4412C290.287 55.572 290.379 55.6135 290.411 55.744C290.451 55.9111 290.366 56.108 290.394 56.2778C290.45 56.6144 290.647 56.9949 290.748 57.3256C290.865 57.7091 290.88 58.1098 291.021 58.4677C291.388 59.4011 292.027 59.7181 292.951 59.8914C293.214 59.9407 293.464 59.8988 293.724 59.9586C294.007 60.0236 294.258 60.2034 294.552 60.2625C295.159 60.3845 295.88 60.5391 296.502 60.4665C298.536 60.2286 298.921 57.5347 298.635 55.9403C298.455 54.9373 298.289 53.8878 297.808 52.9908C297.504 52.4213 297.358 51.6202 296.804 51.2176C296.44 50.9536 295.712 50.9484 295.275 50.8987C294.767 50.8409 294.169 50.9432 293.681 51.0988C292.946 51.3334 292.221 51.808 290.056 52.9727Z" fill="#EBEBE9" stroke="black" stroke-width="2.37136" stroke-miterlimit="10"/>
<path d="M294.036 60.973C293.249 61.9697 292.646 63.0721 292.643 64.36C292.641 65.0109 292.652 65.6624 292.651 66.3135C292.651 67.2197 292.574 68.0596 292.492 68.9584C292.431 69.6242 292.692 70.134 292.995 70.7271C293.316 71.3541 293.885 71.6536 294.393 72.1123C294.978 72.6408 295.563 72.8401 296.361 72.8124C298.149 72.7502 300.182 71.299 300.532 69.4875C300.796 68.1213 300.782 66.6582 300.784 65.2637C300.784 64.599 300.8 63.9771 300.633 63.3279C300.517 62.8762 300.297 62.5902 300.053 62.2C299.637 61.5338 298.999 60.5908 298.205 60.4472C297.776 60.3698 297.075 60.3846 296.657 60.4899C296.215 60.6015 295.897 60.6256 294.036 60.973Z" fill="#EBEBE9" stroke="black" stroke-width="2.37136" stroke-miterlimit="10"/>
<path d="M296.458 72.6257C297.15 72.562 297.827 72.4711 298.521 72.4518C298.859 72.4423 299.223 72.4069 299.534 72.2466C300.529 71.7335 300.771 70.6371 300.789 69.607C300.803 68.853 300.606 68.1529 300.611 67.4081C300.613 67.1252 300.574 66.8211 300.622 66.5422C300.696 66.1102 300.98 65.6788 301.16 65.2825C301.539 65.5445 301.724 66.1024 301.958 66.4963C302.35 67.1544 302.615 67.8575 302.966 68.5361C303.226 69.0387 303.527 69.4279 303.9 69.841C304.293 70.2757 304.535 70.8097 304.932 71.2443C305.595 71.9698 306.166 72.7829 306.835 73.4987C307.396 74.0998 308.002 74.6644 308.583 75.2475C310.816 77.4929 312.612 80.0852 314.764 82.4164C315.265 82.9592 315.794 83.5084 316.183 84.1398C316.664 84.9198 317.11 85.6609 317.725 86.3509C318.787 87.5404 319.809 88.8806 320.711 90.1821C321.218 90.9141 322.071 91.2345 322.455 92.0622C322.59 92.353 322.734 92.6725 322.887 92.9745C322.975 93.1476 323.02 93.4191 323.118 93.568C323.229 93.7374 323.434 93.7408 323.436 93.9877C322.355 94.3392 321.159 93.6358 320.076 93.931C319.123 94.1909 318.101 94.0796 317.148 94.5356C316.685 94.757 316.478 95.0495 316.268 95.4994C316.17 95.7082 316.081 95.8785 316.031 96.1051C315.96 96.4289 315.863 96.5072 315.706 96.7822C315.554 97.0489 315.496 97.3981 315.36 97.6809C315.229 97.9543 315.079 98.2166 314.963 98.4979C314.744 99.0268 314.635 99.6911 314.624 100.261C314.61 100.932 314.536 101.712 314.665 102.372C314.781 102.972 314.981 103.549 314.973 104.166C314.967 104.65 314.926 105.127 315.057 105.583C315.222 106.163 315.543 106.734 315.848 107.26C316.243 107.941 316.883 108.534 317.472 109.04C317.938 109.441 318.647 110.078 319.291 110.184C319.843 110.276 320.682 109.935 321.211 109.766C321.896 109.547 322.488 109.246 323.128 108.937C323.708 108.658 324.252 108.528 324.811 108.196C325.396 107.849 325.833 107.356 326.384 106.977C326.704 106.757 326.982 106.574 327.243 106.278C327.466 106.026 327.593 105.685 327.947 105.699C328.365 105.715 328.562 106.057 328.687 106.406C328.771 106.64 328.774 106.838 328.814 107.07C328.845 107.253 328.938 107.358 328.972 107.512C329.016 107.708 328.967 107.9 329.021 108.102C329.081 108.322 329.236 108.52 329.294 108.75C329.434 109.303 329.59 109.947 329.662 110.514C329.847 111.97 330.168 113.419 330.194 114.883C330.203 115.407 330.375 115.877 330.37 116.406C330.365 116.93 330.36 117.432 330.457 117.933C330.583 118.579 330.544 119.26 330.544 119.934C330.544 120.896 330.578 121.848 330.457 122.803C330.324 123.85 330.304 124.892 330.111 125.938C329.865 127.268 329.608 128.592 329.366 129.922C329.188 130.905 328.984 131.841 328.683 132.793C328.514 133.328 328.399 133.88 328.255 134.422C328.081 135.076 327.736 135.664 327.547 136.314C327.092 137.877 326.431 139.43 326.118 141.035C325.862 142.349 325.749 143.677 325.323 144.955C324.842 146.398 324.314 147.82 323.888 149.278C323.546 150.452 323.004 151.553 322.724 152.745C322.559 153.446 322.2 154.105 321.951 154.779C321.714 155.42 321.619 156.092 321.396 156.733C321.081 157.64 320.649 158.505 320.34 159.42C320.113 160.093 319.766 160.71 319.405 161.319C318.883 162.201 318.213 163.009 317.645 163.862C317.514 164.058 317.376 164.278 317.178 164.421C317.012 164.542 316.765 164.572 316.723 164.798C316.324 163.656 315.726 162.38 314.985 161.417C314.601 160.918 314.189 160.748 313.595 160.582C312.954 160.403 312.324 160.305 311.681 160.103C311.437 160.026 310.389 159.909 310.213 159.704C310.601 159.057 311.208 158.581 311.612 157.928C311.923 157.424 312.199 156.887 312.468 156.359C313.09 155.142 314.043 154.173 314.755 153.02C315.075 152.503 315.42 152.081 315.667 151.519C315.839 151.128 315.945 150.771 316.052 150.364C316.271 149.532 316.674 148.619 316.706 147.751C316.715 147.514 316.695 147.275 316.698 147.038C316.704 146.474 316.886 145.967 316.879 145.403C316.87 144.647 316.875 143.89 316.875 143.134V130.678C316.875 129.362 316.87 128.046 316.874 126.73C316.878 125.392 316.737 124.086 316.693 122.757C316.661 121.808 316.86 120.7 316.709 119.759C316.656 119.43 316.466 119.161 316.086 119.216C315.819 119.255 315.52 119.544 315.329 119.733C314.733 120.323 314.198 121.082 313.682 121.746C312.986 122.644 312.282 123.557 311.537 124.412C311.013 125.012 310.597 125.705 309.983 126.216C309.19 126.878 308.468 127.781 307.847 128.611C307.302 129.339 306.69 130.119 305.902 130.605C305.403 130.913 305.145 130.759 304.778 130.383C304.154 129.743 303.599 129.101 303.058 128.384C302.081 127.09 301.428 125.502 300.815 124.009C300.367 122.919 299.928 121.817 299.699 120.66C299.479 119.544 299.127 118.415 299.648 117.337C300.094 116.413 300.676 115.565 301.126 114.644C301.765 113.334 302.414 112.031 303.037 110.713C303.646 109.425 304.143 108.111 304.602 106.762C304.696 106.485 304.796 106.176 304.936 105.914C305.226 105.37 305.512 105.32 306.147 104.975C306.727 104.66 305.46 105.151 305.455 104.5C305.449 103.698 305.551 102.928 305.701 102.147C305.929 100.959 306.252 99.758 306.329 98.5465C306.396 97.5041 306.289 96.5104 306.455 95.4769C306.565 94.789 306.466 94.0813 306.532 93.388C306.624 92.4262 306.663 91.5202 306.665 90.5536C306.667 89.6549 306.511 88.9809 306.208 88.1218C305.972 87.4556 305.59 86.8234 305.265 86.1966C304.665 85.0402 304.097 83.8508 303.32 82.8029C302.621 81.8603 301.937 80.9141 301.364 79.889C300.784 78.8502 300.03 77.9475 299.26 77.0558C298.633 76.3297 298.155 75.5102 297.656 74.6998C297.312 74.1404 296.572 72.9302 297.288 72.4268C297.95 71.9611 298.715 71.5563 299.437 71.2003C300.141 70.8533 300.257 70.381 300.605 69.7258C300.956 69.0646 301.023 68.3113 301.13 67.5867C301.247 66.7851 301.377 65.9542 301.509 65.1447L301.649 65.1471" fill="#E1421F"/>
<path d="M296.458 72.6257C297.15 72.562 297.827 72.4711 298.521 72.4518C298.859 72.4423 299.223 72.4069 299.534 72.2466C300.529 71.7335 300.771 70.6371 300.789 69.607C300.803 68.853 300.606 68.1529 300.611 67.4081C300.613 67.1252 300.574 66.8211 300.622 66.5422C300.696 66.1102 300.98 65.6788 301.16 65.2825C301.539 65.5445 301.724 66.1024 301.958 66.4963C302.35 67.1544 302.615 67.8575 302.966 68.5361C303.226 69.0387 303.527 69.4279 303.9 69.841C304.293 70.2757 304.535 70.8097 304.932 71.2443C305.595 71.9698 306.166 72.7829 306.835 73.4987C307.396 74.0998 308.002 74.6644 308.583 75.2475C310.816 77.4929 312.612 80.0852 314.764 82.4164C315.265 82.9592 315.794 83.5084 316.183 84.1398C316.664 84.9198 317.11 85.6609 317.725 86.3509C318.787 87.5404 319.809 88.8806 320.711 90.1821C321.218 90.9141 322.071 91.2345 322.455 92.0622C322.59 92.353 322.734 92.6725 322.887 92.9745C322.975 93.1476 323.02 93.4191 323.118 93.568C323.229 93.7374 323.434 93.7408 323.436 93.9877C322.355 94.3392 321.159 93.6358 320.076 93.931C319.123 94.1909 318.101 94.0796 317.148 94.5356C316.685 94.757 316.478 95.0495 316.268 95.4994C316.17 95.7082 316.081 95.8785 316.031 96.1051C315.96 96.4289 315.863 96.5072 315.706 96.7822C315.554 97.0489 315.496 97.3981 315.36 97.6809C315.229 97.9543 315.079 98.2166 314.963 98.4979C314.744 99.0268 314.635 99.6911 314.624 100.261C314.61 100.932 314.536 101.712 314.665 102.372C314.781 102.972 314.981 103.549 314.973 104.166C314.967 104.65 314.926 105.127 315.057 105.583C315.222 106.163 315.543 106.734 315.848 107.26C316.243 107.941 316.883 108.534 317.472 109.04C317.938 109.441 318.647 110.078 319.291 110.184C319.843 110.276 320.682 109.935 321.21 109.766C321.896 109.547 322.488 109.246 323.128 108.937C323.708 108.658 324.252 108.528 324.811 108.196C325.396 107.849 325.833 107.356 326.384 106.977C326.704 106.757 326.982 106.574 327.243 106.278C327.466 106.026 327.593 105.685 327.947 105.699C328.365 105.715 328.562 106.057 328.687 106.406C328.771 106.64 328.774 106.838 328.814 107.07C328.845 107.253 328.938 107.358 328.972 107.512C329.016 107.708 328.967 107.9 329.021 108.102C329.081 108.322 329.236 108.52 329.294 108.75C329.434 109.303 329.59 109.947 329.662 110.514C329.847 111.97 330.168 113.419 330.194 114.883C330.203 115.407 330.375 115.877 330.37 116.406C330.365 116.93 330.36 117.432 330.457 117.933C330.583 118.579 330.544 119.26 330.544 119.934C330.544 120.896 330.578 121.848 330.457 122.803C330.324 123.85 330.304 124.892 330.111 125.938C329.865 127.268 329.608 128.592 329.366 129.922C329.188 130.905 328.984 131.841 328.683 132.793C328.514 133.328 328.399 133.88 328.255 134.422C328.081 135.076 327.736 135.664 327.547 136.314C327.092 137.877 326.431 139.43 326.118 141.035C325.862 142.349 325.749 143.677 325.323 144.955C324.842 146.398 324.314 147.82 323.888 149.278C323.546 150.452 323.004 151.553 322.724 152.745C322.559 153.446 322.2 154.105 321.951 154.779C321.714 155.42 321.619 156.092 321.396 156.733C321.081 157.64 320.649 158.505 320.34 159.42C320.113 160.093 319.766 160.71 319.405 161.319C318.883 162.201 318.213 163.009 317.645 163.862C317.514 164.058 317.376 164.278 317.178 164.421C317.012 164.542 316.765 164.572 316.723 164.798C316.324 163.656 315.726 162.38 314.985 161.417C314.601 160.918 314.189 160.748 313.595 160.582C312.954 160.403 312.324 160.305 311.681 160.103C311.437 160.026 310.389 159.909 310.213 159.704C310.601 159.057 311.208 158.581 311.612 157.928C311.923 157.424 312.199 156.887 312.468 156.359C313.09 155.142 314.043 154.173 314.755 153.02C315.075 152.503 315.42 152.081 315.667 151.519C315.839 151.128 315.945 150.771 316.052 150.364C316.271 149.532 316.674 148.619 316.706 147.751C316.715 147.514 316.695 147.275 316.698 147.038C316.704 146.474 316.886 145.967 316.879 145.403C316.87 144.647 316.875 143.89 316.875 143.134V130.678C316.875 129.362 316.87 128.046 316.874 126.73C316.878 125.392 316.737 124.086 316.693 122.757C316.661 121.808 316.86 120.7 316.709 119.759C316.656 119.43 316.466 119.161 316.086 119.216C315.819 119.255 315.52 119.544 315.329 119.733C314.733 120.323 314.198 121.082 313.682 121.746C312.986 122.644 312.282 123.557 311.537 124.412C311.013 125.012 310.597 125.705 309.983 126.216C309.19 126.878 308.468 127.781 307.847 128.611C307.302 129.339 306.69 130.119 305.902 130.605C305.403 130.913 305.145 130.759 304.778 130.383C304.154 129.743 303.599 129.101 303.058 128.384C302.081 127.09 301.428 125.502 300.815 124.009C300.367 122.919 299.928 121.817 299.699 120.66C299.479 119.544 299.127 118.415 299.648 117.337C300.094 116.413 300.676 115.565 301.126 114.644C301.765 113.334 302.414 112.031 303.037 110.713C303.646 109.425 304.143 108.111 304.602 106.762C304.696 106.485 304.796 106.176 304.936 105.914C305.226 105.37 305.512 105.32 306.147 104.975C306.727 104.66 305.46 105.151 305.455 104.5C305.449 103.698 305.551 102.928 305.701 102.147C305.929 100.959 306.252 99.758 306.329 98.5465C306.396 97.5041 306.289 96.5104 306.455 95.4769C306.565 94.789 306.466 94.0813 306.532 93.388C306.624 92.4262 306.663 91.5202 306.665 90.5536C306.667 89.6549 306.511 88.9809 306.208 88.1218C305.972 87.4556 305.59 86.8234 305.265 86.1966C304.665 85.0402 304.097 83.8508 303.32 82.8029C302.621 81.8603 301.937 80.9141 301.364 79.889C300.784 78.8502 300.03 77.9475 299.26 77.0558C298.633 76.3297 298.155 75.5102 297.656 74.6998C297.312 74.1404 296.572 72.9302 297.288 72.4268C297.95 71.9611 298.715 71.5563 299.437 71.2003C300.141 70.8533 300.257 70.381 300.605 69.7258C300.956 69.0646 301.023 68.3113 301.13 67.5867C301.247 66.7851 301.377 65.9542 301.509 65.1447L301.649 65.1471" stroke="black" stroke-width="2.37136" stroke-miterlimit="10"/>
<path d="M310.3 160.456C309.945 161.119 309.607 161.725 309.342 162.424C309.185 162.837 309.094 163.281 308.921 163.682C308.807 163.947 308.643 164.192 308.524 164.456C308.361 164.813 308.487 164.747 308.532 165.017C308.587 165.345 308.434 165.915 308.558 166.208C308.738 166.639 309.698 166.546 310.085 166.543C310.544 166.54 311.227 166.454 311.636 166.738C312.296 167.197 312.41 168.226 312.68 168.91C312.886 169.432 313.3 169.873 313.588 170.364C313.753 170.648 313.9 170.863 314.103 171.104C314.302 171.341 314.508 171.779 314.799 171.912C315.415 172.195 316.146 171.818 316.575 171.412C317.046 170.965 317.047 170.627 317.047 169.987C317.048 169.244 316.835 168.607 316.697 167.892C316.599 167.382 316.534 166.883 316.36 166.374C316.244 166.034 316.126 165.645 315.971 165.32C315.779 164.919 315.495 164.603 315.309 164.191C315.036 163.583 314.809 162.988 314.491 162.404C314.168 161.812 313.753 161.403 313.202 161.016C312.862 160.778 312.497 160.698 312.103 160.626C311.849 160.579 311.601 160.414 310.3 160.456Z" fill="#EBEBE9" stroke="black" stroke-width="2.37136" stroke-miterlimit="10"/>
<path d="M136.896 296.303C136.896 299.213 136.908 302.123 136.887 305.033C136.869 307.496 137.26 309.912 137.314 312.371C137.428 317.53 137.274 322.709 137.303 327.87C137.314 329.799 137.075 331.57 136.787 333.471C136.551 335.031 136.615 336.572 136.412 338.123C136.065 340.771 136.282 343.437 135.792 346.05C135.416 348.057 135.688 350.279 135.696 352.33C135.706 354.703 137.276 356.294 139.49 357.085C140.07 357.292 141.283 357.734 141.961 357.45C143.471 356.816 144.235 354.338 144.407 352.904C144.614 351.178 144.377 349.403 144.428 347.672C144.488 345.675 144.872 343.736 144.847 341.731C144.789 337.114 145.536 332.518 146.337 328.003C146.898 324.844 147.701 321.479 147.63 318.254C147.6 316.846 147.727 316.315 148.386 315.128C148.75 314.474 149.785 311.954 150.848 312.28C152.289 312.722 152.846 316.885 153.106 317.816C155.29 325.643 157.779 333.392 159.553 341.34C160.229 344.371 160.637 347.973 161.949 350.781C162.293 351.517 162.427 352.308 162.723 353.049C162.949 353.612 163.351 354.041 163.589 354.608C165.248 354.662 167.059 352.712 168.134 351.626C169.246 350.503 170.14 349.54 170.303 347.949C170.41 346.904 170.639 345.873 170.713 344.832C170.812 343.449 170.597 341.963 170.503 340.585C170.405 339.153 170.371 337.716 169.91 336.349C169.306 334.56 168.93 332.78 168.588 330.923C167.907 327.238 166.736 323.727 166.024 320.067C165.442 317.068 164.213 314.212 163.53 311.224C163.077 309.241 162.533 307.287 162.057 305.314C161.604 303.434 160.595 301.719 159.953 299.89C159.77 299.369 159.638 298.842 159.466 298.318C159.118 297.261 158.992 296.19 158.682 295.132L158.362 295.104" fill="#0091D5"/>
<path d="M136.896 296.303C136.896 299.213 136.908 302.123 136.887 305.033C136.869 307.496 137.26 309.912 137.314 312.371C137.428 317.53 137.274 322.709 137.303 327.87C137.314 329.799 137.075 331.57 136.787 333.471C136.551 335.031 136.615 336.572 136.412 338.123C136.065 340.771 136.282 343.437 135.792 346.05C135.416 348.057 135.688 350.279 135.696 352.33C135.706 354.703 137.276 356.294 139.49 357.085C140.07 357.292 141.283 357.734 141.961 357.45C143.471 356.816 144.235 354.338 144.407 352.904C144.614 351.178 144.377 349.403 144.428 347.672C144.488 345.675 144.872 343.736 144.847 341.731C144.789 337.114 145.536 332.518 146.337 328.003C146.898 324.844 147.701 321.479 147.63 318.254C147.6 316.846 147.727 316.315 148.386 315.128C148.75 314.474 149.785 311.954 150.848 312.28C152.289 312.722 152.846 316.885 153.106 317.816C155.29 325.643 157.779 333.392 159.553 341.34C160.229 344.371 160.637 347.973 161.949 350.781C162.293 351.517 162.427 352.308 162.723 353.049C162.949 353.612 163.351 354.041 163.589 354.608C165.248 354.662 167.059 352.712 168.134 351.626C169.246 350.503 170.14 349.54 170.303 347.949C170.41 346.904 170.639 345.873 170.713 344.832C170.812 343.449 170.597 341.963 170.503 340.585C170.405 339.153 170.371 337.716 169.91 336.349C169.306 334.56 168.93 332.78 168.588 330.923C167.907 327.238 166.736 323.727 166.024 320.067C165.442 317.068 164.213 314.212 163.53 311.224C163.077 309.241 162.533 307.287 162.057 305.314C161.604 303.434 160.595 301.719 159.953 299.89C159.77 299.369 159.638 298.842 159.466 298.318C159.118 297.261 158.992 296.19 158.682 295.132L158.362 295.104" stroke="black" stroke-width="2.37136" stroke-miterlimit="10"/>
<path d="M308.57 165.847C307.978 166.665 307.503 167.556 306.878 168.348C306.554 168.759 306.077 168.902 305.716 169.261C305.409 169.565 305.074 170.016 304.802 170.365C304.53 170.712 304.255 171.109 304.069 171.508C303.692 172.319 303.181 173.432 304.234 173.898C304.636 174.075 305.189 174.112 305.617 174.158C306.008 174.2 306.237 174.074 306.41 174.378C306.673 174.841 306.587 175.467 306.841 175.951C307.221 176.676 308.247 177.015 308.921 177.434C309.815 177.991 310.9 178.347 311.953 177.868C313.338 177.237 314.179 175.53 314.417 174.108C314.53 173.431 314.635 172.771 314.63 172.083C314.627 171.742 314.527 171.238 314.655 170.917L314.799 170.891" fill="#EBEBE9"/>
<path d="M308.57 165.847C307.978 166.665 307.503 167.556 306.878 168.348C306.554 168.759 306.077 168.902 305.716 169.261C305.409 169.565 305.074 170.016 304.802 170.365C304.53 170.712 304.255 171.109 304.069 171.508C303.692 172.319 303.181 173.432 304.234 173.898C304.636 174.075 305.189 174.112 305.617 174.158C306.008 174.2 306.237 174.074 306.41 174.378C306.673 174.841 306.587 175.467 306.841 175.951C307.221 176.676 308.247 177.015 308.921 177.434C309.815 177.991 310.9 178.347 311.953 177.868C313.338 177.237 314.179 175.53 314.417 174.108C314.53 173.431 314.635 172.771 314.63 172.083C314.627 171.742 314.527 171.238 314.655 170.917L314.799 170.891" stroke="black" stroke-width="2.37136" stroke-miterlimit="10"/>
<path d="M227.594 234.372C228.438 233.691 230.086 233.707 231.132 233.67C231.724 233.649 231.884 233.575 232.288 233.972C232.511 234.267 232.734 234.562 232.957 234.857C233.223 235.199 233.51 235.523 233.819 235.827C234.418 236.693 234.345 238.219 234.342 239.235C234.34 239.905 234.229 240.671 234.357 241.324C235.796 241.161 237.114 240.808 238.393 240.08C240.661 238.789 242.707 237.165 244.755 235.555C245.93 234.631 247.102 233.726 248.37 232.933C249.889 231.982 251.479 231.149 253.015 230.228C255.672 228.635 257.883 226.462 260.519 224.859C261.733 224.121 262.689 223.155 263.805 222.284C264.411 221.811 264.899 221.2 265.561 220.813C266.187 220.447 266.274 220.46 266.952 220.706C267.047 220.74 267.621 220.922 267.728 221.124L267.789 221.523C267.887 222.341 267.976 223.16 268.055 223.98C268.168 225.726 267.818 227.409 267.745 229.144C267.714 229.908 267.776 230.666 267.716 231.43C267.634 232.473 267.397 233.513 267.281 234.554C267.173 235.531 267.176 236.469 267.327 237.44C267.435 238.129 267.685 238.541 268.05 239.133C268.438 239.761 268.722 240.323 269.347 240.755C270.604 241.623 272.222 241.754 273.683 241.99C274.705 242.155 275.706 242.265 276.713 242.511C277.2 242.631 277.579 242.706 278.092 242.729C279.102 242.776 280.048 243.14 281.054 243.048C284.412 242.738 287.832 240.704 289.68 237.87C290.216 237.049 290.817 236.247 291.049 235.283C291.285 234.306 291.377 233.306 291.491 232.308C291.822 229.391 291.793 226.47 292.191 223.557C292.567 220.805 292.897 218.03 292.852 215.248C292.817 213.101 292.237 211.17 291.609 209.146C291.307 208.173 290.806 207.422 290.256 206.578C289.902 206.036 289.897 205.575 289.993 204.952C290.147 203.955 290.824 203.151 291.279 202.268C291.565 201.715 291.797 201.151 292.112 200.619C292.306 200.29 292.486 199.924 292.701 199.607C293.132 198.97 293.77 198.47 294.309 197.927C295.374 196.854 296.328 195.783 297.088 194.46C297.613 193.545 297.962 192.52 298.541 191.636C299.946 189.493 301.998 187.91 303.837 186.178C304.597 185.462 305.245 184.653 305.991 183.924C306.634 183.297 307.013 182.502 307.573 181.812C308.225 181.009 308.309 180.336 308.392 179.34C308.416 179.043 308.465 178.867 308.412 178.57C308.291 177.878 307.704 177.292 307.316 176.752C306.863 176.123 306.32 175.522 305.498 175.4C305.065 175.336 304.543 175.41 304.101 175.413C303.318 175.418 302.565 175.249 301.781 175.231C300.983 175.212 300.285 175.426 299.789 176.1C299.533 176.448 299.325 176.832 299.067 177.181C298.659 177.733 298.176 178.207 297.783 178.771C296.518 180.586 294.885 182.107 293.666 183.95C292.322 185.981 290.94 187.924 289.174 189.608C287.157 191.531 284.832 193.008 282.589 194.65C281.661 195.329 280.667 195.955 279.752 196.643C279.544 196.799 279.424 196.982 279.244 197.157C279.055 197.342 278.779 197.459 278.619 197.675C278.395 197.978 278.365 198.348 278.121 198.676C277.878 199.004 277.667 199.343 277.434 199.666C276.903 200.403 276.418 201.175 275.873 201.893C275.317 202.625 274.795 203.555 274.067 204.118C273.122 204.85 271.82 204.713 270.704 204.796C270.214 204.833 269.79 204.986 269.288 204.981C268.747 204.977 268.205 204.976 267.664 204.979C267.04 204.983 266.521 204.864 265.919 204.797C265.288 204.726 264.545 204.779 263.914 204.806C263.64 204.818 263.435 204.795 263.233 205.015C263.087 205.174 263.143 205.253 263.049 205.413C262.9 205.669 262.727 205.86 262.504 206.08C261.59 206.988 260.442 207.635 259.314 208.236C257.587 209.156 256.033 210.257 254.387 211.302C252.011 212.811 249.761 214.479 247.442 216.075C247.073 216.329 246.736 216.546 246.355 216.767C245.784 217.097 245.33 217.571 244.764 217.906C243.815 218.467 242.953 219.149 241.961 219.64C241.03 220.1 239.909 220.388 239.053 220.972C238.459 221.378 237.955 221.894 237.379 222.324C235.834 223.477 234.49 224.84 233.129 226.204C231.814 227.523 230.149 228.599 229.238 230.247C228.863 230.925 228.356 231.515 228.014 232.216C227.816 232.621 227.529 233.039 227.594 234.372Z" fill="#E1421F" stroke="black" stroke-width="2.37136" stroke-miterlimit="10"/>
<path d="M228.114 234.372C226.83 234.52 225.676 235.505 224.657 236.23C224.298 236.485 223.611 237.057 223.724 237.512C223.797 237.803 224.02 238.143 224.169 238.402C224.484 238.949 224.96 239.325 225.312 239.853C225.503 240.141 225.629 240.455 225.807 240.751C226.08 241.203 226.453 241.597 226.636 242.1C226.877 242.761 226.987 243.628 227.071 244.325C227.12 244.722 227.2 245.29 227.621 245.472C228.025 245.647 228.852 245.319 229.277 245.207C229.968 245.025 230.702 244.631 231.19 244.093C231.954 243.251 232.436 242.011 232.445 240.891C232.453 240.03 232.72 239.128 232.621 238.272C232.56 237.744 232.42 237.169 232.222 236.673C232.037 236.208 231.706 235.851 231.401 235.455C230.888 234.789 229.829 234.219 228.114 234.372Z" fill="#EBEBE9" stroke="black" stroke-width="2.37136" stroke-miterlimit="10"/>
<path d="M223.788 237.677C223.152 237.854 222.597 238.182 221.976 238.397C221.646 238.511 221.303 238.549 220.971 238.657C219.857 239.017 218.7 239.821 217.728 240.462C216.272 241.422 214.714 242.135 213.359 243.26C212.67 243.832 212.644 244 212.742 244.874C212.951 246.759 214.812 248.247 216.323 249.162C218.031 250.197 220.019 250.736 222.005 250.172C222.891 249.92 223.794 249.254 224.435 248.604C225.042 247.99 225.704 247.324 226.173 246.596C226.727 245.737 226.872 244.717 227.041 243.764C227.115 243.346 226.845 242.734 226.694 242.331C226.419 241.597 225.997 240.547 225.471 239.956C225.019 239.447 224.126 238.992 223.788 237.677Z" fill="#EBEBE9" stroke="black" stroke-width="2.37136" stroke-miterlimit="10"/>
<path d="M212.195 245.677C210.003 246.338 207.729 246.819 205.58 247.616C204.757 247.921 204.008 248.063 203.135 248.108C199.071 248.317 195.194 249.96 191.271 250.863C188.052 251.605 184.835 252.432 181.57 252.947C180.532 253.11 179.441 253.566 178.383 253.473C177.733 253.415 177.146 253.315 176.487 253.329C176.034 253.339 175.691 253.307 175.249 253.177C174.56 252.976 173.864 252.835 173.165 252.68C172.259 252.48 171.512 252.153 170.642 251.847C169.462 251.432 168.221 251.251 167.015 250.939C165.62 250.578 164.249 250.2 162.804 250.199C162.075 250.199 161.332 250.154 160.605 250.191C159.755 250.234 158.933 250.513 158.089 250.555C156.693 250.626 155.313 250.506 154.072 249.856C153.275 249.438 152.419 249.268 151.601 248.937C151.038 248.711 150.433 248.621 149.905 248.31C148.7 247.601 147.401 246.795 146.32 245.911C145.755 245.45 144.85 244.853 144.712 244.079C144.627 243.599 144.911 242.939 144.594 242.516C144.409 242.271 144.04 242.157 143.785 241.993C143.107 241.559 142.422 241.098 141.697 240.75C140.607 240.227 139.486 239.914 138.322 239.598C136.601 239.132 134.939 238.573 133.193 238.191C131.796 237.886 130.343 237.761 128.974 237.338C127.848 236.99 126.587 236.718 125.491 236.29C124.09 235.741 122.747 235.088 121.289 234.669C119.89 234.268 118.636 233.571 117.307 232.994C116.847 232.794 116.449 232.517 116.006 232.285C115.595 232.071 115.127 231.947 114.721 231.72C112.743 230.619 110.871 229.277 108.841 228.273C107.802 227.759 106.713 227.294 105.613 226.932C104.797 226.664 104.041 226.359 103.181 226.373C102.201 226.388 101.556 227.325 100.976 228.038C99.996 229.244 99.2897 230.944 99.381 232.54C99.5048 234.702 101.216 235.844 102.593 237.245C105.62 240.327 109.017 243.041 112.223 245.934C113.167 246.785 114.201 247.331 115.222 248.07C116.731 249.163 118.336 250.132 119.898 251.145C120.793 251.725 121.877 252.25 122.476 253.154C123.448 254.624 124.741 255.816 125.888 257.145C126.909 258.328 128.075 259.37 129.08 260.57C129.508 261.08 129.916 261.582 130.381 262.061C131.696 263.417 133.042 264.752 134.346 266.115C134.77 266.558 135.098 267.056 135.533 267.482C136.17 268.106 136.799 268.936 137.208 269.716C137.709 270.669 138.064 271.697 138.523 272.671C139.159 274.021 140.114 275.281 140.61 276.684C140.915 277.548 140.733 278.633 140.74 279.538C140.75 280.622 140.499 281.658 140.26 282.709C140.021 283.762 139.87 284.83 139.611 285.882C139.36 286.905 139.154 287.948 138.919 288.976C138.593 290.405 137.962 291.725 137.783 293.194C137.696 293.906 137.995 295.032 138.335 295.623C138.569 296.031 138.88 296.251 139.301 296.427C140.418 296.892 141.707 297.224 142.857 297.55C144.062 297.892 145.264 298.163 146.483 298.435C147.919 298.755 149.404 299.208 150.872 299.361C151.7 299.447 152.533 299.458 153.364 299.435C154.125 299.414 155.171 299.497 155.85 299.109C156.347 298.824 156.913 297.953 157.249 297.541C158.367 296.172 159.49 294.771 160.542 293.352C162.333 290.936 163.626 288.311 164.772 285.539C165.398 284.025 165.774 282.547 166.089 280.939C166.4 279.354 166.175 277.757 166.465 276.184C166.634 275.271 166.67 273.928 167.243 273.146C167.642 272.603 168.093 272.022 168.649 271.643C169.773 270.875 171.106 270.367 172.386 269.935C174.151 269.339 175.862 268.627 177.627 268.045C178.55 267.741 179.448 267.364 180.373 267.063C181.681 266.637 183.015 266.344 184.338 265.975C185.781 265.572 187.241 265.303 188.684 264.913C191.718 264.092 194.712 263.142 197.763 262.373C200.698 261.632 203.574 260.702 206.454 259.769C209.471 258.792 212.198 257.097 215.032 255.696C216.438 255 217.945 254.023 219.015 252.877C219.246 252.629 219.557 252.343 219.78 252.071C220.004 251.798 220.522 251.101 220.499 250.736C220.104 250.64 219.671 250.811 219.281 250.73C218.981 250.668 218.655 250.548 218.36 250.464C217.324 250.171 216.32 249.774 215.487 249.073C214.697 248.409 214.085 247.58 213.354 246.842C212.631 246.113 211.88 245.251 212.195 245.677Z" fill="#E1421F" stroke="black" stroke-width="2.37136" stroke-miterlimit="10"/>
<path d="M98.1725 231.764C96.6312 231.692 95.2755 231.311 93.7525 230.981C92.9434 230.809 92.1343 230.637 91.3252 230.466C90.819 230.567 90.4304 230.462 90.1594 230.152C90.3919 229.809 89.9968 229.112 90.0535 228.707C90.16 227.943 90.1397 226.96 90.5351 226.276C90.7844 225.844 91.2948 225.533 91.6428 225.199C92.0256 224.83 92.3684 224.457 92.803 224.147C93.5945 223.582 94.4809 223.093 95.412 222.812C96.6984 222.423 98.275 222.724 99.6004 222.805C100.886 222.884 102.16 222.902 103.447 222.889C104.132 222.882 104.547 223.14 105.102 223.543C105.574 223.885 105.935 224.241 105.962 224.845C105.983 225.316 105.899 225.734 106.105 226.158C105.75 226.621 104.762 226.36 104.232 226.368C103.712 226.376 103.221 226.513 102.7 226.546C102.326 226.569 101.891 226.617 101.561 226.814C100.89 227.215 100.534 228 100.333 228.72C100.256 228.996 100.219 229.262 100.123 229.537C100.065 229.705 99.9498 229.905 99.9246 230.079C99.9054 230.212 99.9073 230.792 100.265 230.402L100.249 230.198" fill="#EBEBE9"/>
<path d="M98.1725 231.764C96.6312 231.692 95.2755 231.311 93.7525 230.981C92.9434 230.809 92.1343 230.637 91.3252 230.466C90.819 230.567 90.4304 230.462 90.1594 230.152C90.3919 229.809 89.9968 229.112 90.0535 228.707C90.16 227.943 90.1397 226.96 90.5351 226.276C90.7844 225.844 91.2948 225.533 91.6428 225.199C92.0256 224.83 92.3684 224.457 92.803 224.147C93.5945 223.582 94.4809 223.093 95.412 222.812C96.6984 222.423 98.275 222.724 99.6004 222.805C100.886 222.884 102.16 222.902 103.447 222.889C104.132 222.882 104.547 223.14 105.102 223.543C105.574 223.885 105.935 224.241 105.962 224.845C105.983 225.316 105.899 225.734 106.105 226.158C105.75 226.621 104.762 226.36 104.232 226.368C103.712 226.376 103.221 226.513 102.7 226.546C102.326 226.569 101.891 226.617 101.561 226.814C100.89 227.215 100.534 228 100.333 228.72C100.256 228.996 100.219 229.262 100.123 229.537C100.065 229.705 99.9498 229.905 99.9246 230.079C99.9054 230.212 99.9073 230.792 100.265 230.402L100.249 230.198" stroke="black" stroke-width="2.37136" stroke-miterlimit="10"/>
<path d="M89.5216 228.111C88.0685 227.973 86.4286 227.201 85.3767 226.207C84.5686 225.443 83.494 224.98 82.7721 224.119C82.2598 223.509 82.1511 222.467 82.2398 221.693C82.3591 220.652 83.6522 219.847 84.5401 219.474C85.3765 219.122 86.131 218.743 87.0531 218.714C87.6903 218.694 88.3618 218.651 88.9964 218.72C89.6825 218.794 90.2952 219.123 90.9577 219.304C91.4003 219.425 91.8513 219.432 92.2991 219.531C93.2027 219.731 94.0936 220.074 94.994 220.266C95.7378 220.424 96.3889 220.884 97.1273 221.019C97.4974 222.123 94.6367 222.371 94.1702 222.537C93.5918 222.742 93.0062 223.063 92.4484 223.322C91.9482 223.555 91.696 223.914 91.438 224.381C91.1565 224.889 90.8611 225.427 90.5259 225.929C90.4356 226.064 89.3958 227.497 89.5216 228.111Z" fill="#EBEBE9" stroke="black" stroke-width="2.37136" stroke-miterlimit="10"/>
<path d="M89.0024 218.546C89.0148 217.855 87.6531 216.46 87.2971 216.058C85.9124 214.493 84.2222 213.27 82.6778 211.879C81.7378 211.032 80.6484 210.467 79.6391 209.72C78.0254 208.524 76.8781 206.873 75.4722 205.459C74.7296 204.712 73.9498 204.026 73.1671 203.324C72.4229 202.657 71.5891 202.102 70.9048 201.372C69.8616 200.258 68.9009 199.061 67.9073 197.902C66.5125 196.275 64.8839 194.864 63.4978 193.23C62.2718 191.785 61.3437 190.118 60.1017 188.682C59.1754 187.612 58.115 186.675 57.0075 185.798C55.6875 184.752 54.5112 183.6 52.9481 182.921C52.7279 182.826 52.5258 182.778 52.322 182.641C52.1249 182.508 51.9071 182.17 51.6721 182.122C51.2281 182.032 50.6988 182.459 50.3996 182.725C49.5556 183.475 48.8434 184.415 48.1236 185.282C47.4841 186.052 47.0663 186.983 46.4305 187.742C45.8783 188.401 44.8689 188.327 44.0701 188.249C41.8281 188.028 39.7075 187.397 37.5889 186.643C36.7709 186.351 35.8593 185.613 35.3271 184.917C34.9054 184.367 34.8966 183.844 34.8034 183.199C34.7034 182.507 34.5561 181.802 34.4909 181.105C34.4424 180.587 34.3965 179.756 34.6261 179.27C34.8669 178.761 35.4228 178.397 35.7993 178.007C36.0945 177.701 36.1428 177.484 36.2597 177.118C36.4389 176.556 36.9626 176.133 37.2677 175.644C37.4632 175.331 37.8563 174.767 37.8071 174.379C37.7226 173.713 36.7786 172.982 36.3801 172.554C35.5438 171.657 34.5852 170.966 34.0893 169.807C33.3795 168.148 32.4208 166.563 31.463 165.036C30.6841 163.793 29.6757 162.61 28.6664 161.545C28.3411 161.202 28.0079 160.878 27.6938 160.524C27.2788 160.057 26.7832 159.696 26.3738 159.227C25.4215 158.136 24.6563 156.759 23.9107 155.511C22.964 153.927 22.0022 152.357 21.0778 150.759C20.8052 150.288 20.6101 149.819 20.4088 149.317C19.9341 148.133 19.4052 146.967 19.0125 145.751C18.7505 144.94 18.3687 144.194 18.0573 143.405C17.6963 142.489 17.4535 141.655 16.9753 140.784C16.3419 139.63 15.5634 138.583 14.8466 137.484C14.1715 136.448 13.5709 135.368 12.8842 134.34C12.3404 133.526 11.7235 132.74 11.2542 131.874C10.8563 131.14 10.5964 130.295 10.3039 129.511C10.2143 130.081 10.2052 130.657 10.2765 131.237C9.71157 131.17 9.3763 129.858 8.84374 129.668C8.32449 129.483 7.86423 129.55 7.33173 129.459C6.93976 129.392 6.6916 129.274 6.30099 129.363C5.81411 129.475 5.3351 129.688 4.83743 129.8C4.05379 129.977 3.02413 130.374 2.63914 131.149C2.45962 131.51 2.33708 132.141 2.30849 132.535C2.25431 133.282 2.36253 134.023 2.45136 134.761C2.57809 135.813 2.3092 136.796 2.30942 137.84C2.30971 139.15 2.39533 140.435 2.62437 141.722C2.70812 142.192 2.67321 142.632 2.78106 143.102C3.6738 146.989 4.11309 150.954 5.0852 154.831C5.65011 157.085 6.13002 159.347 6.71839 161.591C7.39209 164.161 8.06523 166.741 8.68082 169.325C9.28355 171.856 9.91897 174.373 10.5352 176.9C11.1608 179.466 11.8778 182.113 12.946 184.539C14.2532 187.507 16.3376 190.051 18.0758 192.761C19.2513 194.594 20.3468 196.517 21.2848 198.483C21.8808 199.732 22.4787 200.9 23.149 202.107C23.2898 202.361 23.4669 202.57 23.6074 202.8C23.7709 203.067 23.752 203.24 23.8143 203.544C23.9887 204.393 23.858 205.243 23.9839 206.105C24.1189 207.028 24.118 207.916 24.1184 208.851C24.1196 211.219 24.1091 213.588 24.1224 215.956C24.1328 217.793 23.9419 219.615 23.946 221.455C23.9481 222.383 23.9454 223.312 23.9454 224.241C23.9454 225.194 23.9032 226.159 23.9365 227.11C23.9557 227.661 24.1112 228.183 24.124 228.734C24.1356 229.235 24.1244 229.515 24.2671 229.997C24.719 231.526 25.7004 232.956 26.5067 234.318C27.2258 235.533 28.0562 236.516 29.1492 237.408C30.6001 238.593 32.3541 239.485 34.0108 240.333C35.2392 240.962 36.5182 241.539 37.7802 242.095C38.7365 242.517 39.7363 242.77 40.6921 243.188C41.5264 243.553 42.306 244.011 43.1583 244.338C43.9311 244.635 44.683 244.945 45.4354 245.29C46.2531 245.665 47.0089 245.95 47.8973 246.088C48.3049 246.151 49.1292 246.381 49.5388 246.203C50.9732 245.58 51.143 243.745 51.415 242.448C51.8402 240.42 51.6311 238.271 51.6252 236.212C51.6157 232.904 51.656 229.483 52.0796 226.205C52.6748 221.598 53.5518 217.151 53.3284 212.482C53.2398 210.633 53.134 208.796 53.0085 206.955C52.9613 206.262 52.9365 205.498 52.8003 204.815C53.5029 205.708 54.0768 206.697 54.7931 207.578C55.3143 208.219 55.9289 208.823 56.5278 209.394C56.9956 209.84 57.541 210.16 58.0477 210.555C58.9914 211.292 59.7569 212.195 60.6279 213.007C62.1867 214.462 64.2286 215.155 66.1296 216.024C67.6028 216.696 69.1155 217.34 70.5263 218.138C72.6426 219.336 74.8965 220.385 77.1392 221.332C77.5929 221.524 78.0799 221.586 78.5313 221.794C79.1975 222.101 79.8153 222.557 80.4983 222.821C80.9246 222.986 81.1027 223.023 81.4775 223.288C81.7628 223.49 82.0716 223.535 82.3433 223.723C81.982 223.48 81.6063 223.262 81.2163 223.067" fill="#E1421F"/>
<path d="M89.0024 218.546C89.0148 217.855 87.6531 216.46 87.2971 216.058C85.9124 214.493 84.2222 213.27 82.6778 211.879C81.7378 211.032 80.6484 210.467 79.6391 209.72C78.0254 208.524 76.8781 206.873 75.4722 205.459C74.7296 204.712 73.9498 204.026 73.1671 203.324C72.4229 202.657 71.5891 202.102 70.9048 201.372C69.8616 200.258 68.9009 199.061 67.9073 197.902C66.5125 196.275 64.8839 194.864 63.4978 193.23C62.2718 191.785 61.3437 190.118 60.1017 188.682C59.1754 187.612 58.115 186.675 57.0075 185.798C55.6875 184.752 54.5112 183.6 52.9481 182.921C52.7279 182.826 52.5258 182.778 52.322 182.641C52.1249 182.508 51.9071 182.17 51.6721 182.122C51.2281 182.032 50.6988 182.459 50.3996 182.725C49.5556 183.475 48.8434 184.415 48.1236 185.282C47.4841 186.052 47.0663 186.983 46.4305 187.742C45.8783 188.401 44.8689 188.327 44.0701 188.249C41.8281 188.028 39.7075 187.397 37.5889 186.643C36.7709 186.351 35.8593 185.613 35.3271 184.917C34.9054 184.367 34.8966 183.844 34.8034 183.199C34.7033 182.507 34.5561 181.802 34.4909 181.105C34.4424 180.587 34.3965 179.756 34.6261 179.27C34.8669 178.761 35.4228 178.397 35.7993 178.007C36.0945 177.701 36.1428 177.484 36.2597 177.118C36.4389 176.556 36.9626 176.133 37.2677 175.644C37.4632 175.331 37.8563 174.767 37.8071 174.379C37.7226 173.713 36.7786 172.982 36.3801 172.554C35.5438 171.657 34.5852 170.966 34.0893 169.807C33.3795 168.148 32.4208 166.563 31.463 165.036C30.6841 163.793 29.6757 162.61 28.6664 161.545C28.3411 161.202 28.0079 160.878 27.6938 160.524C27.2788 160.057 26.7832 159.696 26.3738 159.227C25.4215 158.136 24.6563 156.759 23.9107 155.511C22.964 153.927 22.0022 152.357 21.0778 150.759C20.8052 150.288 20.6101 149.819 20.4088 149.317C19.9341 148.133 19.4052 146.967 19.0125 145.751C18.7505 144.94 18.3687 144.194 18.0573 143.405C17.6963 142.489 17.4535 141.655 16.9753 140.784C16.3419 139.63 15.5634 138.583 14.8466 137.484C14.1715 136.448 13.5709 135.368 12.8842 134.34C12.3404 133.526 11.7235 132.74 11.2542 131.874C10.8563 131.14 10.5964 130.295 10.3039 129.511C10.2143 130.081 10.2052 130.657 10.2765 131.237C9.71157 131.17 9.3763 129.858 8.84374 129.668C8.32449 129.483 7.86423 129.55 7.33173 129.459C6.93976 129.392 6.6916 129.274 6.30099 129.363C5.81411 129.475 5.3351 129.688 4.83743 129.8C4.05379 129.977 3.02413 130.374 2.63914 131.149C2.45962 131.51 2.33708 132.141 2.30849 132.535C2.25431 133.282 2.36253 134.023 2.45136 134.761C2.57809 135.813 2.3092 136.796 2.30942 137.84C2.30971 139.15 2.39533 140.435 2.62437 141.722C2.70812 142.192 2.67321 142.632 2.78106 143.102C3.6738 146.989 4.11309 150.954 5.0852 154.831C5.65011 157.085 6.13002 159.347 6.71839 161.591C7.39209 164.161 8.06523 166.741 8.68082 169.325C9.28355 171.856 9.91897 174.373 10.5352 176.9C11.1608 179.466 11.8778 182.113 12.946 184.539C14.2532 187.507 16.3376 190.051 18.0758 192.761C19.2513 194.594 20.3468 196.517 21.2848 198.483C21.8808 199.732 22.4787 200.9 23.149 202.107C23.2898 202.361 23.4669 202.57 23.6074 202.8C23.7709 203.067 23.752 203.24 23.8143 203.544C23.9887 204.393 23.858 205.243 23.9839 206.105C24.1189 207.028 24.118 207.916 24.1184 208.851C24.1196 211.219 24.1091 213.588 24.1224 215.956C24.1328 217.793 23.9419 219.615 23.946 221.455C23.9481 222.383 23.9454 223.312 23.9454 224.241C23.9454 225.194 23.9032 226.159 23.9365 227.11C23.9557 227.661 24.1112 228.183 24.124 228.734C24.1356 229.235 24.1244 229.515 24.2671 229.997C24.719 231.526 25.7004 232.956 26.5067 234.318C27.2258 235.533 28.0562 236.516 29.1492 237.408C30.6001 238.593 32.3541 239.485 34.0108 240.333C35.2392 240.962 36.5182 241.539 37.7802 242.095C38.7365 242.517 39.7363 242.77 40.6921 243.188C41.5264 243.553 42.306 244.011 43.1583 244.338C43.9311 244.635 44.683 244.945 45.4354 245.29C46.2531 245.665 47.0089 245.95 47.8973 246.088C48.3049 246.151 49.1292 246.381 49.5388 246.203C50.9732 245.58 51.143 243.745 51.415 242.448C51.8402 240.42 51.6311 238.271 51.6252 236.212C51.6158 232.904 51.656 229.483 52.0796 226.205C52.6748 221.598 53.5518 217.151 53.3284 212.482C53.2399 210.633 53.134 208.796 53.0085 206.955C52.9613 206.262 52.9365 205.498 52.8003 204.815C53.5029 205.708 54.0768 206.697 54.7931 207.578C55.3143 208.219 55.9289 208.823 56.5278 209.394C56.9956 209.839 57.541 210.16 58.0477 210.555C58.9914 211.292 59.7569 212.195 60.6279 213.007C62.1867 214.462 64.2286 215.155 66.1296 216.024C67.6028 216.696 69.1155 217.34 70.5263 218.138C72.6426 219.336 74.8965 220.385 77.1392 221.332C77.5929 221.524 78.0799 221.586 78.5313 221.794C79.1975 222.101 79.8153 222.557 80.4983 222.821C80.9246 222.986 81.1027 223.023 81.4775 223.288C81.7628 223.49 82.0716 223.535 82.3433 223.723C81.982 223.48 81.6063 223.262 81.2163 223.067" stroke="black" stroke-width="2.37136" stroke-miterlimit="10"/>
<path d="M11.4875 131.933C11.5518 131.381 11.3043 130.839 11.3105 130.275C11.3172 129.663 11.2879 129.046 11.308 128.435C11.3301 127.766 11.4872 127.141 11.4863 126.459C11.4858 126.126 11.5675 125.62 11.4685 125.284C11.3592 124.914 11.0657 124.572 10.8569 124.256C10.2735 123.375 9.58264 121.964 8.52809 121.552C7.85408 121.288 6.84448 121.31 6.16833 121.351C5.41321 121.396 4.50083 121.383 3.78178 121.614C2.82482 121.922 2.55991 123.434 2.33507 124.299C1.81168 126.314 2.28275 128.486 1.97119 130.541C3.03626 129.731 4.21256 128.78 5.614 128.618C6.1539 128.555 6.74468 128.775 7.18146 129.07C7.51051 129.293 7.76069 129.588 8.03811 129.867C8.41311 130.244 8.74007 130.407 9.20894 130.637C9.80439 130.929 10.9721 131.505 11.4875 131.933Z" fill="#EBEBE9" stroke="black" stroke-width="2.37136" stroke-miterlimit="10"/>
<path d="M3.35551 120.976C3.55561 120.052 3.80718 119.145 4.0482 118.231C4.30777 117.247 4.34785 116.08 4.80806 115.167C5.05602 114.675 5.38922 113.895 5.84236 113.586C6.22403 113.325 7.24177 113.181 7.63955 113.169C9.14695 113.125 10.6507 114.126 12.0008 114.711C12.7728 115.045 13.0778 115.01 13.2952 115.752C13.6118 116.833 13.5692 118.021 13.5633 119.137C13.553 121.076 13.5987 122.949 13.2609 124.857C13.1647 125.401 13.009 125.925 12.8333 126.449C12.7341 126.745 12.4716 127.781 12.249 127.967C11.6474 126.724 11.2641 125.287 10.415 124.2C9.6031 123.16 8.77738 122.062 7.58135 121.432C6.9706 121.11 6.26731 120.572 5.57089 120.446C4.95214 120.334 3.7927 120.303 3.35551 120.976Z" fill="#EBEBE9" stroke="black" stroke-width="2.37136" stroke-miterlimit="10"/>
<path d="M4.91259 113.671C4.90974 112.35 4.81388 111.074 5.13392 109.781C5.57992 107.979 6.12808 106.187 6.66407 104.41C7.65068 101.141 7.97847 97.6267 9.54202 94.5526C10.3499 92.9641 11.4034 91.4581 12.5341 90.0887C13.7542 88.6111 15.325 87.5128 16.6208 86.1046C17.3103 85.3553 17.9773 84.5958 18.636 83.8191C19.1523 83.2105 19.7897 82.7268 20.3465 82.157C20.9349 81.5551 21.5747 81.0258 22.195 80.4577C22.5681 80.1161 22.8954 79.6369 23.343 79.397C23.55 79.2862 23.7762 79.2718 23.9809 79.1651C24.4127 78.9401 24.8256 78.5023 25.2441 78.2305C26.1515 77.6411 27.1992 77.3567 27.9362 76.5344C28.4012 76.0154 28.4956 75.4339 28.8724 74.8768C29.4106 74.0811 30.0276 73.4557 30.7766 72.8476C31.2644 72.4516 31.7062 72.0453 32.2279 71.6933C32.3726 71.5956 32.6173 71.3607 32.7726 71.3126C32.9864 71.2463 33.3235 71.4203 33.5509 71.4955C34.5836 71.8374 35.9 72.1023 36.7759 72.8108C36.9329 72.9378 37.1155 73.2139 37.3078 73.2849C37.6773 73.4214 37.9238 73.2134 38.2588 73.0206C38.5865 72.8321 38.9234 72.7106 39.2585 72.5447C40.5041 71.9278 41.6192 70.7541 42.4599 69.6725C42.8688 69.1464 43.3023 68.6727 43.7658 68.1944C44.2873 67.6563 44.618 66.972 45.0577 66.3686C45.7752 65.3839 46.4216 64.3465 47.1291 63.3535C48.0952 61.9976 49.1048 60.8385 50.3152 59.6904C51.3433 58.7152 52.5275 57.8758 53.6048 56.9511C54.2804 56.3712 54.9095 55.7661 55.5339 55.1302C57.2723 53.3597 59.1978 51.7891 60.9926 50.0809C62.0586 49.0664 63.3675 48.7565 64.659 48.1236C65.7866 47.5711 66.9102 47.0138 68.0217 46.4296C68.4767 46.1904 69.3125 45.9515 69.6547 45.5227C70.2806 46.4252 71.0057 47.2452 71.8111 47.9934C72.409 48.5488 72.7427 49.1458 73.1835 49.8158C73.6655 50.5485 73.4784 51.7994 73.0995 52.5492C72.7738 53.1936 71.9755 53.7522 71.4373 54.1879C70.3143 55.097 69.0543 55.8034 67.9546 56.7472C66.608 57.903 65.6658 59.4537 64.4777 60.762C63.8923 61.4067 63.3987 62.1382 62.8162 62.7769C62.0535 63.6133 61.275 64.4348 60.5044 65.2641C60.3767 65.4016 60.2085 65.7102 60.0614 65.8592C59.8238 66.1 59.5315 66.2579 59.2822 66.4892C58.5102 67.2057 57.8784 68.0364 57.256 68.8834C56.3568 70.1072 55.3341 71.2107 54.3412 72.3561C52.9356 73.9775 51.5718 75.7904 50.546 77.6876C49.9409 78.8069 49.4454 79.9899 48.7889 81.0815C48.5679 81.4489 48.311 81.8044 48.1153 82.186C47.6607 83.0721 47.323 84.1141 47.04 85.0703C46.771 85.9789 46.4933 86.8331 46.6465 87.7964C46.7552 88.4799 46.8838 89.1792 47.0635 89.8459C47.2446 90.518 47.3629 91.2196 47.68 91.8438C48.5924 93.6395 49.8187 95.2484 50.6338 97.0967C51.6001 99.2878 52.2684 101.565 52.8492 103.886C52.9502 104.29 52.9823 104.69 53.0478 105.1C53.1581 105.793 53.4137 106.409 53.6632 107.059C54.1059 108.213 54.3995 109.413 54.7519 110.598C55.0792 111.698 55.1838 112.804 55.3094 113.94C55.4178 114.921 55.6058 116.102 55.4095 117.093C55.1599 118.352 53.4207 119.33 52.3548 119.758C51.3982 120.141 50.2468 120.407 49.2223 120.454C47.7371 120.522 46.2677 120.262 44.7847 120.276C43.5458 120.288 42.2422 120.416 41.0136 120.241C40.003 120.097 39.1154 120.008 38.3161 119.291C36.9336 118.052 35.8811 116.164 35.3137 114.419C34.812 112.876 34.2168 111.362 33.7646 109.804C33.4845 108.839 33.1817 107.904 32.7655 106.989C32.479 106.359 32.1287 105.748 31.8921 105.095C31.5442 104.136 31.2473 103.289 30.7311 102.4C30.2624 101.592 29.8412 100.754 29.3891 99.9363C29.0269 99.2815 28.5587 98.7603 28.1536 98.139C27.5759 97.253 27.1251 96.2964 26.5412 95.415C26.2483 94.9727 26.0344 94.4318 25.6753 94.0511C24.4981 94.534 23.3824 95.1221 22.3803 95.9136C21.8607 96.324 21.249 96.6154 20.7541 97.0351C19.8261 97.822 19.0942 98.7928 18.5005 99.8398C17.4067 101.769 15.938 103.501 15.0306 105.546C14.3069 107.176 13.9157 108.98 13.7369 110.746C13.6506 111.597 13.5594 112.45 13.4293 113.285C13.3857 113.565 13.5785 114.922 13.1482 114.971C12.6092 114.506 12.2539 114.252 11.5772 114.063C10.7898 113.842 9.97757 113.73 9.19572 113.493C8.37408 113.243 7.35398 113.136 6.4917 113.145C6.06574 113.15 5.54062 113.075 5.14079 113.179C5.1801 113.227 5.21933 113.275 4.91259 113.671Z" fill="#E1421F" stroke="black" stroke-width="2.37136" stroke-miterlimit="10"/>
<path d="M120.599 48.1726C120.608 52.3349 120.518 56.4074 120.299 60.5574C120.136 63.6747 120.224 66.7612 119.896 69.8657C119.607 72.5935 119.803 75.3629 120.004 78.0923C120.241 81.2829 119.954 84.5169 120.289 87.6914C120.44 89.129 120.56 90.4577 120.579 91.8966C120.593 92.9293 120.584 95.7778 121.439 96.602C122.057 97.1977 123.223 97.0173 123.959 96.9069C125.79 96.6325 128.431 95.8049 129.792 94.5074C132.099 92.3079 132.153 88.9028 132.136 85.9424C132.126 84.0395 132.126 82.1367 132.127 80.2338C132.127 79.1808 131.892 77.8938 132.106 76.8808C132.583 74.6224 133.011 72.3176 133.428 70.0164C133.889 67.4795 133.765 64.1007 135.39 62.0562C136.676 62.7089 137.645 65.3163 138.337 66.5069C138.895 67.4676 139.164 68.0923 139.288 69.1436C139.61 71.8501 140.696 74.3331 141.869 76.7628C142.63 78.3402 143.154 79.9458 144.351 81.2469C145.114 82.0761 145.668 82.9074 146.16 83.9359C147.09 85.8792 148.055 87.7076 149.365 89.4125C150.362 90.7102 152.145 91.4289 153.592 90.5715C155.936 89.183 155.956 85.423 155.518 83.0768C155.106 80.8637 153.604 78.7948 152.918 76.652C152.557 75.5262 151.887 74.5628 151.41 73.4935C150.72 71.9469 150.107 70.2476 149.597 68.632C148.007 63.6034 146.926 58.4052 145.137 53.4499C144.209 50.8802 144.242 46.913 141.181 46.2636C138.469 45.6882 135.687 47.7789 133.018 47.7702C131.235 47.7644 129.565 47.3585 127.765 47.3695C125.906 47.3808 124.048 47.3734 120.599 48.1726Z" fill="#0091D5" stroke="black" stroke-width="2.37136" stroke-miterlimit="10"/>
<path d="M235.875 52.5678C234.849 53.8206 233.456 55.0267 232.584 56.3844C231.808 57.5929 231.365 59.0639 230.69 60.3402C230.127 61.4066 229.503 62.4295 229.18 63.6007C228.365 66.5616 227.233 69.4979 225.926 72.2661C225.226 73.7498 224.523 75.0172 223.651 76.4044C222.545 78.1645 221.888 80.3571 221.139 82.2823C220.73 83.3312 220.542 84.4544 220.149 85.5078C219.608 86.9548 218.567 88.2043 218.377 89.7246C218.203 91.1181 217.26 93.6834 218.967 94.5023C219.402 94.7108 220.336 94.8412 220.859 94.941C221.944 95.1483 223.213 94.6064 224.118 94.0701C227.443 92.0995 228.611 88.2216 230.494 85.0494C231.975 82.5554 233.89 80.213 235.139 77.5938C236.15 75.4751 236.952 73.7323 238.292 71.796C238.81 71.0464 239.314 70.4337 240.083 69.9457C240.645 69.5889 241.505 68.7924 242.231 68.9044C243.407 69.0857 243.237 71.3787 243.338 72.2231C243.624 74.6106 243.295 77.03 243.462 79.4237C243.62 81.6931 243.831 83.8836 243.824 86.1664C243.814 89.5033 243.877 92.7395 244.135 96.0585C244.222 97.1821 243.233 104.301 246.283 102.796C248.355 101.773 249.776 98.3632 250.154 96.2449C250.516 94.2155 250.589 92.2932 250.582 90.2385C250.57 86.972 250.583 83.7051 250.583 80.4385C250.583 77.9407 250.992 75.5585 250.979 73.0752C250.963 70.0589 251.375 67.1558 251.378 64.1474C251.379 63.4068 251.525 62.4785 251.399 61.7578C251.269 61.0193 250.979 60.5413 250.981 59.7614C250.982 58.6924 250.916 58.3506 249.717 58.1425C248.734 57.972 247.591 58.1622 246.588 58.1617C245.714 58.1613 244.698 58.3057 243.855 58.0907C242.636 57.78 241.325 57.0186 240.21 56.4439C239.431 56.0428 238.636 55.8503 237.863 55.4836C236.899 55.0261 236.219 54.1132 235.875 52.5678Z" fill="#0091D5" stroke="black" stroke-width="2.37136" stroke-miterlimit="10"/>
<path d="M39.5083 118.896C40.5972 121.969 40.7367 125.315 41.6953 128.414C42.0977 129.715 42.2777 131.039 42.6565 132.342C43.21 134.244 43.8707 136.045 44.2876 137.993C44.6585 139.725 44.9023 141.385 45.5501 143.045C46.1546 144.595 46.7813 146.116 47.2629 147.71C47.9973 150.141 48.6144 153.339 50.0588 155.47C50.6134 156.287 51.7049 157.61 52.6168 157.972C53.8021 158.444 55.0961 157.446 55.8514 156.651C57.0414 155.397 56.6842 153.401 56.4062 151.8C55.9402 149.116 55.6656 146.288 55.7855 143.561C55.8329 142.483 56.27 141.499 56.1844 140.422C56.1377 139.833 55.9094 139.29 55.8432 138.704C55.7348 137.745 55.8651 136.804 55.719 135.836C55.4658 134.159 55.3142 132.569 55.3993 130.854C55.4699 129.432 56.1077 128.744 56.9688 130.146C58.1166 132.016 59.6882 133.357 61.0442 135.037C63.6499 138.264 66.9204 140.222 70.433 142.38C73.0027 143.958 75.6854 146.66 78.828 146.856C79.7622 146.914 80.5435 146.726 81.3709 146.275C82.3353 145.75 82.7535 145.533 82.0357 144.638C81.3917 143.836 80.729 143.382 79.8523 142.88C78.9451 142.36 78.302 141.484 77.4452 140.88C75.0835 139.213 73.3918 137.276 71.5081 135.116C70.5768 134.049 69.9234 133.119 69.1343 131.959C68.441 130.94 67.5562 130.193 66.9347 129.082C65.3556 126.26 62.6248 124.122 60.5777 121.646C59.7665 120.665 58.9876 119.694 58.1896 118.708C57.4562 117.802 56.3354 116.746 55.7664 115.712C54.0733 116.126 53.3488 118.327 52.2238 119.468C51.1566 120.551 50.3278 120.51 48.8688 120.483C47.5764 120.46 46.405 120.867 45.1328 120.901C44.2008 120.926 43.3193 120.773 42.409 120.602C41.3488 120.403 39.531 120.495 39.5083 118.896Z" fill="#0091D5" stroke="black" stroke-width="2.37136" stroke-miterlimit="10"/>
<path d="M269.663 241.163L269.993 241.203C270.437 242.725 270.065 244.803 270.244 246.394C270.417 247.917 270.619 249.439 270.776 250.964C270.956 252.712 270.75 254.428 270.832 256.175C270.891 257.41 271.214 258.638 271.181 259.867C271.153 260.939 270.839 261.941 270.922 263.03C271.028 264.406 271.278 265.579 271.264 266.97C271.248 268.469 271.138 269.989 271.287 271.482C271.866 277.291 271.96 283.131 272.348 288.966C272.518 291.527 272.893 294.104 272.854 296.671C272.832 298.082 273.183 299.285 273.254 300.647C275.088 301.184 278.347 300.854 280.044 299.891C282.198 298.668 282.782 295.544 282.798 293.297C282.812 291.267 282.231 289.464 282.583 287.433C282.985 285.113 282.678 282.814 283.178 280.496C283.863 277.325 283.543 274.283 283.212 271.133C282.953 268.67 282.806 265.549 283.576 263.176C283.969 261.964 283.791 260.574 284.422 259.454C284.913 258.581 285.818 258.028 286.539 257.354C287.186 256.748 287.446 256.525 288.162 257.306C289.323 258.572 289.346 260.76 289.917 262.324C290.338 263.479 290.694 264.69 291.17 265.822C292.16 268.176 294.023 270.021 295.065 272.386C296.791 276.302 297.828 280.389 300.072 284.059C300.7 285.085 302.844 289.214 304.255 287.87C306.987 285.27 304.813 279.974 303.938 277.114C303.407 275.375 303.437 273.619 302.789 271.905C301.537 268.592 300.247 265.257 298.708 262.066C297.934 260.46 297.711 259.058 297.459 257.324C297.243 255.834 296.355 254.426 295.734 253.076C294.664 250.753 293.923 248.242 293.9 245.659C293.883 243.742 293.901 241.358 293.225 239.578C292.663 238.098 292.658 235.392 291.471 234.404C289.951 235.969 288.287 237.738 287.317 239.72C286.831 240.714 286.896 240.948 286.049 241.499C285.037 242.156 283.992 242.347 282.789 242.377C282.05 242.395 281.296 242.28 280.561 242.332C278.912 242.448 277.31 242.967 275.651 243.093C274.117 243.208 272.323 243.693 269.663 241.163Z" fill="#0091D5" stroke="black" stroke-width="2.37136" stroke-miterlimit="10"/>
<path d="M24.4032 231.573C24.4032 234.369 24.1924 237.283 24.4916 240.067C24.6936 241.946 24.8069 243.727 24.8021 245.612C24.7963 247.904 25.0082 250.132 25.1603 252.414C25.4285 256.435 25.3855 260.443 25.8093 264.469C26.1231 267.45 25.8381 270.433 26.0816 273.417C26.3442 276.635 26.4069 279.855 26.7012 283.074C26.8705 284.926 27.0294 286.784 27.1765 288.64C27.2756 289.891 27.8358 290.949 28.035 292.162C29.2486 291.698 30.5111 291.715 31.7584 291.192C34.0047 290.25 34.7774 289.092 35.3418 286.656C36.0332 283.673 35.9493 280.688 35.9216 277.65C35.9051 275.838 36.2891 274.106 36.3503 272.307C36.4014 270.803 36.3595 269.349 36.5232 267.848C36.9527 263.908 36.9357 259.814 37.7433 255.929C37.8656 255.34 38.4628 250.796 39.8096 251.577C40.3288 251.878 40.8884 253.911 41.0644 254.378C41.6652 255.973 41.7774 257.627 42.1261 259.281C42.4758 260.941 42.9148 262.537 43.2217 264.211C43.7481 267.083 45.1738 269.7 45.8932 272.518C46.7019 275.684 46.8532 278.995 47.051 282.241C47.3273 286.774 49.2282 293.448 54.2047 294.624C55.9696 295.041 57.5949 295.54 59.0031 294.131C60.4681 292.666 59.7683 289.959 59.7903 288.015C59.8114 286.147 59.4824 284.337 59.3808 282.476C59.2486 280.055 59.2281 277.634 58.5434 275.288C57.8268 272.833 56.5776 270.526 55.9355 268.057C55.4616 266.234 55.5203 264.081 55.3637 262.204C55.0765 258.762 54.2368 255.525 53.4447 252.175C53.1763 251.04 52.9317 249.871 52.7131 248.723C52.5256 247.739 52.6331 246.109 51.6125 245.594C50.5687 245.067 48.9063 245.197 47.7959 245.17C46.1832 245.131 44.4095 244.958 42.8291 244.66C40.3384 244.19 38.4416 242.984 36.433 241.388C33.9989 239.454 31.9108 236.91 29.0493 235.531C28.541 235.286 27.9973 235.177 27.5422 234.926C26.5229 234.363 24.6639 231.761 24.4032 231.573Z" fill="#0091D5" stroke="black" stroke-width="2.37136" stroke-miterlimit="10"/>
<path d="M298.284 116.898C294.574 120.918 292.221 125.823 289.625 130.593C287.001 135.415 284.739 140.374 281.579 144.877C280.71 146.115 279.554 147.491 278.964 148.893C278.775 149.342 278.84 149.871 278.615 150.295C278.494 150.523 278.17 150.737 278.089 150.941C277.805 151.654 277.785 152.675 277.614 153.443C277.402 154.392 277.267 155.375 277.121 156.342C278.243 155.596 279.64 155.41 280.825 154.778C281.883 154.214 283.082 153.418 284.053 152.71C286.677 150.796 288.659 147.95 290.111 145.087C291.266 142.808 292.402 140.745 294.132 138.865C295.374 137.516 296.029 135.674 297.448 134.479C297.541 137.313 296.825 140.262 296.703 143.105C296.584 145.864 295.624 148.316 295.385 151.05C295.192 153.244 295.085 155.468 295.085 157.672C295.085 158.322 294.889 159.526 295.285 160.042C296.038 161.02 297.031 160.1 297.825 159.467C300.817 157.079 302.989 153.13 303.073 149.287C303.158 145.393 302.757 141.471 303.54 137.635C303.757 136.572 304.239 135.884 304.256 134.767C304.268 133.899 304.507 132.891 304.466 132.062C304.398 130.707 303.144 129.563 302.468 128.515C301.509 127.029 300.982 125.175 300.624 123.51C300.213 121.595 299.338 119.627 298.284 116.898Z" fill="#0091D5" stroke="black" stroke-width="2.37136" stroke-miterlimit="10"/>
<path d="M40.6689 73.0405C38.7951 73.7849 37.3811 74.6454 35.2628 74.3369C34.2272 74.186 33.5931 73.336 32.6309 73.081C31.3212 72.7341 31.3387 72.4374 30.5365 71.3576C28.6244 68.7837 27.3849 65.6973 29.4494 62.8094C31.3968 60.0852 34.5921 59.412 37.7072 59.4314C38.6929 59.4375 39.0834 59.2159 40.029 59.4162C40.8469 59.5895 40.8994 60.0541 41.5045 60.6013C42.7576 61.7346 43.8785 63.0493 44.8042 64.5348C45.988 66.4346 45.1161 67.8281 43.7246 69.2349C43.2493 69.7156 42.765 70.3869 42.2686 70.8308C41.9526 71.1134 41.5005 71.1409 41.1846 71.4242C40.8179 71.7531 41.1679 72.8423 40.6689 73.0405Z" fill="#EBEBE9" stroke="black" stroke-width="2.37136" stroke-miterlimit="10"/>
</g>
<defs>
<clipPath id="clip0_167_4220">
<rect width="332" height="359" fill="white"/>
</clipPath>
</defs>
</svg>
