<svg width="184" height="364" viewBox="0 0 184 364" fill="none" xmlns="http://www.w3.org/2000/svg">
<path d="M53.6129 310.685C52.7471 310.996 52.1779 311.461 51.5166 312.002C50.9566 312.459 50.3088 312.92 50.0499 313.531C49.8545 313.993 50.1052 314.514 49.7656 314.941C49.4993 315.275 49.0589 315.577 48.7192 315.867C48.4757 316.074 48.2527 316.291 47.9605 316.46C46.853 317.101 45.5161 317.508 44.4223 318.17C44.1655 318.325 44.0541 318.559 43.8174 318.724C43.6748 318.824 43.514 318.875 43.365 318.968C43.0437 319.167 42.789 319.466 42.5086 319.702C41.9179 320.2 41.1617 320.669 40.732 321.254C40.5274 321.532 40.4005 321.674 40.2775 321.964C40.203 322.14 40.0795 322.345 39.9825 322.51C39.6919 323.003 39.2973 323.418 39.1182 323.953C39.0027 324.298 38.8846 324.647 38.7516 324.982C38.6949 325.125 38.5489 325.237 38.4664 325.37C38.346 325.563 38.296 325.766 38.1768 325.957C37.9152 326.378 37.6274 326.799 37.3732 327.228C36.5603 328.603 35.5664 330.092 34.071 331.096C32.9981 331.816 31.936 332.513 30.8303 333.207C30.26 333.565 29.7352 334.042 29.3139 334.504C28.9299 334.924 28.9218 335.299 28.7987 335.776C28.6391 336.395 28.6828 337.026 28.6828 337.663C28.6828 338.126 28.6315 338.602 28.7168 339.061C28.8097 339.561 28.7804 340.081 28.9867 340.562C29.3046 341.303 29.3942 342.075 29.8156 342.804C30.0336 343.181 30.4155 343.423 30.7895 343.709C31.0614 343.916 31.3518 344.035 31.6719 344.198C32.4024 344.572 33.0536 345.007 33.739 345.427C34.7396 346.039 35.9035 346.523 36.6403 347.346C36.9684 347.713 37.3637 348.002 37.7135 348.353C38.0652 348.707 38.2592 349.059 38.6977 349.363C39.306 349.784 39.7909 350.275 40.4936 350.599C41.1018 350.88 41.6312 351.231 42.2022 351.547C42.4968 351.71 42.8337 351.782 43.1564 351.903C43.4455 352.01 43.6783 352.179 43.924 352.34C44.3185 352.6 44.6566 352.736 45.1015 352.919C45.6288 353.137 46.0492 353.417 46.603 353.61C47.0976 353.782 47.4283 354.061 47.9578 354.185C48.4253 354.295 48.8666 354.531 49.334 354.662C50.1772 354.899 50.9846 355.117 51.7953 355.421C52.3063 355.612 52.7861 355.836 53.2766 356.057C53.7465 356.27 54.2528 356.413 54.7132 356.638C55.9955 357.263 57.3985 357.749 58.8036 358.183C60.1835 358.609 61.5405 359.009 62.953 359.359C63.7925 359.567 64.6172 359.797 65.4317 360.055C66.4921 360.392 67.7085 360.519 68.8368 360.671C71.2099 360.989 73.645 361.075 76.0361 361.289C77.1311 361.387 78.2023 361.515 79.3079 361.5C80.6634 361.481 82.0595 361.571 83.4124 361.63C84.6029 361.682 85.7958 361.868 86.9851 361.852C87.4818 361.846 87.934 361.958 88.4233 361.98C89.5085 362.028 90.6301 361.974 91.716 361.974H95.5449C96.6409 361.974 97.763 362.04 98.8528 361.95C101.67 361.719 104.401 361.209 107.147 360.694C109.686 360.217 112.197 359.666 114.753 359.235C116.192 358.992 117.618 358.658 119.061 358.437C120.187 358.265 121.329 358.124 122.461 357.973C123.221 357.871 123.938 357.669 124.694 357.559C125.611 357.425 126.538 357.282 127.436 357.091C128.48 356.868 129.501 356.657 130.531 356.397C131.239 356.219 131.986 356.136 132.685 355.936C134.561 355.399 136.428 354.764 138.189 354.026C138.717 353.805 139.243 353.579 139.763 353.353C140.174 353.175 140.829 353.03 140.784 352.565C140.834 352.581 141.011 352.619 141.057 352.6C141.47 352.428 141.922 352.374 142.377 352.311C143.401 352.168 144.362 351.998 145.312 351.673C146.612 351.229 147.633 350.482 148.817 349.895C149.585 349.515 150.372 349.264 151.017 348.731C151.32 348.48 151.582 348.217 151.924 347.993C152.391 347.685 152.671 347.302 153.036 346.924C154.162 345.758 154.521 344.332 154.958 342.943C155.108 342.465 155.179 342.08 155.169 341.593C155.158 341.092 155.341 340.588 155.296 340.099C155.26 339.709 155.205 339.324 155.177 338.935C155.16 338.689 155.063 338.304 154.871 338.1C154.731 337.951 154.511 337.849 154.366 337.698C154.191 337.513 154.043 337.299 153.904 337.097C153.64 336.713 153.502 336.294 153.296 335.888C152.999 335.306 152.703 334.742 152.34 334.183C151.936 333.561 151.662 332.909 151.221 332.308C151.118 332.167 151.169 332.133 151.014 331.98C150.889 331.857 150.72 331.786 150.607 331.651C150.457 331.472 150.393 331.239 150.237 331.056C150.103 330.9 149.987 330.749 149.866 330.588C149.68 330.339 149.39 330.182 149.178 329.943C148.23 328.867 146.997 327.973 146.379 326.751C146.069 326.138 145.591 325.591 145.265 324.992C145.087 324.664 144.891 324.462 144.612 324.196C144.31 323.908 144.166 323.599 143.816 323.333C142.626 322.43 141.453 321.558 140.209 320.721C139.803 320.447 139.421 320.148 139.032 319.861C138.724 319.634 138.39 319.467 138.119 319.217C137.49 318.636 136.523 318.245 135.745 317.778C135.367 317.551 135.003 317.286 134.558 317.137C134.13 316.994 133.739 316.736 133.297 316.628C132.023 316.316 130.788 315.861 129.492 315.605C128.106 315.331 126.755 314.926 125.393 314.591C124.717 314.425 124.017 314.343 123.339 314.184C122.5 313.987 121.699 313.709 120.87 313.488C120.001 313.256 119.119 312.945 118.233 312.764C117.287 312.57 116.32 312.411 115.371 312.219C113.396 311.82 111.314 311.856 109.32 311.518C107.243 311.165 105.145 310.998 103.032 310.834C102.049 310.757 101.066 310.672 100.084 310.591C99.1331 310.511 98.1672 310.59 97.2123 310.573C94.2154 310.519 91.1894 310.124 88.2173 309.846C86.6739 309.702 85.1771 309.323 83.6242 309.175C81.2708 308.951 78.7278 308.894 76.4082 309.35C75.6357 309.502 74.9561 309.689 74.2574 309.975C73.7221 310.195 73.2386 310.495 72.6906 310.688C72.4814 310.761 72.3105 310.847 72.1096 310.928C71.8197 311.045 71.5923 311.078 71.2451 311.156C70.5367 311.314 69.9241 311.424 69.1879 311.515C67.8155 311.685 66.4354 311.633 65.0463 311.633C64.2761 311.633 63.4653 311.695 62.7032 311.607C61.8791 311.511 61.0554 311.541 60.2343 311.429C58.7861 311.23 57.3038 311.182 55.8511 311.044C55.4945 311.01 55.197 310.924 54.8353 310.921C54.5301 310.918 54.2242 310.922 53.6129 310.685Z" fill="#594A42" stroke="#231F20" stroke-width="2.16531" stroke-miterlimit="10"/>
<path d="M153.96 226.84C153.921 226.611 153.631 226.466 153.499 226.268C153.326 226.007 153.142 225.731 152.988 225.464C152.035 223.813 151.577 222.08 151.365 220.313C151.108 218.171 151.348 216.017 151.408 213.875C151.426 213.223 151.367 212.574 151.428 211.923C151.474 211.43 151.529 210.952 151.526 210.458C151.52 209.652 151.615 208.868 151.651 208.065C151.716 206.634 151.62 205.198 151.55 203.768C151.455 201.849 151.475 199.927 151.374 198.007C151.31 196.793 151.231 195.565 151.041 194.357C150.858 193.184 150.526 192.028 150.549 190.846C150.563 190.113 150.418 189.392 150.43 188.658C150.437 188.163 150.291 187.681 150.304 187.187C150.316 186.749 150.173 186.329 150.183 185.891C150.195 185.365 150.087 184.825 149.966 184.307C149.863 183.868 149.939 183.388 149.939 182.944C149.939 182.668 149.883 182.362 149.933 182.089C149.989 181.785 150.188 181.54 150.185 181.22C150.181 180.78 150.068 180.366 150.061 179.922C150.058 179.718 150.015 179.619 150.269 179.491C150.48 179.385 150.894 179.263 151.164 179.253C151.82 179.227 151.766 179.624 151.767 179.941C151.767 180.193 151.763 180.444 151.766 180.696C151.77 180.976 151.642 181.213 151.645 181.495C151.648 181.683 151.686 181.891 151.618 182.072C151.559 182.227 151.521 182.332 151.523 182.499C151.527 182.903 151.523 183.308 151.523 183.712C151.523 184.073 151.523 184.435 151.523 184.797C151.523 185.258 151.401 185.681 151.401 186.145C151.401 187.168 151.414 188.193 151.401 189.216C151.398 189.49 151.506 189.734 151.529 190.003C151.554 190.284 151.523 190.574 151.523 190.856C151.523 191.256 151.623 191.631 151.651 192.026C151.685 192.508 151.649 193 151.645 193.482C151.64 194.155 151.761 194.88 152.037 195.527C152.16 195.814 152.249 196.106 152.37 196.397C152.56 196.855 152.838 197.291 152.957 197.764C153.029 198.047 153.11 198.328 153.106 198.615C153.104 198.814 153.081 199.017 153.134 199.212C153.264 199.685 153.229 200.17 153.229 200.662C153.229 200.881 153.208 201.106 153.226 201.325C153.239 201.488 153.341 201.609 153.353 201.77C153.367 201.945 153.353 202.125 153.351 202.299C153.347 202.635 153.465 202.953 153.475 203.288C153.493 203.919 153.472 204.551 153.472 205.181C153.472 205.922 153.594 206.637 153.594 207.377V210.297C153.594 210.654 153.54 210.966 153.483 211.318C153.419 211.715 153.476 212.109 153.567 212.495C153.634 212.778 153.594 213.076 153.594 213.363C153.594 214.173 153.704 214.942 153.717 215.749C153.723 216.071 153.591 216.364 153.595 216.693C153.598 217.083 153.594 217.472 153.594 217.861C153.594 218.333 153.533 218.807 153.683 219.269C153.838 219.743 153.969 220.216 153.961 220.703C153.955 221.089 154.074 221.453 154.084 221.832C154.093 222.131 154.082 222.431 154.082 222.73V224.19C154.082 224.377 154.027 224.61 154.075 224.794C154.128 224.994 154.233 225.197 154.298 225.392C154.398 225.691 154.383 226.153 153.96 226.84Z" fill="#FFA100" stroke="#231F20" stroke-width="2.16531" stroke-miterlimit="10"/>
<path d="M141.284 254.416C141.244 254.39 141.275 254.465 141.284 254.416V254.416Z" fill="#EBEBE9" stroke="#231F20" stroke-width="2.16531" stroke-miterlimit="10"/>
<path d="M158.373 289.368C158.575 289.345 158.758 289.341 158.958 289.324C159.188 289.305 159.399 289.181 159.622 289.13C160.11 289.018 160.445 288.774 160.839 288.48C161.424 288.044 162.031 287.654 162.606 287.201C163.266 286.681 163.909 286.092 164.621 285.642C165.058 285.366 165.468 285.075 165.87 284.747C166.773 284.009 167.69 283.179 168.318 282.19C168.518 281.874 168.619 281.529 168.793 281.204C168.928 280.952 169.077 280.7 169.205 280.453C169.356 280.162 169.417 279.805 169.515 279.497C169.703 278.907 169.903 278.321 170.121 277.741C170.236 277.437 170.34 277.141 170.523 276.87C170.669 276.655 170.676 276.457 170.765 276.208C170.9 275.825 171.083 275.494 171.189 275.095C171.449 274.108 171.608 273.192 171.662 272.164C171.708 271.282 171.681 270.379 171.985 269.536C172.094 269.234 172.211 268.943 172.285 268.629C172.397 268.153 172.484 267.667 172.475 267.177C172.468 266.796 172.483 266.45 172.421 266.071C172.378 265.807 172.333 265.574 172.364 265.306C172.386 265.117 172.406 264.95 172.401 264.76C172.385 264.226 172.34 263.699 172.352 263.163C172.366 262.569 172.449 261.998 172.504 261.407C172.56 260.815 172.775 260.288 172.914 259.716C173.163 258.691 173.362 257.612 173.528 256.57C173.616 256.018 173.618 255.459 173.677 254.904C173.739 254.32 173.785 253.774 173.784 253.186C173.782 252.441 173.802 251.73 173.66 250.993C173.539 250.363 173.285 249.765 173.158 249.133C172.97 248.194 173.064 247.247 172.998 246.295C172.954 245.649 172.878 244.993 172.8 244.35C172.77 244.1 172.729 243.864 172.657 243.62C172.295 242.384 171.637 241.271 171.373 239.996C171.085 238.602 170.972 237.161 170.533 235.803C170.437 235.508 170.427 235.215 170.343 234.922C170.285 234.721 170.184 234.535 170.111 234.339C169.936 233.87 169.837 233.352 169.63 232.898C169.495 232.603 169.324 232.326 169.158 232.048C168.982 231.754 168.848 231.432 168.644 231.157C168.464 230.915 168.27 230.681 168.082 230.444C168.139 230.442 168.195 230.421 168.15 230.377C168.033 230.262 168.011 230.106 167.923 229.975C167.856 229.873 167.766 229.779 167.69 229.683C167.399 229.312 167.119 229.001 166.759 228.695C166.631 228.587 166.543 228.441 166.412 228.34C166.294 228.248 166.154 228.193 166.036 228.099C165.714 227.843 165.302 227.728 164.932 227.539C164.644 227.392 164.425 227.165 164.165 226.976C163.593 226.56 163.025 226.136 162.371 225.852C162.193 225.774 161.992 225.748 161.82 225.662C161.629 225.567 161.47 225.414 161.274 225.314C161.06 225.205 160.855 225.088 160.645 224.973C160.429 224.855 160.297 224.901 160.078 224.859C159.772 224.8 160.289 224.905 159.958 224.927C159.599 224.95 159.928 224.928 159.586 225.054C158.93 225.294 159.472 225.041 158.809 225.256C158.29 225.425 158.088 225.297 157.61 225.528C157.04 225.804 156.83 225.537 156.333 225.932C156.018 226.182 154.79 226.262 154.557 226.614C154.567 226.635 153.731 227.246 153.741 227.267C153.708 227.396 152.871 228.098 152.844 228.222C152.807 228.397 152.487 229.437 152.385 229.555C152.155 229.823 151.715 230.387 151.525 230.69C151.324 231.009 150.769 231.281 150.62 231.626C150.416 232.098 149.883 232.335 149.615 232.779C149.508 232.956 149.38 233.178 149.276 233.356C148.676 234.388 148.421 234.73 147.81 235.756C147.132 236.895 147.466 236.174 146.83 237.338C146.638 237.69 144.954 239.697 144.782 240.057C144.67 240.29 144.484 240.453 144.376 240.692C143.983 241.563 143.547 242.401 143.358 243.346C143.126 244.501 142.968 245.657 142.832 246.829C142.785 247.224 142.688 247.6 142.591 247.985C142.491 248.386 142.463 248.788 142.318 249.182C142.241 249.39 142.169 249.563 142.123 249.779C142.03 250.22 141.869 250.634 141.802 251.082C141.758 251.371 141.687 251.637 141.61 251.918C141.543 252.163 141.545 252.409 141.482 252.652C141.392 252.994 141.351 253.364 141.31 253.718C141.288 253.912 141.299 254.221 141.284 254.416C141.215 254.795 141.112 255.166 140.977 255.528C140.929 255.656 141.108 255.357 141.072 255.482C141.046 255.57 141.013 255.626 140.995 255.712C140.983 255.769 140.995 255.868 140.989 255.931C140.958 256.23 140.865 256.563 140.775 256.843C140.658 257.205 140.602 257.605 140.52 257.98C140.319 258.891 140.341 259.826 140.462 260.748C140.536 261.304 140.571 261.842 140.577 262.4C140.58 262.732 140.648 263.041 140.714 263.363C140.782 263.689 140.792 264.006 140.81 264.337C140.942 266.712 141.263 269.096 141.971 271.367C142.197 272.093 142.521 272.778 142.8 273.477C143.11 274.255 143.336 275.094 143.657 275.881C143.893 276.456 144.129 276.989 144.454 277.523C144.631 277.815 144.832 278.144 145.032 278.42C145.57 279.163 146.036 279.967 146.489 280.767C146.863 281.429 147.438 281.875 147.888 282.448C148.142 282.771 148.396 283.095 148.65 283.418C148.835 283.654 149.007 283.823 149.211 284.009C149.356 284.141 149.55 284.219 149.696 284.35C149.787 284.431 149.87 284.566 149.942 284.666C150.085 284.864 150.124 285.116 150.317 285.285C150.509 285.453 150.657 285.579 150.82 285.788C151.044 286.075 151.27 286.361 151.495 286.648C151.594 286.774 151.687 286.91 151.793 287.03C151.913 287.166 152.064 287.254 152.184 287.392C152.364 287.6 152.497 287.802 152.711 287.963C152.851 288.067 152.976 288.194 153.117 288.303C153.319 288.46 152.504 287.649 152.243 287.42C153.273 287.902 153.997 288.24 154.495 288.47C154.596 288.564 154.729 288.637 154.823 288.692C155.045 288.823 155.297 288.862 155.539 288.939C155.747 289.005 155.963 289.076 156.174 289.134C156.271 289.144 156.369 289.153 156.467 289.161C156.543 289.193 156.614 289.233 156.68 289.283C156.77 289.314 156.863 289.316 156.957 289.326C157.221 289.355 157.485 289.369 157.747 289.39C157.959 289.408 158.152 289.394 158.373 289.368ZM155.035 282.788C154.901 282.763 154.75 282.769 154.621 282.723C154.453 282.664 154.307 282.551 154.137 282.487C153.764 282.347 153.448 282.131 153.098 281.959C152.853 281.838 152.605 281.666 152.403 281.483C151.637 280.79 150.906 279.97 150.353 279.089C150.044 278.597 149.675 278.152 149.379 277.651C149.07 277.129 148.81 276.593 148.535 276.052C148.328 275.643 148.172 275.186 148.032 274.751C147.959 274.522 147.88 274.308 147.831 274.07C147.759 273.719 147.624 273.392 147.546 273.042C147.357 272.196 147.042 271.372 146.897 270.515C146.836 270.154 146.767 269.793 146.706 269.432C146.668 269.21 146.71 268.988 146.696 268.765C146.68 268.498 146.635 268.235 146.594 267.971C146.544 267.649 146.551 267.33 146.512 267.008C146.453 266.513 146.332 266.028 146.319 265.527C146.315 265.337 146.289 265.174 146.257 264.988C146.207 264.695 146.259 264.349 146.286 264.053C146.327 263.6 146.331 263.142 146.357 262.688C146.378 262.336 146.421 261.987 146.446 261.635C146.477 261.188 146.586 260.762 146.639 260.318C146.743 259.451 146.803 258.579 146.905 257.711C146.977 257.105 147.111 256.511 147.18 255.903C147.216 255.59 147.257 255.282 147.321 254.974C147.4 254.599 147.389 254.221 147.466 253.851C147.592 253.236 147.773 252.646 147.913 252.035C148.052 251.426 148.301 250.846 148.427 250.234C148.64 249.195 149.153 248.313 149.526 247.33C149.825 246.543 150.092 245.746 150.457 244.983C150.562 244.765 150.676 244.548 150.769 244.324C150.92 243.962 151.004 243.588 151.177 243.234C151.764 242.029 152.408 240.859 152.926 239.624C153.075 239.267 153.347 238.994 153.58 238.69C153.844 238.348 154.168 238.067 154.453 237.747C154.633 237.546 154.891 237.434 155.068 237.233C155.192 237.091 155.266 236.975 155.424 236.858C156.423 236.119 157.212 235.118 158.204 234.366C158.457 234.174 158.731 234.059 158.98 233.86C159.051 233.803 159.126 233.718 159.206 233.678C159.313 233.623 159.427 233.64 159.714 233.8C159.742 233.352 160.772 233.765 161.019 233.883C161.213 233.975 161.38 234.079 161.575 234.172C161.672 234.217 161.769 234.217 161.854 234.284C161.941 234.352 162.03 234.516 162.096 234.602C162.496 235.115 163.022 235.448 163.499 235.889C163.712 236.087 163.857 236.316 164.08 236.501C164.188 236.591 164.249 236.721 164.353 236.808C164.457 236.896 164.548 236.932 164.636 237.048C164.87 237.353 165.21 237.664 165.39 238.002C165.631 238.453 165.723 238.964 166.054 239.377C166.243 239.612 166.329 239.87 166.521 240.106C166.674 240.295 166.742 240.513 166.85 240.721C166.937 240.89 167.031 241.083 167.067 241.272C167.118 241.532 167.088 241.793 167.134 242.055C167.211 242.482 167.33 242.949 167.324 243.386C167.319 243.658 167.333 243.881 167.385 244.149C167.439 244.424 167.401 244.679 167.436 244.954C167.545 245.802 167.435 246.634 167.503 247.48C167.574 248.369 167.491 249.257 167.521 250.145C167.548 250.952 167.578 251.755 167.591 252.559C167.6 253.108 167.708 253.673 167.683 254.218C167.662 254.695 167.718 255.176 167.652 255.65C167.63 255.807 167.654 255.948 167.645 256.104C167.636 256.268 167.552 256.409 167.537 256.573C167.526 256.69 167.56 256.793 167.561 256.909C167.563 257.146 167.5 257.397 167.47 257.631C167.44 257.869 167.462 258.109 167.434 258.345C167.4 258.621 167.316 258.889 167.284 259.168C167.226 259.665 167.213 260.161 167.131 260.655C166.984 261.54 166.806 262.417 166.702 263.308C166.59 264.261 166.437 265.208 166.328 266.16C166.275 266.628 166.23 267.094 166.19 267.563C166.157 267.945 166.088 268.307 166.079 268.688C166.069 269.058 165.935 269.437 165.891 269.81C165.833 270.317 165.725 270.801 165.592 271.292C165.53 271.523 165.528 271.756 165.493 271.992C165.45 272.285 165.376 272.568 165.307 272.857C165.111 273.68 164.922 274.541 164.813 275.38C164.771 275.702 164.681 275.879 164.56 276.172C164.299 276.805 164.051 277.445 163.777 278.076C163.549 278.604 163.267 279.106 162.928 279.571C162.621 279.994 162.312 280.32 161.94 280.685C161.13 281.479 160.036 282.121 158.97 282.481C158.81 282.535 158.664 282.609 158.507 282.667C158.278 282.752 158.01 282.747 157.77 282.793C157.269 282.889 156.779 282.95 156.266 282.947C155.85 282.945 155.442 282.864 155.035 282.788ZM154.369 288.287C154.371 288.294 154.378 288.3 154.38 288.307C154.361 288.293 154.355 288.285 154.369 288.287Z" fill="#EBEBE9" stroke="#231F20" stroke-width="2.16531" stroke-miterlimit="10"/>
<path d="M149.988 277.948C150.12 277.786 150.271 277.843 150.435 277.79C150.692 277.708 150.997 277.582 151.238 277.459C151.663 277.242 152.089 276.947 152.487 276.684C152.986 276.355 153.488 275.968 153.924 275.558C154.465 275.051 155.003 274.524 155.318 273.868C155.403 273.691 155.458 273.496 155.529 273.313C155.594 273.148 155.691 273.027 155.772 272.868C155.899 272.617 155.987 272.394 156.168 272.165C156.444 271.815 156.624 271.447 156.775 271.012C156.891 270.679 157.067 270.377 157.15 270.043C157.279 269.529 157.49 269.008 157.701 268.519C157.805 268.278 157.902 268.033 158.012 267.795C158.104 267.595 158.251 267.396 158.32 267.187C158.42 266.887 158.436 266.539 158.515 266.229C158.607 265.869 158.623 265.509 158.686 265.144C158.75 264.77 158.837 264.408 158.879 264.029C158.926 263.608 159.028 263.196 159.106 262.782C159.184 262.371 159.199 261.915 159.228 261.494C159.284 260.644 159.433 259.799 159.595 258.964C159.708 258.375 159.771 257.769 159.723 257.171C159.667 256.459 159.574 255.762 159.574 255.044C159.573 254.203 159.463 253.361 159.45 252.518C159.437 251.699 159.439 250.902 159.347 250.084C159.277 249.463 159.1 248.838 158.93 248.239C158.757 247.63 158.652 247 158.515 246.382C158.409 245.9 158.282 245.456 158.215 244.966C158.142 244.429 158.041 243.89 157.92 243.362C157.688 242.347 157.322 241.346 156.892 240.4C156.657 239.884 156.411 239.294 156.079 238.833C155.863 238.532 155.619 238.242 155.387 237.954C155.281 237.822 155.286 237.744 155.223 237.61C155.144 237.442 154.957 237.276 154.842 237.129C155.067 236.972 155.42 236.69 155.633 236.518C155.81 236.375 155.933 236.177 156.107 236.027C156.599 235.603 157.137 235.223 157.649 234.822C157.933 234.598 158.219 234.377 158.503 234.152C158.627 234.053 158.739 233.961 158.877 233.88C159.03 233.803 159.177 233.716 159.318 233.62C159.395 233.556 159.471 233.492 159.548 233.428C159.894 233.249 160.348 233.307 160.693 233.452C161.095 233.62 161.419 234.209 161.678 234.544C161.774 234.669 161.825 234.785 161.995 234.788C162.053 234.789 162.085 234.745 162.141 234.752C162.162 234.755 162.3 234.849 162.317 234.863C162.42 234.945 162.464 235.051 162.557 235.146C162.642 235.233 162.744 235.278 162.836 235.359C162.985 235.491 163.118 235.64 163.276 235.763C163.537 235.968 163.801 236.173 164.058 236.387C164.407 236.677 164.686 237.062 164.969 237.424C165.305 237.852 165.563 238.324 165.907 238.749C166.031 238.903 166.086 239.076 166.174 239.253C166.318 239.542 166.486 239.815 166.638 240.1C166.829 240.457 166.946 240.863 167.11 241.233C167.217 241.472 167.28 241.695 167.297 241.953C167.342 242.645 167.261 243.352 167.326 244.04C167.375 244.552 167.45 245.065 167.552 245.57C167.709 246.353 167.799 247.079 167.724 247.886C167.603 249.194 167.637 250.515 167.799 251.819C167.88 252.474 167.731 253.154 167.831 253.806C167.937 254.494 167.838 255.16 167.686 255.839C167.559 256.404 167.393 256.936 167.343 257.52C167.32 257.78 167.343 258.034 167.309 258.294C167.244 258.774 167.17 259.326 167.21 259.807C167.255 260.336 167.207 260.831 167.177 261.358C167.153 261.76 167.162 262.164 167.115 262.566C167.048 263.134 166.969 263.781 166.758 264.311C166.503 264.952 166.536 265.702 166.453 266.377C166.335 267.344 166.191 268.3 166.049 269.259C166.012 269.506 165.955 269.763 165.887 270.003C165.79 270.35 165.711 270.703 165.601 271.049C165.506 271.345 165.478 271.659 165.38 271.949C165.24 272.366 165.111 272.786 165.008 273.215C164.871 273.788 164.702 274.356 164.57 274.926C164.469 275.359 164.299 275.78 164.141 276.198C164.063 276.401 164.011 276.55 163.995 276.765C163.969 277.098 164.009 277.434 163.984 277.769C163.962 278.064 163.997 278.3 163.886 278.588C163.822 278.756 163.729 278.766 163.616 278.89C163.473 279.049 163.339 279.2 163.189 279.357C162.973 279.583 162.768 279.768 162.518 279.964C162.07 280.316 161.618 280.664 161.173 281.02C160.67 281.423 160.063 281.64 159.438 281.784C158.858 281.918 158.391 282.234 157.874 282.479C157.713 282.556 157.495 282.561 157.321 282.606C157.06 282.672 156.771 282.746 156.505 282.743C155.793 282.735 154.933 282.82 154.308 282.427C153.874 282.155 153.404 281.896 153.078 281.492C152.759 281.096 152.477 280.689 152.101 280.347C151.928 280.189 151.819 279.975 151.643 279.822C151.491 279.69 151.369 279.542 151.217 279.411C150.886 279.124 150.638 278.775 150.366 278.43C150.211 278.231 150.058 278.031 149.899 277.834C149.772 277.676 150.115 278.103 149.988 277.948Z" fill="#231F20" stroke="#231F20" stroke-width="2.16531" stroke-miterlimit="10"/>
<path d="M161.399 225.876C159.693 225.045 157.946 225.277 156.127 225.361C154.135 225.452 152.169 225.621 150.19 225.868C148.488 226.081 146.847 226.486 145.186 226.895C143.508 227.309 141.814 227.647 140.132 228.039C139.125 228.274 138.16 228.679 137.251 229.17C136.951 229.331 136.657 229.479 136.383 229.678C136.217 229.799 136.028 229.843 135.843 229.931C135.021 230.32 134.011 230.559 133.317 231.184C133.13 231.351 133.073 231.515 132.988 231.749C132.827 232.191 132.589 232.597 132.433 233.04C132.381 233.189 132.354 233.351 132.29 233.496C132.169 233.774 131.943 234 131.816 234.279C131.601 234.754 131.469 235.269 131.269 235.752C131.124 236.101 130.948 236.441 130.817 236.796C130.637 237.288 130.536 237.818 130.4 238.324C130.047 239.637 129.809 240.983 129.571 242.321C129.34 243.623 129.22 244.937 128.949 246.234C128.676 247.543 128.533 248.886 128.329 250.208C128.174 251.209 128.045 252.245 128.038 253.258C128.03 254.403 128.073 255.558 128.144 256.706C128.18 257.274 128.246 257.837 128.288 258.404C128.342 259.121 128.33 259.84 128.376 260.556C128.445 261.649 128.531 262.739 128.594 263.829C128.651 264.821 128.694 265.85 128.858 266.832C128.991 267.626 129.107 268.421 129.258 269.214C129.387 269.888 129.467 270.552 129.703 271.202C129.928 271.821 130.094 272.453 130.346 273.066C130.472 273.37 130.586 273.673 130.692 273.984C130.839 274.414 131.043 274.876 131.141 275.316C131.229 275.714 131.299 276.09 131.454 276.471C131.613 276.86 131.671 277.285 131.79 277.688C132.019 278.47 132.308 279.253 132.463 280.053C132.534 280.421 132.688 280.784 132.786 281.147C132.889 281.533 133.045 281.917 133.196 282.286C133.369 282.708 133.442 283.163 133.614 283.589C133.766 283.969 133.956 284.319 134.126 284.686C134.246 284.946 134.373 285.231 134.458 285.501C134.562 285.833 134.774 286.122 134.899 286.453C135.028 286.796 135.192 287.112 135.351 287.441C135.482 287.712 135.543 288.007 135.666 288.278C135.795 288.56 135.961 288.812 136.068 289.107C136.213 289.508 136.429 289.907 136.633 290.284C136.791 290.577 136.922 290.873 137.11 291.149C137.249 291.353 137.359 291.53 137.47 291.758C137.676 292.182 137.93 292.623 138.209 293.005C138.443 293.327 138.598 293.701 138.861 294.003C138.999 294.161 139.157 294.247 139.284 294.421C139.374 294.544 139.423 294.59 139.539 294.655C140.184 295.019 140.984 294.673 141.655 294.542C143.259 294.23 144.842 293.774 146.465 293.561C147.66 293.404 148.786 293.196 149.952 292.882C150.554 292.719 151.137 292.51 151.737 292.356C152.355 292.198 152.967 292.088 153.595 291.968C154.044 291.883 154.48 291.988 154.922 291.914C155.184 291.871 155.452 291.852 155.707 291.764C155.969 291.673 156.24 291.54 156.494 291.425C156.611 291.372 156.689 291.279 156.804 291.229C156.91 291.184 157.041 291.167 157.15 291.125C157.655 290.934 158.131 290.731 158.659 290.59C159.135 290.462 159.578 290.353 159.97 290.031C160.115 289.912 160.189 289.769 160.332 289.652C160.49 289.524 162.73 287.076 162.836 286.91C162.617 286.959 160.453 289.438 160.225 289.436C160.029 289.435 159.82 289.415 159.621 289.407C159.285 289.393 158.916 289.376 158.585 289.447C157.958 289.583 157.329 289.651 156.692 289.75C156.398 289.796 156.117 289.766 155.828 289.81C155.572 289.849 155.353 289.782 155.095 289.78C154.838 289.777 154.619 289.787 154.375 289.67C154.06 289.52 153.71 289.407 153.428 289.199C152.976 288.866 152.544 288.492 152.117 288.127C151.92 287.959 151.692 287.832 151.532 287.63C151.349 287.399 151.186 287.201 150.976 286.999C150.818 286.847 150.659 286.697 150.503 286.542C150.358 286.397 150.224 286.312 150.095 286.137C149.562 285.418 149.014 284.708 148.473 283.993L145.326 279.841C145.172 279.637 145.008 279.438 144.861 279.23C144.699 279.002 144.593 278.748 144.426 278.522C144.169 278.174 144.056 277.762 143.886 277.37C143.663 276.859 143.463 276.278 143.348 275.733C143.198 275.028 143.017 274.356 142.795 273.67C142.755 273.547 142.734 273.377 142.674 273.26C142.631 273.178 142.57 273.12 142.53 273.034C142.441 272.844 142.339 272.662 142.251 272.467C142.193 272.34 142.146 272.217 142.098 272.087C142.008 271.849 141.858 271.655 141.784 271.412C141.605 270.827 141.397 270.245 141.217 269.654C140.847 268.44 140.954 267.19 140.87 265.937C140.765 264.363 140.407 262.81 140.423 261.226C140.427 260.775 140.431 260.324 140.439 259.873C140.445 259.46 140.522 259.049 140.526 258.639C140.535 257.727 140.743 257.355 140.781 256.442C140.814 255.638 141.028 255.102 141.344 254.342C141.457 254.071 141.474 252.856 141.572 252.582C141.749 252.087 141.764 251.521 141.919 251.017C142.066 250.539 142.188 250.216 142.263 249.72C142.343 249.197 142.618 248.817 142.68 248.293C142.727 247.895 143.27 247.865 143.022 246.782C142.91 246.291 143.243 245.3 143.383 244.814C143.5 244.405 143.478 244.355 143.828 243.446C144.063 242.838 144.114 242.165 144.361 241.561C144.493 241.241 144.536 240.87 144.687 240.562C144.745 240.446 144.819 240.402 144.889 240.301C144.962 240.193 144.982 240.067 145.06 239.959C145.205 239.756 145.329 239.538 145.492 239.352C145.665 239.155 145.861 238.983 146.006 238.764C146.183 238.497 146.418 238.301 146.628 238.062C146.828 237.833 147.004 237.608 147.183 237.362C147.626 236.752 148.046 236.098 148.388 235.425C148.581 235.048 148.852 234.628 149.113 234.29C149.454 233.851 149.75 233.33 150.046 232.852C150.31 232.424 150.71 232.061 151.07 231.715C151.278 231.516 151.562 231.361 151.741 231.138C151.831 231.025 151.891 230.904 151.991 230.795C152.21 230.556 152.47 230.282 152.617 229.988C152.726 229.769 152.783 229.505 152.886 229.275C153.007 229.005 153.075 228.741 153.246 228.497C153.528 228.093 153.879 227.717 154.266 227.41C154.639 227.115 155.065 226.724 155.504 226.554C156.081 226.33 156.678 226.196 157.264 225.999C157.726 225.844 158.23 225.708 158.709 225.622C158.894 225.589 159.195 225.569 159.367 225.488C159.431 225.458 159.487 225.376 159.545 225.342C159.666 225.272 159.811 225.231 159.938 225.169C159.986 225.226 160.033 225.277 160.085 225.328L160.147 225.298" fill="#A3A3A3"/>
<path d="M161.399 225.876C159.693 225.045 157.946 225.277 156.127 225.361C154.135 225.452 152.169 225.621 150.19 225.868C148.488 226.081 146.847 226.486 145.186 226.895C143.508 227.309 141.814 227.647 140.132 228.039C139.125 228.274 138.16 228.679 137.251 229.17C136.951 229.331 136.657 229.479 136.383 229.678C136.217 229.799 136.028 229.843 135.843 229.931C135.021 230.32 134.011 230.559 133.317 231.184C133.13 231.351 133.073 231.515 132.988 231.749C132.827 232.191 132.589 232.597 132.433 233.04C132.381 233.189 132.354 233.351 132.29 233.496C132.169 233.774 131.943 234 131.816 234.279C131.601 234.754 131.469 235.269 131.269 235.752C131.124 236.101 130.948 236.441 130.817 236.796C130.637 237.288 130.536 237.818 130.4 238.324C130.047 239.637 129.809 240.983 129.571 242.321C129.34 243.623 129.22 244.937 128.949 246.234C128.676 247.543 128.533 248.886 128.329 250.208C128.174 251.209 128.045 252.245 128.038 253.258C128.03 254.403 128.073 255.558 128.144 256.706C128.18 257.274 128.246 257.837 128.288 258.404C128.342 259.121 128.33 259.84 128.376 260.556C128.445 261.649 128.531 262.739 128.594 263.829C128.651 264.821 128.694 265.85 128.858 266.832C128.991 267.626 129.107 268.421 129.258 269.214C129.387 269.888 129.467 270.552 129.703 271.202C129.928 271.821 130.094 272.453 130.346 273.066C130.472 273.37 130.586 273.673 130.692 273.984C130.839 274.414 131.043 274.876 131.141 275.316C131.229 275.714 131.299 276.09 131.454 276.471C131.613 276.86 131.671 277.285 131.79 277.688C132.019 278.47 132.308 279.253 132.463 280.053C132.534 280.421 132.688 280.784 132.786 281.147C132.889 281.533 133.045 281.917 133.196 282.286C133.369 282.708 133.442 283.163 133.614 283.589C133.766 283.969 133.956 284.319 134.126 284.686C134.246 284.946 134.373 285.231 134.458 285.501C134.562 285.833 134.774 286.122 134.899 286.453C135.028 286.796 135.192 287.112 135.351 287.441C135.482 287.712 135.543 288.007 135.666 288.278C135.795 288.56 135.961 288.812 136.068 289.107C136.213 289.508 136.429 289.907 136.633 290.284C136.791 290.577 136.922 290.873 137.11 291.149C137.249 291.353 137.359 291.53 137.47 291.758C137.676 292.182 137.93 292.623 138.209 293.005C138.443 293.327 138.598 293.701 138.861 294.003C138.999 294.161 139.157 294.247 139.284 294.421C139.374 294.544 139.423 294.59 139.539 294.655C140.184 295.019 140.984 294.673 141.655 294.542C143.259 294.23 144.842 293.774 146.465 293.561C147.66 293.404 148.786 293.196 149.952 292.882C150.554 292.719 151.137 292.51 151.737 292.356C152.355 292.198 152.967 292.088 153.595 291.968C154.044 291.883 154.48 291.988 154.922 291.914C155.184 291.871 155.452 291.852 155.707 291.764C155.969 291.673 156.24 291.54 156.494 291.425C156.611 291.372 156.689 291.279 156.804 291.229C156.91 291.184 157.041 291.167 157.15 291.125C157.655 290.934 158.131 290.731 158.659 290.589C159.135 290.462 159.578 290.353 159.97 290.031C160.115 289.912 160.189 289.769 160.332 289.652C160.49 289.524 162.73 287.076 162.836 286.91C162.617 286.959 160.453 289.438 160.225 289.436C160.029 289.435 159.82 289.415 159.621 289.407C159.285 289.393 158.916 289.376 158.585 289.447C157.958 289.583 157.329 289.651 156.692 289.75C156.398 289.796 156.117 289.766 155.828 289.81C155.572 289.849 155.353 289.782 155.095 289.78C154.838 289.777 154.619 289.787 154.375 289.67C154.06 289.52 153.71 289.407 153.428 289.199C152.976 288.866 152.544 288.492 152.117 288.127C151.92 287.959 151.692 287.832 151.532 287.63C151.349 287.399 151.186 287.201 150.976 286.999C150.818 286.847 150.659 286.697 150.503 286.542C150.358 286.397 150.224 286.312 150.095 286.137C149.562 285.418 149.014 284.708 148.473 283.993L145.326 279.841C145.172 279.637 145.008 279.438 144.861 279.23C144.699 279.002 144.593 278.748 144.426 278.522C144.169 278.174 144.056 277.762 143.886 277.37C143.663 276.859 143.463 276.278 143.348 275.733C143.198 275.028 143.017 274.356 142.795 273.67C142.755 273.547 142.734 273.377 142.674 273.26C142.631 273.178 142.57 273.12 142.53 273.034C142.441 272.844 142.339 272.662 142.251 272.467C142.193 272.34 142.146 272.217 142.098 272.087C142.008 271.849 141.858 271.655 141.784 271.412C141.605 270.827 141.397 270.245 141.217 269.654C140.847 268.44 140.954 267.19 140.87 265.937C140.765 264.363 140.407 262.81 140.423 261.226C140.427 260.775 140.431 260.324 140.439 259.873C140.445 259.46 140.522 259.049 140.526 258.639C140.535 257.727 140.743 257.355 140.781 256.442C140.814 255.638 141.028 255.102 141.344 254.342C141.457 254.071 141.474 252.856 141.572 252.582C141.749 252.087 141.764 251.521 141.919 251.017C142.066 250.539 142.188 250.216 142.263 249.72C142.343 249.197 142.618 248.817 142.68 248.293C142.727 247.895 143.27 247.865 143.022 246.782C142.91 246.291 143.243 245.3 143.383 244.814C143.5 244.405 143.478 244.355 143.828 243.446C144.063 242.838 144.114 242.165 144.361 241.561C144.493 241.241 144.536 240.87 144.687 240.562C144.745 240.446 144.819 240.402 144.889 240.301C144.962 240.193 144.982 240.067 145.06 239.959C145.205 239.756 145.329 239.538 145.492 239.352C145.665 239.155 145.861 238.983 146.006 238.764C146.183 238.497 146.418 238.301 146.628 238.062C146.828 237.833 147.004 237.608 147.183 237.362C147.626 236.752 148.046 236.098 148.388 235.425C148.581 235.048 148.852 234.628 149.113 234.29C149.454 233.851 149.75 233.33 150.046 232.852C150.31 232.424 150.71 232.061 151.07 231.715C151.278 231.516 151.562 231.361 151.741 231.138C151.831 231.025 151.891 230.904 151.991 230.795C152.21 230.556 152.47 230.282 152.617 229.988C152.726 229.769 152.783 229.505 152.886 229.275C153.007 229.005 153.075 228.741 153.246 228.497C153.528 228.093 153.879 227.717 154.266 227.41C154.639 227.115 155.065 226.724 155.504 226.554C156.081 226.33 156.678 226.196 157.264 225.999C157.726 225.844 158.23 225.708 158.709 225.622C158.894 225.589 159.195 225.569 159.367 225.488C159.431 225.458 159.487 225.376 159.545 225.342C159.666 225.272 159.811 225.231 159.938 225.169C159.986 225.226 160.033 225.277 160.085 225.328L160.147 225.298" stroke="#231F20" stroke-width="2.16531" stroke-miterlimit="10"/>
<path d="M142.807 232.131C141.636 232.956 140.471 233.798 139.429 234.785C139.666 234.561 138.832 235.505 138.689 235.566C138.567 235.618 138.051 235.542 137.95 235.462C137.806 235.35 137.853 234.927 137.846 234.805C137.81 234.173 137.786 233.541 137.819 232.907C137.841 232.478 137.898 232.046 137.882 231.616C137.871 231.3 137.765 230.973 137.805 230.658" stroke="#231F20" stroke-width="2.16531" stroke-miterlimit="10"/>
<path d="M139.453 240.469C139.236 240.7 139.202 240.994 139.02 241.234C138.791 241.537 138.409 241.715 138.143 241.987C137.786 242.351 137.599 242.861 137.242 243.24C136.953 243.547 136.678 243.569 136.37 243.787C136.013 244.04 135.665 244.304 135.296 244.545C135.066 244.696 134.568 244.973 134.29 244.728C134.109 244.569 134.188 244.235 134.199 244.008C134.243 243.106 134.471 242.226 134.504 241.324C134.504 241.022 134.401 240.825 134.397 240.523C134.396 240.404 134.395 240.304 134.42 240.19C134.439 240.098 134.547 240.105 134.501 239.955" stroke="#231F20" stroke-width="2.16531" stroke-miterlimit="10"/>
<path d="M136.632 249.957L136.76 250C136.642 250.233 136.446 250.452 136.277 250.651C135.83 251.178 135.458 251.767 135.015 252.3C134.599 252.798 134.159 253.283 133.705 253.745C133.539 253.914 133.368 254.066 133.184 254.214C133.101 254.281 132.954 254.455 132.847 254.48C132.568 254.545 132.563 254.227 132.489 253.993C132.388 253.672 132.457 253.352 132.402 253.021C132.315 252.487 132.318 251.986 132.317 251.442C132.322 251.073 132.32 250.646 132.315 250.283C132.31 249.897 132.312 249.511 132.311 249.124" stroke="#231F20" stroke-width="2.16531" stroke-miterlimit="10"/>
<path d="M136.544 257.014C136.042 257.786 135.816 258.671 135.39 259.47C135.146 259.927 134.932 260.393 134.716 260.864C134.529 261.27 134.295 261.771 134.018 262.12C133.666 262.564 132.492 263.37 132.213 262.491C132.071 262.047 132.131 261.566 132.13 261.104C132.128 260.587 132.127 260.07 132.126 259.553C132.125 259.207 131.913 259.389 131.914 259.043C131.915 258.938 131.938 258.808 131.919 258.706C131.898 258.595 131.798 258.568 131.802 258.435C131.81 258.703 131.812 258.97 131.809 259.238" stroke="#231F20" stroke-width="2.16531" stroke-miterlimit="10"/>
<path d="M137.095 267.02C136.815 267.794 136.282 268.518 136.066 269.311C135.971 269.664 135.982 270.061 135.921 270.42C135.87 270.719 135.796 271.064 135.718 271.355C135.646 271.622 135.565 272 135.427 272.244C135.275 272.513 135.126 272.409 134.947 272.249C134.425 271.779 134.169 271.1 133.785 270.535C133.408 269.979 133.161 269.338 132.867 268.738C133.196 269.747 133.52 270.757 133.841 271.768" stroke="#231F20" stroke-width="2.16531" stroke-miterlimit="10"/>
<path d="M139.434 276.179C139.437 277.158 139.361 278.106 139.24 279.07C139.176 279.575 139.234 280.12 139.235 280.632C139.235 280.877 139.368 281.356 139.027 281.351C138.678 281.345 138.238 280.811 138.023 280.606C137.619 280.221 137.259 279.784 136.825 279.443C136.607 279.272 136.161 278.303 135.858 278.4" stroke="#231F20" stroke-width="2.16531" stroke-miterlimit="10"/>
<path d="M143.56 283.226C143.563 284.48 143.558 285.733 143.572 286.986C143.578 287.55 143.473 288.098 143.463 288.659C143.459 288.83 143.505 289.032 143.456 289.196C143.081 289.088 142.658 288.742 142.388 288.47C142.055 288.133 141.675 287.827 141.302 287.55C141.078 287.383 140.851 287.236 140.62 287.079C140.41 286.938 140.229 286.685 139.987 286.606" stroke="#231F20" stroke-width="2.16531" stroke-miterlimit="10"/>
<path d="M144.321 292.705C144.882 292.65 145.473 292.84 146.032 292.89C146.566 292.939 147.107 292.909 147.642 292.908C148.08 292.906 148.836 293.431 149.273 293.43C149.229 293.229 148.918 292.972 148.797 292.799C148.629 292.559 148.591 292.28 148.483 292.01C148.352 291.686 148.135 291.42 147.975 291.118C147.754 290.704 147.409 290.121 147.473 289.642" stroke="#231F20" stroke-width="2.16531" stroke-miterlimit="10"/>
<path d="M140.627 227.641C140.616 227.784 140.703 228.078 140.753 228.204C140.889 228.549 141.033 228.893 141.173 229.237C141.245 229.415 141.318 229.813 141.578 229.719C141.693 229.676 141.811 229.518 141.899 229.447C142.023 229.347 142.159 229.266 142.28 229.163C142.661 228.835 143.022 228.545 143.453 228.278C143.651 228.155 143.903 228.037 144.074 227.88C144.15 227.81 144.181 227.729 144.245 227.653C144.346 227.532 144.685 227.287 144.855 227.308C144.93 227.139 144.93 226.961 144.856 226.774" stroke="#231F20" stroke-width="2.16531" stroke-miterlimit="10"/>
<path d="M159.839 242.663C160.568 243.682 161.291 244.706 162.029 245.718C162.361 246.174 162.594 246.681 162.911 247.144C163.007 247.286 163.162 247.424 163.217 247.586C162.849 247.715 162.303 247.679 161.926 247.614C161.459 247.533 160.973 247.504 160.507 247.494C160.228 247.489 159.958 247.5 159.679 247.507C159.426 247.513 159.131 247.412 158.889 247.488" stroke="#231F20" stroke-width="2.16531" stroke-miterlimit="10"/>
<path d="M146.483 226.406C146.66 226.434 146.916 226.295 147.082 226.254C147.317 226.196 147.55 226.132 147.787 226.081C148.628 225.901 149.48 225.632 150.339 225.557C151.28 225.474 152.2 225.646 153.133 225.747C154.117 225.853 155.11 226.005 156.03 226.385C156.508 226.583 157.021 226.656 157.364 227.086C157.493 227.248 157.541 227.476 157.636 227.662C157.821 228.023 158.044 228.395 158.194 228.77C158.308 229.054 158.486 229.25 158.497 229.551C158.504 229.725 158.581 229.862 158.589 230.042C158.598 230.254 158.588 230.469 158.588 230.681C158.59 231.245 158.587 231.81 158.594 232.374C158.6 232.838 158.495 233.298 158.424 233.748C158.343 234.263 158.11 234.667 157.937 235.149C157.776 235.594 157.533 236.002 157.316 236.42C157.237 236.571 157.131 236.698 157.06 236.845C156.991 236.986 156.914 237.129 156.838 237.275C156.746 237.452 156.582 237.566 156.461 237.724C156.336 237.886 156.218 238.056 156.1 238.22C155.739 238.724 155.247 238.959 154.709 239.178C154.472 239.274 154.182 239.382 153.935 239.42C153.695 239.456 153.377 239.197 153.204 239.422C153.131 239.516 153.126 239.704 153.12 239.814C153.112 239.965 153.16 240.024 153.189 240.133C153.256 240.392 153.305 240.465 153.552 240.585C153.744 240.679 153.945 240.79 154.153 240.865C154.306 240.92 154.433 240.956 154.582 241.033C154.746 241.117 154.844 241.107 155.011 241.134C155.141 241.156 155.234 241.223 155.372 241.228C155.616 241.237 155.792 241.129 156.021 241.07C156.495 240.947 156.88 240.8 157.309 240.552C158.188 240.043 159.023 239.249 159.546 238.373C160.045 237.538 160.604 236.823 160.92 235.886C161.047 235.511 161.139 235.12 161.284 234.752C161.349 234.586 161.459 234.422 161.503 234.25C161.568 233.989 161.599 233.67 161.599 233.403C161.598 232.289 161.629 231.168 161.592 230.055C161.574 229.503 161.471 228.951 161.295 228.429C161.198 228.139 161.123 227.86 160.965 227.591C160.797 227.304 160.543 227.078 160.399 226.778C160.282 226.533 160.111 226.362 159.95 226.137C159.791 225.917 159.617 225.694 159.412 225.513C158.959 225.112 158.411 225.021 157.845 224.871C157.084 224.67 156.34 224.494 155.551 224.497C154.783 224.5 154.021 224.451 153.255 224.421C153.048 224.413 152.858 224.36 152.655 224.34C152.4 224.315 152.14 224.333 151.883 224.335C151.494 224.336 151.105 224.336 150.716 224.337C150.311 224.339 149.925 224.39 149.548 224.534C149.125 224.695 148.746 224.923 148.348 225.134C148.072 225.281 147.79 225.504 147.504 225.619C147.405 225.66 147.303 225.664 147.207 225.716C147.105 225.77 147.037 225.89 146.483 226.406Z" fill="#FFA100" stroke="#231F20" stroke-width="2.16531" stroke-miterlimit="10"/>
<path d="M2.12737 78.4045C2.38029 77.9089 2.95498 77.5211 3.27554 77.0939C4.18299 75.8844 2.64234 75.7755 2.74655 74.6344C2.80688 73.9738 3.37792 73.4217 3.73505 72.9981C4.4426 72.1601 5.10078 71.1344 5.31712 69.949C5.48472 69.2841 5.33784 68.7594 4.87589 68.3744C4.68027 68.3151 4.56874 68.1846 4.54131 67.9827C4.43039 67.6279 4.70343 67.1525 4.82225 66.8857C5.46459 65.4445 5.07273 63.8255 3.74965 63.1866C3.76367 62.747 4.07997 62.3404 4.29388 61.9944C4.08545 61.5158 3.49858 61.4644 3.25297 60.9694C2.9513 60.3613 3.26028 59.7049 3.66982 59.266C3.9855 58.9276 5.73457 58.0693 5.42436 57.2838C5.23301 56.8002 4.3152 56.8669 3.94222 56.8119C3.94526 56.3659 4.71315 55.7443 4.89476 55.568C5.38596 55.0897 5.92591 54.6409 6.32204 54.0448C6.70477 53.4687 6.87906 52.8605 6.41467 52.4554C6.18431 52.2542 5.8735 52.35 5.6346 52.1648C6.88089 51.1128 8.49771 49.8565 9.3631 48.41C9.55446 48.2375 9.64466 48.0222 9.63429 47.7635C9.69645 47.5819 9.65135 47.4414 9.4996 47.3424C9.48193 47.1121 9.47827 47.0869 9.58188 46.8577C9.84698 46.2709 10.8166 45.9023 11.2267 45.4169C11.7539 44.7939 12.0129 43.8856 11.9221 43.0007C11.8471 42.2656 11.3687 41.6333 10.8123 41.347C10.5551 41.215 10.2413 41.2033 10.0359 40.9741C10.0706 40.5122 10.8928 40.4341 11.1694 40.3674C12.0172 40.162 12.9593 40.1162 13.779 39.7742C14.4665 39.4875 14.1246 39.0015 13.7815 38.4685C13.3396 38.1535 13.1239 37.7238 13.1355 37.1796C12.9801 36.7158 13.1294 36.3763 13.5846 36.1606C15.0631 34.4799 17.7598 34.1673 19.6479 33.7767C24.5014 32.773 29.4749 32.0737 34.4028 31.8161C34.9159 31.7895 35.515 31.881 36.0031 31.6625C35.8709 31.4425 35.526 31.3996 35.3279 31.2843C34.8934 29.7519 38.5938 29.6252 39.1045 29.5536C42.6197 29.06 46.3117 28.5463 49.8476 29.0277C49.9463 28.7727 49.332 27.9928 49.204 27.7767C48.9767 27.3939 48.1375 26.3196 48.4252 25.7257C50.3546 25.4351 52.2761 25.6196 54.2093 25.7931C54.9186 25.8537 55.6268 25.9226 56.3343 25.9995C56.736 26.1894 57.0632 26.1273 57.3161 25.8136C57.2655 25.5227 57.0657 25.4553 57.112 25.1707C57.1918 24.6861 57.744 24.3636 58.0767 24.1546C59.4315 23.3059 60.9496 23.4723 62.3567 22.9022C62.4329 22.5158 61.9064 22.0514 61.9131 21.5639C62.996 20.6748 65.1382 21.0136 66.4332 21.0778C66.7403 21.0931 72.2697 14.6943 72.3026 14.0763C72.352 13.1566 75.5582 10.1398 75.8641 9.04737C76.4303 7.02965 78.8254 7.74882 80.1856 7.77046C81.2028 7.80381 82.2193 7.79564 83.2364 7.74598C83.646 7.86696 83.9501 7.74917 84.1487 7.39259C84.0592 7.08996 84.0988 6.81321 84.2676 6.56308C84.6393 6.40768 85.0214 6.33459 85.4145 6.34453C85.9344 6.28314 86.4524 6.31756 86.9686 6.44812C87.5951 6.61275 88.2124 6.8164 88.82 7.05837C89.4812 6.9679 89.0449 6.49212 89.3246 5.829C89.8128 4.67201 90.6916 4.6188 91.7099 4.71032C92.5217 4.82138 93.3298 4.96436 94.1337 5.13963C94.3323 5.24287 94.5267 5.2521 94.7163 5.16659C94.6882 4.45025 94.8979 3.94998 95.3988 3.5441C96.0911 2.91079 96.9169 2.63086 97.8768 2.7043C99.1883 2.53187 100.5 2.3598 101.812 2.18772C103.665 2.016 106.928 1.57818 108.643 3.16269C108.859 3.36209 109.109 4.15045 109.38 4.26362C109.603 4.35623 111.868 3.43908 112.57 3.43588C113.925 3.19036 115.221 3.54587 116.46 4.5024C120.551 6.32357 124.275 9.3954 127.85 12.2785C128.627 12.9033 129.406 13.5284 130.184 14.1532C130.537 14.8085 130.964 15.0686 131.464 14.9334C131.627 14.5424 131.64 14.0486 131.456 13.6636C131.96 13.2921 135.335 15.196 135.513 15.279C138.122 16.4959 140.729 17.7122 143.226 19.2162C145.462 20.563 147.557 22.1904 149.478 24.0907C149.507 24.1191 151.557 24.6768 151.838 24.7879C152.893 25.2044 153.886 26.0205 154.776 26.7744C155.608 27.4783 156.529 28.3862 157.009 29.4858C157.045 29.567 160.365 35.5045 160.638 36.4948C161.537 39.7458 164.342 37.0145 165.655 39.4229C166.054 40.1559 166.284 40.9528 166.344 41.8135C166.567 42.8871 166.659 43.9792 166.621 45.0894C166.63 45.9749 166.681 47.2742 166.465 48.1935C166.66 47.4658 167.023 47.5172 167.518 47.8231C169.501 49.0489 170.356 51.9561 171.29 54.1676C171.618 53.9717 171.784 53.3905 171.895 53.0123C172.874 52.8119 174.385 54.0008 175.237 54.528C176.59 55.3657 177.978 56.5163 178.844 58.0348C179.489 59.1652 179.047 59.95 179.231 61.179C179.328 61.8269 179.386 61.8862 179.8 62.1331C179.885 62.7171 179.455 63.3781 179.247 63.8872C178.708 65.2074 178.155 66.5787 177.752 67.966C177.623 68.4112 177.665 69.2571 177.376 69.6151C177.039 70.0305 176.647 70.3222 177.048 70.5301C177.919 70.9814 178.369 72.0309 178.757 72.9909C179.447 74.7011 179.568 76.2973 179.32 78.1334C179.228 78.8217 179.076 79.3596 179.196 80.0422C179.963 80.237 180.229 80.6638 180.475 81.599C180.825 82.9267 180.857 84.4115 180.68 85.7896C180.647 86.0422 180.589 86.2893 180.51 86.5277C180.083 87.8236 179.555 89.0604 178.926 90.238C178.546 91.0217 178.16 91.8023 177.769 92.5793C177.431 93.2562 177.057 93.9271 176.792 94.6499C178.067 94.7577 179.032 95.5645 179.76 96.8173C180.291 97.7323 180.225 98.7425 180.048 99.7887C179.948 100.374 179.572 100.928 179.511 101.506C180.078 101.504 180.069 101.079 180.506 101.76C181.723 103.658 181.787 106.685 181.634 108.892C181.543 110.625 181.167 112.268 180.506 113.823C180.052 115.095 179.491 116.297 178.824 117.43C178.485 117.909 178.073 118.282 177.588 118.549C177.121 118.581 178.574 118.806 179.138 119.774C179.557 120.494 179.518 121.543 179.701 122.365C179.829 122.941 179.875 123.525 180.402 123.688C180.878 123.835 181.403 123.556 181.901 123.774C182.09 125.033 181.851 126.382 181.689 127.643C181.429 129.678 180.826 131.739 179.927 133.522C178.825 135.708 176.546 137.063 177.381 137.682C178.103 138.217 178.015 138.841 177.791 139.663C177.645 140.2 176.53 141.83 177.036 142.272C177.442 142.304 177.835 142.398 178.218 142.556C178.392 142.87 178.381 143.176 178.185 143.473C177.615 145.134 176.29 146.236 175.144 147.335C174.01 148.423 174.703 147.708 174.412 148.527C174.23 149.042 173.399 154.887 172.976 155.466C172.42 156.226 171.818 156.926 171.213 157.63C171.033 157.84 170.478 158.665 170.1 158.764C169.734 158.861 169.315 158.623 168.947 158.742C168.465 158.9 167.835 159.71 167.519 160.169C167.101 160.779 167.263 160.945 167.526 161.59C167.932 162.585 167.745 163.186 167.115 164.037C166.57 164.773 164.535 166.884 164.055 167.225C163.647 166.786 163.143 166.273 162.901 165.679C162.428 166.746 161.371 167.641 160.553 168.362C159.972 168.875 159.314 169.249 158.73 169.746C158.165 170.225 158.632 169.765 158.325 170.334C157.296 172.245 156.149 174.043 154.745 175.603C154.485 175.892 154.3 176.167 154.099 176.509C153.539 177.462 152.885 178.228 152.089 178.928C150.717 180.136 149.173 180.442 147.494 180.532C146.497 180.586 144.861 180.87 143.933 180.434C143.823 180.383 143.493 180.128 143.378 180.134C143.117 180.15 142.826 181.005 142.706 181.206C142.286 181.916 141.492 183.724 140.54 183.353C140.029 183.153 138.647 183.39 137.851 183.55C137.47 183.627 137.117 183.807 136.795 184.058C134.094 186.16 130.621 187.021 127.41 186.92C125.616 186.864 123.946 186.338 122.308 185.515C121.608 185.162 121.342 184.81 120.783 184.344C120.247 183.898 119.387 184.022 118.769 184.123C118.166 184.228 117.594 184.443 117.054 184.767C116.895 184.901 116.726 185.017 116.55 185.115C116.141 184.931 115.75 184.704 115.376 184.434C114.797 184.057 114.234 183.649 113.688 183.209C113.522 183.078 113.362 182.929 113.207 182.771C112.549 182.104 111.669 181.795 110.818 182.019C110.813 182.02 110.809 182.022 110.804 182.023C109.521 182.366 108.58 182.56 107.194 182.122C106.714 181.971 106.271 181.67 105.922 181.258C105.555 180.826 105.228 180.424 104.912 179.953C104.75 179.712 104.392 178.943 104.087 178.911C103.95 178.896 103.679 179.087 103.518 179.133C103.119 179.248 102.552 179.142 102.26 178.813C102.101 178.488 101.983 178.144 101.903 177.781C101.682 177.276 101.352 176.89 100.934 176.597C100.405 180.04 100.745 183.834 100.745 187.241C100.745 197.322 100.825 207.408 100.728 217.488C100.694 221.078 101.368 224.429 101.522 227.971C101.657 231.067 101.484 234.229 101.484 237.331C101.484 242.005 101.484 246.678 101.484 251.351C101.484 256.953 101.335 262.588 101.467 268.188C101.53 270.846 102.12 273.325 102.261 275.964C102.405 278.654 102.217 281.437 102.24 284.133C102.263 286.831 101.571 289.122 101.446 291.778C101.296 294.946 101.591 298.209 101.439 301.343C101.298 304.259 101.219 307.182 101.409 310.095C101.769 315.595 100.699 320.847 100.742 326.325C100.762 328.739 90.1486 337.046 84.977 335.136C84.1738 334.84 82.9362 334.023 82.1371 333.237C81.8603 332.965 81.643 332.627 81.4812 332.25C81.2914 331.807 81.1004 331.365 80.9084 330.923C80.7841 330.424 80.9334 330.089 81.3564 329.919C81.3807 329.622 81.4249 329.339 81.4813 329.065C81.8977 327.036 82.2729 323.681 82.2744 321.596C82.2776 316.926 82.2741 312.258 82.2741 307.589C82.2741 298.648 82.2741 312.362 82.2741 280.767C82.2741 272.274 81.8104 263.576 82.2364 255.105C82.4271 251.305 82.8921 247.686 82.9921 243.834C83.1253 238.678 83.9413 233.839 83.7366 228.543C83.4764 221.81 83.507 215.071 83.9831 208.355C84.3551 203.105 84.5195 197.991 84.4705 192.695C84.4327 188.655 85.1598 184.786 85.2677 180.757C85.3055 179.345 85.3175 177.929 85.3162 176.513C85.3148 175.118 84.5184 173.893 83.3706 173.494C83.3509 173.488 83.3312 173.481 83.3116 173.474C82.6834 173.249 82.0197 173.326 81.4127 173.619C80.6611 173.981 79.4959 173.93 79.0082 173.825C78.4975 173.714 78.024 173.449 77.5279 173.299C76.3919 172.957 74.9927 173.173 73.9384 172.499C73.5331 172.24 73.4277 171.928 73.1626 171.565C72.884 171.184 72.1948 171.14 71.7773 171.015C70.7657 170.709 69.6723 170.346 68.8319 169.58C68.6893 169.45 68.2518 168.949 68.1451 168.572C67.1067 168.114 65.7476 167.281 65.5087 165.946C65.538 166.234 65.5386 166.558 65.435 166.829C64.8042 166.747 64.0668 165.889 63.7042 165.384C63.3867 164.942 60.5864 165.789 59.0354 165.083C57.4734 164.373 53.1714 163.321 52.3462 162.822C51.0506 162.038 50.2388 160.742 49.6885 159.259C49.2728 158.139 48.3123 157.384 47.2643 157.384C47.0682 157.384 46.8478 157.345 46.6012 157.26C45.3701 156.835 44.2238 155.591 43.3358 154.58C43.3462 154.591 42.0274 153.009 41.953 153.172C41.5953 153.957 36.3633 150.48 36.2098 150.185C35.8916 149.572 35.8581 149.411 35.2621 149.135C34.5094 148.786 32.3923 147.366 32.0266 146.928C31.764 146.613 31.2276 146.291 31.0698 145.898C30.9796 145.673 31.0662 145.482 31.0399 145.257C30.9875 144.806 30.8224 144.37 30.8492 143.925C30.6755 146.755 26.3004 142.222 25.872 141.863C23.3361 139.731 20.9496 137.313 19.1877 134.275C19.6003 133.714 20.7613 134.189 21.3104 134.24C21.3643 133.528 20.0665 131.464 20.0658 130.261C20.0654 129.37 19.756 128.529 19.1917 127.928C15.6782 124.184 10.0139 118.178 9.8336 118.04C9.92745 117.497 10.2565 116.814 10.3992 116.607C10.6752 116.207 11.1353 115.795 11.2767 115.295C11.3681 114.972 11.6168 113.762 11.8593 113.42C12.1799 112.968 12.2281 112.423 12.2476 111.854C12.3097 110.033 11.0019 108.288 9.8787 107.262C9.46368 106.883 8.71835 106.521 8.39473 106.029C7.86087 105.217 8.8128 103.991 9.05047 103.224C9.34971 102.26 9.10471 101.07 8.55683 100.312C8.40752 99.9672 8.1668 99.777 7.83466 99.7415C7.77006 99.7231 7.70547 99.7046 7.64086 99.6865C7.42268 99.4162 7.53421 99.1451 7.56774 98.8347C7.69145 97.683 8.18814 96.6956 8.13695 95.4889C8.09916 94.6094 7.89378 93.518 7.47388 92.7896C7.24595 92.3955 6.93271 92.101 6.70478 91.7079C7.33432 90.635 11.1 87.5571 9.67027 85.9552C9.20588 85.4351 8.11562 85.6398 7.9017 84.7907C7.70485 84.0095 8.46238 83.5802 8.82743 83.1189C9.09802 82.7766 9.18151 82.7109 8.89141 82.2234C8.22531 81.6139 7.45742 81.2556 6.58899 81.1477C5.50421 80.9036 4.4499 80.5456 3.42726 80.0741C2.79224 79.8012 1.61058 79.416 2.12737 78.4045Z" fill="#07B93D" stroke="#231F20" stroke-width="2.16531" stroke-miterlimit="10"/>
<path d="M30.9331 62.7772C31.1655 64.201 31.4862 65.2809 31.5077 66.7992" stroke="black" stroke-width="2.16531" stroke-miterlimit="10"/>
<path d="M65.9814 57.0316V59.3299" stroke="black" stroke-width="2.16531" stroke-miterlimit="10"/>
<path d="M76.8979 94.3782V98.9747" stroke="black" stroke-width="2.16531" stroke-miterlimit="10"/>
<path d="M47.5952 100.698V103.571" stroke="black" stroke-width="2.16531" stroke-miterlimit="10"/>
<path d="M55.6393 78.2905C55.5405 78.9553 54.3165 80.512 55.6393 80.5888" stroke="black" stroke-width="2.16531" stroke-miterlimit="10"/>
<path d="M83.7929 58.1807C83.6004 59.3042 84.3921 60.421 84.3675 61.628" stroke="black" stroke-width="2.16531" stroke-miterlimit="10"/>
<path d="M98.7318 82.887C98.7416 83.8124 98.1707 86.3273 99.8809 85.7598" stroke="black" stroke-width="2.16531" stroke-miterlimit="10"/>
<path d="M69.4287 120.808C69.5955 121.892 70.0274 122.536 70.0033 123.681" stroke="black" stroke-width="2.16531" stroke-miterlimit="10"/>
<path d="M101.03 109.891V113.339" stroke="black" stroke-width="2.16531" stroke-miterlimit="10"/>
<path d="M95.8589 135.172C95.8687 135.941 95.5556 137.29 96.0552 137.849L97.008 137.47" stroke="black" stroke-width="2.16531" stroke-miterlimit="10"/>
<path d="M119.416 119.084C119.414 120.1 119.17 121.491 119.514 122.434L119.99 122.532" stroke="black" stroke-width="2.16531" stroke-miterlimit="10"/>
<path d="M120.565 92.6545C120.552 94.4096 119.782 96.1116 119.99 97.8256" stroke="black" stroke-width="2.16531" stroke-miterlimit="10"/>
<path d="M110.223 65.65V69.0974" stroke="black" stroke-width="2.16531" stroke-miterlimit="10"/>
<path d="M99.8804 42.6676C101.612 42.849 101.029 46.671 101.029 47.8387" stroke="black" stroke-width="2.16531" stroke-miterlimit="10"/>
<path d="M77.4727 35.1982V38.0711" stroke="black" stroke-width="2.16531" stroke-miterlimit="10"/>
<path d="M75.1744 156.431C75.1575 157.272 75.5063 157.678 75.6212 158.283C75.752 158.972 75.544 159.721 75.9453 160.257L76.8981 159.879" stroke="black" stroke-width="2.16531" stroke-miterlimit="10"/>
<path d="M51.043 136.321L51.5194 136.419C51.906 137.693 51.6067 138.557 52.1921 139.769" stroke="black" stroke-width="2.16531" stroke-miterlimit="10"/>
<path d="M34.3805 118.51C34.3697 120.141 34.9858 120.998 34.9551 122.532" stroke="black" stroke-width="2.16531" stroke-miterlimit="10"/>
<path d="M27.4854 86.9088V89.2071" stroke="black" stroke-width="2.16531" stroke-miterlimit="10"/>
<path d="M121.714 44.9658V49.5623" stroke="black" stroke-width="2.16531" stroke-miterlimit="10"/>
<path d="M133.205 75.4176V78.2904" stroke="black" stroke-width="2.16531" stroke-miterlimit="10"/>
<path d="M141.824 101.273C142.772 102.051 142.4 103.641 142.398 104.72" stroke="black" stroke-width="2.16531" stroke-miterlimit="10"/>
<path d="M117.117 141.492C117.369 142.376 116.72 142.336 116.593 142.977C116.466 143.616 116.473 144.256 116.63 144.896C117.081 144.977 117.436 144.8 117.692 144.365" stroke="black" stroke-width="2.16531" stroke-miterlimit="10"/>
<path d="M138.377 126.554C137.156 127.503 136.904 130.929 136.653 132.299" stroke="black" stroke-width="2.16531" stroke-miterlimit="10"/>
<path d="M95.2842 158.729C95.2971 160.484 96.0674 162.186 95.8587 163.9" stroke="black" stroke-width="2.16531" stroke-miterlimit="10"/>
<path d="M124.012 165.049C123.871 165.542 124.797 168.228 125.161 168.497" stroke="black" stroke-width="2.16531" stroke-miterlimit="10"/>
<path d="M137.227 148.962C137.2 150.237 137.684 151.086 137.913 152.311L138.376 152.409" stroke="black" stroke-width="2.16531" stroke-miterlimit="10"/>
<path d="M157.337 80.5887C157.307 82.0506 157.941 83.1489 157.912 84.6107" stroke="black" stroke-width="2.16531" stroke-miterlimit="10"/>
<path d="M147.569 55.8824C147.408 56.8211 148.043 58.3007 148.24 59.2317L148.718 59.3298" stroke="black" stroke-width="2.16531" stroke-miterlimit="10"/>
<path d="M133.78 30.0271V33.4745" stroke="black" stroke-width="2.16531" stroke-miterlimit="10"/>
<path d="M109.074 28.3035C109.046 29.6842 109.676 30.3701 109.648 31.7508" stroke="black" stroke-width="2.16531" stroke-miterlimit="10"/>
<path d="M92.411 19.6851L91.9346 19.7832C91.6388 20.5877 91.8433 21.6944 91.8364 22.5579" stroke="black" stroke-width="2.16531" stroke-miterlimit="10"/>
<path d="M49.8938 40.3693C49.9024 41.078 49.7147 42.0125 49.8642 42.6972C49.9975 43.3078 50.5349 43.5773 50.5798 44.2798L51.043 44.3912" stroke="black" stroke-width="2.16531" stroke-miterlimit="10"/>
<path d="M49.3188 58.7552C49.7865 59.7183 49.9154 60.1888 49.8934 61.3418C49.8699 62.5726 50.3203 63.3464 50.468 64.5009" stroke="black" stroke-width="2.16531" stroke-miterlimit="10"/>
<path d="M21.7399 43.8167C21.7518 44.4742 21.6728 45.1426 21.789 45.7785C21.9063 46.4209 22.5678 46.3762 22.3145 47.264" stroke="black" stroke-width="2.16531" stroke-miterlimit="10"/>
<path d="M12.5469 67.9482C12.5668 69.0217 12.249 71.1006 13.696 71.3956" stroke="black" stroke-width="2.16531" stroke-miterlimit="10"/>
<path d="M16.5688 104.72C17.3894 106.409 16.5838 108.233 17.2732 109.933C17.8167 109.535 17.9649 108.947 17.718 108.168" stroke="black" stroke-width="2.16531" stroke-miterlimit="10"/>
<path d="M164.231 111.615V116.015V115.637" stroke="black" stroke-width="2.16531" stroke-miterlimit="10"/>
<path d="M156.188 133.448C156.188 134.707 155.967 136.162 156.232 137.382C156.778 137.557 157.338 137.587 157.912 137.47" stroke="black" stroke-width="2.16531" stroke-miterlimit="10"/>
<path d="M152.74 154.133C152.943 155.312 151.961 156.14 152.168 157.384L152.166 157.006" stroke="black" stroke-width="2.16531" stroke-miterlimit="10"/>
<path d="M138.376 166.773V173.093" stroke="black" stroke-width="2.16531" stroke-miterlimit="10"/>
</svg>
