<svg width="360" height="281" viewBox="0 0 360 281" fill="none" xmlns="http://www.w3.org/2000/svg">
<g clip-path="url(#clip0_167_4257)">
<path d="M86.4132 189.646L86.3566 189.949C85.0569 190.117 83.9099 190.644 82.7304 191.055C81.4028 191.519 80.0166 191.756 78.7626 192.195C77.3508 192.689 75.9776 192.888 74.5295 193.146C73.6647 193.301 72.8546 193.776 71.9853 193.831C71.111 193.887 70.6405 194.046 69.8169 194.232C68.6607 194.494 67.0435 194.25 65.8893 194.265L62.9669 194.303C61.7535 194.319 60.4468 194.484 59.2395 194.371C58.2322 194.277 57.3841 193.998 56.3372 194.028C54.7712 194.071 53.3079 193.75 51.7458 193.736C50.3298 193.723 48.92 193.434 47.6224 193.136C46.8506 192.959 46.0461 193.18 45.2538 193.005C44.5417 192.848 43.8533 192.67 43.1709 192.404C39.6569 191.034 35.6637 189.234 32.746 186.815C31.5923 185.858 30.2927 184.699 29.4722 183.434C28.7634 182.342 28.5584 181.045 28.256 179.799C27.7095 177.546 27.9793 175.294 28.8322 173.183C29.7312 170.958 31.8201 168.951 33.2472 167.056C36.3062 162.993 40.6816 160.024 44.6983 157.026C45.7276 156.258 46.8858 155.787 47.9442 155.07C48.6906 154.564 49.4243 154.023 50.1677 153.511C51.9403 152.29 53.7937 151.162 55.5349 149.915C56.9401 148.91 58.7428 148.379 60.2729 147.56C61.2018 147.063 62.2088 146.66 63.186 146.268C64.4695 145.753 65.7478 145.132 66.9708 144.59C68.1255 144.079 69.423 143.937 70.5941 143.457C71.8381 142.946 73.2569 142.674 74.5797 142.398C77.7602 141.734 81.079 141.11 84.3302 141.102L88.259 141.246C90.209 140.793 83.7339 141.447 85.727 141.447C86.8759 141.447 87.9323 141.299 89.0645 141.129C90.3 140.942 91.1399 140.979 91.9198 139.956C93.0423 138.483 94.1449 136.416 94.053 134.438C93.951 132.243 93.5788 130.131 93.5814 127.934C93.5833 126.283 93.1434 124.733 93.1378 123.079C93.1297 120.689 93.6123 118.443 93.7632 116.072C93.8809 114.222 94.904 112.301 95.6615 110.632C96.153 109.55 96.7509 108.539 97.2974 107.485C97.993 106.143 98.4369 104.622 99.2259 103.334C100.881 100.633 103.304 98.2133 105.44 95.8836C106.405 94.8308 107.374 93.8257 108.629 93.1298C113.24 90.5712 118.363 88.4146 123.482 87.1197C125.198 86.6858 126.793 85.992 128.463 85.4269C131.106 84.5326 133.883 84.1656 136.529 83.3391C138.871 82.6072 141.241 82.0576 143.677 81.6659C145.195 81.4217 146.858 81.5603 148.392 81.5409C150.618 81.5128 152.664 81.5138 154.883 81.7925C159.389 82.3583 163.707 83.5349 168.183 84.2001C172.264 84.8069 176.82 85.5811 180.369 87.809C181.983 88.8226 183.82 89.4711 185.4 90.5158C186.268 91.0894 187.327 91.4062 187.984 92.2601C189.33 94.0106 190.891 95.7895 192.008 97.662C192.299 98.1505 192.725 98.3008 193.058 98.724C193.389 99.1452 193.493 99.4795 193.726 99.9452C193.896 100.284 194.167 100.533 194.342 100.874C194.55 101.28 194.483 101.597 194.6 101.978C194.742 102.44 195.07 102.89 195.252 103.377C195.747 104.697 195.67 106.064 196.101 107.402C196.426 108.408 196.982 109.286 197.342 110.259C197.65 111.092 197.99 111.878 198.373 112.687C200.117 116.38 201.507 120.262 201.8 124.38C201.898 125.75 201.73 127.131 201.864 128.502C201.993 129.824 202.525 131.057 202.62 132.364C202.869 135.812 200.493 136.482 200.538 139.941C202.445 139.432 205.114 140.993 206.897 141.457C207.894 141.717 208.928 141.92 209.945 142.084C212.282 142.46 214.588 142.832 216.91 143.271C218.472 143.566 219.992 144.077 221.587 144.279C223.663 144.543 225.725 145.091 227.787 145.331C228.605 145.427 228.872 145.322 229.55 145.706C231.335 146.715 233.456 147.268 235.146 148.531C236.95 149.879 238.748 151.171 240.53 152.548C241.59 153.367 242.412 154.43 243.469 155.253C244.13 155.767 245.101 156.27 245.681 156.838C246.351 157.494 247.424 158.741 247.801 159.622C248.155 160.449 247.949 161.966 247.913 162.88C247.857 164.318 246.101 165.088 245.028 165.854C242.81 167.438 240.766 168.883 238.242 169.895C236.555 170.572 234.834 171.292 233.107 171.875C231.206 172.517 229.273 173.172 227.357 173.723C226.876 173.947 226.399 174.179 225.925 174.418C225.226 174.653 224.51 174.809 223.777 174.886C222.72 175.124 221.712 175.582 220.686 175.925C217.436 177.012 213.856 177.535 210.495 178.161C208.775 178.481 207.161 178.593 205.417 178.652C203.585 178.713 201.8 179.117 199.964 179.096" fill="black"/>
<path d="M86.4132 189.646L86.3566 189.949C85.0569 190.117 83.9099 190.644 82.7304 191.055C81.4028 191.519 80.0166 191.756 78.7626 192.195C77.3508 192.689 75.9776 192.888 74.5295 193.146C73.6647 193.301 72.8546 193.776 71.9853 193.831C71.111 193.887 70.6405 194.046 69.8169 194.232C68.6607 194.494 67.0435 194.25 65.8893 194.265L62.9669 194.303C61.7535 194.319 60.4468 194.484 59.2395 194.371C58.2322 194.277 57.3841 193.998 56.3372 194.028C54.7712 194.071 53.3079 193.75 51.7458 193.736C50.3298 193.723 48.92 193.434 47.6224 193.136C46.8506 192.959 46.0461 193.18 45.2538 193.005C44.5417 192.848 43.8533 192.67 43.1709 192.404C39.6569 191.034 35.6637 189.234 32.746 186.815C31.5923 185.858 30.2927 184.699 29.4722 183.434C28.7634 182.342 28.5584 181.045 28.256 179.799C27.7095 177.546 27.9793 175.294 28.8322 173.183C29.7312 170.958 31.8201 168.951 33.2472 167.056C36.3062 162.993 40.6816 160.024 44.6983 157.026C45.7276 156.258 46.8858 155.787 47.9442 155.07C48.6906 154.564 49.4243 154.023 50.1677 153.511C51.9403 152.29 53.7937 151.162 55.5349 149.915C56.9401 148.91 58.7428 148.379 60.273 147.56C61.2018 147.063 62.2088 146.66 63.186 146.268C64.4695 145.753 65.7478 145.132 66.9708 144.59C68.1255 144.079 69.423 143.937 70.5941 143.457C71.8381 142.946 73.2569 142.674 74.5797 142.398C77.7602 141.734 81.079 141.11 84.3302 141.102L88.259 141.246C90.209 140.793 83.7339 141.447 85.727 141.447C86.8759 141.447 87.9323 141.299 89.0645 141.129C90.3 140.942 91.1399 140.979 91.9198 139.956C93.0423 138.483 94.1449 136.416 94.053 134.438C93.951 132.243 93.5788 130.131 93.5814 127.934C93.5833 126.283 93.1434 124.733 93.1378 123.079C93.1297 120.689 93.6123 118.443 93.7632 116.072C93.8809 114.222 94.904 112.301 95.6615 110.632C96.153 109.55 96.7509 108.539 97.2974 107.485C97.993 106.143 98.4369 104.622 99.2259 103.334C100.881 100.633 103.304 98.2133 105.44 95.8836C106.405 94.8308 107.374 93.8257 108.629 93.1298C113.24 90.5712 118.363 88.4146 123.482 87.1197C125.198 86.6858 126.793 85.992 128.463 85.4269C131.106 84.5326 133.883 84.1656 136.529 83.3391C138.871 82.6072 141.241 82.0576 143.677 81.6659C145.195 81.4217 146.858 81.5603 148.392 81.5409C150.618 81.5128 152.664 81.5138 154.883 81.7925C159.389 82.3583 163.707 83.5349 168.183 84.2001C172.264 84.8069 176.82 85.5811 180.369 87.809C181.983 88.8226 183.82 89.4711 185.4 90.5158C186.268 91.0894 187.327 91.4062 187.984 92.2601C189.33 94.0106 190.891 95.7895 192.008 97.662C192.299 98.1505 192.725 98.3008 193.058 98.724C193.389 99.1452 193.493 99.4795 193.726 99.9452C193.896 100.284 194.167 100.533 194.342 100.874C194.55 101.28 194.483 101.597 194.6 101.978C194.742 102.44 195.07 102.89 195.252 103.377C195.747 104.697 195.67 106.064 196.101 107.402C196.426 108.408 196.982 109.286 197.342 110.259C197.65 111.092 197.99 111.878 198.373 112.687C200.117 116.38 201.507 120.262 201.8 124.38C201.898 125.75 201.73 127.131 201.864 128.502C201.993 129.824 202.525 131.057 202.62 132.364C202.869 135.812 200.493 136.482 200.538 139.941C202.445 139.432 205.114 140.993 206.897 141.457C207.894 141.717 208.928 141.92 209.945 142.084C212.282 142.46 214.588 142.832 216.91 143.271C218.472 143.566 219.992 144.077 221.587 144.279C223.663 144.543 225.725 145.091 227.787 145.331C228.605 145.427 228.872 145.322 229.55 145.706C231.335 146.715 233.456 147.268 235.146 148.531C236.95 149.879 238.748 151.171 240.53 152.548C241.59 153.367 242.412 154.43 243.469 155.253C244.13 155.767 245.101 156.27 245.681 156.838C246.351 157.494 247.424 158.741 247.801 159.622C248.155 160.449 247.949 161.966 247.913 162.88C247.857 164.318 246.101 165.088 245.028 165.854C242.81 167.438 240.766 168.883 238.242 169.895C236.555 170.572 234.834 171.292 233.107 171.875C231.206 172.517 229.273 173.172 227.357 173.723C226.876 173.947 226.399 174.179 225.925 174.418C225.226 174.653 224.51 174.809 223.777 174.886C222.72 175.124 221.712 175.582 220.686 175.925C217.436 177.012 213.856 177.535 210.495 178.161C208.775 178.481 207.161 178.593 205.417 178.652C203.585 178.713 201.8 179.117 199.964 179.096" stroke="black" stroke-width="2.62661" stroke-linecap="round" stroke-linejoin="round"/>
<path d="M176.488 155.843C175.065 155.861 173.366 155.598 172.006 156.066C170.926 156.437 169.733 157.14 168.762 157.74C166.546 159.11 164.972 162.759 165.027 165.317C165.039 165.899 165.094 166.51 165.063 167.089C165.032 167.656 164.786 168.159 164.77 168.715C164.747 169.451 165.085 170.201 165.108 170.96C165.123 171.479 165.113 172 165.12 172.52C165.135 173.631 165.176 174.57 165.433 175.625C165.605 176.328 165.592 177.054 165.805 177.753C166.106 178.745 166.677 179.626 167.037 180.605C168.154 183.649 170.452 186.395 172.722 188.679C174.151 190.116 175.7 191.913 177.406 192.885C178.544 193.534 179.446 194.432 180.587 195.117C181.746 195.812 182.801 196.516 184.052 197.075C185.962 197.93 188.467 198.432 190.539 198.439C191.535 198.443 192.535 198.405 193.531 198.392C193.939 198.386 194.392 198.434 194.793 198.384C195.221 198.329 195.369 198.116 195.717 198.032C196.602 197.816 197.5 197.906 198.414 197.603C199.345 197.294 200.12 196.953 200.922 196.382C202.09 195.55 203.19 194.494 203.419 193.02C203.672 191.388 203.725 189.814 203.702 188.109C203.677 186.237 203.239 184.556 202.55 182.841C201.785 180.935 200.743 179.414 199.853 177.648C199.669 177.282 199.526 176.839 199.224 176.55C198.84 176.183 198.308 176.067 197.915 175.689C197.25 175.05 196.904 174.353 196.592 173.521C196.019 171.993 195.165 170.387 194.321 169.021C193.783 168.151 193.072 167.742 192.375 167.062C191.767 166.47 191.299 165.75 190.818 165.07C190.344 164.4 189.658 164.047 189.11 163.471C188.573 162.906 188.088 162.302 187.525 161.758C186.015 160.3 184.008 159.15 182.162 158.265C180.548 157.492 179.033 156.56 176.488 155.843Z" fill="black" stroke="black" stroke-width="2.62661" stroke-linecap="round" stroke-linejoin="round"/>
<path d="M105.992 164.016C104.19 163.229 101.332 163.59 99.5318 164.2C98.7683 164.459 98.0384 164.419 97.3119 164.757C96.407 165.177 95.6078 165.683 94.797 166.249C94.0243 166.788 93.2138 167.404 92.6311 168.179C92.1624 168.802 91.8425 169.516 91.3177 170.106C90.1499 171.42 89.3632 172.662 89.1106 174.406C89.0017 175.157 88.7576 175.779 88.7781 176.566C88.7976 177.317 88.794 178.07 88.8063 178.821C88.8244 179.934 88.5266 180.855 88.4663 181.945C88.4004 183.139 88.5169 184.382 88.5325 185.578C88.5543 187.241 88.7128 188.668 89.2089 190.256C89.6509 191.672 90.1458 193.217 91.1654 194.289C91.9223 195.084 92.3958 195.911 93.0127 196.816C93.6502 197.752 94.4934 198.438 95.156 199.326C95.7424 200.111 96.2213 200.831 96.9874 201.478C97.7568 202.127 98.369 203.006 99.1868 203.642C99.8116 204.129 100.455 204.625 101.142 205.014C102.817 205.96 104.168 207.384 105.894 208.24C108.709 209.635 111.764 210.755 114.933 210.25C116.787 209.954 119.159 209.146 120.332 207.609C120.969 206.774 121.155 205.766 121.38 204.774C121.543 204.056 121.709 203.355 121.703 202.595C121.696 201.697 122.007 200.95 122.039 200.054C122.076 199.023 121.669 198.254 121.625 197.259C121.586 196.384 121.604 195.498 121.599 194.622C121.593 193.741 121.35 193.202 121.189 192.372C121.107 191.952 121.214 191.445 121.198 191.013C121.177 190.45 120.991 190.063 120.889 189.538C120.731 188.735 120.868 187.921 120.695 187.111C120.444 185.94 119.926 184.839 119.556 183.693C118.775 181.277 118.242 178.876 116.668 176.845C115.864 175.807 115.096 174.898 114.089 174.07C113.335 173.449 112.52 172.639 111.978 171.832C110.89 170.212 109.876 168.727 108.639 167.225C107.643 166.015 106.474 164.163 105.992 164.016Z" fill="black" stroke="black" stroke-width="2.62661" stroke-linecap="round" stroke-linejoin="round"/>
<path d="M120.408 186.663C123.071 186.397 125.718 186.118 128.391 185.865C130.198 185.694 132.061 185.785 133.879 185.762C135.304 185.744 135.527 185.455 136.787 184.79C139.675 183.267 143.429 184.167 145.791 184.228L151.711 183.398C152.9 183.268 154.816 182.149 155.01 183.402C155.157 184.352 155.83 183.16 156.792 183.105C158.295 183.018 159.229 183.557 160.632 183.156C161.746 182.837 162.757 182.139 163.781 181.735C164.609 181.408 165.497 181.419 166.316 180.987" stroke="black" stroke-width="2.62661" stroke-linecap="round" stroke-linejoin="round"/>
<path d="M105.873 202.253C106.18 202.408 106.47 202.596 106.774 202.757C106.978 202.866 107.19 202.961 107.405 203.045C107.626 203.13 107.844 203.166 108.079 203.195C108.268 203.218 108.518 203.088 108.647 202.959C108.786 202.82 108.891 202.591 108.882 202.391C108.873 202.183 108.804 201.967 108.647 201.822L108.484 201.697C108.413 201.655 108.337 201.629 108.259 201.611C108.119 201.59 107.985 201.548 107.854 201.499C107.45 201.313 107.08 201.065 106.684 200.865" fill="black"/>
<path d="M132.716 10.4642C139.697 10.4642 146.655 10.8318 153.639 10.7546C158.28 10.7033 162.662 12.8036 167.08 13.9696C168.338 14.3013 169.596 14.7303 170.849 15.0417C172.121 15.3576 173.567 15.321 174.876 15.4634C176.883 15.6819 178.731 16.423 180.682 16.9146C184.722 17.9329 188.687 19.36 192.489 21.0546C193.84 21.6568 195.101 22.2716 196.426 22.9159C197.73 23.55 198.92 24.3775 200.185 25.0634C201.425 25.7359 202.508 26.644 203.736 27.3511C204.616 27.8578 205.524 28.3814 206.357 28.957C206.915 29.3421 207.571 29.6538 208.092 30.0668C211.353 32.6504 214.529 35.3197 217.712 38.0127C218.755 38.8951 219.728 40.0363 220.881 40.7458C221.496 41.1245 222.077 41.4431 222.723 41.7579C223.695 42.2319 224.438 43.184 225.267 43.8727C225.986 44.4703 226.583 45.1444 227.286 45.7535C227.958 46.3352 228.507 46.7278 228.952 47.4793C229.862 49.0175 231.145 50.3794 232.342 51.7C233.534 53.0147 234.917 53.7404 236.365 54.6703C236.932 55.0346 237.317 55.5546 237.908 55.9375C238.562 56.3614 239.059 56.7907 239.602 57.3434C241.244 59.0146 242.957 60.6209 244.282 62.5312C245.261 63.9417 246.377 65.2689 247.246 66.7715C247.991 68.0592 248.737 69.3635 249.533 70.6168C251.019 72.9551 252.526 75.3369 253.726 77.85C253.997 78.4185 254.347 78.911 254.71 79.4219C254.999 79.8296 255.041 80.1671 255.222 80.6253C255.668 81.7617 256.276 82.9182 256.701 84.118C257.588 86.6211 258.804 88.9554 260.022 91.3164C260.597 92.4328 260.781 93.5737 261.207 94.7359C261.426 95.3341 261.81 95.8978 261.99 96.5001C262.234 97.3119 262.417 98.0964 262.804 98.8674C263.431 100.115 264.132 101.442 264.633 102.768C265.111 104.036 265.785 105.335 266.104 106.654C266.428 107.992 266.69 109.316 266.985 110.635C267.377 112.389 267.325 114.123 267.798 115.876C268.483 118.42 269.173 121.014 269.721 123.614C270.034 125.097 270.306 126.51 270.544 128C270.89 130.172 270.897 132.387 271.176 134.564C271.391 136.249 271.265 138.022 271.562 139.699C271.789 140.977 271.792 142.173 271.792 143.47V152.359C271.792 159.595 271.152 167.028 269.006 173.988C267.914 177.529 267.221 181.168 265.801 184.604C265.25 185.939 264.65 187.258 264.369 188.679C264.044 190.328 262.991 191.89 262.644 193.534C261.874 197.194 260.435 200.49 258.766 203.835C258.1 205.169 257.496 206.551 256.85 207.899C256.196 209.261 255.791 210.713 255.045 212.018C254.166 213.557 253.55 215.172 252.476 216.666C251.292 218.314 250.087 219.991 249.001 221.7C248.286 222.824 247.278 223.739 246.493 224.821C245.666 225.96 245.034 227.236 244.125 228.327C243.261 229.362 242.583 230.428 241.862 231.579C240.832 233.224 239.455 234.658 238.355 236.275C237.373 237.717 236.391 239.229 235.125 240.435C234.476 241.054 234.116 241.798 233.489 242.429C232.873 243.048 232.17 243.576 231.55 244.197C230.473 245.274 229.399 246.341 228.324 247.429C227.606 248.155 226.901 248.894 226.124 249.558C225.116 250.419 224.287 251.482 223.245 252.306C219.311 255.414 215.657 258.76 211.175 261.075C208.75 262.327 206.116 263.407 203.478 264.13C202.521 264.393 201.614 264.802 200.668 265.1C199.648 265.422 198.6 265.491 197.592 265.826C195.74 266.441 193.581 266.712 191.643 266.977C190.547 267.127 189.454 267.26 188.353 267.308C187.13 267.361 186.113 267.641 184.922 267.874C184.015 268.051 183.045 268.044 182.149 268.254C181.244 268.467 180.359 268.826 179.446 269.018C177.649 269.397 175.92 269.964 174.164 270.493C172.77 270.913 171.489 271.25 170.146 271.884C169.483 272.198 168.735 272.437 168.028 272.601C167.244 272.784 166.428 272.806 165.645 272.971C164.873 273.133 164.063 273.567 163.326 273.768C162.508 273.991 161.688 274.141 160.886 274.399C159.595 274.815 158.313 275.156 156.965 275.304C155.774 275.435 154.637 275.902 153.425 275.921C152.66 275.933 151.978 276.014 151.214 276.128C150.013 276.308 148.707 275.953 147.531 276.179C146.769 276.325 146.202 276.504 145.353 276.494C144.594 276.485 143.952 276.51 143.206 276.636C142.188 276.807 141.061 277.049 140.025 277.099C138.837 277.156 137.641 277.366 136.458 277.388C134.393 277.425 132.363 277.673 130.299 277.675C129.727 277.676 129.155 277.668 128.583 277.675C126.645 277.701 125.292 277.112 123.247 276.49C122.759 276.342 122.064 277.188 121.582 277.298C120.016 277.655 118.315 277.709 116.718 277.683C116.454 277.679 116.06 277.598 115.807 277.66C115.707 277.685 115.526 277.91 115.51 277.913C114.777 278.043 114.094 277.693 113.346 277.664C110.957 277.574 108.739 277.267 106.42 276.579C104.933 276.138 103.622 275.573 102.106 275.238C100.414 274.866 98.7984 274.172 97.112 273.742C94.9744 273.197 92.9524 272.158 90.8564 271.491C89.9728 271.21 89.0493 270.948 88.154 270.714C87.2469 270.476 86.4981 270.099 85.6011 269.766C85.0473 269.56 84.616 269.225 84.0721 269.018C83.3894 268.759 82.7701 268.481 82.1335 268.123C80.9973 267.483 79.7785 267.052 78.6226 266.403C78.1281 266.125 77.5601 266.04 77.0762 265.767C76.4813 265.43 76.0256 264.977 75.3676 264.7C74.2158 264.214 73.159 263.649 72.0445 263.126C70.0462 262.19 68.0352 261.438 66.144 260.502C65.2021 260.035 64.3661 259.564 63.475 259.011C62.5936 258.464 62.347 257.705 61.6316 257.004C59.7559 255.168 57.6737 253.501 55.7804 251.606C55.6041 251.622 55.1915 251.12 55.1343 251.286C54.5521 251.053 53.6032 250.17 53.1504 249.737C52.6606 249.269 52.2917 248.674 51.7972 248.196C50.1183 246.572 48.3666 245.044 46.621 243.456C45.6643 242.586 44.4605 241.499 43.6795 240.488C43.0202 239.635 42.5024 238.664 41.8728 237.78C41.1041 236.701 40.6133 235.482 39.8594 234.395C39.2933 233.579 38.8098 232.912 38.1424 232.173C37.1969 231.127 36.1419 230.151 35.1913 229.085C34.1255 227.891 33.2283 226.706 31.9625 225.675C30.6501 224.606 29.8999 223.793 28.9729 222.389C27.8383 220.669 27.5116 218.957 26.7805 217.092C25.774 214.525 24.6024 211.872 22.8758 209.704C21.9912 208.593 21.3559 207.685 20.7073 206.418C20.1429 205.316 19.6252 204.178 18.9653 203.148C18.4823 202.394 18.1902 201.502 17.8301 200.682C17.301 199.478 16.7927 198.025 16.498 196.728C16.3491 196.073 16.0795 195.627 15.892 195.026C15.7826 194.675 15.8783 194.338 15.8077 193.987C15.6518 193.21 15.2218 192.284 14.775 191.631C14.3329 190.985 13.9358 190.345 13.5316 189.669C13.2232 189.153 12.8101 188.833 12.4524 188.358C12.0149 187.778 11.677 186.83 11.4681 186.135C11.16 185.111 10.6974 184.143 10.434 183.108C10.3125 182.631 10.2625 182.159 10.1412 181.693C10.075 181.438 9.89709 181.389 9.9174 181.115C9.96232 180.51 11.3276 180.07 11.6903 179.915C9.96938 178.988 7.43778 178.184 6.98107 176.204C6.34753 173.458 5.80641 170.679 5.32015 167.871C5.14833 166.879 5.03084 165.826 4.81862 164.873C4.75696 164.596 4.5994 164.413 4.58854 164.043C4.569 163.378 4.30458 162.844 4.2705 162.206C4.24577 161.744 4.47579 161.404 4.56327 160.967C4.65891 160.49 4.58445 159.97 4.5875 159.482C4.59169 158.812 4.46268 158.272 4.35847 157.629C4.22986 156.837 4.29365 156.025 4.29264 155.221C4.29171 154.494 4.34799 153.746 4.30792 153.023C4.27079 152.352 4.02797 151.75 3.98565 151.082C3.92063 150.055 4.07545 149.014 4.012 147.987C3.98102 147.486 3.833 147.018 3.7656 146.524C3.67399 145.854 3.81325 145.127 3.67263 144.476C3.37761 143.109 3.39451 141.779 3.41174 140.368C3.41955 139.728 3.24685 139.299 3.13426 138.692C2.9728 137.82 3.10848 136.827 3.10899 135.939C3.11133 131.826 3.69966 127.767 3.7008 123.648C3.70101 122.898 3.64563 122.133 3.68973 121.386C3.72577 120.774 3.9863 120.24 4.00539 119.626C4.03928 118.537 4.4765 117.477 4.94342 116.46C5.79651 114.602 6.80599 112.811 7.62871 110.94C7.98257 110.136 8.4585 109.453 8.67223 108.578C8.87805 107.734 9.05827 106.877 9.32645 106.05C9.68879 104.933 10.0508 103.88 10.2845 102.729C10.3703 102.306 10.558 101.954 10.7204 101.575C10.9012 101.154 11.0389 100.208 11.3944 99.9295C11.2671 98.8618 12.8184 96.9661 13.4504 96.1606C14.3881 94.9656 15.3827 93.7974 16.3436 92.62C18.4167 90.0797 19.5331 87.0773 20.7265 84.0834C21.228 82.8251 21.2934 81.4811 21.818 80.2377C22.4911 78.6422 22.9682 77.0232 23.7556 75.4673C24.3357 74.3209 24.7825 73.1864 25.2361 71.9872C25.471 71.3663 25.8496 70.7128 25.9512 70.0595L26.1897 70.0089C26.1464 69.5963 26.0377 69.7366 26.1249 69.3506C26.2123 68.9637 26.1361 68.5973 26.2487 68.2226C26.4503 67.5514 26.9274 66.6637 27.3733 66.1272C28.4032 64.8881 29.5417 63.838 30.6883 62.6746C33.4691 59.8531 36.8799 57.6538 39.5113 54.6797C41.9682 51.9028 44.8653 49.5159 47.495 46.901C48.1091 46.2902 48.7062 45.6904 49.2762 45.0375C49.7402 44.506 50.308 44.1457 50.771 43.646C51.2926 43.0831 51.6614 42.4323 52.2152 41.8822C53.0486 41.0545 53.9226 40.5059 54.8337 39.7922C55.6442 39.1572 56.293 38.3922 57.1941 37.8503C59.1627 36.6661 60.9408 35.2125 62.8374 33.9036C63.444 33.485 64.0424 33.1802 64.6497 32.7472C65.3824 32.2247 66.2511 31.8717 67.0317 31.424C68.521 30.5698 70.0598 29.7505 71.5377 28.8322C73.2257 27.7833 75.0156 26.9695 76.7308 25.9431C78.2247 25.0491 79.8458 24.5339 81.2294 23.4329C82.0647 22.7682 82.5853 22.3541 83.6177 22.0107C84.4871 21.7215 85.3024 21.3295 86.195 21.0545C88.0194 20.4923 89.7487 19.6359 91.5945 19.1279C92.5911 18.8536 93.5048 18.4127 94.4852 18.0862C95.72 17.675 96.9941 17.4335 98.2219 17.0047C103.213 15.2615 108.182 13.4906 113.383 12.4719C115.176 12.1206 116.688 11.6501 118.497 11.6491C119.344 11.6486 120.191 11.6593 121.037 11.6496C122.199 11.6363 123.307 11.9427 124.467 11.9522C125.137 11.9576 125.809 11.9524 126.479 11.9464C127.488 11.9372 128.229 12.252 129.15 11.9443C130.01 11.657 130.841 11.4478 131.697 11.1215C132.476 10.8245 131.867 10.4642 132.716 10.4642Z" stroke="#E1421F" stroke-width="6.56655" stroke-linecap="round" stroke-linejoin="round"/>
<path d="M221.161 36.9629C220.411 38.0073 219.752 39.2041 219.236 40.3863C218.917 41.1179 218.995 41.8863 218.669 42.6144C218.203 43.6571 217.709 44.6567 217.311 45.7338C216.812 47.0836 216.71 48.6804 215.997 49.9209C215.51 50.7698 214.82 51.3475 214.365 52.2307C213.792 53.3432 213.331 54.4858 212.664 55.5503C212.031 56.5623 211.681 57.7147 211.031 58.697C210.428 59.6071 209.809 60.5047 209.213 61.4224C208.265 62.8836 207.551 64.6359 206.828 66.2234C205.611 68.8967 204.153 71.4361 202.926 74.123C202.304 75.4833 201.523 76.7348 200.89 78.0836C200.228 79.4947 199.744 80.7493 198.768 81.9573C197.908 83.0219 197.448 84.2683 196.652 85.3622C195.73 86.6293 194.782 87.8918 193.976 89.243C192.895 91.0559 191.934 92.9288 190.74 94.683C190.011 95.7538 189.207 96.6673 188.54 97.7951C187.645 99.3067 186.753 100.799 185.707 102.214C183.562 105.115 181.622 108.147 179.518 111.079C178.378 112.668 177.348 114.295 176.081 115.79C174.919 117.163 173.688 118.471 172.594 119.897C170.927 122.069 169.129 124.341 167.177 126.264C165.205 128.208 163.324 130.46 161.865 132.814C161.161 133.95 160.17 134.761 159.361 135.804C158.777 136.558 158.32 137.39 157.743 138.147C156.157 140.233 154.616 142.299 153.062 144.416C151.052 147.155 149.192 150.06 147.026 152.673C145.492 154.523 144.216 156.517 142.71 158.384C140.62 160.975 138.97 163.889 137.065 166.603C136.594 167.273 135.905 167.809 135.519 168.522C135.107 169.282 134.734 169.838 134.149 170.495C131.912 173.003 130.271 176.049 128.14 178.651C125.828 181.474 123.575 184.301 121.425 187.246C119.276 190.19 116.561 192.775 114.418 195.758C111.672 199.579 108.311 203 105.427 206.734C104.924 207.385 104.386 207.96 103.853 208.592C103.046 209.551 102.594 210.742 101.792 211.692C100.868 212.786 100.128 214.039 99.1885 215.098C98.3006 216.098 97.5906 217.261 96.823 218.341C95.8487 219.712 94.6586 220.784 93.6335 222.101C92.9051 223.036 91.9488 223.894 91.1226 224.756C90.4522 225.456 89.9329 226.246 89.2595 226.946C88.0722 228.181 86.9003 229.415 85.8109 230.731C83.9147 233.023 81.5582 234.94 79.6493 237.272C78.8475 238.252 77.8899 238.971 77.0668 239.921C74.92 242.4 72.6186 244.755 70.4801 247.247C69.2589 248.67 67.689 249.664 66.4636 251.043C65.8289 251.757 65.2598 252.429 64.5608 253.069C64.1672 253.429 63.6524 253.754 63.3193 254.163" stroke="#E1421F" stroke-width="6.56655" stroke-linecap="round" stroke-linejoin="round"/>
<path d="M246.555 160.899C247.158 160.909 247.688 160.836 248.287 160.784C249.463 160.681 250.534 160.657 251.696 160.448C252.772 160.254 253.918 160.056 254.904 159.678C255.445 159.47 255.82 159.106 256.249 158.8C256.662 158.506 257.142 158.24 257.444 157.88C257.676 157.605 257.822 157.335 258.125 157.079C258.608 156.669 258.718 156.343 258.982 155.862C259.292 155.295 259.358 154.637 259.571 154.033C259.739 153.56 259.851 153.084 260.059 152.618C260.303 152.068 260.237 151.515 260.454 150.959C261.419 148.491 262.939 146.083 264.34 143.733C264.711 143.111 265.15 142.248 265.827 141.778C266.093 141.593 266.445 141.522 266.743 141.377C267.181 141.164 267.499 140.837 267.921 140.603C268.497 140.283 269.169 139.93 269.637 139.537C270.094 139.155 270.568 138.75 271.085 138.385C271.847 137.847 272.718 137.416 273.497 136.897C273.857 136.657 274.195 136.496 274.58 136.286C274.735 136.202 274.844 136.069 274.992 135.979C275.507 135.663 276.441 135.353 276.979 135.103L281.686 131.574C285.67 129.413 289.853 127.545 293.96 125.542C296.093 124.501 298.172 123.369 300.052 122.045C301.669 120.905 304.218 119.175 304.988 117.56C306.118 115.19 305.879 112.404 305.589 109.928C305.256 107.082 304.118 104.708 301.088 103.056C296.412 100.506 289.846 99.9596 285.383 103.076C284.09 103.978 283.436 105.399 282.879 106.655C282.155 108.288 282.05 108.996 283.679 110.009C287.084 112.127 290.511 112.588 294.815 112.922C300.184 113.339 307.198 113.029 311.324 109.921C316.079 106.339 317.889 100.889 318.962 95.9515C320.043 90.9739 321.736 84.9778 317.111 80.8667C312.725 76.9678 306.21 75.803 300.086 74.737C298.019 74.3773 296.177 74.9236 294.891 76.3902C293.661 77.7946 293.71 80.0886 294.47 81.5494C295.187 82.9272 295.929 85.1199 298.037 85.4827C299.445 85.7251 301.38 85.4483 302.821 85.4487C304.553 85.4492 306.286 85.4487 308.018 85.4487C312.052 85.4487 316.534 86.0748 320.177 84.5052C329.911 80.3112 336.685 70.5991 336.065 61.8798C335.823 58.4766 334.751 53.9088 331.584 51.4069C328.851 49.2483 323.829 48.9678 320.183 48.8472C315.484 48.6918 310.738 49.0848 306.049 49.3245C303.279 49.4661 299.866 49.3177 298.114 51.3461C297.362 52.217 297.129 53.1405 297.773 54.0531C298.185 54.6382 298.941 55.0635 299.535 55.5265C301.246 56.8624 302.779 58.5092 304.718 59.6218C308.909 62.0262 316.011 61.7971 320.875 60.8481C330.602 58.9503 339.602 54.4405 342.05 46.2839C343.015 43.0683 344.194 40.0432 344.219 36.7065C344.239 33.9752 344.515 31.0715 344.111 28.3573C343.196 22.2047 337.734 16.9286 330.216 15.2945C324.4 14.0305 318.958 14.1027 313.167 15.2397C310.622 15.7395 308.72 15.9012 307.84 17.9691C307.28 19.2864 307.486 20.3016 308.244 21.5233C310.456 25.0902 313.546 26.6966 317.89 28.3271C320.611 29.3488 323.049 29.2169 325.857 30.0479C329.009 30.9807 332.449 31.3546 335.439 29.9669C337.69 28.922 340.112 28.1483 342.288 27.0046C346.146 24.9776 349.572 22.2578 353.005 19.7967C360.199 14.6386 360.753 7.33772 355.486 1.01392" stroke="black" stroke-width="2.17657" stroke-linecap="round" stroke-linejoin="round"/>
</g>
<defs>
<clipPath id="clip0_167_4257">
<rect width="360" height="281" fill="white"/>
</clipPath>
</defs>
</svg>
