<svg width="345" height="360" viewBox="0 0 345 360" fill="none" xmlns="http://www.w3.org/2000/svg">
<g clip-path="url(#clip0_167_4279)">
<path d="M293.116 236.744C293.102 236.675 297.052 232.251 297.039 232.183C296.231 232.087 295.257 231.64 294.458 231.347C293.411 230.965 292.277 230.293 291.328 229.689C289.881 228.768 288.307 228.173 287.009 227.007C285.182 225.368 283.134 224.021 281.154 222.581C279.362 221.279 277.229 220.586 275.401 219.325C274.099 218.427 272.424 218.26 271.172 217.291C270.575 216.828 269.985 216.698 269.328 216.372C268.673 216.047 268.042 215.702 267.352 215.428C266.976 215.279 266.572 215.202 266.188 215.073C265.636 214.887 265.272 214.921 264.672 214.832C263.471 214.653 262.3 214.548 261.08 214.661C259.893 214.771 258.746 214.819 257.554 214.873C256.447 214.923 255.393 215.139 254.276 215.132C252.709 215.124 251.097 215.254 249.538 215.084C247.826 214.898 246.106 214.589 244.401 214.345C243.104 214.159 242 213.684 240.767 213.306C238.932 212.743 237.042 212.311 235.238 211.627C233.823 211.091 232.273 210.778 230.92 210.202C230.407 209.985 229.755 209.804 229.214 209.734C228.904 209.693 228.606 209.751 228.293 209.669C227.969 209.584 227.696 209.355 227.378 209.265C226.707 209.075 226.133 209.028 225.561 208.564C225.019 208.123 224.561 207.5 224.13 206.946C223.748 206.456 223.296 205.957 223.077 205.376C222.886 204.868 222.592 204.178 222.486 203.65C222.366 203.056 222.298 202.601 222.407 202.069C222.487 201.677 222.355 201.198 222.454 200.824C222.671 200.005 223.262 199.574 223.981 199.327C224.518 199.143 224.861 199.155 225.417 199.124C226.056 199.087 226.614 198.862 227.26 198.866C228.076 198.871 228.779 199.059 229.577 199.124C230.674 199.213 231.821 199.111 232.921 199.111C238.633 199.111 243.611 199.394 249.306 199.59C250.185 199.62 251.033 199.843 251.91 199.86C252.734 199.876 253.544 199.83 254.369 199.9C256.22 200.059 258.079 200.653 259.865 201.156C261.793 201.699 263.847 201.852 265.794 202.383C268.221 203.044 270.776 203.569 273.263 204.102C274.265 204.317 275.062 204.599 275.971 205.022C276.591 205.311 277.069 205.648 277.653 205.96C278.274 206.292 278.765 206.704 279.363 207.124C281.473 208.606 283.375 210.261 285.666 211.423C287.994 212.604 290.004 214.437 292.172 215.884C294.05 217.137 296.01 218.26 297.988 219.337C299.594 220.211 301.35 220.963 303.019 221.72C303.562 221.966 304.119 222.403 304.683 222.534C305.367 222.694 304.893 222.618 305.577 222.769C305.207 223.107 305.658 223.617 305.158 223.816C303.146 224.617 293.05 236.321 293.116 236.744Z" fill="#EBEBE9" stroke="black" stroke-width="3.03367" stroke-miterlimit="10"/>
<path d="M148.315 192.548C147.982 192.484 147.492 191.734 147.306 191.47C146.223 189.939 145.177 188.369 144.104 186.823C142.693 184.789 141.21 182.799 139.955 180.651C139.508 179.885 139.214 179.082 138.862 178.274C138.47 177.375 137.952 176.54 137.465 175.696C136.117 173.363 135.237 170.829 133.743 168.567C133.315 167.92 132.861 167.288 132.412 166.657C132.083 166.195 131.404 165.723 131.2 165.166C131.489 164.802 132.111 164.342 132.566 164.328C132.914 164.317 132.251 163.909 132.566 163.883C132.909 163.853 133.134 164.123 133.338 164.382C133.701 164.843 133.998 165.361 134.361 165.824C134.976 166.607 135.501 167.478 136.168 168.227C137.008 169.17 137.639 170.286 138.395 171.33C138.592 171.602 138.756 171.923 138.951 172.183C139.142 172.436 139.399 172.555 139.576 172.804C139.937 173.311 140.217 173.943 140.492 174.513C140.766 175.081 140.999 175.62 141.202 176.21C141.416 176.83 141.899 177.329 142.139 177.907C142.304 178.303 142.31 178.409 142.594 178.761C142.733 178.934 142.854 179.138 142.972 179.313C143.094 179.494 143.225 179.619 143.357 179.805C143.566 180.102 143.819 180.303 144.028 180.577C144.207 180.812 144.326 181.072 144.509 181.302C144.653 181.485 144.765 181.681 144.889 181.892C145.191 182.408 145.638 182.855 145.866 183.423C146.38 184.698 147.019 185.886 147.752 187.025C148.069 187.518 148.374 188.042 148.719 188.517C149.143 189.101 149.364 189.762 149.803 190.379C150.199 190.935 150.272 191.459 149.627 191.893C149.112 192.24 148.86 192.249 148.315 192.548Z" fill="#EBEBE9" stroke="black" stroke-width="3.03367" stroke-miterlimit="10"/>
<path d="M130.91 160.673C129.295 160.385 128.387 161.833 128.08 163.182C127.927 163.855 127.849 164.408 127.868 165.118C127.887 165.781 128.006 165.835 128.421 166.287C129.242 167.179 129.972 168.043 131.335 167.852C132.129 167.741 133.376 167.361 133.901 166.627C134.023 166.457 133.985 166.164 134.079 165.967C134.158 165.803 134.391 165.626 134.447 165.482C134.6 165.089 134.503 164.534 134.502 164.112C134.5 163.234 134.659 162.209 134.292 161.463C134.102 161.076 134.023 160.918 133.611 160.744C133.131 160.542 132.648 160.499 132.177 160.359C131.757 160.234 131.611 159.977 131.072 160.125C130.721 160.221 130.208 160.511 130.357 160.959" fill="#FFD600"/>
<path d="M130.91 160.673C129.295 160.385 128.387 161.833 128.08 163.182C127.927 163.855 127.849 164.408 127.868 165.118C127.887 165.781 128.006 165.835 128.421 166.287C129.242 167.179 129.972 168.043 131.335 167.852C132.129 167.741 133.376 167.361 133.901 166.627C134.023 166.457 133.985 166.164 134.079 165.967C134.158 165.803 134.391 165.626 134.447 165.482C134.6 165.089 134.503 164.534 134.502 164.112C134.5 163.234 134.659 162.209 134.292 161.463C134.102 161.076 134.023 160.918 133.611 160.744C133.131 160.542 132.648 160.499 132.177 160.359C131.757 160.234 131.611 159.977 131.072 160.125C130.721 160.221 130.208 160.511 130.357 160.959" stroke="black" stroke-width="3.03367" stroke-miterlimit="10"/>
<path d="M147.832 191.224C147.556 191.021 147.416 190.126 147.355 189.805C146.995 187.943 146.685 186.062 146.341 184.191C145.889 181.73 145.353 179.276 145.088 176.779C144.994 175.89 145.053 175.033 145.063 174.146C145.073 173.159 144.943 172.176 144.844 171.197C144.571 168.493 144.803 165.809 144.367 163.105C144.243 162.331 144.088 161.559 143.937 160.791C143.827 160.228 143.403 159.503 143.444 158.909C143.854 158.705 144.605 158.56 145.024 158.746C145.344 158.889 144.908 158.229 145.205 158.342C145.528 158.466 145.622 158.809 145.702 159.133C145.843 159.71 145.902 160.309 146.043 160.888C146.282 161.867 146.404 162.887 146.705 163.858C147.083 165.08 147.201 166.368 147.463 167.645C147.53 167.978 147.549 168.341 147.62 168.662C147.69 168.975 147.875 169.195 147.934 169.499C148.056 170.116 148.052 170.812 148.07 171.448C148.088 172.084 148.079 172.674 148.024 173.298C147.965 173.954 148.201 174.618 148.184 175.247C148.172 175.678 148.134 175.777 148.249 176.22C148.305 176.438 148.331 176.676 148.367 176.886C148.404 177.103 148.472 177.274 148.516 177.501C148.586 177.861 148.733 178.154 148.811 178.495C148.878 178.786 148.88 179.073 148.952 179.362C149.009 179.591 149.03 179.818 149.057 180.063C149.121 180.663 149.344 181.264 149.321 181.879C149.269 183.259 149.365 184.616 149.566 185.97C149.653 186.555 149.717 187.165 149.836 187.745C149.983 188.461 149.915 189.157 150.063 189.908C150.196 190.585 150.049 191.092 149.287 191.204C148.68 191.293 148.447 191.191 147.832 191.224Z" fill="#EBEBE9" stroke="black" stroke-width="3.03367" stroke-miterlimit="10"/>
<path d="M145.008 154.707C143.661 153.74 142.249 154.656 141.422 155.745C141.01 156.288 140.714 156.755 140.443 157.407C140.19 158.017 140.276 158.118 140.469 158.709C140.851 159.877 141.162 160.98 142.475 161.403C143.24 161.649 144.525 161.851 145.3 161.415C145.479 161.314 145.564 161.032 145.729 160.895C145.868 160.78 146.151 160.721 146.26 160.615C146.559 160.326 146.696 159.78 146.867 159.398C147.222 158.601 147.783 157.741 147.754 156.904C147.739 156.469 147.731 156.292 147.428 155.954C147.075 155.561 146.655 155.31 146.284 154.977C145.955 154.68 145.927 154.384 145.377 154.282C145.02 154.215 144.437 154.254 144.39 154.726" fill="#FFD600"/>
<path d="M145.008 154.707C143.661 153.74 142.249 154.656 141.422 155.745C141.01 156.288 140.714 156.755 140.443 157.407C140.19 158.017 140.276 158.118 140.469 158.709C140.851 159.877 141.162 160.98 142.475 161.403C143.24 161.649 144.525 161.851 145.3 161.415C145.479 161.314 145.564 161.032 145.729 160.895C145.868 160.78 146.151 160.721 146.26 160.615C146.559 160.326 146.696 159.78 146.867 159.398C147.222 158.601 147.783 157.741 147.754 156.904C147.739 156.469 147.731 156.292 147.428 155.954C147.075 155.561 146.655 155.31 146.284 154.977C145.955 154.68 145.927 154.384 145.377 154.282C145.02 154.215 144.437 154.254 144.39 154.726" stroke="black" stroke-width="3.03367" stroke-miterlimit="10"/>
<path d="M236.937 194.401C236.929 193.145 237.604 191.782 237.368 190.573C237.146 189.44 236.913 188.259 236.522 187.163C236.159 186.144 235.562 185.506 234.976 184.595C233.852 182.85 231.971 181.615 230.544 180.108C229.435 178.938 228.148 178.062 227.042 176.896C226.017 175.816 224.939 174.857 223.732 173.998C222.68 173.25 221.582 172.35 220.465 171.765C219.551 171.287 218.508 171.334 217.558 171.014C216.553 170.674 215.471 170.247 214.477 170.037C213.454 169.822 212.178 170.053 211.129 170.053H201.514C198.433 170.053 195.308 169.857 192.305 170.386C191.507 170.526 190.723 170.397 189.936 170.578C189.321 170.719 188.673 170.96 188.064 171.127C186.952 171.431 186 171.405 184.894 171.871C183.393 172.505 182.23 172.459 180.659 172.603C179.425 172.717 178.393 173.038 177.122 173.051C175.577 173.068 174.172 172.61 172.609 172.619C171.671 172.625 170.654 172.732 169.723 172.629C167.51 172.386 166.834 169.431 166.846 167.487C166.859 165.59 167.227 163.15 166.811 161.322C166.704 160.851 166.462 160.608 166.43 160.027C166.389 159.269 166.434 158.491 166.434 157.731C166.434 155.838 166.414 154.053 166.113 152.184C165.695 149.576 166.022 146.716 166.022 144.07C166.022 142.071 166.023 140.071 166.022 138.071C166.021 137.203 166.139 136.266 166.043 135.408C165.944 134.525 165.619 133.762 165.594 132.864C165.534 130.725 165.609 128.57 165.609 126.429C165.609 125.287 165.657 124.132 165.625 122.991C165.6 122.087 165.252 121.336 165.176 120.453C165.093 119.498 165.318 118.506 165.219 117.554C165.148 116.882 164.824 116.293 164.762 115.62C164.553 113.342 163.994 111.121 163.458 108.893C163.167 107.682 163.215 106.441 162.93 105.216C162.591 103.753 163.142 102.849 163.144 101.404C163.146 99.4474 162.171 96.7128 161.26 95.0078C160.472 93.5325 159.232 92.2797 158.28 90.9309C157.639 90.0224 156.839 89.135 156.219 88.2696C155.479 87.2389 155.051 86.633 153.874 86.011C152.505 85.2875 151.104 84.606 149.732 83.914C146.37 82.217 142.812 80.4487 139.222 79.2044C136.692 78.327 134.275 77.459 131.815 76.3657C130.74 75.8879 129.571 75.8 128.488 75.3185C127.568 74.909 126.63 74.6323 125.701 74.2507C122.717 73.026 119.795 72.5385 116.576 72.5385C114.372 72.5385 112.148 72.6265 109.945 72.5546C109.032 72.5247 108.239 72.1934 107.342 72.0902C105.764 71.9087 104.051 72.131 102.496 72.3247C99.7046 72.6722 96.9422 72.5696 94.1634 72.9784C92.548 73.2161 91.0041 73.5482 89.4392 74.1321C87.6955 74.7827 86.0197 75.7163 84.4882 76.7934C83.6016 77.4166 82.8851 78.1679 81.9505 78.7561C81.2264 79.2118 80.4694 79.6484 79.833 80.2372C78.6014 81.3773 77.3724 82.4898 76.364 83.8157C75.1557 85.4041 73.6384 86.66 71.9885 87.7049C69.9223 89.0133 67.928 90.3914 66.1557 92.0984C64.2106 93.9717 62.4777 95.9629 60.4754 97.7711C58.1936 99.8317 55.7965 101.756 53.4372 103.709C52.5042 104.481 50.4896 105.008 50.1683 106.327C49.6332 105.024 50.1694 107.975 50.1686 108.729C50.1675 110.207 50.0717 111.705 50.2501 113.176C50.3986 114.399 50.7986 115.581 50.9614 116.791C51.0476 117.431 50.8641 118.121 50.973 118.752C51.0707 119.318 51.4413 119.73 51.6224 120.263C52.0065 121.392 52.047 122.52 52.2646 123.648C52.5355 125.053 53.0642 125.985 53.0535 127.498C53.0443 128.73 52.9637 129.931 53.2604 131.118C53.6584 132.712 53.2576 134.348 53.5579 135.955C53.8383 137.454 53.9551 138.946 54.3944 140.437C55.6972 144.86 56.8212 149.507 56.7537 154.143C56.7358 155.383 56.9742 156.447 57.2899 157.642C57.616 158.875 57.5386 160.031 57.6283 161.302C57.8372 164.256 58.0017 167.098 58.0017 170.069C58.0017 172.055 58.0076 174.041 58.0017 176.027C57.9997 176.651 57.8921 177.346 58.0366 177.945C58.1383 178.364 58.3592 178.521 58.4235 179.025C58.5669 180.156 58.2471 181.331 58.5057 182.446C58.8036 183.732 59.003 184.739 58.5137 185.995C58.1177 187.012 57.5699 188.167 56.9436 189.089C56.0852 190.353 54.3789 190.297 53.0197 190.546C50.6806 190.975 48.2033 190.317 46.0664 191.43C45.2522 191.854 44.8621 192.263 44.1782 192.972C43.2594 193.924 42.3562 194.213 41.2504 194.87C40.0517 195.58 38.9288 197.123 38.3049 198.376C36.8114 201.375 36.7721 204.712 35.9594 207.88C35.3521 210.248 34.8767 212.607 34.1077 214.931C33.5099 216.737 32.5757 218.386 32.0046 220.19C31.4616 221.905 31.0418 223.583 30.3781 225.267C29.0614 228.607 28.6769 232.175 27.4936 235.521C27.0702 236.718 26.7346 237.636 26.6635 238.916C26.6051 239.961 26.4065 240.889 26.142 241.906C25.574 244.092 25.5824 246.549 25.2205 248.798C24.8221 251.272 25.1971 253.775 24.8122 256.253C24.3348 259.327 24.6811 262.514 24.61 265.627C24.5921 266.403 24.2843 267.078 24.2247 267.802C24.1783 268.37 24.4142 268.511 24.5143 268.946C24.7439 269.942 24.6108 270.85 24.9171 271.846C25.6523 274.239 26.5209 276.654 27.9961 278.666C29.2747 280.41 30.2665 282.306 31.7754 283.831C32.5757 284.641 33.3733 284.891 34.4716 285.211C36.1509 285.699 37.8632 286.29 39.5521 286.719C42.278 287.412 44.9809 287.966 47.604 289.06C49.8271 289.987 52.4307 290.505 54.4913 291.746C56.0539 292.686 57.4814 293.706 59.2235 294.278C60.4476 294.679 61.553 295.106 62.6858 295.711C63.7535 296.281 64.8176 296.87 65.9055 297.402C69.1871 299.004 72.6002 300.2 76.1439 301.023C78.1005 301.478 79.7266 302.246 81.7555 302.206C83.6556 302.169 85.5419 302.644 87.4842 302.638C89.6564 302.632 92.3494 302.231 94.5121 302.736C95.1342 302.881 95.7121 303.234 96.3071 303.398C97.1269 303.623 97.9777 303.439 98.8185 303.481C102.408 303.658 105.941 303.898 109.619 303.921C111.444 303.932 113.09 303.47 114.918 303.494C116.537 303.516 118.007 303.04 119.644 303.067C120.924 303.087 121.831 302.761 123.039 302.617C123.621 302.548 124.229 302.693 124.814 302.649C125.509 302.597 126.064 302.265 126.762 302.189C127.291 302.132 127.803 302.267 128.332 302.175C129.791 301.921 131.006 301.784 132.524 301.784H136.656C138.852 301.784 141.645 302.268 143.759 301.688C145.489 301.214 147.228 300.895 149.082 300.928C150.74 300.958 152.254 300.49 153.91 300.501C156.717 300.52 159.525 300.501 162.333 300.501C163.813 300.501 165.108 300.527 166.539 300.833C168.091 301.165 169.807 300.912 171.391 300.927C173.261 300.944 175.032 300.491 176.939 300.501C179.321 300.512 181.614 300.05 183.974 300.069C185.425 300.08 186.52 299.839 187.874 299.645C189.246 299.448 190.526 298.765 191.904 298.457C196.525 297.424 200.971 297.092 205.431 295.368C207.706 294.489 209.985 293.772 211.786 291.956C213.65 290.077 215.499 288.581 217.053 286.387C218.379 284.514 219.164 282.288 220.032 280.185C220.507 279.034 220.904 277.858 221.361 276.685C221.791 275.582 221.972 274.232 222.483 273.191C222.836 272.472 223.486 271.97 223.722 271.184C225.115 266.549 226.655 261.607 228.643 257.069C229.499 255.118 229.746 252.725 230.288 250.637C230.591 249.474 231.038 248.208 231.164 247.038C231.266 246.093 231.438 244.979 231.668 244.045C231.934 242.961 232.367 241.758 232.412 240.623C232.456 239.523 232.793 238.645 232.802 237.534C232.822 235.201 233.795 232.892 234.085 230.588C234.174 229.879 234.522 229.131 234.672 228.434C234.821 227.742 234.815 227.193 234.863 226.487C234.902 225.924 235.153 225.539 235.251 225.012C235.345 224.514 235.185 224.007 235.265 223.515C235.46 222.331 235.956 221.197 236.134 220.007C236.383 218.339 236.344 216.572 236.614 214.887C237.3 210.612 236.936 206.047 236.936 201.707C236.936 199.272 236.954 196.836 236.937 194.401ZM111.493 164.881C111.371 165.8 111.429 166.693 111.346 167.609C111.244 168.713 111.122 169.822 110.971 170.923C110.759 172.467 110.791 174.037 110.634 175.587C110.377 178.12 110.321 180.666 110.044 183.197C109.858 184.896 109.628 186.646 109.314 188.323C109.059 189.68 108.827 191.075 108.449 192.396C107.965 194.09 107.522 195.797 107.034 197.492C106.843 198.157 106.698 198.807 106.402 199.437C106.133 200.013 105.772 200.267 105.218 200.537C104.835 200.723 104.434 200.921 104.023 201.029C103.489 201.169 102.854 201.394 102.308 201.437C101.08 201.536 99.8007 201.42 98.571 201.424C97.0815 201.428 95.6032 201.338 94.1193 201.207C93.5298 201.154 92.9396 201.035 92.3645 200.897C91.5037 200.689 90.6009 200.636 89.7617 200.36C88.2805 199.873 86.7799 199.461 85.3786 198.759C85.0823 198.61 84.7487 198.546 84.4436 198.418C83.8931 198.187 83.4526 197.891 82.9522 197.57C82.1804 197.075 81.3837 196.554 80.5881 196.109C79.9263 195.738 79.2761 195.196 78.7133 194.685C78.2176 194.235 77.5603 193.842 76.9935 193.479C76.6972 193.289 76.3877 193.167 76.1045 192.959C75.7856 192.726 75.4873 192.328 74.7747 190.783C74.8184 190.366 74.5412 189.814 74.4375 189.412C74.3108 188.921 74.1444 188.422 73.9668 187.942C73.7265 187.291 73.344 186.631 73.0398 186.007C72.5084 184.915 71.8025 183.879 71.2068 182.822C69.6188 180.005 68.8319 176.811 67.8902 173.732C67.2058 171.494 66.3852 169.258 65.8474 166.98C65.6901 166.314 65.3847 165.708 65.2481 165.033C65.0729 164.168 64.6594 163.449 64.3802 162.624C64.1502 161.943 64.0342 161.197 63.8714 160.495C63.6152 159.392 63.3729 158.217 63.3161 157.086C63.2442 155.671 63.0091 154.304 62.9829 152.882C62.9574 151.503 62.7517 150.109 62.5936 148.739C62.5118 148.03 62.4534 147.317 62.3037 146.619C62.1591 145.947 61.9291 145.302 61.8199 144.62C61.6404 143.501 61.2467 142.569 60.9186 141.494C60.3423 139.603 60.5163 137.555 60.2005 135.624C59.907 133.829 59.6707 132.001 59.2647 130.229C59.14 129.684 59.0074 129.12 58.914 128.573C58.8131 127.981 56.9531 119.432 57.1882 119.265C57.3932 119.12 58.5216 118.462 58.9069 118.558C60.156 118.868 64.132 120.73 64.8969 121.783C65.5102 122.626 66.0381 123.502 66.7363 124.273C67.2376 124.827 67.6316 125.436 68.1019 126.015C68.6361 126.673 69.2931 127.204 69.8202 127.867C71.7398 130.279 74.4042 131.431 76.831 133.189C78.1795 134.166 79.6102 134.976 80.9205 136.022C81.6641 136.615 82.4501 137.143 83.1865 137.747C83.4745 137.984 83.7509 138.237 84.0409 138.47C84.6375 138.951 85.3389 139.226 85.9339 139.702C86.7807 140.379 87.6955 141.015 88.6309 141.558C89.3581 141.981 90.0067 142.452 90.7122 142.903C91.2432 143.243 91.8446 143.539 92.4225 143.786C92.8379 143.965 93.2165 144.123 93.6061 144.357C94.3195 144.787 95.0483 144.91 95.8117 145.195C96.7118 145.531 97.6269 145.992 98.4995 146.397C99.4854 146.854 100.459 147.337 101.362 147.953C101.92 148.333 102.481 148.713 103.03 149.107C103.597 149.514 104.06 149.989 104.659 150.356C105.143 150.652 105.624 150.887 106.103 151.192C106.33 151.336 106.472 151.373 106.674 151.576C106.906 151.81 107.132 152.044 107.386 152.259C108.526 153.222 109.379 154.369 110.347 155.509C110.884 156.141 110.972 156.863 111.151 157.654C111.255 158.111 111.233 158.6 111.323 159.071C111.409 159.525 111.343 159.979 111.351 160.437C111.363 161.178 111.543 161.886 111.535 162.627C111.527 163.374 111.592 164.141 111.493 164.881ZM160.791 128.345C160.799 130.359 160.612 132.347 160.612 134.365C160.612 135.256 160.7 136.223 160.572 137.108C160.473 137.794 160.427 138.438 160.432 139.135C160.441 140.262 160.344 141.33 160.268 142.449C160.176 143.815 160.318 145.194 160.262 146.561C160.221 147.567 160.112 148.577 160.029 149.581C159.932 150.772 159.889 151.96 159.759 153.146C159.636 154.266 159.649 155.393 159.485 156.511C159.361 157.36 159.25 158.22 159.176 159.075C159.057 160.444 158.801 161.811 158.597 163.168C158.355 164.782 157.634 166.374 157.552 168.01C157.509 168.864 157.382 169.652 157.382 170.51C157.381 170.979 157.378 171.448 157.381 171.916C157.385 172.587 157.229 173.165 157.193 173.821C157.149 174.609 157.25 175.406 157.211 176.194C157.172 176.972 156.976 177.741 156.883 178.512C156.678 180.224 156.205 181.715 155.591 183.315C155.315 184.033 155.101 184.851 154.689 185.498C154.517 185.768 154.255 185.984 154.063 186.241C153.806 186.586 153.628 186.973 153.393 187.332C152.718 188.36 151.818 189.309 151.028 190.243C150.4 190.985 149.676 191.602 148.956 192.255C147.921 193.194 146.886 194.018 145.653 194.625C143.317 195.777 141.033 196.93 138.765 198.243C137.066 199.226 135.488 200.423 133.7 201.23C132.82 201.627 131.919 201.756 130.982 201.936C129.927 202.139 128.831 202.261 127.785 202.499C127.2 202.631 126.709 202.838 126.103 202.825C125.237 202.806 124.407 202.916 123.55 203.032C122.886 203.122 122.231 203.356 121.562 203.392C120.872 203.43 120.239 203.386 119.606 203.111C119.074 202.88 118.785 202.377 118.574 201.847C118.336 201.252 118.101 200.656 118.075 199.995C118.039 199.076 117.9 198.209 117.9 197.276C117.9 196.425 117.9 195.574 117.9 194.723V192.842C117.9 192.509 117.895 192.175 117.9 191.842C117.905 191.475 117.773 191.258 117.712 190.92C117.588 190.243 117.728 189.416 117.721 188.722C117.718 188.332 117.79 188.032 117.86 187.652C117.964 187.095 117.819 186.525 117.916 185.972C118.011 185.424 118.086 185.016 118.08 184.45C118.074 183.878 118.211 183.406 118.269 182.859C118.326 182.311 118.308 181.796 118.395 181.245C118.56 180.201 118.7 179.146 118.852 178.097C119.467 173.851 119.517 169.542 119.515 165.256C119.515 164.328 119.471 163.427 119.321 162.536C119.289 162.351 119.112 162.065 119.067 161.868C119.003 161.589 118.836 161.241 118.788 160.937C118.694 160.342 118.693 159.713 118.578 159.117C118.546 158.947 118.387 158.642 118.308 158.476C118.108 158.05 118.088 157.886 117.003 156.47C117.003 155.79 117.007 155.11 117.004 154.431C117.002 154.067 116.94 153.652 117.034 153.296C117.104 153.033 117.274 152.656 117.399 152.415C117.639 151.954 118.109 151.681 118.407 151.257C118.726 150.805 118.945 150.376 119.288 149.968C119.922 149.212 120.445 148.64 121.3 148.085C121.938 147.671 122.416 147.081 123.01 146.612C123.565 146.173 124.2 145.864 124.794 145.486C125.885 144.792 126.927 144.018 127.999 143.294C129.173 142.5 130.289 141.718 131.36 140.821C132.583 139.798 134.16 139.074 135.549 138.337C138.199 136.932 140.901 135.683 143.565 134.31C144.695 133.728 145.802 133.137 146.867 132.436C147.333 132.129 147.748 131.744 148.207 131.423C148.735 131.052 149.34 130.788 149.841 130.383C151.521 129.023 152.86 127.329 154.331 125.756C155.532 124.473 156.854 123.201 157.924 121.798C158.285 121.324 158.709 120.887 159.065 120.431C159.246 120.198 159.328 119.986 159.57 119.791C159.804 119.602 160.113 119.51 160.301 119.265C160.687 119.348 160.797 120.017 160.791 120.355C160.771 121.356 161.044 122.299 160.98 123.319C160.936 124.029 160.782 124.702 160.787 125.422C160.795 126.397 160.787 127.371 160.791 128.345Z" fill="#E1421F" stroke="black" stroke-width="3.03367" stroke-linecap="round" stroke-linejoin="round"/>
<path d="M324.421 279.265C325.356 278.362 325.898 277.345 326.633 276.283C327.187 275.481 327.921 274.833 328.525 274.075C329.567 272.767 330.351 271.28 331.24 269.864C332.189 268.354 333.793 267.13 335.055 265.906C337.036 263.982 338.542 261.852 340.092 259.585C340.798 258.553 342.145 257.789 343.191 257.195C343.025 256.832 341.7 257.038 341.372 257.038C340.14 257.037 338.885 257.112 337.657 256.988C336.369 256.857 335.094 256.699 333.964 256.001C332.971 255.388 332.106 254.656 331.283 253.826C330.302 252.836 330.313 251.77 330.05 250.383C329.813 249.136 329.583 247.919 329.614 246.639C329.636 245.739 329.662 244.847 329.579 243.95C329.431 242.35 329.423 240.774 329.061 239.214C328.893 238.491 328.743 237.773 328.688 237.035C328.621 236.126 328.441 235.298 328.445 234.378C328.452 232.654 328.32 230.97 328.236 229.249C328.146 227.421 327.952 225.6 327.79 223.779C327.705 222.827 327.724 221.875 327.589 220.927C327.485 220.192 327.316 219.476 327.25 218.735C327.041 216.369 326.868 214.022 326.793 211.641C326.762 210.667 326.524 209.749 326.543 208.769C326.555 208.143 326.141 207.441 326.371 206.857C326.576 207.283 326.553 207.741 326.305 208.231C326.255 207.844 326.319 205.779 326.296 205.388C326.279 205.095 326.366 204.811 326.333 204.519C325.039 204.737 323.843 206.096 322.954 206.991C321.744 208.208 320.946 209.549 319.939 210.924C319.254 211.858 318.378 212.761 317.582 213.596C317.092 214.071 316.595 214.538 316.091 214.997C315.943 215.219 315.777 215.426 315.595 215.619C314.64 216.443 313.335 216.86 312.317 217.606C311.489 218.288 310.672 218.983 309.867 219.693C308.912 220.427 307.945 221.142 306.964 221.837C306.029 222.6 305.437 223.521 304.684 224.45C304.126 225.139 303.502 225.727 302.978 226.448C301.292 228.765 299.332 230.658 297.275 232.616C293.686 236.031 290.333 239.774 286.601 243.016C285.426 244.037 284.306 245.169 283.083 246.13C281.813 247.128 280.447 248.005 279.166 248.997C278.056 249.855 276.859 250.427 275.685 251.17C274.5 251.921 273.441 252.847 272.236 253.573C269.773 255.055 267.182 256.049 264.587 257.217C262.267 258.261 259.85 259.222 257.436 260.009C254.978 260.811 252.53 261.571 250.026 262.214C247.325 262.908 244.658 263.83 241.912 264.323C239.334 264.786 236.786 265.43 234.284 266.226C232.655 266.744 231.024 267.049 229.381 267.453C227.907 267.815 226.338 268.037 224.836 268.131C223.95 268.186 224.074 268.379 223.178 268.377C223.293 269.093 222.854 269.957 222.756 270.677C222.645 271.485 222.5 272.238 222.472 273.05C222.437 274.047 222.246 274.991 222.246 276C222.246 277.288 221.956 278.562 221.81 279.835C221.706 280.743 221.593 281.585 221.283 282.451C220.461 284.75 219.831 287.148 219.417 289.567C219.143 291.175 219.296 293.132 219.358 294.759C219.392 295.645 219.813 296.492 220.057 297.327C220.399 298.494 220.83 299.623 221.051 300.832C221.274 302.051 221.515 303.265 221.752 304.484C222.017 305.854 222.183 307.176 222.237 308.574C222.275 309.554 222.575 310.386 222.867 311.31C223.311 312.717 223.714 314.128 224.18 315.529C224.794 317.372 225.45 319.213 226.249 320.98C227.075 322.806 227.743 324.6 229.101 326.075C230.212 327.281 231.434 328.304 232.371 329.666C233.48 331.279 234.646 333.003 235.976 334.422C239.206 337.871 242.558 341.392 247.074 342.909C248.777 343.481 251.318 344.912 252.887 343.447C253.329 343.035 253.667 342.369 254.105 341.911C255.191 340.777 256.163 339.553 257.236 338.401C259.138 336.359 261.397 334.697 263.36 332.712C264.534 331.524 265.671 330.331 266.688 328.996C267.423 328.03 268.159 327.054 268.975 326.159C269.641 325.43 270.413 324.858 271.073 324.129C271.929 323.183 272.627 322.107 273.491 321.166C274.317 320.266 275.209 319.435 276.03 318.528C276.99 317.466 277.901 316.357 279.005 315.448C280.146 314.509 281.359 313.593 282.559 312.734C283.45 312.097 284.364 311.513 285.271 310.903C286.679 309.956 287.863 308.749 289.259 307.793C290.49 306.95 291.677 306.013 292.836 305.065C295.283 303.062 297.717 300.98 300.09 298.885C302.054 297.152 304.169 295.623 306.106 293.859C308.584 291.602 311.412 289.901 314.015 287.819C315.769 286.416 317.337 284.704 319.144 283.379C319.729 282.95 323.817 279.586 324.421 279.265Z" fill="#EBEBE9" stroke="black" stroke-width="3.03367" stroke-miterlimit="10"/>
<path d="M221.738 303.068C221.35 303.669 221.304 303.885 220.77 303.501C220.523 303.324 220.315 303.051 220.06 302.895C219.83 302.755 219.53 302.63 219.295 302.502C218.745 302.202 218.209 301.788 217.767 301.312C217.364 300.877 217.11 300.372 216.736 299.924C216.41 299.533 216.132 299.119 215.813 298.723C215.417 298.233 214.925 297.834 214.466 297.409C213.724 296.724 212.957 296.034 212.239 295.363C211.189 294.381 210.157 293.434 209.161 292.365C208.731 291.904 208.308 291.38 207.901 290.89C207.166 290.005 206.324 289.145 205.656 288.193C204.962 287.204 204.202 286.315 203.423 285.424C203.032 284.977 202.799 284.331 202.459 283.833C202.203 283.457 201.944 283.102 201.703 282.714C201.207 281.911 200.573 281.256 200.043 280.468C199.631 279.856 199.112 279.361 198.7 278.74C198.086 277.816 197.1 277.082 196.369 276.278C195.676 275.515 195.073 274.645 194.346 273.929C193.054 272.653 191.904 271.213 190.689 269.852C189.936 269.008 189.227 268.127 188.492 267.265C187.815 266.47 187.438 265.446 187.143 264.393C186.734 262.934 186.781 261.443 186.657 259.938C186.586 259.073 186.338 258.243 186.309 257.377C186.29 256.841 186.32 256.277 186.319 255.746C186.315 254.085 186.317 252.371 186.537 250.724C186.652 249.862 186.878 248.878 187.297 248.131C187.598 247.592 188.123 247.318 188.683 247.342C189.169 247.362 189.841 247.58 190.318 247.724C190.66 247.827 191.019 247.931 191.361 248.075C192.819 248.686 194.24 249.845 195.426 250.935C196.583 252 197.594 253.04 198.572 254.336C199.172 255.131 199.83 255.907 200.385 256.74C200.881 257.487 201.241 258.264 201.785 258.98C202.692 260.175 203.513 261.518 204.499 262.628C206.088 264.416 207.964 265.798 209.693 267.387C210.436 268.07 211.138 268.699 211.79 269.491C212.399 270.23 212.903 271.066 213.607 271.696C214.884 272.839 216.303 273.615 217.451 274.938C217.809 275.351 218.101 275.755 218.413 276.206C218.562 276.423 218.677 276.669 218.956 276.654C219.345 276.941 219.706 277.231 220.144 277.43C220.17 278.07 220.636 278.584 220.744 279.222C220.806 279.588 220.779 279.989 220.772 280.36C220.762 280.91 220.644 281.437 220.646 281.991C220.648 282.38 220.664 282.771 220.653 283.159C220.642 283.546 220.534 283.917 220.521 284.3C220.516 284.422 220.55 284.556 220.53 284.675C220.488 284.927 220.363 285.22 220.247 285.444C220.027 285.865 219.705 286.226 219.495 286.663C219.269 287.135 219.168 287.665 219.046 288.172C218.916 288.711 218.925 289.205 218.924 289.759C218.924 290.374 218.834 291.076 218.935 291.682C219 292.068 219.022 292.431 219.075 292.818C219.199 293.736 219.125 294.665 219.279 295.585C219.432 296.507 219.663 297.4 219.844 298.317C219.971 298.963 220.064 299.608 220.183 300.256C220.279 300.781 220.365 301.303 220.493 301.821C220.573 302.148 221.939 302.756 221.738 303.068Z" fill="#A3A3A3" stroke="black" stroke-width="3.03367" stroke-miterlimit="10"/>
<path d="M7.2694 261.007C5.64495 263.228 4.91184 266.56 4.48923 269.288C4.10408 271.774 3.93661 274.253 3.70315 276.737C3.62824 277.535 3.60231 278.075 3.32447 278.837C3.0786 279.511 2.75986 280.045 2.72204 280.874C2.5727 284.146 1.77312 287.31 1.53299 290.557C1.42967 291.954 1.33282 293.421 1.46515 294.813C1.56983 295.913 1.44352 297.05 1.57504 298.145C1.63011 298.604 1.78773 299.009 1.81352 299.467C1.84683 300.059 1.73669 300.636 1.7761 301.238C1.91309 303.332 2.46696 305.297 2.87543 307.329C3.84666 312.161 4.77403 317.006 6.65475 321.506C7.19158 322.791 7.99866 324.012 8.69177 325.193C10.0587 327.523 11.2377 329.979 12.6419 332.298C13.4266 333.593 14.4979 334.664 15.4068 335.864C16.2227 336.942 17.0656 337.98 18.0236 338.904C18.6466 339.505 19.0312 340.155 19.7125 340.701C20.6557 341.456 21.5843 342.231 22.5202 342.996C24.5785 344.677 26.6928 346.162 28.8023 347.744C31.6423 349.874 34.9777 351.412 38.1298 352.992C40.7438 354.302 43.5946 355.939 46.4844 356.485C49.2919 357.015 52.1567 356.696 55.0052 356.771C57.7261 356.842 60.7771 356.662 63.4667 356.016C64.0026 355.887 64.4774 355.667 65.0194 355.589C65.5017 355.52 65.8922 355.556 66.3649 355.352C66.8993 355.121 67.2993 354.685 67.804 354.394C68.6076 353.929 69.5693 353.616 70.3083 353.035C72.1943 351.553 74.0627 349.68 75.6992 347.911C77.9526 345.476 80.2025 343.088 82.215 340.441C83.6091 338.606 84.985 336.867 86.0296 334.792C86.6307 333.599 87.4012 332.531 88.0677 331.351C88.8985 329.879 89.2005 328.311 89.6384 326.67C91.2657 320.57 91.3658 313.871 91.0335 307.639C90.9562 306.189 90.9162 304.739 90.8435 303.289C90.7913 302.245 90.3654 301.101 90.4109 300.081C90.4333 299.58 90.7202 299.193 90.754 298.691C90.7814 298.286 90.6447 297.77 90.6009 297.366C90.4901 296.345 90.3683 295.266 90.3369 294.246C90.2329 290.863 89.7918 287.269 89.12 283.95C88.7009 281.879 87.7542 279.985 87.1573 277.963C86.5824 276.015 85.7376 274.111 84.9332 272.308C82.5235 266.907 79.8687 261.362 75.2901 257.616C74.1057 256.647 72.9205 255.679 71.7349 254.712C69.3134 252.736 66.6917 251.051 64.3044 249.048C63.3291 248.23 62.3498 247.597 61.2933 246.906C60.0283 246.079 58.9429 245.02 57.6547 244.222C56.789 243.685 56.0192 243.005 55.1603 242.462C53.7992 241.603 52.1667 240.943 50.6569 240.411C49.2844 239.927 47.8666 239.583 46.4684 239.185C45.3735 238.874 44.3246 238.437 43.1882 238.305C42.0916 238.177 41.0166 238.394 39.9199 238.489C38.2002 238.639 36.6555 239.416 34.9818 239.827C33.5802 240.171 32.2486 240.409 30.8662 240.933C29.0854 241.608 27.2815 242.198 25.4973 242.864C24.0319 243.41 22.6853 244.225 21.2844 244.947C18.1073 246.585 14.9621 248.81 12.7569 251.765C11.5799 253.342 10.3832 254.903 9.19367 256.47C8.5713 257.29 7.95339 258.114 7.32644 258.93C7.15227 259.156 6.82634 259.466 6.70105 259.728C6.50263 260.142 6.5539 260.61 7.2694 261.007Z" fill="#414042" stroke="black" stroke-width="3.03367" stroke-miterlimit="10"/>
<path d="M14.2454 320.378C13.4803 318.089 13.1746 315.661 12.5541 313.323C11.5824 309.662 10.962 305.838 10.7519 302.011C10.6013 299.27 10.3268 296.592 10.9532 293.87C11.2634 292.522 11.6097 291.186 11.9731 289.851C12.4975 287.924 13.3346 286.363 14.0974 284.546C14.7187 283.066 15.2731 281.957 16.266 280.674C17.4364 279.162 18.5887 277.633 19.7389 276.104C20.6417 274.904 21.542 273.853 22.6097 272.81C23.791 271.656 25.0272 270.226 26.4377 269.372C28.8512 267.911 31.0955 266.246 33.6596 265.071C35.5361 264.21 37.6082 263.499 39.5707 262.98C40.7574 262.667 42.0563 263.001 43.1832 263.256C44.3305 263.516 45.308 263.699 46.3609 264.172C48.4875 265.127 50.2895 266.468 52.129 267.971C52.9204 268.618 53.7091 269.268 54.5031 269.911C54.9869 270.303 55.3197 270.581 55.6687 271.066C56.0203 271.555 56.4655 271.792 56.8733 272.233C57.7316 273.16 58.4169 274.294 59.1546 275.337C59.9139 276.411 60.556 277.158 60.9169 278.405C61.247 279.544 61.6681 280.669 61.89 281.846C61.994 282.397 62.1355 282.868 62.2625 283.401C62.437 284.133 62.3448 284.922 62.5476 285.654C63.1902 287.97 64.0012 290.213 64.7941 292.447C65.0681 293.219 65.4885 294.085 65.6709 294.881C65.8641 295.725 65.9747 296.635 66.2597 297.487C66.7811 299.046 66.8853 300.838 67.1748 302.484C67.4401 303.992 67.501 305.574 67.6581 307.105C67.8832 309.299 68.0726 311.444 68.3866 313.617C68.6977 315.771 69.0046 317.955 69.2703 320.137C69.4756 321.823 69.5869 323.495 69.4592 325.21C69.2956 327.408 69.1919 329.539 68.1659 331.56C67.5621 332.749 67.0812 334.026 66.4281 335.17C65.6714 336.497 64.8191 337.729 64.1017 339.09C62.877 341.412 61.3155 344.075 59.2871 345.768C57.6901 347.101 55.4829 348.446 53.4085 348.573C52.2917 348.641 51.1891 348.395 50.133 348.069C48.9716 347.712 47.9504 347.154 46.8945 346.543C45.9266 345.983 44.7889 345.644 43.8717 345.008C42.1895 343.843 40.4776 342.72 38.7517 341.583C36.0938 339.832 33.8198 337.414 31.2722 335.492C30.4481 334.871 29.513 334.501 28.7094 333.83C27.3751 332.717 26.0231 331.626 24.6778 330.527C23.7586 329.776 22.8391 329.026 21.9203 328.274C21.3221 327.785 20.5475 327.325 20.0569 326.717C19.6255 326.183 19.3708 325.778 18.8198 325.336C18.4509 325.041 17.9836 324.758 17.6625 324.41C17.1573 323.864 16.8191 323.341 16.2572 322.846C15.8628 322.498 15.6861 321.819 14.2454 320.378Z" fill="#A3A3A3" stroke="black" stroke-width="3.03367" stroke-miterlimit="10"/>
<path d="M24.6992 298.019C23.5864 299.434 26.5821 301.524 27.6352 301.547C28.9598 301.576 30.3275 299.545 30.4915 298.269C30.616 297.301 30.4655 295.61 29.5678 295.046C28.9319 294.646 27.929 294.81 27.1812 294.863C25.9209 294.952 23.3146 296.995 24.3182 298.521" stroke="black" stroke-width="3.03367" stroke-miterlimit="10"/>
<path d="M28.7317 307.545C28.3365 308.694 28.1215 309.585 28.2962 310.747C28.4149 311.536 28.8595 311.721 29.6618 311.862C30.8663 312.074 32.2108 311.463 32.7845 310.231C34.0982 307.411 28.5074 304.386 27.6392 307.647C28.1555 308.126 28.7688 308.431 29.4792 308.562" stroke="black" stroke-width="3.03367" stroke-miterlimit="10"/>
<path d="M37.5377 314.241C37.199 316.174 37.4179 319.134 39.0066 320.339C39.312 320.571 39.9748 321.066 40.3824 320.955C40.5857 320.9 40.827 320.472 40.9762 320.33C41.7821 319.564 42.8283 318.746 43.1055 317.563C43.5902 315.496 41.7251 315.079 40.4088 314.464C40.1362 314.337 39.9392 314.168 39.6733 314.041C39.5679 313.991 38.9251 313.709 38.7929 313.7C38.1681 313.655 37.5327 314.34 37.0039 314.494C37.0411 314.892 37.0421 315.283 37.2447 315.628" stroke="black" stroke-width="3.03367" stroke-miterlimit="10"/>
<path d="M49.2246 313.694C49.309 314.052 49.2155 314.466 49.286 314.833C49.3468 315.149 49.5243 315.516 49.718 315.768C50.2667 316.482 51.3437 317.031 52.2138 317.122C52.954 317.2 53.4948 316.686 53.8761 316.055C54.2018 315.516 53.9958 314.768 53.9067 314.197C53.7909 313.455 53.2813 312.812 52.7299 312.373C52.2138 311.962 51.7523 311.414 51.0627 311.379C50.5811 311.354 50.4238 311.586 50.1143 311.924C49.8491 312.214 49.3702 312.54 49.2377 312.946C49.254 312.966 49.2703 312.986 49.2246 313.694Z" stroke="black" stroke-width="3.03367" stroke-miterlimit="10"/>
<path d="M53.9733 301.291C53.708 301.588 53.6586 302.251 53.5865 302.62C53.5297 302.911 53.4862 303.224 53.5057 303.521C53.5216 303.763 53.6243 304.039 53.7452 304.245C53.8212 304.375 53.9239 304.453 54.0384 304.542C54.3376 304.775 54.5843 305.046 54.8605 305.309C55.2596 305.688 55.6641 306.077 56.2043 306.215C56.49 306.288 56.7953 306.417 57.0916 306.31C57.7535 306.07 58.1028 305.355 58.3751 304.734C58.771 303.829 58.6241 302.824 58.1662 302.005C57.9586 301.634 57.8086 301.341 57.4792 301.079C57.2073 300.862 56.9451 300.632 56.6717 300.417C56.3501 300.165 55.8981 299.908 55.497 300.079C55.3649 300.135 55.2425 300.163 55.1238 300.263C55.0075 300.361 54.7561 300.514 53.9733 301.291Z" stroke="black" stroke-width="3.03367" stroke-miterlimit="10"/>
<path d="M50.973 289.755C50.8829 289.873 50.7475 289.997 50.6983 290.14C50.5921 290.449 50.6359 290.866 50.774 291.139C51.0591 291.704 51.6625 292.038 52.1323 292.424C52.5827 292.793 53.09 293.114 53.6756 293.198C53.9134 293.233 54.2014 293.198 54.414 293.059C54.9301 292.723 55.3935 292.139 55.7568 291.636C56.3337 290.836 56.5648 289.57 56.0749 288.71C55.864 288.339 55.4076 288.05 55.0385 287.871C54.7434 287.728 54.4326 287.758 54.1103 287.788C53.7786 287.818 53.4541 287.908 53.1272 287.944C52.8054 287.979 52.6131 288.052 52.3207 288.207C52.0941 288.328 51.8129 288.451 51.6139 288.619C51.4893 288.724 51.3916 288.9 50.973 289.755Z" stroke="black" stroke-width="3.03367" stroke-miterlimit="10"/>
<path d="M45.2277 279.157C45.181 279.524 45.1751 279.884 45.2033 280.25C45.2383 280.705 45.3461 280.957 45.5449 281.356C45.834 281.936 46.1945 282.562 46.8891 282.61C47.6019 282.66 48.4027 282.356 48.9905 281.94C49.9067 281.291 50.9938 280.428 50.8862 279.14C50.8548 278.765 50.7327 278.401 50.5501 278.082C50.3477 277.727 50.0128 277.545 49.6627 277.358C48.8625 276.931 47.7211 277.042 46.8423 277.093C46.1931 277.131 45.5752 277.33 45.0944 277.825C44.8729 278.053 44.4978 278.658 45.2277 279.157Z" stroke="black" stroke-width="3.03367" stroke-miterlimit="10"/>
<path d="M37.9094 281.723C37.8729 281.845 37.9062 282.06 37.9047 282.199C37.9009 282.537 37.9843 282.998 38.1484 283.288C38.3757 283.69 38.91 284.086 39.3417 284.227C39.8416 284.39 40.4725 284.189 40.9302 283.953C41.4691 283.676 41.8026 283.159 42.071 282.613C42.4319 281.878 42.6727 280.654 42.099 279.984C41.4306 279.202 40.5574 279.12 39.5998 279.338C38.7122 279.541 37.8589 280.117 37.2799 280.872C37.1069 281.098 36.981 281.391 37.9094 281.723Z" stroke="black" stroke-width="3.03367" stroke-miterlimit="10"/>
<path d="M29.3551 285.993C28.8672 286.775 28.5266 287.715 29.0758 288.539C29.59 289.31 30.2592 290.478 31.2834 290.561C32.0222 290.622 32.8007 289.917 33.2427 289.36C33.853 288.59 34.5704 287.6 34.2115 286.57C33.9743 285.89 33.5514 285.231 32.9358 284.867C32.7344 284.748 32.4965 284.651 32.2801 284.56C32.0185 284.451 31.7166 284.494 31.4344 284.496C31.1605 284.499 30.7812 284.584 30.5465 284.752C30.4578 284.816 30.4157 284.918 30.336 284.99C30.2875 285.033 30.254 285.005 30.2048 285.04C30.0983 285.115 30.0524 285.178 29.3551 285.993Z" stroke="black" stroke-width="3.03367" stroke-miterlimit="10"/>
<path d="M19.3292 264.695C20.0704 263.821 21.0071 263.123 21.7841 262.276C22.4341 261.568 23.0475 260.823 23.6897 260.106C24.606 259.083 25.5399 258.105 26.3073 256.955C26.9427 256.003 27.5944 255.079 28.054 254.024C28.2301 253.62 28.1129 253.604 27.7041 253.516C26.7835 253.319 25.8005 253.078 24.8524 253.112C23.418 253.163 22.0153 253.157 20.5861 253.09C20.128 253.069 19.669 253.07 19.2146 253.01C18.8315 252.959 18.4455 252.902 18.0562 252.954C17.7628 252.994 17.5041 253.135 17.2153 253.043" stroke="black" stroke-width="3.03367" stroke-miterlimit="10"/>
<path d="M38.8149 257.906C39.9297 257.2 41.0911 256.517 42.3126 256.041C43.0251 255.764 43.7632 255.574 44.4746 255.292C45.1346 255.03 45.7708 254.706 46.4286 254.437C47.4691 254.01 48.4315 253.352 49.3745 252.721C49.7271 252.486 50.1694 252.242 50.4831 251.964C50.4193 251.424 49.8592 251.006 49.4949 250.687C48.7725 250.054 48.0609 249.332 47.2204 248.866C46.3743 248.397 45.4651 248.142 44.6474 247.619C44.2041 247.336 43.8511 246.914 43.4058 246.631C43.0729 246.419 42.7163 246.258 42.3867 246.073C42.1533 245.943 41.9608 245.798 41.7025 245.694C41.4664 245.6 41.1967 245.627 40.9442 245.55C41.1777 245.881 41.4671 246.154 41.8123 246.369" stroke="black" stroke-width="3.03367" stroke-miterlimit="10"/>
<path d="M57.6992 266.716C58.4019 266.844 59.0768 267.104 59.7783 267.249C60.5281 267.404 61.262 267.688 62.0002 267.899C62.9305 268.164 64.0661 268.218 64.9175 268.703C65.8561 269.239 66.8304 269.492 67.832 269.881C69.2878 270.448 70.7352 271.257 72.33 271.333C72.0686 270.504 71.5147 269.822 71.0943 269.087C70.646 268.304 70.2587 267.478 69.8455 266.673C69.1403 265.299 68.7919 263.768 68.1077 262.39C67.8859 261.943 67.6289 261.517 67.4394 261.054C67.2849 260.676 67.1269 260.317 66.9008 259.992C66.7169 259.727 66.5496 259.451 66.3585 259.208C66.2362 259.052 65.8809 258.727 65.8892 258.519" stroke="black" stroke-width="3.03367" stroke-miterlimit="10"/>
<path d="M69.4609 285.649C70.1248 285.847 70.614 286.288 71.1453 286.724C71.883 287.33 72.6348 287.919 73.3658 288.533C74.1315 289.176 74.7797 289.948 75.5269 290.611C76.2435 291.247 77.0166 291.859 77.7719 292.446C78.5093 293.019 79.285 293.525 80.011 294.117C80.2604 294.32 80.5095 294.524 80.7588 294.728C81.2919 295.163 81.7161 295.656 82.2456 296.092C82.5147 296.314 82.8398 296.705 83.2235 296.66C83.5054 296.627 83.8069 296.231 83.9621 296.007C84.4909 295.242 84.7018 294.063 84.6955 293.145C84.6892 292.219 84.4993 291.305 84.3036 290.413C84.1431 289.681 83.9232 288.939 83.6956 288.229C83.4467 287.453 83.2877 286.673 83.1136 285.874C82.902 284.902 82.7042 283.89 82.42 282.941C82.3463 282.695 82.261 282.452 82.1876 282.209C82.1344 282.032 82.1373 281.869 81.9818 281.741" stroke="black" stroke-width="3.03367" stroke-miterlimit="10"/>
<path d="M75.6562 314.32C76.0254 314.84 76.3651 315.38 76.7488 315.891C77.2748 316.591 77.8703 317.232 78.4581 317.876C79.2234 318.714 80.075 319.48 80.8072 320.346C81.2249 320.839 81.5885 321.392 82.012 321.884C82.143 322.037 82.2984 322.157 82.4568 322.283C82.6569 322.443 82.6199 322.446 82.8023 322.299C83.7498 321.533 84.2443 320.311 84.492 319.126C84.7456 317.912 84.6713 316.661 85.0569 315.494C85.4662 314.256 85.5782 312.849 85.761 311.566C85.8365 311.035 85.8623 310.475 85.9813 309.951C86.0274 309.749 86.0741 309.425 86.2312 309.274" stroke="black" stroke-width="3.03367" stroke-miterlimit="10"/>
<path d="M69.6507 338.889C69.8387 339.876 69.4782 340.983 69.4517 341.984C69.4243 343.022 69.43 344.065 69.3897 345.101C69.3667 345.692 69.3532 346.283 69.3282 346.876C69.3177 347.124 69.2526 347.344 69.2283 347.592C69.1869 348.013 69.3354 348.446 69.4479 348.837C69.7111 348.89 70.269 347.852 70.4129 347.671C71.0285 346.901 71.8149 346.285 72.5417 345.636C73.5125 344.769 74.5668 343.912 75.3563 342.853C75.7578 342.315 76.1832 341.912 76.6704 341.451C76.9707 341.167 77.2038 340.785 77.4559 340.453" stroke="black" stroke-width="3.03367" stroke-miterlimit="10"/>
<path d="M76.8002 327.435C76.7604 328.157 76.8582 328.879 76.9346 329.591C77.0551 330.715 77.105 331.834 77.1321 332.967C77.1531 333.845 77.0003 334.735 77.0354 335.594C77.0524 336.012 77.0581 336.343 77.5648 336.094C78.3381 335.714 79.0845 335.078 79.713 334.477C80.386 333.834 80.998 333.086 81.6069 332.378C82.151 331.746 82.6321 331.043 83.1383 330.376C83.4906 329.913 83.8327 329.502 84.0822 328.989C84.2098 328.727 84.4156 328.508 84.5908 328.278C84.88 327.899 85.1679 327.518 85.4564 327.138" stroke="black" stroke-width="3.03367" stroke-miterlimit="10"/>
<path d="M114.748 308.531C112.759 313.591 114.132 319.429 115.206 324.574C115.478 325.876 116.221 326.924 116.439 328.229C116.6 329.189 117.018 330.016 117.244 330.94C117.415 331.64 117.465 332.247 117.717 332.942C118.133 334.09 118.329 335.181 119.085 336.186C119.407 336.616 119.822 336.981 120.126 337.424C120.52 337.995 120.711 338.665 121.14 339.223C121.781 340.058 122.226 340.913 122.793 341.765C123.359 342.617 124.133 343.387 124.78 344.178C127.079 346.992 129.257 349.871 131.995 352.226C132.726 352.856 133.262 353.507 134.072 354.007C135.077 354.627 136.159 354.994 137.299 355.335C138.27 355.627 139.22 355.989 140.167 356.352C141.575 356.891 143.176 357.17 144.659 357.493C145.746 357.73 146.917 357.758 148.001 357.883C149.178 358.019 150.339 358.337 151.53 358.374C152.61 358.407 153.706 358.645 154.771 358.591C155.904 358.533 156.971 358.199 158.092 358.177C158.836 358.162 159.384 357.795 160.122 357.729C161.232 357.628 162.173 357.494 163.264 357.232C164.31 356.981 165.272 356.671 166.29 356.327C167.765 355.83 168.993 355.64 170.334 354.724C171.553 353.892 172.941 353.284 174.073 352.325C175.493 351.12 176.97 349.897 178.25 348.536C180.839 345.785 183.518 342.691 185.052 339.134C186.959 334.713 188.687 330.203 189.405 325.409C189.544 324.484 189.642 323.625 189.733 322.704C189.835 321.664 189.733 320.63 189.978 319.624C190.134 318.986 190.211 318.465 190.183 317.806C190.145 316.918 190.39 316.198 190.4 315.319C190.418 313.793 190.257 312.262 190.344 310.734C190.515 307.74 189.999 304.784 189.391 301.866C189.19 300.9 188.843 299.835 188.538 298.889C188.289 298.115 187.98 297.132 187.58 296.431C187.621 295.294 187.593 294.667 187.343 293.573C187.086 292.451 187.249 291.248 186.898 290.179C186.252 288.209 185.063 286.057 183.774 284.498C181.142 281.314 178.388 278.256 174.847 276.166C173.145 275.162 171.318 274.467 169.629 273.521C167.46 272.305 164.805 271.489 162.455 270.698C159.128 269.578 155.417 268.248 151.971 269.033C151.082 269.236 149.947 269.16 149.025 269.257C148.123 269.351 147.192 269.352 146.304 269.547C144.047 270.041 141.629 271.175 139.709 272.497C137.365 274.11 134.851 275.466 132.523 277.108C130.975 278.199 129.322 279.021 127.709 280.01C127.159 280.346 126.732 280.884 126.231 281.292C125.636 281.777 124.936 282.015 124.338 282.49C123.358 283.268 122.444 284.172 121.499 284.996C120.183 286.143 118.94 287.377 117.967 288.86C117.534 289.52 116.996 290.224 116.638 290.922C116.276 291.626 116.218 292.569 116.013 293.353C115.463 295.453 115.012 297.546 114.416 299.629C114.016 301.027 113.894 302.501 113.503 303.905C113.17 305.105 113.333 306.28 113.455 307.467C113.544 308.338 114.437 307.692 114.748 308.531Z" fill="#414042" stroke="black" stroke-width="3.03367" stroke-miterlimit="10"/>
<path d="M132.295 290.027C131.321 291.767 130.412 293.563 129.369 295.26C128.989 295.878 128.727 296.317 128.495 297.049C127.98 298.666 127.802 300.397 127.49 302.06C126.924 305.082 126.612 308.092 125.775 311.04C125.596 311.672 125.628 311.97 125.622 312.57C125.611 313.763 125.334 314.95 125.159 316.126C124.95 317.533 124.809 318.929 124.812 320.356C124.815 321.979 125.115 323.569 125.295 325.174C125.494 326.951 125.858 328.136 126.522 329.737C127.687 332.546 129.136 335.282 130.74 337.844C132.362 340.434 133.792 343.179 135.45 345.739C136.187 346.877 137.398 348.019 138.599 348.556C140.042 349.201 141.463 349.994 143.057 349.943C144.835 349.886 146.625 349.767 148.4 349.675C151.259 349.526 153.653 348.189 156.006 346.572C157.826 345.322 159.15 342.998 160.37 341.153C161.78 339.021 163.185 336.947 164.64 334.858C165.632 333.434 166.762 332.12 167.473 330.506C168.389 328.431 168.758 326.395 168.835 324.131C168.857 323.485 169.002 322.846 168.986 322.201C168.969 321.528 168.756 320.884 168.733 320.209C168.697 319.17 168.521 318.219 168.458 317.184C168.3 314.607 168.333 311.948 168.026 309.364C167.708 306.697 166.966 303.772 166.091 301.258C165.628 299.927 164.546 298.677 163.78 297.519C163.314 296.815 162.816 296.21 162.276 295.549C161.505 294.604 160.738 293.628 159.888 292.753C158.911 291.747 157.754 290.921 156.811 289.878C155.625 288.565 153.933 288.051 152.21 287.919C151.06 287.832 149.927 287.432 148.796 287.367C147.665 287.302 146.433 287.458 145.308 287.566C142.863 287.8 140.657 288.094 138.316 288.898C137.662 289.123 136.793 289.483 136.22 289.754C135.746 289.978 134.847 290.283 132.295 290.027Z" fill="#A3A3A3" stroke="black" stroke-width="3.03367" stroke-miterlimit="10"/>
<path d="M143.923 302.027C142.885 302.906 144.871 305.006 145.666 305.205C146.667 305.456 147.982 304.153 148.281 303.215C148.508 302.503 148.626 301.196 148.022 300.614C147.595 300.202 146.812 300.153 146.238 300.064C145.27 299.914 143.013 301.012 143.565 302.341" stroke="black" stroke-width="3.03367" stroke-miterlimit="10"/>
<path d="M137.384 309.722C137.399 310.008 137.271 310.305 137.274 310.595C137.277 310.845 137.362 311.154 137.474 311.378C137.792 312.013 138.534 312.615 139.181 312.834C139.732 313.02 140.212 312.724 140.588 312.312C140.909 311.961 140.855 311.359 140.866 310.911C140.879 310.329 140.581 309.753 140.223 309.326C139.888 308.925 139.613 308.431 139.095 308.285C138.733 308.184 138.582 308.332 138.301 308.535C138.06 308.708 137.652 308.873 137.496 309.157C137.506 309.175 137.516 309.194 137.384 309.722Z" stroke="black" stroke-width="3.03367" stroke-miterlimit="10"/>
<path d="M136.523 319.197C136.439 319.271 136.319 319.341 136.262 319.441C136.139 319.657 136.116 319.98 136.183 320.212C136.322 320.689 136.733 321.046 137.037 321.419C137.328 321.776 137.669 322.106 138.101 322.272C138.277 322.339 138.5 322.362 138.68 322.294C139.118 322.128 139.549 321.766 139.893 321.447C140.441 320.941 140.789 320.021 140.536 319.285C140.426 318.969 140.12 318.671 139.865 318.471C139.66 318.312 139.42 318.282 139.172 318.248C138.916 318.214 138.658 318.226 138.405 318.197C138.156 318.168 138.001 318.19 137.757 318.257C137.569 318.309 137.339 318.355 137.165 318.447C137.056 318.505 136.958 318.622 136.523 319.197Z" stroke="black" stroke-width="3.03367" stroke-miterlimit="10"/>
<path d="M139.735 329.209C138.697 330.089 140.683 332.189 141.478 332.388C142.479 332.638 143.794 331.336 144.093 330.398C144.32 329.686 144.438 328.379 143.834 327.797C143.407 327.384 142.624 327.336 142.05 327.247C141.082 327.097 138.825 328.195 139.377 329.524" stroke="black" stroke-width="3.03367" stroke-miterlimit="10"/>
<path d="M148.892 329.999C148.435 330.801 148.15 331.439 148.123 332.348C148.105 332.967 148.417 333.184 149.006 333.429C149.89 333.797 150.993 333.566 151.597 332.732C152.98 330.823 149.155 327.567 148.049 329.888C148.375 330.339 148.799 330.676 149.319 330.898" stroke="black" stroke-width="3.03367" stroke-miterlimit="10"/>
<path d="M155.074 323.606C154.832 323.786 154.703 324.279 154.598 324.546C154.515 324.757 154.439 324.987 154.413 325.215C154.392 325.401 154.432 325.628 154.496 325.805C154.536 325.916 154.603 325.993 154.677 326.08C154.872 326.308 155.022 326.556 155.196 326.803C155.446 327.159 155.7 327.524 156.091 327.721C156.297 327.826 156.511 327.976 156.751 327.946C157.285 327.879 157.648 327.398 157.94 326.974C158.364 326.357 158.39 325.57 158.155 324.871C158.049 324.554 157.975 324.306 157.761 324.051C157.585 323.84 157.418 323.62 157.24 323.41C157.03 323.164 156.723 322.891 156.395 322.951C156.287 322.971 156.191 322.971 156.087 323.026C155.985 323.081 155.774 323.153 155.074 323.606Z" stroke="black" stroke-width="3.03367" stroke-miterlimit="10"/>
<path d="M158.363 315.868C158.279 315.942 158.159 316.013 158.102 316.113C157.979 316.329 157.955 316.652 158.023 316.883C158.161 317.36 158.573 317.717 158.877 318.09C159.168 318.447 159.508 318.778 159.941 318.943C160.117 319.01 160.34 319.033 160.52 318.965C160.957 318.8 161.389 318.437 161.733 318.118C162.28 317.612 162.629 316.693 162.375 315.957C162.266 315.64 161.96 315.342 161.704 315.143C161.5 314.983 161.26 314.953 161.012 314.92C160.756 314.885 160.498 314.898 160.245 314.868C159.996 314.839 159.84 314.862 159.597 314.929C159.409 314.981 159.179 315.026 159.005 315.119C158.896 315.177 158.798 315.293 158.363 315.868Z" stroke="black" stroke-width="3.03367" stroke-miterlimit="10"/>
<path d="M158.061 309.164C158.016 309.251 158.012 309.419 157.992 309.524C157.943 309.78 157.943 310.143 158.027 310.391C158.145 310.735 158.496 311.127 158.804 311.308C159.161 311.518 159.666 311.474 160.046 311.375C160.493 311.257 160.816 310.923 161.095 310.556C161.469 310.062 161.819 309.177 161.476 308.57C161.076 307.863 160.425 307.649 159.669 307.65C158.968 307.65 158.242 307.939 157.7 308.411C157.538 308.553 157.402 308.753 158.061 309.164Z" stroke="black" stroke-width="3.03367" stroke-miterlimit="10"/>
<path d="M154.044 299.766C153.566 300.274 153.18 300.927 153.483 301.646C153.767 302.319 154.115 303.319 154.88 303.559C155.432 303.732 156.119 303.332 156.531 302.987C157.099 302.509 157.778 301.883 157.647 301.041C157.561 300.484 157.33 299.913 156.913 299.531C156.777 299.406 156.61 299.291 156.458 299.185C156.275 299.057 156.04 299.037 155.825 298.991C155.617 298.946 155.318 298.945 155.117 299.031C155.041 299.064 154.995 299.135 154.925 299.175C154.882 299.199 154.861 299.172 154.819 299.19C154.728 299.229 154.684 299.268 154.044 299.766Z" stroke="black" stroke-width="3.03367" stroke-miterlimit="10"/>
<path d="M131.55 284.961C132.722 284.414 133.787 283.943 134.912 283.326C135.332 283.095 135.183 283.15 135.594 283.045C135.94 282.958 136.645 282.999 136.842 282.573C137.054 282.115 136.23 280.687 135.822 280.315C135.491 280.012 135.267 280.044 134.946 279.798C134.602 279.536 134.476 279.079 134.104 278.83L133.864 278.966" stroke="black" stroke-width="3.03367" stroke-miterlimit="10"/>
<path d="M147.681 281.341C149.751 280.841 151.994 280.16 153.943 279.257C154.471 279.012 155.898 278.639 155.755 277.791C155.679 277.337 154.901 276.685 154.648 276.37C154.183 275.792 153.804 275.468 153.229 275.036C152.72 274.654 152.469 274.024 151.969 273.654C151.774 273.509 151.576 273.516 151.387 273.372C151.09 273.147 150.96 272.716 150.668 272.507C150.295 272.241 149.732 272.367 149.68 271.764" stroke="black" stroke-width="3.03367" stroke-miterlimit="10"/>
<path d="M162.28 288.308C163.342 288.817 164.428 289.096 165.478 289.59C166.056 289.862 166.53 290.221 167.157 290.385C168.191 290.654 169.215 290.693 170.252 290.884C171.397 291.095 174.095 292.262 174.623 290.716C175.322 288.667 173.788 286.821 172.614 285.381C171.431 283.929 170.244 282.48 169.059 281.029" stroke="black" stroke-width="3.03367" stroke-miterlimit="10"/>
<path d="M171.26 302.416C172.257 303.603 173.384 304.604 174.423 305.742C175.226 306.624 175.822 307.575 176.739 308.345C177.326 308.838 177.754 309.33 178.239 309.922C178.543 310.293 179.072 311.251 179.529 311.318C179.917 310.365 179.931 308.979 180.118 307.94C180.268 307.112 180.457 306.287 180.604 305.459C180.808 304.313 180.973 303.186 181.22 302.046C181.4 301.214 181.396 300 181.842 299.274" stroke="black" stroke-width="3.03367" stroke-miterlimit="10"/>
<path d="M173.004 323.765C173.681 325.34 174.745 326.863 175.773 328.22C176.512 329.195 177.428 330.007 177.947 331.113C178.352 331.977 179.213 333.278 180.009 333.844C180.756 333.188 181.289 332.05 181.835 331.225C182.371 330.415 182.913 329.621 183.24 328.675C183.607 327.612 183.824 326.471 184.182 325.395C184.426 324.664 184.853 323.953 184.914 323.195C185.281 323.146 185.359 323.444 185.148 324.091" stroke="black" stroke-width="3.03367" stroke-miterlimit="10"/>
<path d="M168.569 339.105C167.855 341.139 167.633 343.794 167.949 345.939C168.1 346.962 168.336 347.931 168.358 348.972C168.372 349.601 168.088 350.209 168.179 350.822C168.496 350.957 171.604 346.597 172.153 346.065C173.245 345.005 174.461 344.046 175.603 343.042" stroke="black" stroke-width="3.03367" stroke-miterlimit="10"/>
<path d="M158.505 350.152C156.998 350.707 155.423 351.363 154.113 352.24C153.232 352.83 152.249 353.468 151.433 354.152C151.046 354.477 150.402 354.927 150.14 355.348C151.06 355.556 152.058 355.8 152.998 355.885C154.002 355.977 154.827 355.544 155.8 355.39C156.621 355.26 157.326 355.435 158.149 355.488C158.692 355.522 159.674 355.386 160.124 355.769" stroke="black" stroke-width="3.03367" stroke-miterlimit="10"/>
<path d="M105.119 31.781C105.084 32.1707 105.236 32.5322 105.248 32.9193C105.269 33.5883 105.377 34.2265 105.373 34.9072C105.37 35.5171 105.367 36.127 105.373 36.7368C105.378 37.184 105.259 37.5831 105.24 38.0223C105.213 38.6646 105.26 39.3152 105.25 39.9583C105.239 40.6741 105.146 41.392 105.098 42.1075C105.037 43.018 104.742 43.8946 104.645 44.8025C104.553 45.6757 104.527 46.5724 104.492 47.4506C104.426 49.096 104.097 50.7286 103.889 52.358C103.789 53.1381 103.964 53.9462 103.836 54.7204C103.715 55.4497 103.739 56.1538 103.738 56.9C103.738 58.21 103.738 59.52 103.738 60.83C103.738 64.2084 104.77 68.3799 104.213 71.6458C104.164 71.9326 104.111 72.1628 104.112 72.4631C104.115 72.9714 104.142 73.515 104.269 74.0047C104.419 74.5815 104.709 74.7058 105.199 74.9748C105.738 75.2712 106.403 75.5869 106.986 75.3098C107.656 74.9911 108.374 74.2725 108.938 73.7506C109.988 72.779 110.902 71.4686 111.721 70.2509C113.308 67.8883 114.602 65.261 116.045 62.7855C116.677 61.7017 117.405 60.6037 117.922 59.4463C118.282 58.6399 118.281 58.1274 118.427 57.2835C118.495 56.8911 118.666 56.4455 118.686 56.0524C118.714 55.4729 118.44 54.9662 118.196 54.485C118.036 54.1717 117.951 53.99 117.657 53.8695C117.463 53.9006 117.27 53.8906 117.077 53.8397L116.437 53.8198C115.052 53.8552 113.567 54.7545 112.404 55.554C111.61 56.1008 111.067 56.9425 110.353 57.59C110.134 57.7892 109.868 57.941 109.653 58.1473C109.394 58.3959 109.182 58.7338 108.942 59.0047C108.638 59.3464 108.298 59.6805 108.009 60.0421C107.382 60.8258 106.983 61.733 106.682 62.724C106.33 63.887 105.859 64.9945 105.249 65.9923C104.887 66.5836 104.738 67.3481 104.621 68.0276C104.584 68.2413 104.505 68.4043 104.485 68.626C104.462 68.8753 104.501 69.0835 104.464 69.3351C104.43 69.5651 104.379 69.7521 104.367 69.9881C104.338 70.5543 104.222 71.0401 104.136 71.5942C104.057 72.1042 104.059 73.0863 104.523 73.3511C104.554 73.2416 104.586 73.1322 103.989 75.0069C103.021 74.1291 102.118 73.2884 100.985 72.7006C100.498 72.4482 99.9952 72.2351 99.4931 72.0253C98.5181 71.618 97.4805 71.2668 96.6749 70.4932C95.8871 69.7367 95.3134 68.8036 94.7324 67.8526C94.0487 66.7337 93.294 65.6739 92.6117 64.5528C91.9532 63.4708 91.2926 62.3596 90.6809 61.242C90.3754 60.6838 90.1056 60.1018 89.8811 59.4973C89.6437 58.8584 89.5393 58.2031 89.3895 57.5339C89.2579 56.9459 89.0468 56.3732 89.0286 55.7625C89.0071 55.0434 89.4516 54.2457 89.8053 53.6905C90.3412 52.8492 91.4179 52.2234 92.3474 52.371C93.003 52.4752 93.8783 52.9747 94.4978 53.288C95.0007 53.5423 95.6772 53.8623 95.9346 54.479C96.1058 54.8893 96.2131 55.5391 96.3439 55.9155C96.6401 56.768 97.0022 57.6319 97.3463 58.4645C97.8358 59.649 98.4954 60.6364 99.3175 61.5228C99.8063 62.0498 100.407 62.438 100.899 62.9647C101.901 64.0369 102.783 65.2744 103.471 66.64" fill="#07B93D"/>
<path d="M105.119 31.781C105.084 32.1707 105.236 32.5322 105.248 32.9193C105.269 33.5883 105.377 34.2265 105.373 34.9072C105.37 35.5171 105.367 36.127 105.373 36.7368C105.378 37.184 105.259 37.5831 105.24 38.0223C105.213 38.6646 105.26 39.3152 105.25 39.9583C105.239 40.6741 105.146 41.392 105.098 42.1075C105.037 43.018 104.742 43.8946 104.645 44.8025C104.553 45.6757 104.527 46.5724 104.492 47.4506C104.426 49.096 104.097 50.7286 103.889 52.358C103.789 53.1381 103.964 53.9462 103.836 54.7204C103.715 55.4497 103.739 56.1538 103.738 56.9C103.738 58.21 103.738 59.52 103.738 60.83C103.738 64.2084 104.77 68.3799 104.213 71.6458C104.164 71.9326 104.111 72.1628 104.112 72.4631C104.115 72.9714 104.142 73.515 104.269 74.0047C104.419 74.5815 104.709 74.7058 105.199 74.9748C105.738 75.2712 106.403 75.5869 106.986 75.3098C107.656 74.9911 108.374 74.2725 108.938 73.7506C109.988 72.779 110.902 71.4686 111.721 70.2509C113.308 67.8883 114.602 65.261 116.045 62.7855C116.677 61.7017 117.405 60.6037 117.922 59.4463C118.282 58.6399 118.281 58.1274 118.427 57.2835C118.495 56.8911 118.666 56.4455 118.686 56.0524C118.714 55.4729 118.44 54.9662 118.196 54.485C118.036 54.1717 117.951 53.99 117.657 53.8695C117.463 53.9006 117.27 53.8906 117.077 53.8397L116.437 53.8198C115.052 53.8552 113.567 54.7545 112.404 55.554C111.61 56.1008 111.067 56.9425 110.353 57.59C110.134 57.7892 109.868 57.941 109.653 58.1473C109.394 58.3959 109.182 58.7338 108.942 59.0047C108.638 59.3464 108.298 59.6805 108.009 60.0421C107.382 60.8258 106.983 61.733 106.682 62.724C106.33 63.887 105.859 64.9945 105.249 65.9923C104.887 66.5836 104.738 67.3481 104.621 68.0276C104.584 68.2413 104.505 68.4043 104.485 68.626C104.462 68.8753 104.501 69.0835 104.464 69.3351C104.43 69.5651 104.379 69.7521 104.367 69.9881C104.338 70.5543 104.222 71.0401 104.136 71.5942C104.057 72.1042 104.059 73.0863 104.523 73.3511C104.554 73.2416 104.586 73.1322 103.989 75.0069C103.021 74.1291 102.118 73.2884 100.985 72.7006C100.498 72.4482 99.9952 72.2351 99.4931 72.0253C98.5181 71.618 97.4805 71.2668 96.6749 70.4932C95.8871 69.7367 95.3134 68.8036 94.7324 67.8526C94.0487 66.7337 93.294 65.6739 92.6117 64.5528C91.9532 63.4708 91.2926 62.3596 90.6809 61.242C90.3754 60.6838 90.1056 60.1018 89.8811 59.4973C89.6437 58.8584 89.5393 58.2031 89.3895 57.5339C89.2579 56.9459 89.0468 56.3732 89.0286 55.7625C89.0071 55.0434 89.4516 54.2457 89.8053 53.6905C90.3412 52.8492 91.4179 52.2234 92.3474 52.371C93.003 52.4752 93.8783 52.9747 94.4978 53.288C95.0007 53.5423 95.6772 53.8623 95.9346 54.479C96.1058 54.8893 96.2131 55.5391 96.3439 55.9155C96.6401 56.768 97.0022 57.6319 97.3463 58.4645C97.8358 59.649 98.4954 60.6364 99.3175 61.5228C99.8063 62.0498 100.407 62.438 100.899 62.9647C101.901 64.0369 102.783 65.2744 103.471 66.64" stroke="black" stroke-width="3.03367" stroke-linecap="round" stroke-linejoin="round"/>
<path d="M104.994 35.1823C104.407 36.1339 103.967 37.1421 103.439 38.1292C103.266 38.4522 103.071 38.7357 102.859 39.0262C102.373 39.6925 101.85 40.3657 101.41 41.0541C101.115 41.5146 100.669 42.1845 100.209 42.4519C99.8111 42.6835 99.2084 42.5644 98.7774 42.5567C98.375 42.5496 97.872 42.5726 97.5552 42.2534C96.3907 41.0799 96.0914 39.1827 95.5759 37.6165C95.2811 36.7209 94.9656 35.8341 94.8398 34.8809C94.7637 34.3039 94.8983 33.7044 94.9399 33.1278C95.0057 32.2178 95.1471 31.1727 95.521 30.3459C95.8377 29.6454 96.3807 29.0624 96.8926 28.5464C97.33 28.1055 97.7962 27.7234 98.3001 27.3857C98.6573 27.1463 99.1596 26.78 99.5925 26.7864C98.4424 27.4275 97.3467 28.1767 96.2112 28.8478C95.3323 29.3672 94.3402 29.6264 93.4024 29.9806C92.7793 30.2159 92.2816 30.2212 91.6372 30.1178C90.8901 29.998 90.457 29.4094 89.9637 28.8001C89.1501 27.7949 88.3209 26.8476 87.5728 25.7713C86.8679 24.7571 86.1591 23.6911 85.5784 22.5779C84.9429 21.3598 84.3148 19.0295 85.5185 17.9808C86.221 17.3687 87.3906 16.8379 88.2895 17.049C88.589 17.1193 88.9042 17.3435 89.1738 17.4913C89.7397 17.8016 90.3042 18.1153 90.8737 18.4173C91.1579 18.5681 91.4898 18.6686 91.7487 18.8727C91.8943 18.9874 92.0293 19.1642 92.1808 19.2862C92.6981 19.703 93.2678 20.0296 93.7865 20.4311C94.2351 20.7784 94.5684 21.3058 95.0724 21.5745C95.2201 21.6532 95.3627 21.6619 95.5021 21.7828C95.6039 21.8711 95.6757 21.9888 95.777 22.0781C95.9637 22.2427 96.2564 22.3914 96.4824 22.4789C96.6364 22.0455 96.0938 21.1989 95.902 20.8347C95.2988 19.6891 94.4521 18.6727 93.7054 17.6536C93.1826 16.9403 92.5441 16.204 92.1814 15.3522C91.9635 14.8406 91.8148 14.2943 91.5932 13.7825C91.3913 13.4098 91.2184 13.0208 91.0746 12.6154C90.9783 12.1931 90.8806 11.7712 90.7815 11.3497C90.5792 10.5721 90.329 9.81705 90.0467 9.07455C89.7954 8.41367 89.7665 7.66284 89.6988 6.95753C89.6513 6.46214 89.6253 6.11813 89.9061 5.71563C90.4229 4.97495 91.2382 4.56693 92.0514 4.75823C92.8705 4.95093 93.7859 5.32798 94.56 5.68979C95.1229 5.95292 95.5537 6.25438 95.693 6.94725C95.8224 7.59067 95.797 8.26213 95.9509 8.9159C96.0993 9.54655 96.2887 10.182 96.4811 10.7971C96.8479 11.9705 97.3669 13.1208 97.4766 14.36C97.7384 14.4521 98.2579 12.1545 98.3171 11.9262C98.6685 10.5716 98.7225 9.25139 98.8507 7.86906C98.9142 7.185 99.224 6.60214 99.4695 5.98041C99.6992 5.39842 99.9386 4.70835 100.301 4.20929C100.878 3.41558 101.706 2.75403 102.504 2.27906C102.976 1.9981 103.49 1.53589 104.027 1.45645C104.492 1.38769 105.094 1.37765 105.556 1.45695C106.032 1.53868 106.273 2.03712 106.39 2.54584C106.603 3.47641 106.539 4.53294 106.411 5.47425C106.336 6.03364 106.113 6.54789 105.961 7.08337C105.651 8.17375 105.62 9.34963 105.381 10.4677C105.292 10.8862 105.244 11.3301 105.123 11.7385C105.011 12.1175 104.877 12.3511 104.869 12.7505C104.857 13.2773 104.585 13.9791 104.727 14.4967C105.574 13.8978 106.499 13.2482 107.25 12.5004C107.782 11.9704 108.25 11.3609 108.772 10.8173C109.422 10.14 110.111 9.51136 110.775 8.8516C111.491 8.13988 112.204 7.37371 113.036 6.83135C113.576 6.47888 114.062 6.3944 114.676 6.40683C115.721 6.42799 116.279 7.41933 116.53 8.45643C116.682 9.08349 116.929 9.94907 116.745 10.6006C116.594 11.1397 116.167 11.4149 115.794 11.7585C114.967 12.5191 114.195 13.3512 113.333 14.0639C112.982 14.3533 112.602 14.5831 112.263 14.8915C111.78 15.331 111.326 15.8081 110.843 16.2475C110.423 16.6285 109.686 17.0148 110.155 17.7129C110.347 17.998 110.783 18.1714 111.055 18.3294C112.94 19.4241 114.922 20.4401 116.885 21.3426C117.964 21.8389 118.966 22.2719 119.814 23.2016C120.482 23.9341 120.568 24.696 120.581 25.7349C120.602 27.4703 120.027 29.4654 119.038 30.8007C118.316 31.7745 117.115 31.7702 116.097 31.59C115.432 31.4723 114.795 31.1921 114.163 30.9438C113.78 30.793 113.545 30.5311 113.193 30.2918C112.404 29.7551 111.645 29.2985 110.766 28.9572C110.782 29.5969 111.37 30.3054 111.654 30.8204C111.894 31.2541 112.114 31.957 112.157 32.4744C112.254 33.6475 111.963 35.0434 111.243 35.9293C110.857 36.4038 110.494 36.812 109.991 37.1372C109.45 37.4872 108.925 37.4497 108.328 37.4499C107.775 37.45 107.311 37.5649 106.871 37.1344C106.483 36.7541 106.431 36.3786 106.278 35.836C106.179 35.487 106.094 35.1366 105.998 34.7882C105.892 34.4001 105.804 34.0961 105.649 33.7307C105.535 33.4633 105.465 33.1279 105.278 32.9061C105.139 32.7402 105.214 32.6858 104.988 32.9295C104.615 33.3315 104.305 33.9486 104.093 34.4674C103.884 34.9785 103.764 35.3135 103.741 35.8589C103.731 36.1231 103.66 36.4149 103.602 36.669C103.455 37.3108 103.098 37.7543 103.11 38.4419" fill="white"/>
<path d="M104.994 35.1823C104.407 36.1339 103.967 37.1421 103.439 38.1292C103.266 38.4522 103.071 38.7357 102.859 39.0262C102.373 39.6925 101.85 40.3657 101.41 41.0541C101.115 41.5146 100.669 42.1845 100.209 42.4518C99.8111 42.6835 99.2084 42.5644 98.7774 42.5567C98.375 42.5496 97.872 42.5726 97.5552 42.2534C96.3907 41.0799 96.0914 39.1827 95.5759 37.6165C95.2811 36.7209 94.9656 35.8341 94.8398 34.8809C94.7637 34.3039 94.8983 33.7044 94.9399 33.1278C95.0057 32.2178 95.1471 31.1727 95.521 30.3459C95.8377 29.6454 96.3807 29.0624 96.8926 28.5464C97.33 28.1055 97.7962 27.7234 98.3001 27.3857C98.6573 27.1463 99.1596 26.78 99.5925 26.7864C98.4424 27.4275 97.3467 28.1767 96.2112 28.8478C95.3323 29.3672 94.3402 29.6264 93.4024 29.9806C92.7793 30.2159 92.2816 30.2212 91.6372 30.1178C90.8901 29.998 90.457 29.4094 89.9637 28.8001C89.1501 27.7949 88.3209 26.8476 87.5728 25.7713C86.8679 24.7571 86.1591 23.6911 85.5784 22.5779C84.9429 21.3598 84.3148 19.0295 85.5185 17.9808C86.221 17.3687 87.3906 16.8379 88.2895 17.049C88.589 17.1193 88.9042 17.3435 89.1738 17.4913C89.7397 17.8016 90.3042 18.1153 90.8737 18.4173C91.1579 18.5681 91.4898 18.6686 91.7487 18.8727C91.8943 18.9874 92.0293 19.1642 92.1808 19.2862C92.6981 19.703 93.2678 20.0296 93.7865 20.4311C94.2351 20.7784 94.5684 21.3058 95.0724 21.5745C95.2201 21.6532 95.3627 21.6619 95.5021 21.7828C95.6039 21.8711 95.6757 21.9888 95.777 22.0781C95.9637 22.2427 96.2564 22.3914 96.4824 22.4789C96.6364 22.0455 96.0938 21.1989 95.902 20.8347C95.2988 19.6891 94.4521 18.6727 93.7054 17.6536C93.1826 16.9403 92.5441 16.204 92.1814 15.3522C91.9635 14.8406 91.8148 14.2943 91.5932 13.7825C91.3913 13.4098 91.2184 13.0208 91.0746 12.6154C90.9783 12.1931 90.8806 11.7712 90.7815 11.3497C90.5792 10.5721 90.329 9.81705 90.0467 9.07455C89.7954 8.41367 89.7665 7.66284 89.6988 6.95753C89.6513 6.46214 89.6253 6.11813 89.9061 5.71563C90.4229 4.97495 91.2382 4.56693 92.0514 4.75823C92.8705 4.95093 93.7859 5.32798 94.56 5.68979C95.1229 5.95292 95.5537 6.25438 95.693 6.94725C95.8224 7.59067 95.797 8.26213 95.9509 8.9159C96.0993 9.54655 96.2887 10.182 96.4811 10.7971C96.8479 11.9705 97.3669 13.1208 97.4766 14.36C97.7384 14.4521 98.2579 12.1545 98.3171 11.9262C98.6685 10.5716 98.7225 9.25139 98.8507 7.86906C98.9142 7.185 99.224 6.60214 99.4695 5.98041C99.6992 5.39842 99.9386 4.70835 100.301 4.20929C100.878 3.41558 101.706 2.75403 102.504 2.27906C102.976 1.9981 103.49 1.53589 104.027 1.45645C104.492 1.38769 105.094 1.37765 105.556 1.45695C106.032 1.53868 106.273 2.03712 106.39 2.54584C106.603 3.47641 106.539 4.53294 106.411 5.47425C106.336 6.03364 106.113 6.54789 105.961 7.08337C105.651 8.17375 105.62 9.34963 105.381 10.4677C105.292 10.8862 105.244 11.3301 105.123 11.7385C105.011 12.1175 104.877 12.3511 104.869 12.7505C104.857 13.2773 104.585 13.9791 104.727 14.4967C105.574 13.8978 106.499 13.2482 107.25 12.5004C107.782 11.9704 108.25 11.3609 108.772 10.8173C109.422 10.14 110.111 9.51136 110.775 8.8516C111.491 8.13988 112.204 7.37371 113.036 6.83135C113.576 6.47888 114.062 6.3944 114.676 6.40683C115.721 6.42799 116.279 7.41933 116.53 8.45643C116.682 9.08349 116.929 9.94907 116.745 10.6006C116.594 11.1397 116.167 11.4149 115.794 11.7585C114.967 12.5191 114.195 13.3512 113.333 14.0639C112.982 14.3533 112.602 14.5831 112.263 14.8915C111.78 15.331 111.326 15.8081 110.843 16.2475C110.423 16.6285 109.686 17.0148 110.155 17.7129C110.347 17.998 110.783 18.1714 111.055 18.3294C112.94 19.4241 114.922 20.4401 116.885 21.3425C117.964 21.8389 118.966 22.2719 119.814 23.2016C120.482 23.9341 120.568 24.696 120.581 25.7349C120.602 27.4703 120.027 29.4654 119.038 30.8007C118.316 31.7745 117.115 31.7702 116.097 31.59C115.432 31.4723 114.795 31.1921 114.163 30.9438C113.78 30.793 113.545 30.5311 113.193 30.2918C112.404 29.7551 111.645 29.2985 110.766 28.9572C110.782 29.5969 111.37 30.3054 111.654 30.8204C111.894 31.2541 112.114 31.957 112.157 32.4744C112.254 33.6475 111.963 35.0434 111.243 35.9293C110.857 36.4038 110.494 36.812 109.991 37.1372C109.45 37.4872 108.925 37.4497 108.328 37.4499C107.775 37.45 107.311 37.5649 106.871 37.1344C106.483 36.7541 106.431 36.3786 106.278 35.836C106.179 35.487 106.094 35.1366 105.998 34.7882C105.892 34.4001 105.804 34.0961 105.649 33.7307C105.535 33.4633 105.465 33.1279 105.278 32.9061C105.139 32.7402 105.214 32.6858 104.988 32.9295C104.615 33.3315 104.305 33.9486 104.093 34.4674C103.884 34.9785 103.764 35.3135 103.741 35.8589C103.731 36.1231 103.66 36.4149 103.602 36.669C103.455 37.3108 103.098 37.7543 103.11 38.4419" stroke="black" stroke-width="3.03367" stroke-linecap="round" stroke-linejoin="round"/>
<path d="M103.171 16.184C102.565 16.8548 102 17.5677 101.478 18.3225C101.147 18.7415 100.88 19.2059 100.679 19.7158C100.467 20.4836 100.49 21.4585 100.557 22.2431C100.646 23.2931 100.845 23.9322 101.765 24.3062C102.146 24.4685 102.538 24.5837 102.94 24.6519C103.225 24.6098 103.501 24.5261 103.767 24.4008C104.415 24.2036 105.006 24.2391 105.575 23.7481C106.287 23.1344 107.049 22.0468 107.183 21.0324C107.254 20.4892 107.169 19.7955 106.814 19.394C106.345 18.8636 105.646 18.5664 105.174 18.0337C104.796 17.6072 104.626 17.2145 104.15 16.9C103.454 16.4401 102.774 15.7531 103.171 16.184Z" fill="#FFD600" stroke="black" stroke-width="3.03367" stroke-linecap="round" stroke-linejoin="round"/>
</g>
<defs>
<clipPath id="clip0_167_4279">
<rect width="345" height="360" fill="white"/>
</clipPath>
</defs>
</svg>
